<?xml version="1.0" encoding="utf-8" standalone="no"?>
<!DOCTYPE svg PUBLIC "-//W3C//DTD SVG 1.1//EN"
  "http://www.w3.org/Graphics/SVG/1.1/DTD/svg11.dtd">
<!-- Created with matplotlib (http://matplotlib.org/) -->
<svg height="288pt" version="1.1" viewBox="0 0 432 288" width="432pt" xmlns="http://www.w3.org/2000/svg" xmlns:xlink="http://www.w3.org/1999/xlink">
 <defs>
  <style type="text/css">
*{stroke-linecap:butt;stroke-linejoin:round;stroke-miterlimit:100000;}
  </style>
 </defs>
 <g id="figure_1">
  <g id="patch_1">
   <path d="M 0 288 
L 432 288 
L 432 0 
L 0 0 
z
" style="fill:#ffffff;"/>
  </g>
  <g id="axes_1">
   <g id="patch_2">
    <path d="M 54 252 
L 388.8 252 
L 388.8 28.8 
L 54 28.8 
z
" style="fill:#ffffff;"/>
   </g>
   <g id="LineCollection_1">
    <path clip-path="url(#p7790a2f4a0)" d="M 130.512462 251.553325 
L 229.246875 251.251438 
L 278.94375 250.902605 
L 310.33125 250.478405 
L 321.80072 250.25625 
L 328.640625 246.437613 
L 334.739469 243.28125 
L 341.976197 239.79375 
L 362.64375 230.203068 
L 367.875 227.407778 
L 370.51931 225.84375 
L 373.22476 224.1 
L 375.721875 222.33022 
L 378.3375 220.268084 
L 381.782564 217.125 
L 383.56875 215.284847 
L 386.184375 212.228484 
L 386.688832 199.6875 
L 387.159235 182.25 
L 387.649103 154.35 
L 388.170988 110.75625 
L 388.486888 65.41875 
L 388.589873 30.54375 
L 386.184375 28.943968 
L 210.9375 29.37726 
L 145.546875 29.535755 
L 116.775 29.807025 
L 98.465625 30.165622 
L 86.224142 30.54375 
L 79.967397 34.03125 
L 72.309375 38.296757 
L 64.4625 42.258429 
L 59.23125 44.25986 
L 56.615625 44.911247 
L 56.32685 54.95625 
L 56.059832 74.1375 
L 55.417324 124.70625 
L 54.879162 168.3 
L 54.636906 208.40625 
L 54.514638 250.25625 
L 56.615625 251.656908 
L 82.112524 251.630358 
L 82.112524 251.630358 
" style="fill:none;stroke:#0000ff;"/>
   </g>
   <g id="LineCollection_2">
    <path clip-path="url(#p7790a2f4a0)" d="M 278.284655 29.847741 
L 210.9375 30.019437 
L 156.009375 30.206898 
L 129.853125 30.503602 
L 127.544259 30.54375 
L 121.591815 35.775 
L 118.05195 39.2625 
L 114.908097 42.75 
L 112.182126 46.2375 
L 109.862942 49.725 
L 107.917625 53.2125 
L 106.302141 56.7 
L 104.991489 60.1875 
L 103.696875 64.503389 
L 103.042763 67.1625 
L 101.999093 72.39375 
L 98.940206 89.83125 
L 98.024861 93.31875 
L 96.855222 96.80625 
L 95.33381 100.29375 
L 94.397151 102.0375 
L 93.234375 103.907729 
L 92.06045 105.525 
L 90.599418 107.26875 
L 88.003125 109.772122 
L 85.3875 111.781411 
L 82.771875 113.414648 
L 80.15625 114.76976 
L 77.355358 115.9875 
L 72.309375 117.709727 
L 69.69375 118.418386 
L 64.4625 119.598703 
L 59.23125 120.517894 
L 56.615625 120.918412 
L 55.678965 161.325 
L 55.289147 189.225 
L 55.044402 224.1 
L 54.913658 250.25625 
L 56.615625 251.390895 
L 148.1625 251.14112 
L 221.4 250.735137 
L 263.25 250.300114 
L 266.331992 250.25625 
L 279.06798 238.05 
L 283.218669 234.5625 
L 286.790625 231.878337 
L 290.578271 229.33125 
L 294.6375 226.89402 
L 299.887113 224.1 
L 305.1 221.626994 
L 311.509239 218.86875 
L 320.79375 215.187209 
L 333.871875 210.053625 
L 341.71875 206.668367 
L 346.95 204.132485 
L 352.18125 201.268814 
L 354.796875 199.673715 
L 357.4125 197.94375 
L 360.028125 196.056696 
L 364.129583 192.7125 
L 366.054227 190.96875 
L 369.52472 187.48125 
L 371.109067 185.7375 
L 374.024319 182.25 
L 376.694622 178.7625 
L 380.953125 172.756544 
L 386.192273 164.8125 
L 386.88907 136.9125 
L 387.503841 103.78125 
L 387.903089 70.65 
L 388.12077 34.03125 
L 388.130315 30.54375 
L 386.184375 29.249598 
L 326.683993 29.595612 
L 326.683993 29.595612 
" style="fill:none;stroke:#0000ff;"/>
   </g>
   <g id="LineCollection_3">
    <path clip-path="url(#p7790a2f4a0)" d="M 178.89073 30.410139 
L 156.772638 30.54375 
L 153.39375 34.503927 
L 145.546875 43.534888 
L 142.93125 47.00869 
L 141.139643 49.725 
L 140.096385 51.46875 
L 138.322283 54.95625 
L 136.897559 58.44375 
L 135.788539 61.93125 
L 134.947946 65.41875 
L 134.357582 68.90625 
L 133.949662 72.39375 
L 133.60334 77.625 
L 133.464662 84.6 
L 133.371783 102.0375 
L 133.062215 107.26875 
L 132.686597 110.75625 
L 132.120498 114.24375 
L 131.293962 117.73125 
L 130.109567 121.21875 
L 129.333657 122.9625 
L 128.399323 124.70625 
L 127.2375 126.502089 
L 125.885901 128.19375 
L 124.170648 129.9375 
L 121.990149 131.68125 
L 119.095666 133.425 
L 116.775 134.492523 
L 114.159375 135.455905 
L 111.54375 136.205113 
L 108.370911 136.9125 
L 103.696875 137.628542 
L 98.465625 138.120407 
L 93.234375 138.385146 
L 85.3875 138.509715 
L 72.309375 138.39753 
L 61.846875 138.360531 
L 56.615625 138.461224 
L 55.953854 164.8125 
L 55.535462 190.96875 
L 55.271271 222.35625 
L 55.103265 250.25625 
L 56.615625 251.26449 
L 140.315625 250.999624 
L 210.9375 250.565416 
L 241.638253 250.25625 
L 243.886176 246.76875 
L 245.82358 243.28125 
L 248.389935 238.05 
L 250.9007 232.81875 
L 252.7875 229.300228 
L 254.992798 225.84375 
L 256.306428 224.1 
L 258.01875 222.124656 
L 260.634375 219.609675 
L 263.25 217.54399 
L 265.865625 215.804684 
L 268.48125 214.306487 
L 271.096875 212.989608 
L 273.7125 211.811714 
L 278.94375 209.765958 
L 284.175 207.998594 
L 292.021875 205.652559 
L 319.150371 197.94375 
L 324.390045 196.2 
L 329.146806 194.45625 
L 333.871875 192.525788 
L 339.103125 190.082759 
L 343.918448 187.48125 
L 346.95 185.634475 
L 349.565625 183.879399 
L 354.000738 180.50625 
L 356.054482 178.7625 
L 357.982207 177.01875 
L 361.489985 173.53125 
L 364.678704 170.04375 
L 367.875 166.28546 
L 378.3375 153.474407 
L 380.953125 150.559028 
L 384.063033 147.375 
L 386.184375 145.413806 
L 386.95105 114.24375 
L 387.465731 84.6 
L 387.795249 53.2125 
L 387.911942 30.54375 
L 386.184375 29.394828 
L 239.709375 30.264511 
L 227.290579 30.293097 
L 227.290579 30.293097 
" style="fill:none;stroke:#0000ff;"/>
   </g>
   <g id="LineCollection_4">
    <path clip-path="url(#p7790a2f4a0)" d="M 379.626705 140.386538 
L 383.56875 137.568632 
L 386.184375 135.93615 
L 386.893972 107.26875 
L 387.403521 77.625 
L 387.714772 46.2375 
L 387.791841 30.54375 
L 386.184375 29.474701 
L 242.325 30.419134 
L 190.108891 30.54375 
L 193.341213 34.03125 
L 194.725214 35.775 
L 195.739697 37.51875 
L 196.161044 39.2625 
L 195.722147 41.00625 
L 194.302259 42.75 
L 191.914538 44.49375 
L 185.549457 47.98125 
L 184.78125 48.354458 
L 179.204012 51.46875 
L 176.435296 53.2125 
L 173.948873 54.95625 
L 171.703125 56.721819 
L 169.0875 59.121117 
L 166.471875 62.007814 
L 163.85625 65.662081 
L 162.064542 68.90625 
L 161.240625 70.65 
L 159.935174 74.1375 
L 158.920706 77.625 
L 158.177539 81.1125 
L 157.645763 84.6 
L 157.150973 89.83125 
L 156.941092 95.0625 
L 156.944112 100.29375 
L 157.180779 107.26875 
L 157.806088 117.73125 
L 158.392924 128.19375 
L 158.472382 133.425 
L 158.341914 136.9125 
L 157.962183 140.4 
L 157.633769 142.14375 
L 157.176267 143.8875 
L 156.548821 145.63125 
L 155.676774 147.375 
L 154.431082 149.11875 
L 152.611499 150.8625 
L 150.778125 152.056845 
L 149.652601 152.60625 
L 148.1625 153.190922 
L 145.546875 153.910473 
L 142.93125 154.36458 
L 140.315625 154.61233 
L 135.084375 154.730013 
L 129.853125 154.512794 
L 124.621875 154.07538 
L 116.775 153.171735 
L 106.3125 151.729579 
L 85.3875 148.773869 
L 77.540625 147.829544 
L 69.69375 147.074864 
L 61.846875 146.587308 
L 56.615625 146.467385 
L 56.026813 170.04375 
L 55.636886 194.45625 
L 55.369497 225.84375 
L 55.207545 250.25625 
L 56.615625 251.19497 
L 135.084375 250.930538 
L 203.090625 250.498765 
L 228.119965 250.25625 
L 229.504573 246.76875 
L 230.446715 243.28125 
L 231.015843 239.79375 
L 231.278723 236.30625 
L 231.299943 232.81875 
L 231.021334 227.5875 
L 230.357461 218.86875 
L 230.325044 215.38125 
L 230.439606 213.6375 
L 230.684438 211.89375 
L 231.104634 210.15 
L 231.8625 208.207518 
L 232.757555 206.6625 
L 234.478125 204.677895 
L 237.09375 202.737053 
L 239.709375 201.400057 
L 242.325 200.419339 
L 244.940625 199.628071 
L 250.171875 198.446036 
L 255.403125 197.548623 
L 263.25 196.467686 
L 289.40625 193.122764 
L 297.253125 191.859768 
L 305.1 190.355533 
L 310.33125 189.180885 
L 316.757012 187.48125 
L 320.79375 186.253215 
L 326.025 184.419863 
L 331.286153 182.25 
L 336.4875 179.69049 
L 341.082717 177.01875 
L 344.334375 174.859699 
L 345.177532 174.24187 
L 345.177532 174.24187 
" style="fill:none;stroke:#0000ff;"/>
   </g>
   <g id="LineCollection_5">
    <path clip-path="url(#p7790a2f4a0)" d="M 55.487075 216.911281 
L 55.257351 250.25625 
L 56.615625 251.161766 
L 135.084375 250.886428 
L 203.090625 250.436846 
L 221.686981 250.25625 
L 222.229461 248.5125 
L 222.639975 246.76875 
L 222.925514 245.025 
L 223.092852 243.28125 
L 223.098676 239.79375 
L 222.705769 236.30625 
L 221.956727 232.81875 
L 220.890405 229.33125 
L 219.541004 225.84375 
L 217.939014 222.35625 
L 216.108643 218.86875 
L 213.553125 214.497191 
L 210.731557 210.15 
L 207.071831 204.91875 
L 201.760966 197.94375 
L 197.384122 192.7125 
L 194.154275 189.225 
L 192.329468 187.48125 
L 190.0125 185.4614 
L 187.396875 183.490611 
L 184.78125 181.833131 
L 182.165625 180.427157 
L 178.674882 178.7625 
L 174.31875 177.01875 
L 169.0875 175.122759 
L 161.240625 172.538218 
L 147.20226 168.3 
L 132.46875 164.147639 
L 119.390625 160.693206 
L 107.725614 157.8375 
L 98.465625 155.7616 
L 90.61875 154.165989 
L 81.871236 152.60625 
L 74.925 151.563902 
L 67.078125 150.664527 
L 61.846875 150.26052 
L 56.615625 150.056723 
L 56.143294 168.516164 
L 56.143294 168.516164 
" style="fill:none;stroke:#0000ff;"/>
    <path clip-path="url(#p7790a2f4a0)" d="M 258.578694 187.240793 
L 265.865625 187.4097 
L 273.7125 187.34993 
L 281.559375 187.030462 
L 289.40625 186.432087 
L 297.253125 185.523192 
L 302.484375 184.714142 
L 307.715625 183.725665 
L 313.983265 182.25 
L 318.178125 181.066341 
L 323.409375 179.314194 
L 326.025 178.307945 
L 331.25625 175.984278 
L 335.87138 173.53125 
L 339.103125 171.559786 
L 341.71875 169.778896 
L 345.896887 166.55625 
L 347.943256 164.8125 
L 351.701451 161.325 
L 354.796875 158.202208 
L 367.875 144.420821 
L 370.490625 142.003177 
L 373.10625 139.793011 
L 375.721875 137.793544 
L 378.3375 135.998812 
L 380.953125 134.395843 
L 383.56875 132.967658 
L 386.18479 131.68125 
L 386.874503 103.78125 
L 387.377586 74.1375 
L 387.676655 42.75 
L 387.734478 30.54375 
L 386.184375 29.512851 
L 242.325 30.496306 
L 224.26003 30.54375 
L 231.8625 32.710102 
L 237.09375 34.525883 
L 240.106749 35.775 
L 243.3746 37.51875 
L 245.845496 39.2625 
L 247.645154 41.00625 
L 248.79283 42.75 
L 249.413715 44.49375 
L 249.498933 46.2375 
L 249.039089 47.98125 
L 248.024756 49.725 
L 246.342029 51.46875 
L 243.898593 53.2125 
L 240.468593 54.95625 
L 237.09375 56.235659 
L 234.478125 57.055783 
L 228.986199 58.44375 
L 221.4 59.910632 
L 203.090625 63.196762 
L 197.859375 64.504581 
L 194.904506 65.41875 
L 192.628125 66.225736 
L 190.0125 67.309455 
L 186.842936 68.90625 
L 184.035474 70.65 
L 181.727607 72.39375 
L 179.55 74.390976 
L 178.201076 75.88125 
L 176.810468 77.625 
L 175.649165 79.36875 
L 174.31875 81.710218 
L 173.02939 84.6 
L 171.839328 88.0875 
L 171.383856 89.83125 
L 170.689597 93.31875 
L 170.234542 96.80625 
L 169.983403 100.29375 
L 169.907956 103.78125 
L 170.076654 109.0125 
L 170.535671 114.24375 
L 171.248214 119.475 
L 172.196716 124.70625 
L 173.367184 129.9375 
L 174.756268 135.16875 
L 176.369699 140.4 
L 178.221463 145.63125 
L 180.34326 150.8625 
L 182.165625 154.836641 
L 183.682354 157.8375 
L 185.646029 161.325 
L 187.896075 164.8125 
L 190.0125 167.646581 
L 192.138966 170.04375 
L 193.937368 171.7875 
L 196.087051 173.53125 
L 198.705106 175.275 
L 201.984454 177.01875 
L 203.090625 177.524871 
L 208.321875 179.52176 
L 210.797194 180.286851 
L 210.797194 180.286851 
" style="fill:none;stroke:#0000ff;"/>
   </g>
   <g id="LineCollection_6">
    <path clip-path="url(#p7790a2f4a0)" d="M 144.815717 178.662389 
L 137.626836 175.275 
L 129.853125 171.926217 
L 124.621875 169.84163 
L 116.775 166.946742 
L 110.478833 164.8125 
L 103.696875 162.696488 
L 95.85 160.476683 
L 88.003125 158.515071 
L 80.15625 156.831376 
L 72.309375 155.464172 
L 67.078125 154.757811 
L 61.846875 154.245058 
L 56.615625 153.957687 
L 56.060135 177.01875 
L 55.696282 201.43125 
L 55.408836 238.05 
L 55.31333 250.25625 
L 56.615625 251.124447 
L 132.46875 250.850276 
L 200.475 250.39094 
L 214.486498 250.25625 
L 214.788936 248.5125 
L 214.947515 246.76875 
L 214.967294 245.025 
L 214.853213 243.28125 
L 214.609992 241.5375 
L 214.242026 239.79375 
L 213.553125 237.459193 
L 212.432743 234.5625 
L 210.672756 231.075 
L 208.321875 227.32494 
L 205.70625 223.799321 
L 203.01969 220.6125 
L 199.762399 217.125 
L 195.24375 212.759721 
L 192.319452 210.15 
L 187.396875 206.006864 
L 181.802769 201.622469 
L 181.802769 201.622469 
" style="fill:none;stroke:#0000ff;"/>
    <path clip-path="url(#p7790a2f4a0)" d="M 387.634975 38.388187 
L 387.670006 30.54375 
L 386.184375 29.555728 
L 253.129576 30.54375 
L 258.01875 32.633757 
L 260.728427 34.03125 
L 263.484063 35.775 
L 265.865625 37.651152 
L 267.512387 39.2625 
L 268.950018 41.00625 
L 270.047242 42.75 
L 271.096875 45.208648 
L 271.409804 46.2375 
L 271.687178 47.98125 
L 271.718436 49.725 
L 271.502063 51.46875 
L 271.029849 53.2125 
L 270.255431 54.95625 
L 269.196002 56.7 
L 267.795736 58.44375 
L 265.865625 60.314519 
L 263.25 62.268241 
L 260.634375 63.837971 
L 257.396092 65.41875 
L 252.7875 67.235283 
L 247.466375 68.90625 
L 240.637832 70.65 
L 232.711351 72.39375 
L 221.4 74.851569 
L 216.16875 76.16646 
L 210.9375 77.738002 
L 206.564767 79.36875 
L 203.090625 80.959299 
L 200.475 82.411648 
L 197.859375 84.154612 
L 197.269062 84.6 
L 195.197505 86.34375 
L 192.628125 89.088475 
L 192.040942 89.83125 
L 190.0125 92.93512 
L 188.951557 95.0625 
L 188.238732 96.80625 
L 187.396875 99.453211 
L 186.810234 102.0375 
L 186.342286 105.525 
L 186.187147 109.0125 
L 186.308879 112.5 
L 186.681768 115.9875 
L 187.396875 119.960768 
L 188.132712 122.9625 
L 189.20046 126.45 
L 190.499914 129.9375 
L 192.044614 133.425 
L 193.851571 136.9125 
L 195.943787 140.4 
L 198.356489 143.8875 
L 201.133706 147.375 
L 204.332059 150.8625 
L 206.112085 152.60625 
L 210.09013 156.09375 
L 213.553125 158.748205 
L 217.343368 161.325 
L 221.4 163.764363 
L 224.015625 165.186688 
L 229.246875 167.726122 
L 234.478125 169.910471 
L 237.09375 170.885309 
L 242.325 172.621659 
L 247.55625 174.09856 
L 252.7875 175.339216 
L 258.01875 176.358363 
L 263.25 177.173492 
L 268.48125 177.788732 
L 273.7125 178.215507 
L 278.94375 178.455886 
L 284.175 178.508165 
L 289.40625 178.367452 
L 294.6375 178.026005 
L 299.86875 177.473413 
L 305.1 176.68661 
L 310.33125 175.636562 
L 315.5625 174.284117 
L 320.79375 172.583283 
L 323.409375 171.586395 
L 326.937429 170.04375 
L 331.25625 167.851782 
L 333.871875 166.329431 
L 336.4875 164.644144 
L 340.985442 161.325 
L 343.1003 159.58125 
L 346.95 156.142133 
L 352.18125 150.965417 
L 357.4125 145.619605 
L 360.970038 142.14375 
L 365.259375 138.392385 
L 367.875 136.35925 
L 370.490625 134.530458 
L 373.10625 132.897444 
L 375.721875 131.445411 
L 378.81406 129.9375 
L 383.56875 128.017017 
L 386.184375 127.131601 
L 386.88241 98.55 
L 387.181341 81.98563 
L 387.181341 81.98563 
" style="fill:none;stroke:#0000ff;"/>
   </g>
   <g id="LineCollection_7">
    <path clip-path="url(#p7790a2f4a0)" d="M 72.111166 160.592595 
L 65.716888 159.58125 
L 61.846875 159.123462 
L 56.615625 158.745994 
L 56.103167 180.50625 
L 55.74901 204.91875 
L 55.384322 250.25625 
L 56.615625 251.077119 
L 129.853125 250.801986 
L 195.24375 250.352023 
L 205.415139 250.25625 
L 205.413841 248.5125 
L 205.257455 246.76875 
L 204.949564 245.025 
L 204.493824 243.28125 
L 203.893793 241.5375 
L 203.090625 239.666464 
L 202.278848 238.05 
L 200.137109 234.5625 
L 197.50741 231.075 
L 194.432444 227.5875 
L 190.957062 224.1 
L 187.131627 220.6125 
L 182.165625 216.421767 
L 176.43551 211.89375 
L 169.0875 206.387275 
L 161.240625 200.768341 
L 153.39375 195.412538 
L 146.530879 190.96875 
L 140.315625 187.176258 
L 132.46875 182.710713 
L 127.2375 179.945198 
L 121.318742 177.01875 
L 114.159375 173.764631 
L 113.650853 173.543497 
L 113.650853 173.543497 
" style="fill:none;stroke:#0000ff;"/>
    <path clip-path="url(#p7790a2f4a0)" d="M 226.544067 93.384107 
L 224.015625 94.716886 
L 223.410239 95.0625 
L 220.708498 96.80625 
L 218.469419 98.55 
L 216.16875 100.794948 
L 215.113815 102.0375 
L 213.553125 104.306942 
L 212.872364 105.525 
L 212.085852 107.26875 
L 211.47928 109.0125 
L 210.9375 111.361168 
L 210.757379 112.5 
L 210.617358 114.24375 
L 210.606432 115.9875 
L 210.717345 117.73125 
L 210.944187 119.475 
L 211.747415 122.9625 
L 212.972557 126.45 
L 213.741983 128.19375 
L 215.61351 131.68125 
L 216.712551 133.425 
L 219.255788 136.9125 
L 222.294656 140.4 
L 224.015625 142.151597 
L 227.899902 145.63125 
L 231.8625 148.6888 
L 235.04323 150.8625 
L 239.709375 153.672248 
L 242.325 155.083172 
L 244.940625 156.391086 
L 250.171875 158.711618 
L 255.403125 160.69121 
L 260.634375 162.35794 
L 265.865625 163.734534 
L 271.096875 164.840429 
L 276.328125 165.665249 
L 281.559375 166.233678 
L 286.790625 166.535323 
L 292.021875 166.55625 
L 297.253125 166.279879 
L 302.484375 165.687922 
L 307.715625 164.759073 
L 312.946875 163.42007 
L 315.5625 162.583985 
L 318.922169 161.325 
L 322.827096 159.58125 
L 326.025 157.907351 
L 329.021521 156.09375 
L 331.604421 154.35 
L 333.966066 152.60625 
L 338.172997 149.11875 
L 342.022547 145.63125 
L 349.565625 138.560883 
L 353.501376 135.16875 
L 357.4125 132.243803 
L 360.028125 130.532603 
L 362.64375 129.018255 
L 365.259375 127.685534 
L 368.029683 126.45 
L 373.10625 124.601557 
L 378.3375 123.144004 
L 380.953125 122.55404 
L 386.184375 121.595895 
L 386.831328 95.0625 
L 387.289937 67.1625 
L 387.556206 37.51875 
L 387.588244 30.54375 
L 386.184375 29.610104 
L 274.043382 30.54375 
L 276.952884 32.2875 
L 279.408445 34.03125 
L 281.559375 35.837816 
L 284.175 38.580507 
L 284.751431 39.2625 
L 286.790625 42.22848 
L 287.107836 42.75 
L 287.999167 44.49375 
L 288.744006 46.2375 
L 289.40625 48.199888 
L 289.79794 49.725 
L 290.117753 51.46875 
L 290.312274 53.2125 
L 290.381167 54.95625 
L 290.322566 56.7 
L 290.133056 58.44375 
L 289.807624 60.1875 
L 289.335951 61.93125 
L 288.682991 63.675 
L 287.859332 65.41875 
L 286.790625 67.254934 
L 285.580046 68.90625 
L 284.069087 70.65 
L 281.559375 72.944456 
L 278.94375 74.854725 
L 276.328125 76.437044 
L 273.7125 77.7868 
L 270.100017 79.36875 
L 268.039964 80.167453 
L 268.039964 80.167453 
" style="fill:none;stroke:#0000ff;"/>
   </g>
   <g id="LineCollection_8">
    <path clip-path="url(#p7790a2f4a0)" d="M 192.31484 240.50799 
L 191.872923 239.79375 
L 189.322079 236.30625 
L 186.277792 232.81875 
L 182.801487 229.33125 
L 178.967581 225.84375 
L 172.706755 220.6125 
L 166.019477 215.38125 
L 156.009375 207.902326 
L 146.991255 201.43125 
L 139.356346 196.2 
L 131.258195 190.96875 
L 124.621875 186.975059 
L 119.332505 183.99375 
L 112.685459 180.50625 
L 106.3125 177.448148 
L 101.08125 175.141669 
L 95.85 173.017307 
L 90.61875 171.079069 
L 85.3875 169.329394 
L 80.15625 167.77442 
L 74.925 166.424917 
L 69.69375 165.29381 
L 64.4625 164.40632 
L 59.23125 163.793 
L 56.615625 163.603058 
L 56.117162 185.7375 
L 55.77006 211.89375 
L 55.458299 250.25625 
L 56.615625 251.027801 
L 129.853125 250.737965 
L 162.981921 250.528874 
L 162.981921 250.528874 
" style="fill:none;stroke:#0000ff;"/>
    <path clip-path="url(#p7790a2f4a0)" d="M 386.207625 115.251 
L 386.8141 89.83125 
L 387.254763 61.93125 
L 387.495765 32.2875 
L 387.503043 30.54375 
L 386.184375 29.666767 
L 289.238294 30.54375 
L 292.021875 32.720195 
L 294.6375 35.164103 
L 295.232418 35.775 
L 297.253125 38.145002 
L 299.308663 41.00625 
L 300.377725 42.75 
L 302.187371 46.2375 
L 303.620711 49.725 
L 304.76953 53.2125 
L 305.647874 56.7 
L 306.289653 60.1875 
L 306.712225 63.675 
L 306.907534 67.1625 
L 306.855211 70.65 
L 306.519904 74.1375 
L 305.846472 77.625 
L 305.1 80.140584 
L 304.733464 81.1125 
L 303.95207 82.85625 
L 302.484375 85.432508 
L 301.834542 86.34375 
L 299.86875 88.659219 
L 297.253125 90.978541 
L 294.6375 92.781571 
L 292.021875 94.25664 
L 289.40625 95.507706 
L 284.175 97.596874 
L 276.065727 100.29375 
L 265.563222 103.78125 
L 260.634375 105.745833 
L 257.416258 107.26875 
L 254.369325 109.0125 
L 251.909542 110.75625 
L 249.952855 112.5 
L 248.461102 114.24375 
L 247.33288 115.9875 
L 246.566818 117.73125 
L 246.094358 119.475 
L 245.896975 121.21875 
L 245.957312 122.9625 
L 246.259377 124.70625 
L 246.788697 126.45 
L 247.55625 128.236924 
L 248.529238 129.9375 
L 250.171875 132.22891 
L 251.176747 133.425 
L 252.84633 135.16875 
L 255.403125 137.389605 
L 258.01875 139.325337 
L 260.634375 141.000563 
L 263.25 142.469131 
L 266.144829 143.8875 
L 271.096875 145.873965 
L 276.328125 147.474449 
L 281.559375 148.589721 
L 285.315616 149.11875 
L 289.40625 149.4338 
L 292.021875 149.483044 
L 294.6375 149.414959 
L 298.143682 149.11875 
L 299.86875 148.896124 
L 302.484375 148.422035 
L 306.621094 147.375 
L 307.715625 147.038772 
L 311.426164 145.63125 
L 315.075946 143.8875 
L 315.5625 143.628842 
L 318.178125 142.093267 
L 320.79375 140.335584 
L 325.189219 136.9125 
L 329.249651 133.425 
L 335.444128 128.19375 
L 339.103125 125.574291 
L 341.71875 123.980008 
L 344.257951 122.654639 
L 344.257951 122.654639 
" style="fill:none;stroke:#0000ff;"/>
   </g>
   <g id="LineCollection_9">
    <path clip-path="url(#p7790a2f4a0)" d="M 61.445908 250.950726 
L 129.853125 250.65471 
L 184.070649 250.25625 
L 183.394736 248.5125 
L 182.165625 246.064258 
L 181.572034 245.025 
L 179.55 242.060111 
L 177.759232 239.79375 
L 174.591794 236.30625 
L 171.022214 232.81875 
L 166.471875 228.767308 
L 160.865555 224.1 
L 152.042887 217.125 
L 140.315625 208.236074 
L 132.46875 202.532832 
L 125.85229 197.94375 
L 119.390625 193.71809 
L 114.159375 190.499992 
L 108.928125 187.48125 
L 102.381899 183.99375 
L 98.465625 182.068708 
L 93.234375 179.68485 
L 86.694807 177.01875 
L 81.860751 175.275 
L 76.338012 173.53125 
L 72.309375 172.428583 
L 67.078125 171.241993 
L 61.846875 170.351597 
L 56.615625 169.797247 
L 56.163466 190.96875 
L 55.878148 212.763273 
L 55.878148 212.763273 
" style="fill:none;stroke:#0000ff;"/>
    <path clip-path="url(#p7790a2f4a0)" d="M 341.90459 93.388251 
L 343.974665 95.0625 
L 344.334375 95.326151 
L 346.468546 96.80625 
L 346.95 97.109161 
L 349.393403 98.55 
L 349.565625 98.642619 
L 352.18125 99.980532 
L 352.836087 100.29375 
L 354.796875 101.157242 
L 356.980857 102.0375 
L 357.4125 102.198205 
L 360.028125 103.135212 
L 361.998271 103.78125 
L 362.64375 103.977975 
L 365.259375 104.748866 
L 367.875 105.451536 
L 368.15222 105.525 
L 370.490625 106.104952 
L 373.10625 106.710039 
L 375.698712 107.26875 
L 375.721875 107.273437 
L 378.3375 107.807633 
L 380.953125 108.310612 
L 383.56875 108.786881 
L 384.825676 109.0125 
L 386.184375 109.242689 
L 386.190704 109.0125 
L 386.238291 107.26875 
L 386.284854 105.525 
L 386.330391 103.78125 
L 386.374905 102.0375 
L 386.418395 100.29375 
L 386.460866 98.55 
L 386.50232 96.80625 
L 386.54276 95.0625 
L 386.582192 93.31875 
L 386.62062 91.575 
L 386.65805 89.83125 
L 386.694489 88.0875 
L 386.729944 86.34375 
L 386.764421 84.6 
L 386.797929 82.85625 
L 386.830477 81.1125 
L 386.862071 79.36875 
L 386.892722 77.625 
L 386.922437 75.88125 
L 386.951227 74.1375 
L 386.9791 72.39375 
L 387.006065 70.65 
L 387.032131 68.90625 
L 387.057308 67.1625 
L 387.081604 65.41875 
L 387.105028 63.675 
L 387.127588 61.93125 
L 387.149292 60.1875 
L 387.170148 58.44375 
L 387.190163 56.7 
L 387.209343 54.95625 
L 387.227695 53.2125 
L 387.245224 51.46875 
L 387.261935 49.725 
L 387.277832 47.98125 
L 387.292918 46.2375 
L 387.307195 44.49375 
L 387.320666 42.75 
L 387.33333 41.00625 
L 387.345186 39.2625 
L 387.356234 37.51875 
L 387.366469 35.775 
L 387.375887 34.03125 
L 387.384482 32.2875 
L 387.392246 30.54375 
L 386.184375 29.740453 
L 383.56875 29.764969 
L 380.953125 29.789702 
L 378.3375 29.814643 
L 375.721875 29.83978 
L 373.10625 29.865103 
L 370.490625 29.890599 
L 367.875 29.916256 
L 365.259375 29.942062 
L 362.64375 29.968004 
L 360.028125 29.994068 
L 357.4125 30.02024 
L 354.796875 30.046505 
L 352.18125 30.072847 
L 349.565625 30.099251 
L 346.95 30.125699 
L 344.334375 30.152173 
L 341.71875 30.178656 
L 339.103125 30.205126 
L 336.4875 30.231564 
L 333.871875 30.25795 
L 331.25625 30.28426 
L 328.640625 30.310471 
L 326.025 30.336561 
L 323.409375 30.362503 
L 320.79375 30.388273 
L 318.178125 30.413845 
L 315.5625 30.439192 
L 312.946875 30.464285 
L 310.33125 30.489097 
L 307.715625 30.513601 
L 305.1 30.537766 
L 304.436397 30.54375 
L 305.1 31.163303 
L 306.259035 32.2875 
L 307.715625 33.825673 
L 307.903592 34.03125 
L 309.372957 35.775 
L 310.33125 37.000614 
L 310.724421 37.51875 
L 311.954597 39.2625 
L 312.946875 40.760226 
L 313.105766 41.00625 
L 314.158935 42.75 
L 315.160612 44.49375 
L 315.5625 45.233423 
L 316.097267 46.2375 
L 316.982791 47.98125 
L 317.838762 49.725 
L 318.178125 50.446702 
L 318.651485 51.46875 
L 319.432412 53.2125 
L 320.199549 54.95625 
L 320.585807 55.850651 
" style="fill:none;stroke:#0000ff;"/>
   </g>
   <g id="LineCollection_10">
    <path clip-path="url(#p7790a2f4a0)" d="M 94.774032 215.502961 
L 94.61085 215.38125 
L 93.234375 214.375538 
L 92.20258 213.6375 
L 90.61875 212.528833 
L 89.687522 211.89375 
L 88.003125 210.770532 
L 87.042726 210.15 
L 85.3875 209.104938 
L 84.238176 208.40625 
L 82.771875 207.535572 
L 81.233624 206.6625 
L 80.15625 206.065324 
L 77.973592 204.91875 
L 77.540625 204.696622 
L 74.925 203.436338 
L 74.340589 203.175 
L 72.309375 202.287576 
L 70.162931 201.43125 
L 69.69375 201.248265 
L 67.078125 200.332161 
L 64.970823 199.6875 
L 64.4625 199.535292 
L 61.846875 198.873888 
L 59.23125 198.346786 
L 56.615625 197.965493 
L 56.585067 199.6875 
L 56.555399 201.43125 
L 56.526965 203.175 
L 56.499713 204.91875 
L 56.473591 206.6625 
L 56.448547 208.40625 
L 56.424524 210.15 
L 56.401465 211.89375 
L 56.37931 213.6375 
L 56.357996 215.38125 
L 56.337457 217.125 
L 56.317624 218.86875 
L 56.298424 220.6125 
L 56.279782 222.35625 
L 56.261617 224.1 
L 56.243844 225.84375 
L 56.226375 227.5875 
L 56.209116 229.33125 
L 56.191969 231.075 
L 56.174831 232.81875 
L 56.157594 234.5625 
L 56.140146 236.30625 
L 56.122371 238.05 
L 56.10415 239.79375 
L 56.085358 241.5375 
L 56.065873 243.28125 
L 56.045568 245.025 
L 56.024318 246.76875 
L 56.002 248.5125 
L 55.978494 250.25625 
L 56.615625 250.681004 
L 59.23125 250.672269 
L 61.846875 250.663134 
L 64.4625 250.653601 
L 67.078125 250.643671 
L 69.69375 250.633347 
L 72.309375 250.622628 
L 74.925 250.611517 
L 77.540625 250.600014 
L 80.15625 250.58812 
L 82.771875 250.575836 
L 85.3875 250.563162 
L 88.003125 250.550099 
L 90.61875 250.536647 
L 93.234375 250.522806 
L 95.85 250.508576 
L 98.465625 250.493956 
L 101.08125 250.478947 
L 103.696875 250.463548 
L 106.3125 250.447757 
L 108.928125 250.431574 
L 111.54375 250.414998 
L 114.159375 250.398027 
L 116.775 250.380659 
L 119.390625 250.362891 
L 122.00625 250.344723 
L 124.621875 250.32615 
L 127.2375 250.30717 
L 129.853125 250.287779 
L 132.46875 250.267973 
L 133.99221 250.25625 
L 132.46875 248.696151 
L 132.287283 248.5125 
L 130.534602 246.76875 
L 129.853125 246.103397 
L 128.74131 245.025 
L 127.708406 244.038303 
" style="fill:none;stroke:#0000ff;"/>
    <path clip-path="url(#p7790a2f4a0)" d="M 360.938164 52.828401 
L 361.182219 53.2125 
L 362.340355 54.95625 
L 362.64375 55.398878 
L 363.520363 56.7 
L 364.748087 58.44375 
L 365.259375 59.142941 
L 366.011276 60.1875 
L 367.323964 61.93125 
L 367.875 62.633747 
L 368.680204 63.675 
L 370.095773 65.41875 
L 370.490625 65.88585 
L 371.55629 67.1625 
L 373.096611 68.90625 
L 373.10625 68.916784 
L 374.675149 70.65 
L 375.721875 71.742229 
L 376.339997 72.39375 
L 378.082386 74.1375 
L 378.3375 74.381784 
L 379.891373 75.88125 
L 380.953125 76.849131 
L 381.798512 77.625 
L 383.56875 79.16008 
L 383.808031 79.36875 
L 385.912251 81.1125 
L 386.184375 81.326688 
L 386.189395 81.1125 
L 386.229549 79.36875 
L 386.268504 77.625 
L 386.306274 75.88125 
L 386.342868 74.1375 
L 386.378298 72.39375 
L 386.412576 70.65 
L 386.445714 68.90625 
L 386.477723 67.1625 
L 386.508614 65.41875 
L 386.538397 63.675 
L 386.567084 61.93125 
L 386.594685 60.1875 
L 386.621208 58.44375 
L 386.646664 56.7 
L 386.671061 54.95625 
L 386.694406 53.2125 
L 386.716706 51.46875 
L 386.737967 49.725 
L 386.758196 47.98125 
L 386.777395 46.2375 
L 386.795567 44.49375 
L 386.812715 42.75 
L 386.828839 41.00625 
L 386.843939 39.2625 
L 386.858011 37.51875 
L 386.871053 35.775 
L 386.883058 34.03125 
L 386.894018 32.2875 
L 386.903925 30.54375 
L 386.184375 30.065211 
L 383.56875 30.096432 
L 380.953125 30.127929 
L 378.3375 30.159689 
L 375.721875 30.191699 
L 373.10625 30.223944 
L 370.490625 30.256409 
L 367.875 30.289079 
L 365.634852 30.317222 
" style="fill:none;stroke:#0000ff;"/>
   </g>
   <g id="line2d_1">
    <path clip-path="url(#p7790a2f4a0)" d="M 54 252 
L 388.8 252 
L 388.8 28.8 
L 54 28.8 
L 54 252 
" style="fill:none;stroke:#0000ff;stroke-linecap:square;"/>
   </g>
   <g id="patch_3">
    <path d="M 54 252 
L 54 28.8 
" style="fill:none;stroke:#000000;stroke-linecap:square;stroke-linejoin:miter;"/>
   </g>
   <g id="patch_4">
    <path d="M 54 252 
L 388.8 252 
" style="fill:none;stroke:#000000;stroke-linecap:square;stroke-linejoin:miter;"/>
   </g>
   <g id="patch_5">
    <path d="M 54 28.8 
L 388.8 28.8 
" style="fill:none;stroke:#000000;stroke-linecap:square;stroke-linejoin:miter;"/>
   </g>
   <g id="patch_6">
    <path d="M 388.8 252 
L 388.8 28.8 
" style="fill:none;stroke:#000000;stroke-linecap:square;stroke-linejoin:miter;"/>
   </g>
   <g id="matplotlib.axis_1">
    <g id="xtick_1">
     <g id="line2d_2">
      <path clip-path="url(#p7790a2f4a0)" d="M 54 252 
L 54 28.8 
" style="fill:none;stroke:#000000;stroke-dasharray:1.000000,3.000000;stroke-dashoffset:0.0;stroke-width:0.5;"/>
     </g>
     <g id="line2d_3">
      <defs>
       <path d="M 0 0 
L 0 -4 
" id="me1f99423e2" style="stroke:#000000;stroke-width:0.5;"/>
      </defs>
      <g>
       <use style="stroke:#000000;stroke-width:0.5;" x="54.0" xlink:href="#me1f99423e2" y="252.0"/>
      </g>
     </g>
     <g id="line2d_4">
      <defs>
       <path d="M 0 0 
L 0 4 
" id="m1244a8702e" style="stroke:#000000;stroke-width:0.5;"/>
      </defs>
      <g>
       <use style="stroke:#000000;stroke-width:0.5;" x="54.0" xlink:href="#m1244a8702e" y="28.8"/>
      </g>
     </g>
     <g id="text_1">
      <!-- 0.0 -->
      <defs>
       <path d="M 10.6875 12.40625 
L 21 12.40625 
L 21 0 
L 10.6875 0 
z
" id="BitstreamVeraSans-Roman-2e"/>
       <path d="M 31.78125 66.40625 
Q 24.171875 66.40625 20.328125 58.90625 
Q 16.5 51.421875 16.5 36.375 
Q 16.5 21.390625 20.328125 13.890625 
Q 24.171875 6.390625 31.78125 6.390625 
Q 39.453125 6.390625 43.28125 13.890625 
Q 47.125 21.390625 47.125 36.375 
Q 47.125 51.421875 43.28125 58.90625 
Q 39.453125 66.40625 31.78125 66.40625 
M 31.78125 74.21875 
Q 44.046875 74.21875 50.515625 64.515625 
Q 56.984375 54.828125 56.984375 36.375 
Q 56.984375 17.96875 50.515625 8.265625 
Q 44.046875 -1.421875 31.78125 -1.421875 
Q 19.53125 -1.421875 13.0625 8.265625 
Q 6.59375 17.96875 6.59375 36.375 
Q 6.59375 54.828125 13.0625 64.515625 
Q 19.53125 74.21875 31.78125 74.21875 
" id="BitstreamVeraSans-Roman-30"/>
      </defs>
      <g transform="translate(46.0484375 263.5984375)scale(0.1 -0.1)">
       <use xlink:href="#BitstreamVeraSans-Roman-30"/>
       <use x="63.623046875" xlink:href="#BitstreamVeraSans-Roman-2e"/>
       <use x="95.41015625" xlink:href="#BitstreamVeraSans-Roman-30"/>
      </g>
     </g>
    </g>
    <g id="xtick_2">
     <g id="line2d_5">
      <path clip-path="url(#p7790a2f4a0)" d="M 120.96 252 
L 120.96 28.8 
" style="fill:none;stroke:#000000;stroke-dasharray:1.000000,3.000000;stroke-dashoffset:0.0;stroke-width:0.5;"/>
     </g>
     <g id="line2d_6">
      <g>
       <use style="stroke:#000000;stroke-width:0.5;" x="120.96" xlink:href="#me1f99423e2" y="252.0"/>
      </g>
     </g>
     <g id="line2d_7">
      <g>
       <use style="stroke:#000000;stroke-width:0.5;" x="120.96" xlink:href="#m1244a8702e" y="28.8"/>
      </g>
     </g>
     <g id="text_2">
      <!-- 0.2 -->
      <defs>
       <path d="M 19.1875 8.296875 
L 53.609375 8.296875 
L 53.609375 0 
L 7.328125 0 
L 7.328125 8.296875 
Q 12.9375 14.109375 22.625 23.890625 
Q 32.328125 33.6875 34.8125 36.53125 
Q 39.546875 41.84375 41.421875 45.53125 
Q 43.3125 49.21875 43.3125 52.78125 
Q 43.3125 58.59375 39.234375 62.25 
Q 35.15625 65.921875 28.609375 65.921875 
Q 23.96875 65.921875 18.8125 64.3125 
Q 13.671875 62.703125 7.8125 59.421875 
L 7.8125 69.390625 
Q 13.765625 71.78125 18.9375 73 
Q 24.125 74.21875 28.421875 74.21875 
Q 39.75 74.21875 46.484375 68.546875 
Q 53.21875 62.890625 53.21875 53.421875 
Q 53.21875 48.921875 51.53125 44.890625 
Q 49.859375 40.875 45.40625 35.40625 
Q 44.1875 33.984375 37.640625 27.21875 
Q 31.109375 20.453125 19.1875 8.296875 
" id="BitstreamVeraSans-Roman-32"/>
      </defs>
      <g transform="translate(113.0084375 263.5984375)scale(0.1 -0.1)">
       <use xlink:href="#BitstreamVeraSans-Roman-30"/>
       <use x="63.623046875" xlink:href="#BitstreamVeraSans-Roman-2e"/>
       <use x="95.41015625" xlink:href="#BitstreamVeraSans-Roman-32"/>
      </g>
     </g>
    </g>
    <g id="xtick_3">
     <g id="line2d_8">
      <path clip-path="url(#p7790a2f4a0)" d="M 187.92 252 
L 187.92 28.8 
" style="fill:none;stroke:#000000;stroke-dasharray:1.000000,3.000000;stroke-dashoffset:0.0;stroke-width:0.5;"/>
     </g>
     <g id="line2d_9">
      <g>
       <use style="stroke:#000000;stroke-width:0.5;" x="187.92" xlink:href="#me1f99423e2" y="252.0"/>
      </g>
     </g>
     <g id="line2d_10">
      <g>
       <use style="stroke:#000000;stroke-width:0.5;" x="187.92" xlink:href="#m1244a8702e" y="28.8"/>
      </g>
     </g>
     <g id="text_3">
      <!-- 0.4 -->
      <defs>
       <path d="M 37.796875 64.3125 
L 12.890625 25.390625 
L 37.796875 25.390625 
z
M 35.203125 72.90625 
L 47.609375 72.90625 
L 47.609375 25.390625 
L 58.015625 25.390625 
L 58.015625 17.1875 
L 47.609375 17.1875 
L 47.609375 0 
L 37.796875 0 
L 37.796875 17.1875 
L 4.890625 17.1875 
L 4.890625 26.703125 
z
" id="BitstreamVeraSans-Roman-34"/>
      </defs>
      <g transform="translate(179.9684375 263.5984375)scale(0.1 -0.1)">
       <use xlink:href="#BitstreamVeraSans-Roman-30"/>
       <use x="63.623046875" xlink:href="#BitstreamVeraSans-Roman-2e"/>
       <use x="95.41015625" xlink:href="#BitstreamVeraSans-Roman-34"/>
      </g>
     </g>
    </g>
    <g id="xtick_4">
     <g id="line2d_11">
      <path clip-path="url(#p7790a2f4a0)" d="M 254.88 252 
L 254.88 28.8 
" style="fill:none;stroke:#000000;stroke-dasharray:1.000000,3.000000;stroke-dashoffset:0.0;stroke-width:0.5;"/>
     </g>
     <g id="line2d_12">
      <g>
       <use style="stroke:#000000;stroke-width:0.5;" x="254.88" xlink:href="#me1f99423e2" y="252.0"/>
      </g>
     </g>
     <g id="line2d_13">
      <g>
       <use style="stroke:#000000;stroke-width:0.5;" x="254.88" xlink:href="#m1244a8702e" y="28.8"/>
      </g>
     </g>
     <g id="text_4">
      <!-- 0.6 -->
      <defs>
       <path d="M 33.015625 40.375 
Q 26.375 40.375 22.484375 35.828125 
Q 18.609375 31.296875 18.609375 23.390625 
Q 18.609375 15.53125 22.484375 10.953125 
Q 26.375 6.390625 33.015625 6.390625 
Q 39.65625 6.390625 43.53125 10.953125 
Q 47.40625 15.53125 47.40625 23.390625 
Q 47.40625 31.296875 43.53125 35.828125 
Q 39.65625 40.375 33.015625 40.375 
M 52.59375 71.296875 
L 52.59375 62.3125 
Q 48.875 64.0625 45.09375 64.984375 
Q 41.3125 65.921875 37.59375 65.921875 
Q 27.828125 65.921875 22.671875 59.328125 
Q 17.53125 52.734375 16.796875 39.40625 
Q 19.671875 43.65625 24.015625 45.921875 
Q 28.375 48.1875 33.59375 48.1875 
Q 44.578125 48.1875 50.953125 41.515625 
Q 57.328125 34.859375 57.328125 23.390625 
Q 57.328125 12.15625 50.6875 5.359375 
Q 44.046875 -1.421875 33.015625 -1.421875 
Q 20.359375 -1.421875 13.671875 8.265625 
Q 6.984375 17.96875 6.984375 36.375 
Q 6.984375 53.65625 15.1875 63.9375 
Q 23.390625 74.21875 37.203125 74.21875 
Q 40.921875 74.21875 44.703125 73.484375 
Q 48.484375 72.75 52.59375 71.296875 
" id="BitstreamVeraSans-Roman-36"/>
      </defs>
      <g transform="translate(246.9284375 263.5984375)scale(0.1 -0.1)">
       <use xlink:href="#BitstreamVeraSans-Roman-30"/>
       <use x="63.623046875" xlink:href="#BitstreamVeraSans-Roman-2e"/>
       <use x="95.41015625" xlink:href="#BitstreamVeraSans-Roman-36"/>
      </g>
     </g>
    </g>
    <g id="xtick_5">
     <g id="line2d_14">
      <path clip-path="url(#p7790a2f4a0)" d="M 321.84 252 
L 321.84 28.8 
" style="fill:none;stroke:#000000;stroke-dasharray:1.000000,3.000000;stroke-dashoffset:0.0;stroke-width:0.5;"/>
     </g>
     <g id="line2d_15">
      <g>
       <use style="stroke:#000000;stroke-width:0.5;" x="321.84" xlink:href="#me1f99423e2" y="252.0"/>
      </g>
     </g>
     <g id="line2d_16">
      <g>
       <use style="stroke:#000000;stroke-width:0.5;" x="321.84" xlink:href="#m1244a8702e" y="28.8"/>
      </g>
     </g>
     <g id="text_5">
      <!-- 0.8 -->
      <defs>
       <path d="M 31.78125 34.625 
Q 24.75 34.625 20.71875 30.859375 
Q 16.703125 27.09375 16.703125 20.515625 
Q 16.703125 13.921875 20.71875 10.15625 
Q 24.75 6.390625 31.78125 6.390625 
Q 38.8125 6.390625 42.859375 10.171875 
Q 46.921875 13.96875 46.921875 20.515625 
Q 46.921875 27.09375 42.890625 30.859375 
Q 38.875 34.625 31.78125 34.625 
M 21.921875 38.8125 
Q 15.578125 40.375 12.03125 44.71875 
Q 8.5 49.078125 8.5 55.328125 
Q 8.5 64.0625 14.71875 69.140625 
Q 20.953125 74.21875 31.78125 74.21875 
Q 42.671875 74.21875 48.875 69.140625 
Q 55.078125 64.0625 55.078125 55.328125 
Q 55.078125 49.078125 51.53125 44.71875 
Q 48 40.375 41.703125 38.8125 
Q 48.828125 37.15625 52.796875 32.3125 
Q 56.78125 27.484375 56.78125 20.515625 
Q 56.78125 9.90625 50.3125 4.234375 
Q 43.84375 -1.421875 31.78125 -1.421875 
Q 19.734375 -1.421875 13.25 4.234375 
Q 6.78125 9.90625 6.78125 20.515625 
Q 6.78125 27.484375 10.78125 32.3125 
Q 14.796875 37.15625 21.921875 38.8125 
M 18.3125 54.390625 
Q 18.3125 48.734375 21.84375 45.5625 
Q 25.390625 42.390625 31.78125 42.390625 
Q 38.140625 42.390625 41.71875 45.5625 
Q 45.3125 48.734375 45.3125 54.390625 
Q 45.3125 60.0625 41.71875 63.234375 
Q 38.140625 66.40625 31.78125 66.40625 
Q 25.390625 66.40625 21.84375 63.234375 
Q 18.3125 60.0625 18.3125 54.390625 
" id="BitstreamVeraSans-Roman-38"/>
      </defs>
      <g transform="translate(313.8884375 263.5984375)scale(0.1 -0.1)">
       <use xlink:href="#BitstreamVeraSans-Roman-30"/>
       <use x="63.623046875" xlink:href="#BitstreamVeraSans-Roman-2e"/>
       <use x="95.41015625" xlink:href="#BitstreamVeraSans-Roman-38"/>
      </g>
     </g>
    </g>
    <g id="xtick_6">
     <g id="line2d_17">
      <path clip-path="url(#p7790a2f4a0)" d="M 388.8 252 
L 388.8 28.8 
" style="fill:none;stroke:#000000;stroke-dasharray:1.000000,3.000000;stroke-dashoffset:0.0;stroke-width:0.5;"/>
     </g>
     <g id="line2d_18">
      <g>
       <use style="stroke:#000000;stroke-width:0.5;" x="388.8" xlink:href="#me1f99423e2" y="252.0"/>
      </g>
     </g>
     <g id="line2d_19">
      <g>
       <use style="stroke:#000000;stroke-width:0.5;" x="388.8" xlink:href="#m1244a8702e" y="28.8"/>
      </g>
     </g>
     <g id="text_6">
      <!-- 1.0 -->
      <defs>
       <path d="M 12.40625 8.296875 
L 28.515625 8.296875 
L 28.515625 63.921875 
L 10.984375 60.40625 
L 10.984375 69.390625 
L 28.421875 72.90625 
L 38.28125 72.90625 
L 38.28125 8.296875 
L 54.390625 8.296875 
L 54.390625 0 
L 12.40625 0 
z
" id="BitstreamVeraSans-Roman-31"/>
      </defs>
      <g transform="translate(380.8484375 263.5984375)scale(0.1 -0.1)">
       <use xlink:href="#BitstreamVeraSans-Roman-31"/>
       <use x="63.623046875" xlink:href="#BitstreamVeraSans-Roman-2e"/>
       <use x="95.41015625" xlink:href="#BitstreamVeraSans-Roman-30"/>
      </g>
     </g>
    </g>
    <g id="text_7">
     <!-- X0 -->
     <defs>
      <path d="M 6.296875 72.90625 
L 16.890625 72.90625 
L 35.015625 45.796875 
L 53.21875 72.90625 
L 63.8125 72.90625 
L 40.375 37.890625 
L 65.375 0 
L 54.78125 0 
L 34.28125 31 
L 13.625 0 
L 2.984375 0 
L 29 38.921875 
z
" id="BitstreamVeraSans-Roman-58"/>
     </defs>
     <g transform="translate(214.79375 278.2765625)scale(0.1 -0.1)">
      <use xlink:href="#BitstreamVeraSans-Roman-58"/>
      <use x="68.505859375" xlink:href="#BitstreamVeraSans-Roman-30"/>
     </g>
    </g>
   </g>
   <g id="matplotlib.axis_2">
    <g id="ytick_1">
     <g id="line2d_20">
      <path clip-path="url(#p7790a2f4a0)" d="M 54 252 
L 388.8 252 
" style="fill:none;stroke:#000000;stroke-dasharray:1.000000,3.000000;stroke-dashoffset:0.0;stroke-width:0.5;"/>
     </g>
     <g id="line2d_21">
      <defs>
       <path d="M 0 0 
L 4 0 
" id="madeeaa87ec" style="stroke:#000000;stroke-width:0.5;"/>
      </defs>
      <g>
       <use style="stroke:#000000;stroke-width:0.5;" x="54.0" xlink:href="#madeeaa87ec" y="252.0"/>
      </g>
     </g>
     <g id="line2d_22">
      <defs>
       <path d="M 0 0 
L -4 0 
" id="m067f1487e0" style="stroke:#000000;stroke-width:0.5;"/>
      </defs>
      <g>
       <use style="stroke:#000000;stroke-width:0.5;" x="388.8" xlink:href="#m067f1487e0" y="252.0"/>
      </g>
     </g>
     <g id="text_8">
      <!-- 0.0 -->
      <g transform="translate(34.096875 254.759375)scale(0.1 -0.1)">
       <use xlink:href="#BitstreamVeraSans-Roman-30"/>
       <use x="63.623046875" xlink:href="#BitstreamVeraSans-Roman-2e"/>
       <use x="95.41015625" xlink:href="#BitstreamVeraSans-Roman-30"/>
      </g>
     </g>
    </g>
    <g id="ytick_2">
     <g id="line2d_23">
      <path clip-path="url(#p7790a2f4a0)" d="M 54 207.36 
L 388.8 207.36 
" style="fill:none;stroke:#000000;stroke-dasharray:1.000000,3.000000;stroke-dashoffset:0.0;stroke-width:0.5;"/>
     </g>
     <g id="line2d_24">
      <g>
       <use style="stroke:#000000;stroke-width:0.5;" x="54.0" xlink:href="#madeeaa87ec" y="207.36"/>
      </g>
     </g>
     <g id="line2d_25">
      <g>
       <use style="stroke:#000000;stroke-width:0.5;" x="388.8" xlink:href="#m067f1487e0" y="207.36"/>
      </g>
     </g>
     <g id="text_9">
      <!-- 0.2 -->
      <g transform="translate(34.096875 210.119375)scale(0.1 -0.1)">
       <use xlink:href="#BitstreamVeraSans-Roman-30"/>
       <use x="63.623046875" xlink:href="#BitstreamVeraSans-Roman-2e"/>
       <use x="95.41015625" xlink:href="#BitstreamVeraSans-Roman-32"/>
      </g>
     </g>
    </g>
    <g id="ytick_3">
     <g id="line2d_26">
      <path clip-path="url(#p7790a2f4a0)" d="M 54 162.72 
L 388.8 162.72 
" style="fill:none;stroke:#000000;stroke-dasharray:1.000000,3.000000;stroke-dashoffset:0.0;stroke-width:0.5;"/>
     </g>
     <g id="line2d_27">
      <g>
       <use style="stroke:#000000;stroke-width:0.5;" x="54.0" xlink:href="#madeeaa87ec" y="162.72"/>
      </g>
     </g>
     <g id="line2d_28">
      <g>
       <use style="stroke:#000000;stroke-width:0.5;" x="388.8" xlink:href="#m067f1487e0" y="162.72"/>
      </g>
     </g>
     <g id="text_10">
      <!-- 0.4 -->
      <g transform="translate(34.096875 165.479375)scale(0.1 -0.1)">
       <use xlink:href="#BitstreamVeraSans-Roman-30"/>
       <use x="63.623046875" xlink:href="#BitstreamVeraSans-Roman-2e"/>
       <use x="95.41015625" xlink:href="#BitstreamVeraSans-Roman-34"/>
      </g>
     </g>
    </g>
    <g id="ytick_4">
     <g id="line2d_29">
      <path clip-path="url(#p7790a2f4a0)" d="M 54 118.08 
L 388.8 118.08 
" style="fill:none;stroke:#000000;stroke-dasharray:1.000000,3.000000;stroke-dashoffset:0.0;stroke-width:0.5;"/>
     </g>
     <g id="line2d_30">
      <g>
       <use style="stroke:#000000;stroke-width:0.5;" x="54.0" xlink:href="#madeeaa87ec" y="118.08"/>
      </g>
     </g>
     <g id="line2d_31">
      <g>
       <use style="stroke:#000000;stroke-width:0.5;" x="388.8" xlink:href="#m067f1487e0" y="118.08"/>
      </g>
     </g>
     <g id="text_11">
      <!-- 0.6 -->
      <g transform="translate(34.096875 120.839375)scale(0.1 -0.1)">
       <use xlink:href="#BitstreamVeraSans-Roman-30"/>
       <use x="63.623046875" xlink:href="#BitstreamVeraSans-Roman-2e"/>
       <use x="95.41015625" xlink:href="#BitstreamVeraSans-Roman-36"/>
      </g>
     </g>
    </g>
    <g id="ytick_5">
     <g id="line2d_32">
      <path clip-path="url(#p7790a2f4a0)" d="M 54 73.44 
L 388.8 73.44 
" style="fill:none;stroke:#000000;stroke-dasharray:1.000000,3.000000;stroke-dashoffset:0.0;stroke-width:0.5;"/>
     </g>
     <g id="line2d_33">
      <g>
       <use style="stroke:#000000;stroke-width:0.5;" x="54.0" xlink:href="#madeeaa87ec" y="73.44"/>
      </g>
     </g>
     <g id="line2d_34">
      <g>
       <use style="stroke:#000000;stroke-width:0.5;" x="388.8" xlink:href="#m067f1487e0" y="73.44"/>
      </g>
     </g>
     <g id="text_12">
      <!-- 0.8 -->
      <g transform="translate(34.096875 76.199375)scale(0.1 -0.1)">
       <use xlink:href="#BitstreamVeraSans-Roman-30"/>
       <use x="63.623046875" xlink:href="#BitstreamVeraSans-Roman-2e"/>
       <use x="95.41015625" xlink:href="#BitstreamVeraSans-Roman-38"/>
      </g>
     </g>
    </g>
    <g id="ytick_6">
     <g id="line2d_35">
      <path clip-path="url(#p7790a2f4a0)" d="M 54 28.8 
L 388.8 28.8 
" style="fill:none;stroke:#000000;stroke-dasharray:1.000000,3.000000;stroke-dashoffset:0.0;stroke-width:0.5;"/>
     </g>
     <g id="line2d_36">
      <g>
       <use style="stroke:#000000;stroke-width:0.5;" x="54.0" xlink:href="#madeeaa87ec" y="28.8"/>
      </g>
     </g>
     <g id="line2d_37">
      <g>
       <use style="stroke:#000000;stroke-width:0.5;" x="388.8" xlink:href="#m067f1487e0" y="28.8"/>
      </g>
     </g>
     <g id="text_13">
      <!-- 1.0 -->
      <g transform="translate(34.096875 31.559375)scale(0.1 -0.1)">
       <use xlink:href="#BitstreamVeraSans-Roman-31"/>
       <use x="63.623046875" xlink:href="#BitstreamVeraSans-Roman-2e"/>
       <use x="95.41015625" xlink:href="#BitstreamVeraSans-Roman-30"/>
      </g>
     </g>
    </g>
    <g id="text_14">
     <!-- X1 -->
     <g transform="translate(27.0171875 147.00625)rotate(-90.0)scale(0.1 -0.1)">
      <use xlink:href="#BitstreamVeraSans-Roman-58"/>
      <use x="68.505859375" xlink:href="#BitstreamVeraSans-Roman-31"/>
     </g>
    </g>
   </g>
   <g id="text_15">
    <g clip-path="url(#p7790a2f4a0)">
     <!-- 0.395151 -->
     <defs>
      <path d="M 40.578125 39.3125 
Q 47.65625 37.796875 51.625 33 
Q 55.609375 28.21875 55.609375 21.1875 
Q 55.609375 10.40625 48.1875 4.484375 
Q 40.765625 -1.421875 27.09375 -1.421875 
Q 22.515625 -1.421875 17.65625 -0.515625 
Q 12.796875 0.390625 7.625 2.203125 
L 7.625 11.71875 
Q 11.71875 9.328125 16.59375 8.109375 
Q 21.484375 6.890625 26.8125 6.890625 
Q 36.078125 6.890625 40.9375 10.546875 
Q 45.796875 14.203125 45.796875 21.1875 
Q 45.796875 27.640625 41.28125 31.265625 
Q 36.765625 34.90625 28.71875 34.90625 
L 20.21875 34.90625 
L 20.21875 43.015625 
L 29.109375 43.015625 
Q 36.375 43.015625 40.234375 45.921875 
Q 44.09375 48.828125 44.09375 54.296875 
Q 44.09375 59.90625 40.109375 62.90625 
Q 36.140625 65.921875 28.71875 65.921875 
Q 24.65625 65.921875 20.015625 65.03125 
Q 15.375 64.15625 9.8125 62.3125 
L 9.8125 71.09375 
Q 15.4375 72.65625 20.34375 73.4375 
Q 25.25 74.21875 29.59375 74.21875 
Q 40.828125 74.21875 47.359375 69.109375 
Q 53.90625 64.015625 53.90625 55.328125 
Q 53.90625 49.265625 50.4375 45.09375 
Q 46.96875 40.921875 40.578125 39.3125 
" id="BitstreamVeraSans-Roman-33"/>
      <path d="M 10.984375 1.515625 
L 10.984375 10.5 
Q 14.703125 8.734375 18.5 7.8125 
Q 22.3125 6.890625 25.984375 6.890625 
Q 35.75 6.890625 40.890625 13.453125 
Q 46.046875 20.015625 46.78125 33.40625 
Q 43.953125 29.203125 39.59375 26.953125 
Q 35.25 24.703125 29.984375 24.703125 
Q 19.046875 24.703125 12.671875 31.3125 
Q 6.296875 37.9375 6.296875 49.421875 
Q 6.296875 60.640625 12.9375 67.421875 
Q 19.578125 74.21875 30.609375 74.21875 
Q 43.265625 74.21875 49.921875 64.515625 
Q 56.59375 54.828125 56.59375 36.375 
Q 56.59375 19.140625 48.40625 8.859375 
Q 40.234375 -1.421875 26.421875 -1.421875 
Q 22.703125 -1.421875 18.890625 -0.6875 
Q 15.09375 0.046875 10.984375 1.515625 
M 30.609375 32.421875 
Q 37.25 32.421875 41.125 36.953125 
Q 45.015625 41.5 45.015625 49.421875 
Q 45.015625 57.28125 41.125 61.84375 
Q 37.25 66.40625 30.609375 66.40625 
Q 23.96875 66.40625 20.09375 61.84375 
Q 16.21875 57.28125 16.21875 49.421875 
Q 16.21875 41.5 20.09375 36.953125 
Q 23.96875 32.421875 30.609375 32.421875 
" id="BitstreamVeraSans-Roman-39"/>
      <path d="M 10.796875 72.90625 
L 49.515625 72.90625 
L 49.515625 64.59375 
L 19.828125 64.59375 
L 19.828125 46.734375 
Q 21.96875 47.46875 24.109375 47.828125 
Q 26.265625 48.1875 28.421875 48.1875 
Q 40.625 48.1875 47.75 41.5 
Q 54.890625 34.8125 54.890625 23.390625 
Q 54.890625 11.625 47.5625 5.09375 
Q 40.234375 -1.421875 26.90625 -1.421875 
Q 22.3125 -1.421875 17.546875 -0.640625 
Q 12.796875 0.140625 7.71875 1.703125 
L 7.71875 11.625 
Q 12.109375 9.234375 16.796875 8.0625 
Q 21.484375 6.890625 26.703125 6.890625 
Q 35.15625 6.890625 40.078125 11.328125 
Q 45.015625 15.765625 45.015625 23.390625 
Q 45.015625 31 40.078125 35.4375 
Q 35.15625 39.890625 26.703125 39.890625 
Q 22.75 39.890625 18.8125 39.015625 
Q 14.890625 38.140625 10.796875 36.28125 
z
" id="BitstreamVeraSans-Roman-35"/>
     </defs>
     <g style="fill:#0000ff;" transform="translate(87.2297860658 253.834098331)rotate(-0.09115191382544709)scale(0.08 -0.08)">
      <use xlink:href="#BitstreamVeraSans-Roman-30"/>
      <use x="63.623046875" xlink:href="#BitstreamVeraSans-Roman-2e"/>
      <use x="95.41015625" xlink:href="#BitstreamVeraSans-Roman-33"/>
      <use x="159.033203125" xlink:href="#BitstreamVeraSans-Roman-39"/>
      <use x="222.65625" xlink:href="#BitstreamVeraSans-Roman-35"/>
      <use x="286.279296875" xlink:href="#BitstreamVeraSans-Roman-31"/>
      <use x="349.90234375" xlink:href="#BitstreamVeraSans-Roman-35"/>
      <use x="413.525390625" xlink:href="#BitstreamVeraSans-Roman-31"/>
     </g>
    </g>
   </g>
   <g id="text_16">
    <g clip-path="url(#p7790a2f4a0)">
     <!-- 0.701528 -->
     <defs>
      <path d="M 8.203125 72.90625 
L 55.078125 72.90625 
L 55.078125 68.703125 
L 28.609375 0 
L 18.3125 0 
L 43.21875 64.59375 
L 8.203125 64.59375 
z
" id="BitstreamVeraSans-Roman-37"/>
     </defs>
     <g style="fill:#0000ff;" transform="translate(283.409957652 32.0390746406)rotate(-0.30031367349164384)scale(0.08 -0.08)">
      <use xlink:href="#BitstreamVeraSans-Roman-30"/>
      <use x="63.623046875" xlink:href="#BitstreamVeraSans-Roman-2e"/>
      <use x="95.41015625" xlink:href="#BitstreamVeraSans-Roman-37"/>
      <use x="159.033203125" xlink:href="#BitstreamVeraSans-Roman-30"/>
      <use x="222.65625" xlink:href="#BitstreamVeraSans-Roman-31"/>
      <use x="286.279296875" xlink:href="#BitstreamVeraSans-Roman-35"/>
      <use x="349.90234375" xlink:href="#BitstreamVeraSans-Roman-32"/>
      <use x="413.525390625" xlink:href="#BitstreamVeraSans-Roman-38"/>
     </g>
    </g>
   </g>
   <g id="text_17">
    <g clip-path="url(#p7790a2f4a0)">
     <!-- 0.847112 -->
     <g style="fill:#0000ff;" transform="translate(184.009494642 32.5914196759)rotate(-0.1315744855450589)scale(0.08 -0.08)">
      <use xlink:href="#BitstreamVeraSans-Roman-30"/>
      <use x="63.623046875" xlink:href="#BitstreamVeraSans-Roman-2e"/>
      <use x="95.41015625" xlink:href="#BitstreamVeraSans-Roman-38"/>
      <use x="159.033203125" xlink:href="#BitstreamVeraSans-Roman-34"/>
      <use x="222.65625" xlink:href="#BitstreamVeraSans-Roman-37"/>
      <use x="286.279296875" xlink:href="#BitstreamVeraSans-Roman-31"/>
      <use x="349.90234375" xlink:href="#BitstreamVeraSans-Roman-31"/>
      <use x="413.525390625" xlink:href="#BitstreamVeraSans-Roman-32"/>
     </g>
    </g>
   </g>
   <g id="text_18">
    <g clip-path="url(#p7790a2f4a0)">
     <!-- 0.927181 -->
     <g style="fill:#0000ff;" transform="translate(350.956990621 172.820713206)rotate(-45.93886639643444)scale(0.08 -0.08)">
      <use xlink:href="#BitstreamVeraSans-Roman-30"/>
      <use x="63.623046875" xlink:href="#BitstreamVeraSans-Roman-2e"/>
      <use x="95.41015625" xlink:href="#BitstreamVeraSans-Roman-39"/>
      <use x="159.033203125" xlink:href="#BitstreamVeraSans-Roman-32"/>
      <use x="222.65625" xlink:href="#BitstreamVeraSans-Roman-37"/>
      <use x="286.279296875" xlink:href="#BitstreamVeraSans-Roman-31"/>
      <use x="349.90234375" xlink:href="#BitstreamVeraSans-Roman-38"/>
      <use x="413.525390625" xlink:href="#BitstreamVeraSans-Roman-31"/>
     </g>
    </g>
   </g>
   <g id="text_19">
    <g clip-path="url(#p7790a2f4a0)">
     <!-- 0.965423 -->
     <g style="fill:#0000ff;" transform="translate(57.6788604382 211.826553156)rotate(-89.23408355601042)scale(0.08 -0.08)">
      <use xlink:href="#BitstreamVeraSans-Roman-30"/>
      <use x="63.623046875" xlink:href="#BitstreamVeraSans-Roman-2e"/>
      <use x="95.41015625" xlink:href="#BitstreamVeraSans-Roman-39"/>
      <use x="159.033203125" xlink:href="#BitstreamVeraSans-Roman-36"/>
      <use x="222.65625" xlink:href="#BitstreamVeraSans-Roman-35"/>
      <use x="286.279296875" xlink:href="#BitstreamVeraSans-Roman-34"/>
      <use x="349.90234375" xlink:href="#BitstreamVeraSans-Roman-32"/>
      <use x="413.525390625" xlink:href="#BitstreamVeraSans-Roman-33"/>
     </g>
    </g>
   </g>
   <g id="text_20">
    <g clip-path="url(#p7790a2f4a0)">
     <!-- 0.965423 -->
     <g style="fill:#0000ff;" transform="translate(215.271160743 184.660879516)rotate(-351.9097840472765)scale(0.08 -0.08)">
      <use xlink:href="#BitstreamVeraSans-Roman-30"/>
      <use x="63.623046875" xlink:href="#BitstreamVeraSans-Roman-2e"/>
      <use x="95.41015625" xlink:href="#BitstreamVeraSans-Roman-39"/>
      <use x="159.033203125" xlink:href="#BitstreamVeraSans-Roman-36"/>
      <use x="222.65625" xlink:href="#BitstreamVeraSans-Roman-35"/>
      <use x="286.279296875" xlink:href="#BitstreamVeraSans-Roman-34"/>
      <use x="349.90234375" xlink:href="#BitstreamVeraSans-Roman-32"/>
      <use x="413.525390625" xlink:href="#BitstreamVeraSans-Roman-33"/>
     </g>
    </g>
   </g>
   <g id="text_21">
    <g clip-path="url(#p7790a2f4a0)">
     <!-- 1.00841 -->
     <g style="fill:#0000ff;" transform="translate(148.642459702 182.401860381)rotate(-328.1351488693662)scale(0.08 -0.08)">
      <use xlink:href="#BitstreamVeraSans-Roman-31"/>
      <use x="63.623046875" xlink:href="#BitstreamVeraSans-Roman-2e"/>
      <use x="95.41015625" xlink:href="#BitstreamVeraSans-Roman-30"/>
      <use x="159.033203125" xlink:href="#BitstreamVeraSans-Roman-30"/>
      <use x="222.65625" xlink:href="#BitstreamVeraSans-Roman-38"/>
      <use x="286.279296875" xlink:href="#BitstreamVeraSans-Roman-34"/>
      <use x="349.90234375" xlink:href="#BitstreamVeraSans-Roman-31"/>
     </g>
    </g>
   </g>
   <g id="text_22">
    <g clip-path="url(#p7790a2f4a0)">
     <!-- 1.00841 -->
     <g style="fill:#0000ff;" transform="translate(389.500600923 76.7507528721)rotate(-89.40581752713128)scale(0.08 -0.08)">
      <use xlink:href="#BitstreamVeraSans-Roman-31"/>
      <use x="63.623046875" xlink:href="#BitstreamVeraSans-Roman-2e"/>
      <use x="95.41015625" xlink:href="#BitstreamVeraSans-Roman-30"/>
      <use x="159.033203125" xlink:href="#BitstreamVeraSans-Roman-30"/>
      <use x="222.65625" xlink:href="#BitstreamVeraSans-Roman-38"/>
      <use x="286.279296875" xlink:href="#BitstreamVeraSans-Roman-34"/>
      <use x="349.90234375" xlink:href="#BitstreamVeraSans-Roman-31"/>
     </g>
    </g>
   </g>
   <g id="text_23">
    <g clip-path="url(#p7790a2f4a0)">
     <!-- 1.06291 -->
     <g style="fill:#0000ff;" transform="translate(76.7900411998 163.086162567)rotate(-342.5974465972991)scale(0.08 -0.08)">
      <use xlink:href="#BitstreamVeraSans-Roman-31"/>
      <use x="63.623046875" xlink:href="#BitstreamVeraSans-Roman-2e"/>
      <use x="95.41015625" xlink:href="#BitstreamVeraSans-Roman-30"/>
      <use x="159.033203125" xlink:href="#BitstreamVeraSans-Roman-36"/>
      <use x="222.65625" xlink:href="#BitstreamVeraSans-Roman-32"/>
      <use x="286.279296875" xlink:href="#BitstreamVeraSans-Roman-39"/>
      <use x="349.90234375" xlink:href="#BitstreamVeraSans-Roman-31"/>
     </g>
    </g>
   </g>
   <g id="text_24">
    <g clip-path="url(#p7790a2f4a0)">
     <!-- 1.06291 -->
     <g style="fill:#0000ff;" transform="translate(231.91849675 93.1792779029)rotate(-16.5788774260551)scale(0.08 -0.08)">
      <use xlink:href="#BitstreamVeraSans-Roman-31"/>
      <use x="63.623046875" xlink:href="#BitstreamVeraSans-Roman-2e"/>
      <use x="95.41015625" xlink:href="#BitstreamVeraSans-Roman-30"/>
      <use x="159.033203125" xlink:href="#BitstreamVeraSans-Roman-36"/>
      <use x="222.65625" xlink:href="#BitstreamVeraSans-Roman-32"/>
      <use x="286.279296875" xlink:href="#BitstreamVeraSans-Roman-39"/>
      <use x="349.90234375" xlink:href="#BitstreamVeraSans-Roman-31"/>
     </g>
    </g>
   </g>
   <g id="text_25">
    <g clip-path="url(#p7790a2f4a0)">
     <!-- 1.11972 -->
     <g style="fill:#0000ff;" transform="translate(169.038636798 255.894874897)rotate(-11.775716670735294)scale(0.08 -0.08)">
      <use xlink:href="#BitstreamVeraSans-Roman-31"/>
      <use x="63.623046875" xlink:href="#BitstreamVeraSans-Roman-2e"/>
      <use x="95.41015625" xlink:href="#BitstreamVeraSans-Roman-31"/>
      <use x="159.033203125" xlink:href="#BitstreamVeraSans-Roman-31"/>
      <use x="222.65625" xlink:href="#BitstreamVeraSans-Roman-39"/>
      <use x="286.279296875" xlink:href="#BitstreamVeraSans-Roman-37"/>
      <use x="349.90234375" xlink:href="#BitstreamVeraSans-Roman-32"/>
     </g>
    </g>
   </g>
   <g id="text_26">
    <g clip-path="url(#p7790a2f4a0)">
     <!-- 1.11972 -->
     <g style="fill:#0000ff;" transform="translate(349.178230268 121.652530023)rotate(-7.896288127553254)scale(0.08 -0.08)">
      <use xlink:href="#BitstreamVeraSans-Roman-31"/>
      <use x="63.623046875" xlink:href="#BitstreamVeraSans-Roman-2e"/>
      <use x="95.41015625" xlink:href="#BitstreamVeraSans-Roman-31"/>
      <use x="159.033203125" xlink:href="#BitstreamVeraSans-Roman-31"/>
      <use x="222.65625" xlink:href="#BitstreamVeraSans-Roman-39"/>
      <use x="286.279296875" xlink:href="#BitstreamVeraSans-Roman-37"/>
      <use x="349.90234375" xlink:href="#BitstreamVeraSans-Roman-32"/>
     </g>
    </g>
   </g>
   <g id="text_27">
    <g clip-path="url(#p7790a2f4a0)">
     <!-- 1.19358 -->
     <g style="fill:#0000ff;" transform="translate(53.1666344388 218.067280462)rotate(-271.113691325397)scale(0.08 -0.08)">
      <use xlink:href="#BitstreamVeraSans-Roman-31"/>
      <use x="63.623046875" xlink:href="#BitstreamVeraSans-Roman-2e"/>
      <use x="95.41015625" xlink:href="#BitstreamVeraSans-Roman-31"/>
      <use x="159.033203125" xlink:href="#BitstreamVeraSans-Roman-39"/>
      <use x="222.65625" xlink:href="#BitstreamVeraSans-Roman-33"/>
      <use x="286.279296875" xlink:href="#BitstreamVeraSans-Roman-35"/>
      <use x="349.90234375" xlink:href="#BitstreamVeraSans-Roman-38"/>
     </g>
    </g>
   </g>
   <g id="text_28">
    <g clip-path="url(#p7790a2f4a0)">
     <!-- 1.19358 -->
     <g style="fill:#0000ff;" transform="translate(319.413490864 62.3497070702)rotate(-298.2185542475876)scale(0.08 -0.08)">
      <use xlink:href="#BitstreamVeraSans-Roman-31"/>
      <use x="63.623046875" xlink:href="#BitstreamVeraSans-Roman-2e"/>
      <use x="95.41015625" xlink:href="#BitstreamVeraSans-Roman-31"/>
      <use x="159.033203125" xlink:href="#BitstreamVeraSans-Roman-39"/>
      <use x="222.65625" xlink:href="#BitstreamVeraSans-Roman-33"/>
      <use x="286.279296875" xlink:href="#BitstreamVeraSans-Roman-35"/>
      <use x="349.90234375" xlink:href="#BitstreamVeraSans-Roman-38"/>
     </g>
    </g>
   </g>
   <g id="text_29">
    <g clip-path="url(#p7790a2f4a0)">
     <!-- 1.51913 -->
     <g style="fill:#0000ff;" transform="translate(97.7002137458 220.124082983)rotate(-318.9129686878504)scale(0.08 -0.08)">
      <use xlink:href="#BitstreamVeraSans-Roman-31"/>
      <use x="63.623046875" xlink:href="#BitstreamVeraSans-Roman-2e"/>
      <use x="95.41015625" xlink:href="#BitstreamVeraSans-Roman-35"/>
      <use x="159.033203125" xlink:href="#BitstreamVeraSans-Roman-31"/>
      <use x="222.65625" xlink:href="#BitstreamVeraSans-Roman-39"/>
      <use x="286.279296875" xlink:href="#BitstreamVeraSans-Roman-31"/>
      <use x="349.90234375" xlink:href="#BitstreamVeraSans-Roman-33"/>
     </g>
    </g>
   </g>
   <g id="text_30">
    <g clip-path="url(#p7790a2f4a0)">
     <!-- 1.51913 -->
     <g style="fill:#0000ff;" transform="translate(349.975676414 50.7189981032)rotate(-82.6430459453061)scale(0.08 -0.08)">
      <use xlink:href="#BitstreamVeraSans-Roman-31"/>
      <use x="63.623046875" xlink:href="#BitstreamVeraSans-Roman-2e"/>
      <use x="95.41015625" xlink:href="#BitstreamVeraSans-Roman-35"/>
      <use x="159.033203125" xlink:href="#BitstreamVeraSans-Roman-31"/>
      <use x="222.65625" xlink:href="#BitstreamVeraSans-Roman-39"/>
      <use x="286.279296875" xlink:href="#BitstreamVeraSans-Roman-31"/>
      <use x="349.90234375" xlink:href="#BitstreamVeraSans-Roman-33"/>
     </g>
    </g>
   </g>
   <g id="text_31">
    <!-- [X0,X1] iso-PDF -->
    <defs>
     <path d="M 9.421875 54.6875 
L 18.40625 54.6875 
L 18.40625 0 
L 9.421875 0 
z
M 9.421875 75.984375 
L 18.40625 75.984375 
L 18.40625 64.59375 
L 9.421875 64.59375 
z
" id="BitstreamVeraSans-Roman-69"/>
     <path d="M 30.609375 48.390625 
Q 23.390625 48.390625 19.1875 42.75 
Q 14.984375 37.109375 14.984375 27.296875 
Q 14.984375 17.484375 19.15625 11.84375 
Q 23.34375 6.203125 30.609375 6.203125 
Q 37.796875 6.203125 41.984375 11.859375 
Q 46.1875 17.53125 46.1875 27.296875 
Q 46.1875 37.015625 41.984375 42.703125 
Q 37.796875 48.390625 30.609375 48.390625 
M 30.609375 56 
Q 42.328125 56 49.015625 48.375 
Q 55.71875 40.765625 55.71875 27.296875 
Q 55.71875 13.875 49.015625 6.21875 
Q 42.328125 -1.421875 30.609375 -1.421875 
Q 18.84375 -1.421875 12.171875 6.21875 
Q 5.515625 13.875 5.515625 27.296875 
Q 5.515625 40.765625 12.171875 48.375 
Q 18.84375 56 30.609375 56 
" id="BitstreamVeraSans-Roman-6f"/>
     <path d="M 11.71875 12.40625 
L 22.015625 12.40625 
L 22.015625 4 
L 14.015625 -11.625 
L 7.71875 -11.625 
L 11.71875 4 
z
" id="BitstreamVeraSans-Roman-2c"/>
     <path d="M 44.28125 53.078125 
L 44.28125 44.578125 
Q 40.484375 46.53125 36.375 47.5 
Q 32.28125 48.484375 27.875 48.484375 
Q 21.1875 48.484375 17.84375 46.4375 
Q 14.5 44.390625 14.5 40.28125 
Q 14.5 37.15625 16.890625 35.375 
Q 19.28125 33.59375 26.515625 31.984375 
L 29.59375 31.296875 
Q 39.15625 29.25 43.1875 25.515625 
Q 47.21875 21.78125 47.21875 15.09375 
Q 47.21875 7.46875 41.1875 3.015625 
Q 35.15625 -1.421875 24.609375 -1.421875 
Q 20.21875 -1.421875 15.453125 -0.5625 
Q 10.6875 0.296875 5.421875 2 
L 5.421875 11.28125 
Q 10.40625 8.6875 15.234375 7.390625 
Q 20.0625 6.109375 24.8125 6.109375 
Q 31.15625 6.109375 34.5625 8.28125 
Q 37.984375 10.453125 37.984375 14.40625 
Q 37.984375 18.0625 35.515625 20.015625 
Q 33.0625 21.96875 24.703125 23.78125 
L 21.578125 24.515625 
Q 13.234375 26.265625 9.515625 29.90625 
Q 5.8125 33.546875 5.8125 39.890625 
Q 5.8125 47.609375 11.28125 51.796875 
Q 16.75 56 26.8125 56 
Q 31.78125 56 36.171875 55.265625 
Q 40.578125 54.546875 44.28125 53.078125 
" id="BitstreamVeraSans-Roman-73"/>
     <path d="M 19.671875 64.796875 
L 19.671875 37.40625 
L 32.078125 37.40625 
Q 38.96875 37.40625 42.71875 40.96875 
Q 46.484375 44.53125 46.484375 51.125 
Q 46.484375 57.671875 42.71875 61.234375 
Q 38.96875 64.796875 32.078125 64.796875 
z
M 9.8125 72.90625 
L 32.078125 72.90625 
Q 44.34375 72.90625 50.609375 67.359375 
Q 56.890625 61.8125 56.890625 51.125 
Q 56.890625 40.328125 50.609375 34.8125 
Q 44.34375 29.296875 32.078125 29.296875 
L 19.671875 29.296875 
L 19.671875 0 
L 9.8125 0 
z
" id="BitstreamVeraSans-Roman-50"/>
     <path d="M 9.8125 72.90625 
L 51.703125 72.90625 
L 51.703125 64.59375 
L 19.671875 64.59375 
L 19.671875 43.109375 
L 48.578125 43.109375 
L 48.578125 34.8125 
L 19.671875 34.8125 
L 19.671875 0 
L 9.8125 0 
z
" id="BitstreamVeraSans-Roman-46"/>
     <path d="M 19.671875 64.796875 
L 19.671875 8.109375 
L 31.59375 8.109375 
Q 46.6875 8.109375 53.6875 14.9375 
Q 60.6875 21.78125 60.6875 36.53125 
Q 60.6875 51.171875 53.6875 57.984375 
Q 46.6875 64.796875 31.59375 64.796875 
z
M 9.8125 72.90625 
L 30.078125 72.90625 
Q 51.265625 72.90625 61.171875 64.09375 
Q 71.09375 55.28125 71.09375 36.53125 
Q 71.09375 17.671875 61.125 8.828125 
Q 51.171875 0 30.078125 0 
L 9.8125 0 
z
" id="BitstreamVeraSans-Roman-44"/>
     <path id="BitstreamVeraSans-Roman-20"/>
     <path d="M 30.421875 75.984375 
L 30.421875 -13.1875 
L 9.71875 -13.1875 
L 9.71875 -6.203125 
L 21.390625 -6.203125 
L 21.390625 69 
L 9.71875 69 
L 9.71875 75.984375 
z
" id="BitstreamVeraSans-Roman-5d"/>
     <path d="M 8.59375 75.984375 
L 29.296875 75.984375 
L 29.296875 69 
L 17.578125 69 
L 17.578125 -6.203125 
L 29.296875 -6.203125 
L 29.296875 -13.1875 
L 8.59375 -13.1875 
z
" id="BitstreamVeraSans-Roman-5b"/>
     <path d="M 4.890625 31.390625 
L 31.203125 31.390625 
L 31.203125 23.390625 
L 4.890625 23.390625 
z
" id="BitstreamVeraSans-Roman-2d"/>
    </defs>
    <g transform="translate(174.73125 23.8)scale(0.12 -0.12)">
     <use xlink:href="#BitstreamVeraSans-Roman-5b"/>
     <use x="39.013671875" xlink:href="#BitstreamVeraSans-Roman-58"/>
     <use x="107.51953125" xlink:href="#BitstreamVeraSans-Roman-30"/>
     <use x="171.142578125" xlink:href="#BitstreamVeraSans-Roman-2c"/>
     <use x="202.9296875" xlink:href="#BitstreamVeraSans-Roman-58"/>
     <use x="271.435546875" xlink:href="#BitstreamVeraSans-Roman-31"/>
     <use x="335.05859375" xlink:href="#BitstreamVeraSans-Roman-5d"/>
     <use x="374.072265625" xlink:href="#BitstreamVeraSans-Roman-20"/>
     <use x="405.859375" xlink:href="#BitstreamVeraSans-Roman-69"/>
     <use x="433.642578125" xlink:href="#BitstreamVeraSans-Roman-73"/>
     <use x="485.7421875" xlink:href="#BitstreamVeraSans-Roman-6f"/>
     <use x="546.939453125" xlink:href="#BitstreamVeraSans-Roman-2d"/>
     <use x="583.0234375" xlink:href="#BitstreamVeraSans-Roman-50"/>
     <use x="643.326171875" xlink:href="#BitstreamVeraSans-Roman-44"/>
     <use x="720.328125" xlink:href="#BitstreamVeraSans-Roman-46"/>
    </g>
   </g>
   <g id="legend_1">
    <g id="patch_7">
     <path d="M 304.084375 185.58125 
L 383.8 185.58125 
Q 385.8 185.58125 385.8 183.58125 
L 385.8 37.8 
Q 385.8 35.8 383.8 35.8 
L 304.084375 35.8 
Q 302.084375 35.8 302.084375 37.8 
L 302.084375 183.58125 
Q 302.084375 185.58125 304.084375 185.58125 
z
" style="fill:#4c4c4c;opacity:0.5;stroke:#4c4c4c;stroke-linejoin:miter;"/>
    </g>
    <g id="patch_8">
     <path d="M 302.084375 183.58125 
L 381.8 183.58125 
Q 383.8 183.58125 383.8 181.58125 
L 383.8 35.8 
Q 383.8 33.8 381.8 33.8 
L 302.084375 33.8 
Q 300.084375 33.8 300.084375 35.8 
L 300.084375 181.58125 
Q 300.084375 183.58125 302.084375 183.58125 
z
" style="fill:#ffffff;stroke:#000000;stroke-linejoin:miter;"/>
    </g>
    <g id="line2d_38">
     <path d="M 307.084375 41.898438 
L 314.084375 41.898438 
L 321.084375 41.898438 
" style="fill:none;stroke:#0000ff;stroke-linecap:square;"/>
    </g>
    <g id="text_32">
     <!-- 0.395151 -->
     <g transform="translate(332.084375 45.3984375)scale(0.1 -0.1)">
      <use xlink:href="#BitstreamVeraSans-Roman-30"/>
      <use x="63.623046875" xlink:href="#BitstreamVeraSans-Roman-2e"/>
      <use x="95.41015625" xlink:href="#BitstreamVeraSans-Roman-33"/>
      <use x="159.033203125" xlink:href="#BitstreamVeraSans-Roman-39"/>
      <use x="222.65625" xlink:href="#BitstreamVeraSans-Roman-35"/>
      <use x="286.279296875" xlink:href="#BitstreamVeraSans-Roman-31"/>
      <use x="349.90234375" xlink:href="#BitstreamVeraSans-Roman-35"/>
      <use x="413.525390625" xlink:href="#BitstreamVeraSans-Roman-31"/>
     </g>
    </g>
    <g id="line2d_39">
     <path d="M 307.084375 56.576563 
L 314.084375 56.576563 
L 321.084375 56.576563 
" style="fill:none;stroke:#0000ff;stroke-linecap:square;"/>
    </g>
    <g id="text_33">
     <!-- 0.701528 -->
     <g transform="translate(332.084375 60.0765625)scale(0.1 -0.1)">
      <use xlink:href="#BitstreamVeraSans-Roman-30"/>
      <use x="63.623046875" xlink:href="#BitstreamVeraSans-Roman-2e"/>
      <use x="95.41015625" xlink:href="#BitstreamVeraSans-Roman-37"/>
      <use x="159.033203125" xlink:href="#BitstreamVeraSans-Roman-30"/>
      <use x="222.65625" xlink:href="#BitstreamVeraSans-Roman-31"/>
      <use x="286.279296875" xlink:href="#BitstreamVeraSans-Roman-35"/>
      <use x="349.90234375" xlink:href="#BitstreamVeraSans-Roman-32"/>
      <use x="413.525390625" xlink:href="#BitstreamVeraSans-Roman-38"/>
     </g>
    </g>
    <g id="line2d_40">
     <path d="M 307.084375 71.254688 
L 314.084375 71.254688 
L 321.084375 71.254688 
" style="fill:none;stroke:#0000ff;stroke-linecap:square;"/>
    </g>
    <g id="text_34">
     <!-- 0.847112 -->
     <g transform="translate(332.084375 74.7546875)scale(0.1 -0.1)">
      <use xlink:href="#BitstreamVeraSans-Roman-30"/>
      <use x="63.623046875" xlink:href="#BitstreamVeraSans-Roman-2e"/>
      <use x="95.41015625" xlink:href="#BitstreamVeraSans-Roman-38"/>
      <use x="159.033203125" xlink:href="#BitstreamVeraSans-Roman-34"/>
      <use x="222.65625" xlink:href="#BitstreamVeraSans-Roman-37"/>
      <use x="286.279296875" xlink:href="#BitstreamVeraSans-Roman-31"/>
      <use x="349.90234375" xlink:href="#BitstreamVeraSans-Roman-31"/>
      <use x="413.525390625" xlink:href="#BitstreamVeraSans-Roman-32"/>
     </g>
    </g>
    <g id="line2d_41">
     <path d="M 307.084375 85.932813 
L 314.084375 85.932813 
L 321.084375 85.932813 
" style="fill:none;stroke:#0000ff;stroke-linecap:square;"/>
    </g>
    <g id="text_35">
     <!-- 0.927181 -->
     <g transform="translate(332.084375 89.4328125)scale(0.1 -0.1)">
      <use xlink:href="#BitstreamVeraSans-Roman-30"/>
      <use x="63.623046875" xlink:href="#BitstreamVeraSans-Roman-2e"/>
      <use x="95.41015625" xlink:href="#BitstreamVeraSans-Roman-39"/>
      <use x="159.033203125" xlink:href="#BitstreamVeraSans-Roman-32"/>
      <use x="222.65625" xlink:href="#BitstreamVeraSans-Roman-37"/>
      <use x="286.279296875" xlink:href="#BitstreamVeraSans-Roman-31"/>
      <use x="349.90234375" xlink:href="#BitstreamVeraSans-Roman-38"/>
      <use x="413.525390625" xlink:href="#BitstreamVeraSans-Roman-31"/>
     </g>
    </g>
    <g id="line2d_42">
     <path d="M 307.084375 100.610938 
L 314.084375 100.610938 
L 321.084375 100.610938 
" style="fill:none;stroke:#0000ff;stroke-linecap:square;"/>
    </g>
    <g id="text_36">
     <!-- 0.965423 -->
     <g transform="translate(332.084375 104.1109375)scale(0.1 -0.1)">
      <use xlink:href="#BitstreamVeraSans-Roman-30"/>
      <use x="63.623046875" xlink:href="#BitstreamVeraSans-Roman-2e"/>
      <use x="95.41015625" xlink:href="#BitstreamVeraSans-Roman-39"/>
      <use x="159.033203125" xlink:href="#BitstreamVeraSans-Roman-36"/>
      <use x="222.65625" xlink:href="#BitstreamVeraSans-Roman-35"/>
      <use x="286.279296875" xlink:href="#BitstreamVeraSans-Roman-34"/>
      <use x="349.90234375" xlink:href="#BitstreamVeraSans-Roman-32"/>
      <use x="413.525390625" xlink:href="#BitstreamVeraSans-Roman-33"/>
     </g>
    </g>
    <g id="line2d_43">
     <path d="M 307.084375 115.289062 
L 314.084375 115.289062 
L 321.084375 115.289062 
" style="fill:none;stroke:#0000ff;stroke-linecap:square;"/>
    </g>
    <g id="text_37">
     <!-- 1.00841 -->
     <g transform="translate(332.084375 118.7890625)scale(0.1 -0.1)">
      <use xlink:href="#BitstreamVeraSans-Roman-31"/>
      <use x="63.623046875" xlink:href="#BitstreamVeraSans-Roman-2e"/>
      <use x="95.41015625" xlink:href="#BitstreamVeraSans-Roman-30"/>
      <use x="159.033203125" xlink:href="#BitstreamVeraSans-Roman-30"/>
      <use x="222.65625" xlink:href="#BitstreamVeraSans-Roman-38"/>
      <use x="286.279296875" xlink:href="#BitstreamVeraSans-Roman-34"/>
      <use x="349.90234375" xlink:href="#BitstreamVeraSans-Roman-31"/>
     </g>
    </g>
    <g id="line2d_44">
     <path d="M 307.084375 129.967188 
L 314.084375 129.967188 
L 321.084375 129.967188 
" style="fill:none;stroke:#0000ff;stroke-linecap:square;"/>
    </g>
    <g id="text_38">
     <!-- 1.06291 -->
     <g transform="translate(332.084375 133.4671875)scale(0.1 -0.1)">
      <use xlink:href="#BitstreamVeraSans-Roman-31"/>
      <use x="63.623046875" xlink:href="#BitstreamVeraSans-Roman-2e"/>
      <use x="95.41015625" xlink:href="#BitstreamVeraSans-Roman-30"/>
      <use x="159.033203125" xlink:href="#BitstreamVeraSans-Roman-36"/>
      <use x="222.65625" xlink:href="#BitstreamVeraSans-Roman-32"/>
      <use x="286.279296875" xlink:href="#BitstreamVeraSans-Roman-39"/>
      <use x="349.90234375" xlink:href="#BitstreamVeraSans-Roman-31"/>
     </g>
    </g>
    <g id="line2d_45">
     <path d="M 307.084375 144.645312 
L 314.084375 144.645312 
L 321.084375 144.645312 
" style="fill:none;stroke:#0000ff;stroke-linecap:square;"/>
    </g>
    <g id="text_39">
     <!-- 1.11972 -->
     <g transform="translate(332.084375 148.1453125)scale(0.1 -0.1)">
      <use xlink:href="#BitstreamVeraSans-Roman-31"/>
      <use x="63.623046875" xlink:href="#BitstreamVeraSans-Roman-2e"/>
      <use x="95.41015625" xlink:href="#BitstreamVeraSans-Roman-31"/>
      <use x="159.033203125" xlink:href="#BitstreamVeraSans-Roman-31"/>
      <use x="222.65625" xlink:href="#BitstreamVeraSans-Roman-39"/>
      <use x="286.279296875" xlink:href="#BitstreamVeraSans-Roman-37"/>
      <use x="349.90234375" xlink:href="#BitstreamVeraSans-Roman-32"/>
     </g>
    </g>
    <g id="line2d_46">
     <path d="M 307.084375 159.323438 
L 314.084375 159.323438 
L 321.084375 159.323438 
" style="fill:none;stroke:#0000ff;stroke-linecap:square;"/>
    </g>
    <g id="text_40">
     <!-- 1.19358 -->
     <g transform="translate(332.084375 162.8234375)scale(0.1 -0.1)">
      <use xlink:href="#BitstreamVeraSans-Roman-31"/>
      <use x="63.623046875" xlink:href="#BitstreamVeraSans-Roman-2e"/>
      <use x="95.41015625" xlink:href="#BitstreamVeraSans-Roman-31"/>
      <use x="159.033203125" xlink:href="#BitstreamVeraSans-Roman-39"/>
      <use x="222.65625" xlink:href="#BitstreamVeraSans-Roman-33"/>
      <use x="286.279296875" xlink:href="#BitstreamVeraSans-Roman-35"/>
      <use x="349.90234375" xlink:href="#BitstreamVeraSans-Roman-38"/>
     </g>
    </g>
    <g id="line2d_47">
     <path d="M 307.084375 174.001562 
L 314.084375 174.001562 
L 321.084375 174.001562 
" style="fill:none;stroke:#0000ff;stroke-linecap:square;"/>
    </g>
    <g id="text_41">
     <!-- 1.51913 -->
     <g transform="translate(332.084375 177.5015625)scale(0.1 -0.1)">
      <use xlink:href="#BitstreamVeraSans-Roman-31"/>
      <use x="63.623046875" xlink:href="#BitstreamVeraSans-Roman-2e"/>
      <use x="95.41015625" xlink:href="#BitstreamVeraSans-Roman-35"/>
      <use x="159.033203125" xlink:href="#BitstreamVeraSans-Roman-31"/>
      <use x="222.65625" xlink:href="#BitstreamVeraSans-Roman-39"/>
      <use x="286.279296875" xlink:href="#BitstreamVeraSans-Roman-31"/>
      <use x="349.90234375" xlink:href="#BitstreamVeraSans-Roman-33"/>
     </g>
    </g>
   </g>
  </g>
 </g>
 <defs>
  <clipPath id="p7790a2f4a0">
   <rect height="223.2" width="334.8" x="54.0" y="28.8"/>
  </clipPath>
 </defs>
</svg>
