<?xml version="1.0" encoding="utf-8" standalone="no"?>
<!DOCTYPE svg PUBLIC "-//W3C//DTD SVG 1.1//EN"
  "http://www.w3.org/Graphics/SVG/1.1/DTD/svg11.dtd">
<!-- Created with matplotlib (http://matplotlib.org/) -->
<svg height="288pt" version="1.1" viewBox="0 0 432 288" width="432pt" xmlns="http://www.w3.org/2000/svg" xmlns:xlink="http://www.w3.org/1999/xlink">
 <defs>
  <style type="text/css">
*{stroke-linecap:butt;stroke-linejoin:round;stroke-miterlimit:100000;}
  </style>
 </defs>
 <g id="figure_1">
  <g id="patch_1">
   <path d="M 0 288 
L 432 288 
L 432 0 
L 0 0 
z
" style="fill:#ffffff;"/>
  </g>
  <g id="axes_1">
   <g id="patch_2">
    <path d="M 54 252 
L 388.8 252 
L 388.8 28.8 
L 54 28.8 
z
" style="fill:#ffffff;"/>
   </g>
   <g id="LineCollection_1">
    <path clip-path="url(#pb6e84046a8)" d="M 54 243.452092 
L 56.615625 243.716183 
L 59.23125 243.941199 
L 61.846875 244.133416 
L 64.4625 244.298027 
L 67.078125 244.439337 
L 69.69375 244.560928 
L 72.309375 244.665783 
L 74.925 244.756397 
L 77.540625 244.834859 
L 80.15625 244.902925 
L 82.771875 244.962072 
L 85.3875 245.013547 
L 86.012197 245.025 
L 88.003125 245.160704 
L 90.61875 245.320818 
L 93.234375 245.461838 
L 95.85 245.586195 
L 98.465625 245.695965 
L 101.08125 245.792927 
L 103.696875 245.878608 
L 106.3125 245.954317 
L 108.928125 246.021182 
L 111.54375 246.080171 
L 114.159375 246.13212 
L 116.775 246.177748 
L 119.390625 246.217672 
L 122.00625 246.252423 
L 124.621875 246.282458 
L 127.2375 246.308163 
L 129.853125 246.329868 
L 132.46875 246.347851 
L 135.084375 246.36234 
L 137.7 246.373523 
L 140.315625 246.381548 
L 142.93125 246.386526 
L 145.546875 246.388535 
L 148.1625 246.387618 
L 150.778125 246.383787 
L 153.39375 246.377023 
L 156.009375 246.367273 
L 158.625 246.354452 
L 161.240625 246.33844 
L 163.85625 246.319079 
L 166.471875 246.296172 
L 169.0875 246.269479 
L 171.703125 246.23871 
L 174.31875 246.203521 
L 176.934375 246.16351 
L 179.55 246.118204 
L 182.165625 246.067051 
L 184.78125 246.00941 
L 187.396875 245.944536 
L 190.0125 245.871563 
L 192.628125 245.789485 
L 195.24375 245.697135 
L 197.859375 245.593153 
L 200.475 245.475956 
L 203.090625 245.343697 
L 205.70625 245.19422 
L 208.321875 245.025 
L 210.731412 244.988631 
" style="fill:none;stroke:#0000ff;"/>
    <path clip-path="url(#pb6e84046a8)" d="M 268.646902 242.185688 
L 271.096875 241.932037 
L 273.7125 241.606379 
L 274.238427 241.5375 
L 276.328125 241.462076 
L 278.94375 241.352021 
L 281.559375 241.21915 
L 284.175 241.058122 
L 286.790625 240.862241 
L 289.40625 240.623087 
L 292.021875 240.330043 
L 294.6375 239.969682 
L 295.795982 239.79375 
L 297.253125 239.726571 
L 299.86875 239.589633 
L 302.484375 239.420469 
L 305.1 239.210666 
L 307.715625 238.949457 
L 310.33125 238.623015 
L 312.946875 238.213534 
L 313.903718 238.05 
L 315.5625 237.95564 
L 318.178125 237.781931 
L 320.79375 237.562913 
L 323.409375 237.285652 
L 326.025 236.933282 
L 328.640625 236.483742 
L 329.583577 236.30625 
L 331.25625 236.191901 
L 333.871875 235.98049 
L 336.4875 235.709265 
L 339.103125 235.35988 
L 341.71875 234.908026 
L 343.413211 234.5625 
L 344.334375 234.488409 
L 346.95 234.25447 
L 349.565625 233.95013 
L 352.18125 233.552544 
L 354.796875 233.031052 
L 355.760274 232.81875 
L 357.4125 232.663429 
L 360.028125 232.367652 
L 362.64375 231.977214 
L 365.259375 231.459674 
L 366.894292 231.075 
L 367.875 230.969021 
L 370.490625 230.649606 
L 373.10625 230.223381 
L 375.721875 229.652217 
L 377.000343 229.33125 
L 378.3375 229.165885 
L 380.953125 228.783918 
L 383.56875 228.268452 
L 386.134961 227.5875 
L 386.184375 227.580603 
L 388.8 227.209586 
" style="fill:none;stroke:#0000ff;"/>
   </g>
   <g id="LineCollection_2">
    <path clip-path="url(#pb6e84046a8)" d="M 54 220.87812 
L 56.615625 221.541879 
L 59.23125 222.085828 
L 60.708651 222.35625 
L 61.846875 222.626654 
L 64.4625 223.192802 
L 67.078125 223.662548 
L 69.69375 224.053186 
L 70.024261 224.1 
L 72.309375 224.553182 
L 74.925 224.997664 
L 77.540625 225.371949 
L 80.15625 225.687823 
L 80.320177 225.705549 
" style="fill:none;stroke:#0000ff;"/>
    <path clip-path="url(#pb6e84046a8)" d="M 142.903343 230.457711 
L 142.93125 230.458474 
L 145.546875 230.520156 
L 148.1625 230.572891 
L 150.778125 230.617391 
L 153.39375 230.654255 
L 156.009375 230.683986 
L 158.625 230.706996 
L 161.240625 230.723618 
L 163.85625 230.734107 
L 166.471875 230.738649 
L 169.0875 230.737364 
L 171.703125 230.730307 
L 174.31875 230.717469 
L 176.934375 230.698777 
L 179.55 230.674094 
L 182.165625 230.643214 
L 184.78125 230.60586 
L 187.396875 230.56168 
L 190.0125 230.510237 
L 192.628125 230.451003 
L 195.24375 230.383349 
L 197.859375 230.306532 
L 200.475 230.219679 
L 203.090625 230.121771 
L 205.70625 230.011622 
L 208.321875 229.887851 
L 210.9375 229.748856 
L 213.553125 229.592775 
L 216.16875 229.417443 
L 217.355191 229.33125 
L 218.784375 229.282199 
L 221.4 229.18454 
L 224.015625 229.075102 
L 226.63125 228.952246 
L 229.246875 228.814057 
L 231.8625 228.658295 
L 234.478125 228.482334 
L 237.09375 228.283091 
L 239.709375 228.056937 
L 242.325 227.799593 
L 244.265462 227.5875 
L 244.940625 227.550259 
L 247.55625 227.397349 
L 250.171875 227.222894 
L 252.7875 227.023245 
L 255.403125 226.794056 
L 258.01875 226.530136 
L 260.634375 226.225272 
L 263.25 225.87201 
L 263.452216 225.84375 
L 265.865625 225.662637 
L 268.48125 225.436984 
L 271.096875 225.174315 
L 273.7125 224.867495 
L 276.328125 224.507862 
L 278.862172 224.1 
L 278.94375 224.092535 
L 281.559375 223.846733 
L 284.175 223.557127 
L 286.790625 223.214637 
L 289.40625 222.808115 
L 291.870706 222.35625 
L 292.021875 222.339612 
L 294.6375 222.043208 
L 297.253125 221.689319 
L 299.86875 221.265155 
L 302.484375 220.754831 
L 303.171959 220.6125 
L 305.1 220.360165 
L 307.715625 219.964153 
L 310.33125 219.484563 
L 312.946875 218.901478 
L 313.090115 218.86875 
L 315.5625 218.493854 
L 318.178125 218.014612 
L 320.79375 217.427838 
L 322.015939 217.125 
L 323.409375 216.885314 
L 326.025 216.377327 
L 328.640625 215.750756 
L 330.017247 215.38125 
L 331.25625 215.140299 
L 333.871875 214.570317 
L 336.4875 213.861821 
L 337.259808 213.6375 
L 339.103125 213.233507 
L 341.71875 212.557701 
L 343.858537 211.89375 
L 344.334375 211.778108 
L 346.95 211.106187 
L 349.565625 210.260716 
L 349.895786 210.15 
L 352.18125 209.527258 
L 354.796875 208.649082 
L 355.474736 208.40625 
L 357.4125 207.822954 
L 360.028125 206.875732 
L 360.585214 206.6625 
L 362.64375 205.979005 
L 365.259375 204.919791 
L 365.26192 204.91875 
L 367.875 203.963151 
L 369.694894 203.175 
L 370.490625 202.858423 
L 373.10625 201.719989 
L 373.729793 201.43125 
L 375.721875 200.560404 
L 377.499988 199.6875 
L 378.3375 199.289825 
L 380.922036 197.94375 
L 380.953125 197.927725 
L 383.56875 196.561481 
L 384.217374 196.2 
L 386.184375 195.089307 
L 387.254009 194.45625 
L 388.8 193.509883 
" style="fill:none;stroke:#0000ff;"/>
    <path clip-path="url(#pb6e84046a8)" d="M 91.070846 28.8 
L 90.61875 29.596781 
L 90.015006 30.54375 
L 88.950553 32.2875 
L 88.003125 33.97047 
L 87.964581 34.03125 
L 86.859111 35.775 
L 85.843226 37.51875 
L 85.3875 38.331849 
L 84.79874 39.2625 
L 83.742233 41.00625 
L 82.771875 42.75 
L 81.670946 44.49375 
L 80.660454 46.2375 
L 80.15625 47.146834 
L 79.631741 47.98125 
L 78.577435 49.725 
L 77.610306 51.46875 
L 77.540625 51.594824 
L 76.525131 53.2125 
L 75.51488 54.95625 
L 74.925 56.030105 
L 74.506072 56.7 
L 73.448865 58.44375 
L 72.480366 60.1875 
L 72.309375 60.499569 
L 71.414731 61.93125 
L 70.400177 63.675 
L 69.69375 64.97149 
L 69.415182 65.41875 
L 68.350579 67.1625 
L 67.376683 68.90625 
L 67.078125 69.455273 
L 66.334229 70.65 
L 65.311405 72.39375 
L 64.4625 73.962821 
L 64.35405 74.1375 
L 63.278147 75.88125 
L 62.295387 77.625 
L 61.846875 78.455368 
L 61.279817 79.36875 
L 60.245328 81.1125 
L 59.301088 82.85625 
L 59.23125 82.985758 
L 58.229123 84.6 
L 57.234574 86.34375 
L 56.615625 87.497066 
L 56.250053 88.0875 
L 55.201059 89.83125 
L 54.245118 91.575 
L 54 92.032599 
" style="fill:none;stroke:#0000ff;"/>
   </g>
   <g id="LineCollection_3">
    <path clip-path="url(#pb6e84046a8)" d="M 54 203.767224 
L 55.625709 204.91875 
L 56.615625 205.538701 
L 58.494801 206.6625 
L 59.23125 207.066313 
L 61.846875 208.394718 
L 61.870363 208.40625 
L 64.4625 209.625104 
L 65.719951 210.15 
L 67.078125 210.714215 
L 69.69375 211.683628 
L 70.304331 211.89375 
L 72.309375 212.612869 
L 74.925 213.418596 
L 75.6967 213.6375 
L 77.540625 214.209362 
L 80.15625 214.917678 
L 82.141774 215.38125 
L 82.771875 215.550316 
L 85.3875 216.209697 
L 88.003125 216.76446 
L 89.955024 217.125 
L 90.61875 217.274371 
L 93.234375 217.826895 
L 95.85 218.297049 
L 98.465625 218.697906 
L 99.693966 218.86875 
L 101.08125 219.120204 
L 103.696875 219.551407 
L 106.3125 219.923105 
L 108.928125 220.24408 
L 111.54375 220.521703 
L 112.472705 220.6125 
L 114.159375 220.844437 
L 116.775 221.169103 
L 119.390625 221.452667 
L 122.00625 221.700634 
L 124.621875 221.917685 
L 127.2375 222.10781 
L 129.853125 222.274415 
L 131.274999 222.35625 
L 132.46875 222.462291 
L 135.084375 222.674521 
L 137.7 222.861376 
L 140.315625 223.02571 
L 142.93125 223.169975 
L 145.546875 223.296283 
L 148.1625 223.406452 
L 150.778125 223.502043 
L 153.39375 223.584398 
L 156.009375 223.654662 
L 158.625 223.713813 
L 161.240625 223.762676 
L 163.85625 223.801942 
L 166.471875 223.832181 
L 169.0875 223.853854 
L 171.703125 223.867319 
L 174.31875 223.872839 
L 176.934375 223.870588 
L 179.55 223.860653 
L 182.165625 223.843037 
L 184.78125 223.817655 
L 187.396875 223.784339 
L 190.0125 223.74283 
L 192.628125 223.692772 
L 195.24375 223.633713 
L 197.859375 223.565088 
L 200.475 223.486213 
L 203.090625 223.39627 
L 205.70625 223.294293 
L 208.321875 223.179146 
L 210.9375 223.049501 
L 213.553125 222.903812 
L 216.16875 222.74028 
L 218.784375 222.556815 
L 221.336828 222.35625 
L 221.4 222.353347 
L 224.015625 222.226229 
L 226.63125 222.084172 
L 229.246875 221.925209 
L 231.8625 221.74705 
L 234.478125 221.547025 
L 237.09375 221.322015 
L 239.709375 221.068375 
L 242.325 220.781829 
L 243.747402 220.6125 
L 244.940625 220.524813 
L 247.55625 220.317418 
L 250.171875 220.082544 
L 252.7875 219.815793 
L 255.403125 219.51196 
L 258.01875 219.164878 
L 260.018549 218.86875 
L 260.634375 218.809623 
L 263.25 218.544331 
L 265.865625 218.239982 
L 268.48125 217.889663 
L 271.096875 217.485093 
L 273.161551 217.125 
L 273.7125 217.059765 
L 276.328125 216.733617 
L 278.94375 216.354944 
L 281.559375 215.913711 
L 284.175 215.397757 
L 284.256601 215.38125 
L 286.790625 215.017575 
L 289.40625 214.579273 
L 292.021875 214.063528 
L 293.929827 213.6375 
L 294.6375 213.520864 
L 297.253125 213.062271 
L 299.86875 212.519021 
L 302.412133 211.89375 
L 302.484375 211.880138 
L 303.671657 211.651108 
" style="fill:none;stroke:#0000ff;"/>
    <path clip-path="url(#pb6e84046a8)" d="M 362.142327 189.685356 
L 362.64375 189.364895 
L 362.858947 189.225 
L 365.259375 187.556998 
L 365.368337 187.48125 
L 367.711775 185.7375 
L 367.875 185.604801 
L 369.912717 183.99375 
L 370.490625 183.482944 
L 371.945494 182.25 
L 373.10625 181.134609 
L 373.797545 180.50625 
L 375.501593 178.7625 
L 375.721875 178.514335 
L 377.157384 177.01875 
L 378.3375 175.572508 
L 378.603085 175.275 
L 380.026891 173.53125 
L 380.953125 172.196099 
L 381.269234 171.7875 
L 382.494307 170.04375 
L 383.523596 168.3 
L 383.56875 168.2166 
L 384.595403 166.55625 
L 385.514867 164.8125 
L 386.184375 163.341362 
L 386.328165 163.06875 
L 387.165723 161.325 
L 387.885379 159.58125 
L 388.50572 157.8375 
L 388.8 156.901458 
" style="fill:none;stroke:#0000ff;"/>
    <path clip-path="url(#pb6e84046a8)" d="M 388.8 96.642439 
L 388.492425 95.0625 
L 388.131904 93.31875 
L 387.748382 91.575 
L 387.451521 90.304724 
" style="fill:none;stroke:#0000ff;"/>
    <path clip-path="url(#pb6e84046a8)" d="M 367.080499 31.000939 
L 366.883119 30.54375 
L 366.085567 28.8 
" style="fill:none;stroke:#0000ff;"/>
    <path clip-path="url(#pb6e84046a8)" d="M 132.29037 28.8 
L 130.932895 30.54375 
L 129.853125 32.024695 
L 129.649177 32.2875 
L 128.308056 34.03125 
L 127.254944 35.494255 
" style="fill:none;stroke:#0000ff;"/>
    <path clip-path="url(#pb6e84046a8)" d="M 91.267353 86.939655 
L 90.61875 87.97004 
L 90.537072 88.0875 
L 89.328849 89.83125 
L 88.220395 91.575 
L 88.003125 91.922252 
L 87.036082 93.31875 
L 85.908567 95.0625 
L 85.3875 95.902636 
L 84.765757 96.80625 
L 83.617104 98.55 
L 82.771875 99.925065 
L 82.519858 100.29375 
L 81.347938 102.0375 
L 80.274864 103.78125 
L 80.15625 103.975739 
L 79.103455 105.525 
L 78.007873 107.26875 
L 77.540625 108.04267 
L 76.886597 109.0125 
L 75.766475 110.75625 
L 74.925 112.16507 
L 74.700984 112.5 
L 73.554219 114.24375 
L 72.506238 115.9875 
L 72.309375 116.321122 
L 71.375485 117.73125 
L 70.301969 119.475 
L 69.69375 120.519671 
L 69.235701 121.21875 
L 68.134624 122.9625 
L 67.129611 124.70625 
L 67.078125 124.796276 
L 66.010869 126.45 
L 64.979589 128.19375 
L 64.4625 129.114262 
L 63.939057 129.9375 
L 62.8796 131.68125 
L 61.913788 133.425 
L 61.846875 133.547395 
L 60.840143 135.16875 
L 59.847755 136.9125 
L 59.23125 138.0692 
L 58.874597 138.65625 
L 57.854031 140.4 
L 56.925127 142.14375 
L 56.615625 142.749567 
L 55.949978 143.8875 
L 54.995275 145.63125 
L 54.127225 147.375 
L 54 147.638465 
" style="fill:none;stroke:#0000ff;"/>
   </g>
   <g id="LineCollection_4">
    <path clip-path="url(#pb6e84046a8)" d="M 157.970187 28.8 
L 156.360624 30.54375 
L 156.009375 30.929595 
L 154.742843 32.2875 
L 153.39375 33.801959 
L 153.183743 34.03125 
L 152.772055 34.48377 
" style="fill:none;stroke:#0000ff;"/>
    <path clip-path="url(#pb6e84046a8)" d="M 113.320465 83.309211 
L 107.255565 91.575 
L 103.534954 96.80625 
L 99.788203 102.0375 
L 94.940767 109.0125 
L 85.600731 122.9625 
L 82.771875 127.347076 
L 81.079942 129.9375 
L 77.540625 135.726274 
L 75.733678 138.65625 
L 68.028774 152.60625 
L 64.070774 161.325 
L 62.707243 164.8125 
L 61.065962 170.04375 
L 60.250149 173.53125 
L 59.74663 177.01875 
L 59.573718 180.50625 
L 59.783658 183.99375 
L 60.062021 185.7375 
L 60.480945 187.48125 
L 61.067367 189.225 
L 62.732201 192.7125 
L 64.4625 195.177583 
L 65.238673 196.2 
L 67.078125 198.103226 
L 69.69375 200.379676 
L 72.309375 202.25969 
L 74.925 203.863141 
L 77.540625 205.254165 
L 82.771875 207.610527 
L 88.003125 209.523095 
L 93.234375 211.12804 
L 101.08125 213.091782 
L 111.54375 215.10465 
L 124.621875 216.949282 
L 142.93125 218.649177 
L 161.240625 219.599747 
L 171.703125 219.831794 
L 182.165625 219.869203 
L 192.628125 219.72824 
L 203.090625 219.392559 
L 218.784375 218.579393 
L 226.63125 218.077565 
L 234.478125 217.373841 
L 239.709375 216.891679 
L 247.55625 216.110555 
L 263.25 214.074629 
L 265.865625 213.625703 
L 271.096875 212.89408 
L 281.559375 211.046602 
L 294.6375 208.240011 
L 299.86875 206.989348 
L 302.484375 206.321477 
L 307.715625 204.852974 
L 310.33125 204.141848 
L 320.79375 200.704684 
L 328.640625 197.634208 
L 333.871875 195.328676 
L 339.103125 192.681232 
L 344.334375 189.735428 
L 347.875078 187.48125 
L 352.18125 184.352216 
L 352.657391 183.99375 
L 356.775788 180.50625 
L 360.25995 177.01875 
L 362.64375 174.275548 
L 363.283248 173.53125 
L 365.82987 170.04375 
L 366.971476 168.3 
L 369.810452 163.06875 
L 371.9831 157.8375 
L 373.10625 154.088178 
L 373.976469 150.8625 
L 374.664875 147.375 
L 375.146145 143.8875 
L 375.457434 140.4 
L 375.659703 135.16875 
L 375.590752 129.9375 
L 375.279553 124.70625 
L 374.737536 119.475 
L 373.9634 114.24375 
L 372.637785 107.26875 
L 371.47827 102.0375 
L 369.183409 93.31875 
L 366.496563 84.6 
L 363.436813 75.88125 
L 358.571613 63.675 
L 353.82226 53.2125 
L 350.339453 46.2375 
L 344.334375 35.359149 
L 341.71875 30.986696 
L 340.386231 28.8 
L 340.386231 28.8 
" style="fill:none;stroke:#0000ff;"/>
   </g>
   <g id="LineCollection_5">
    <path clip-path="url(#pb6e84046a8)" d="M 187.006686 28.8 
L 184.78125 30.54375 
L 182.596599 32.2875 
L 182.165625 32.635065 
L 180.466421 34.03125 
L 179.55 34.794228 
L 178.389022 35.775 
L 176.934375 37.023693 
L 176.363716 37.51875 
L 174.386143 39.2625 
L 174.31875 39.321836 
L 172.419115 41.00625 
L 171.703125 41.654773 
L 170.497836 42.75 
L 169.0875 44.062801 
L 168.624261 44.49375 
L 166.776314 46.2375 
L 166.471875 46.527322 
L 164.938724 47.98125 
L 163.85625 49.038309 
L 163.147733 49.725 
L 161.393531 51.46875 
L 161.240625 51.621209 
L 159.62752 53.2125 
L 158.625 54.236143 
L 157.909627 54.95625 
L 156.22384 56.7 
L 156.009375 56.923268 
L 154.523341 58.44375 
L 153.39375 59.646215 
L 152.874587 60.1875 
L 151.235168 61.93125 
L 150.778125 62.42666 
L 149.598778 63.675 
L 148.1625 65.264813 
L 148.019602 65.41875 
L 146.406777 67.1625 
L 145.546875 68.13061 
L 144.836919 68.90625 
L 143.28941 70.65 
L 142.93125 71.059944 
L 141.726958 72.39375 
L 140.315625 74.040516 
L 140.229443 74.1375 
L 138.682315 75.88125 
L 137.7 77.045497 
L 137.191615 77.625 
L 135.696616 79.36875 
L 135.084375 80.1056 
L 134.212074 81.1125 
L 132.764395 82.85625 
L 132.46875 83.217483 
L 131.285748 84.6 
L 129.880998 86.34375 
L 129.853125 86.37832 
L 128.408349 88.0875 
L 127.349374 89.423604 
" style="fill:none;stroke:#0000ff;"/>
    <path clip-path="url(#pb6e84046a8)" d="M 90.479634 140.201819 
L 89.253573 142.14375 
L 84.288223 150.8625 
L 81.64486 156.09375 
L 79.337774 161.325 
L 78.030347 164.8125 
L 76.446434 170.04375 
L 75.743352 173.53125 
L 75.378378 177.01875 
L 75.389441 180.50625 
L 75.559093 182.25 
L 75.857791 183.99375 
L 76.306693 185.7375 
L 76.934073 187.48125 
L 78.698872 190.96875 
L 80.15625 192.959456 
L 81.378216 194.45625 
L 83.15415 196.2 
L 85.3875 198.042581 
L 88.003125 199.871357 
L 90.635209 201.43125 
L 94.049363 203.175 
L 98.158056 204.91875 
L 101.08125 206.021627 
L 106.3125 207.69526 
L 114.159375 209.706329 
L 122.00625 211.300021 
L 132.46875 212.924108 
L 142.93125 214.093524 
L 150.778125 214.765191 
L 158.625 215.211474 
L 174.31875 215.772475 
L 184.78125 215.850128 
L 195.24375 215.68926 
L 208.321875 215.208911 
L 218.784375 214.659722 
L 226.63125 214.045545 
L 244.940625 212.181559 
L 250.171875 211.533892 
L 255.403125 210.826005 
L 271.096875 208.182202 
L 276.328125 207.173389 
L 292.021875 203.464778 
L 302.484375 200.408407 
L 310.33125 197.652823 
L 315.5625 195.587613 
L 323.409375 191.980801 
L 328.640625 189.137617 
L 333.871875 185.879883 
L 336.545653 183.99375 
L 340.95554 180.50625 
L 344.639193 177.01875 
L 347.804925 173.53125 
L 350.454837 170.04375 
L 352.65848 166.55625 
L 353.648241 164.8125 
L 355.300984 161.325 
L 356.676332 157.8375 
L 358.210792 152.60625 
L 358.943371 149.11875 
L 359.44248 145.63125 
L 359.748728 142.14375 
L 359.889847 138.65625 
L 359.830772 133.425 
L 359.477034 128.19375 
L 358.842369 122.9625 
L 357.924097 117.73125 
L 356.395034 110.75625 
L 354.961511 105.525 
L 352.18125 96.748125 
L 350.347264 91.575 
L 346.0437 81.1125 
L 342.780834 74.1375 
L 338.230926 65.41875 
L 335.236675 60.1875 
L 330.875061 53.2125 
L 327.333309 47.98125 
L 322.128994 41.00625 
L 317.800931 35.775 
L 314.691282 32.2875 
L 311.347914 28.8 
L 311.347914 28.8 
" style="fill:none;stroke:#0000ff;"/>
   </g>
   <g id="LineCollection_6">
    <path clip-path="url(#pb6e84046a8)" d="M 236.856939 28.8 
L 231.8625 29.783765 
L 226.63125 31.170577 
L 221.4 32.891137 
L 216.16875 34.934144 
L 210.503164 37.51875 
L 205.70625 39.955131 
L 200.475 42.921105 
L 195.135425 46.2375 
L 189.954039 49.725 
L 184.78125 53.459375 
L 178.363783 58.44375 
L 172.100565 63.675 
L 168.120982 67.1625 
L 160.593621 74.1375 
L 153.39375 81.246436 
L 148.1625 86.647799 
L 143.54536 91.575 
L 134.222767 102.0375 
L 125.462783 112.5 
L 115.923483 124.70625 
L 109.603312 133.425 
L 102.67177 143.8875 
L 99.551693 149.11875 
L 95.85 156.205295 
L 94.251906 159.58125 
L 92.22277 164.8125 
L 91.183242 168.3 
L 90.445357 171.7875 
L 90.00997 175.275 
L 89.952057 177.01875 
L 90.012324 178.7625 
L 90.203885 180.50625 
L 90.61875 182.510457 
L 91.001286 183.99375 
L 91.628047 185.7375 
L 92.471848 187.48125 
L 93.540672 189.225 
L 94.81417 190.96875 
L 96.397204 192.7125 
L 98.465625 194.584531 
L 101.08125 196.558697 
L 103.696875 198.205779 
L 106.457031 199.6875 
L 110.271621 201.43125 
L 114.159375 202.919557 
L 119.390625 204.597855 
L 124.621875 205.996067 
L 132.46875 207.669831 
L 140.315625 208.959443 
L 145.546875 209.653533 
L 156.009375 210.717309 
L 163.85625 211.273301 
L 171.703125 211.619458 
L 182.165625 211.832709 
L 192.628125 211.813015 
L 203.090625 211.574365 
L 213.553125 211.090205 
L 221.4 210.523106 
L 237.09375 209.03087 
L 250.171875 207.300408 
L 263.25 205.032776 
L 276.328125 202.247268 
L 286.790625 199.418711 
L 292.021875 197.78327 
L 297.253125 195.97977 
L 302.484375 193.97147 
L 309.246586 190.96875 
L 312.946875 189.091341 
L 318.178125 186.113074 
L 321.456924 183.99375 
L 323.891738 182.25 
L 328.185425 178.7625 
L 331.79693 175.275 
L 334.834674 171.7875 
L 337.351956 168.3 
L 339.408969 164.8125 
L 340.330671 163.06875 
L 341.807734 159.58125 
L 343.050046 156.09375 
L 343.940984 152.60625 
L 344.845586 147.375 
L 345.179371 143.8875 
L 345.305329 140.4 
L 345.245592 136.9125 
L 345.013876 133.425 
L 344.61752 129.9375 
L 343.796432 124.70625 
L 343.090244 121.21875 
L 342.230109 117.73125 
L 340.209636 110.75625 
L 337.736838 103.78125 
L 334.838161 96.80625 
L 331.25625 89.367577 
L 329.698951 86.34375 
L 326.029249 79.936706 
L 326.029249 79.936706 
" style="fill:none;stroke:#0000ff;"/>
    <path clip-path="url(#pb6e84046a8)" d="M 286.482808 38.291671 
L 285.146379 37.51875 
L 284.175 36.957186 
L 281.937296 35.775 
L 281.559375 35.574476 
L 278.94375 34.306272 
L 278.313674 34.03125 
L 276.328125 33.153106 
L 274.105808 32.2875 
L 273.7125 32.131546 
L 271.096875 31.206846 
L 268.907493 30.54375 
L 268.48125 30.411175 
L 265.865625 29.706304 
L 263.25 29.123759 
L 261.457266 28.8 
" style="fill:none;stroke:#0000ff;"/>
   </g>
   <g id="LineCollection_7">
    <path clip-path="url(#pb6e84046a8)" d="M 174.119811 80.510515 
L 169.0875 84.718217 
L 163.27735 89.83125 
L 155.857192 96.80625 
L 150.589071 102.0375 
L 145.546875 107.281293 
L 140.7138 112.5 
L 133.094515 121.21875 
L 126.01541 129.9375 
L 119.390625 138.911499 
L 116.775 142.725325 
L 114.854052 145.63125 
L 110.706269 152.60625 
L 108.916901 156.09375 
L 107.249404 159.58125 
L 105.240332 164.8125 
L 104.261071 168.3 
L 103.631439 171.7875 
L 103.439451 173.53125 
L 103.363899 175.275 
L 103.414834 177.01875 
L 103.696875 179.223815 
L 103.926853 180.50625 
L 104.401249 182.25 
L 105.069397 183.99375 
L 106.3125 186.264318 
L 107.070074 187.48125 
L 108.928125 189.715523 
L 110.124599 190.96875 
L 112.167833 192.7125 
L 114.622336 194.45625 
L 117.563235 196.2 
L 121.119615 197.94375 
L 124.621875 199.382484 
L 127.2375 200.327477 
L 132.46875 201.923501 
L 137.7 203.208191 
L 142.93125 204.310955 
L 150.778125 205.59298 
L 156.009375 206.252687 
L 166.471875 207.235147 
L 174.31875 207.703371 
L 182.165625 207.956937 
L 192.628125 208.022532 
L 203.090625 207.805688 
L 210.9375 207.449315 
L 218.784375 206.897687 
L 231.8625 205.690391 
L 242.325 204.341981 
L 249.507025 203.175 
L 255.403125 202.16435 
L 265.865625 199.925587 
L 276.328125 197.211953 
L 284.175 194.718428 
L 289.642387 192.7125 
L 294.6375 190.664223 
L 299.86875 188.216154 
L 304.47099 185.7375 
L 307.715625 183.762073 
L 310.33125 182.012174 
L 312.946875 180.086943 
L 315.5625 177.943675 
L 316.636982 177.01875 
L 320.1269 173.53125 
L 323.010933 170.04375 
L 325.394545 166.55625 
L 327.328043 163.06875 
L 328.822441 159.58125 
L 330.029671 156.09375 
L 330.872467 152.60625 
L 331.445315 149.11875 
L 331.79147 145.63125 
L 331.895482 142.14375 
L 331.78143 138.65625 
L 331.463523 135.16875 
L 330.68806 129.9375 
L 329.964575 126.45 
L 329.05633 122.9625 
L 327.45794 117.73125 
L 325.509702 112.5 
L 324.046928 109.0125 
L 321.589105 103.78125 
L 318.178125 97.48345 
L 316.766489 95.0625 
L 312.946875 89.193819 
L 310.33125 85.541998 
L 307.715625 82.161413 
L 305.1 79.02474 
L 302.275244 75.88125 
L 298.871588 72.39375 
L 294.6375 68.492915 
L 290.904303 65.41875 
L 286.790625 62.38305 
L 283.433322 60.1875 
L 280.493998 58.44375 
L 277.226504 56.7 
L 276.328125 56.240737 
L 271.096875 53.939265 
L 265.865625 52.117389 
L 260.634375 50.748035 
L 255.403125 49.822367 
L 250.171875 49.294872 
L 244.940625 49.171876 
L 239.709375 49.43957 
L 234.478125 50.072151 
L 229.246875 51.063471 
L 224.357095 52.305602 
L 224.357095 52.305602 
" style="fill:none;stroke:#0000ff;"/>
   </g>
   <g id="LineCollection_8">
    <path clip-path="url(#pb6e84046a8)" d="M 295.080317 97.336754 
L 292.986095 95.0625 
L 289.40625 91.553832 
L 285.419023 88.0875 
L 283.194116 86.34375 
L 280.792144 84.6 
L 278.176378 82.85625 
L 275.293563 81.1125 
L 272.066391 79.36875 
L 271.096875 78.870831 
L 265.865625 76.57881 
L 260.634375 74.793255 
L 255.403125 73.480637 
L 252.7875 72.993753 
L 247.55625 72.353768 
L 242.325 72.112412 
L 237.09375 72.277526 
L 231.8625 72.812633 
L 226.63125 73.720416 
L 221.4 74.976374 
L 216.16875 76.576526 
L 210.9375 78.503825 
L 204.959195 81.1125 
L 200.475 83.304855 
L 194.935281 86.34375 
L 189.17866 89.83125 
L 183.914681 93.31875 
L 179.030835 96.80625 
L 174.31875 100.398396 
L 168.025793 105.525 
L 162.064176 110.75625 
L 156.488082 115.9875 
L 150.778125 121.703804 
L 146.30398 126.45 
L 141.6671 131.68125 
L 135.971703 138.65625 
L 130.863046 145.63125 
L 127.2375 151.311411 
L 125.465395 154.35 
L 122.87424 159.58125 
L 121.491001 163.06875 
L 120.405414 166.55625 
L 119.72192 170.04375 
L 119.541055 171.7875 
L 119.477426 173.53125 
L 119.542276 175.275 
L 119.750733 177.01875 
L 120.122847 178.7625 
L 120.684989 180.50625 
L 121.47176 182.25 
L 122.485748 183.99375 
L 123.76196 185.7375 
L 125.360872 187.48125 
L 127.34042 189.225 
L 129.853125 191.039517 
L 132.671165 192.7125 
L 136.260504 194.45625 
L 140.315625 196.051121 
L 142.93125 196.936571 
L 148.1625 198.410194 
L 153.96458 199.6875 
L 158.625 200.545983 
L 165.088104 201.43125 
L 169.0875 201.901116 
L 176.934375 202.548789 
L 184.78125 202.910294 
L 192.628125 203.0407 
L 200.475 202.968411 
L 208.321875 202.700199 
L 216.16875 202.22244 
L 224.610053 201.43125 
L 231.8625 200.631073 
L 239.709375 199.481598 
L 244.940625 198.61272 
L 252.7875 197.055331 
L 260.634375 195.185325 
L 269.160546 192.7125 
L 274.330882 190.96875 
L 278.94375 189.206066 
L 284.175 186.946254 
L 289.40625 184.298159 
L 292.950238 182.25 
L 297.253125 179.359478 
L 299.86875 177.343834 
L 300.27877 177.01875 
L 304.098076 173.53125 
L 307.190597 170.04375 
L 309.697525 166.55625 
L 311.693624 163.06875 
L 313.207907 159.58125 
L 314.368005 156.09375 
L 315.136582 152.60625 
L 315.583739 149.11875 
L 315.766948 145.63125 
L 315.763092 145.154573 
L 315.763092 145.154573 
" style="fill:none;stroke:#0000ff;"/>
   </g>
   <g id="LineCollection_9">
    <path clip-path="url(#pb6e84046a8)" d="M 211.362068 195.671311 
L 218.784375 195.106791 
L 226.63125 194.213119 
L 231.8625 193.466116 
L 239.709375 192.052373 
L 244.940625 190.894002 
L 250.171875 189.572764 
L 255.403125 188.033792 
L 260.634375 186.241262 
L 265.865625 184.14204 
L 269.953028 182.25 
L 273.7125 180.243989 
L 276.328125 178.673834 
L 278.94375 176.921903 
L 281.559375 174.939764 
L 284.175 172.659212 
L 285.105672 171.7875 
L 288.220954 168.3 
L 290.63989 164.8125 
L 292.021875 162.19756 
L 292.453298 161.325 
L 293.176157 159.58125 
L 293.765164 157.8375 
L 294.59065 154.35 
L 295.029612 150.8625 
L 295.080613 147.375 
L 294.770488 143.8875 
L 294.142747 140.4 
L 293.192352 136.9125 
L 291.905849 133.425 
L 290.327165 129.9375 
L 288.408674 126.45 
L 286.139059 122.9625 
L 283.488025 119.475 
L 280.396936 115.9875 
L 278.656979 114.24375 
L 276.328125 112.106889 
L 273.7125 109.952974 
L 269.95815 107.26875 
L 267.1573 105.525 
L 263.961073 103.78125 
L 263.25 103.414794 
L 260.197837 102.0375 
L 258.01875 101.155237 
L 252.7875 99.467261 
L 248.784556 98.55 
L 247.55625 98.301601 
L 244.940625 97.892494 
L 242.325 97.602798 
L 237.09375 97.357514 
L 231.8625 97.53107 
L 226.63125 98.108883 
L 221.4 99.065612 
L 216.16875 100.398164 
L 210.9375 102.079253 
L 205.70625 104.095828 
L 200.475 106.448238 
L 195.24375 109.14266 
L 189.44803 112.5 
L 184.039712 115.9875 
L 179.110773 119.475 
L 174.31875 123.157688 
L 169.0875 127.526222 
L 164.515754 131.68125 
L 160.956958 135.16875 
L 157.620255 138.65625 
L 153.07999 143.8875 
L 150.344401 147.375 
L 147.869273 150.8625 
L 145.546875 154.570702 
L 143.753245 157.8375 
L 142.193106 161.325 
L 141.02298 164.8125 
L 140.612868 166.55625 
L 140.315625 168.428299 
L 140.164125 170.04375 
L 140.155898 171.7875 
L 140.319333 173.53125 
L 140.655825 175.275 
L 141.203363 177.01875 
L 141.99853 178.7625 
L 143.081275 180.50625 
L 144.461354 182.25 
L 146.237822 183.99375 
L 148.47709 185.7375 
L 151.286931 187.48125 
L 154.847338 189.225 
L 158.6947 190.712245 
L 158.6947 190.712245 
" style="fill:none;stroke:#0000ff;"/>
   </g>
   <g id="LineCollection_10">
    <path clip-path="url(#pb6e84046a8)" d="M 260.836297 162.785581 
L 261.602494 161.325 
L 262.307318 159.58125 
L 262.816052 157.8375 
L 263.138854 156.09375 
L 263.25 154.743003 
L 263.282739 154.35 
L 263.252172 152.60625 
L 263.25 152.587156 
L 263.049121 150.8625 
L 262.673563 149.11875 
L 262.123583 147.375 
L 261.395515 145.63125 
L 260.634375 144.16714 
L 260.480943 143.8875 
L 259.353906 142.14375 
L 258.01875 140.4 
L 256.406916 138.65625 
L 255.403125 137.695033 
L 254.502894 136.9125 
L 252.7875 135.562241 
L 252.225739 135.16875 
L 250.171875 133.840663 
L 249.432587 133.425 
L 247.55625 132.434686 
L 245.867776 131.68125 
L 244.940625 131.287091 
L 242.325 130.362976 
L 240.814893 129.9375 
L 239.709375 129.635077 
L 237.09375 129.084184 
L 234.478125 128.697676 
L 231.8625 128.463691 
L 229.246875 128.37263 
L 226.63125 128.41694 
L 224.015625 128.590941 
L 221.4 128.890697 
L 218.784375 129.31392 
L 216.16875 129.859912 
L 215.864363 129.9375 
L 213.553125 130.517414 
L 210.9375 131.294942 
L 209.810731 131.68125 
L 208.321875 132.187661 
L 205.70625 133.198493 
L 205.180104 133.425 
L 203.090625 134.324571 
L 201.320595 135.16875 
L 200.475 135.57443 
L 197.929189 136.9125 
L 197.859375 136.949641 
L 195.24375 138.453922 
L 194.916204 138.65625 
L 192.628125 140.099331 
L 192.180761 140.4 
L 190.0125 141.898224 
L 189.676366 142.14375 
L 187.396875 143.868296 
L 187.372677 143.8875 
L 185.255723 145.63125 
L 184.78125 146.042075 
L 183.301232 147.375 
L 182.165625 148.460908 
L 181.499303 149.11875 
L 179.847602 150.8625 
L 179.55 151.200869 
L 178.342065 152.60625 
L 176.980584 154.35 
L 176.934375 154.415471 
L 175.765779 156.09375 
L 174.70176 157.8375 
L 174.31875 158.570951 
L 173.792955 159.58125 
L 173.049902 161.325 
L 172.483991 163.06875 
L 172.10961 164.8125 
L 171.946107 166.55625 
L 172.019001 168.3 
L 172.361586 170.04375 
L 173.017073 171.7875 
L 174.041462 173.53125 
L 174.31875 173.874838 
L 175.532444 175.275 
L 176.934375 176.488373 
L 177.608706 177.01875 
L 179.55 178.234265 
L 180.504153 178.7625 
L 182.165625 179.52862 
L 184.640754 180.50625 
L 184.78125 180.554229 
L 187.396875 181.337132 
L 190.0125 181.98114 
L 191.337537 182.25 
L 192.628125 182.487364 
L 195.24375 182.875683 
L 197.859375 183.170887 
L 200.475 183.380563 
L 203.090625 183.510975 
L 205.70625 183.567205 
L 208.321875 183.553272 
L 210.9375 183.47222 
L 213.553125 183.326188 
L 213.717987 183.312969 
" style="fill:none;stroke:#0000ff;"/>
   </g>
   <g id="patch_3">
    <path d="M 388.8 252 
L 388.8 28.8 
" style="fill:none;stroke:#000000;stroke-linecap:square;stroke-linejoin:miter;"/>
   </g>
   <g id="patch_4">
    <path d="M 54 252 
L 54 28.8 
" style="fill:none;stroke:#000000;stroke-linecap:square;stroke-linejoin:miter;"/>
   </g>
   <g id="patch_5">
    <path d="M 54 252 
L 388.8 252 
" style="fill:none;stroke:#000000;stroke-linecap:square;stroke-linejoin:miter;"/>
   </g>
   <g id="patch_6">
    <path d="M 54 28.8 
L 388.8 28.8 
" style="fill:none;stroke:#000000;stroke-linecap:square;stroke-linejoin:miter;"/>
   </g>
   <g id="matplotlib.axis_1">
    <g id="xtick_1">
     <g id="line2d_1">
      <path clip-path="url(#pb6e84046a8)" d="M 86.803796 252 
L 86.803796 28.8 
" style="fill:none;stroke:#000000;stroke-dasharray:1.000000,3.000000;stroke-dashoffset:0.0;stroke-width:0.5;"/>
     </g>
     <g id="line2d_2">
      <defs>
       <path d="M 0 0 
L 0 -4 
" id="mbd1c50f4d7" style="stroke:#000000;stroke-width:0.5;"/>
      </defs>
      <g>
       <use style="stroke:#000000;stroke-width:0.5;" x="86.8037959274" xlink:href="#mbd1c50f4d7" y="252.0"/>
      </g>
     </g>
     <g id="line2d_3">
      <defs>
       <path d="M 0 0 
L 0 4 
" id="mee3e4a8eea" style="stroke:#000000;stroke-width:0.5;"/>
      </defs>
      <g>
       <use style="stroke:#000000;stroke-width:0.5;" x="86.8037959274" xlink:href="#mee3e4a8eea" y="28.8"/>
      </g>
     </g>
     <g id="text_1">
      <!-- −3 -->
      <defs>
       <path d="M 40.578125 39.3125 
Q 47.65625 37.796875 51.625 33 
Q 55.609375 28.21875 55.609375 21.1875 
Q 55.609375 10.40625 48.1875 4.484375 
Q 40.765625 -1.421875 27.09375 -1.421875 
Q 22.515625 -1.421875 17.65625 -0.515625 
Q 12.796875 0.390625 7.625 2.203125 
L 7.625 11.71875 
Q 11.71875 9.328125 16.59375 8.109375 
Q 21.484375 6.890625 26.8125 6.890625 
Q 36.078125 6.890625 40.9375 10.546875 
Q 45.796875 14.203125 45.796875 21.1875 
Q 45.796875 27.640625 41.28125 31.265625 
Q 36.765625 34.90625 28.71875 34.90625 
L 20.21875 34.90625 
L 20.21875 43.015625 
L 29.109375 43.015625 
Q 36.375 43.015625 40.234375 45.921875 
Q 44.09375 48.828125 44.09375 54.296875 
Q 44.09375 59.90625 40.109375 62.90625 
Q 36.140625 65.921875 28.71875 65.921875 
Q 24.65625 65.921875 20.015625 65.03125 
Q 15.375 64.15625 9.8125 62.3125 
L 9.8125 71.09375 
Q 15.4375 72.65625 20.34375 73.4375 
Q 25.25 74.21875 29.59375 74.21875 
Q 40.828125 74.21875 47.359375 69.109375 
Q 53.90625 64.015625 53.90625 55.328125 
Q 53.90625 49.265625 50.4375 45.09375 
Q 46.96875 40.921875 40.578125 39.3125 
" id="BitstreamVeraSans-Roman-33"/>
       <path d="M 10.59375 35.5 
L 73.1875 35.5 
L 73.1875 27.203125 
L 10.59375 27.203125 
z
" id="BitstreamVeraSans-Roman-2212"/>
      </defs>
      <g transform="translate(79.4327021774 263.5984375)scale(0.1 -0.1)">
       <use xlink:href="#BitstreamVeraSans-Roman-2212"/>
       <use x="83.7890625" xlink:href="#BitstreamVeraSans-Roman-33"/>
      </g>
     </g>
    </g>
    <g id="xtick_2">
     <g id="line2d_4">
      <path clip-path="url(#pb6e84046a8)" d="M 131.669197 252 
L 131.669197 28.8 
" style="fill:none;stroke:#000000;stroke-dasharray:1.000000,3.000000;stroke-dashoffset:0.0;stroke-width:0.5;"/>
     </g>
     <g id="line2d_5">
      <g>
       <use style="stroke:#000000;stroke-width:0.5;" x="131.669197285" xlink:href="#mbd1c50f4d7" y="252.0"/>
      </g>
     </g>
     <g id="line2d_6">
      <g>
       <use style="stroke:#000000;stroke-width:0.5;" x="131.669197285" xlink:href="#mee3e4a8eea" y="28.8"/>
      </g>
     </g>
     <g id="text_2">
      <!-- −2 -->
      <defs>
       <path d="M 19.1875 8.296875 
L 53.609375 8.296875 
L 53.609375 0 
L 7.328125 0 
L 7.328125 8.296875 
Q 12.9375 14.109375 22.625 23.890625 
Q 32.328125 33.6875 34.8125 36.53125 
Q 39.546875 41.84375 41.421875 45.53125 
Q 43.3125 49.21875 43.3125 52.78125 
Q 43.3125 58.59375 39.234375 62.25 
Q 35.15625 65.921875 28.609375 65.921875 
Q 23.96875 65.921875 18.8125 64.3125 
Q 13.671875 62.703125 7.8125 59.421875 
L 7.8125 69.390625 
Q 13.765625 71.78125 18.9375 73 
Q 24.125 74.21875 28.421875 74.21875 
Q 39.75 74.21875 46.484375 68.546875 
Q 53.21875 62.890625 53.21875 53.421875 
Q 53.21875 48.921875 51.53125 44.890625 
Q 49.859375 40.875 45.40625 35.40625 
Q 44.1875 33.984375 37.640625 27.21875 
Q 31.109375 20.453125 19.1875 8.296875 
" id="BitstreamVeraSans-Roman-32"/>
      </defs>
      <g transform="translate(124.298103535 263.5984375)scale(0.1 -0.1)">
       <use xlink:href="#BitstreamVeraSans-Roman-2212"/>
       <use x="83.7890625" xlink:href="#BitstreamVeraSans-Roman-32"/>
      </g>
     </g>
    </g>
    <g id="xtick_3">
     <g id="line2d_7">
      <path clip-path="url(#pb6e84046a8)" d="M 176.534599 252 
L 176.534599 28.8 
" style="fill:none;stroke:#000000;stroke-dasharray:1.000000,3.000000;stroke-dashoffset:0.0;stroke-width:0.5;"/>
     </g>
     <g id="line2d_8">
      <g>
       <use style="stroke:#000000;stroke-width:0.5;" x="176.534598642" xlink:href="#mbd1c50f4d7" y="252.0"/>
      </g>
     </g>
     <g id="line2d_9">
      <g>
       <use style="stroke:#000000;stroke-width:0.5;" x="176.534598642" xlink:href="#mee3e4a8eea" y="28.8"/>
      </g>
     </g>
     <g id="text_3">
      <!-- −1 -->
      <defs>
       <path d="M 12.40625 8.296875 
L 28.515625 8.296875 
L 28.515625 63.921875 
L 10.984375 60.40625 
L 10.984375 69.390625 
L 28.421875 72.90625 
L 38.28125 72.90625 
L 38.28125 8.296875 
L 54.390625 8.296875 
L 54.390625 0 
L 12.40625 0 
z
" id="BitstreamVeraSans-Roman-31"/>
      </defs>
      <g transform="translate(169.163504892 263.5984375)scale(0.1 -0.1)">
       <use xlink:href="#BitstreamVeraSans-Roman-2212"/>
       <use x="83.7890625" xlink:href="#BitstreamVeraSans-Roman-31"/>
      </g>
     </g>
    </g>
    <g id="xtick_4">
     <g id="line2d_10">
      <path clip-path="url(#pb6e84046a8)" d="M 221.4 252 
L 221.4 28.8 
" style="fill:none;stroke:#000000;stroke-dasharray:1.000000,3.000000;stroke-dashoffset:0.0;stroke-width:0.5;"/>
     </g>
     <g id="line2d_11">
      <g>
       <use style="stroke:#000000;stroke-width:0.5;" x="221.4" xlink:href="#mbd1c50f4d7" y="252.0"/>
      </g>
     </g>
     <g id="line2d_12">
      <g>
       <use style="stroke:#000000;stroke-width:0.5;" x="221.4" xlink:href="#mee3e4a8eea" y="28.8"/>
      </g>
     </g>
     <g id="text_4">
      <!-- 0 -->
      <defs>
       <path d="M 31.78125 66.40625 
Q 24.171875 66.40625 20.328125 58.90625 
Q 16.5 51.421875 16.5 36.375 
Q 16.5 21.390625 20.328125 13.890625 
Q 24.171875 6.390625 31.78125 6.390625 
Q 39.453125 6.390625 43.28125 13.890625 
Q 47.125 21.390625 47.125 36.375 
Q 47.125 51.421875 43.28125 58.90625 
Q 39.453125 66.40625 31.78125 66.40625 
M 31.78125 74.21875 
Q 44.046875 74.21875 50.515625 64.515625 
Q 56.984375 54.828125 56.984375 36.375 
Q 56.984375 17.96875 50.515625 8.265625 
Q 44.046875 -1.421875 31.78125 -1.421875 
Q 19.53125 -1.421875 13.0625 8.265625 
Q 6.59375 17.96875 6.59375 36.375 
Q 6.59375 54.828125 13.0625 64.515625 
Q 19.53125 74.21875 31.78125 74.21875 
" id="BitstreamVeraSans-Roman-30"/>
      </defs>
      <g transform="translate(218.21875 263.5984375)scale(0.1 -0.1)">
       <use xlink:href="#BitstreamVeraSans-Roman-30"/>
      </g>
     </g>
    </g>
    <g id="xtick_5">
     <g id="line2d_13">
      <path clip-path="url(#pb6e84046a8)" d="M 266.265401 252 
L 266.265401 28.8 
" style="fill:none;stroke:#000000;stroke-dasharray:1.000000,3.000000;stroke-dashoffset:0.0;stroke-width:0.5;"/>
     </g>
     <g id="line2d_14">
      <g>
       <use style="stroke:#000000;stroke-width:0.5;" x="266.265401358" xlink:href="#mbd1c50f4d7" y="252.0"/>
      </g>
     </g>
     <g id="line2d_15">
      <g>
       <use style="stroke:#000000;stroke-width:0.5;" x="266.265401358" xlink:href="#mee3e4a8eea" y="28.8"/>
      </g>
     </g>
     <g id="text_5">
      <!-- 1 -->
      <g transform="translate(263.084151358 263.5984375)scale(0.1 -0.1)">
       <use xlink:href="#BitstreamVeraSans-Roman-31"/>
      </g>
     </g>
    </g>
    <g id="xtick_6">
     <g id="line2d_16">
      <path clip-path="url(#pb6e84046a8)" d="M 311.130803 252 
L 311.130803 28.8 
" style="fill:none;stroke:#000000;stroke-dasharray:1.000000,3.000000;stroke-dashoffset:0.0;stroke-width:0.5;"/>
     </g>
     <g id="line2d_17">
      <g>
       <use style="stroke:#000000;stroke-width:0.5;" x="311.130802715" xlink:href="#mbd1c50f4d7" y="252.0"/>
      </g>
     </g>
     <g id="line2d_18">
      <g>
       <use style="stroke:#000000;stroke-width:0.5;" x="311.130802715" xlink:href="#mee3e4a8eea" y="28.8"/>
      </g>
     </g>
     <g id="text_6">
      <!-- 2 -->
      <g transform="translate(307.949552715 263.5984375)scale(0.1 -0.1)">
       <use xlink:href="#BitstreamVeraSans-Roman-32"/>
      </g>
     </g>
    </g>
    <g id="xtick_7">
     <g id="line2d_19">
      <path clip-path="url(#pb6e84046a8)" d="M 355.996204 252 
L 355.996204 28.8 
" style="fill:none;stroke:#000000;stroke-dasharray:1.000000,3.000000;stroke-dashoffset:0.0;stroke-width:0.5;"/>
     </g>
     <g id="line2d_20">
      <g>
       <use style="stroke:#000000;stroke-width:0.5;" x="355.996204073" xlink:href="#mbd1c50f4d7" y="252.0"/>
      </g>
     </g>
     <g id="line2d_21">
      <g>
       <use style="stroke:#000000;stroke-width:0.5;" x="355.996204073" xlink:href="#mee3e4a8eea" y="28.8"/>
      </g>
     </g>
     <g id="text_7">
      <!-- 3 -->
      <g transform="translate(352.814954073 263.5984375)scale(0.1 -0.1)">
       <use xlink:href="#BitstreamVeraSans-Roman-33"/>
      </g>
     </g>
    </g>
    <g id="text_8">
     <!-- X0 -->
     <defs>
      <path d="M 6.296875 72.90625 
L 16.890625 72.90625 
L 35.015625 45.796875 
L 53.21875 72.90625 
L 63.8125 72.90625 
L 40.375 37.890625 
L 65.375 0 
L 54.78125 0 
L 34.28125 31 
L 13.625 0 
L 2.984375 0 
L 29 38.921875 
z
" id="BitstreamVeraSans-Roman-58"/>
     </defs>
     <g transform="translate(214.79375 278.2765625)scale(0.1 -0.1)">
      <use xlink:href="#BitstreamVeraSans-Roman-58"/>
      <use x="68.505859375" xlink:href="#BitstreamVeraSans-Roman-30"/>
     </g>
    </g>
   </g>
   <g id="matplotlib.axis_2">
    <g id="ytick_1">
     <g id="line2d_22">
      <path clip-path="url(#pb6e84046a8)" d="M 54 239.55458 
L 388.8 239.55458 
" style="fill:none;stroke:#000000;stroke-dasharray:1.000000,3.000000;stroke-dashoffset:0.0;stroke-width:0.5;"/>
     </g>
     <g id="line2d_23">
      <defs>
       <path d="M 0 0 
L 4 0 
" id="ma5d3b56813" style="stroke:#000000;stroke-width:0.5;"/>
      </defs>
      <g>
       <use style="stroke:#000000;stroke-width:0.5;" x="54.0" xlink:href="#ma5d3b56813" y="239.554579585"/>
      </g>
     </g>
     <g id="line2d_24">
      <defs>
       <path d="M 0 0 
L -4 0 
" id="m547c0d80fb" style="stroke:#000000;stroke-width:0.5;"/>
      </defs>
      <g>
       <use style="stroke:#000000;stroke-width:0.5;" x="388.8" xlink:href="#m547c0d80fb" y="239.554579585"/>
      </g>
     </g>
     <g id="text_9">
      <!-- −3 -->
      <g transform="translate(35.2578125 242.313954585)scale(0.1 -0.1)">
       <use xlink:href="#BitstreamVeraSans-Roman-2212"/>
       <use x="83.7890625" xlink:href="#BitstreamVeraSans-Roman-33"/>
      </g>
     </g>
    </g>
    <g id="ytick_2">
     <g id="line2d_25">
      <path clip-path="url(#pb6e84046a8)" d="M 54 213.247901 
L 388.8 213.247901 
" style="fill:none;stroke:#000000;stroke-dasharray:1.000000,3.000000;stroke-dashoffset:0.0;stroke-width:0.5;"/>
     </g>
     <g id="line2d_26">
      <g>
       <use style="stroke:#000000;stroke-width:0.5;" x="54.0" xlink:href="#ma5d3b56813" y="213.247901495"/>
      </g>
     </g>
     <g id="line2d_27">
      <g>
       <use style="stroke:#000000;stroke-width:0.5;" x="388.8" xlink:href="#m547c0d80fb" y="213.247901495"/>
      </g>
     </g>
     <g id="text_10">
      <!-- −2 -->
      <g transform="translate(35.2578125 216.007276495)scale(0.1 -0.1)">
       <use xlink:href="#BitstreamVeraSans-Roman-2212"/>
       <use x="83.7890625" xlink:href="#BitstreamVeraSans-Roman-32"/>
      </g>
     </g>
    </g>
    <g id="ytick_3">
     <g id="line2d_28">
      <path clip-path="url(#pb6e84046a8)" d="M 54 186.941223 
L 388.8 186.941223 
" style="fill:none;stroke:#000000;stroke-dasharray:1.000000,3.000000;stroke-dashoffset:0.0;stroke-width:0.5;"/>
     </g>
     <g id="line2d_29">
      <g>
       <use style="stroke:#000000;stroke-width:0.5;" x="54.0" xlink:href="#ma5d3b56813" y="186.941223404"/>
      </g>
     </g>
     <g id="line2d_30">
      <g>
       <use style="stroke:#000000;stroke-width:0.5;" x="388.8" xlink:href="#m547c0d80fb" y="186.941223404"/>
      </g>
     </g>
     <g id="text_11">
      <!-- −1 -->
      <g transform="translate(35.2578125 189.700598404)scale(0.1 -0.1)">
       <use xlink:href="#BitstreamVeraSans-Roman-2212"/>
       <use x="83.7890625" xlink:href="#BitstreamVeraSans-Roman-31"/>
      </g>
     </g>
    </g>
    <g id="ytick_4">
     <g id="line2d_31">
      <path clip-path="url(#pb6e84046a8)" d="M 54 160.634545 
L 388.8 160.634545 
" style="fill:none;stroke:#000000;stroke-dasharray:1.000000,3.000000;stroke-dashoffset:0.0;stroke-width:0.5;"/>
     </g>
     <g id="line2d_32">
      <g>
       <use style="stroke:#000000;stroke-width:0.5;" x="54.0" xlink:href="#ma5d3b56813" y="160.634545314"/>
      </g>
     </g>
     <g id="line2d_33">
      <g>
       <use style="stroke:#000000;stroke-width:0.5;" x="388.8" xlink:href="#m547c0d80fb" y="160.634545314"/>
      </g>
     </g>
     <g id="text_12">
      <!-- 0 -->
      <g transform="translate(43.6375 163.393920314)scale(0.1 -0.1)">
       <use xlink:href="#BitstreamVeraSans-Roman-30"/>
      </g>
     </g>
    </g>
    <g id="ytick_5">
     <g id="line2d_34">
      <path clip-path="url(#pb6e84046a8)" d="M 54 134.327867 
L 388.8 134.327867 
" style="fill:none;stroke:#000000;stroke-dasharray:1.000000,3.000000;stroke-dashoffset:0.0;stroke-width:0.5;"/>
     </g>
     <g id="line2d_35">
      <g>
       <use style="stroke:#000000;stroke-width:0.5;" x="54.0" xlink:href="#ma5d3b56813" y="134.327867224"/>
      </g>
     </g>
     <g id="line2d_36">
      <g>
       <use style="stroke:#000000;stroke-width:0.5;" x="388.8" xlink:href="#m547c0d80fb" y="134.327867224"/>
      </g>
     </g>
     <g id="text_13">
      <!-- 1 -->
      <g transform="translate(43.6375 137.087242224)scale(0.1 -0.1)">
       <use xlink:href="#BitstreamVeraSans-Roman-31"/>
      </g>
     </g>
    </g>
    <g id="ytick_6">
     <g id="line2d_37">
      <path clip-path="url(#pb6e84046a8)" d="M 54 108.021189 
L 388.8 108.021189 
" style="fill:none;stroke:#000000;stroke-dasharray:1.000000,3.000000;stroke-dashoffset:0.0;stroke-width:0.5;"/>
     </g>
     <g id="line2d_38">
      <g>
       <use style="stroke:#000000;stroke-width:0.5;" x="54.0" xlink:href="#ma5d3b56813" y="108.021189133"/>
      </g>
     </g>
     <g id="line2d_39">
      <g>
       <use style="stroke:#000000;stroke-width:0.5;" x="388.8" xlink:href="#m547c0d80fb" y="108.021189133"/>
      </g>
     </g>
     <g id="text_14">
      <!-- 2 -->
      <g transform="translate(43.6375 110.780564133)scale(0.1 -0.1)">
       <use xlink:href="#BitstreamVeraSans-Roman-32"/>
      </g>
     </g>
    </g>
    <g id="ytick_7">
     <g id="line2d_40">
      <path clip-path="url(#pb6e84046a8)" d="M 54 81.714511 
L 388.8 81.714511 
" style="fill:none;stroke:#000000;stroke-dasharray:1.000000,3.000000;stroke-dashoffset:0.0;stroke-width:0.5;"/>
     </g>
     <g id="line2d_41">
      <g>
       <use style="stroke:#000000;stroke-width:0.5;" x="54.0" xlink:href="#ma5d3b56813" y="81.7145110429"/>
      </g>
     </g>
     <g id="line2d_42">
      <g>
       <use style="stroke:#000000;stroke-width:0.5;" x="388.8" xlink:href="#m547c0d80fb" y="81.7145110429"/>
      </g>
     </g>
     <g id="text_15">
      <!-- 3 -->
      <g transform="translate(43.6375 84.4738860429)scale(0.1 -0.1)">
       <use xlink:href="#BitstreamVeraSans-Roman-33"/>
      </g>
     </g>
    </g>
    <g id="ytick_8">
     <g id="line2d_43">
      <path clip-path="url(#pb6e84046a8)" d="M 54 55.407833 
L 388.8 55.407833 
" style="fill:none;stroke:#000000;stroke-dasharray:1.000000,3.000000;stroke-dashoffset:0.0;stroke-width:0.5;"/>
     </g>
     <g id="line2d_44">
      <g>
       <use style="stroke:#000000;stroke-width:0.5;" x="54.0" xlink:href="#ma5d3b56813" y="55.4078329525"/>
      </g>
     </g>
     <g id="line2d_45">
      <g>
       <use style="stroke:#000000;stroke-width:0.5;" x="388.8" xlink:href="#m547c0d80fb" y="55.4078329525"/>
      </g>
     </g>
     <g id="text_16">
      <!-- 4 -->
      <defs>
       <path d="M 37.796875 64.3125 
L 12.890625 25.390625 
L 37.796875 25.390625 
z
M 35.203125 72.90625 
L 47.609375 72.90625 
L 47.609375 25.390625 
L 58.015625 25.390625 
L 58.015625 17.1875 
L 47.609375 17.1875 
L 47.609375 0 
L 37.796875 0 
L 37.796875 17.1875 
L 4.890625 17.1875 
L 4.890625 26.703125 
z
" id="BitstreamVeraSans-Roman-34"/>
      </defs>
      <g transform="translate(43.6375 58.1672079525)scale(0.1 -0.1)">
       <use xlink:href="#BitstreamVeraSans-Roman-34"/>
      </g>
     </g>
    </g>
    <g id="ytick_9">
     <g id="line2d_46">
      <path clip-path="url(#pb6e84046a8)" d="M 54 29.101155 
L 388.8 29.101155 
" style="fill:none;stroke:#000000;stroke-dasharray:1.000000,3.000000;stroke-dashoffset:0.0;stroke-width:0.5;"/>
     </g>
     <g id="line2d_47">
      <g>
       <use style="stroke:#000000;stroke-width:0.5;" x="54.0" xlink:href="#ma5d3b56813" y="29.1011548622"/>
      </g>
     </g>
     <g id="line2d_48">
      <g>
       <use style="stroke:#000000;stroke-width:0.5;" x="388.8" xlink:href="#m547c0d80fb" y="29.1011548622"/>
      </g>
     </g>
     <g id="text_17">
      <!-- 5 -->
      <defs>
       <path d="M 10.796875 72.90625 
L 49.515625 72.90625 
L 49.515625 64.59375 
L 19.828125 64.59375 
L 19.828125 46.734375 
Q 21.96875 47.46875 24.109375 47.828125 
Q 26.265625 48.1875 28.421875 48.1875 
Q 40.625 48.1875 47.75 41.5 
Q 54.890625 34.8125 54.890625 23.390625 
Q 54.890625 11.625 47.5625 5.09375 
Q 40.234375 -1.421875 26.90625 -1.421875 
Q 22.3125 -1.421875 17.546875 -0.640625 
Q 12.796875 0.140625 7.71875 1.703125 
L 7.71875 11.625 
Q 12.109375 9.234375 16.796875 8.0625 
Q 21.484375 6.890625 26.703125 6.890625 
Q 35.15625 6.890625 40.078125 11.328125 
Q 45.015625 15.765625 45.015625 23.390625 
Q 45.015625 31 40.078125 35.4375 
Q 35.15625 39.890625 26.703125 39.890625 
Q 22.75 39.890625 18.8125 39.015625 
Q 14.890625 38.140625 10.796875 36.28125 
z
" id="BitstreamVeraSans-Roman-35"/>
      </defs>
      <g transform="translate(43.6375 31.8605298622)scale(0.1 -0.1)">
       <use xlink:href="#BitstreamVeraSans-Roman-35"/>
      </g>
     </g>
    </g>
    <g id="text_18">
     <!-- X1 -->
     <g transform="translate(28.178125 147.00625)rotate(-90.0)scale(0.1 -0.1)">
      <use xlink:href="#BitstreamVeraSans-Roman-58"/>
      <use x="68.505859375" xlink:href="#BitstreamVeraSans-Roman-31"/>
     </g>
    </g>
   </g>
   <g id="text_19">
    <g clip-path="url(#pb6e84046a8)">
     <!-- 6.8941e-11 -->
     <defs>
      <path d="M 56.203125 29.59375 
L 56.203125 25.203125 
L 14.890625 25.203125 
Q 15.484375 15.921875 20.484375 11.0625 
Q 25.484375 6.203125 34.421875 6.203125 
Q 39.59375 6.203125 44.453125 7.46875 
Q 49.3125 8.734375 54.109375 11.28125 
L 54.109375 2.78125 
Q 49.265625 0.734375 44.1875 -0.34375 
Q 39.109375 -1.421875 33.890625 -1.421875 
Q 20.796875 -1.421875 13.15625 6.1875 
Q 5.515625 13.8125 5.515625 26.8125 
Q 5.515625 40.234375 12.765625 48.109375 
Q 20.015625 56 32.328125 56 
Q 43.359375 56 49.78125 48.890625 
Q 56.203125 41.796875 56.203125 29.59375 
M 47.21875 32.234375 
Q 47.125 39.59375 43.09375 43.984375 
Q 39.0625 48.390625 32.421875 48.390625 
Q 24.90625 48.390625 20.390625 44.140625 
Q 15.875 39.890625 15.1875 32.171875 
z
" id="BitstreamVeraSans-Roman-65"/>
      <path d="M 31.78125 34.625 
Q 24.75 34.625 20.71875 30.859375 
Q 16.703125 27.09375 16.703125 20.515625 
Q 16.703125 13.921875 20.71875 10.15625 
Q 24.75 6.390625 31.78125 6.390625 
Q 38.8125 6.390625 42.859375 10.171875 
Q 46.921875 13.96875 46.921875 20.515625 
Q 46.921875 27.09375 42.890625 30.859375 
Q 38.875 34.625 31.78125 34.625 
M 21.921875 38.8125 
Q 15.578125 40.375 12.03125 44.71875 
Q 8.5 49.078125 8.5 55.328125 
Q 8.5 64.0625 14.71875 69.140625 
Q 20.953125 74.21875 31.78125 74.21875 
Q 42.671875 74.21875 48.875 69.140625 
Q 55.078125 64.0625 55.078125 55.328125 
Q 55.078125 49.078125 51.53125 44.71875 
Q 48 40.375 41.703125 38.8125 
Q 48.828125 37.15625 52.796875 32.3125 
Q 56.78125 27.484375 56.78125 20.515625 
Q 56.78125 9.90625 50.3125 4.234375 
Q 43.84375 -1.421875 31.78125 -1.421875 
Q 19.734375 -1.421875 13.25 4.234375 
Q 6.78125 9.90625 6.78125 20.515625 
Q 6.78125 27.484375 10.78125 32.3125 
Q 14.796875 37.15625 21.921875 38.8125 
M 18.3125 54.390625 
Q 18.3125 48.734375 21.84375 45.5625 
Q 25.390625 42.390625 31.78125 42.390625 
Q 38.140625 42.390625 41.71875 45.5625 
Q 45.3125 48.734375 45.3125 54.390625 
Q 45.3125 60.0625 41.71875 63.234375 
Q 38.140625 66.40625 31.78125 66.40625 
Q 25.390625 66.40625 21.84375 63.234375 
Q 18.3125 60.0625 18.3125 54.390625 
" id="BitstreamVeraSans-Roman-38"/>
      <path d="M 33.015625 40.375 
Q 26.375 40.375 22.484375 35.828125 
Q 18.609375 31.296875 18.609375 23.390625 
Q 18.609375 15.53125 22.484375 10.953125 
Q 26.375 6.390625 33.015625 6.390625 
Q 39.65625 6.390625 43.53125 10.953125 
Q 47.40625 15.53125 47.40625 23.390625 
Q 47.40625 31.296875 43.53125 35.828125 
Q 39.65625 40.375 33.015625 40.375 
M 52.59375 71.296875 
L 52.59375 62.3125 
Q 48.875 64.0625 45.09375 64.984375 
Q 41.3125 65.921875 37.59375 65.921875 
Q 27.828125 65.921875 22.671875 59.328125 
Q 17.53125 52.734375 16.796875 39.40625 
Q 19.671875 43.65625 24.015625 45.921875 
Q 28.375 48.1875 33.59375 48.1875 
Q 44.578125 48.1875 50.953125 41.515625 
Q 57.328125 34.859375 57.328125 23.390625 
Q 57.328125 12.15625 50.6875 5.359375 
Q 44.046875 -1.421875 33.015625 -1.421875 
Q 20.359375 -1.421875 13.671875 8.265625 
Q 6.984375 17.96875 6.984375 36.375 
Q 6.984375 53.65625 15.1875 63.9375 
Q 23.390625 74.21875 37.203125 74.21875 
Q 40.921875 74.21875 44.703125 73.484375 
Q 48.484375 72.75 52.59375 71.296875 
" id="BitstreamVeraSans-Roman-36"/>
      <path d="M 10.6875 12.40625 
L 21 12.40625 
L 21 0 
L 10.6875 0 
z
" id="BitstreamVeraSans-Roman-2e"/>
      <path d="M 4.890625 31.390625 
L 31.203125 31.390625 
L 31.203125 23.390625 
L 4.890625 23.390625 
z
" id="BitstreamVeraSans-Roman-2d"/>
      <path d="M 10.984375 1.515625 
L 10.984375 10.5 
Q 14.703125 8.734375 18.5 7.8125 
Q 22.3125 6.890625 25.984375 6.890625 
Q 35.75 6.890625 40.890625 13.453125 
Q 46.046875 20.015625 46.78125 33.40625 
Q 43.953125 29.203125 39.59375 26.953125 
Q 35.25 24.703125 29.984375 24.703125 
Q 19.046875 24.703125 12.671875 31.3125 
Q 6.296875 37.9375 6.296875 49.421875 
Q 6.296875 60.640625 12.9375 67.421875 
Q 19.578125 74.21875 30.609375 74.21875 
Q 43.265625 74.21875 49.921875 64.515625 
Q 56.59375 54.828125 56.59375 36.375 
Q 56.59375 19.140625 48.40625 8.859375 
Q 40.234375 -1.421875 26.421875 -1.421875 
Q 22.703125 -1.421875 18.890625 -0.6875 
Q 15.09375 0.046875 10.984375 1.515625 
M 30.609375 32.421875 
Q 37.25 32.421875 41.125 36.953125 
Q 45.015625 41.5 45.015625 49.421875 
Q 45.015625 57.28125 41.125 61.84375 
Q 37.25 66.40625 30.609375 66.40625 
Q 23.96875 66.40625 20.09375 61.84375 
Q 16.21875 57.28125 16.21875 49.421875 
Q 16.21875 41.5 20.09375 36.953125 
Q 23.96875 32.421875 30.609375 32.421875 
" id="BitstreamVeraSans-Roman-39"/>
     </defs>
     <g style="fill:#0000ff;" transform="translate(216.851730582 247.262364039)rotate(-2.760256810357859)scale(0.08 -0.08)">
      <use xlink:href="#BitstreamVeraSans-Roman-36"/>
      <use x="63.623046875" xlink:href="#BitstreamVeraSans-Roman-2e"/>
      <use x="95.41015625" xlink:href="#BitstreamVeraSans-Roman-38"/>
      <use x="159.033203125" xlink:href="#BitstreamVeraSans-Roman-39"/>
      <use x="222.65625" xlink:href="#BitstreamVeraSans-Roman-34"/>
      <use x="286.279296875" xlink:href="#BitstreamVeraSans-Roman-31"/>
      <use x="349.90234375" xlink:href="#BitstreamVeraSans-Roman-65"/>
      <use x="411.42578125" xlink:href="#BitstreamVeraSans-Roman-2d"/>
      <use x="447.509765625" xlink:href="#BitstreamVeraSans-Roman-31"/>
      <use x="511.1328125" xlink:href="#BitstreamVeraSans-Roman-31"/>
     </g>
    </g>
   </g>
   <g id="text_20">
    <g clip-path="url(#pb6e84046a8)">
     <!-- 3.63639e-06 -->
     <g style="fill:#0000ff;" transform="translate(85.9148189511 229.239953735)rotate(-355.7628955828729)scale(0.08 -0.08)">
      <use xlink:href="#BitstreamVeraSans-Roman-33"/>
      <use x="63.623046875" xlink:href="#BitstreamVeraSans-Roman-2e"/>
      <use x="95.41015625" xlink:href="#BitstreamVeraSans-Roman-36"/>
      <use x="159.033203125" xlink:href="#BitstreamVeraSans-Roman-33"/>
      <use x="222.65625" xlink:href="#BitstreamVeraSans-Roman-36"/>
      <use x="286.279296875" xlink:href="#BitstreamVeraSans-Roman-33"/>
      <use x="349.90234375" xlink:href="#BitstreamVeraSans-Roman-39"/>
      <use x="413.525390625" xlink:href="#BitstreamVeraSans-Roman-65"/>
      <use x="475.048828125" xlink:href="#BitstreamVeraSans-Roman-2d"/>
      <use x="511.1328125" xlink:href="#BitstreamVeraSans-Roman-30"/>
      <use x="574.755859375" xlink:href="#BitstreamVeraSans-Roman-36"/>
     </g>
    </g>
   </g>
   <g id="text_21">
    <g clip-path="url(#pb6e84046a8)">
     <!-- 7.30857e-05 -->
     <defs>
      <path d="M 8.203125 72.90625 
L 55.078125 72.90625 
L 55.078125 68.703125 
L 28.609375 0 
L 18.3125 0 
L 43.21875 64.59375 
L 8.203125 64.59375 
z
" id="BitstreamVeraSans-Roman-37"/>
     </defs>
     <g style="fill:#0000ff;" transform="translate(310.68511147 214.087468199)rotate(-20.284038624401383)scale(0.08 -0.08)">
      <use xlink:href="#BitstreamVeraSans-Roman-37"/>
      <use x="63.623046875" xlink:href="#BitstreamVeraSans-Roman-2e"/>
      <use x="95.41015625" xlink:href="#BitstreamVeraSans-Roman-33"/>
      <use x="159.033203125" xlink:href="#BitstreamVeraSans-Roman-30"/>
      <use x="222.65625" xlink:href="#BitstreamVeraSans-Roman-38"/>
      <use x="286.279296875" xlink:href="#BitstreamVeraSans-Roman-35"/>
      <use x="349.90234375" xlink:href="#BitstreamVeraSans-Roman-37"/>
      <use x="413.525390625" xlink:href="#BitstreamVeraSans-Roman-65"/>
      <use x="475.048828125" xlink:href="#BitstreamVeraSans-Roman-2d"/>
      <use x="511.1328125" xlink:href="#BitstreamVeraSans-Roman-30"/>
      <use x="574.755859375" xlink:href="#BitstreamVeraSans-Roman-35"/>
     </g>
    </g>
   </g>
   <g id="text_22">
    <g clip-path="url(#pb6e84046a8)">
     <!-- 7.30857e-05 -->
     <g style="fill:#0000ff;" transform="translate(368.253975131 36.7478845117)rotate(-288.92331564772473)scale(0.08 -0.08)">
      <use xlink:href="#BitstreamVeraSans-Roman-37"/>
      <use x="63.623046875" xlink:href="#BitstreamVeraSans-Roman-2e"/>
      <use x="95.41015625" xlink:href="#BitstreamVeraSans-Roman-33"/>
      <use x="159.033203125" xlink:href="#BitstreamVeraSans-Roman-30"/>
      <use x="222.65625" xlink:href="#BitstreamVeraSans-Roman-38"/>
      <use x="286.279296875" xlink:href="#BitstreamVeraSans-Roman-35"/>
      <use x="349.90234375" xlink:href="#BitstreamVeraSans-Roman-37"/>
      <use x="413.525390625" xlink:href="#BitstreamVeraSans-Roman-65"/>
      <use x="475.048828125" xlink:href="#BitstreamVeraSans-Roman-2d"/>
      <use x="511.1328125" xlink:href="#BitstreamVeraSans-Roman-30"/>
      <use x="574.755859375" xlink:href="#BitstreamVeraSans-Roman-35"/>
     </g>
    </g>
   </g>
   <g id="text_23">
    <g clip-path="url(#pb6e84046a8)">
     <!-- 7.30857e-05 -->
     <g style="fill:#0000ff;" transform="translate(96.1068338937 83.1773514023)rotate(-55.044061645022964)scale(0.08 -0.08)">
      <use xlink:href="#BitstreamVeraSans-Roman-37"/>
      <use x="63.623046875" xlink:href="#BitstreamVeraSans-Roman-2e"/>
      <use x="95.41015625" xlink:href="#BitstreamVeraSans-Roman-33"/>
      <use x="159.033203125" xlink:href="#BitstreamVeraSans-Roman-30"/>
      <use x="222.65625" xlink:href="#BitstreamVeraSans-Roman-38"/>
      <use x="286.279296875" xlink:href="#BitstreamVeraSans-Roman-35"/>
      <use x="349.90234375" xlink:href="#BitstreamVeraSans-Roman-37"/>
      <use x="413.525390625" xlink:href="#BitstreamVeraSans-Roman-65"/>
      <use x="475.048828125" xlink:href="#BitstreamVeraSans-Roman-2d"/>
      <use x="511.1328125" xlink:href="#BitstreamVeraSans-Roman-30"/>
      <use x="574.755859375" xlink:href="#BitstreamVeraSans-Roman-35"/>
     </g>
    </g>
   </g>
   <g id="text_24">
    <g clip-path="url(#pb6e84046a8)">
     <!-- 0.000301245 -->
     <g style="fill:#0000ff;" transform="translate(117.432143432 80.6303481377)rotate(-51.11803496571693)scale(0.08 -0.08)">
      <use xlink:href="#BitstreamVeraSans-Roman-30"/>
      <use x="63.623046875" xlink:href="#BitstreamVeraSans-Roman-2e"/>
      <use x="95.41015625" xlink:href="#BitstreamVeraSans-Roman-30"/>
      <use x="159.033203125" xlink:href="#BitstreamVeraSans-Roman-30"/>
      <use x="222.65625" xlink:href="#BitstreamVeraSans-Roman-30"/>
      <use x="286.279296875" xlink:href="#BitstreamVeraSans-Roman-33"/>
      <use x="349.90234375" xlink:href="#BitstreamVeraSans-Roman-30"/>
      <use x="413.525390625" xlink:href="#BitstreamVeraSans-Roman-31"/>
      <use x="477.1484375" xlink:href="#BitstreamVeraSans-Roman-32"/>
      <use x="540.771484375" xlink:href="#BitstreamVeraSans-Roman-34"/>
      <use x="604.39453125" xlink:href="#BitstreamVeraSans-Roman-35"/>
     </g>
    </g>
   </g>
   <g id="text_25">
    <g clip-path="url(#pb6e84046a8)">
     <!-- 0.000979433 -->
     <g style="fill:#0000ff;" transform="translate(94.1820908291 137.145561795)rotate(-53.94378247063182)scale(0.08 -0.08)">
      <use xlink:href="#BitstreamVeraSans-Roman-30"/>
      <use x="63.623046875" xlink:href="#BitstreamVeraSans-Roman-2e"/>
      <use x="95.41015625" xlink:href="#BitstreamVeraSans-Roman-30"/>
      <use x="159.033203125" xlink:href="#BitstreamVeraSans-Roman-30"/>
      <use x="222.65625" xlink:href="#BitstreamVeraSans-Roman-30"/>
      <use x="286.279296875" xlink:href="#BitstreamVeraSans-Roman-39"/>
      <use x="349.90234375" xlink:href="#BitstreamVeraSans-Roman-37"/>
      <use x="413.525390625" xlink:href="#BitstreamVeraSans-Roman-39"/>
      <use x="477.1484375" xlink:href="#BitstreamVeraSans-Roman-34"/>
      <use x="540.771484375" xlink:href="#BitstreamVeraSans-Roman-33"/>
      <use x="604.39453125" xlink:href="#BitstreamVeraSans-Roman-33"/>
     </g>
    </g>
   </g>
   <g id="text_26">
    <g clip-path="url(#pb6e84046a8)">
     <!-- 0.00261861 -->
     <g style="fill:#0000ff;" transform="translate(290.582233318 40.6137551456)rotate(-313.2830717507627)scale(0.08 -0.08)">
      <use xlink:href="#BitstreamVeraSans-Roman-30"/>
      <use x="63.623046875" xlink:href="#BitstreamVeraSans-Roman-2e"/>
      <use x="95.41015625" xlink:href="#BitstreamVeraSans-Roman-30"/>
      <use x="159.033203125" xlink:href="#BitstreamVeraSans-Roman-30"/>
      <use x="222.65625" xlink:href="#BitstreamVeraSans-Roman-32"/>
      <use x="286.279296875" xlink:href="#BitstreamVeraSans-Roman-36"/>
      <use x="349.90234375" xlink:href="#BitstreamVeraSans-Roman-31"/>
      <use x="413.525390625" xlink:href="#BitstreamVeraSans-Roman-38"/>
      <use x="477.1484375" xlink:href="#BitstreamVeraSans-Roman-36"/>
      <use x="540.771484375" xlink:href="#BitstreamVeraSans-Roman-31"/>
     </g>
    </g>
   </g>
   <g id="text_27">
    <g clip-path="url(#pb6e84046a8)">
     <!-- 0.00586952 -->
     <g style="fill:#0000ff;" transform="translate(177.92798574 77.7623788865)rotate(-29.597357976457914)scale(0.08 -0.08)">
      <use xlink:href="#BitstreamVeraSans-Roman-30"/>
      <use x="63.623046875" xlink:href="#BitstreamVeraSans-Roman-2e"/>
      <use x="95.41015625" xlink:href="#BitstreamVeraSans-Roman-30"/>
      <use x="159.033203125" xlink:href="#BitstreamVeraSans-Roman-30"/>
      <use x="222.65625" xlink:href="#BitstreamVeraSans-Roman-35"/>
      <use x="286.279296875" xlink:href="#BitstreamVeraSans-Roman-38"/>
      <use x="349.90234375" xlink:href="#BitstreamVeraSans-Roman-36"/>
      <use x="413.525390625" xlink:href="#BitstreamVeraSans-Roman-39"/>
      <use x="477.1484375" xlink:href="#BitstreamVeraSans-Roman-35"/>
      <use x="540.771484375" xlink:href="#BitstreamVeraSans-Roman-32"/>
     </g>
    </g>
   </g>
   <g id="text_28">
    <g clip-path="url(#pb6e84046a8)">
     <!-- 0.0137594 -->
     <g style="fill:#0000ff;" transform="translate(298.902178725 100.571152787)rotate(-293.78426024772307)scale(0.08 -0.08)">
      <use xlink:href="#BitstreamVeraSans-Roman-30"/>
      <use x="63.623046875" xlink:href="#BitstreamVeraSans-Roman-2e"/>
      <use x="95.41015625" xlink:href="#BitstreamVeraSans-Roman-30"/>
      <use x="159.033203125" xlink:href="#BitstreamVeraSans-Roman-31"/>
      <use x="222.65625" xlink:href="#BitstreamVeraSans-Roman-33"/>
      <use x="286.279296875" xlink:href="#BitstreamVeraSans-Roman-37"/>
      <use x="349.90234375" xlink:href="#BitstreamVeraSans-Roman-35"/>
      <use x="413.525390625" xlink:href="#BitstreamVeraSans-Roman-39"/>
      <use x="477.1484375" xlink:href="#BitstreamVeraSans-Roman-34"/>
     </g>
    </g>
   </g>
   <g id="text_29">
    <g clip-path="url(#pb6e84046a8)">
     <!-- 0.0339807 -->
     <g style="fill:#0000ff;" transform="translate(163.040004505 195.866534726)rotate(-355.01580103638753)scale(0.08 -0.08)">
      <use xlink:href="#BitstreamVeraSans-Roman-30"/>
      <use x="63.623046875" xlink:href="#BitstreamVeraSans-Roman-2e"/>
      <use x="95.41015625" xlink:href="#BitstreamVeraSans-Roman-30"/>
      <use x="159.033203125" xlink:href="#BitstreamVeraSans-Roman-33"/>
      <use x="222.65625" xlink:href="#BitstreamVeraSans-Roman-33"/>
      <use x="286.279296875" xlink:href="#BitstreamVeraSans-Roman-39"/>
      <use x="349.90234375" xlink:href="#BitstreamVeraSans-Roman-38"/>
      <use x="413.525390625" xlink:href="#BitstreamVeraSans-Roman-30"/>
      <use x="477.1484375" xlink:href="#BitstreamVeraSans-Roman-37"/>
     </g>
    </g>
   </g>
   <g id="text_30">
    <g clip-path="url(#pb6e84046a8)">
     <!-- 0.0901377 -->
     <g style="fill:#0000ff;" transform="translate(220.520963406 188.287735492)rotate(-22.229387671685572)scale(0.08 -0.08)">
      <use xlink:href="#BitstreamVeraSans-Roman-30"/>
      <use x="63.623046875" xlink:href="#BitstreamVeraSans-Roman-2e"/>
      <use x="95.41015625" xlink:href="#BitstreamVeraSans-Roman-30"/>
      <use x="159.033203125" xlink:href="#BitstreamVeraSans-Roman-39"/>
      <use x="222.65625" xlink:href="#BitstreamVeraSans-Roman-30"/>
      <use x="286.279296875" xlink:href="#BitstreamVeraSans-Roman-31"/>
      <use x="349.90234375" xlink:href="#BitstreamVeraSans-Roman-33"/>
      <use x="413.525390625" xlink:href="#BitstreamVeraSans-Roman-37"/>
      <use x="477.1484375" xlink:href="#BitstreamVeraSans-Roman-37"/>
     </g>
    </g>
   </g>
   <g id="text_31">
    <!-- [X0,X1] iso-PDF -->
    <defs>
     <path d="M 19.671875 64.796875 
L 19.671875 8.109375 
L 31.59375 8.109375 
Q 46.6875 8.109375 53.6875 14.9375 
Q 60.6875 21.78125 60.6875 36.53125 
Q 60.6875 51.171875 53.6875 57.984375 
Q 46.6875 64.796875 31.59375 64.796875 
z
M 9.8125 72.90625 
L 30.078125 72.90625 
Q 51.265625 72.90625 61.171875 64.09375 
Q 71.09375 55.28125 71.09375 36.53125 
Q 71.09375 17.671875 61.125 8.828125 
Q 51.171875 0 30.078125 0 
L 9.8125 0 
z
" id="BitstreamVeraSans-Roman-44"/>
     <path d="M 30.609375 48.390625 
Q 23.390625 48.390625 19.1875 42.75 
Q 14.984375 37.109375 14.984375 27.296875 
Q 14.984375 17.484375 19.15625 11.84375 
Q 23.34375 6.203125 30.609375 6.203125 
Q 37.796875 6.203125 41.984375 11.859375 
Q 46.1875 17.53125 46.1875 27.296875 
Q 46.1875 37.015625 41.984375 42.703125 
Q 37.796875 48.390625 30.609375 48.390625 
M 30.609375 56 
Q 42.328125 56 49.015625 48.375 
Q 55.71875 40.765625 55.71875 27.296875 
Q 55.71875 13.875 49.015625 6.21875 
Q 42.328125 -1.421875 30.609375 -1.421875 
Q 18.84375 -1.421875 12.171875 6.21875 
Q 5.515625 13.875 5.515625 27.296875 
Q 5.515625 40.765625 12.171875 48.375 
Q 18.84375 56 30.609375 56 
" id="BitstreamVeraSans-Roman-6f"/>
     <path d="M 44.28125 53.078125 
L 44.28125 44.578125 
Q 40.484375 46.53125 36.375 47.5 
Q 32.28125 48.484375 27.875 48.484375 
Q 21.1875 48.484375 17.84375 46.4375 
Q 14.5 44.390625 14.5 40.28125 
Q 14.5 37.15625 16.890625 35.375 
Q 19.28125 33.59375 26.515625 31.984375 
L 29.59375 31.296875 
Q 39.15625 29.25 43.1875 25.515625 
Q 47.21875 21.78125 47.21875 15.09375 
Q 47.21875 7.46875 41.1875 3.015625 
Q 35.15625 -1.421875 24.609375 -1.421875 
Q 20.21875 -1.421875 15.453125 -0.5625 
Q 10.6875 0.296875 5.421875 2 
L 5.421875 11.28125 
Q 10.40625 8.6875 15.234375 7.390625 
Q 20.0625 6.109375 24.8125 6.109375 
Q 31.15625 6.109375 34.5625 8.28125 
Q 37.984375 10.453125 37.984375 14.40625 
Q 37.984375 18.0625 35.515625 20.015625 
Q 33.0625 21.96875 24.703125 23.78125 
L 21.578125 24.515625 
Q 13.234375 26.265625 9.515625 29.90625 
Q 5.8125 33.546875 5.8125 39.890625 
Q 5.8125 47.609375 11.28125 51.796875 
Q 16.75 56 26.8125 56 
Q 31.78125 56 36.171875 55.265625 
Q 40.578125 54.546875 44.28125 53.078125 
" id="BitstreamVeraSans-Roman-73"/>
     <path d="M 9.421875 54.6875 
L 18.40625 54.6875 
L 18.40625 0 
L 9.421875 0 
z
M 9.421875 75.984375 
L 18.40625 75.984375 
L 18.40625 64.59375 
L 9.421875 64.59375 
z
" id="BitstreamVeraSans-Roman-69"/>
     <path id="BitstreamVeraSans-Roman-20"/>
     <path d="M 19.671875 64.796875 
L 19.671875 37.40625 
L 32.078125 37.40625 
Q 38.96875 37.40625 42.71875 40.96875 
Q 46.484375 44.53125 46.484375 51.125 
Q 46.484375 57.671875 42.71875 61.234375 
Q 38.96875 64.796875 32.078125 64.796875 
z
M 9.8125 72.90625 
L 32.078125 72.90625 
Q 44.34375 72.90625 50.609375 67.359375 
Q 56.890625 61.8125 56.890625 51.125 
Q 56.890625 40.328125 50.609375 34.8125 
Q 44.34375 29.296875 32.078125 29.296875 
L 19.671875 29.296875 
L 19.671875 0 
L 9.8125 0 
z
" id="BitstreamVeraSans-Roman-50"/>
     <path d="M 8.59375 75.984375 
L 29.296875 75.984375 
L 29.296875 69 
L 17.578125 69 
L 17.578125 -6.203125 
L 29.296875 -6.203125 
L 29.296875 -13.1875 
L 8.59375 -13.1875 
z
" id="BitstreamVeraSans-Roman-5b"/>
     <path d="M 11.71875 12.40625 
L 22.015625 12.40625 
L 22.015625 4 
L 14.015625 -11.625 
L 7.71875 -11.625 
L 11.71875 4 
z
" id="BitstreamVeraSans-Roman-2c"/>
     <path d="M 30.421875 75.984375 
L 30.421875 -13.1875 
L 9.71875 -13.1875 
L 9.71875 -6.203125 
L 21.390625 -6.203125 
L 21.390625 69 
L 9.71875 69 
L 9.71875 75.984375 
z
" id="BitstreamVeraSans-Roman-5d"/>
     <path d="M 9.8125 72.90625 
L 51.703125 72.90625 
L 51.703125 64.59375 
L 19.671875 64.59375 
L 19.671875 43.109375 
L 48.578125 43.109375 
L 48.578125 34.8125 
L 19.671875 34.8125 
L 19.671875 0 
L 9.8125 0 
z
" id="BitstreamVeraSans-Roman-46"/>
    </defs>
    <g transform="translate(174.73125 23.8)scale(0.12 -0.12)">
     <use xlink:href="#BitstreamVeraSans-Roman-5b"/>
     <use x="39.013671875" xlink:href="#BitstreamVeraSans-Roman-58"/>
     <use x="107.51953125" xlink:href="#BitstreamVeraSans-Roman-30"/>
     <use x="171.142578125" xlink:href="#BitstreamVeraSans-Roman-2c"/>
     <use x="202.9296875" xlink:href="#BitstreamVeraSans-Roman-58"/>
     <use x="271.435546875" xlink:href="#BitstreamVeraSans-Roman-31"/>
     <use x="335.05859375" xlink:href="#BitstreamVeraSans-Roman-5d"/>
     <use x="374.072265625" xlink:href="#BitstreamVeraSans-Roman-20"/>
     <use x="405.859375" xlink:href="#BitstreamVeraSans-Roman-69"/>
     <use x="433.642578125" xlink:href="#BitstreamVeraSans-Roman-73"/>
     <use x="485.7421875" xlink:href="#BitstreamVeraSans-Roman-6f"/>
     <use x="546.939453125" xlink:href="#BitstreamVeraSans-Roman-2d"/>
     <use x="583.0234375" xlink:href="#BitstreamVeraSans-Roman-50"/>
     <use x="643.326171875" xlink:href="#BitstreamVeraSans-Roman-44"/>
     <use x="720.328125" xlink:href="#BitstreamVeraSans-Roman-46"/>
    </g>
   </g>
   <g id="legend_1">
    <g id="patch_7">
     <path d="M 284.996875 185.58125 
L 383.8 185.58125 
Q 385.8 185.58125 385.8 183.58125 
L 385.8 37.8 
Q 385.8 35.8 383.8 35.8 
L 284.996875 35.8 
Q 282.996875 35.8 282.996875 37.8 
L 282.996875 183.58125 
Q 282.996875 185.58125 284.996875 185.58125 
z
" style="fill:#4c4c4c;opacity:0.5;stroke:#4c4c4c;stroke-linejoin:miter;"/>
    </g>
    <g id="patch_8">
     <path d="M 282.996875 183.58125 
L 381.8 183.58125 
Q 383.8 183.58125 383.8 181.58125 
L 383.8 35.8 
Q 383.8 33.8 381.8 33.8 
L 282.996875 33.8 
Q 280.996875 33.8 280.996875 35.8 
L 280.996875 181.58125 
Q 280.996875 183.58125 282.996875 183.58125 
z
" style="fill:#ffffff;stroke:#000000;stroke-linejoin:miter;"/>
    </g>
    <g id="line2d_49">
     <path d="M 287.996875 41.898438 
L 294.996875 41.898438 
L 301.996875 41.898438 
" style="fill:none;stroke:#0000ff;stroke-linecap:square;"/>
    </g>
    <g id="text_32">
     <!-- 6.8941e-11 -->
     <g transform="translate(312.996875 45.3984375)scale(0.1 -0.1)">
      <use xlink:href="#BitstreamVeraSans-Roman-36"/>
      <use x="63.623046875" xlink:href="#BitstreamVeraSans-Roman-2e"/>
      <use x="95.41015625" xlink:href="#BitstreamVeraSans-Roman-38"/>
      <use x="159.033203125" xlink:href="#BitstreamVeraSans-Roman-39"/>
      <use x="222.65625" xlink:href="#BitstreamVeraSans-Roman-34"/>
      <use x="286.279296875" xlink:href="#BitstreamVeraSans-Roman-31"/>
      <use x="349.90234375" xlink:href="#BitstreamVeraSans-Roman-65"/>
      <use x="411.42578125" xlink:href="#BitstreamVeraSans-Roman-2d"/>
      <use x="447.509765625" xlink:href="#BitstreamVeraSans-Roman-31"/>
      <use x="511.1328125" xlink:href="#BitstreamVeraSans-Roman-31"/>
     </g>
    </g>
    <g id="line2d_50">
     <path d="M 287.996875 56.576563 
L 294.996875 56.576563 
L 301.996875 56.576563 
" style="fill:none;stroke:#0000ff;stroke-linecap:square;"/>
    </g>
    <g id="text_33">
     <!-- 3.63639e-06 -->
     <g transform="translate(312.996875 60.0765625)scale(0.1 -0.1)">
      <use xlink:href="#BitstreamVeraSans-Roman-33"/>
      <use x="63.623046875" xlink:href="#BitstreamVeraSans-Roman-2e"/>
      <use x="95.41015625" xlink:href="#BitstreamVeraSans-Roman-36"/>
      <use x="159.033203125" xlink:href="#BitstreamVeraSans-Roman-33"/>
      <use x="222.65625" xlink:href="#BitstreamVeraSans-Roman-36"/>
      <use x="286.279296875" xlink:href="#BitstreamVeraSans-Roman-33"/>
      <use x="349.90234375" xlink:href="#BitstreamVeraSans-Roman-39"/>
      <use x="413.525390625" xlink:href="#BitstreamVeraSans-Roman-65"/>
      <use x="475.048828125" xlink:href="#BitstreamVeraSans-Roman-2d"/>
      <use x="511.1328125" xlink:href="#BitstreamVeraSans-Roman-30"/>
      <use x="574.755859375" xlink:href="#BitstreamVeraSans-Roman-36"/>
     </g>
    </g>
    <g id="line2d_51">
     <path d="M 287.996875 71.254688 
L 294.996875 71.254688 
L 301.996875 71.254688 
" style="fill:none;stroke:#0000ff;stroke-linecap:square;"/>
    </g>
    <g id="text_34">
     <!-- 7.30857e-05 -->
     <g transform="translate(312.996875 74.7546875)scale(0.1 -0.1)">
      <use xlink:href="#BitstreamVeraSans-Roman-37"/>
      <use x="63.623046875" xlink:href="#BitstreamVeraSans-Roman-2e"/>
      <use x="95.41015625" xlink:href="#BitstreamVeraSans-Roman-33"/>
      <use x="159.033203125" xlink:href="#BitstreamVeraSans-Roman-30"/>
      <use x="222.65625" xlink:href="#BitstreamVeraSans-Roman-38"/>
      <use x="286.279296875" xlink:href="#BitstreamVeraSans-Roman-35"/>
      <use x="349.90234375" xlink:href="#BitstreamVeraSans-Roman-37"/>
      <use x="413.525390625" xlink:href="#BitstreamVeraSans-Roman-65"/>
      <use x="475.048828125" xlink:href="#BitstreamVeraSans-Roman-2d"/>
      <use x="511.1328125" xlink:href="#BitstreamVeraSans-Roman-30"/>
      <use x="574.755859375" xlink:href="#BitstreamVeraSans-Roman-35"/>
     </g>
    </g>
    <g id="line2d_52">
     <path d="M 287.996875 85.932813 
L 294.996875 85.932813 
L 301.996875 85.932813 
" style="fill:none;stroke:#0000ff;stroke-linecap:square;"/>
    </g>
    <g id="text_35">
     <!-- 0.000301245 -->
     <g transform="translate(312.996875 89.4328125)scale(0.1 -0.1)">
      <use xlink:href="#BitstreamVeraSans-Roman-30"/>
      <use x="63.623046875" xlink:href="#BitstreamVeraSans-Roman-2e"/>
      <use x="95.41015625" xlink:href="#BitstreamVeraSans-Roman-30"/>
      <use x="159.033203125" xlink:href="#BitstreamVeraSans-Roman-30"/>
      <use x="222.65625" xlink:href="#BitstreamVeraSans-Roman-30"/>
      <use x="286.279296875" xlink:href="#BitstreamVeraSans-Roman-33"/>
      <use x="349.90234375" xlink:href="#BitstreamVeraSans-Roman-30"/>
      <use x="413.525390625" xlink:href="#BitstreamVeraSans-Roman-31"/>
      <use x="477.1484375" xlink:href="#BitstreamVeraSans-Roman-32"/>
      <use x="540.771484375" xlink:href="#BitstreamVeraSans-Roman-34"/>
      <use x="604.39453125" xlink:href="#BitstreamVeraSans-Roman-35"/>
     </g>
    </g>
    <g id="line2d_53">
     <path d="M 287.996875 100.610938 
L 294.996875 100.610938 
L 301.996875 100.610938 
" style="fill:none;stroke:#0000ff;stroke-linecap:square;"/>
    </g>
    <g id="text_36">
     <!-- 0.000979433 -->
     <g transform="translate(312.996875 104.1109375)scale(0.1 -0.1)">
      <use xlink:href="#BitstreamVeraSans-Roman-30"/>
      <use x="63.623046875" xlink:href="#BitstreamVeraSans-Roman-2e"/>
      <use x="95.41015625" xlink:href="#BitstreamVeraSans-Roman-30"/>
      <use x="159.033203125" xlink:href="#BitstreamVeraSans-Roman-30"/>
      <use x="222.65625" xlink:href="#BitstreamVeraSans-Roman-30"/>
      <use x="286.279296875" xlink:href="#BitstreamVeraSans-Roman-39"/>
      <use x="349.90234375" xlink:href="#BitstreamVeraSans-Roman-37"/>
      <use x="413.525390625" xlink:href="#BitstreamVeraSans-Roman-39"/>
      <use x="477.1484375" xlink:href="#BitstreamVeraSans-Roman-34"/>
      <use x="540.771484375" xlink:href="#BitstreamVeraSans-Roman-33"/>
      <use x="604.39453125" xlink:href="#BitstreamVeraSans-Roman-33"/>
     </g>
    </g>
    <g id="line2d_54">
     <path d="M 287.996875 115.289062 
L 294.996875 115.289062 
L 301.996875 115.289062 
" style="fill:none;stroke:#0000ff;stroke-linecap:square;"/>
    </g>
    <g id="text_37">
     <!-- 0.00261861 -->
     <g transform="translate(312.996875 118.7890625)scale(0.1 -0.1)">
      <use xlink:href="#BitstreamVeraSans-Roman-30"/>
      <use x="63.623046875" xlink:href="#BitstreamVeraSans-Roman-2e"/>
      <use x="95.41015625" xlink:href="#BitstreamVeraSans-Roman-30"/>
      <use x="159.033203125" xlink:href="#BitstreamVeraSans-Roman-30"/>
      <use x="222.65625" xlink:href="#BitstreamVeraSans-Roman-32"/>
      <use x="286.279296875" xlink:href="#BitstreamVeraSans-Roman-36"/>
      <use x="349.90234375" xlink:href="#BitstreamVeraSans-Roman-31"/>
      <use x="413.525390625" xlink:href="#BitstreamVeraSans-Roman-38"/>
      <use x="477.1484375" xlink:href="#BitstreamVeraSans-Roman-36"/>
      <use x="540.771484375" xlink:href="#BitstreamVeraSans-Roman-31"/>
     </g>
    </g>
    <g id="line2d_55">
     <path d="M 287.996875 129.967188 
L 294.996875 129.967188 
L 301.996875 129.967188 
" style="fill:none;stroke:#0000ff;stroke-linecap:square;"/>
    </g>
    <g id="text_38">
     <!-- 0.00586952 -->
     <g transform="translate(312.996875 133.4671875)scale(0.1 -0.1)">
      <use xlink:href="#BitstreamVeraSans-Roman-30"/>
      <use x="63.623046875" xlink:href="#BitstreamVeraSans-Roman-2e"/>
      <use x="95.41015625" xlink:href="#BitstreamVeraSans-Roman-30"/>
      <use x="159.033203125" xlink:href="#BitstreamVeraSans-Roman-30"/>
      <use x="222.65625" xlink:href="#BitstreamVeraSans-Roman-35"/>
      <use x="286.279296875" xlink:href="#BitstreamVeraSans-Roman-38"/>
      <use x="349.90234375" xlink:href="#BitstreamVeraSans-Roman-36"/>
      <use x="413.525390625" xlink:href="#BitstreamVeraSans-Roman-39"/>
      <use x="477.1484375" xlink:href="#BitstreamVeraSans-Roman-35"/>
      <use x="540.771484375" xlink:href="#BitstreamVeraSans-Roman-32"/>
     </g>
    </g>
    <g id="line2d_56">
     <path d="M 287.996875 144.645312 
L 294.996875 144.645312 
L 301.996875 144.645312 
" style="fill:none;stroke:#0000ff;stroke-linecap:square;"/>
    </g>
    <g id="text_39">
     <!-- 0.0137594 -->
     <g transform="translate(312.996875 148.1453125)scale(0.1 -0.1)">
      <use xlink:href="#BitstreamVeraSans-Roman-30"/>
      <use x="63.623046875" xlink:href="#BitstreamVeraSans-Roman-2e"/>
      <use x="95.41015625" xlink:href="#BitstreamVeraSans-Roman-30"/>
      <use x="159.033203125" xlink:href="#BitstreamVeraSans-Roman-31"/>
      <use x="222.65625" xlink:href="#BitstreamVeraSans-Roman-33"/>
      <use x="286.279296875" xlink:href="#BitstreamVeraSans-Roman-37"/>
      <use x="349.90234375" xlink:href="#BitstreamVeraSans-Roman-35"/>
      <use x="413.525390625" xlink:href="#BitstreamVeraSans-Roman-39"/>
      <use x="477.1484375" xlink:href="#BitstreamVeraSans-Roman-34"/>
     </g>
    </g>
    <g id="line2d_57">
     <path d="M 287.996875 159.323438 
L 294.996875 159.323438 
L 301.996875 159.323438 
" style="fill:none;stroke:#0000ff;stroke-linecap:square;"/>
    </g>
    <g id="text_40">
     <!-- 0.0339807 -->
     <g transform="translate(312.996875 162.8234375)scale(0.1 -0.1)">
      <use xlink:href="#BitstreamVeraSans-Roman-30"/>
      <use x="63.623046875" xlink:href="#BitstreamVeraSans-Roman-2e"/>
      <use x="95.41015625" xlink:href="#BitstreamVeraSans-Roman-30"/>
      <use x="159.033203125" xlink:href="#BitstreamVeraSans-Roman-33"/>
      <use x="222.65625" xlink:href="#BitstreamVeraSans-Roman-33"/>
      <use x="286.279296875" xlink:href="#BitstreamVeraSans-Roman-39"/>
      <use x="349.90234375" xlink:href="#BitstreamVeraSans-Roman-38"/>
      <use x="413.525390625" xlink:href="#BitstreamVeraSans-Roman-30"/>
      <use x="477.1484375" xlink:href="#BitstreamVeraSans-Roman-37"/>
     </g>
    </g>
    <g id="line2d_58">
     <path d="M 287.996875 174.001562 
L 294.996875 174.001562 
L 301.996875 174.001562 
" style="fill:none;stroke:#0000ff;stroke-linecap:square;"/>
    </g>
    <g id="text_41">
     <!-- 0.0901377 -->
     <g transform="translate(312.996875 177.5015625)scale(0.1 -0.1)">
      <use xlink:href="#BitstreamVeraSans-Roman-30"/>
      <use x="63.623046875" xlink:href="#BitstreamVeraSans-Roman-2e"/>
      <use x="95.41015625" xlink:href="#BitstreamVeraSans-Roman-30"/>
      <use x="159.033203125" xlink:href="#BitstreamVeraSans-Roman-39"/>
      <use x="222.65625" xlink:href="#BitstreamVeraSans-Roman-30"/>
      <use x="286.279296875" xlink:href="#BitstreamVeraSans-Roman-31"/>
      <use x="349.90234375" xlink:href="#BitstreamVeraSans-Roman-33"/>
      <use x="413.525390625" xlink:href="#BitstreamVeraSans-Roman-37"/>
      <use x="477.1484375" xlink:href="#BitstreamVeraSans-Roman-37"/>
     </g>
    </g>
   </g>
  </g>
 </g>
 <defs>
  <clipPath id="pb6e84046a8">
   <rect height="223.2" width="334.8" x="54.0" y="28.8"/>
  </clipPath>
 </defs>
</svg>
