<?xml version="1.0" encoding="utf-8" standalone="no"?>
<!DOCTYPE svg PUBLIC "-//W3C//DTD SVG 1.1//EN"
  "http://www.w3.org/Graphics/SVG/1.1/DTD/svg11.dtd">
<!-- Created with matplotlib (http://matplotlib.org/) -->
<svg height="288pt" version="1.1" viewBox="0 0 432 288" width="432pt" xmlns="http://www.w3.org/2000/svg" xmlns:xlink="http://www.w3.org/1999/xlink">
 <defs>
  <style type="text/css">
*{stroke-linecap:butt;stroke-linejoin:round;}
  </style>
 </defs>
 <g id="figure_1">
  <g id="patch_1">
   <path d="M 0 288 
L 432 288 
L 432 0 
L 0 0 
z
" style="fill:#ffffff;"/>
  </g>
  <g id="axes_1">
   <g id="patch_2">
    <path d="M 54 252 
L 388.8 252 
L 388.8 34.56 
L 54 34.56 
z
" style="fill:#ffffff;"/>
   </g>
   <g id="matplotlib.axis_1">
    <g id="xtick_1">
     <g id="line2d_1">
      <path clip-path="url(#pdc1921c29c)" d="M 87.48 252 
L 87.48 34.56 
" style="fill:none;stroke:#b0b0b0;stroke-linecap:square;stroke-width:0.8;"/>
     </g>
     <g id="line2d_2">
      <defs>
       <path d="M 0 0 
L 0 3.5 
" id="m64a1a9e4dc" style="stroke:#000000;stroke-width:0.8;"/>
      </defs>
      <g>
       <use style="stroke:#000000;stroke-width:0.8;" x="87.48" xlink:href="#m64a1a9e4dc" y="252"/>
      </g>
     </g>
     <g id="text_1">
      <!-- −2 -->
      <defs>
       <path d="M 10.59375 35.5 
L 73.1875 35.5 
L 73.1875 27.203125 
L 10.59375 27.203125 
z
" id="DejaVuSans-2212"/>
       <path d="M 19.1875 8.296875 
L 53.609375 8.296875 
L 53.609375 0 
L 7.328125 0 
L 7.328125 8.296875 
Q 12.9375 14.109375 22.625 23.890625 
Q 32.328125 33.6875 34.8125 36.53125 
Q 39.546875 41.84375 41.421875 45.53125 
Q 43.3125 49.21875 43.3125 52.78125 
Q 43.3125 58.59375 39.234375 62.25 
Q 35.15625 65.921875 28.609375 65.921875 
Q 23.96875 65.921875 18.8125 64.3125 
Q 13.671875 62.703125 7.8125 59.421875 
L 7.8125 69.390625 
Q 13.765625 71.78125 18.9375 73 
Q 24.125 74.21875 28.421875 74.21875 
Q 39.75 74.21875 46.484375 68.546875 
Q 53.21875 62.890625 53.21875 53.421875 
Q 53.21875 48.921875 51.53125 44.890625 
Q 49.859375 40.875 45.40625 35.40625 
Q 44.1875 33.984375 37.640625 27.21875 
Q 31.109375 20.453125 19.1875 8.296875 
z
" id="DejaVuSans-32"/>
      </defs>
      <g transform="translate(80.108906 266.598437)scale(0.1 -0.1)">
       <use xlink:href="#DejaVuSans-2212"/>
       <use x="83.789062" xlink:href="#DejaVuSans-32"/>
      </g>
     </g>
    </g>
    <g id="xtick_2">
     <g id="line2d_3">
      <path clip-path="url(#pdc1921c29c)" d="M 154.44 252 
L 154.44 34.56 
" style="fill:none;stroke:#b0b0b0;stroke-linecap:square;stroke-width:0.8;"/>
     </g>
     <g id="line2d_4">
      <g>
       <use style="stroke:#000000;stroke-width:0.8;" x="154.44" xlink:href="#m64a1a9e4dc" y="252"/>
      </g>
     </g>
     <g id="text_2">
      <!-- −1 -->
      <defs>
       <path d="M 12.40625 8.296875 
L 28.515625 8.296875 
L 28.515625 63.921875 
L 10.984375 60.40625 
L 10.984375 69.390625 
L 28.421875 72.90625 
L 38.28125 72.90625 
L 38.28125 8.296875 
L 54.390625 8.296875 
L 54.390625 0 
L 12.40625 0 
z
" id="DejaVuSans-31"/>
      </defs>
      <g transform="translate(147.068906 266.598437)scale(0.1 -0.1)">
       <use xlink:href="#DejaVuSans-2212"/>
       <use x="83.789062" xlink:href="#DejaVuSans-31"/>
      </g>
     </g>
    </g>
    <g id="xtick_3">
     <g id="line2d_5">
      <path clip-path="url(#pdc1921c29c)" d="M 221.4 252 
L 221.4 34.56 
" style="fill:none;stroke:#b0b0b0;stroke-linecap:square;stroke-width:0.8;"/>
     </g>
     <g id="line2d_6">
      <g>
       <use style="stroke:#000000;stroke-width:0.8;" x="221.4" xlink:href="#m64a1a9e4dc" y="252"/>
      </g>
     </g>
     <g id="text_3">
      <!-- 0 -->
      <defs>
       <path d="M 31.78125 66.40625 
Q 24.171875 66.40625 20.328125 58.90625 
Q 16.5 51.421875 16.5 36.375 
Q 16.5 21.390625 20.328125 13.890625 
Q 24.171875 6.390625 31.78125 6.390625 
Q 39.453125 6.390625 43.28125 13.890625 
Q 47.125 21.390625 47.125 36.375 
Q 47.125 51.421875 43.28125 58.90625 
Q 39.453125 66.40625 31.78125 66.40625 
z
M 31.78125 74.21875 
Q 44.046875 74.21875 50.515625 64.515625 
Q 56.984375 54.828125 56.984375 36.375 
Q 56.984375 17.96875 50.515625 8.265625 
Q 44.046875 -1.421875 31.78125 -1.421875 
Q 19.53125 -1.421875 13.0625 8.265625 
Q 6.59375 17.96875 6.59375 36.375 
Q 6.59375 54.828125 13.0625 64.515625 
Q 19.53125 74.21875 31.78125 74.21875 
z
" id="DejaVuSans-30"/>
      </defs>
      <g transform="translate(218.21875 266.598437)scale(0.1 -0.1)">
       <use xlink:href="#DejaVuSans-30"/>
      </g>
     </g>
    </g>
    <g id="xtick_4">
     <g id="line2d_7">
      <path clip-path="url(#pdc1921c29c)" d="M 288.36 252 
L 288.36 34.56 
" style="fill:none;stroke:#b0b0b0;stroke-linecap:square;stroke-width:0.8;"/>
     </g>
     <g id="line2d_8">
      <g>
       <use style="stroke:#000000;stroke-width:0.8;" x="288.36" xlink:href="#m64a1a9e4dc" y="252"/>
      </g>
     </g>
     <g id="text_4">
      <!-- 1 -->
      <g transform="translate(285.17875 266.598437)scale(0.1 -0.1)">
       <use xlink:href="#DejaVuSans-31"/>
      </g>
     </g>
    </g>
    <g id="xtick_5">
     <g id="line2d_9">
      <path clip-path="url(#pdc1921c29c)" d="M 355.32 252 
L 355.32 34.56 
" style="fill:none;stroke:#b0b0b0;stroke-linecap:square;stroke-width:0.8;"/>
     </g>
     <g id="line2d_10">
      <g>
       <use style="stroke:#000000;stroke-width:0.8;" x="355.32" xlink:href="#m64a1a9e4dc" y="252"/>
      </g>
     </g>
     <g id="text_5">
      <!-- 2 -->
      <g transform="translate(352.13875 266.598437)scale(0.1 -0.1)">
       <use xlink:href="#DejaVuSans-32"/>
      </g>
     </g>
    </g>
    <g id="text_6">
     <!-- X0 -->
     <defs>
      <path d="M 6.296875 72.90625 
L 16.890625 72.90625 
L 35.015625 45.796875 
L 53.21875 72.90625 
L 63.8125 72.90625 
L 40.375 37.890625 
L 65.375 0 
L 54.78125 0 
L 34.28125 31 
L 13.625 0 
L 2.984375 0 
L 29 38.921875 
z
" id="DejaVuSans-58"/>
     </defs>
     <g transform="translate(214.79375 280.276563)scale(0.1 -0.1)">
      <use xlink:href="#DejaVuSans-58"/>
      <use x="68.505859" xlink:href="#DejaVuSans-30"/>
     </g>
    </g>
   </g>
   <g id="matplotlib.axis_2">
    <g id="ytick_1">
     <g id="line2d_11">
      <path clip-path="url(#pdc1921c29c)" d="M 54 230.256 
L 388.8 230.256 
" style="fill:none;stroke:#b0b0b0;stroke-linecap:square;stroke-width:0.8;"/>
     </g>
     <g id="line2d_12">
      <defs>
       <path d="M 0 0 
L -3.5 0 
" id="maa8ab090e7" style="stroke:#000000;stroke-width:0.8;"/>
      </defs>
      <g>
       <use style="stroke:#000000;stroke-width:0.8;" x="54" xlink:href="#maa8ab090e7" y="230.256"/>
      </g>
     </g>
     <g id="text_7">
      <!-- −2 -->
      <g transform="translate(32.257812 234.055219)scale(0.1 -0.1)">
       <use xlink:href="#DejaVuSans-2212"/>
       <use x="83.789062" xlink:href="#DejaVuSans-32"/>
      </g>
     </g>
    </g>
    <g id="ytick_2">
     <g id="line2d_13">
      <path clip-path="url(#pdc1921c29c)" d="M 54 186.768 
L 388.8 186.768 
" style="fill:none;stroke:#b0b0b0;stroke-linecap:square;stroke-width:0.8;"/>
     </g>
     <g id="line2d_14">
      <g>
       <use style="stroke:#000000;stroke-width:0.8;" x="54" xlink:href="#maa8ab090e7" y="186.768"/>
      </g>
     </g>
     <g id="text_8">
      <!-- −1 -->
      <g transform="translate(32.257812 190.567219)scale(0.1 -0.1)">
       <use xlink:href="#DejaVuSans-2212"/>
       <use x="83.789062" xlink:href="#DejaVuSans-31"/>
      </g>
     </g>
    </g>
    <g id="ytick_3">
     <g id="line2d_15">
      <path clip-path="url(#pdc1921c29c)" d="M 54 143.28 
L 388.8 143.28 
" style="fill:none;stroke:#b0b0b0;stroke-linecap:square;stroke-width:0.8;"/>
     </g>
     <g id="line2d_16">
      <g>
       <use style="stroke:#000000;stroke-width:0.8;" x="54" xlink:href="#maa8ab090e7" y="143.28"/>
      </g>
     </g>
     <g id="text_9">
      <!-- 0 -->
      <g transform="translate(40.6375 147.079219)scale(0.1 -0.1)">
       <use xlink:href="#DejaVuSans-30"/>
      </g>
     </g>
    </g>
    <g id="ytick_4">
     <g id="line2d_17">
      <path clip-path="url(#pdc1921c29c)" d="M 54 99.792 
L 388.8 99.792 
" style="fill:none;stroke:#b0b0b0;stroke-linecap:square;stroke-width:0.8;"/>
     </g>
     <g id="line2d_18">
      <g>
       <use style="stroke:#000000;stroke-width:0.8;" x="54" xlink:href="#maa8ab090e7" y="99.792"/>
      </g>
     </g>
     <g id="text_10">
      <!-- 1 -->
      <g transform="translate(40.6375 103.591219)scale(0.1 -0.1)">
       <use xlink:href="#DejaVuSans-31"/>
      </g>
     </g>
    </g>
    <g id="ytick_5">
     <g id="line2d_19">
      <path clip-path="url(#pdc1921c29c)" d="M 54 56.304 
L 388.8 56.304 
" style="fill:none;stroke:#b0b0b0;stroke-linecap:square;stroke-width:0.8;"/>
     </g>
     <g id="line2d_20">
      <g>
       <use style="stroke:#000000;stroke-width:0.8;" x="54" xlink:href="#maa8ab090e7" y="56.304"/>
      </g>
     </g>
     <g id="text_11">
      <!-- 2 -->
      <g transform="translate(40.6375 60.103219)scale(0.1 -0.1)">
       <use xlink:href="#DejaVuSans-32"/>
      </g>
     </g>
    </g>
    <g id="text_12">
     <!-- X1 -->
     <g transform="translate(26.178125 149.88625)rotate(-90)scale(0.1 -0.1)">
      <use xlink:href="#DejaVuSans-58"/>
      <use x="68.505859" xlink:href="#DejaVuSans-31"/>
     </g>
    </g>
   </g>
   <g id="LineCollection_1">
    <path clip-path="url(#pdc1921c29c)" d="M 98.162353 230.682353 
L 354.663529 230.682353 
L 355.976471 229.829647 
L 355.976471 56.730353 
L 354.663529 55.877647 
L 88.136471 55.877647 
L 86.823529 56.730353 
L 86.823529 226.621071 
L 86.823529 226.621071 
" style="fill:none;stroke:#0000ff;stroke-width:1.5;"/>
   </g>
   <g id="LineCollection_2">
    <path clip-path="url(#pdc1921c29c)" d="M 216.463555 56.305587 
L 174.790588 56.511905 
L 156.383774 56.730353 
L 145.905882 60.54154 
L 134.089412 65.095401 
L 123.585882 69.454873 
L 114.395294 73.562397 
L 106.517647 77.340235 
L 99.952941 80.710235 
L 93.388235 84.350092 
L 88.136471 87.536597 
L 87.766413 95.954824 
L 87.523239 107.04 
L 87.419262 122.388706 
L 87.512051 141.148235 
L 87.820988 159.907765 
L 88.136471 172.923333 
L 92.406021 176.109176 
L 97.40172 179.52 
L 105.43488 184.636235 
L 114.395294 190.366549 
L 123.585882 196.673411 
L 139.341176 207.819535 
L 144.592941 211.24177 
L 150.009632 214.480941 
L 155.096471 217.220784 
L 160.348235 219.731988 
L 165.6 221.92728 
L 170.851765 223.819551 
L 176.103529 225.434165 
L 181.355294 226.792899 
L 186.607059 227.917253 
L 193.171765 229.031255 
L 199.431441 229.829647 
L 228.621176 229.891194 
L 249.805709 229.829647 
L 256.192941 229.1119 
L 264.070588 227.964623 
L 270.635294 226.782054 
L 278.512941 225.092702 
L 286.880956 223.008 
L 295.581176 220.611738 
L 341.534118 207.323274 
L 346.785882 205.498607 
L 350.724706 203.921051 
L 354.663529 202.067834 
L 354.915732 193.163294 
L 355.030159 181.225412 
L 354.951402 166.729412 
L 354.663529 151.157051 
L 351.928119 145.411765 
L 349.77963 140.295529 
L 348.098824 135.828057 
L 346.188665 130.063059 
L 344.706574 124.946824 
L 343.433734 119.830588 
L 342.386266 114.714353 
L 341.534118 109.292291 
L 341.004354 104.481882 
L 340.561446 98.512941 
L 339.755327 86.575059 
L 339.177503 82.311529 
L 338.467579 78.900706 
L 337.595294 75.958319 
L 336.773488 73.784471 
L 335.543288 71.226353 
L 333.982485 68.668235 
L 332.034323 66.110118 
L 330.491561 64.404706 
L 327.764245 61.846588 
L 325.646246 60.141176 
L 323.152941 58.350009 
L 320.527059 56.728422 
L 292.955294 56.408115 
L 269.663507 56.299405 
L 269.663507 56.299405 
" style="fill:none;stroke:#0000ff;stroke-width:1.5;"/>
   </g>
   <g id="LineCollection_3">
    <path clip-path="url(#pdc1921c29c)" d="M 147.827028 71.865778 
L 139.341176 74.952984 
L 131.463529 78.076035 
L 124.898824 80.89519 
L 118.18532 84.016941 
L 111.769412 87.265552 
L 106.517647 90.172335 
L 102.578824 92.544173 
L 98.64 95.133916 
L 94.701176 98.020764 
L 92.018165 100.218353 
L 89.236676 102.776471 
L 88.136471 103.895371 
L 87.925359 113.861647 
L 87.870732 126.652235 
L 88.029606 141.148235 
L 88.136471 146.132181 
L 89.849265 147.969882 
L 92.492528 150.528 
L 96.014118 153.564315 
L 99.952941 156.622418 
L 105.204706 160.368698 
L 121.703557 171.845647 
L 126.211765 175.375248 
L 130.150588 178.727759 
L 134.700205 182.930824 
L 139.906658 188.047059 
L 147.801932 195.721412 
L 151.657956 199.132235 
L 155.096471 201.906939 
L 158.281454 204.248471 
L 162.163128 206.806588 
L 165.6 208.819255 
L 169.538824 210.858673 
L 173.477647 212.638561 
L 177.416471 214.185326 
L 181.355294 215.521792 
L 185.294118 216.670203 
L 190.545882 217.939474 
L 195.797647 218.949241 
L 201.049412 219.731402 
L 206.301176 220.317276 
L 212.865882 220.812311 
L 219.430588 221.077396 
L 225.995294 221.141197 
L 233.872941 220.97356 
L 240.437647 220.631187 
L 247.002353 220.099028 
L 253.567059 219.361321 
L 260.131765 218.404692 
L 266.696471 217.21542 
L 273.261176 215.791119 
L 279.825882 214.135871 
L 287.531667 211.922824 
L 294.268235 209.787805 
L 303.458824 206.625467 
L 312.649412 203.202659 
L 319.214118 200.541298 
L 324.465882 198.188083 
L 328.404706 196.202264 
L 331.030588 194.717243 
L 333.656471 193.039294 
L 336.282353 191.071227 
L 337.789852 189.752471 
L 339.444694 188.047059 
L 340.799229 186.341647 
L 341.882221 184.636235 
L 342.847059 182.613722 
L 343.345344 181.225412 
L 343.774626 179.52 
L 344.032273 177.814588 
L 344.145042 175.256471 
L 343.986152 172.698353 
L 343.609847 170.140235 
L 342.847059 166.728631 
L 341.622895 162.465882 
L 338.908235 154.366432 
L 334.207569 140.295529 
L 331.346393 130.915765 
L 328.939259 122.388706 
L 326.970984 114.714353 
L 325.239294 107.04 
L 322.092784 92.544 
L 320.868207 88.280471 
L 319.642807 84.869647 
L 318.529527 82.311529 
L 317.209066 79.753412 
L 315.641354 77.195294 
L 313.782265 74.637176 
L 311.582853 72.079059 
L 309.898404 70.373647 
L 306.995053 67.815529 
L 304.771584 66.110118 
L 302.145882 64.317566 
L 299.482528 62.699294 
L 295.581176 60.626467 
L 291.642353 58.82903 
L 287.703529 57.280473 
L 286.146853 56.730353 
L 260.131765 56.584374 
L 222.056471 56.607061 
L 198.217521 56.730353 
L 194.114124 57.757005 
L 194.114124 57.757005 
" style="fill:none;stroke:#0000ff;stroke-width:1.5;"/>
   </g>
   <g id="LineCollection_4">
    <path clip-path="url(#pdc1921c29c)" d="M 309.840292 102.091613 
L 308.252523 97.660235 
L 306.511203 93.396706 
L 304.771765 89.778842 
L 302.941821 86.575059 
L 301.221554 84.016941 
L 299.208496 81.458824 
L 296.831389 78.900706 
L 294.268235 76.571747 
L 291.642353 74.536631 
L 289.016471 72.783608 
L 286.330815 71.226353 
L 282.89094 69.520941 
L 279.825882 68.225921 
L 275.887059 66.827789 
L 271.948235 65.686276 
L 268.009412 64.765679 
L 264.070588 64.040167 
L 258.818824 63.340504 
L 253.567059 62.911645 
L 248.315294 62.721846 
L 243.063529 62.747539 
L 237.811765 62.968837 
L 231.247059 63.494404 
L 224.682353 64.273838 
L 218.117647 65.278641 
L 210.24 66.735864 
L 201.049412 68.683482 
L 185.294118 72.303201 
L 169.538824 76.101536 
L 160.348235 78.530995 
L 152.470588 80.850382 
L 145.454281 83.164235 
L 139.341176 85.404891 
L 134.089412 87.524283 
L 128.536751 89.985882 
L 123.310198 92.544 
L 118.334118 95.248166 
L 114.343172 97.660235 
L 110.456471 100.292233 
L 107.222282 102.776471 
L 104.32446 105.334588 
L 101.852955 107.892706 
L 99.794691 110.450824 
L 98.135655 113.008941 
L 96.862924 115.567059 
L 96.014118 117.962454 
L 95.746482 118.977882 
L 95.430352 120.683294 
L 95.272867 122.388706 
L 95.272276 124.094118 
L 95.42749 125.799529 
L 95.738077 127.504941 
L 96.203776 129.210353 
L 96.824634 130.915765 
L 98.049169 133.473882 
L 99.62784 136.032 
L 101.562371 138.590118 
L 103.891765 141.189635 
L 106.517647 143.735735 
L 109.442076 146.264471 
L 113.819125 149.675294 
L 119.776866 153.938824 
L 131.463529 162.181898 
L 136.261247 165.876706 
L 140.313578 169.287529 
L 144.0081 172.698353 
L 147.402766 176.109176 
L 152.128005 181.225412 
L 159.174869 188.899765 
L 162.640533 192.310588 
L 165.6 194.935057 
L 168.746831 197.426824 
L 172.164706 199.802995 
L 175.26839 201.690353 
L 178.729412 203.526682 
L 182.668235 205.312652 
L 186.607059 206.819295 
L 190.545882 208.082954 
L 195.450026 209.364706 
L 199.736471 210.259727 
L 204.988235 211.108214 
L 210.24 211.724784 
L 215.491765 212.142992 
L 222.056471 212.425655 
L 228.621176 212.472783 
L 235.185882 212.302254 
L 241.750588 211.915969 
L 248.315294 211.307447 
L 254.88 210.458821 
L 261.444706 209.352034 
L 266.696471 208.271557 
L 272.725483 206.806588 
L 278.512941 205.175783 
L 284.079416 203.395765 
L 290.329412 201.150569 
L 295.581176 199.051263 
L 301.170117 196.574118 
L 306.300602 194.016 
L 310.789589 191.457882 
L 313.962353 189.373678 
L 316.588235 187.392952 
L 317.901176 186.278666 
L 319.627174 184.636235 
L 321.164651 182.930824 
L 322.461812 181.225412 
L 323.537228 179.52 
L 324.465882 177.685059 
L 325.102584 176.109176 
L 325.83694 173.551059 
L 326.266651 170.992941 
L 326.441545 168.434824 
L 326.410997 165.876706 
L 326.121517 162.465882 
L 325.47266 158.202353 
L 324.455925 153.226567 
L 324.455925 153.226567 
" style="fill:none;stroke:#0000ff;stroke-width:1.5;"/>
   </g>
   <g id="LineCollection_5">
    <path clip-path="url(#pdc1921c29c)" d="M 159.140658 167.440235 
L 161.719798 170.140235 
L 165.6 174.542525 
L 172.83057 182.930824 
L 175.29237 185.488941 
L 178.033503 188.047059 
L 180.075029 189.752471 
L 182.668235 191.679481 
L 185.294118 193.389835 
L 187.92 194.885886 
L 191.396318 196.574118 
L 194.484706 197.839647 
L 198.423529 199.183321 
L 202.362353 200.266261 
L 206.301176 201.133483 
L 211.552941 202.007336 
L 216.804706 202.612363 
L 222.056471 202.98892 
L 227.308235 203.169142 
L 233.872941 203.142821 
L 240.437647 202.849176 
L 245.689412 202.419295 
L 251.776192 201.690353 
L 257.098748 200.837647 
L 261.444706 199.982013 
L 266.696471 198.739548 
L 271.948235 197.256264 
L 277.2 195.510029 
L 282.451765 193.471029 
L 286.944474 191.457882 
L 290.329412 189.743071 
L 294.268235 187.471474 
L 297.260481 185.488941 
L 299.523445 183.783529 
L 302.145882 181.490339 
L 304.053514 179.52 
L 305.459933 177.814588 
L 306.660186 176.109176 
L 307.671365 174.403765 
L 308.870552 171.845647 
L 309.737379 169.287529 
L 310.323165 166.729412 
L 310.674411 164.171294 
L 310.832447 161.613176 
L 310.803975 158.202353 
L 310.565442 154.791529 
L 310.023529 150.334731 
L 309.211765 145.411765 
L 307.999994 139.442824 
L 306.563959 133.473882 
L 304.887958 127.504941 
L 303.239272 122.388706 
L 301.374041 117.272471 
L 299.265492 112.156235 
L 297.287595 107.892706 
L 295.052965 103.629176 
L 292.955294 100.113729 
L 290.687822 96.807529 
L 288.674023 94.249412 
L 286.357708 91.691294 
L 283.625797 89.133176 
L 281.138824 87.1604 
L 278.512941 85.388435 
L 275.887059 83.884653 
L 272.569334 82.311529 
L 270.434494 81.458824 
L 266.696471 80.232724 
L 262.757647 79.257739 
L 258.818824 78.559153 
L 254.240208 78.048 
L 250.941176 77.849031 
L 247.002353 77.78191 
L 241.750588 77.938717 
L 236.498824 78.331098 
L 229.934118 79.07764 
L 222.056471 80.218076 
L 197.101529 84.016941 
L 174.790588 87.152372 
L 168.225882 88.31741 
L 161.661176 89.712774 
L 156.409412 91.034113 
L 151.157647 92.568694 
L 145.905882 94.348071 
L 140.654118 96.40898 
L 135.997747 98.512941 
L 132.651357 100.218353 
L 128.837647 102.415192 
L 125.696815 104.481882 
L 123.410554 106.187294 
L 120.96 108.285827 
L 119.610492 109.598118 
L 118.077189 111.303529 
L 116.775861 113.008941 
L 115.70016 114.714353 
L 114.847851 116.419765 
L 114.209551 118.125176 
L 113.784825 119.830588 
L 113.567953 121.536 
L 113.557107 123.241412 
L 113.750067 124.946824 
L 114.144232 126.652235 
L 114.739265 128.357647 
L 115.708235 130.38481 
L 116.521766 131.768471 
L 117.704062 133.473882 
L 119.647059 135.82835 
L 121.216476 137.48153 
L 121.216476 137.48153 
" style="fill:none;stroke:#0000ff;stroke-width:1.5;"/>
   </g>
   <g id="LineCollection_6">
    <path clip-path="url(#pdc1921c29c)" d="M 276.200575 182.331653 
L 278.512941 181.000914 
L 281.138824 179.264896 
L 283.764706 177.218955 
L 285.077647 176.043887 
L 286.692593 174.403765 
L 288.137429 172.698353 
L 289.370539 170.992941 
L 290.871905 168.434824 
L 292.018811 165.876706 
L 292.955294 163.007336 
L 293.47637 160.760471 
L 293.883669 158.202353 
L 294.178915 154.791529 
L 294.249495 151.380706 
L 294.090636 147.117176 
L 293.703157 142.853647 
L 293.10186 138.590118 
L 292.26967 134.326588 
L 291.179922 130.063059 
L 290.09543 126.652235 
L 288.793763 123.241412 
L 287.242885 119.830588 
L 285.402107 116.419765 
L 283.764706 113.814652 
L 281.950738 111.303529 
L 279.821644 108.745412 
L 277.2 106.079476 
L 274.574118 103.842501 
L 271.883221 101.923765 
L 268.994489 100.218353 
L 266.696471 99.079515 
L 264.070588 97.993227 
L 261.444706 97.104631 
L 258.818824 96.389745 
L 254.88 95.600161 
L 250.941176 95.10112 
L 247.002353 94.841469 
L 243.063529 94.784091 
L 237.811765 94.960262 
L 232.56 95.35529 
L 225.995294 96.059948 
L 213.658643 97.660235 
L 201.049412 99.219281 
L 189.232941 100.429725 
L 177.416471 101.66796 
L 170.851765 102.601237 
L 165.6 103.595345 
L 161.661176 104.541629 
L 157.722353 105.70815 
L 153.783529 107.144767 
L 150.243979 108.745412 
L 148.531765 109.65439 
L 145.879621 111.303529 
L 143.660222 113.008941 
L 141.883105 114.714353 
L 140.509665 116.419765 
L 139.500437 118.125176 
L 138.833325 119.830588 
L 138.48476 121.536 
L 138.442884 123.241412 
L 138.696468 124.946824 
L 139.341176 126.908115 
L 140.044559 128.357647 
L 141.118344 130.063059 
L 142.443327 131.768471 
L 144.592941 134.058011 
L 146.749337 136.032 
L 149.906016 138.590118 
L 154.593347 142.000941 
L 170.359429 153.086118 
L 173.55702 155.644235 
L 176.50093 158.202353 
L 180.042353 161.615941 
L 183.210375 165.024 
L 187.543385 170.140235 
L 191.158574 174.403765 
L 193.540612 176.961882 
L 196.258927 179.52 
L 198.423529 181.278067 
L 201.049412 183.100346 
L 203.675294 184.637461 
L 207.252648 186.341647 
L 210.24 187.488912 
L 214.178824 188.695418 
L 218.117647 189.61646 
L 222.056471 190.301573 
L 224.417021 190.617696 
L 224.417021 190.617696 
" style="fill:none;stroke:#0000ff;stroke-width:1.5;"/>
   </g>
   <g id="LineCollection_7">
    <path clip-path="url(#pdc1921c29c)" d="M 220.948717 161.261748 
L 224.682353 163.619353 
L 227.308235 165.067372 
L 229.934118 166.319725 
L 233.191942 167.582118 
L 236.066505 168.434824 
L 237.811765 168.8355 
L 240.613914 169.287529 
L 243.063529 169.499906 
L 245.689412 169.535636 
L 249.015372 169.287529 
L 250.941176 168.995482 
L 253.567059 168.39547 
L 256.192941 167.538897 
L 258.818824 166.382658 
L 261.444706 164.865008 
L 263.532028 163.318588 
L 265.411501 161.613176 
L 266.942871 159.907765 
L 268.229496 158.202353 
L 269.796639 155.644235 
L 271.033494 153.086118 
L 272.008777 150.528 
L 272.750399 147.969882 
L 273.300666 145.411765 
L 273.651446 142.853647 
L 273.816359 140.295529 
L 273.787491 137.737412 
L 273.554046 135.179294 
L 273.097928 132.621176 
L 272.392571 130.063059 
L 271.410952 127.504941 
L 270.106017 124.946824 
L 269.025441 123.241412 
L 267.741357 121.536 
L 266.211491 119.830588 
L 264.070588 117.865936 
L 262.1406 116.419765 
L 260.131765 115.158187 
L 257.505882 113.817172 
L 254.88 112.762547 
L 252.254118 111.938867 
L 249.592456 111.303529 
L 245.689412 110.680908 
L 241.750588 110.360522 
L 237.811765 110.301237 
L 233.872941 110.462196 
L 229.934118 110.817373 
L 224.682353 111.549173 
L 219.430588 112.547795 
L 213.921257 113.861647 
L 208.927059 115.307602 
L 204.988235 116.64509 
L 201.049412 118.218284 
L 197.713435 119.830588 
L 194.912617 121.536 
L 192.797335 123.241412 
L 191.307404 124.946824 
L 190.452222 126.49704 
L 190.452222 126.49704 
" style="fill:none;stroke:#0000ff;stroke-width:1.5;"/>
   </g>
   <g id="line2d_21">
    <defs>
     <path d="M -3 0 
L 3 0 
M 0 3 
L 0 -3 
" id="m81b6646274" style="stroke:#ff0000;"/>
    </defs>
    <g clip-path="url(#pdc1921c29c)">
     <use style="fill:#ff0000;stroke:#ff0000;" x="195.32355" xlink:href="#m81b6646274" y="138.952351"/>
     <use style="fill:#ff0000;stroke:#ff0000;" x="254.858345" xlink:href="#m81b6646274" y="204.135997"/>
     <use style="fill:#ff0000;stroke:#ff0000;" x="271.40235" xlink:href="#m81b6646274" y="145.904474"/>
     <use style="fill:#ff0000;stroke:#ff0000;" x="286.019708" xlink:href="#m81b6646274" y="148.807385"/>
     <use style="fill:#ff0000;stroke:#ff0000;" x="181.846101" xlink:href="#m81b6646274" y="61.399274"/>
     <use style="fill:#ff0000;stroke:#ff0000;" x="248.74402" xlink:href="#m81b6646274" y="191.889717"/>
     <use style="fill:#ff0000;stroke:#ff0000;" x="212.89469" xlink:href="#m81b6646274" y="206.754484"/>
     <use style="fill:#ff0000;stroke:#ff0000;" x="225.344438" xlink:href="#m81b6646274" y="77.002724"/>
     <use style="fill:#ff0000;stroke:#ff0000;" x="270.016303" xlink:href="#m81b6646274" y="89.910753"/>
     <use style="fill:#ff0000;stroke:#ff0000;" x="199.553372" xlink:href="#m81b6646274" y="124.153664"/>
     <use style="fill:#ff0000;stroke:#ff0000;" x="212.454367" xlink:href="#m81b6646274" y="95.113978"/>
     <use style="fill:#ff0000;stroke:#ff0000;" x="157.882084" xlink:href="#m81b6646274" y="103.624247"/>
     <use style="fill:#ff0000;stroke:#ff0000;" x="274.808917" xlink:href="#m81b6646274" y="189.190913"/>
     <use style="fill:#ff0000;stroke:#ff0000;" x="216.852648" xlink:href="#m81b6646274" y="74.695355"/>
     <use style="fill:#ff0000;stroke:#ff0000;" x="117.279303" xlink:href="#m81b6646274" y="142.569288"/>
     <use style="fill:#ff0000;stroke:#ff0000;" x="229.109443" xlink:href="#m81b6646274" y="168.322724"/>
     <use style="fill:#ff0000;stroke:#ff0000;" x="206.750457" xlink:href="#m81b6646274" y="132.084476"/>
     <use style="fill:#ff0000;stroke:#ff0000;" x="292.49802" xlink:href="#m81b6646274" y="179.958378"/>
     <use style="fill:#ff0000;stroke:#ff0000;" x="295.246589" xlink:href="#m81b6646274" y="156.555241"/>
     <use style="fill:#ff0000;stroke:#ff0000;" x="190.758364" xlink:href="#m81b6646274" y="138.943049"/>
     <use style="fill:#ff0000;stroke:#ff0000;" x="297.950717" xlink:href="#m81b6646274" y="166.496587"/>
     <use style="fill:#ff0000;stroke:#ff0000;" x="260.522007" xlink:href="#m81b6646274" y="93.278956"/>
     <use style="fill:#ff0000;stroke:#ff0000;" x="196.991884" xlink:href="#m81b6646274" y="151.424084"/>
     <use style="fill:#ff0000;stroke:#ff0000;" x="155.102864" xlink:href="#m81b6646274" y="103.496501"/>
     <use style="fill:#ff0000;stroke:#ff0000;" x="296.412407" xlink:href="#m81b6646274" y="114.06968"/>
     <use style="fill:#ff0000;stroke:#ff0000;" x="254.532044" xlink:href="#m81b6646274" y="131.15058"/>
     <use style="fill:#ff0000;stroke:#ff0000;" x="189.14632" xlink:href="#m81b6646274" y="156.950317"/>
     <use style="fill:#ff0000;stroke:#ff0000;" x="270.319615" xlink:href="#m81b6646274" y="78.649498"/>
     <use style="fill:#ff0000;stroke:#ff0000;" x="260.021704" xlink:href="#m81b6646274" y="96.058207"/>
     <use style="fill:#ff0000;stroke:#ff0000;" x="282.236514" xlink:href="#m81b6646274" y="116.776585"/>
     <use style="fill:#ff0000;stroke:#ff0000;" x="191.26409" xlink:href="#m81b6646274" y="178.188439"/>
     <use style="fill:#ff0000;stroke:#ff0000;" x="175.693578" xlink:href="#m81b6646274" y="94.287903"/>
     <use style="fill:#ff0000;stroke:#ff0000;" x="223.147715" xlink:href="#m81b6646274" y="178.841624"/>
     <use style="fill:#ff0000;stroke:#ff0000;" x="158.412587" xlink:href="#m81b6646274" y="142.045959"/>
     <use style="fill:#ff0000;stroke:#ff0000;" x="231.43274" xlink:href="#m81b6646274" y="185.229035"/>
     <use style="fill:#ff0000;stroke:#ff0000;" x="102.188968" xlink:href="#m81b6646274" y="160.47201"/>
     <use style="fill:#ff0000;stroke:#ff0000;" x="251.827237" xlink:href="#m81b6646274" y="171.895042"/>
     <use style="fill:#ff0000;stroke:#ff0000;" x="127.087067" xlink:href="#m81b6646274" y="70.593091"/>
     <use style="fill:#ff0000;stroke:#ff0000;" x="279.99362" xlink:href="#m81b6646274" y="219.721251"/>
     <use style="fill:#ff0000;stroke:#ff0000;" x="174.443336" xlink:href="#m81b6646274" y="152.359112"/>
     <use style="fill:#ff0000;stroke:#ff0000;" x="291.474513" xlink:href="#m81b6646274" y="211.772861"/>
     <use style="fill:#ff0000;stroke:#ff0000;" x="168.178561" xlink:href="#m81b6646274" y="200.88888"/>
     <use style="fill:#ff0000;stroke:#ff0000;" x="161.389973" xlink:href="#m81b6646274" y="76.975861"/>
     <use style="fill:#ff0000;stroke:#ff0000;" x="280.447488" xlink:href="#m81b6646274" y="109.223774"/>
     <use style="fill:#ff0000;stroke:#ff0000;" x="211.197956" xlink:href="#m81b6646274" y="98.583395"/>
     <use style="fill:#ff0000;stroke:#ff0000;" x="286.86613" xlink:href="#m81b6646274" y="138.251641"/>
     <use style="fill:#ff0000;stroke:#ff0000;" x="234.388858" xlink:href="#m81b6646274" y="146.00223"/>
     <use style="fill:#ff0000;stroke:#ff0000;" x="109.953061" xlink:href="#m81b6646274" y="126.434412"/>
     <use style="fill:#ff0000;stroke:#ff0000;" x="261.130694" xlink:href="#m81b6646274" y="172.674779"/>
     <use style="fill:#ff0000;stroke:#ff0000;" x="248.934701" xlink:href="#m81b6646274" y="163.24477"/>
     <use style="fill:#ff0000;stroke:#ff0000;" x="273.843976" xlink:href="#m81b6646274" y="94.382485"/>
     <use style="fill:#ff0000;stroke:#ff0000;" x="269.545615" xlink:href="#m81b6646274" y="184.143973"/>
     <use style="fill:#ff0000;stroke:#ff0000;" x="201.370102" xlink:href="#m81b6646274" y="121.488188"/>
     <use style="fill:#ff0000;stroke:#ff0000;" x="125.751955" xlink:href="#m81b6646274" y="127.330003"/>
     <use style="fill:#ff0000;stroke:#ff0000;" x="292.744034" xlink:href="#m81b6646274" y="208.369567"/>
     <use style="fill:#ff0000;stroke:#ff0000;" x="115.845636" xlink:href="#m81b6646274" y="142.258356"/>
     <use style="fill:#ff0000;stroke:#ff0000;" x="180.708466" xlink:href="#m81b6646274" y="129.412671"/>
     <use style="fill:#ff0000;stroke:#ff0000;" x="204.738233" xlink:href="#m81b6646274" y="181.630863"/>
     <use style="fill:#ff0000;stroke:#ff0000;" x="284.29883" xlink:href="#m81b6646274" y="122.486298"/>
     <use style="fill:#ff0000;stroke:#ff0000;" x="135.03758" xlink:href="#m81b6646274" y="157.989805"/>
     <use style="fill:#ff0000;stroke:#ff0000;" x="223.490133" xlink:href="#m81b6646274" y="129.127366"/>
     <use style="fill:#ff0000;stroke:#ff0000;" x="202.907884" xlink:href="#m81b6646274" y="72.038036"/>
     <use style="fill:#ff0000;stroke:#ff0000;" x="302.727343" xlink:href="#m81b6646274" y="101.933801"/>
     <use style="fill:#ff0000;stroke:#ff0000;" x="158.409131" xlink:href="#m81b6646274" y="151.344688"/>
     <use style="fill:#ff0000;stroke:#ff0000;" x="135.500101" xlink:href="#m81b6646274" y="116.863082"/>
     <use style="fill:#ff0000;stroke:#ff0000;" x="267.921649" xlink:href="#m81b6646274" y="220.168774"/>
     <use style="fill:#ff0000;stroke:#ff0000;" x="249.189921" xlink:href="#m81b6646274" y="124.885583"/>
     <use style="fill:#ff0000;stroke:#ff0000;" x="198.766541" xlink:href="#m81b6646274" y="161.184533"/>
     <use style="fill:#ff0000;stroke:#ff0000;" x="280.580303" xlink:href="#m81b6646274" y="152.1179"/>
     <use style="fill:#ff0000;stroke:#ff0000;" x="238.704397" xlink:href="#m81b6646274" y="159.088619"/>
     <use style="fill:#ff0000;stroke:#ff0000;" x="201.418623" xlink:href="#m81b6646274" y="170.340593"/>
     <use style="fill:#ff0000;stroke:#ff0000;" x="164.995572" xlink:href="#m81b6646274" y="119.20127"/>
     <use style="fill:#ff0000;stroke:#ff0000;" x="152.643936" xlink:href="#m81b6646274" y="157.467857"/>
     <use style="fill:#ff0000;stroke:#ff0000;" x="211.270762" xlink:href="#m81b6646274" y="140.478533"/>
     <use style="fill:#ff0000;stroke:#ff0000;" x="306.930117" xlink:href="#m81b6646274" y="84.534738"/>
     <use style="fill:#ff0000;stroke:#ff0000;" x="129.53532" xlink:href="#m81b6646274" y="95.30276"/>
     <use style="fill:#ff0000;stroke:#ff0000;" x="131.208725" xlink:href="#m81b6646274" y="203.132882"/>
     <use style="fill:#ff0000;stroke:#ff0000;" x="240.404919" xlink:href="#m81b6646274" y="73.313333"/>
     <use style="fill:#ff0000;stroke:#ff0000;" x="235.93308" xlink:href="#m81b6646274" y="145.79357"/>
     <use style="fill:#ff0000;stroke:#ff0000;" x="235.399464" xlink:href="#m81b6646274" y="190.585869"/>
     <use style="fill:#ff0000;stroke:#ff0000;" x="213.465025" xlink:href="#m81b6646274" y="90.875857"/>
     <use style="fill:#ff0000;stroke:#ff0000;" x="104.439885" xlink:href="#m81b6646274" y="225.404022"/>
     <use style="fill:#ff0000;stroke:#ff0000;" x="135.441734" xlink:href="#m81b6646274" y="90.933258"/>
     <use style="fill:#ff0000;stroke:#ff0000;" x="293.702471" xlink:href="#m81b6646274" y="101.7497"/>
     <use style="fill:#ff0000;stroke:#ff0000;" x="310.63704" xlink:href="#m81b6646274" y="68.234144"/>
     <use style="fill:#ff0000;stroke:#ff0000;" x="335.269736" xlink:href="#m81b6646274" y="171.767312"/>
     <use style="fill:#ff0000;stroke:#ff0000;" x="232.154591" xlink:href="#m81b6646274" y="167.852928"/>
     <use style="fill:#ff0000;stroke:#ff0000;" x="348.063126" xlink:href="#m81b6646274" y="99.057651"/>
     <use style="fill:#ff0000;stroke:#ff0000;" x="215.991459" xlink:href="#m81b6646274" y="220.511579"/>
     <use style="fill:#ff0000;stroke:#ff0000;" x="286.605314" xlink:href="#m81b6646274" y="123.262278"/>
     <use style="fill:#ff0000;stroke:#ff0000;" x="188.724556" xlink:href="#m81b6646274" y="136.369601"/>
     <use style="fill:#ff0000;stroke:#ff0000;" x="232.697654" xlink:href="#m81b6646274" y="172.488224"/>
     <use style="fill:#ff0000;stroke:#ff0000;" x="313.975365" xlink:href="#m81b6646274" y="182.519551"/>
     <use style="fill:#ff0000;stroke:#ff0000;" x="210.195475" xlink:href="#m81b6646274" y="220.551988"/>
     <use style="fill:#ff0000;stroke:#ff0000;" x="134.76453" xlink:href="#m81b6646274" y="156.854244"/>
     <use style="fill:#ff0000;stroke:#ff0000;" x="215.075831" xlink:href="#m81b6646274" y="178.14576"/>
     <use style="fill:#ff0000;stroke:#ff0000;" x="290.668639" xlink:href="#m81b6646274" y="144.622405"/>
     <use style="fill:#ff0000;stroke:#ff0000;" x="333.335274" xlink:href="#m81b6646274" y="118.436859"/>
     <use style="fill:#ff0000;stroke:#ff0000;" x="217.541277" xlink:href="#m81b6646274" y="93.493327"/>
     <use style="fill:#ff0000;stroke:#ff0000;" x="265.973358" xlink:href="#m81b6646274" y="84.292944"/>
     <use style="fill:#ff0000;stroke:#ff0000;" x="306.484759" xlink:href="#m81b6646274" y="95.633576"/>
     <use style="fill:#ff0000;stroke:#ff0000;" x="174.628759" xlink:href="#m81b6646274" y="141.813843"/>
     <use style="fill:#ff0000;stroke:#ff0000;" x="274.204585" xlink:href="#m81b6646274" y="111.497558"/>
     <use style="fill:#ff0000;stroke:#ff0000;" x="220.519433" xlink:href="#m81b6646274" y="125.041696"/>
     <use style="fill:#ff0000;stroke:#ff0000;" x="241.818792" xlink:href="#m81b6646274" y="225.139937"/>
     <use style="fill:#ff0000;stroke:#ff0000;" x="138.21512" xlink:href="#m81b6646274" y="77.226496"/>
     <use style="fill:#ff0000;stroke:#ff0000;" x="261.296412" xlink:href="#m81b6646274" y="130.996325"/>
     <use style="fill:#ff0000;stroke:#ff0000;" x="206.26577" xlink:href="#m81b6646274" y="85.295185"/>
     <use style="fill:#ff0000;stroke:#ff0000;" x="187.312285" xlink:href="#m81b6646274" y="196.973799"/>
     <use style="fill:#ff0000;stroke:#ff0000;" x="227.528858" xlink:href="#m81b6646274" y="152.053763"/>
     <use style="fill:#ff0000;stroke:#ff0000;" x="305.39148" xlink:href="#m81b6646274" y="133.064291"/>
     <use style="fill:#ff0000;stroke:#ff0000;" x="270.238028" xlink:href="#m81b6646274" y="222.08901"/>
     <use style="fill:#ff0000;stroke:#ff0000;" x="251.401559" xlink:href="#m81b6646274" y="79.95682"/>
     <use style="fill:#ff0000;stroke:#ff0000;" x="89.630919" xlink:href="#m81b6646274" y="78.523424"/>
     <use style="fill:#ff0000;stroke:#ff0000;" x="222.837637" xlink:href="#m81b6646274" y="89.804508"/>
     <use style="fill:#ff0000;stroke:#ff0000;" x="231.110177" xlink:href="#m81b6646274" y="132.945946"/>
     <use style="fill:#ff0000;stroke:#ff0000;" x="350.902789" xlink:href="#m81b6646274" y="207.872619"/>
     <use style="fill:#ff0000;stroke:#ff0000;" x="239.200358" xlink:href="#m81b6646274" y="173.182384"/>
     <use style="fill:#ff0000;stroke:#ff0000;" x="200.182525" xlink:href="#m81b6646274" y="190.770018"/>
     <use style="fill:#ff0000;stroke:#ff0000;" x="146.134162" xlink:href="#m81b6646274" y="112.616508"/>
     <use style="fill:#ff0000;stroke:#ff0000;" x="192.68419" xlink:href="#m81b6646274" y="80.492023"/>
     <use style="fill:#ff0000;stroke:#ff0000;" x="104.619227" xlink:href="#m81b6646274" y="108.193661"/>
     <use style="fill:#ff0000;stroke:#ff0000;" x="255.334486" xlink:href="#m81b6646274" y="105.029703"/>
     <use style="fill:#ff0000;stroke:#ff0000;" x="299.935704" xlink:href="#m81b6646274" y="228.559954"/>
     <use style="fill:#ff0000;stroke:#ff0000;" x="194.165947" xlink:href="#m81b6646274" y="229.510848"/>
     <use style="fill:#ff0000;stroke:#ff0000;" x="126.302592" xlink:href="#m81b6646274" y="159.805968"/>
     <use style="fill:#ff0000;stroke:#ff0000;" x="226.491684" xlink:href="#m81b6646274" y="90.233588"/>
     <use style="fill:#ff0000;stroke:#ff0000;" x="233.617705" xlink:href="#m81b6646274" y="118.483078"/>
     <use style="fill:#ff0000;stroke:#ff0000;" x="334.548282" xlink:href="#m81b6646274" y="144.10626"/>
     <use style="fill:#ff0000;stroke:#ff0000;" x="198.854423" xlink:href="#m81b6646274" y="106.164259"/>
     <use style="fill:#ff0000;stroke:#ff0000;" x="92.996137" xlink:href="#m81b6646274" y="97.571123"/>
     <use style="fill:#ff0000;stroke:#ff0000;" x="165.504774" xlink:href="#m81b6646274" y="81.017487"/>
     <use style="fill:#ff0000;stroke:#ff0000;" x="256.468878" xlink:href="#m81b6646274" y="139.802579"/>
     <use style="fill:#ff0000;stroke:#ff0000;" x="185.040101" xlink:href="#m81b6646274" y="71.766417"/>
     <use style="fill:#ff0000;stroke:#ff0000;" x="341.603106" xlink:href="#m81b6646274" y="72.962163"/>
     <use style="fill:#ff0000;stroke:#ff0000;" x="279.587478" xlink:href="#m81b6646274" y="149.54679"/>
     <use style="fill:#ff0000;stroke:#ff0000;" x="137.291208" xlink:href="#m81b6646274" y="101.29215"/>
     <use style="fill:#ff0000;stroke:#ff0000;" x="303.738939" xlink:href="#m81b6646274" y="111.000886"/>
     <use style="fill:#ff0000;stroke:#ff0000;" x="197.891091" xlink:href="#m81b6646274" y="152.364713"/>
     <use style="fill:#ff0000;stroke:#ff0000;" x="167.419627" xlink:href="#m81b6646274" y="225.177076"/>
     <use style="fill:#ff0000;stroke:#ff0000;" x="256.416294" xlink:href="#m81b6646274" y="114.242601"/>
     <use style="fill:#ff0000;stroke:#ff0000;" x="157.671166" xlink:href="#m81b6646274" y="156.284032"/>
     <use style="fill:#ff0000;stroke:#ff0000;" x="198.643145" xlink:href="#m81b6646274" y="218.835241"/>
     <use style="fill:#ff0000;stroke:#ff0000;" x="144.385812" xlink:href="#m81b6646274" y="117.392909"/>
     <use style="fill:#ff0000;stroke:#ff0000;" x="201.857782" xlink:href="#m81b6646274" y="121.202571"/>
     <use style="fill:#ff0000;stroke:#ff0000;" x="137.209894" xlink:href="#m81b6646274" y="97.519349"/>
     <use style="fill:#ff0000;stroke:#ff0000;" x="220.596659" xlink:href="#m81b6646274" y="169.810812"/>
     <use style="fill:#ff0000;stroke:#ff0000;" x="133.395191" xlink:href="#m81b6646274" y="112.983014"/>
     <use style="fill:#ff0000;stroke:#ff0000;" x="158.403049" xlink:href="#m81b6646274" y="122.814132"/>
     <use style="fill:#ff0000;stroke:#ff0000;" x="217.172299" xlink:href="#m81b6646274" y="196.031803"/>
     <use style="fill:#ff0000;stroke:#ff0000;" x="198.875781" xlink:href="#m81b6646274" y="146.53422"/>
     <use style="fill:#ff0000;stroke:#ff0000;" x="331.878288" xlink:href="#m81b6646274" y="98.529831"/>
     <use style="fill:#ff0000;stroke:#ff0000;" x="192.427653" xlink:href="#m81b6646274" y="142.388158"/>
     <use style="fill:#ff0000;stroke:#ff0000;" x="217.827795" xlink:href="#m81b6646274" y="96.836598"/>
     <use style="fill:#ff0000;stroke:#ff0000;" x="277.963799" xlink:href="#m81b6646274" y="214.283213"/>
     <use style="fill:#ff0000;stroke:#ff0000;" x="198.922707" xlink:href="#m81b6646274" y="185.099948"/>
     <use style="fill:#ff0000;stroke:#ff0000;" x="179.491849" xlink:href="#m81b6646274" y="99.85762"/>
     <use style="fill:#ff0000;stroke:#ff0000;" x="271.01877" xlink:href="#m81b6646274" y="170.68457"/>
     <use style="fill:#ff0000;stroke:#ff0000;" x="177.127405" xlink:href="#m81b6646274" y="190.496786"/>
     <use style="fill:#ff0000;stroke:#ff0000;" x="211.836779" xlink:href="#m81b6646274" y="209.674804"/>
     <use style="fill:#ff0000;stroke:#ff0000;" x="163.136737" xlink:href="#m81b6646274" y="132.957446"/>
     <use style="fill:#ff0000;stroke:#ff0000;" x="279.309826" xlink:href="#m81b6646274" y="165.965813"/>
     <use style="fill:#ff0000;stroke:#ff0000;" x="139.173783" xlink:href="#m81b6646274" y="153.273988"/>
     <use style="fill:#ff0000;stroke:#ff0000;" x="283.34246" xlink:href="#m81b6646274" y="173.274069"/>
     <use style="fill:#ff0000;stroke:#ff0000;" x="241.047305" xlink:href="#m81b6646274" y="140.627185"/>
     <use style="fill:#ff0000;stroke:#ff0000;" x="110.519832" xlink:href="#m81b6646274" y="107.119818"/>
     <use style="fill:#ff0000;stroke:#ff0000;" x="323.58193" xlink:href="#m81b6646274" y="125.583813"/>
     <use style="fill:#ff0000;stroke:#ff0000;" x="221.176196" xlink:href="#m81b6646274" y="159.918876"/>
     <use style="fill:#ff0000;stroke:#ff0000;" x="102.722536" xlink:href="#m81b6646274" y="105.5363"/>
     <use style="fill:#ff0000;stroke:#ff0000;" x="89.453712" xlink:href="#m81b6646274" y="153.225524"/>
     <use style="fill:#ff0000;stroke:#ff0000;" x="328.32894" xlink:href="#m81b6646274" y="91.913258"/>
     <use style="fill:#ff0000;stroke:#ff0000;" x="301.205047" xlink:href="#m81b6646274" y="183.590391"/>
     <use style="fill:#ff0000;stroke:#ff0000;" x="173.835117" xlink:href="#m81b6646274" y="113.047876"/>
     <use style="fill:#ff0000;stroke:#ff0000;" x="344.423155" xlink:href="#m81b6646274" y="195.565543"/>
     <use style="fill:#ff0000;stroke:#ff0000;" x="110.819847" xlink:href="#m81b6646274" y="168.325795"/>
     <use style="fill:#ff0000;stroke:#ff0000;" x="266.144015" xlink:href="#m81b6646274" y="154.286427"/>
     <use style="fill:#ff0000;stroke:#ff0000;" x="209.718708" xlink:href="#m81b6646274" y="95.606162"/>
     <use style="fill:#ff0000;stroke:#ff0000;" x="295.430477" xlink:href="#m81b6646274" y="109.721445"/>
     <use style="fill:#ff0000;stroke:#ff0000;" x="209.137631" xlink:href="#m81b6646274" y="162.161111"/>
     <use style="fill:#ff0000;stroke:#ff0000;" x="256.200519" xlink:href="#m81b6646274" y="215.345085"/>
     <use style="fill:#ff0000;stroke:#ff0000;" x="236.647655" xlink:href="#m81b6646274" y="131.71792"/>
     <use style="fill:#ff0000;stroke:#ff0000;" x="126.688621" xlink:href="#m81b6646274" y="117.051828"/>
     <use style="fill:#ff0000;stroke:#ff0000;" x="260.027056" xlink:href="#m81b6646274" y="130.528671"/>
     <use style="fill:#ff0000;stroke:#ff0000;" x="326.928522" xlink:href="#m81b6646274" y="115.812182"/>
     <use style="fill:#ff0000;stroke:#ff0000;" x="159.625308" xlink:href="#m81b6646274" y="116.849623"/>
     <use style="fill:#ff0000;stroke:#ff0000;" x="163.060868" xlink:href="#m81b6646274" y="146.704155"/>
     <use style="fill:#ff0000;stroke:#ff0000;" x="207.36714" xlink:href="#m81b6646274" y="155.578541"/>
     <use style="fill:#ff0000;stroke:#ff0000;" x="258.570311" xlink:href="#m81b6646274" y="151.877922"/>
     <use style="fill:#ff0000;stroke:#ff0000;" x="198.306241" xlink:href="#m81b6646274" y="213.241279"/>
     <use style="fill:#ff0000;stroke:#ff0000;" x="305.434283" xlink:href="#m81b6646274" y="77.539866"/>
     <use style="fill:#ff0000;stroke:#ff0000;" x="194.53707" xlink:href="#m81b6646274" y="134.859166"/>
     <use style="fill:#ff0000;stroke:#ff0000;" x="204.30517" xlink:href="#m81b6646274" y="181.061509"/>
     <use style="fill:#ff0000;stroke:#ff0000;" x="123.83883" xlink:href="#m81b6646274" y="171.575691"/>
     <use style="fill:#ff0000;stroke:#ff0000;" x="212.140024" xlink:href="#m81b6646274" y="217.628958"/>
     <use style="fill:#ff0000;stroke:#ff0000;" x="291.901933" xlink:href="#m81b6646274" y="176.896779"/>
     <use style="fill:#ff0000;stroke:#ff0000;" x="289.065951" xlink:href="#m81b6646274" y="124.633635"/>
     <use style="fill:#ff0000;stroke:#ff0000;" x="300.317746" xlink:href="#m81b6646274" y="87.742232"/>
     <use style="fill:#ff0000;stroke:#ff0000;" x="183.146773" xlink:href="#m81b6646274" y="215.4376"/>
     <use style="fill:#ff0000;stroke:#ff0000;" x="217.319893" xlink:href="#m81b6646274" y="147.940406"/>
     <use style="fill:#ff0000;stroke:#ff0000;" x="289.928265" xlink:href="#m81b6646274" y="98.953274"/>
    </g>
   </g>
   <g id="patch_3">
    <path d="M 54 252 
L 54 34.56 
" style="fill:none;stroke:#000000;stroke-linecap:square;stroke-linejoin:miter;stroke-width:0.8;"/>
   </g>
   <g id="patch_4">
    <path d="M 388.8 252 
L 388.8 34.56 
" style="fill:none;stroke:#000000;stroke-linecap:square;stroke-linejoin:miter;stroke-width:0.8;"/>
   </g>
   <g id="patch_5">
    <path d="M 54 252 
L 388.8 252 
" style="fill:none;stroke:#000000;stroke-linecap:square;stroke-linejoin:miter;stroke-width:0.8;"/>
   </g>
   <g id="patch_6">
    <path d="M 54 34.56 
L 388.8 34.56 
" style="fill:none;stroke:#000000;stroke-linecap:square;stroke-linejoin:miter;stroke-width:0.8;"/>
   </g>
   <g id="text_13">
    <g clip-path="url(#pdc1921c29c)">
     <!-- 0 -->
     <g style="fill:#0000ff;" transform="translate(88.217353 232.889853)scale(0.08 -0.08)">
      <use xlink:href="#DejaVuSans-30"/>
     </g>
    </g>
   </g>
   <g id="text_14">
    <g clip-path="url(#pdc1921c29c)">
     <!-- 0.0204248 -->
     <defs>
      <path d="M 10.6875 12.40625 
L 21 12.40625 
L 21 0 
L 10.6875 0 
z
" id="DejaVuSans-2e"/>
      <path d="M 37.796875 64.3125 
L 12.890625 25.390625 
L 37.796875 25.390625 
z
M 35.203125 72.90625 
L 47.609375 72.90625 
L 47.609375 25.390625 
L 58.015625 25.390625 
L 58.015625 17.1875 
L 47.609375 17.1875 
L 47.609375 0 
L 37.796875 0 
L 37.796875 17.1875 
L 4.890625 17.1875 
L 4.890625 26.703125 
z
" id="DejaVuSans-34"/>
      <path d="M 31.78125 34.625 
Q 24.75 34.625 20.71875 30.859375 
Q 16.703125 27.09375 16.703125 20.515625 
Q 16.703125 13.921875 20.71875 10.15625 
Q 24.75 6.390625 31.78125 6.390625 
Q 38.8125 6.390625 42.859375 10.171875 
Q 46.921875 13.96875 46.921875 20.515625 
Q 46.921875 27.09375 42.890625 30.859375 
Q 38.875 34.625 31.78125 34.625 
z
M 21.921875 38.8125 
Q 15.578125 40.375 12.03125 44.71875 
Q 8.5 49.078125 8.5 55.328125 
Q 8.5 64.0625 14.71875 69.140625 
Q 20.953125 74.21875 31.78125 74.21875 
Q 42.671875 74.21875 48.875 69.140625 
Q 55.078125 64.0625 55.078125 55.328125 
Q 55.078125 49.078125 51.53125 44.71875 
Q 48 40.375 41.703125 38.8125 
Q 48.828125 37.15625 52.796875 32.3125 
Q 56.78125 27.484375 56.78125 20.515625 
Q 56.78125 9.90625 50.3125 4.234375 
Q 43.84375 -1.421875 31.78125 -1.421875 
Q 19.734375 -1.421875 13.25 4.234375 
Q 6.78125 9.90625 6.78125 20.515625 
Q 6.78125 27.484375 10.78125 32.3125 
Q 14.796875 37.15625 21.921875 38.8125 
z
M 18.3125 54.390625 
Q 18.3125 48.734375 21.84375 45.5625 
Q 25.390625 42.390625 31.78125 42.390625 
Q 38.140625 42.390625 41.71875 45.5625 
Q 45.3125 48.734375 45.3125 54.390625 
Q 45.3125 60.0625 41.71875 63.234375 
Q 38.140625 66.40625 31.78125 66.40625 
Q 25.390625 66.40625 21.84375 63.234375 
Q 18.3125 60.0625 18.3125 54.390625 
z
" id="DejaVuSans-38"/>
     </defs>
     <g style="fill:#0000ff;" transform="translate(221.432626 58.483356)rotate(-0.008991)scale(0.08 -0.08)">
      <use xlink:href="#DejaVuSans-30"/>
      <use x="63.623047" xlink:href="#DejaVuSans-2e"/>
      <use x="95.410156" xlink:href="#DejaVuSans-30"/>
      <use x="159.033203" xlink:href="#DejaVuSans-32"/>
      <use x="222.65625" xlink:href="#DejaVuSans-30"/>
      <use x="286.279297" xlink:href="#DejaVuSans-34"/>
      <use x="349.902344" xlink:href="#DejaVuSans-32"/>
      <use x="413.525391" xlink:href="#DejaVuSans-34"/>
      <use x="477.148438" xlink:href="#DejaVuSans-38"/>
     </g>
    </g>
   </g>
   <g id="text_15">
    <g clip-path="url(#pdc1921c29c)">
     <!-- 0.035778 -->
     <defs>
      <path d="M 40.578125 39.3125 
Q 47.65625 37.796875 51.625 33 
Q 55.609375 28.21875 55.609375 21.1875 
Q 55.609375 10.40625 48.1875 4.484375 
Q 40.765625 -1.421875 27.09375 -1.421875 
Q 22.515625 -1.421875 17.65625 -0.515625 
Q 12.796875 0.390625 7.625 2.203125 
L 7.625 11.71875 
Q 11.71875 9.328125 16.59375 8.109375 
Q 21.484375 6.890625 26.8125 6.890625 
Q 36.078125 6.890625 40.9375 10.546875 
Q 45.796875 14.203125 45.796875 21.1875 
Q 45.796875 27.640625 41.28125 31.265625 
Q 36.765625 34.90625 28.71875 34.90625 
L 20.21875 34.90625 
L 20.21875 43.015625 
L 29.109375 43.015625 
Q 36.375 43.015625 40.234375 45.921875 
Q 44.09375 48.828125 44.09375 54.296875 
Q 44.09375 59.90625 40.109375 62.90625 
Q 36.140625 65.921875 28.71875 65.921875 
Q 24.65625 65.921875 20.015625 65.03125 
Q 15.375 64.15625 9.8125 62.3125 
L 9.8125 71.09375 
Q 15.4375 72.65625 20.34375 73.4375 
Q 25.25 74.21875 29.59375 74.21875 
Q 40.828125 74.21875 47.359375 69.109375 
Q 53.90625 64.015625 53.90625 55.328125 
Q 53.90625 49.265625 50.4375 45.09375 
Q 46.96875 40.921875 40.578125 39.3125 
z
" id="DejaVuSans-33"/>
      <path d="M 10.796875 72.90625 
L 49.515625 72.90625 
L 49.515625 64.59375 
L 19.828125 64.59375 
L 19.828125 46.734375 
Q 21.96875 47.46875 24.109375 47.828125 
Q 26.265625 48.1875 28.421875 48.1875 
Q 40.625 48.1875 47.75 41.5 
Q 54.890625 34.8125 54.890625 23.390625 
Q 54.890625 11.625 47.5625 5.09375 
Q 40.234375 -1.421875 26.90625 -1.421875 
Q 22.3125 -1.421875 17.546875 -0.640625 
Q 12.796875 0.140625 7.71875 1.703125 
L 7.71875 11.625 
Q 12.109375 9.234375 16.796875 8.0625 
Q 21.484375 6.890625 26.703125 6.890625 
Q 35.15625 6.890625 40.078125 11.328125 
Q 45.015625 15.765625 45.015625 23.390625 
Q 45.015625 31 40.078125 35.4375 
Q 35.15625 39.890625 26.703125 39.890625 
Q 22.75 39.890625 18.8125 39.015625 
Q 14.890625 38.140625 10.796875 36.28125 
z
" id="DejaVuSans-35"/>
      <path d="M 8.203125 72.90625 
L 55.078125 72.90625 
L 55.078125 68.703125 
L 28.609375 0 
L 18.3125 0 
L 43.21875 64.59375 
L 8.203125 64.59375 
z
" id="DejaVuSans-37"/>
     </defs>
     <g style="fill:#0000ff;" transform="translate(153.240325 72.101988)rotate(-16.965868)scale(0.08 -0.08)">
      <use xlink:href="#DejaVuSans-30"/>
      <use x="63.623047" xlink:href="#DejaVuSans-2e"/>
      <use x="95.410156" xlink:href="#DejaVuSans-30"/>
      <use x="159.033203" xlink:href="#DejaVuSans-33"/>
      <use x="222.65625" xlink:href="#DejaVuSans-35"/>
      <use x="286.279297" xlink:href="#DejaVuSans-37"/>
      <use x="349.902344" xlink:href="#DejaVuSans-37"/>
      <use x="413.525391" xlink:href="#DejaVuSans-38"/>
     </g>
    </g>
   </g>
   <g id="text_16">
    <g clip-path="url(#pdc1921c29c)">
     <!-- 0.0524381 -->
     <g style="fill:#0000ff;" transform="translate(309.606592 107.320045)rotate(-285.99948)scale(0.08 -0.08)">
      <use xlink:href="#DejaVuSans-30"/>
      <use x="63.623047" xlink:href="#DejaVuSans-2e"/>
      <use x="95.410156" xlink:href="#DejaVuSans-30"/>
      <use x="159.033203" xlink:href="#DejaVuSans-35"/>
      <use x="222.65625" xlink:href="#DejaVuSans-32"/>
      <use x="286.279297" xlink:href="#DejaVuSans-34"/>
      <use x="349.902344" xlink:href="#DejaVuSans-33"/>
      <use x="413.525391" xlink:href="#DejaVuSans-38"/>
      <use x="477.148438" xlink:href="#DejaVuSans-31"/>
     </g>
    </g>
   </g>
   <g id="text_17">
    <g clip-path="url(#pdc1921c29c)">
     <!-- 0.071486 -->
     <defs>
      <path d="M 33.015625 40.375 
Q 26.375 40.375 22.484375 35.828125 
Q 18.609375 31.296875 18.609375 23.390625 
Q 18.609375 15.53125 22.484375 10.953125 
Q 26.375 6.390625 33.015625 6.390625 
Q 39.65625 6.390625 43.53125 10.953125 
Q 47.40625 15.53125 47.40625 23.390625 
Q 47.40625 31.296875 43.53125 35.828125 
Q 39.65625 40.375 33.015625 40.375 
z
M 52.59375 71.296875 
L 52.59375 62.3125 
Q 48.875 64.0625 45.09375 64.984375 
Q 41.3125 65.921875 37.59375 65.921875 
Q 27.828125 65.921875 22.671875 59.328125 
Q 17.53125 52.734375 16.796875 39.40625 
Q 19.671875 43.65625 24.015625 45.921875 
Q 28.375 48.1875 33.59375 48.1875 
Q 44.578125 48.1875 50.953125 41.515625 
Q 57.328125 34.859375 57.328125 23.390625 
Q 57.328125 12.15625 50.6875 5.359375 
Q 44.046875 -1.421875 33.015625 -1.421875 
Q 20.359375 -1.421875 13.671875 8.265625 
Q 6.984375 17.96875 6.984375 36.375 
Q 6.984375 53.65625 15.1875 63.9375 
Q 23.390625 74.21875 37.203125 74.21875 
Q 40.921875 74.21875 44.703125 73.484375 
Q 48.484375 72.75 52.59375 71.296875 
z
" id="DejaVuSans-36"/>
     </defs>
     <g style="fill:#0000ff;" transform="translate(123.799205 142.492796)rotate(-322.940474)scale(0.08 -0.08)">
      <use xlink:href="#DejaVuSans-30"/>
      <use x="63.623047" xlink:href="#DejaVuSans-2e"/>
      <use x="95.410156" xlink:href="#DejaVuSans-30"/>
      <use x="159.033203" xlink:href="#DejaVuSans-37"/>
      <use x="222.65625" xlink:href="#DejaVuSans-31"/>
      <use x="286.279297" xlink:href="#DejaVuSans-34"/>
      <use x="349.902344" xlink:href="#DejaVuSans-38"/>
      <use x="413.525391" xlink:href="#DejaVuSans-36"/>
     </g>
    </g>
   </g>
   <g id="text_18">
    <g clip-path="url(#pdc1921c29c)">
     <!-- 0.0934824 -->
     <defs>
      <path d="M 10.984375 1.515625 
L 10.984375 10.5 
Q 14.703125 8.734375 18.5 7.8125 
Q 22.3125 6.890625 25.984375 6.890625 
Q 35.75 6.890625 40.890625 13.453125 
Q 46.046875 20.015625 46.78125 33.40625 
Q 43.953125 29.203125 39.59375 26.953125 
Q 35.25 24.703125 29.984375 24.703125 
Q 19.046875 24.703125 12.671875 31.3125 
Q 6.296875 37.9375 6.296875 49.421875 
Q 6.296875 60.640625 12.9375 67.421875 
Q 19.578125 74.21875 30.609375 74.21875 
Q 43.265625 74.21875 49.921875 64.515625 
Q 56.59375 54.828125 56.59375 36.375 
Q 56.59375 19.140625 48.40625 8.859375 
Q 40.234375 -1.421875 26.421875 -1.421875 
Q 22.703125 -1.421875 18.890625 -0.6875 
Q 15.09375 0.046875 10.984375 1.515625 
z
M 30.609375 32.421875 
Q 37.25 32.421875 41.125 36.953125 
Q 45.015625 41.5 45.015625 49.421875 
Q 45.015625 57.28125 41.125 61.84375 
Q 37.25 66.40625 30.609375 66.40625 
Q 23.96875 66.40625 20.09375 61.84375 
Q 16.21875 57.28125 16.21875 49.421875 
Q 16.21875 41.5 20.09375 36.953125 
Q 23.96875 32.421875 30.609375 32.421875 
z
" id="DejaVuSans-39"/>
     </defs>
     <g style="fill:#0000ff;" transform="translate(229.901958 195.718789)rotate(-8.796669)scale(0.08 -0.08)">
      <use xlink:href="#DejaVuSans-30"/>
      <use x="63.623047" xlink:href="#DejaVuSans-2e"/>
      <use x="95.410156" xlink:href="#DejaVuSans-30"/>
      <use x="159.033203" xlink:href="#DejaVuSans-39"/>
      <use x="222.65625" xlink:href="#DejaVuSans-33"/>
      <use x="286.279297" xlink:href="#DejaVuSans-34"/>
      <use x="349.902344" xlink:href="#DejaVuSans-38"/>
      <use x="413.525391" xlink:href="#DejaVuSans-32"/>
      <use x="477.148438" xlink:href="#DejaVuSans-34"/>
     </g>
    </g>
   </g>
   <g id="text_19">
    <g clip-path="url(#pdc1921c29c)">
     <!-- 0.118445 -->
     <g style="fill:#0000ff;" transform="translate(186.989034 134.242118)rotate(-314.667129)scale(0.08 -0.08)">
      <use xlink:href="#DejaVuSans-30"/>
      <use x="63.623047" xlink:href="#DejaVuSans-2e"/>
      <use x="95.410156" xlink:href="#DejaVuSans-31"/>
      <use x="159.033203" xlink:href="#DejaVuSans-31"/>
      <use x="222.65625" xlink:href="#DejaVuSans-38"/>
      <use x="286.279297" xlink:href="#DejaVuSans-34"/>
      <use x="349.902344" xlink:href="#DejaVuSans-34"/>
      <use x="413.525391" xlink:href="#DejaVuSans-35"/>
     </g>
    </g>
   </g>
   <g id="text_20">
    <!-- [X0,X1] iso-PDF -->
    <defs>
     <path d="M 8.59375 75.984375 
L 29.296875 75.984375 
L 29.296875 69 
L 17.578125 69 
L 17.578125 -6.203125 
L 29.296875 -6.203125 
L 29.296875 -13.1875 
L 8.59375 -13.1875 
z
" id="DejaVuSans-5b"/>
     <path d="M 11.71875 12.40625 
L 22.015625 12.40625 
L 22.015625 4 
L 14.015625 -11.625 
L 7.71875 -11.625 
L 11.71875 4 
z
" id="DejaVuSans-2c"/>
     <path d="M 30.421875 75.984375 
L 30.421875 -13.1875 
L 9.71875 -13.1875 
L 9.71875 -6.203125 
L 21.390625 -6.203125 
L 21.390625 69 
L 9.71875 69 
L 9.71875 75.984375 
z
" id="DejaVuSans-5d"/>
     <path id="DejaVuSans-20"/>
     <path d="M 9.421875 54.6875 
L 18.40625 54.6875 
L 18.40625 0 
L 9.421875 0 
z
M 9.421875 75.984375 
L 18.40625 75.984375 
L 18.40625 64.59375 
L 9.421875 64.59375 
z
" id="DejaVuSans-69"/>
     <path d="M 44.28125 53.078125 
L 44.28125 44.578125 
Q 40.484375 46.53125 36.375 47.5 
Q 32.28125 48.484375 27.875 48.484375 
Q 21.1875 48.484375 17.84375 46.4375 
Q 14.5 44.390625 14.5 40.28125 
Q 14.5 37.15625 16.890625 35.375 
Q 19.28125 33.59375 26.515625 31.984375 
L 29.59375 31.296875 
Q 39.15625 29.25 43.1875 25.515625 
Q 47.21875 21.78125 47.21875 15.09375 
Q 47.21875 7.46875 41.1875 3.015625 
Q 35.15625 -1.421875 24.609375 -1.421875 
Q 20.21875 -1.421875 15.453125 -0.5625 
Q 10.6875 0.296875 5.421875 2 
L 5.421875 11.28125 
Q 10.40625 8.6875 15.234375 7.390625 
Q 20.0625 6.109375 24.8125 6.109375 
Q 31.15625 6.109375 34.5625 8.28125 
Q 37.984375 10.453125 37.984375 14.40625 
Q 37.984375 18.0625 35.515625 20.015625 
Q 33.0625 21.96875 24.703125 23.78125 
L 21.578125 24.515625 
Q 13.234375 26.265625 9.515625 29.90625 
Q 5.8125 33.546875 5.8125 39.890625 
Q 5.8125 47.609375 11.28125 51.796875 
Q 16.75 56 26.8125 56 
Q 31.78125 56 36.171875 55.265625 
Q 40.578125 54.546875 44.28125 53.078125 
z
" id="DejaVuSans-73"/>
     <path d="M 30.609375 48.390625 
Q 23.390625 48.390625 19.1875 42.75 
Q 14.984375 37.109375 14.984375 27.296875 
Q 14.984375 17.484375 19.15625 11.84375 
Q 23.34375 6.203125 30.609375 6.203125 
Q 37.796875 6.203125 41.984375 11.859375 
Q 46.1875 17.53125 46.1875 27.296875 
Q 46.1875 37.015625 41.984375 42.703125 
Q 37.796875 48.390625 30.609375 48.390625 
z
M 30.609375 56 
Q 42.328125 56 49.015625 48.375 
Q 55.71875 40.765625 55.71875 27.296875 
Q 55.71875 13.875 49.015625 6.21875 
Q 42.328125 -1.421875 30.609375 -1.421875 
Q 18.84375 -1.421875 12.171875 6.21875 
Q 5.515625 13.875 5.515625 27.296875 
Q 5.515625 40.765625 12.171875 48.375 
Q 18.84375 56 30.609375 56 
z
" id="DejaVuSans-6f"/>
     <path d="M 4.890625 31.390625 
L 31.203125 31.390625 
L 31.203125 23.390625 
L 4.890625 23.390625 
z
" id="DejaVuSans-2d"/>
     <path d="M 19.671875 64.796875 
L 19.671875 37.40625 
L 32.078125 37.40625 
Q 38.96875 37.40625 42.71875 40.96875 
Q 46.484375 44.53125 46.484375 51.125 
Q 46.484375 57.671875 42.71875 61.234375 
Q 38.96875 64.796875 32.078125 64.796875 
z
M 9.8125 72.90625 
L 32.078125 72.90625 
Q 44.34375 72.90625 50.609375 67.359375 
Q 56.890625 61.8125 56.890625 51.125 
Q 56.890625 40.328125 50.609375 34.8125 
Q 44.34375 29.296875 32.078125 29.296875 
L 19.671875 29.296875 
L 19.671875 0 
L 9.8125 0 
z
" id="DejaVuSans-50"/>
     <path d="M 19.671875 64.796875 
L 19.671875 8.109375 
L 31.59375 8.109375 
Q 46.6875 8.109375 53.6875 14.9375 
Q 60.6875 21.78125 60.6875 36.53125 
Q 60.6875 51.171875 53.6875 57.984375 
Q 46.6875 64.796875 31.59375 64.796875 
z
M 9.8125 72.90625 
L 30.078125 72.90625 
Q 51.265625 72.90625 61.171875 64.09375 
Q 71.09375 55.28125 71.09375 36.53125 
Q 71.09375 17.671875 61.125 8.828125 
Q 51.171875 0 30.078125 0 
L 9.8125 0 
z
" id="DejaVuSans-44"/>
     <path d="M 9.8125 72.90625 
L 51.703125 72.90625 
L 51.703125 64.59375 
L 19.671875 64.59375 
L 19.671875 43.109375 
L 48.578125 43.109375 
L 48.578125 34.8125 
L 19.671875 34.8125 
L 19.671875 0 
L 9.8125 0 
z
" id="DejaVuSans-46"/>
    </defs>
    <g transform="translate(174.73125 28.56)scale(0.12 -0.12)">
     <use xlink:href="#DejaVuSans-5b"/>
     <use x="39.013672" xlink:href="#DejaVuSans-58"/>
     <use x="107.519531" xlink:href="#DejaVuSans-30"/>
     <use x="171.142578" xlink:href="#DejaVuSans-2c"/>
     <use x="202.929688" xlink:href="#DejaVuSans-58"/>
     <use x="271.435547" xlink:href="#DejaVuSans-31"/>
     <use x="335.058594" xlink:href="#DejaVuSans-5d"/>
     <use x="374.072266" xlink:href="#DejaVuSans-20"/>
     <use x="405.859375" xlink:href="#DejaVuSans-69"/>
     <use x="433.642578" xlink:href="#DejaVuSans-73"/>
     <use x="485.742188" xlink:href="#DejaVuSans-6f"/>
     <use x="546.939453" xlink:href="#DejaVuSans-2d"/>
     <use x="583.023438" xlink:href="#DejaVuSans-50"/>
     <use x="643.326172" xlink:href="#DejaVuSans-44"/>
     <use x="720.328125" xlink:href="#DejaVuSans-46"/>
    </g>
   </g>
   <g id="legend_1">
    <g id="patch_7">
     <path d="M 274.01875 59.238125 
L 383.8 59.238125 
Q 385.8 59.238125 385.8 57.238125 
L 385.8 43.56 
Q 385.8 41.56 383.8 41.56 
L 274.01875 41.56 
Q 272.01875 41.56 272.01875 43.56 
L 272.01875 57.238125 
Q 272.01875 59.238125 274.01875 59.238125 
z
" style="fill:#4c4c4c;opacity:0.5;stroke:#4c4c4c;stroke-linejoin:miter;"/>
    </g>
    <g id="patch_8">
     <path d="M 272.01875 57.238125 
L 381.8 57.238125 
Q 383.8 57.238125 383.8 55.238125 
L 383.8 41.56 
Q 383.8 39.56 381.8 39.56 
L 272.01875 39.56 
Q 270.01875 39.56 270.01875 41.56 
L 270.01875 55.238125 
Q 270.01875 57.238125 272.01875 57.238125 
z
" style="fill:#ffffff;opacity:0.8;stroke:#cccccc;stroke-linejoin:miter;"/>
    </g>
    <g id="line2d_22">
     <path d="M 274.01875 47.658437 
L 294.01875 47.658437 
" style="fill:none;stroke:#0000ff;stroke-width:1.5;"/>
    </g>
    <g id="text_21">
     <!-- [X0,X1] iso-PDF -->
     <g transform="translate(302.01875 51.158437)scale(0.1 -0.1)">
      <use xlink:href="#DejaVuSans-5b"/>
      <use x="39.013672" xlink:href="#DejaVuSans-58"/>
      <use x="107.519531" xlink:href="#DejaVuSans-30"/>
      <use x="171.142578" xlink:href="#DejaVuSans-2c"/>
      <use x="202.929688" xlink:href="#DejaVuSans-58"/>
      <use x="271.435547" xlink:href="#DejaVuSans-31"/>
      <use x="335.058594" xlink:href="#DejaVuSans-5d"/>
      <use x="374.072266" xlink:href="#DejaVuSans-20"/>
      <use x="405.859375" xlink:href="#DejaVuSans-69"/>
      <use x="433.642578" xlink:href="#DejaVuSans-73"/>
      <use x="485.742188" xlink:href="#DejaVuSans-6f"/>
      <use x="546.939453" xlink:href="#DejaVuSans-2d"/>
      <use x="583.023438" xlink:href="#DejaVuSans-50"/>
      <use x="643.326172" xlink:href="#DejaVuSans-44"/>
      <use x="720.328125" xlink:href="#DejaVuSans-46"/>
     </g>
    </g>
   </g>
  </g>
 </g>
 <defs>
  <clipPath id="pdc1921c29c">
   <rect height="217.44" width="334.8" x="54" y="34.56"/>
  </clipPath>
 </defs>
</svg>
