<?xml version="1.0" encoding="utf-8" standalone="no"?>
<!DOCTYPE svg PUBLIC "-//W3C//DTD SVG 1.1//EN"
  "http://www.w3.org/Graphics/SVG/1.1/DTD/svg11.dtd">
<!-- Created with matplotlib (http://matplotlib.org/) -->
<svg height="288pt" version="1.1" viewBox="0 0 432 288" width="432pt" xmlns="http://www.w3.org/2000/svg" xmlns:xlink="http://www.w3.org/1999/xlink">
 <defs>
  <style type="text/css">
*{stroke-linecap:butt;stroke-linejoin:round;}
  </style>
 </defs>
 <g id="figure_1">
  <g id="patch_1">
   <path d="M 0 288 
L 432 288 
L 432 0 
L 0 0 
z
" style="fill:#ffffff;"/>
  </g>
  <g id="axes_1">
   <g id="patch_2">
    <path d="M 54 252 
L 388.8 252 
L 388.8 34.56 
L 54 34.56 
z
" style="fill:#ffffff;"/>
   </g>
   <g id="matplotlib.axis_1">
    <g id="xtick_1">
     <g id="line2d_1">
      <path clip-path="url(#pa10272dcbf)" d="M 69.218182 252 
L 69.218182 34.56 
" style="fill:none;stroke:#b0b0b0;stroke-linecap:square;stroke-width:0.8;"/>
     </g>
     <g id="line2d_2">
      <defs>
       <path d="M 0 0 
L 0 3.5 
" id="m126c62a097" style="stroke:#000000;stroke-width:0.8;"/>
      </defs>
      <g>
       <use style="stroke:#000000;stroke-width:0.8;" x="69.218182" xlink:href="#m126c62a097" y="252"/>
      </g>
     </g>
     <g id="text_1">
      <!-- 0 -->
      <defs>
       <path d="M 31.78125 66.40625 
Q 24.171875 66.40625 20.328125 58.90625 
Q 16.5 51.421875 16.5 36.375 
Q 16.5 21.390625 20.328125 13.890625 
Q 24.171875 6.390625 31.78125 6.390625 
Q 39.453125 6.390625 43.28125 13.890625 
Q 47.125 21.390625 47.125 36.375 
Q 47.125 51.421875 43.28125 58.90625 
Q 39.453125 66.40625 31.78125 66.40625 
z
M 31.78125 74.21875 
Q 44.046875 74.21875 50.515625 64.515625 
Q 56.984375 54.828125 56.984375 36.375 
Q 56.984375 17.96875 50.515625 8.265625 
Q 44.046875 -1.421875 31.78125 -1.421875 
Q 19.53125 -1.421875 13.0625 8.265625 
Q 6.59375 17.96875 6.59375 36.375 
Q 6.59375 54.828125 13.0625 64.515625 
Q 19.53125 74.21875 31.78125 74.21875 
z
" id="DejaVuSans-30"/>
      </defs>
      <g transform="translate(66.036932 266.598437)scale(0.1 -0.1)">
       <use xlink:href="#DejaVuSans-30"/>
      </g>
     </g>
    </g>
    <g id="xtick_2">
     <g id="line2d_3">
      <path clip-path="url(#pa10272dcbf)" d="M 119.945455 252 
L 119.945455 34.56 
" style="fill:none;stroke:#b0b0b0;stroke-linecap:square;stroke-width:0.8;"/>
     </g>
     <g id="line2d_4">
      <g>
       <use style="stroke:#000000;stroke-width:0.8;" x="119.945455" xlink:href="#m126c62a097" y="252"/>
      </g>
     </g>
     <g id="text_2">
      <!-- 2 -->
      <defs>
       <path d="M 19.1875 8.296875 
L 53.609375 8.296875 
L 53.609375 0 
L 7.328125 0 
L 7.328125 8.296875 
Q 12.9375 14.109375 22.625 23.890625 
Q 32.328125 33.6875 34.8125 36.53125 
Q 39.546875 41.84375 41.421875 45.53125 
Q 43.3125 49.21875 43.3125 52.78125 
Q 43.3125 58.59375 39.234375 62.25 
Q 35.15625 65.921875 28.609375 65.921875 
Q 23.96875 65.921875 18.8125 64.3125 
Q 13.671875 62.703125 7.8125 59.421875 
L 7.8125 69.390625 
Q 13.765625 71.78125 18.9375 73 
Q 24.125 74.21875 28.421875 74.21875 
Q 39.75 74.21875 46.484375 68.546875 
Q 53.21875 62.890625 53.21875 53.421875 
Q 53.21875 48.921875 51.53125 44.890625 
Q 49.859375 40.875 45.40625 35.40625 
Q 44.1875 33.984375 37.640625 27.21875 
Q 31.109375 20.453125 19.1875 8.296875 
z
" id="DejaVuSans-32"/>
      </defs>
      <g transform="translate(116.764205 266.598437)scale(0.1 -0.1)">
       <use xlink:href="#DejaVuSans-32"/>
      </g>
     </g>
    </g>
    <g id="xtick_3">
     <g id="line2d_5">
      <path clip-path="url(#pa10272dcbf)" d="M 170.672727 252 
L 170.672727 34.56 
" style="fill:none;stroke:#b0b0b0;stroke-linecap:square;stroke-width:0.8;"/>
     </g>
     <g id="line2d_6">
      <g>
       <use style="stroke:#000000;stroke-width:0.8;" x="170.672727" xlink:href="#m126c62a097" y="252"/>
      </g>
     </g>
     <g id="text_3">
      <!-- 4 -->
      <defs>
       <path d="M 37.796875 64.3125 
L 12.890625 25.390625 
L 37.796875 25.390625 
z
M 35.203125 72.90625 
L 47.609375 72.90625 
L 47.609375 25.390625 
L 58.015625 25.390625 
L 58.015625 17.1875 
L 47.609375 17.1875 
L 47.609375 0 
L 37.796875 0 
L 37.796875 17.1875 
L 4.890625 17.1875 
L 4.890625 26.703125 
z
" id="DejaVuSans-34"/>
      </defs>
      <g transform="translate(167.491477 266.598437)scale(0.1 -0.1)">
       <use xlink:href="#DejaVuSans-34"/>
      </g>
     </g>
    </g>
    <g id="xtick_4">
     <g id="line2d_7">
      <path clip-path="url(#pa10272dcbf)" d="M 221.4 252 
L 221.4 34.56 
" style="fill:none;stroke:#b0b0b0;stroke-linecap:square;stroke-width:0.8;"/>
     </g>
     <g id="line2d_8">
      <g>
       <use style="stroke:#000000;stroke-width:0.8;" x="221.4" xlink:href="#m126c62a097" y="252"/>
      </g>
     </g>
     <g id="text_4">
      <!-- 6 -->
      <defs>
       <path d="M 33.015625 40.375 
Q 26.375 40.375 22.484375 35.828125 
Q 18.609375 31.296875 18.609375 23.390625 
Q 18.609375 15.53125 22.484375 10.953125 
Q 26.375 6.390625 33.015625 6.390625 
Q 39.65625 6.390625 43.53125 10.953125 
Q 47.40625 15.53125 47.40625 23.390625 
Q 47.40625 31.296875 43.53125 35.828125 
Q 39.65625 40.375 33.015625 40.375 
z
M 52.59375 71.296875 
L 52.59375 62.3125 
Q 48.875 64.0625 45.09375 64.984375 
Q 41.3125 65.921875 37.59375 65.921875 
Q 27.828125 65.921875 22.671875 59.328125 
Q 17.53125 52.734375 16.796875 39.40625 
Q 19.671875 43.65625 24.015625 45.921875 
Q 28.375 48.1875 33.59375 48.1875 
Q 44.578125 48.1875 50.953125 41.515625 
Q 57.328125 34.859375 57.328125 23.390625 
Q 57.328125 12.15625 50.6875 5.359375 
Q 44.046875 -1.421875 33.015625 -1.421875 
Q 20.359375 -1.421875 13.671875 8.265625 
Q 6.984375 17.96875 6.984375 36.375 
Q 6.984375 53.65625 15.1875 63.9375 
Q 23.390625 74.21875 37.203125 74.21875 
Q 40.921875 74.21875 44.703125 73.484375 
Q 48.484375 72.75 52.59375 71.296875 
z
" id="DejaVuSans-36"/>
      </defs>
      <g transform="translate(218.21875 266.598437)scale(0.1 -0.1)">
       <use xlink:href="#DejaVuSans-36"/>
      </g>
     </g>
    </g>
    <g id="xtick_5">
     <g id="line2d_9">
      <path clip-path="url(#pa10272dcbf)" d="M 272.127273 252 
L 272.127273 34.56 
" style="fill:none;stroke:#b0b0b0;stroke-linecap:square;stroke-width:0.8;"/>
     </g>
     <g id="line2d_10">
      <g>
       <use style="stroke:#000000;stroke-width:0.8;" x="272.127273" xlink:href="#m126c62a097" y="252"/>
      </g>
     </g>
     <g id="text_5">
      <!-- 8 -->
      <defs>
       <path d="M 31.78125 34.625 
Q 24.75 34.625 20.71875 30.859375 
Q 16.703125 27.09375 16.703125 20.515625 
Q 16.703125 13.921875 20.71875 10.15625 
Q 24.75 6.390625 31.78125 6.390625 
Q 38.8125 6.390625 42.859375 10.171875 
Q 46.921875 13.96875 46.921875 20.515625 
Q 46.921875 27.09375 42.890625 30.859375 
Q 38.875 34.625 31.78125 34.625 
z
M 21.921875 38.8125 
Q 15.578125 40.375 12.03125 44.71875 
Q 8.5 49.078125 8.5 55.328125 
Q 8.5 64.0625 14.71875 69.140625 
Q 20.953125 74.21875 31.78125 74.21875 
Q 42.671875 74.21875 48.875 69.140625 
Q 55.078125 64.0625 55.078125 55.328125 
Q 55.078125 49.078125 51.53125 44.71875 
Q 48 40.375 41.703125 38.8125 
Q 48.828125 37.15625 52.796875 32.3125 
Q 56.78125 27.484375 56.78125 20.515625 
Q 56.78125 9.90625 50.3125 4.234375 
Q 43.84375 -1.421875 31.78125 -1.421875 
Q 19.734375 -1.421875 13.25 4.234375 
Q 6.78125 9.90625 6.78125 20.515625 
Q 6.78125 27.484375 10.78125 32.3125 
Q 14.796875 37.15625 21.921875 38.8125 
z
M 18.3125 54.390625 
Q 18.3125 48.734375 21.84375 45.5625 
Q 25.390625 42.390625 31.78125 42.390625 
Q 38.140625 42.390625 41.71875 45.5625 
Q 45.3125 48.734375 45.3125 54.390625 
Q 45.3125 60.0625 41.71875 63.234375 
Q 38.140625 66.40625 31.78125 66.40625 
Q 25.390625 66.40625 21.84375 63.234375 
Q 18.3125 60.0625 18.3125 54.390625 
z
" id="DejaVuSans-38"/>
      </defs>
      <g transform="translate(268.946023 266.598437)scale(0.1 -0.1)">
       <use xlink:href="#DejaVuSans-38"/>
      </g>
     </g>
    </g>
    <g id="xtick_6">
     <g id="line2d_11">
      <path clip-path="url(#pa10272dcbf)" d="M 322.854545 252 
L 322.854545 34.56 
" style="fill:none;stroke:#b0b0b0;stroke-linecap:square;stroke-width:0.8;"/>
     </g>
     <g id="line2d_12">
      <g>
       <use style="stroke:#000000;stroke-width:0.8;" x="322.854545" xlink:href="#m126c62a097" y="252"/>
      </g>
     </g>
     <g id="text_6">
      <!-- 10 -->
      <defs>
       <path d="M 12.40625 8.296875 
L 28.515625 8.296875 
L 28.515625 63.921875 
L 10.984375 60.40625 
L 10.984375 69.390625 
L 28.421875 72.90625 
L 38.28125 72.90625 
L 38.28125 8.296875 
L 54.390625 8.296875 
L 54.390625 0 
L 12.40625 0 
z
" id="DejaVuSans-31"/>
      </defs>
      <g transform="translate(316.492045 266.598437)scale(0.1 -0.1)">
       <use xlink:href="#DejaVuSans-31"/>
       <use x="63.623047" xlink:href="#DejaVuSans-30"/>
      </g>
     </g>
    </g>
    <g id="xtick_7">
     <g id="line2d_13">
      <path clip-path="url(#pa10272dcbf)" d="M 373.581818 252 
L 373.581818 34.56 
" style="fill:none;stroke:#b0b0b0;stroke-linecap:square;stroke-width:0.8;"/>
     </g>
     <g id="line2d_14">
      <g>
       <use style="stroke:#000000;stroke-width:0.8;" x="373.581818" xlink:href="#m126c62a097" y="252"/>
      </g>
     </g>
     <g id="text_7">
      <!-- 12 -->
      <g transform="translate(367.219318 266.598437)scale(0.1 -0.1)">
       <use xlink:href="#DejaVuSans-31"/>
       <use x="63.623047" xlink:href="#DejaVuSans-32"/>
      </g>
     </g>
    </g>
    <g id="text_8">
     <!-- $t$ -->
     <defs>
      <path d="M 42.28125 54.6875 
L 40.921875 47.703125 
L 23 47.703125 
L 17.1875 18.015625 
Q 16.890625 16.359375 16.75 15.234375 
Q 16.609375 14.109375 16.609375 13.484375 
Q 16.609375 10.359375 18.484375 8.9375 
Q 20.359375 7.515625 24.515625 7.515625 
L 33.59375 7.515625 
L 32.078125 0 
L 23.484375 0 
Q 15.484375 0 11.546875 3.125 
Q 7.625 6.25 7.625 12.59375 
Q 7.625 13.71875 7.765625 15.0625 
Q 7.90625 16.40625 8.203125 18.015625 
L 14.015625 47.703125 
L 6.390625 47.703125 
L 7.8125 54.6875 
L 15.28125 54.6875 
L 18.3125 70.21875 
L 27.296875 70.21875 
L 24.3125 54.6875 
z
" id="DejaVuSans-Oblique-74"/>
     </defs>
     <g transform="translate(219.4 280.276563)scale(0.1 -0.1)">
      <use transform="translate(0 0.78125)" xlink:href="#DejaVuSans-Oblique-74"/>
     </g>
    </g>
   </g>
   <g id="matplotlib.axis_2">
    <g id="ytick_1">
     <g id="line2d_15">
      <path clip-path="url(#pa10272dcbf)" d="M 54 242.116364 
L 388.8 242.116364 
" style="fill:none;stroke:#b0b0b0;stroke-linecap:square;stroke-width:0.8;"/>
     </g>
     <g id="line2d_16">
      <defs>
       <path d="M 0 0 
L -3.5 0 
" id="mf01c96f03c" style="stroke:#000000;stroke-width:0.8;"/>
      </defs>
      <g>
       <use style="stroke:#000000;stroke-width:0.8;" x="54" xlink:href="#mf01c96f03c" y="242.116364"/>
      </g>
     </g>
     <g id="text_9">
      <!-- 0 -->
      <g transform="translate(40.6375 245.915582)scale(0.1 -0.1)">
       <use xlink:href="#DejaVuSans-30"/>
      </g>
     </g>
    </g>
    <g id="ytick_2">
     <g id="line2d_17">
      <path clip-path="url(#pa10272dcbf)" d="M 54 205.816324 
L 388.8 205.816324 
" style="fill:none;stroke:#b0b0b0;stroke-linecap:square;stroke-width:0.8;"/>
     </g>
     <g id="line2d_18">
      <g>
       <use style="stroke:#000000;stroke-width:0.8;" x="54" xlink:href="#mf01c96f03c" y="205.816324"/>
      </g>
     </g>
     <g id="text_10">
      <!-- 50 -->
      <defs>
       <path d="M 10.796875 72.90625 
L 49.515625 72.90625 
L 49.515625 64.59375 
L 19.828125 64.59375 
L 19.828125 46.734375 
Q 21.96875 47.46875 24.109375 47.828125 
Q 26.265625 48.1875 28.421875 48.1875 
Q 40.625 48.1875 47.75 41.5 
Q 54.890625 34.8125 54.890625 23.390625 
Q 54.890625 11.625 47.5625 5.09375 
Q 40.234375 -1.421875 26.90625 -1.421875 
Q 22.3125 -1.421875 17.546875 -0.640625 
Q 12.796875 0.140625 7.71875 1.703125 
L 7.71875 11.625 
Q 12.109375 9.234375 16.796875 8.0625 
Q 21.484375 6.890625 26.703125 6.890625 
Q 35.15625 6.890625 40.078125 11.328125 
Q 45.015625 15.765625 45.015625 23.390625 
Q 45.015625 31 40.078125 35.4375 
Q 35.15625 39.890625 26.703125 39.890625 
Q 22.75 39.890625 18.8125 39.015625 
Q 14.890625 38.140625 10.796875 36.28125 
z
" id="DejaVuSans-35"/>
      </defs>
      <g transform="translate(34.275 209.615542)scale(0.1 -0.1)">
       <use xlink:href="#DejaVuSans-35"/>
       <use x="63.623047" xlink:href="#DejaVuSans-30"/>
      </g>
     </g>
    </g>
    <g id="ytick_3">
     <g id="line2d_19">
      <path clip-path="url(#pa10272dcbf)" d="M 54 169.516284 
L 388.8 169.516284 
" style="fill:none;stroke:#b0b0b0;stroke-linecap:square;stroke-width:0.8;"/>
     </g>
     <g id="line2d_20">
      <g>
       <use style="stroke:#000000;stroke-width:0.8;" x="54" xlink:href="#mf01c96f03c" y="169.516284"/>
      </g>
     </g>
     <g id="text_11">
      <!-- 100 -->
      <g transform="translate(27.9125 173.315502)scale(0.1 -0.1)">
       <use xlink:href="#DejaVuSans-31"/>
       <use x="63.623047" xlink:href="#DejaVuSans-30"/>
       <use x="127.246094" xlink:href="#DejaVuSans-30"/>
      </g>
     </g>
    </g>
    <g id="ytick_4">
     <g id="line2d_21">
      <path clip-path="url(#pa10272dcbf)" d="M 54 133.216244 
L 388.8 133.216244 
" style="fill:none;stroke:#b0b0b0;stroke-linecap:square;stroke-width:0.8;"/>
     </g>
     <g id="line2d_22">
      <g>
       <use style="stroke:#000000;stroke-width:0.8;" x="54" xlink:href="#mf01c96f03c" y="133.216244"/>
      </g>
     </g>
     <g id="text_12">
      <!-- 150 -->
      <g transform="translate(27.9125 137.015462)scale(0.1 -0.1)">
       <use xlink:href="#DejaVuSans-31"/>
       <use x="63.623047" xlink:href="#DejaVuSans-35"/>
       <use x="127.246094" xlink:href="#DejaVuSans-30"/>
      </g>
     </g>
    </g>
    <g id="ytick_5">
     <g id="line2d_23">
      <path clip-path="url(#pa10272dcbf)" d="M 54 96.916204 
L 388.8 96.916204 
" style="fill:none;stroke:#b0b0b0;stroke-linecap:square;stroke-width:0.8;"/>
     </g>
     <g id="line2d_24">
      <g>
       <use style="stroke:#000000;stroke-width:0.8;" x="54" xlink:href="#mf01c96f03c" y="96.916204"/>
      </g>
     </g>
     <g id="text_13">
      <!-- 200 -->
      <g transform="translate(27.9125 100.715422)scale(0.1 -0.1)">
       <use xlink:href="#DejaVuSans-32"/>
       <use x="63.623047" xlink:href="#DejaVuSans-30"/>
       <use x="127.246094" xlink:href="#DejaVuSans-30"/>
      </g>
     </g>
    </g>
    <g id="ytick_6">
     <g id="line2d_25">
      <path clip-path="url(#pa10272dcbf)" d="M 54 60.616164 
L 388.8 60.616164 
" style="fill:none;stroke:#b0b0b0;stroke-linecap:square;stroke-width:0.8;"/>
     </g>
     <g id="line2d_26">
      <g>
       <use style="stroke:#000000;stroke-width:0.8;" x="54" xlink:href="#mf01c96f03c" y="60.616164"/>
      </g>
     </g>
     <g id="text_14">
      <!-- 250 -->
      <g transform="translate(27.9125 64.415382)scale(0.1 -0.1)">
       <use xlink:href="#DejaVuSans-32"/>
       <use x="63.623047" xlink:href="#DejaVuSans-35"/>
       <use x="127.246094" xlink:href="#DejaVuSans-30"/>
      </g>
     </g>
    </g>
    <g id="text_15">
     <!-- $z$ -->
     <defs>
      <path d="M 11.625 54.6875 
L 54.296875 54.6875 
L 52.6875 46.484375 
L 11.53125 7.171875 
L 45.515625 7.171875 
L 44.09375 0 
L -0.296875 0 
L 1.3125 8.203125 
L 42.484375 47.515625 
L 10.203125 47.515625 
z
" id="DejaVuSans-Oblique-7a"/>
     </defs>
     <g transform="translate(21.832812 145.93)rotate(-90)scale(0.1 -0.1)">
      <use transform="translate(0 0.3125)" xlink:href="#DejaVuSans-Oblique-7a"/>
     </g>
    </g>
   </g>
   <g id="line2d_27">
    <path clip-path="url(#pa10272dcbf)" d="M 69.218182 167.572451 
L 72.292562 161.66286 
L 75.366942 156.103837 
L 78.441322 150.880663 
L 81.515702 145.979235 
L 84.590083 141.386042 
L 87.664463 137.088144 
L 90.738843 133.073139 
L 93.813223 129.32915 
L 96.887603 125.844797 
L 99.961983 122.609177 
L 103.036364 119.611848 
L 106.110744 116.842802 
L 109.185124 114.292454 
L 112.259504 111.951622 
L 115.333884 109.811508 
L 118.408264 107.863684 
L 121.482645 106.100075 
L 124.557025 104.512947 
L 127.631405 103.094889 
L 130.705785 101.838803 
L 133.780165 100.737886 
L 136.854545 99.785624 
L 139.928926 98.975774 
L 143.003306 98.302357 
L 146.077686 97.759644 
L 149.152066 97.342147 
L 152.226446 97.044607 
L 155.300826 96.861989 
L 158.375207 96.789467 
L 161.449587 96.822417 
L 164.523967 96.956411 
L 167.598347 97.187206 
L 170.672727 97.510738 
L 173.747107 97.923112 
L 176.821488 98.420599 
L 179.895868 98.999623 
L 182.970248 99.656763 
L 186.044628 100.388736 
L 189.119008 101.192403 
L 192.193388 102.064751 
L 195.267769 103.002897 
L 198.342149 104.004078 
L 201.416529 105.065648 
L 204.490909 106.18507 
L 207.565289 107.359916 
L 210.639669 108.587859 
L 213.71405 109.866668 
L 216.78843 111.194208 
L 219.86281 112.568433 
L 222.93719 113.987382 
L 226.01157 115.449178 
L 229.08595 116.952021 
L 232.160331 118.494188 
L 235.234711 120.074028 
L 238.309091 121.689958 
L 241.383471 123.340464 
L 244.457851 125.024094 
L 247.532231 126.739456 
L 250.606612 128.485219 
L 253.680992 130.260105 
L 256.755372 132.062892 
L 259.829752 133.892409 
L 262.904132 135.747532 
L 265.978512 137.627188 
L 269.052893 139.530345 
L 272.127273 141.456017 
L 275.201653 143.403258 
L 278.276033 145.371164 
L 281.350413 147.358865 
L 284.424793 149.365531 
L 287.499174 151.390366 
L 290.573554 153.432606 
L 293.647934 155.491522 
L 296.722314 157.566412 
L 299.796694 159.656606 
L 302.871074 161.761461 
L 305.945455 163.880362 
L 309.019835 166.012719 
L 312.094215 168.157966 
L 315.168595 170.315563 
L 318.242975 172.484992 
L 321.317355 174.665754 
L 324.391736 176.857375 
L 327.466116 179.059399 
L 330.540496 181.271388 
L 333.614876 183.492924 
L 336.689256 185.723606 
L 339.763636 187.963051 
L 342.838017 190.21089 
L 345.912397 192.466771 
L 348.986777 194.730356 
L 352.061157 197.001322 
L 355.135537 199.279358 
L 358.209917 201.564168 
L 361.284298 203.855468 
L 364.358678 206.152985 
L 367.433058 208.456458 
L 370.507438 210.765636 
L 373.581818 213.080281 
" style="fill:none;stroke:#ff0000;stroke-linecap:square;"/>
   </g>
   <g id="line2d_28">
    <path clip-path="url(#pa10272dcbf)" d="M 69.218182 143.496965 
L 72.292562 138.767288 
L 75.366942 134.239467 
L 78.441322 129.909307 
L 81.515702 125.7727 
L 84.590083 121.825621 
L 87.664463 118.064132 
L 90.738843 114.484375 
L 93.813223 111.082573 
L 96.887603 107.855027 
L 99.961983 104.798114 
L 103.036364 101.90829 
L 106.110744 99.18208 
L 109.185124 96.616083 
L 112.259504 94.20697 
L 115.333884 91.95148 
L 118.408264 89.846419 
L 121.482645 87.888662 
L 124.557025 86.075145 
L 127.631405 84.402872 
L 130.705785 82.868906 
L 133.780165 81.470373 
L 136.854545 80.204457 
L 139.928926 79.068403 
L 143.003306 78.05951 
L 146.077686 77.175137 
L 149.152066 76.412694 
L 152.226446 75.769647 
L 155.300826 75.243515 
L 158.375207 74.831868 
L 161.449587 74.532326 
L 164.523967 74.342558 
L 167.598347 74.260284 
L 170.672727 74.283269 
L 173.747107 74.409324 
L 176.821488 74.636309 
L 179.895868 74.962124 
L 182.970248 75.384716 
L 186.044628 75.902073 
L 189.119008 76.512226 
L 192.193388 77.213245 
L 195.267769 78.003243 
L 198.342149 78.880369 
L 201.416529 79.842812 
L 204.490909 80.8888 
L 207.565289 82.016595 
L 210.639669 83.224498 
L 213.71405 84.510843 
L 216.78843 85.874 
L 219.86281 87.312373 
L 222.93719 88.824397 
L 226.01157 90.408542 
L 229.08595 92.06331 
L 232.160331 93.787231 
L 235.234711 95.57887 
L 238.309091 97.436817 
L 241.383471 99.359696 
L 244.457851 101.346156 
L 247.532231 103.394875 
L 250.606612 105.504561 
L 253.680992 107.673945 
L 256.755372 109.901787 
L 259.829752 112.186871 
L 262.904132 114.528009 
L 265.978512 116.924034 
L 269.052893 119.373806 
L 272.127273 121.876208 
L 275.201653 124.430146 
L 278.276033 127.034548 
L 281.350413 129.688366 
L 284.424793 132.390573 
L 287.499174 135.140163 
L 290.573554 137.936151 
L 293.647934 140.777572 
L 296.722314 143.663483 
L 299.796694 146.592958 
L 302.871074 149.565093 
L 305.945455 152.578999 
L 309.019835 155.63381 
L 312.094215 158.728675 
L 315.168595 161.862761 
L 318.242975 165.035254 
L 321.317355 168.245354 
L 324.391736 171.492281 
L 327.466116 174.775268 
L 330.540496 178.093566 
L 333.614876 181.446442 
L 336.689256 184.833177 
L 339.763636 188.253066 
L 342.838017 191.705421 
L 345.912397 195.189567 
L 348.986777 198.704843 
L 352.061157 202.250602 
L 355.135537 205.826211 
L 358.209917 209.431048 
L 361.284298 213.064508 
L 364.358678 216.725993 
L 367.433058 220.414923 
L 370.507438 224.130727 
L 373.581818 227.872845 
" style="fill:none;stroke:#ff0000;stroke-linecap:square;"/>
   </g>
   <g id="line2d_29">
    <path clip-path="url(#pa10272dcbf)" d="M 69.218182 150.110765 
L 72.292562 145.867867 
L 75.366942 141.846466 
L 78.441322 138.040384 
L 81.515702 134.443617 
L 84.590083 131.050327 
L 87.664463 127.854841 
L 90.738843 124.851641 
L 93.813223 122.035366 
L 96.887603 119.400804 
L 99.961983 116.942885 
L 103.036364 114.656686 
L 106.110744 112.537415 
L 109.185124 110.58042 
L 112.259504 108.781173 
L 115.333884 107.135277 
L 118.408264 105.638454 
L 121.482645 104.286547 
L 124.557025 103.075515 
L 127.631405 102.001429 
L 130.705785 101.060471 
L 133.780165 100.248927 
L 136.854545 99.56319 
L 139.928926 98.999749 
L 143.003306 98.555196 
L 146.077686 98.226214 
L 149.152066 98.009581 
L 152.226446 97.902163 
L 155.300826 97.900915 
L 158.375207 98.002876 
L 161.449587 98.205167 
L 164.523967 98.504992 
L 167.598347 98.899629 
L 170.672727 99.386436 
L 173.747107 99.962841 
L 176.821488 100.626345 
L 179.895868 101.374521 
L 182.970248 102.205007 
L 186.044628 103.115507 
L 189.119008 104.103789 
L 192.193388 105.167686 
L 195.267769 106.305088 
L 198.342149 107.513945 
L 201.416529 108.792265 
L 204.490909 110.13811 
L 207.565289 111.549598 
L 210.639669 113.024898 
L 213.71405 114.56223 
L 216.78843 116.159865 
L 219.86281 117.81612 
L 222.93719 119.529361 
L 226.01157 121.297999 
L 229.08595 123.120489 
L 232.160331 124.99533 
L 235.234711 126.92106 
L 238.309091 128.896262 
L 241.383471 130.919556 
L 244.457851 132.989599 
L 247.532231 135.10509 
L 250.606612 137.264759 
L 253.680992 139.467376 
L 256.755372 141.711743 
L 259.829752 143.996694 
L 262.904132 146.3211 
L 265.978512 148.683858 
L 269.052893 151.0839 
L 272.127273 153.520187 
L 275.201653 155.991706 
L 278.276033 158.497476 
L 281.350413 161.036542 
L 284.424793 163.607974 
L 287.499174 166.210871 
L 290.573554 168.844355 
L 293.647934 171.507573 
L 296.722314 174.199695 
L 299.796694 176.919916 
L 302.871074 179.667453 
L 305.945455 182.441542 
L 309.019835 185.241445 
L 312.094215 188.06644 
L 315.168595 190.915829 
L 318.242975 193.788931 
L 321.317355 196.685084 
L 324.391736 199.603647 
L 327.466116 202.543993 
L 330.540496 205.505516 
L 333.614876 208.487624 
L 336.689256 211.489745 
L 339.763636 214.511319 
L 342.838017 217.551804 
L 345.912397 220.610673 
L 348.986777 223.687414 
L 352.061157 226.781527 
L 355.135537 229.892528 
L 358.209917 233.019947 
L 361.284298 236.163326 
L 364.358678 239.322218 
L 367.433058 242.116364 
L 370.507438 242.116364 
L 373.581818 242.116364 
" style="fill:none;stroke:#ff0000;stroke-linecap:square;"/>
   </g>
   <g id="line2d_30">
    <path clip-path="url(#pa10272dcbf)" d="M 69.218182 147.143435 
L 72.292562 142.456693 
L 75.366942 137.892224 
L 78.441322 133.449563 
L 81.515702 129.128247 
L 84.590083 124.927814 
L 87.664463 120.847805 
L 90.738843 116.88776 
L 93.813223 113.047223 
L 96.887603 109.32574 
L 99.961983 105.722858 
L 103.036364 102.238126 
L 106.110744 98.871093 
L 109.185124 95.621312 
L 112.259504 92.488338 
L 115.333884 89.471725 
L 118.408264 86.57103 
L 121.482645 83.785814 
L 124.557025 81.115635 
L 127.631405 78.560058 
L 130.705785 76.118645 
L 133.780165 73.790962 
L 136.854545 71.576577 
L 139.928926 69.475058 
L 143.003306 67.485976 
L 146.077686 65.608903 
L 149.152066 63.843413 
L 152.226446 62.189082 
L 155.300826 60.645486 
L 158.375207 59.212204 
L 161.449587 57.888816 
L 164.523967 56.674905 
L 167.598347 55.570054 
L 170.672727 54.573847 
L 173.747107 53.685871 
L 176.821488 52.905716 
L 179.895868 52.232969 
L 182.970248 51.667223 
L 186.044628 51.208071 
L 189.119008 50.855106 
L 192.193388 50.607926 
L 195.267769 50.466127 
L 198.342149 50.429308 
L 201.416529 50.49707 
L 204.490909 50.669016 
L 207.565289 50.944748 
L 210.639669 51.323872 
L 213.71405 51.805994 
L 216.78843 52.390723 
L 219.86281 53.077668 
L 222.93719 53.86644 
L 226.01157 54.756652 
L 229.08595 55.747917 
L 232.160331 56.839852 
L 235.234711 58.032073 
L 238.309091 59.324199 
L 241.383471 60.715849 
L 244.457851 62.206645 
L 247.532231 63.79621 
L 250.606612 65.484167 
L 253.680992 67.270143 
L 256.755372 69.153765 
L 259.829752 71.13466 
L 262.904132 73.212459 
L 265.978512 75.386794 
L 269.052893 77.657296 
L 272.127273 80.0236 
L 275.201653 82.485341 
L 278.276033 85.042157 
L 281.350413 87.693685 
L 284.424793 90.439566 
L 287.499174 93.279439 
L 290.573554 96.212948 
L 293.647934 99.239737 
L 296.722314 102.35945 
L 299.796694 105.571733 
L 302.871074 108.876235 
L 305.945455 112.272605 
L 309.019835 115.760493 
L 312.094215 119.33955 
L 315.168595 123.009431 
L 318.242975 126.769789 
L 321.317355 130.62028 
L 324.391736 134.560562 
L 327.466116 138.590292 
L 330.540496 142.709131 
L 333.614876 146.916738 
L 336.689256 151.212778 
L 339.763636 155.596912 
L 342.838017 160.068806 
L 345.912397 164.628125 
L 348.986777 169.274538 
L 352.061157 174.007713 
L 355.135537 178.82732 
L 358.209917 183.733029 
L 361.284298 188.724514 
L 364.358678 193.801447 
L 367.433058 198.963505 
L 370.507438 204.210362 
L 373.581818 209.541697 
" style="fill:none;stroke:#ff0000;stroke-linecap:square;"/>
   </g>
   <g id="line2d_31">
    <path clip-path="url(#pa10272dcbf)" d="M 69.218182 140.175316 
L 72.292562 134.891349 
L 75.366942 129.861614 
L 78.441322 125.078841 
L 81.515702 120.535968 
L 84.590083 116.226135 
L 87.664463 112.142679 
L 90.738843 108.279126 
L 93.813223 104.629188 
L 96.887603 101.186756 
L 99.961983 97.945898 
L 103.036364 94.900849 
L 106.110744 92.046009 
L 109.185124 89.375941 
L 112.259504 86.88536 
L 115.333884 84.569134 
L 118.408264 82.422277 
L 121.482645 80.439946 
L 124.557025 78.617437 
L 127.631405 76.950179 
L 130.705785 75.433734 
L 133.780165 74.063787 
L 136.854545 72.836152 
L 139.928926 71.746757 
L 143.003306 70.79165 
L 146.077686 69.966991 
L 149.152066 69.26905 
L 152.226446 68.694204 
L 155.300826 68.238932 
L 158.375207 67.899815 
L 161.449587 67.673533 
L 164.523967 67.556857 
L 167.598347 67.546655 
L 170.672727 67.639881 
L 173.747107 67.833578 
L 176.821488 68.124873 
L 179.895868 68.510976 
L 182.970248 68.989174 
L 186.044628 69.556836 
L 189.119008 70.211402 
L 192.193388 70.950387 
L 195.267769 71.771378 
L 198.342149 72.672029 
L 201.416529 73.650063 
L 204.490909 74.703267 
L 207.565289 75.829492 
L 210.639669 77.026648 
L 213.71405 78.292709 
L 216.78843 79.625704 
L 219.86281 81.023719 
L 222.93719 82.484894 
L 226.01157 84.007423 
L 229.08595 85.589553 
L 232.160331 87.229579 
L 235.234711 88.925844 
L 238.309091 90.676742 
L 241.383471 92.48071 
L 244.457851 94.33623 
L 247.532231 96.241828 
L 250.606612 98.196073 
L 253.680992 100.197573 
L 256.755372 102.244976 
L 259.829752 104.336971 
L 262.904132 106.472283 
L 265.978512 108.649671 
L 269.052893 110.867935 
L 272.127273 113.125903 
L 275.201653 115.422442 
L 278.276033 117.756449 
L 281.350413 120.126851 
L 284.424793 122.532608 
L 287.499174 124.972709 
L 290.573554 127.446173 
L 293.647934 129.952045 
L 296.722314 132.489398 
L 299.796694 135.057332 
L 302.871074 137.654973 
L 305.945455 140.281472 
L 309.019835 142.936002 
L 312.094215 145.617763 
L 315.168595 148.325976 
L 318.242975 151.059884 
L 321.317355 153.818753 
L 324.391736 156.601869 
L 327.466116 159.408539 
L 330.540496 162.238089 
L 333.614876 165.089864 
L 336.689256 167.96323 
L 339.763636 170.857569 
L 342.838017 173.772281 
L 345.912397 176.706784 
L 348.986777 179.660511 
L 352.061157 182.632913 
L 355.135537 185.623457 
L 358.209917 188.631622 
L 361.284298 191.656906 
L 364.358678 194.698819 
L 367.433058 197.756885 
L 370.507438 200.830642 
L 373.581818 203.919643 
" style="fill:none;stroke:#ff0000;stroke-linecap:square;"/>
   </g>
   <g id="line2d_32">
    <path clip-path="url(#pa10272dcbf)" d="M 69.218182 146.523515 
L 72.292562 140.425788 
L 75.366942 134.718646 
L 78.441322 129.383615 
L 81.515702 124.403092 
L 84.590083 119.760308 
L 87.664463 115.439286 
L 90.738843 111.424807 
L 93.813223 107.70237 
L 96.887603 104.258161 
L 99.961983 101.079019 
L 103.036364 98.152404 
L 106.110744 95.466373 
L 109.185124 93.009544 
L 112.259504 90.771075 
L 115.333884 88.740639 
L 118.408264 86.908393 
L 121.482645 85.264963 
L 124.557025 83.801417 
L 127.631405 82.509247 
L 130.705785 81.380346 
L 133.780165 80.40699 
L 136.854545 79.581822 
L 139.928926 78.897832 
L 143.003306 78.348342 
L 146.077686 77.92699 
L 149.152066 77.627715 
L 152.226446 77.444741 
L 155.300826 77.372568 
L 158.375207 77.405954 
L 161.449587 77.539906 
L 164.523967 77.769666 
L 167.598347 78.090704 
L 170.672727 78.498701 
L 173.747107 78.989544 
L 176.821488 79.559313 
L 179.895868 80.204276 
L 182.970248 80.920876 
L 186.044628 81.705723 
L 189.119008 82.55559 
L 192.193388 83.467401 
L 195.267769 84.438226 
L 198.342149 85.465273 
L 201.416529 86.545883 
L 204.490909 87.677522 
L 207.565289 88.857777 
L 210.639669 90.084347 
L 213.71405 91.355042 
L 216.78843 92.667774 
L 219.86281 94.020556 
L 222.93719 95.411492 
L 226.01157 96.838778 
L 229.08595 98.300694 
L 232.160331 99.795603 
L 235.234711 101.321943 
L 238.309091 102.878227 
L 241.383471 104.463041 
L 244.457851 106.075033 
L 247.532231 107.712918 
L 250.606612 109.375471 
L 253.680992 111.061526 
L 256.755372 112.769971 
L 259.829752 114.499746 
L 262.904132 116.249843 
L 265.978512 118.019301 
L 269.052893 119.807203 
L 272.127273 121.612677 
L 275.201653 123.434892 
L 278.276033 125.273056 
L 281.350413 127.126415 
L 284.424793 128.99425 
L 287.499174 130.875875 
L 290.573554 132.770639 
L 293.647934 134.677921 
L 296.722314 136.597127 
L 299.796694 138.527695 
L 302.871074 140.469086 
L 305.945455 142.420789 
L 309.019835 144.382316 
L 312.094215 146.353201 
L 315.168595 148.333004 
L 318.242975 150.321301 
L 321.317355 152.31769 
L 324.391736 154.32179 
L 327.466116 156.333235 
L 330.540496 158.351678 
L 333.614876 160.376788 
L 336.689256 162.408249 
L 339.763636 164.445761 
L 342.838017 166.489038 
L 345.912397 168.537807 
L 348.986777 170.591809 
L 352.061157 172.650795 
L 355.135537 174.714531 
L 358.209917 176.78279 
L 361.284298 178.85536 
L 364.358678 180.932037 
L 367.433058 183.012625 
L 370.507438 185.096941 
L 373.581818 187.184808 
" style="fill:none;stroke:#ff0000;stroke-linecap:square;"/>
   </g>
   <g id="line2d_33">
    <path clip-path="url(#pa10272dcbf)" d="M 69.218182 142.43024 
L 72.292562 138.292181 
L 75.366942 134.387113 
L 78.441322 130.707715 
L 81.515702 127.246899 
L 84.590083 123.997797 
L 87.664463 120.953758 
L 90.738843 118.10834 
L 93.813223 115.455302 
L 96.887603 112.988601 
L 99.961983 110.702382 
L 103.036364 108.590976 
L 106.110744 106.648891 
L 109.185124 104.870806 
L 112.259504 103.251571 
L 115.333884 101.786193 
L 118.408264 100.469841 
L 121.482645 99.297831 
L 124.557025 98.265629 
L 127.631405 97.368842 
L 130.705785 96.603218 
L 133.780165 95.964634 
L 136.854545 95.4491 
L 139.928926 95.05275 
L 143.003306 94.771839 
L 146.077686 94.602741 
L 149.152066 94.541944 
L 152.226446 94.586044 
L 155.300826 94.731746 
L 158.375207 94.975859 
L 161.449587 95.31529 
L 164.523967 95.747045 
L 167.598347 96.268223 
L 170.672727 96.876015 
L 173.747107 97.567701 
L 176.821488 98.340644 
L 179.895868 99.192291 
L 182.970248 100.12017 
L 186.044628 101.121887 
L 189.119008 102.19512 
L 192.193388 103.337624 
L 195.267769 104.547223 
L 198.342149 105.821807 
L 201.416529 107.159337 
L 204.490909 108.557833 
L 207.565289 110.015382 
L 210.639669 111.530127 
L 213.71405 113.100272 
L 216.78843 114.724076 
L 219.86281 116.399854 
L 222.93719 118.125973 
L 226.01157 119.90085 
L 229.08595 121.722955 
L 232.160331 123.590804 
L 235.234711 125.502959 
L 238.309091 127.458028 
L 241.383471 129.454664 
L 244.457851 131.49156 
L 247.532231 133.567452 
L 250.606612 135.681115 
L 253.680992 137.831361 
L 256.755372 140.017042 
L 259.829752 142.237044 
L 262.904132 144.49029 
L 265.978512 146.775734 
L 269.052893 149.092365 
L 272.127273 151.439204 
L 275.201653 153.8153 
L 278.276033 156.219736 
L 281.350413 158.651621 
L 284.424793 161.110093 
L 287.499174 163.594315 
L 290.573554 166.10348 
L 293.647934 168.636803 
L 296.722314 171.193526 
L 299.796694 173.772914 
L 302.871074 176.374254 
L 305.945455 178.996857 
L 309.019835 181.640054 
L 312.094215 184.3032 
L 315.168595 186.985666 
L 318.242975 189.686847 
L 321.317355 192.406154 
L 324.391736 195.143017 
L 327.466116 197.896886 
L 330.540496 200.667225 
L 333.614876 203.453518 
L 336.689256 206.255264 
L 339.763636 209.071976 
L 342.838017 211.903184 
L 345.912397 214.748434 
L 348.986777 217.607284 
L 352.061157 220.479306 
L 355.135537 223.364088 
L 358.209917 226.261227 
L 361.284298 229.170337 
L 364.358678 232.09104 
L 367.433058 235.022972 
L 370.507438 237.965782 
L 373.581818 240.919126 
" style="fill:none;stroke:#ff0000;stroke-linecap:square;"/>
   </g>
   <g id="line2d_34">
    <path clip-path="url(#pa10272dcbf)" d="M 69.218182 148.344241 
L 72.292562 142.369901 
L 75.366942 136.613337 
L 78.441322 131.070388 
L 81.515702 125.736972 
L 84.590083 120.609087 
L 87.664463 115.682807 
L 90.738843 110.954279 
L 93.813223 106.419725 
L 96.887603 102.07544 
L 99.961983 97.917789 
L 103.036364 93.943206 
L 106.110744 90.148193 
L 109.185124 86.529321 
L 112.259504 83.083223 
L 115.333884 79.8066 
L 118.408264 76.696212 
L 121.482645 73.748886 
L 124.557025 70.961504 
L 127.631405 68.331012 
L 130.705785 65.854412 
L 133.780165 63.528764 
L 136.854545 61.351184 
L 139.928926 59.318844 
L 143.003306 57.428968 
L 146.077686 55.678835 
L 149.152066 54.065775 
L 152.226446 52.58717 
L 155.300826 51.24045 
L 158.375207 50.023097 
L 161.449587 48.932638 
L 164.523967 47.966649 
L 167.598347 47.122752 
L 170.672727 46.398616 
L 173.747107 45.791951 
L 176.821488 45.300513 
L 179.895868 44.922102 
L 182.970248 44.654557 
L 186.044628 44.495761 
L 189.119008 44.443636 
L 192.193388 44.496145 
L 195.267769 44.651287 
L 198.342149 44.907103 
L 201.416529 45.261669 
L 204.490909 45.713099 
L 207.565289 46.259541 
L 210.639669 46.899181 
L 213.71405 47.630238 
L 216.78843 48.450966 
L 219.86281 49.359652 
L 222.93719 50.354615 
L 226.01157 51.434206 
L 229.08595 52.59681 
L 232.160331 53.840839 
L 235.234711 55.16474 
L 238.309091 56.566985 
L 241.383471 58.046077 
L 244.457851 59.60055 
L 247.532231 61.228962 
L 250.606612 62.929901 
L 253.680992 64.701981 
L 256.755372 66.543844 
L 259.829752 68.454155 
L 262.904132 70.431608 
L 265.978512 72.47492 
L 269.052893 74.582832 
L 272.127273 76.754111 
L 275.201653 78.987545 
L 278.276033 81.281947 
L 281.350413 83.636153 
L 284.424793 86.04902 
L 287.499174 88.519426 
L 290.573554 91.046274 
L 293.647934 93.628485 
L 296.722314 96.265 
L 299.796694 98.954783 
L 302.871074 101.696815 
L 305.945455 104.4901 
L 309.019835 107.333656 
L 312.094215 110.226525 
L 315.168595 113.167764 
L 318.242975 116.156448 
L 321.317355 119.191672 
L 324.391736 122.272546 
L 327.466116 125.398198 
L 330.540496 128.567773 
L 333.614876 131.780431 
L 336.689256 135.035349 
L 339.763636 138.331721 
L 342.838017 141.668754 
L 345.912397 145.045671 
L 348.986777 148.46171 
L 352.061157 151.916125 
L 355.135537 155.408181 
L 358.209917 158.937159 
L 361.284298 162.502355 
L 364.358678 166.103076 
L 367.433058 169.738644 
L 370.507438 173.408392 
L 373.581818 177.111669 
" style="fill:none;stroke:#ff0000;stroke-linecap:square;"/>
   </g>
   <g id="line2d_35">
    <path clip-path="url(#pa10272dcbf)" d="M 69.218182 136.23293 
L 72.292562 132.302424 
L 75.366942 128.647117 
L 78.441322 125.254905 
L 81.515702 122.114215 
L 84.590083 119.213986 
L 87.664463 116.54364 
L 90.738843 114.093067 
L 93.813223 111.852601 
L 96.887603 109.812999 
L 99.961983 107.965428 
L 103.036364 106.301441 
L 106.110744 104.812964 
L 109.185124 103.492276 
L 112.259504 102.331999 
L 115.333884 101.325076 
L 118.408264 100.464763 
L 121.482645 99.744611 
L 124.557025 99.158456 
L 127.631405 98.700403 
L 130.705785 98.364818 
L 133.780165 98.146316 
L 136.854545 98.039746 
L 139.928926 98.040184 
L 143.003306 98.142925 
L 146.077686 98.343469 
L 149.152066 98.637514 
L 152.226446 99.020947 
L 155.300826 99.489837 
L 158.375207 100.040425 
L 161.449587 100.669119 
L 164.523967 101.372482 
L 167.598347 102.14723 
L 170.672727 102.990224 
L 173.747107 103.898461 
L 176.821488 104.869073 
L 179.895868 105.899316 
L 182.970248 106.986566 
L 186.044628 108.128317 
L 189.119008 109.322172 
L 192.193388 110.565839 
L 195.267769 111.857126 
L 198.342149 113.19394 
L 201.416529 114.574278 
L 204.490909 115.996225 
L 207.565289 117.457952 
L 210.639669 118.957708 
L 213.71405 120.493822 
L 216.78843 122.064694 
L 219.86281 123.668795 
L 222.93719 125.304664 
L 226.01157 126.970904 
L 229.08595 128.666178 
L 232.160331 130.38921 
L 235.234711 132.138778 
L 238.309091 133.913716 
L 241.383471 135.712908 
L 244.457851 137.535287 
L 247.532231 139.379833 
L 250.606612 141.245571 
L 253.680992 143.131569 
L 256.755372 145.036936 
L 259.829752 146.96082 
L 262.904132 148.902406 
L 265.978512 150.860917 
L 269.052893 152.835607 
L 272.127273 154.825765 
L 275.201653 156.830711 
L 278.276033 158.849794 
L 281.350413 160.882392 
L 284.424793 162.927912 
L 287.499174 164.985784 
L 290.573554 167.055465 
L 293.647934 169.136436 
L 296.722314 171.228201 
L 299.796694 173.330284 
L 302.871074 175.442232 
L 305.945455 177.563611 
L 309.019835 179.694006 
L 312.094215 181.83302 
L 315.168595 183.980275 
L 318.242975 186.135408 
L 321.317355 188.298072 
L 324.391736 190.467936 
L 327.466116 192.644684 
L 330.540496 194.828013 
L 333.614876 197.017633 
L 336.689256 199.213268 
L 339.763636 201.414652 
L 342.838017 203.621534 
L 345.912397 205.833671 
L 348.986777 208.050833 
L 352.061157 210.272797 
L 355.135537 212.499354 
L 358.209917 214.7303 
L 361.284298 216.965444 
L 364.358678 219.2046 
L 367.433058 221.447591 
L 370.507438 223.69425 
L 373.581818 225.944415 
" style="fill:none;stroke:#ff0000;stroke-linecap:square;"/>
   </g>
   <g id="line2d_36">
    <path clip-path="url(#pa10272dcbf)" d="M 69.218182 148.640398 
L 72.292562 142.426822 
L 75.366942 136.554632 
L 78.441322 131.01071 
L 81.515702 125.782442 
L 84.590083 120.857698 
L 87.664463 116.224815 
L 90.738843 111.872577 
L 93.813223 107.7902 
L 96.887603 103.967313 
L 99.961983 100.393946 
L 103.036364 97.060509 
L 106.110744 93.957784 
L 109.185124 91.076904 
L 112.259504 88.409345 
L 115.333884 85.946909 
L 118.408264 83.681714 
L 121.482645 81.606181 
L 124.557025 79.713021 
L 127.631405 77.995226 
L 130.705785 76.446058 
L 133.780165 75.059036 
L 136.854545 73.82793 
L 139.928926 72.746749 
L 143.003306 71.809731 
L 146.077686 71.011336 
L 149.152066 70.346238 
L 152.226446 69.809314 
L 155.300826 69.395639 
L 158.375207 69.100477 
L 161.449587 68.919274 
L 164.523967 68.84765 
L 167.598347 68.881395 
L 170.672727 69.01646 
L 173.747107 69.248951 
L 176.821488 69.575124 
L 179.895868 69.99138 
L 182.970248 70.494258 
L 186.044628 71.080427 
L 189.119008 71.746688 
L 192.193388 72.489963 
L 195.267769 73.307292 
L 198.342149 74.195831 
L 201.416529 75.152841 
L 204.490909 76.175693 
L 207.565289 77.261856 
L 210.639669 78.408898 
L 213.71405 79.614478 
L 216.78843 80.876347 
L 219.86281 82.192343 
L 222.93719 83.560386 
L 226.01157 84.978475 
L 229.08595 86.444687 
L 232.160331 87.957173 
L 235.234711 89.514156 
L 238.309091 91.113924 
L 241.383471 92.754834 
L 244.457851 94.435305 
L 247.532231 96.153816 
L 250.606612 97.908907 
L 253.680992 99.699171 
L 256.755372 101.523256 
L 259.829752 103.379864 
L 262.904132 105.267744 
L 265.978512 107.185694 
L 269.052893 109.132559 
L 272.127273 111.107228 
L 275.201653 113.108633 
L 278.276033 115.135746 
L 281.350413 117.187579 
L 284.424793 119.263183 
L 287.499174 121.361643 
L 290.573554 123.482082 
L 293.647934 125.623654 
L 296.722314 127.785549 
L 299.796694 129.966984 
L 302.871074 132.16721 
L 305.945455 134.385504 
L 309.019835 136.621171 
L 312.094215 138.873544 
L 315.168595 141.141982 
L 318.242975 143.425866 
L 321.317355 145.724603 
L 324.391736 148.037623 
L 327.466116 150.364377 
L 330.540496 152.704336 
L 333.614876 155.056994 
L 336.689256 157.421862 
L 339.763636 159.798471 
L 342.838017 162.186371 
L 345.912397 164.585127 
L 348.986777 166.994321 
L 352.061157 169.413554 
L 355.135537 171.842439 
L 358.209917 174.280605 
L 361.284298 176.727696 
L 364.358678 179.183368 
L 367.433058 181.647292 
L 370.507438 184.119151 
L 373.581818 186.59864 
" style="fill:none;stroke:#ff0000;stroke-linecap:square;"/>
   </g>
   <g id="line2d_37">
    <path clip-path="url(#pa10272dcbf)" d="M 69.218182 167.130698 
L 72.292562 161.372805 
L 75.366942 155.94211 
L 78.441322 150.826275 
L 81.515702 146.013419 
L 84.590083 141.492095 
L 87.664463 137.251275 
L 90.738843 133.280336 
L 93.813223 129.569042 
L 96.887603 126.10753 
L 99.961983 122.886295 
L 103.036364 119.896178 
L 106.110744 117.128354 
L 109.185124 114.574314 
L 112.259504 112.225859 
L 115.333884 110.075085 
L 118.408264 108.114373 
L 121.482645 106.336378 
L 124.557025 104.73402 
L 127.631405 103.30047 
L 130.705785 102.029145 
L 133.780165 100.913698 
L 136.854545 99.948008 
L 139.928926 99.126172 
L 143.003306 98.442497 
L 146.077686 97.891491 
L 149.152066 97.467858 
L 152.226446 97.16649 
L 155.300826 96.98246 
L 158.375207 96.911011 
L 161.449587 96.94756 
L 164.523967 97.087679 
L 167.598347 97.3271 
L 170.672727 97.661704 
L 173.747107 98.087514 
L 176.821488 98.600696 
L 179.895868 99.197546 
L 182.970248 99.874492 
L 186.044628 100.628085 
L 189.119008 101.454998 
L 192.193388 102.352019 
L 195.267769 103.316045 
L 198.342149 104.344083 
L 201.416529 105.433245 
L 204.490909 106.580739 
L 207.565289 107.783874 
L 210.639669 109.040047 
L 213.71405 110.346749 
L 216.78843 111.701554 
L 219.86281 113.102123 
L 222.93719 114.546195 
L 226.01157 116.031586 
L 229.08595 117.556189 
L 232.160331 119.117968 
L 235.234711 120.714957 
L 238.309091 122.345257 
L 241.383471 124.007033 
L 244.457851 125.698515 
L 247.532231 127.417991 
L 250.606612 129.16381 
L 253.680992 130.934374 
L 256.755372 132.728141 
L 259.829752 134.543622 
L 262.904132 136.379379 
L 265.978512 138.23402 
L 269.052893 140.106204 
L 272.127273 142.015473 
L 275.201653 143.942036 
L 278.276033 145.882789 
L 281.350413 147.836562 
L 284.424793 149.802221 
L 287.499174 151.816976 
L 290.573554 153.921459 
L 293.647934 156.043123 
L 296.722314 158.198915 
L 299.796694 160.39399 
L 302.871074 162.638041 
L 305.945455 164.896353 
L 309.019835 167.204096 
L 312.094215 169.545992 
L 315.168595 171.93626 
L 318.242975 174.374333 
L 321.317355 176.832893 
L 324.391736 179.313543 
L 327.466116 181.81398 
L 330.540496 184.321874 
L 333.614876 186.846924 
L 336.689256 189.406916 
L 339.763636 191.986311 
L 342.838017 194.602774 
L 345.912397 197.257334 
L 348.986777 199.947257 
L 352.061157 202.605994 
L 355.135537 205.163946 
L 358.209917 207.588206 
L 361.284298 209.792584 
L 364.358678 211.822502 
L 367.433058 213.722794 
L 370.507438 215.520189 
L 373.581818 217.288181 
" style="fill:none;stroke:#0000ff;stroke-linecap:square;"/>
   </g>
   <g id="line2d_38">
    <path clip-path="url(#pa10272dcbf)" d="M 69.218182 143.769787 
L 72.292562 138.947294 
L 75.366942 134.340858 
L 78.441322 129.944925 
L 81.515702 125.754115 
L 84.590083 121.763219 
L 87.664463 117.96719 
L 90.738843 114.36114 
L 93.813223 110.940332 
L 96.887603 107.700175 
L 99.961983 104.636221 
L 103.036364 101.74416 
L 106.110744 99.019811 
L 109.185124 96.459124 
L 112.259504 94.05817 
L 115.333884 91.813139 
L 118.408264 89.720337 
L 121.482645 87.776181 
L 124.557025 85.977195 
L 127.631405 84.320007 
L 130.705785 82.801345 
L 133.780165 81.418034 
L 136.854545 80.166992 
L 139.928926 79.045228 
L 143.003306 78.049839 
L 146.077686 77.178006 
L 149.152066 76.426991 
L 152.226446 75.794137 
L 155.300826 75.276862 
L 158.375207 74.872657 
L 161.449587 74.579088 
L 164.523967 74.393786 
L 167.598347 74.314453 
L 170.672727 74.338853 
L 173.747107 74.464813 
L 176.821488 74.690221 
L 179.895868 75.013026 
L 182.970248 75.431229 
L 186.044628 75.942891 
L 189.119008 76.546123 
L 192.193388 77.239088 
L 195.267769 78.020001 
L 198.342149 78.887123 
L 201.416529 79.838764 
L 204.490909 80.873277 
L 207.565289 81.989061 
L 210.639669 83.184556 
L 213.71405 84.458244 
L 216.78843 85.808648 
L 219.86281 87.234329 
L 222.93719 88.733884 
L 226.01157 90.305949 
L 229.08595 91.949193 
L 232.160331 93.662322 
L 235.234711 95.444072 
L 238.309091 97.293213 
L 241.383471 99.208547 
L 244.457851 101.188905 
L 247.532231 103.233146 
L 250.606612 105.340161 
L 253.680992 107.508866 
L 256.755372 109.738205 
L 259.829752 112.027147 
L 262.904132 114.374687 
L 265.978512 116.779845 
L 269.052893 119.241664 
L 272.127273 121.745955 
L 275.201653 124.303599 
L 278.276033 126.914909 
L 281.350413 129.579018 
L 284.424793 132.295081 
L 287.499174 135.045342 
L 290.573554 137.813957 
L 293.647934 140.628062 
L 296.722314 143.481296 
L 299.796694 146.369543 
L 302.871074 149.290036 
L 305.945455 152.254271 
L 309.019835 155.254646 
L 312.094215 158.295194 
L 315.168595 161.377413 
L 318.242975 164.504753 
L 321.317355 167.686381 
L 324.391736 170.927548 
L 327.466116 174.237719 
L 330.540496 177.632137 
L 333.614876 181.090346 
L 336.689256 184.614431 
L 339.763636 188.193244 
L 342.838017 191.828035 
L 345.912397 195.504574 
L 348.986777 199.218745 
L 352.061157 202.974977 
L 355.135537 206.76729 
L 358.209917 210.578246 
L 361.284298 214.377873 
L 364.358678 218.131598 
L 367.433058 221.771719 
L 370.507438 225.188013 
L 373.581818 228.347325 
" style="fill:none;stroke:#0000ff;stroke-linecap:square;"/>
   </g>
   <g id="line2d_39">
    <path clip-path="url(#pa10272dcbf)" d="M 69.218182 150.212763 
L 72.292562 145.916348 
L 75.366942 141.850338 
L 78.441322 138.007588 
L 81.515702 134.381202 
L 84.590083 130.964519 
L 87.664463 127.751105 
L 90.738843 124.734747 
L 93.813223 121.909444 
L 96.887603 119.269395 
L 99.961983 116.808998 
L 103.036364 114.52284 
L 106.110744 112.405688 
L 109.185124 110.452488 
L 112.259504 108.65835 
L 115.333884 107.018552 
L 118.408264 105.528526 
L 121.482645 104.183855 
L 124.557025 102.98027 
L 127.631405 101.913642 
L 130.705785 100.979976 
L 133.780165 100.175411 
L 136.854545 99.496208 
L 139.928926 98.938754 
L 143.003306 98.49955 
L 146.077686 98.175211 
L 149.152066 97.962462 
L 152.226446 97.858133 
L 155.300826 97.859155 
L 158.375207 97.962559 
L 161.449587 98.165467 
L 164.523967 98.465095 
L 167.598347 98.858748 
L 170.672727 99.343814 
L 173.747107 99.917763 
L 176.821488 100.578146 
L 179.895868 101.322589 
L 182.970248 102.148793 
L 186.044628 103.05453 
L 189.119008 104.037642 
L 192.193388 105.096035 
L 195.267769 106.227682 
L 198.342149 107.430617 
L 201.416529 108.702933 
L 204.490909 110.042783 
L 207.565289 111.448376 
L 210.639669 112.917973 
L 213.71405 114.44989 
L 216.78843 116.042491 
L 219.86281 117.694191 
L 222.93719 119.403452 
L 226.01157 121.168782 
L 229.08595 122.98873 
L 232.160331 124.861893 
L 235.234711 126.786906 
L 238.309091 128.762444 
L 241.383471 130.787221 
L 244.457851 132.859991 
L 247.532231 134.97954 
L 250.606612 137.144692 
L 253.680992 139.354304 
L 256.755372 141.607265 
L 259.829752 143.902497 
L 262.904132 146.238953 
L 265.978512 148.615615 
L 269.052893 151.031493 
L 272.127273 153.474729 
L 275.201653 155.954083 
L 278.276033 158.469636 
L 281.350413 161.020505 
L 284.424793 163.605836 
L 287.499174 166.213113 
L 290.573554 168.830779 
L 293.647934 171.477261 
L 296.722314 174.148806 
L 299.796694 176.841553 
L 302.871074 179.552804 
L 305.945455 182.291652 
L 309.019835 185.055863 
L 312.094215 187.848043 
L 315.168595 190.673581 
L 318.242975 193.537334 
L 321.317355 196.44766 
L 324.391736 199.412293 
L 327.466116 202.444652 
L 330.540496 205.564845 
L 333.614876 208.742132 
L 336.689256 211.971 
L 339.763636 215.224585 
L 342.838017 218.474679 
L 345.912397 221.685652 
L 348.986777 224.792247 
L 352.061157 227.759409 
L 355.135537 230.497178 
L 358.209917 233.023652 
L 361.284298 235.265467 
L 364.358678 237.27302 
L 367.433058 239.060607 
L 370.507438 240.62374 
L 373.581818 242.011232 
" style="fill:none;stroke:#0000ff;stroke-linecap:square;"/>
   </g>
   <g id="line2d_40">
    <path clip-path="url(#pa10272dcbf)" d="M 69.218182 146.71358 
L 72.292562 142.132841 
L 75.366942 137.660173 
L 78.441322 133.296359 
L 81.515702 129.042105 
L 84.590083 124.898048 
L 87.664463 120.864756 
L 90.738843 116.942732 
L 93.813223 113.132418 
L 96.887603 109.434196 
L 99.961983 105.848395 
L 103.036364 102.375292 
L 106.110744 99.01511 
L 109.185124 95.768029 
L 112.259504 92.634183 
L 115.333884 89.613662 
L 118.408264 86.706518 
L 121.482645 83.912762 
L 124.557025 81.232372 
L 127.631405 78.66529 
L 130.705785 76.211426 
L 133.780165 73.87066 
L 136.854545 71.642843 
L 139.928926 69.527797 
L 143.003306 67.52532 
L 146.077686 65.635187 
L 149.152066 63.857147 
L 152.226446 62.19093 
L 155.300826 60.636245 
L 158.375207 59.19278 
L 161.449587 57.860209 
L 164.523967 56.638185 
L 167.598347 55.526349 
L 170.672727 54.524324 
L 173.747107 53.631721 
L 176.821488 52.848138 
L 179.895868 52.173161 
L 182.970248 51.606363 
L 186.044628 51.14731 
L 189.119008 50.795555 
L 192.193388 50.550643 
L 195.267769 50.412112 
L 198.342149 50.379491 
L 201.416529 50.452302 
L 204.490909 50.630061 
L 207.565289 50.912277 
L 210.639669 51.298456 
L 213.71405 51.788096 
L 216.78843 52.380693 
L 219.86281 53.075738 
L 222.93719 53.872719 
L 226.01157 54.77112 
L 229.08595 55.770423 
L 232.160331 56.870107 
L 235.234711 58.06965 
L 238.309091 59.368527 
L 241.383471 60.766212 
L 244.457851 62.262179 
L 247.532231 63.855901 
L 250.606612 65.546848 
L 253.680992 67.334493 
L 256.755372 69.218307 
L 259.829752 71.197762 
L 262.904132 73.27233 
L 265.978512 75.441483 
L 269.052893 77.704696 
L 272.127273 80.078285 
L 275.201653 82.546742 
L 278.276033 85.108018 
L 281.350413 87.761587 
L 284.424793 90.506927 
L 287.499174 93.360957 
L 290.573554 96.331978 
L 293.647934 99.397652 
L 296.722314 102.561658 
L 299.796694 105.829395 
L 302.871074 109.19735 
L 305.945455 112.656654 
L 309.019835 116.2106 
L 312.094215 119.85875 
L 315.168595 123.604706 
L 318.242975 127.450503 
L 321.317355 131.394207 
L 324.391736 135.431302 
L 327.466116 139.554751 
L 330.540496 143.769223 
L 333.614876 148.071879 
L 336.689256 152.473675 
L 339.763636 156.987445 
L 342.838017 161.616315 
L 345.912397 166.362385 
L 348.986777 171.220032 
L 352.061157 176.181937 
L 355.135537 181.232638 
L 358.209917 186.340223 
L 361.284298 191.417104 
L 364.358678 196.41246 
L 367.433058 201.250297 
L 370.507438 205.796516 
L 373.581818 210.03175 
" style="fill:none;stroke:#0000ff;stroke-linecap:square;"/>
   </g>
   <g id="line2d_41">
    <path clip-path="url(#pa10272dcbf)" d="M 69.218182 140.412832 
L 72.292562 135.044903 
L 75.366942 129.944928 
L 78.441322 125.104179 
L 81.515702 120.514242 
L 84.590083 116.167008 
L 87.664463 112.054661 
L 90.738843 108.169665 
L 93.813223 104.504755 
L 96.887603 101.052926 
L 99.961983 97.807424 
L 103.036364 94.761734 
L 106.110744 91.909574 
L 109.185124 89.244882 
L 112.259504 86.761813 
L 115.333884 84.454726 
L 118.408264 82.318179 
L 121.482645 80.346921 
L 124.557025 78.535885 
L 127.631405 76.880178 
L 130.705785 75.375081 
L 133.780165 74.016035 
L 136.854545 72.798642 
L 139.928926 71.718652 
L 143.003306 70.771964 
L 146.077686 69.954617 
L 149.152066 69.262785 
L 152.226446 68.692772 
L 155.300826 68.241008 
L 158.375207 67.904045 
L 161.449587 67.67855 
L 164.523967 67.561303 
L 167.598347 67.549193 
L 170.672727 67.639212 
L 173.747107 67.828453 
L 176.821488 68.114106 
L 179.895868 68.493453 
L 182.970248 68.963869 
L 186.044628 69.522812 
L 189.119008 70.167826 
L 192.193388 70.896535 
L 195.267769 71.70664 
L 198.342149 72.595918 
L 201.416529 73.562218 
L 204.490909 74.603458 
L 207.565289 75.717623 
L 210.639669 76.902764 
L 213.71405 78.156995 
L 216.78843 79.478488 
L 219.86281 80.865475 
L 222.93719 82.316244 
L 226.01157 83.829137 
L 229.08595 85.402548 
L 232.160331 87.034922 
L 235.234711 88.724752 
L 238.309091 90.470579 
L 241.383471 92.27099 
L 244.457851 94.124613 
L 247.532231 96.030122 
L 250.606612 97.98623 
L 253.680992 99.991689 
L 256.755372 102.045291 
L 259.829752 104.145862 
L 262.904132 106.292267 
L 265.978512 108.483404 
L 269.052893 110.718202 
L 272.127273 112.982391 
L 275.201653 115.286738 
L 278.276033 117.631469 
L 281.350413 120.015639 
L 284.424793 122.438331 
L 287.499174 124.885938 
L 290.573554 127.345936 
L 293.647934 129.838187 
L 296.722314 132.359131 
L 299.796694 134.904125 
L 302.871074 137.469915 
L 305.945455 140.066849 
L 309.019835 142.692511 
L 312.094215 145.348087 
L 315.168595 148.034053 
L 318.242975 150.74977 
L 321.317355 153.496877 
L 324.391736 156.272729 
L 327.466116 159.075923 
L 330.540496 161.900987 
L 333.614876 164.739112 
L 336.689256 167.562539 
L 339.763636 170.371332 
L 342.838017 173.161193 
L 345.912397 175.93459 
L 348.986777 178.710935 
L 352.061157 181.531115 
L 355.135537 184.43186 
L 358.209917 187.417731 
L 361.284298 190.537267 
L 364.358678 193.754462 
L 367.433058 197.016294 
L 370.507438 200.270419 
L 373.581818 203.45904 
" style="fill:none;stroke:#0000ff;stroke-linecap:square;"/>
   </g>
   <g id="line2d_42">
    <path clip-path="url(#pa10272dcbf)" d="M 69.218182 145.585455 
L 72.292562 139.699918 
L 75.366942 134.166895 
L 78.441322 128.971908 
L 81.515702 124.101057 
L 84.590083 119.540992 
L 87.664463 115.278896 
L 90.738843 111.30246 
L 93.813223 107.599864 
L 96.887603 104.159754 
L 99.961983 100.971228 
L 103.036364 98.023813 
L 106.110744 95.307452 
L 109.185124 92.812483 
L 112.259504 90.529626 
L 115.333884 88.449966 
L 118.408264 86.564938 
L 121.482645 84.866315 
L 124.557025 83.346194 
L 127.631405 81.996981 
L 130.705785 80.811379 
L 133.780165 79.782378 
L 136.854545 78.903244 
L 139.928926 78.167504 
L 143.003306 77.568939 
L 146.077686 77.101573 
L 149.152066 76.759663 
L 152.226446 76.537691 
L 155.300826 76.430353 
L 158.375207 76.432553 
L 161.449587 76.539392 
L 164.523967 76.746163 
L 167.598347 77.04834 
L 170.672727 77.441575 
L 173.747107 77.92169 
L 176.821488 78.484665 
L 179.895868 79.12664 
L 182.970248 79.843903 
L 186.044628 80.632887 
L 189.119008 81.490163 
L 192.193388 82.412434 
L 195.267769 83.396532 
L 198.342149 84.439411 
L 201.416529 85.538144 
L 204.490909 86.689916 
L 207.565289 87.892022 
L 210.639669 89.141863 
L 213.71405 90.436937 
L 216.78843 91.774843 
L 219.86281 93.15327 
L 222.93719 94.569999 
L 226.01157 96.022895 
L 229.08595 97.509907 
L 232.160331 99.029062 
L 235.234711 100.578467 
L 238.309091 102.156298 
L 241.383471 103.760805 
L 244.457851 105.390305 
L 247.532231 107.04318 
L 250.606612 108.717876 
L 253.680992 110.412898 
L 256.755372 112.126811 
L 259.829752 113.858234 
L 262.904132 115.605843 
L 265.978512 117.368362 
L 269.052893 119.144567 
L 272.127273 120.957862 
L 275.201653 122.785251 
L 278.276033 124.623418 
L 281.350413 126.471316 
L 284.424793 128.327941 
L 287.499174 130.23672 
L 290.573554 132.231142 
L 293.647934 134.239611 
L 296.722314 136.280481 
L 299.796694 138.357382 
L 302.871074 140.46862 
L 305.945455 142.591923 
L 309.019835 144.757812 
L 312.094215 146.951755 
L 315.168595 149.179326 
L 318.242975 151.431771 
L 321.317355 153.684088 
L 324.391736 155.922145 
L 327.466116 158.131936 
L 330.540496 160.290909 
L 333.614876 162.41712 
L 336.689256 164.48075 
L 339.763636 166.491714 
L 342.838017 168.451228 
L 345.912397 170.356548 
L 348.986777 172.196436 
L 352.061157 173.959688 
L 355.135537 175.590927 
L 358.209917 177.093832 
L 361.284298 178.462548 
L 364.358678 179.749107 
L 367.433058 181.021247 
L 370.507438 182.428988 
L 373.581818 184.038213 
" style="fill:none;stroke:#0000ff;stroke-linecap:square;"/>
   </g>
   <g id="line2d_43">
    <path clip-path="url(#pa10272dcbf)" d="M 69.218182 142.706996 
L 72.292562 138.49907 
L 75.366942 134.535023 
L 78.441322 130.806419 
L 81.515702 127.305133 
L 84.590083 124.023348 
L 87.664463 120.953532 
L 90.738843 118.088436 
L 93.813223 115.421078 
L 96.887603 112.944732 
L 99.961983 110.652922 
L 103.036364 108.539408 
L 106.110744 106.598181 
L 109.185124 104.823448 
L 112.259504 103.209631 
L 115.333884 101.751354 
L 118.408264 100.443435 
L 121.482645 99.280881 
L 124.557025 98.258879 
L 127.631405 97.37279 
L 130.705785 96.61814 
L 133.780165 95.99062 
L 136.854545 95.48607 
L 139.928926 95.100482 
L 143.003306 94.829989 
L 146.077686 94.670864 
L 149.152066 94.619509 
L 152.226446 94.672456 
L 155.300826 94.826357 
L 158.375207 95.077983 
L 161.449587 95.424219 
L 164.523967 95.862058 
L 167.598347 96.388598 
L 170.672727 97.00104 
L 173.747107 97.696681 
L 176.821488 98.47291 
L 179.895868 99.327209 
L 182.970248 100.257145 
L 186.044628 101.260371 
L 189.119008 102.334617 
L 192.193388 103.477694 
L 195.267769 104.687487 
L 198.342149 105.961951 
L 201.416529 107.299112 
L 204.490909 108.697063 
L 207.565289 110.153962 
L 210.639669 111.668027 
L 213.71405 113.237536 
L 216.78843 114.860828 
L 219.86281 116.536294 
L 222.93719 118.262379 
L 226.01157 120.037581 
L 229.08595 121.860447 
L 232.160331 123.729573 
L 235.234711 125.643599 
L 238.309091 127.601211 
L 241.383471 129.601139 
L 244.457851 131.642154 
L 247.532231 133.723065 
L 250.606612 135.842722 
L 253.680992 138.000011 
L 256.755372 140.193856 
L 259.829752 142.423212 
L 262.904132 144.687071 
L 265.978512 146.984456 
L 269.052893 149.31442 
L 272.127273 151.665673 
L 275.201653 154.046557 
L 278.276033 156.457155 
L 281.350413 158.896637 
L 284.424793 161.364199 
L 287.499174 163.851234 
L 290.573554 166.344075 
L 293.647934 168.859603 
L 296.722314 171.396496 
L 299.796694 173.951453 
L 302.871074 176.517115 
L 305.945455 179.106137 
L 309.019835 181.722171 
L 312.094215 184.369042 
L 315.168595 187.061316 
L 318.242975 189.808606 
L 321.317355 192.622321 
L 324.391736 195.511164 
L 327.466116 198.493393 
L 330.540496 201.604779 
L 333.614876 204.790223 
L 336.689256 208.039091 
L 339.763636 211.319698 
L 342.838017 214.604912 
L 345.912397 217.843365 
L 348.986777 220.964816 
L 352.061157 223.95146 
L 355.135537 226.714888 
L 358.209917 229.273367 
L 361.284298 231.572639 
L 364.358678 233.65039 
L 367.433058 235.508576 
L 370.507438 237.163042 
L 373.581818 238.651958 
" style="fill:none;stroke:#0000ff;stroke-linecap:square;"/>
   </g>
   <g id="line2d_44">
    <path clip-path="url(#pa10272dcbf)" d="M 69.218182 148.53581 
L 72.292562 142.470417 
L 75.366942 136.637888 
L 78.441322 131.03263 
L 81.515702 125.649213 
L 84.590083 120.482374 
L 87.664463 115.527006 
L 90.738843 110.778156 
L 93.813223 106.231016 
L 96.887603 101.880922 
L 99.961983 97.723347 
L 103.036364 93.753897 
L 106.110744 89.968309 
L 109.185124 86.36244 
L 112.259504 82.932271 
L 115.333884 79.673898 
L 118.408264 76.58353 
L 121.482645 73.657484 
L 124.557025 70.892184 
L 127.631405 68.284155 
L 130.705785 65.83002 
L 133.780165 63.526499 
L 136.854545 61.370403 
L 139.928926 59.358632 
L 143.003306 57.488176 
L 146.077686 55.756104 
L 149.152066 54.15957 
L 152.226446 52.695805 
L 155.300826 51.362115 
L 158.375207 50.155882 
L 161.449587 49.074558 
L 164.523967 48.115664 
L 167.598347 47.276788 
L 170.672727 46.555584 
L 173.747107 45.949768 
L 176.821488 45.457117 
L 179.895868 45.075467 
L 182.970248 44.80271 
L 186.044628 44.636797 
L 189.119008 44.575729 
L 192.193388 44.617561 
L 195.267769 44.760399 
L 198.342149 45.002395 
L 201.416529 45.341753 
L 204.490909 45.77672 
L 207.565289 46.305589 
L 210.639669 46.926695 
L 213.71405 47.638417 
L 216.78843 48.439173 
L 219.86281 49.327422 
L 222.93719 50.301661 
L 226.01157 51.360424 
L 229.08595 52.502281 
L 232.160331 53.725839 
L 235.234711 55.029736 
L 238.309091 56.412647 
L 241.383471 57.873275 
L 244.457851 59.410358 
L 247.532231 61.022662 
L 250.606612 62.708983 
L 253.680992 64.468147 
L 256.755372 66.299005 
L 259.829752 68.200438 
L 262.904132 70.171351 
L 265.978512 72.210676 
L 269.052893 74.31737 
L 272.127273 76.478532 
L 275.201653 78.703735 
L 278.276033 80.993084 
L 281.350413 83.345628 
L 284.424793 85.760441 
L 287.499174 88.222897 
L 290.573554 90.727774 
L 293.647934 93.289787 
L 296.722314 95.904789 
L 299.796694 98.570272 
L 302.871074 101.290994 
L 305.945455 104.066533 
L 309.019835 106.896574 
L 312.094215 109.781477 
L 315.168595 112.725268 
L 318.242975 115.731491 
L 321.317355 118.798593 
L 324.391736 121.931696 
L 327.466116 125.131014 
L 330.540496 128.387779 
L 333.614876 131.693214 
L 336.689256 135.036229 
L 339.763636 138.399786 
L 342.838017 141.758389 
L 345.912397 145.118474 
L 348.986777 148.469068 
L 352.061157 151.802469 
L 355.135537 155.119091 
L 358.209917 158.450457 
L 361.284298 161.808694 
L 364.358678 165.222186 
L 367.433058 168.708756 
L 370.507438 172.251746 
L 373.581818 175.841533 
" style="fill:none;stroke:#0000ff;stroke-linecap:square;"/>
   </g>
   <g id="line2d_45">
    <path clip-path="url(#pa10272dcbf)" d="M 69.218182 136.239485 
L 72.292562 132.362212 
L 75.366942 128.752319 
L 78.441322 125.398587 
L 81.515702 122.290262 
L 84.590083 119.417033 
L 87.664463 116.769016 
L 90.738843 114.336732 
L 93.813223 112.111096 
L 96.887603 110.083395 
L 99.961983 108.245276 
L 103.036364 106.588731 
L 106.110744 105.106078 
L 109.185124 103.789953 
L 112.259504 102.633295 
L 115.333884 101.629331 
L 118.408264 100.771568 
L 121.482645 100.053777 
L 124.557025 99.469985 
L 127.631405 99.014466 
L 130.705785 98.681726 
L 133.780165 98.466496 
L 136.854545 98.363724 
L 139.928926 98.368564 
L 143.003306 98.476367 
L 146.077686 98.682675 
L 149.152066 98.983214 
L 152.226446 99.37388 
L 155.300826 99.850741 
L 158.375207 100.410024 
L 161.449587 101.048109 
L 164.523967 101.761525 
L 167.598347 102.546942 
L 170.672727 103.401166 
L 173.747107 104.321134 
L 176.821488 105.303908 
L 179.895868 106.346667 
L 182.970248 107.446709 
L 186.044628 108.60144 
L 189.119008 109.808373 
L 192.193388 111.065122 
L 195.267769 112.369397 
L 198.342149 113.719003 
L 201.416529 115.111836 
L 204.490909 116.545874 
L 207.565289 118.019182 
L 210.639669 119.529901 
L 213.71405 121.07625 
L 216.78843 122.656519 
L 219.86281 124.26907 
L 222.93719 125.91233 
L 226.01157 127.584792 
L 229.08595 129.285011 
L 232.160331 131.0116 
L 235.234711 132.76323 
L 238.309091 134.538626 
L 241.383471 136.336567 
L 244.457851 138.155881 
L 247.532231 139.995443 
L 250.606612 141.854178 
L 253.680992 143.731053 
L 256.755372 145.625077 
L 259.829752 147.535303 
L 262.904132 149.460822 
L 265.978512 151.40076 
L 269.052893 153.354285 
L 272.127273 155.317611 
L 275.201653 157.292626 
L 278.276033 159.278866 
L 281.350413 161.275628 
L 284.424793 163.282239 
L 287.499174 165.305989 
L 290.573554 167.336837 
L 293.647934 169.374584 
L 296.722314 171.425243 
L 299.796694 173.487551 
L 302.871074 175.54616 
L 305.945455 177.615147 
L 309.019835 179.71104 
L 312.094215 181.836602 
L 315.168595 184.017476 
L 318.242975 186.265979 
L 321.317355 188.59184 
L 324.391736 190.997969 
L 327.466116 193.501322 
L 330.540496 196.148646 
L 333.614876 198.863529 
L 336.689256 201.618198 
L 339.763636 204.389247 
L 342.838017 207.16242 
L 345.912397 209.875925 
L 348.986777 212.478546 
L 352.061157 215.000085 
L 355.135537 217.384721 
L 358.209917 219.64165 
L 361.284298 221.774516 
L 364.358678 223.777868 
L 367.433058 225.620943 
L 370.507438 227.355785 
L 373.581818 228.984829 
" style="fill:none;stroke:#0000ff;stroke-linecap:square;"/>
   </g>
   <g id="line2d_46">
    <path clip-path="url(#pa10272dcbf)" d="M 69.218182 148.442515 
L 72.292562 142.291952 
L 75.366942 136.47131 
L 78.441322 130.968388 
L 81.515702 125.771441 
L 84.590083 120.869168 
L 87.664463 116.25069 
L 90.738843 111.905534 
L 93.813223 107.823619 
L 96.887603 103.995238 
L 99.961983 100.411046 
L 103.036364 97.062046 
L 106.110744 93.939574 
L 109.185124 91.035283 
L 112.259504 88.34114 
L 115.333884 85.849404 
L 118.408264 83.552621 
L 121.482645 81.443609 
L 124.557025 79.51545 
L 127.631405 77.761481 
L 130.705785 76.17528 
L 133.780165 74.750662 
L 136.854545 73.481663 
L 139.928926 72.362541 
L 143.003306 71.387758 
L 146.077686 70.55198 
L 149.152066 69.850064 
L 152.226446 69.277052 
L 155.300826 68.828167 
L 158.375207 68.498802 
L 161.449587 68.284517 
L 164.523967 68.181029 
L 167.598347 68.184211 
L 170.672727 68.290082 
L 173.747107 68.494802 
L 176.821488 68.794671 
L 179.895868 69.186117 
L 182.970248 69.665698 
L 186.044628 70.230091 
L 189.119008 70.876092 
L 192.193388 71.600611 
L 195.267769 72.400666 
L 198.342149 73.27338 
L 201.416529 74.215977 
L 204.490909 75.22578 
L 207.565289 76.300203 
L 210.639669 77.436753 
L 213.71405 78.633023 
L 216.78843 79.886691 
L 219.86281 81.195514 
L 222.93719 82.557329 
L 226.01157 83.970046 
L 229.08595 85.431649 
L 232.160331 86.940192 
L 235.234711 88.493796 
L 238.309091 90.090645 
L 241.383471 91.72899 
L 244.457851 93.407136 
L 247.532231 95.123453 
L 250.606612 96.876362 
L 253.680992 98.66434 
L 256.755372 100.485915 
L 259.829752 102.339669 
L 262.904132 104.224227 
L 265.978512 106.138266 
L 269.052893 108.080504 
L 272.127273 110.053986 
L 275.201653 112.053709 
L 278.276033 114.07813 
L 281.350413 116.126135 
L 284.424793 118.196645 
L 287.499174 120.301799 
L 290.573554 122.455566 
L 293.647934 124.630915 
L 296.722314 126.834147 
L 299.796694 129.063825 
L 302.871074 131.322393 
L 305.945455 133.599763 
L 309.019835 135.90859 
L 312.094215 138.240635 
L 315.168595 140.595583 
L 318.242975 142.96761 
L 321.317355 145.34436 
L 324.391736 147.723538 
L 327.466116 150.104753 
L 330.540496 152.477927 
L 333.614876 154.856159 
L 336.689256 157.236684 
L 339.763636 159.615154 
L 342.838017 162.005525 
L 345.912397 164.404901 
L 348.986777 166.8188 
L 352.061157 169.227985 
L 355.135537 171.604445 
L 358.209917 173.935483 
L 361.284298 176.216664 
L 364.358678 178.477547 
L 367.433058 180.754378 
L 370.507438 183.11043 
L 373.581818 185.578653 
" style="fill:none;stroke:#0000ff;stroke-linecap:square;"/>
   </g>
   <g id="patch_3">
    <path d="M 54 252 
L 54 34.56 
" style="fill:none;stroke:#000000;stroke-linecap:square;stroke-linejoin:miter;stroke-width:0.8;"/>
   </g>
   <g id="patch_4">
    <path d="M 388.8 252 
L 388.8 34.56 
" style="fill:none;stroke:#000000;stroke-linecap:square;stroke-linejoin:miter;stroke-width:0.8;"/>
   </g>
   <g id="patch_5">
    <path d="M 54 252 
L 388.8 252 
" style="fill:none;stroke:#000000;stroke-linecap:square;stroke-linejoin:miter;stroke-width:0.8;"/>
   </g>
   <g id="patch_6">
    <path d="M 54 34.56 
L 388.8 34.56 
" style="fill:none;stroke:#000000;stroke-linecap:square;stroke-linejoin:miter;stroke-width:0.8;"/>
   </g>
   <g id="text_16">
    <!-- Model/metamodel comparison -->
    <defs>
     <path d="M 9.8125 72.90625 
L 24.515625 72.90625 
L 43.109375 23.296875 
L 61.8125 72.90625 
L 76.515625 72.90625 
L 76.515625 0 
L 66.890625 0 
L 66.890625 64.015625 
L 48.09375 14.015625 
L 38.1875 14.015625 
L 19.390625 64.015625 
L 19.390625 0 
L 9.8125 0 
z
" id="DejaVuSans-4d"/>
     <path d="M 30.609375 48.390625 
Q 23.390625 48.390625 19.1875 42.75 
Q 14.984375 37.109375 14.984375 27.296875 
Q 14.984375 17.484375 19.15625 11.84375 
Q 23.34375 6.203125 30.609375 6.203125 
Q 37.796875 6.203125 41.984375 11.859375 
Q 46.1875 17.53125 46.1875 27.296875 
Q 46.1875 37.015625 41.984375 42.703125 
Q 37.796875 48.390625 30.609375 48.390625 
z
M 30.609375 56 
Q 42.328125 56 49.015625 48.375 
Q 55.71875 40.765625 55.71875 27.296875 
Q 55.71875 13.875 49.015625 6.21875 
Q 42.328125 -1.421875 30.609375 -1.421875 
Q 18.84375 -1.421875 12.171875 6.21875 
Q 5.515625 13.875 5.515625 27.296875 
Q 5.515625 40.765625 12.171875 48.375 
Q 18.84375 56 30.609375 56 
z
" id="DejaVuSans-6f"/>
     <path d="M 45.40625 46.390625 
L 45.40625 75.984375 
L 54.390625 75.984375 
L 54.390625 0 
L 45.40625 0 
L 45.40625 8.203125 
Q 42.578125 3.328125 38.25 0.953125 
Q 33.9375 -1.421875 27.875 -1.421875 
Q 17.96875 -1.421875 11.734375 6.484375 
Q 5.515625 14.40625 5.515625 27.296875 
Q 5.515625 40.1875 11.734375 48.09375 
Q 17.96875 56 27.875 56 
Q 33.9375 56 38.25 53.625 
Q 42.578125 51.265625 45.40625 46.390625 
z
M 14.796875 27.296875 
Q 14.796875 17.390625 18.875 11.75 
Q 22.953125 6.109375 30.078125 6.109375 
Q 37.203125 6.109375 41.296875 11.75 
Q 45.40625 17.390625 45.40625 27.296875 
Q 45.40625 37.203125 41.296875 42.84375 
Q 37.203125 48.484375 30.078125 48.484375 
Q 22.953125 48.484375 18.875 42.84375 
Q 14.796875 37.203125 14.796875 27.296875 
z
" id="DejaVuSans-64"/>
     <path d="M 56.203125 29.59375 
L 56.203125 25.203125 
L 14.890625 25.203125 
Q 15.484375 15.921875 20.484375 11.0625 
Q 25.484375 6.203125 34.421875 6.203125 
Q 39.59375 6.203125 44.453125 7.46875 
Q 49.3125 8.734375 54.109375 11.28125 
L 54.109375 2.78125 
Q 49.265625 0.734375 44.1875 -0.34375 
Q 39.109375 -1.421875 33.890625 -1.421875 
Q 20.796875 -1.421875 13.15625 6.1875 
Q 5.515625 13.8125 5.515625 26.8125 
Q 5.515625 40.234375 12.765625 48.109375 
Q 20.015625 56 32.328125 56 
Q 43.359375 56 49.78125 48.890625 
Q 56.203125 41.796875 56.203125 29.59375 
z
M 47.21875 32.234375 
Q 47.125 39.59375 43.09375 43.984375 
Q 39.0625 48.390625 32.421875 48.390625 
Q 24.90625 48.390625 20.390625 44.140625 
Q 15.875 39.890625 15.1875 32.171875 
z
" id="DejaVuSans-65"/>
     <path d="M 9.421875 75.984375 
L 18.40625 75.984375 
L 18.40625 0 
L 9.421875 0 
z
" id="DejaVuSans-6c"/>
     <path d="M 25.390625 72.90625 
L 33.6875 72.90625 
L 8.296875 -9.28125 
L 0 -9.28125 
z
" id="DejaVuSans-2f"/>
     <path d="M 52 44.1875 
Q 55.375 50.25 60.0625 53.125 
Q 64.75 56 71.09375 56 
Q 79.640625 56 84.28125 50.015625 
Q 88.921875 44.046875 88.921875 33.015625 
L 88.921875 0 
L 79.890625 0 
L 79.890625 32.71875 
Q 79.890625 40.578125 77.09375 44.375 
Q 74.3125 48.1875 68.609375 48.1875 
Q 61.625 48.1875 57.5625 43.546875 
Q 53.515625 38.921875 53.515625 30.90625 
L 53.515625 0 
L 44.484375 0 
L 44.484375 32.71875 
Q 44.484375 40.625 41.703125 44.40625 
Q 38.921875 48.1875 33.109375 48.1875 
Q 26.21875 48.1875 22.15625 43.53125 
Q 18.109375 38.875 18.109375 30.90625 
L 18.109375 0 
L 9.078125 0 
L 9.078125 54.6875 
L 18.109375 54.6875 
L 18.109375 46.1875 
Q 21.1875 51.21875 25.484375 53.609375 
Q 29.78125 56 35.6875 56 
Q 41.65625 56 45.828125 52.96875 
Q 50 49.953125 52 44.1875 
z
" id="DejaVuSans-6d"/>
     <path d="M 18.3125 70.21875 
L 18.3125 54.6875 
L 36.8125 54.6875 
L 36.8125 47.703125 
L 18.3125 47.703125 
L 18.3125 18.015625 
Q 18.3125 11.328125 20.140625 9.421875 
Q 21.96875 7.515625 27.59375 7.515625 
L 36.8125 7.515625 
L 36.8125 0 
L 27.59375 0 
Q 17.1875 0 13.234375 3.875 
Q 9.28125 7.765625 9.28125 18.015625 
L 9.28125 47.703125 
L 2.6875 47.703125 
L 2.6875 54.6875 
L 9.28125 54.6875 
L 9.28125 70.21875 
z
" id="DejaVuSans-74"/>
     <path d="M 34.28125 27.484375 
Q 23.390625 27.484375 19.1875 25 
Q 14.984375 22.515625 14.984375 16.5 
Q 14.984375 11.71875 18.140625 8.90625 
Q 21.296875 6.109375 26.703125 6.109375 
Q 34.1875 6.109375 38.703125 11.40625 
Q 43.21875 16.703125 43.21875 25.484375 
L 43.21875 27.484375 
z
M 52.203125 31.203125 
L 52.203125 0 
L 43.21875 0 
L 43.21875 8.296875 
Q 40.140625 3.328125 35.546875 0.953125 
Q 30.953125 -1.421875 24.3125 -1.421875 
Q 15.921875 -1.421875 10.953125 3.296875 
Q 6 8.015625 6 15.921875 
Q 6 25.140625 12.171875 29.828125 
Q 18.359375 34.515625 30.609375 34.515625 
L 43.21875 34.515625 
L 43.21875 35.40625 
Q 43.21875 41.609375 39.140625 45 
Q 35.0625 48.390625 27.6875 48.390625 
Q 23 48.390625 18.546875 47.265625 
Q 14.109375 46.140625 10.015625 43.890625 
L 10.015625 52.203125 
Q 14.9375 54.109375 19.578125 55.046875 
Q 24.21875 56 28.609375 56 
Q 40.484375 56 46.34375 49.84375 
Q 52.203125 43.703125 52.203125 31.203125 
z
" id="DejaVuSans-61"/>
     <path id="DejaVuSans-20"/>
     <path d="M 48.78125 52.59375 
L 48.78125 44.1875 
Q 44.96875 46.296875 41.140625 47.34375 
Q 37.3125 48.390625 33.40625 48.390625 
Q 24.65625 48.390625 19.8125 42.84375 
Q 14.984375 37.3125 14.984375 27.296875 
Q 14.984375 17.28125 19.8125 11.734375 
Q 24.65625 6.203125 33.40625 6.203125 
Q 37.3125 6.203125 41.140625 7.25 
Q 44.96875 8.296875 48.78125 10.40625 
L 48.78125 2.09375 
Q 45.015625 0.34375 40.984375 -0.53125 
Q 36.96875 -1.421875 32.421875 -1.421875 
Q 20.0625 -1.421875 12.78125 6.34375 
Q 5.515625 14.109375 5.515625 27.296875 
Q 5.515625 40.671875 12.859375 48.328125 
Q 20.21875 56 33.015625 56 
Q 37.15625 56 41.109375 55.140625 
Q 45.0625 54.296875 48.78125 52.59375 
z
" id="DejaVuSans-63"/>
     <path d="M 18.109375 8.203125 
L 18.109375 -20.796875 
L 9.078125 -20.796875 
L 9.078125 54.6875 
L 18.109375 54.6875 
L 18.109375 46.390625 
Q 20.953125 51.265625 25.265625 53.625 
Q 29.59375 56 35.59375 56 
Q 45.5625 56 51.78125 48.09375 
Q 58.015625 40.1875 58.015625 27.296875 
Q 58.015625 14.40625 51.78125 6.484375 
Q 45.5625 -1.421875 35.59375 -1.421875 
Q 29.59375 -1.421875 25.265625 0.953125 
Q 20.953125 3.328125 18.109375 8.203125 
z
M 48.6875 27.296875 
Q 48.6875 37.203125 44.609375 42.84375 
Q 40.53125 48.484375 33.40625 48.484375 
Q 26.265625 48.484375 22.1875 42.84375 
Q 18.109375 37.203125 18.109375 27.296875 
Q 18.109375 17.390625 22.1875 11.75 
Q 26.265625 6.109375 33.40625 6.109375 
Q 40.53125 6.109375 44.609375 11.75 
Q 48.6875 17.390625 48.6875 27.296875 
z
" id="DejaVuSans-70"/>
     <path d="M 41.109375 46.296875 
Q 39.59375 47.171875 37.8125 47.578125 
Q 36.03125 48 33.890625 48 
Q 26.265625 48 22.1875 43.046875 
Q 18.109375 38.09375 18.109375 28.8125 
L 18.109375 0 
L 9.078125 0 
L 9.078125 54.6875 
L 18.109375 54.6875 
L 18.109375 46.1875 
Q 20.953125 51.171875 25.484375 53.578125 
Q 30.03125 56 36.53125 56 
Q 37.453125 56 38.578125 55.875 
Q 39.703125 55.765625 41.0625 55.515625 
z
" id="DejaVuSans-72"/>
     <path d="M 9.421875 54.6875 
L 18.40625 54.6875 
L 18.40625 0 
L 9.421875 0 
z
M 9.421875 75.984375 
L 18.40625 75.984375 
L 18.40625 64.59375 
L 9.421875 64.59375 
z
" id="DejaVuSans-69"/>
     <path d="M 44.28125 53.078125 
L 44.28125 44.578125 
Q 40.484375 46.53125 36.375 47.5 
Q 32.28125 48.484375 27.875 48.484375 
Q 21.1875 48.484375 17.84375 46.4375 
Q 14.5 44.390625 14.5 40.28125 
Q 14.5 37.15625 16.890625 35.375 
Q 19.28125 33.59375 26.515625 31.984375 
L 29.59375 31.296875 
Q 39.15625 29.25 43.1875 25.515625 
Q 47.21875 21.78125 47.21875 15.09375 
Q 47.21875 7.46875 41.1875 3.015625 
Q 35.15625 -1.421875 24.609375 -1.421875 
Q 20.21875 -1.421875 15.453125 -0.5625 
Q 10.6875 0.296875 5.421875 2 
L 5.421875 11.28125 
Q 10.40625 8.6875 15.234375 7.390625 
Q 20.0625 6.109375 24.8125 6.109375 
Q 31.15625 6.109375 34.5625 8.28125 
Q 37.984375 10.453125 37.984375 14.40625 
Q 37.984375 18.0625 35.515625 20.015625 
Q 33.0625 21.96875 24.703125 23.78125 
L 21.578125 24.515625 
Q 13.234375 26.265625 9.515625 29.90625 
Q 5.8125 33.546875 5.8125 39.890625 
Q 5.8125 47.609375 11.28125 51.796875 
Q 16.75 56 26.8125 56 
Q 31.78125 56 36.171875 55.265625 
Q 40.578125 54.546875 44.28125 53.078125 
z
" id="DejaVuSans-73"/>
     <path d="M 54.890625 33.015625 
L 54.890625 0 
L 45.90625 0 
L 45.90625 32.71875 
Q 45.90625 40.484375 42.875 44.328125 
Q 39.84375 48.1875 33.796875 48.1875 
Q 26.515625 48.1875 22.3125 43.546875 
Q 18.109375 38.921875 18.109375 30.90625 
L 18.109375 0 
L 9.078125 0 
L 9.078125 54.6875 
L 18.109375 54.6875 
L 18.109375 46.1875 
Q 21.34375 51.125 25.703125 53.5625 
Q 30.078125 56 35.796875 56 
Q 45.21875 56 50.046875 50.171875 
Q 54.890625 44.34375 54.890625 33.015625 
z
" id="DejaVuSans-6e"/>
    </defs>
    <g transform="translate(130.17375 28.56)scale(0.12 -0.12)">
     <use xlink:href="#DejaVuSans-4d"/>
     <use x="86.279297" xlink:href="#DejaVuSans-6f"/>
     <use x="147.460938" xlink:href="#DejaVuSans-64"/>
     <use x="210.9375" xlink:href="#DejaVuSans-65"/>
     <use x="272.460938" xlink:href="#DejaVuSans-6c"/>
     <use x="300.244141" xlink:href="#DejaVuSans-2f"/>
     <use x="333.935547" xlink:href="#DejaVuSans-6d"/>
     <use x="431.347656" xlink:href="#DejaVuSans-65"/>
     <use x="492.871094" xlink:href="#DejaVuSans-74"/>
     <use x="532.080078" xlink:href="#DejaVuSans-61"/>
     <use x="593.359375" xlink:href="#DejaVuSans-6d"/>
     <use x="690.771484" xlink:href="#DejaVuSans-6f"/>
     <use x="751.953125" xlink:href="#DejaVuSans-64"/>
     <use x="815.429688" xlink:href="#DejaVuSans-65"/>
     <use x="876.953125" xlink:href="#DejaVuSans-6c"/>
     <use x="904.736328" xlink:href="#DejaVuSans-20"/>
     <use x="936.523438" xlink:href="#DejaVuSans-63"/>
     <use x="991.503906" xlink:href="#DejaVuSans-6f"/>
     <use x="1052.685547" xlink:href="#DejaVuSans-6d"/>
     <use x="1150.097656" xlink:href="#DejaVuSans-70"/>
     <use x="1213.574219" xlink:href="#DejaVuSans-61"/>
     <use x="1274.853516" xlink:href="#DejaVuSans-72"/>
     <use x="1315.966797" xlink:href="#DejaVuSans-69"/>
     <use x="1343.75" xlink:href="#DejaVuSans-73"/>
     <use x="1395.849609" xlink:href="#DejaVuSans-6f"/>
     <use x="1457.03125" xlink:href="#DejaVuSans-6e"/>
    </g>
   </g>
  </g>
 </g>
 <defs>
  <clipPath id="pa10272dcbf">
   <rect height="217.44" width="334.8" x="54" y="34.56"/>
  </clipPath>
 </defs>
</svg>
