<?xml version="1.0" encoding="utf-8" standalone="no"?>
<!DOCTYPE svg PUBLIC "-//W3C//DTD SVG 1.1//EN"
  "http://www.w3.org/Graphics/SVG/1.1/DTD/svg11.dtd">
<!-- Created with matplotlib (http://matplotlib.org/) -->
<svg height="288pt" version="1.1" viewBox="0 0 432 288" width="432pt" xmlns="http://www.w3.org/2000/svg" xmlns:xlink="http://www.w3.org/1999/xlink">
 <defs>
  <style type="text/css">
*{stroke-linecap:butt;stroke-linejoin:round;stroke-miterlimit:100000;}
  </style>
 </defs>
 <g id="figure_1">
  <g id="patch_1">
   <path d="M 0 288 
L 432 288 
L 432 0 
L 0 0 
z
" style="fill:#ffffff;"/>
  </g>
  <g id="axes_1">
   <g id="patch_2">
    <path d="M 54 252 
L 388.8 252 
L 388.8 28.8 
L 54 28.8 
z
" style="fill:#ffffff;"/>
   </g>
   <g id="LineCollection_1">
    <path clip-path="url(#p05749e8654)" d="M 388.325868 81.32554 
L 388.727249 30.54375 
L 386.184375 28.84856 
L 169.0875 29.547703 
L 116.775 29.711061 
L 90.61875 30.005485 
L 77.540625 30.323146 
L 71.786956 30.54375 
L 71.359116 39.2625 
L 70.774763 46.2375 
L 70.139838 51.46875 
L 69.303745 56.7 
L 68.224286 61.93125 
L 66.832276 67.1625 
L 65.717003 70.65 
L 64.401802 74.1375 
L 62.890956 77.625 
L 61.125271 81.1125 
L 59.070308 84.6 
L 56.615625 88.175596 
L 55.805157 114.24375 
L 55.285648 138.65625 
L 54.899958 168.3 
L 54.636993 206.6625 
L 54.514688 250.25625 
L 56.615625 251.656875 
L 208.321875 251.266962 
L 281.559375 250.88488 
L 326.025 250.446412 
L 339.207866 250.25625 
L 344.334375 246.757219 
L 352.18125 241.777891 
L 358.381757 238.05 
L 373.413104 229.33125 
L 385.28703 222.35625 
L 386.184375 221.81746 
L 386.745154 208.40625 
L 387.235577 190.96875 
L 387.631235 168.3 
L 387.962891 135.16875 
L 388.003121 129.724463 
L 388.003121 129.724463 
" style="fill:none;stroke:#0000ff;"/>
   </g>
   <g id="LineCollection_2">
    <path clip-path="url(#p05749e8654)" d="M 130.512319 251.170302 
L 224.015625 250.681677 
L 272.559306 250.25625 
L 274.881578 246.76875 
L 277.580406 243.28125 
L 280.699213 239.79375 
L 282.430209 238.05 
L 286.262865 234.5625 
L 289.40625 232.007042 
L 293.008468 229.33125 
L 298.205128 225.84375 
L 303.959098 222.35625 
L 310.33125 218.817473 
L 318.178125 214.762889 
L 328.640625 209.646569 
L 349.565625 199.527269 
L 360.028125 194.160068 
L 367.875 189.868042 
L 375.721875 185.276907 
L 383.29116 180.50625 
L 386.184375 178.58554 
L 386.648879 157.8375 
L 387.071028 128.19375 
L 388.238988 30.54375 
L 386.184375 29.174056 
L 302.484375 29.793955 
L 239.709375 30.177032 
L 171.703125 30.31661 
L 127.2375 30.495916 
L 121.706803 30.54375 
L 119.390625 33.421416 
L 117.865974 35.775 
L 116.775 37.687118 
L 115.201843 41.00625 
L 113.804923 44.49375 
L 112.084891 49.725 
L 110.634236 54.95625 
L 108.049188 65.41875 
L 105.807472 74.1375 
L 104.266504 79.36875 
L 102.475973 84.6 
L 101.08125 88.0875 
L 99.509203 91.575 
L 97.687005 95.0625 
L 95.564114 98.55 
L 93.070457 102.0375 
L 90.10647 105.525 
L 88.003125 107.646617 
L 85.3875 109.977347 
L 82.771875 112.021498 
L 80.15625 113.825294 
L 77.540625 115.427009 
L 74.925 116.858284 
L 72.309375 118.145246 
L 67.078125 120.350234 
L 61.846875 122.164535 
L 56.615625 123.670375 
L 55.99091 143.8875 
L 55.520295 166.55625 
L 55.144419 196.2 
L 54.899104 234.5625 
L 54.853161 250.25625 
L 56.615625 251.431226 
L 82.112651 251.349224 
L 82.112651 251.349224 
" style="fill:none;stroke:#0000ff;"/>
   </g>
   <g id="LineCollection_3">
    <path clip-path="url(#p05749e8654)" d="M 278.285279 30.257702 
L 228.263515 30.54375 
L 221.4 31.717063 
L 210.9375 33.165897 
L 182.165625 36.741867 
L 176.934375 37.623129 
L 171.703125 38.719541 
L 169.0875 39.360414 
L 163.642581 41.00625 
L 159.216628 42.75 
L 156.009375 44.321135 
L 153.39375 45.862905 
L 150.778125 47.69291 
L 150.406984 47.98125 
L 148.1625 49.896994 
L 145.546875 52.599583 
L 143.650775 54.95625 
L 142.421606 56.7 
L 140.310424 60.1875 
L 138.574242 63.675 
L 137.079538 67.1625 
L 135.084375 72.626099 
L 132.980684 79.36875 
L 128.177173 95.0625 
L 126.214853 100.29375 
L 124.621875 103.907125 
L 122.921089 107.26875 
L 120.835439 110.75625 
L 118.324133 114.24375 
L 116.775 116.080951 
L 114.159375 118.769238 
L 113.401704 119.475 
L 111.323989 121.21875 
L 108.928125 122.975182 
L 106.193486 124.70625 
L 102.951368 126.45 
L 98.465625 128.424351 
L 93.234375 130.241344 
L 87.930326 131.68125 
L 82.771875 132.774895 
L 77.540625 133.653823 
L 72.309375 134.33866 
L 64.4625 135.093947 
L 56.615625 135.588343 
L 56.060328 154.35 
L 55.578122 178.7625 
L 55.228847 208.40625 
L 55.014413 246.76875 
L 55.005273 250.25625 
L 56.615625 251.329818 
L 171.703125 250.805989 
L 242.325 250.283735 
L 245.143354 250.25625 
L 245.84868 246.76875 
L 246.762549 243.28125 
L 247.918778 239.79375 
L 249.359306 236.30625 
L 251.131669 232.81875 
L 253.295853 229.33125 
L 255.924385 225.84375 
L 258.01875 223.476107 
L 260.926412 220.6125 
L 263.25 218.60079 
L 265.865625 216.558261 
L 270.089989 213.6375 
L 273.7125 211.420001 
L 279.216652 208.40625 
L 284.175 205.960449 
L 290.303573 203.175 
L 298.567662 199.6875 
L 316.016016 192.7125 
L 328.844073 187.48125 
L 339.103125 183.019593 
L 346.95 179.358903 
L 355.084518 175.275 
L 362.64375 171.168547 
L 367.875 168.135218 
L 373.296513 164.8125 
L 380.953125 159.816 
L 386.184375 156.212555 
L 386.623168 129.9375 
L 388.019561 30.54375 
L 386.184375 29.320336 
L 326.683314 29.822129 
L 326.683314 29.822129 
" style="fill:none;stroke:#0000ff;"/>
   </g>
   <g id="LineCollection_4">
    <path clip-path="url(#p05749e8654)" d="M 55.242633 220.398884 
L 55.097784 250.25625 
L 56.615625 251.268144 
L 169.0875 250.712578 
L 229.182707 250.25625 
L 228.851107 245.025 
L 228.750064 239.79375 
L 228.938173 234.5625 
L 229.263507 231.075 
L 229.789003 227.5875 
L 230.554004 224.1 
L 231.612314 220.6125 
L 232.275522 218.86875 
L 233.924509 215.38125 
L 234.938573 213.6375 
L 237.09375 210.579777 
L 238.967069 208.40625 
L 240.71956 206.6625 
L 242.727389 204.91875 
L 245.02743 203.175 
L 247.658553 201.43125 
L 250.660491 199.6875 
L 255.403125 197.320378 
L 260.634375 195.084063 
L 265.865625 193.109244 
L 272.111261 190.96875 
L 283.210383 187.48125 
L 302.484375 181.574107 
L 312.946875 178.141559 
L 321.048611 175.275 
L 330.092385 171.7875 
L 336.4875 169.11188 
L 344.334375 165.548792 
L 349.565625 162.9905 
L 357.4125 158.847488 
L 365.259375 154.35 
L 373.723617 149.11875 
L 383.56875 142.706146 
L 386.184375 140.975441 
L 386.752918 102.0375 
L 387.644413 44.49375 
L 387.88611 30.54375 
L 386.184375 29.4093 
L 315.5625 30.070747 
L 264.317357 30.54375 
L 261.07207 32.2875 
L 258.01875 33.751519 
L 252.7875 35.915652 
L 247.55625 37.756113 
L 242.325 39.342957 
L 236.003671 41.00625 
L 229.246875 42.577917 
L 213.553125 45.780864 
L 202.906908 47.98125 
L 195.24375 49.829212 
L 189.558711 51.46875 
L 184.543526 53.2125 
L 179.55 55.359071 
L 176.917157 56.7 
L 173.984012 58.44375 
L 171.466579 60.1875 
L 169.0875 62.108292 
L 166.471875 64.618778 
L 164.247331 67.1625 
L 162.935408 68.90625 
L 160.689295 72.39375 
L 158.625 76.357959 
L 157.324703 79.36875 
L 156.009375 82.864363 
L 154.377595 88.0875 
L 152.969754 93.31875 
L 149.025275 109.0125 
L 147.393387 114.24375 
L 146.07709 117.73125 
L 144.491791 121.21875 
L 142.519908 124.70625 
L 140.315625 127.792382 
L 139.994549 128.19375 
L 137.7 130.67694 
L 136.628063 131.68125 
L 134.476534 133.425 
L 131.872362 135.16875 
L 128.62829 136.9125 
L 127.2375 137.540619 
L 124.415444 138.65625 
L 122.00625 139.444616 
L 118.491178 140.4 
L 114.159375 141.301731 
L 108.52604 142.14375 
L 103.696875 142.62864 
L 98.465625 142.971511 
L 90.61875 143.216385 
L 82.771875 143.22293 
L 72.309375 142.976836 
L 59.23125 142.407743 
L 56.615625 142.270689 
L 56.033298 163.06875 
L 55.845641 172.002928 
L 55.845641 172.002928 
" style="fill:none;stroke:#0000ff;"/>
   </g>
   <g id="LineCollection_5">
    <path clip-path="url(#p05749e8654)" d="M 302.548816 168.880122 
L 310.793834 166.55625 
L 318.178125 164.219655 
L 326.025 161.447151 
L 331.25625 159.414562 
L 339.103125 156.0761 
L 346.95 152.370273 
L 354.796875 148.303502 
L 362.69891 143.8875 
L 373.10625 137.725074 
L 383.56875 131.478836 
L 386.184725 129.9375 
L 387.794464 30.54375 
L 386.184375 29.470395 
L 318.178125 30.141177 
L 279.079476 30.54375 
L 277.247655 32.2875 
L 275.229873 34.03125 
L 272.993596 35.775 
L 270.502904 37.51875 
L 267.71927 39.2625 
L 264.60302 41.00625 
L 260.634375 42.982877 
L 255.403125 45.235867 
L 250.171875 47.193014 
L 242.325 49.739356 
L 234.478125 52.018754 
L 216.16875 57.12802 
L 210.9375 58.767415 
L 205.70625 60.615134 
L 200.475 62.77524 
L 197.859375 64.010916 
L 195.184348 65.41875 
L 192.291308 67.1625 
L 189.770348 68.90625 
L 187.396875 70.798898 
L 184.78125 73.260713 
L 182.442801 75.88125 
L 181.12072 77.625 
L 179.55 79.994798 
L 177.95542 82.85625 
L 176.372305 86.34375 
L 175.112609 89.83125 
L 174.100753 93.31875 
L 173.304078 96.80625 
L 172.396374 102.0375 
L 171.703125 107.726646 
L 171.152436 114.24375 
L 170.073546 128.19375 
L 169.358007 133.425 
L 168.628215 136.9125 
L 167.555083 140.4 
L 166.471875 142.864136 
L 165.920238 143.8875 
L 164.767982 145.63125 
L 163.275743 147.375 
L 161.240625 149.146473 
L 158.431089 150.8625 
L 156.009375 151.90555 
L 153.39375 152.746971 
L 150.778125 153.351484 
L 148.1625 153.795666 
L 142.93125 154.327203 
L 137.7 154.514853 
L 132.46875 154.476677 
L 124.621875 154.126728 
L 116.775 153.540911 
L 106.3125 152.539686 
L 90.61875 150.767629 
L 56.615625 146.674257 
L 56.069412 166.55625 
L 55.628152 190.96875 
L 55.299935 222.35625 
L 55.161315 250.25625 
L 56.615625 251.22579 
L 166.471875 250.655253 
L 218.563707 250.25625 
L 216.105764 239.79375 
L 214.290305 231.075 
L 213.053943 224.1 
L 212.310805 218.86875 
L 211.786217 213.6375 
L 211.603773 210.15 
L 211.603717 206.6625 
L 211.848811 203.175 
L 212.433507 199.6875 
L 212.896591 197.94375 
L 213.553125 196.089025 
L 214.313133 194.45625 
L 215.353987 192.7125 
L 216.703393 190.96875 
L 218.784375 188.959094 
L 221.4 187.107447 
L 224.015625 185.699312 
L 228.226652 183.99375 
L 231.8625 182.86241 
L 237.09375 181.557202 
L 242.325 180.481812 
L 252.133608 178.7625 
L 255.092666 178.279466 
L 255.092666 178.279466 
" style="fill:none;stroke:#0000ff;"/>
   </g>
   <g id="LineCollection_6">
    <path clip-path="url(#p05749e8654)" d="M 185.871384 250.472805 
L 212.290878 250.25625 
L 206.264453 232.81875 
L 202.440351 222.35625 
L 199.030889 213.6375 
L 196.05639 206.6625 
L 193.597529 201.43125 
L 190.826811 196.2 
L 188.721819 192.7125 
L 186.304932 189.225 
L 183.435391 185.7375 
L 181.755405 183.99375 
L 179.55 181.971898 
L 176.934375 179.90845 
L 174.31875 178.147008 
L 171.703125 176.621547 
L 169.069666 175.275 
L 163.85625 172.986922 
L 158.625 171.065914 
L 153.39375 169.385227 
L 145.546875 167.149799 
L 135.084375 164.494296 
L 124.621875 162.059035 
L 108.928125 158.684899 
L 93.234375 155.575763 
L 77.540625 152.714476 
L 66.601536 150.8625 
L 56.615625 149.278034 
L 56.058983 170.04375 
L 55.632681 194.45625 
L 55.317802 225.84375 
L 55.199708 250.25625 
L 56.615625 251.200195 
L 147.072275 250.735378 
L 147.072275 250.735378 
" style="fill:none;stroke:#0000ff;"/>
    <path clip-path="url(#p05749e8654)" d="M 322.319935 30.153519 
L 286.421644 30.54375 
L 283.758954 34.03125 
L 281.559375 36.491639 
L 278.660201 39.2625 
L 276.328125 41.223006 
L 273.7125 43.178402 
L 271.096875 44.928433 
L 268.48125 46.510425 
L 263.25 49.28928 
L 258.01875 51.674962 
L 252.7875 53.793983 
L 244.723894 56.7 
L 234.322605 60.1875 
L 224.015625 63.7726 
L 218.784375 65.819834 
L 213.553125 68.148556 
L 210.9375 69.462377 
L 208.321875 70.909051 
L 205.70625 72.53029 
L 203.090625 74.380041 
L 200.475 76.528304 
L 197.859375 79.066022 
L 197.573506 79.36875 
L 195.24375 82.205821 
L 193.611852 84.6 
L 192.588799 86.34375 
L 190.934295 89.83125 
L 189.677547 93.31875 
L 188.768327 96.80625 
L 188.136501 100.29375 
L 187.746622 103.78125 
L 187.569961 107.26875 
L 187.583521 110.75625 
L 187.769354 114.24375 
L 188.114159 117.73125 
L 188.911554 122.9625 
L 190.039622 128.19375 
L 190.996537 131.68125 
L 192.124163 135.16875 
L 193.458974 138.65625 
L 195.24375 142.547177 
L 196.955192 145.63125 
L 198.068432 147.375 
L 200.475 150.566019 
L 202.349971 152.60625 
L 204.233636 154.35 
L 206.46411 156.09375 
L 209.165858 157.8375 
L 212.534098 159.58125 
L 213.553125 160.035859 
L 216.903957 161.325 
L 221.4 162.6835 
L 224.015625 163.319095 
L 229.246875 164.327616 
L 234.478125 165.058269 
L 239.709375 165.565796 
L 244.940625 165.888198 
L 250.171875 166.048449 
L 258.01875 166.016021 
L 265.865625 165.682347 
L 273.7125 165.064982 
L 281.559375 164.161984 
L 289.40625 162.978737 
L 297.253125 161.49705 
L 305.1 159.708041 
L 312.946875 157.591512 
L 320.79375 155.127884 
L 327.842178 152.60625 
L 332.280553 150.8625 
L 339.103125 147.949307 
L 344.334375 145.526465 
L 352.18125 141.599374 
L 360.909941 136.9125 
L 383.56875 124.567721 
L 386.184375 123.252782 
L 387.73908 30.54375 
L 386.184375 29.507316 
L 361.117705 29.737878 
L 361.117705 29.737878 
" style="fill:none;stroke:#0000ff;"/>
   </g>
   <g id="LineCollection_7">
    <path clip-path="url(#p05749e8654)" d="M 77.374393 157.055502 
L 65.364863 154.35 
L 56.615625 152.552469 
L 56.613927 152.60625 
L 56.066535 173.53125 
L 55.628929 199.6875 
L 55.336762 231.075 
L 55.248857 250.25625 
L 56.615625 251.167429 
L 161.240625 250.590091 
L 204.422857 250.25625 
L 200.38404 241.5375 
L 196.911515 234.5625 
L 193.141609 227.5875 
L 190.0125 222.27237 
L 186.720803 217.125 
L 183.031314 211.89375 
L 179.55 207.443816 
L 176.934375 204.385417 
L 174.199919 201.43125 
L 170.683106 197.94375 
L 166.471875 194.211862 
L 162.399348 190.96875 
L 158.625 188.257236 
L 154.798248 185.7375 
L 150.778125 183.317835 
L 145.546875 180.450357 
L 140.315625 177.837365 
L 134.691993 175.275 
L 127.2375 172.190181 
L 121.583986 170.04375 
L 119.228609 169.193524 
L 119.228609 169.193524 
" style="fill:none;stroke:#0000ff;"/>
    <path clip-path="url(#p05749e8654)" d="M 245.613582 69.337483 
L 239.014262 72.39375 
L 234.478125 74.716399 
L 231.8625 76.167908 
L 229.246875 77.746903 
L 226.63125 79.498889 
L 224.015625 81.484943 
L 221.4 83.788382 
L 220.561682 84.6 
L 218.784375 86.545658 
L 217.558187 88.0875 
L 216.16875 90.115806 
L 215.310609 91.575 
L 214.432122 93.31875 
L 213.553125 95.462685 
L 213.098076 96.80625 
L 212.272134 100.29375 
L 211.882387 103.78125 
L 211.891772 107.26875 
L 212.273303 110.75625 
L 213.009924 114.24375 
L 214.108784 117.73125 
L 215.58204 121.21875 
L 216.465841 122.9625 
L 218.566988 126.45 
L 219.805596 128.19375 
L 221.4 130.210922 
L 224.015625 133.056804 
L 226.27706 135.16875 
L 228.401005 136.9125 
L 230.796 138.65625 
L 233.525199 140.4 
L 237.09375 142.35667 
L 240.399819 143.8875 
L 244.940625 145.639671 
L 250.171875 147.22225 
L 252.7875 147.864227 
L 258.01875 148.899257 
L 263.25 149.62613 
L 268.48125 150.084888 
L 273.7125 150.301146 
L 278.94375 150.290764 
L 284.175 150.066857 
L 289.40625 149.640731 
L 294.6375 149.019683 
L 299.86875 148.195315 
L 305.1 147.187418 
L 311.702782 145.63125 
L 315.5625 144.585335 
L 320.79375 143.000244 
L 326.025 141.228311 
L 332.81971 138.65625 
L 339.103125 136.034223 
L 346.95 132.483596 
L 362.64375 124.954712 
L 367.875 122.49046 
L 375.721875 118.991375 
L 383.56875 115.81153 
L 386.184375 114.832436 
L 387.325197 47.98125 
L 387.668181 30.54375 
L 386.184375 29.554581 
L 320.79375 30.24472 
L 294.71697 30.54375 
L 293.977998 32.2875 
L 292.021875 36.29291 
L 290.24744 39.2625 
L 289.078863 41.00625 
L 286.367448 44.49375 
L 283.249445 47.819823 
L 283.249445 47.819823 
" style="fill:none;stroke:#0000ff;"/>
   </g>
   <g id="LineCollection_8">
    <path clip-path="url(#p05749e8654)" d="M 114.345679 175.778223 
L 108.928125 173.391532 
L 100.722672 170.04375 
L 93.234375 167.24369 
L 85.3875 164.540593 
L 77.540625 162.047698 
L 69.10387 159.58125 
L 59.23125 156.950587 
L 56.615625 156.296642 
L 56.086161 177.01875 
L 55.658518 203.175 
L 55.376468 234.5625 
L 55.306132 250.25625 
L 56.615625 251.129245 
L 161.240625 250.525429 
L 195.492678 250.25625 
L 192.481646 245.025 
L 189.292463 239.79375 
L 185.889787 234.5625 
L 182.165625 229.2391 
L 178.291573 224.1 
L 173.996203 218.86875 
L 170.916429 215.38125 
L 165.904622 210.15 
L 161.240625 205.716702 
L 158.369482 203.175 
L 153.39375 199.065041 
L 151.836873 197.847499 
L 151.836873 197.847499 
" style="fill:none;stroke:#0000ff;"/>
    <path clip-path="url(#p05749e8654)" d="M 387.532022 33.160825 
L 387.58556 30.54375 
L 386.184375 29.60966 
L 323.409375 30.299163 
L 303.227293 30.54375 
L 302.36598 35.775 
L 301.583271 39.2625 
L 300.625153 42.75 
L 299.454113 46.2375 
L 298.024527 49.725 
L 296.30391 53.2125 
L 294.247032 56.7 
L 291.792015 60.1875 
L 288.883025 63.675 
L 285.482984 67.1625 
L 283.597641 68.90625 
L 278.94375 72.819811 
L 271.096875 78.738947 
L 267.879974 81.1125 
L 263.25 84.74988 
L 259.496797 88.0875 
L 257.785824 89.83125 
L 255.403125 92.721866 
L 254.955373 93.31875 
L 253.844744 95.0625 
L 252.7875 97.143038 
L 252.220772 98.55 
L 251.713062 100.29375 
L 251.39985 102.0375 
L 251.281961 103.78125 
L 251.360316 105.525 
L 251.636123 107.26875 
L 252.111064 109.0125 
L 252.7875 110.75625 
L 253.708413 112.5 
L 255.403125 114.952594 
L 256.26241 115.9875 
L 258.01875 117.789112 
L 260.634375 119.930528 
L 263.25 121.670967 
L 265.865625 123.116538 
L 269.453606 124.70625 
L 271.096875 125.315139 
L 274.750689 126.45 
L 278.94375 127.41653 
L 284.175 128.217872 
L 289.40625 128.599536 
L 294.6375 128.636549 
L 299.86875 128.361514 
L 305.1 127.789499 
L 310.33125 126.956143 
L 315.5625 125.884035 
L 320.79375 124.605672 
L 328.640625 122.347117 
L 337.512673 119.475 
L 358.64847 112.5 
L 367.875 109.838256 
L 375.721875 107.836762 
L 383.56875 106.075516 
L 386.184532 105.525 
L 386.668141 76.752252 
L 386.668141 76.752252 
" style="fill:none;stroke:#0000ff;"/>
   </g>
   <g id="LineCollection_9">
    <path clip-path="url(#p05749e8654)" d="M 120.265224 250.718532 
L 183.534433 250.25625 
L 178.523422 243.28125 
L 174.31875 237.837144 
L 170.19489 232.81875 
L 165.60271 227.5875 
L 160.681919 222.35625 
L 155.399597 217.125 
L 149.715726 211.89375 
L 143.577501 206.6625 
L 137.7 202.014618 
L 132.46875 198.143369 
L 129.718273 196.2 
L 124.550251 192.7125 
L 119.065114 189.225 
L 111.54375 184.782628 
L 106.3125 181.90457 
L 98.465625 177.884494 
L 92.984683 175.275 
L 85.10705 171.7875 
L 76.497866 168.3 
L 69.69375 165.770374 
L 61.835581 163.06875 
L 56.615625 161.395088 
L 56.103218 182.25 
L 55.693892 208.40625 
L 55.430322 239.79375 
L 55.385709 250.25625 
L 56.615625 251.076194 
L 76.665965 250.972526 
L 76.665965 250.972526 
" style="fill:none;stroke:#0000ff;"/>
    <path clip-path="url(#p05749e8654)" d="M 360.367328 92.642941 
L 362.64375 92.868167 
L 365.259375 93.088558 
L 367.875 93.275586 
L 368.560719 93.31875 
L 370.490625 93.436035 
L 373.10625 93.571595 
L 375.721875 93.684426 
L 378.3375 93.777174 
L 380.953125 93.852127 
L 383.56875 93.911266 
L 386.184375 93.956317 
L 386.195443 93.31875 
L 386.226109 91.575 
L 386.257015 89.83125 
L 386.288181 88.0875 
L 386.319624 86.34375 
L 386.35136 84.6 
L 386.383403 82.85625 
L 386.415763 81.1125 
L 386.44845 79.36875 
L 386.481471 77.625 
L 386.514832 75.88125 
L 386.548534 74.1375 
L 386.58258 72.39375 
L 386.616966 70.65 
L 386.65169 68.90625 
L 386.686746 67.1625 
L 386.722126 65.41875 
L 386.757821 63.675 
L 386.793817 61.93125 
L 386.830102 60.1875 
L 386.86666 58.44375 
L 386.903474 56.7 
L 386.940526 54.95625 
L 386.977793 53.2125 
L 387.015256 51.46875 
L 387.052891 49.725 
L 387.090673 47.98125 
L 387.128578 46.2375 
L 387.16658 44.49375 
L 387.204651 42.75 
L 387.242765 41.00625 
L 387.280894 39.2625 
L 387.319008 37.51875 
L 387.357081 35.775 
L 387.395084 34.03125 
L 387.432989 32.2875 
L 387.470767 30.54375 
L 386.184375 29.686185 
L 383.56875 29.711923 
L 380.953125 29.738136 
L 378.3375 29.764822 
L 375.721875 29.791979 
L 373.10625 29.819601 
L 370.490625 29.847685 
L 367.875 29.876223 
L 365.259375 29.905207 
L 362.64375 29.934628 
L 360.028125 29.964476 
L 357.4125 29.994739 
L 354.796875 30.025401 
L 352.18125 30.056449 
L 349.565625 30.087865 
L 346.95 30.11963 
L 344.334375 30.151723 
L 341.71875 30.184121 
L 339.103125 30.216802 
L 336.4875 30.249737 
L 333.871875 30.2829 
L 331.25625 30.316261 
L 328.640625 30.349787 
L 326.025 30.383445 
L 323.409375 30.4172 
L 320.79375 30.451015 
L 318.178125 30.484852 
L 315.5625 30.51867 
L 313.611656 30.54375 
L 313.858642 32.2875 
L 314.105548 34.03125 
L 314.352688 35.775 
L 314.600458 37.51875 
L 314.849352 39.2625 
L 315.099975 41.00625 
L 315.353068 42.75 
L 315.5625 44.187339 
L 315.608016 44.49375 
L 315.860571 46.2375 
L 316.118764 47.98125 
L 316.384128 49.725 
L 316.658495 51.46875 
L 316.944047 53.2125 
L 317.243385 54.95625 
L 317.559604 56.7 
L 317.896392 58.44375 
L 318.178125 59.819846 
L 318.255799 60.1875 
L 318.636512 61.93125 
L 319.053161 63.675 
L 319.513254 65.41875 
L 320.025857 67.1625 
L 320.601962 68.90625 
L 320.79375 69.444853 
L 321.24356 70.65 
L 321.972801 72.39375 
L 322.815162 74.1375 
L 322.905443 74.303044 
" style="fill:none;stroke:#0000ff;"/>
   </g>
   <g id="LineCollection_10">
    <path clip-path="url(#p05749e8654)" d="M 55.854671 231.948577 
L 55.847308 232.81875 
L 55.833294 234.5625 
L 55.820012 236.30625 
L 55.807456 238.05 
L 55.795621 239.79375 
L 55.784504 241.5375 
L 55.7741 243.28125 
L 55.764409 245.025 
L 55.755431 246.76875 
L 55.747165 248.5125 
L 55.739614 250.25625 
L 56.615625 250.840257 
L 59.23125 250.823835 
L 61.846875 250.807249 
L 64.4625 250.790497 
L 67.078125 250.773579 
L 69.69375 250.756495 
L 72.309375 250.739242 
L 74.925 250.721821 
L 77.540625 250.70423 
L 80.15625 250.686468 
L 82.771875 250.668533 
L 85.3875 250.650424 
L 88.003125 250.632139 
L 90.61875 250.613677 
L 93.234375 250.595035 
L 95.85 250.576212 
L 98.465625 250.557206 
L 101.08125 250.538013 
L 103.696875 250.518631 
L 106.3125 250.499058 
L 108.928125 250.47929 
L 111.54375 250.459324 
L 114.159375 250.439156 
L 116.775 250.418784 
L 119.390625 250.398202 
L 122.00625 250.377407 
L 124.621875 250.356395 
L 127.2375 250.335159 
L 129.853125 250.313696 
L 132.46875 250.291999 
L 135.084375 250.270064 
L 136.721144 250.25625 
L 135.084375 248.5125 
L 133.443863 246.76875 
L 132.46875 245.746712 
L 131.784659 245.025 
L 130.1104 243.28125 
L 129.853125 243.016149 
L 128.428698 241.5375 
L 127.2375 240.319916 
L 126.726947 239.79375 
L 125.012089 238.05 
L 124.621875 237.658367 
L 123.286508 236.30625 
L 122.00625 235.031827 
L 121.539226 234.5625 
L 119.777961 232.81875 
L 119.390625 232.440887 
L 118.004215 231.075 
L 116.775 229.886441 
L 116.206713 229.33125 
L 114.390086 227.5875 
L 114.159375 227.369436 
L 112.561921 225.84375 
L 111.54375 224.891006 
L 110.707419 224.1 
L 108.928125 222.452303 
L 108.825526 222.35625 
L 106.931557 220.6125 
L 106.3125 220.054555 
L 105.010712 218.86875 
L 103.696875 217.698975 
L 103.059038 217.125 
L 101.08125 215.386545 
L 101.075289 215.38125 
L 99.075369 213.6375 
L 98.465625 213.118656 
L 97.040332 211.89375 
L 95.85 210.896067 
L 94.968453 210.15 
L 93.234375 208.719573 
L 92.858089 208.40625 
L 90.710183 206.6625 
L 90.61875 206.589937 
L 88.530441 204.91875 
L 88.003125 204.507981 
L 86.305321 203.175 
L 85.3875 202.473913 
L 84.032439 201.43125 
L 82.771875 200.488011 
L 81.709182 199.6875 
L 80.15625 198.550417 
L 79.332668 197.94375 
L 77.540625 196.661136 
L 76.899703 196.2 
L 74.925 194.820036 
L 74.406723 194.45625 
L 72.309375 193.026856 
L 71.849743 192.7125 
L 69.69375 191.281211 
L 69.224282 190.96875 
L 67.078125 189.582606 
L 66.525285 189.225 
L 64.4625 187.930442 
L 63.747031 187.48125 
L 61.846875 186.324034 
L 60.883017 185.7375 
L 59.23125 184.762621 
L 57.925826 183.99375 
L 56.615625 183.24538 
L 56.597322 183.99375 
L 56.555694 185.7375 
L 56.515446 187.48125 
L 56.495979 188.353636 
" style="fill:none;stroke:#0000ff;"/>
    <path clip-path="url(#p05749e8654)" d="M 386.184375 59.183936 
L 386.203653 58.44375 
L 386.249753 56.7 
L 386.296151 54.95625 
L 386.34282 53.2125 
L 386.389735 51.46875 
L 386.436866 49.725 
L 386.484182 47.98125 
L 386.531653 46.2375 
L 386.579246 44.49375 
L 386.626927 42.75 
L 386.674663 41.00625 
L 386.722417 39.2625 
L 386.770156 37.51875 
L 386.817843 35.775 
L 386.865444 34.03125 
L 386.912923 32.2875 
L 386.960244 30.54375 
L 386.184375 30.026522 
L 383.56875 30.058762 
L 380.953125 30.091598 
L 378.3375 30.125026 
L 375.721875 30.159043 
L 373.10625 30.193643 
L 370.490625 30.228821 
L 367.875 30.264567 
L 365.259375 30.300872 
L 362.64375 30.337725 
L 360.028125 30.375112 
L 357.4125 30.413017 
L 354.796875 30.451424 
L 352.18125 30.490313 
L 349.565625 30.529662 
L 348.628645 30.54375 
L 349.565625 31.600625 
L 350.187558 32.2875 
L 351.808495 34.03125 
L 352.18125 34.424854 
L 353.489436 35.775 
L 354.796875 37.078751 
L 355.248841 37.51875 
L 357.082128 39.2625 
L 357.4125 39.570599 
L 358.99264 41.00625 
L 360.028125 41.919315 
L 360.996399 42.75 
L 362.64375 44.124507 
L 363.099252 44.49375 
L 365.259375 46.200065 
L 365.308229 46.2375 
L 367.626231 47.98125 
L 367.875 48.164087 
L 370.070771 49.725 
L 370.490625 50.016731 
L 372.655203 51.46875 
L 373.10625 51.764935 
L 375.394246 53.2125 
L 375.721875 53.415691 
L 378.305694 54.95625 
L 378.3375 54.974863 
L 380.953125 56.456162 
L 381.401964 56.7 
L 383.56875 57.858303 
L 384.714158 58.44375 
L 386.184375 59.183936 
" style="fill:none;stroke:#0000ff;"/>
   </g>
   <g id="line2d_1">
    <path clip-path="url(#p05749e8654)" d="M 54 252 
L 388.8 252 
L 388.8 28.8 
L 54 28.8 
L 54 252 
" style="fill:none;stroke:#0000ff;stroke-linecap:square;"/>
   </g>
   <g id="patch_3">
    <path d="M 54 252 
L 388.8 252 
" style="fill:none;stroke:#000000;stroke-linecap:square;stroke-linejoin:miter;"/>
   </g>
   <g id="patch_4">
    <path d="M 54 28.8 
L 388.8 28.8 
" style="fill:none;stroke:#000000;stroke-linecap:square;stroke-linejoin:miter;"/>
   </g>
   <g id="patch_5">
    <path d="M 388.8 252 
L 388.8 28.8 
" style="fill:none;stroke:#000000;stroke-linecap:square;stroke-linejoin:miter;"/>
   </g>
   <g id="patch_6">
    <path d="M 54 252 
L 54 28.8 
" style="fill:none;stroke:#000000;stroke-linecap:square;stroke-linejoin:miter;"/>
   </g>
   <g id="matplotlib.axis_1">
    <g id="xtick_1">
     <g id="line2d_2">
      <path clip-path="url(#p05749e8654)" d="M 54 252 
L 54 28.8 
" style="fill:none;stroke:#000000;stroke-dasharray:1.000000,3.000000;stroke-dashoffset:0.0;stroke-width:0.5;"/>
     </g>
     <g id="line2d_3">
      <defs>
       <path d="M 0 0 
L 0 -4 
" id="mb6bfdeb6b0" style="stroke:#000000;stroke-width:0.5;"/>
      </defs>
      <g>
       <use style="stroke:#000000;stroke-width:0.5;" x="54.0" xlink:href="#mb6bfdeb6b0" y="252.0"/>
      </g>
     </g>
     <g id="line2d_4">
      <defs>
       <path d="M 0 0 
L 0 4 
" id="m4d951a30f0" style="stroke:#000000;stroke-width:0.5;"/>
      </defs>
      <g>
       <use style="stroke:#000000;stroke-width:0.5;" x="54.0" xlink:href="#m4d951a30f0" y="28.8"/>
      </g>
     </g>
     <g id="text_1">
      <!-- 0.0 -->
      <defs>
       <path d="M 10.6875 12.40625 
L 21 12.40625 
L 21 0 
L 10.6875 0 
z
" id="BitstreamVeraSans-Roman-2e"/>
       <path d="M 31.78125 66.40625 
Q 24.171875 66.40625 20.328125 58.90625 
Q 16.5 51.421875 16.5 36.375 
Q 16.5 21.390625 20.328125 13.890625 
Q 24.171875 6.390625 31.78125 6.390625 
Q 39.453125 6.390625 43.28125 13.890625 
Q 47.125 21.390625 47.125 36.375 
Q 47.125 51.421875 43.28125 58.90625 
Q 39.453125 66.40625 31.78125 66.40625 
M 31.78125 74.21875 
Q 44.046875 74.21875 50.515625 64.515625 
Q 56.984375 54.828125 56.984375 36.375 
Q 56.984375 17.96875 50.515625 8.265625 
Q 44.046875 -1.421875 31.78125 -1.421875 
Q 19.53125 -1.421875 13.0625 8.265625 
Q 6.59375 17.96875 6.59375 36.375 
Q 6.59375 54.828125 13.0625 64.515625 
Q 19.53125 74.21875 31.78125 74.21875 
" id="BitstreamVeraSans-Roman-30"/>
      </defs>
      <g transform="translate(46.0484375 263.5984375)scale(0.1 -0.1)">
       <use xlink:href="#BitstreamVeraSans-Roman-30"/>
       <use x="63.623046875" xlink:href="#BitstreamVeraSans-Roman-2e"/>
       <use x="95.41015625" xlink:href="#BitstreamVeraSans-Roman-30"/>
      </g>
     </g>
    </g>
    <g id="xtick_2">
     <g id="line2d_5">
      <path clip-path="url(#p05749e8654)" d="M 120.96 252 
L 120.96 28.8 
" style="fill:none;stroke:#000000;stroke-dasharray:1.000000,3.000000;stroke-dashoffset:0.0;stroke-width:0.5;"/>
     </g>
     <g id="line2d_6">
      <g>
       <use style="stroke:#000000;stroke-width:0.5;" x="120.96" xlink:href="#mb6bfdeb6b0" y="252.0"/>
      </g>
     </g>
     <g id="line2d_7">
      <g>
       <use style="stroke:#000000;stroke-width:0.5;" x="120.96" xlink:href="#m4d951a30f0" y="28.8"/>
      </g>
     </g>
     <g id="text_2">
      <!-- 0.2 -->
      <defs>
       <path d="M 19.1875 8.296875 
L 53.609375 8.296875 
L 53.609375 0 
L 7.328125 0 
L 7.328125 8.296875 
Q 12.9375 14.109375 22.625 23.890625 
Q 32.328125 33.6875 34.8125 36.53125 
Q 39.546875 41.84375 41.421875 45.53125 
Q 43.3125 49.21875 43.3125 52.78125 
Q 43.3125 58.59375 39.234375 62.25 
Q 35.15625 65.921875 28.609375 65.921875 
Q 23.96875 65.921875 18.8125 64.3125 
Q 13.671875 62.703125 7.8125 59.421875 
L 7.8125 69.390625 
Q 13.765625 71.78125 18.9375 73 
Q 24.125 74.21875 28.421875 74.21875 
Q 39.75 74.21875 46.484375 68.546875 
Q 53.21875 62.890625 53.21875 53.421875 
Q 53.21875 48.921875 51.53125 44.890625 
Q 49.859375 40.875 45.40625 35.40625 
Q 44.1875 33.984375 37.640625 27.21875 
Q 31.109375 20.453125 19.1875 8.296875 
" id="BitstreamVeraSans-Roman-32"/>
      </defs>
      <g transform="translate(113.0084375 263.5984375)scale(0.1 -0.1)">
       <use xlink:href="#BitstreamVeraSans-Roman-30"/>
       <use x="63.623046875" xlink:href="#BitstreamVeraSans-Roman-2e"/>
       <use x="95.41015625" xlink:href="#BitstreamVeraSans-Roman-32"/>
      </g>
     </g>
    </g>
    <g id="xtick_3">
     <g id="line2d_8">
      <path clip-path="url(#p05749e8654)" d="M 187.92 252 
L 187.92 28.8 
" style="fill:none;stroke:#000000;stroke-dasharray:1.000000,3.000000;stroke-dashoffset:0.0;stroke-width:0.5;"/>
     </g>
     <g id="line2d_9">
      <g>
       <use style="stroke:#000000;stroke-width:0.5;" x="187.92" xlink:href="#mb6bfdeb6b0" y="252.0"/>
      </g>
     </g>
     <g id="line2d_10">
      <g>
       <use style="stroke:#000000;stroke-width:0.5;" x="187.92" xlink:href="#m4d951a30f0" y="28.8"/>
      </g>
     </g>
     <g id="text_3">
      <!-- 0.4 -->
      <defs>
       <path d="M 37.796875 64.3125 
L 12.890625 25.390625 
L 37.796875 25.390625 
z
M 35.203125 72.90625 
L 47.609375 72.90625 
L 47.609375 25.390625 
L 58.015625 25.390625 
L 58.015625 17.1875 
L 47.609375 17.1875 
L 47.609375 0 
L 37.796875 0 
L 37.796875 17.1875 
L 4.890625 17.1875 
L 4.890625 26.703125 
z
" id="BitstreamVeraSans-Roman-34"/>
      </defs>
      <g transform="translate(179.9684375 263.5984375)scale(0.1 -0.1)">
       <use xlink:href="#BitstreamVeraSans-Roman-30"/>
       <use x="63.623046875" xlink:href="#BitstreamVeraSans-Roman-2e"/>
       <use x="95.41015625" xlink:href="#BitstreamVeraSans-Roman-34"/>
      </g>
     </g>
    </g>
    <g id="xtick_4">
     <g id="line2d_11">
      <path clip-path="url(#p05749e8654)" d="M 254.88 252 
L 254.88 28.8 
" style="fill:none;stroke:#000000;stroke-dasharray:1.000000,3.000000;stroke-dashoffset:0.0;stroke-width:0.5;"/>
     </g>
     <g id="line2d_12">
      <g>
       <use style="stroke:#000000;stroke-width:0.5;" x="254.88" xlink:href="#mb6bfdeb6b0" y="252.0"/>
      </g>
     </g>
     <g id="line2d_13">
      <g>
       <use style="stroke:#000000;stroke-width:0.5;" x="254.88" xlink:href="#m4d951a30f0" y="28.8"/>
      </g>
     </g>
     <g id="text_4">
      <!-- 0.6 -->
      <defs>
       <path d="M 33.015625 40.375 
Q 26.375 40.375 22.484375 35.828125 
Q 18.609375 31.296875 18.609375 23.390625 
Q 18.609375 15.53125 22.484375 10.953125 
Q 26.375 6.390625 33.015625 6.390625 
Q 39.65625 6.390625 43.53125 10.953125 
Q 47.40625 15.53125 47.40625 23.390625 
Q 47.40625 31.296875 43.53125 35.828125 
Q 39.65625 40.375 33.015625 40.375 
M 52.59375 71.296875 
L 52.59375 62.3125 
Q 48.875 64.0625 45.09375 64.984375 
Q 41.3125 65.921875 37.59375 65.921875 
Q 27.828125 65.921875 22.671875 59.328125 
Q 17.53125 52.734375 16.796875 39.40625 
Q 19.671875 43.65625 24.015625 45.921875 
Q 28.375 48.1875 33.59375 48.1875 
Q 44.578125 48.1875 50.953125 41.515625 
Q 57.328125 34.859375 57.328125 23.390625 
Q 57.328125 12.15625 50.6875 5.359375 
Q 44.046875 -1.421875 33.015625 -1.421875 
Q 20.359375 -1.421875 13.671875 8.265625 
Q 6.984375 17.96875 6.984375 36.375 
Q 6.984375 53.65625 15.1875 63.9375 
Q 23.390625 74.21875 37.203125 74.21875 
Q 40.921875 74.21875 44.703125 73.484375 
Q 48.484375 72.75 52.59375 71.296875 
" id="BitstreamVeraSans-Roman-36"/>
      </defs>
      <g transform="translate(246.9284375 263.5984375)scale(0.1 -0.1)">
       <use xlink:href="#BitstreamVeraSans-Roman-30"/>
       <use x="63.623046875" xlink:href="#BitstreamVeraSans-Roman-2e"/>
       <use x="95.41015625" xlink:href="#BitstreamVeraSans-Roman-36"/>
      </g>
     </g>
    </g>
    <g id="xtick_5">
     <g id="line2d_14">
      <path clip-path="url(#p05749e8654)" d="M 321.84 252 
L 321.84 28.8 
" style="fill:none;stroke:#000000;stroke-dasharray:1.000000,3.000000;stroke-dashoffset:0.0;stroke-width:0.5;"/>
     </g>
     <g id="line2d_15">
      <g>
       <use style="stroke:#000000;stroke-width:0.5;" x="321.84" xlink:href="#mb6bfdeb6b0" y="252.0"/>
      </g>
     </g>
     <g id="line2d_16">
      <g>
       <use style="stroke:#000000;stroke-width:0.5;" x="321.84" xlink:href="#m4d951a30f0" y="28.8"/>
      </g>
     </g>
     <g id="text_5">
      <!-- 0.8 -->
      <defs>
       <path d="M 31.78125 34.625 
Q 24.75 34.625 20.71875 30.859375 
Q 16.703125 27.09375 16.703125 20.515625 
Q 16.703125 13.921875 20.71875 10.15625 
Q 24.75 6.390625 31.78125 6.390625 
Q 38.8125 6.390625 42.859375 10.171875 
Q 46.921875 13.96875 46.921875 20.515625 
Q 46.921875 27.09375 42.890625 30.859375 
Q 38.875 34.625 31.78125 34.625 
M 21.921875 38.8125 
Q 15.578125 40.375 12.03125 44.71875 
Q 8.5 49.078125 8.5 55.328125 
Q 8.5 64.0625 14.71875 69.140625 
Q 20.953125 74.21875 31.78125 74.21875 
Q 42.671875 74.21875 48.875 69.140625 
Q 55.078125 64.0625 55.078125 55.328125 
Q 55.078125 49.078125 51.53125 44.71875 
Q 48 40.375 41.703125 38.8125 
Q 48.828125 37.15625 52.796875 32.3125 
Q 56.78125 27.484375 56.78125 20.515625 
Q 56.78125 9.90625 50.3125 4.234375 
Q 43.84375 -1.421875 31.78125 -1.421875 
Q 19.734375 -1.421875 13.25 4.234375 
Q 6.78125 9.90625 6.78125 20.515625 
Q 6.78125 27.484375 10.78125 32.3125 
Q 14.796875 37.15625 21.921875 38.8125 
M 18.3125 54.390625 
Q 18.3125 48.734375 21.84375 45.5625 
Q 25.390625 42.390625 31.78125 42.390625 
Q 38.140625 42.390625 41.71875 45.5625 
Q 45.3125 48.734375 45.3125 54.390625 
Q 45.3125 60.0625 41.71875 63.234375 
Q 38.140625 66.40625 31.78125 66.40625 
Q 25.390625 66.40625 21.84375 63.234375 
Q 18.3125 60.0625 18.3125 54.390625 
" id="BitstreamVeraSans-Roman-38"/>
      </defs>
      <g transform="translate(313.8884375 263.5984375)scale(0.1 -0.1)">
       <use xlink:href="#BitstreamVeraSans-Roman-30"/>
       <use x="63.623046875" xlink:href="#BitstreamVeraSans-Roman-2e"/>
       <use x="95.41015625" xlink:href="#BitstreamVeraSans-Roman-38"/>
      </g>
     </g>
    </g>
    <g id="xtick_6">
     <g id="line2d_17">
      <path clip-path="url(#p05749e8654)" d="M 388.8 252 
L 388.8 28.8 
" style="fill:none;stroke:#000000;stroke-dasharray:1.000000,3.000000;stroke-dashoffset:0.0;stroke-width:0.5;"/>
     </g>
     <g id="line2d_18">
      <g>
       <use style="stroke:#000000;stroke-width:0.5;" x="388.8" xlink:href="#mb6bfdeb6b0" y="252.0"/>
      </g>
     </g>
     <g id="line2d_19">
      <g>
       <use style="stroke:#000000;stroke-width:0.5;" x="388.8" xlink:href="#m4d951a30f0" y="28.8"/>
      </g>
     </g>
     <g id="text_6">
      <!-- 1.0 -->
      <defs>
       <path d="M 12.40625 8.296875 
L 28.515625 8.296875 
L 28.515625 63.921875 
L 10.984375 60.40625 
L 10.984375 69.390625 
L 28.421875 72.90625 
L 38.28125 72.90625 
L 38.28125 8.296875 
L 54.390625 8.296875 
L 54.390625 0 
L 12.40625 0 
z
" id="BitstreamVeraSans-Roman-31"/>
      </defs>
      <g transform="translate(380.8484375 263.5984375)scale(0.1 -0.1)">
       <use xlink:href="#BitstreamVeraSans-Roman-31"/>
       <use x="63.623046875" xlink:href="#BitstreamVeraSans-Roman-2e"/>
       <use x="95.41015625" xlink:href="#BitstreamVeraSans-Roman-30"/>
      </g>
     </g>
    </g>
    <g id="text_7">
     <!-- X0 -->
     <defs>
      <path d="M 6.296875 72.90625 
L 16.890625 72.90625 
L 35.015625 45.796875 
L 53.21875 72.90625 
L 63.8125 72.90625 
L 40.375 37.890625 
L 65.375 0 
L 54.78125 0 
L 34.28125 31 
L 13.625 0 
L 2.984375 0 
L 29 38.921875 
z
" id="BitstreamVeraSans-Roman-58"/>
     </defs>
     <g transform="translate(214.79375 278.2765625)scale(0.1 -0.1)">
      <use xlink:href="#BitstreamVeraSans-Roman-58"/>
      <use x="68.505859375" xlink:href="#BitstreamVeraSans-Roman-30"/>
     </g>
    </g>
   </g>
   <g id="matplotlib.axis_2">
    <g id="ytick_1">
     <g id="line2d_20">
      <path clip-path="url(#p05749e8654)" d="M 54 252 
L 388.8 252 
" style="fill:none;stroke:#000000;stroke-dasharray:1.000000,3.000000;stroke-dashoffset:0.0;stroke-width:0.5;"/>
     </g>
     <g id="line2d_21">
      <defs>
       <path d="M 0 0 
L 4 0 
" id="m86d8348f10" style="stroke:#000000;stroke-width:0.5;"/>
      </defs>
      <g>
       <use style="stroke:#000000;stroke-width:0.5;" x="54.0" xlink:href="#m86d8348f10" y="252.0"/>
      </g>
     </g>
     <g id="line2d_22">
      <defs>
       <path d="M 0 0 
L -4 0 
" id="m35d6f17c4f" style="stroke:#000000;stroke-width:0.5;"/>
      </defs>
      <g>
       <use style="stroke:#000000;stroke-width:0.5;" x="388.8" xlink:href="#m35d6f17c4f" y="252.0"/>
      </g>
     </g>
     <g id="text_8">
      <!-- 0.0 -->
      <g transform="translate(34.096875 254.759375)scale(0.1 -0.1)">
       <use xlink:href="#BitstreamVeraSans-Roman-30"/>
       <use x="63.623046875" xlink:href="#BitstreamVeraSans-Roman-2e"/>
       <use x="95.41015625" xlink:href="#BitstreamVeraSans-Roman-30"/>
      </g>
     </g>
    </g>
    <g id="ytick_2">
     <g id="line2d_23">
      <path clip-path="url(#p05749e8654)" d="M 54 207.36 
L 388.8 207.36 
" style="fill:none;stroke:#000000;stroke-dasharray:1.000000,3.000000;stroke-dashoffset:0.0;stroke-width:0.5;"/>
     </g>
     <g id="line2d_24">
      <g>
       <use style="stroke:#000000;stroke-width:0.5;" x="54.0" xlink:href="#m86d8348f10" y="207.36"/>
      </g>
     </g>
     <g id="line2d_25">
      <g>
       <use style="stroke:#000000;stroke-width:0.5;" x="388.8" xlink:href="#m35d6f17c4f" y="207.36"/>
      </g>
     </g>
     <g id="text_9">
      <!-- 0.2 -->
      <g transform="translate(34.096875 210.119375)scale(0.1 -0.1)">
       <use xlink:href="#BitstreamVeraSans-Roman-30"/>
       <use x="63.623046875" xlink:href="#BitstreamVeraSans-Roman-2e"/>
       <use x="95.41015625" xlink:href="#BitstreamVeraSans-Roman-32"/>
      </g>
     </g>
    </g>
    <g id="ytick_3">
     <g id="line2d_26">
      <path clip-path="url(#p05749e8654)" d="M 54 162.72 
L 388.8 162.72 
" style="fill:none;stroke:#000000;stroke-dasharray:1.000000,3.000000;stroke-dashoffset:0.0;stroke-width:0.5;"/>
     </g>
     <g id="line2d_27">
      <g>
       <use style="stroke:#000000;stroke-width:0.5;" x="54.0" xlink:href="#m86d8348f10" y="162.72"/>
      </g>
     </g>
     <g id="line2d_28">
      <g>
       <use style="stroke:#000000;stroke-width:0.5;" x="388.8" xlink:href="#m35d6f17c4f" y="162.72"/>
      </g>
     </g>
     <g id="text_10">
      <!-- 0.4 -->
      <g transform="translate(34.096875 165.479375)scale(0.1 -0.1)">
       <use xlink:href="#BitstreamVeraSans-Roman-30"/>
       <use x="63.623046875" xlink:href="#BitstreamVeraSans-Roman-2e"/>
       <use x="95.41015625" xlink:href="#BitstreamVeraSans-Roman-34"/>
      </g>
     </g>
    </g>
    <g id="ytick_4">
     <g id="line2d_29">
      <path clip-path="url(#p05749e8654)" d="M 54 118.08 
L 388.8 118.08 
" style="fill:none;stroke:#000000;stroke-dasharray:1.000000,3.000000;stroke-dashoffset:0.0;stroke-width:0.5;"/>
     </g>
     <g id="line2d_30">
      <g>
       <use style="stroke:#000000;stroke-width:0.5;" x="54.0" xlink:href="#m86d8348f10" y="118.08"/>
      </g>
     </g>
     <g id="line2d_31">
      <g>
       <use style="stroke:#000000;stroke-width:0.5;" x="388.8" xlink:href="#m35d6f17c4f" y="118.08"/>
      </g>
     </g>
     <g id="text_11">
      <!-- 0.6 -->
      <g transform="translate(34.096875 120.839375)scale(0.1 -0.1)">
       <use xlink:href="#BitstreamVeraSans-Roman-30"/>
       <use x="63.623046875" xlink:href="#BitstreamVeraSans-Roman-2e"/>
       <use x="95.41015625" xlink:href="#BitstreamVeraSans-Roman-36"/>
      </g>
     </g>
    </g>
    <g id="ytick_5">
     <g id="line2d_32">
      <path clip-path="url(#p05749e8654)" d="M 54 73.44 
L 388.8 73.44 
" style="fill:none;stroke:#000000;stroke-dasharray:1.000000,3.000000;stroke-dashoffset:0.0;stroke-width:0.5;"/>
     </g>
     <g id="line2d_33">
      <g>
       <use style="stroke:#000000;stroke-width:0.5;" x="54.0" xlink:href="#m86d8348f10" y="73.44"/>
      </g>
     </g>
     <g id="line2d_34">
      <g>
       <use style="stroke:#000000;stroke-width:0.5;" x="388.8" xlink:href="#m35d6f17c4f" y="73.44"/>
      </g>
     </g>
     <g id="text_12">
      <!-- 0.8 -->
      <g transform="translate(34.096875 76.199375)scale(0.1 -0.1)">
       <use xlink:href="#BitstreamVeraSans-Roman-30"/>
       <use x="63.623046875" xlink:href="#BitstreamVeraSans-Roman-2e"/>
       <use x="95.41015625" xlink:href="#BitstreamVeraSans-Roman-38"/>
      </g>
     </g>
    </g>
    <g id="ytick_6">
     <g id="line2d_35">
      <path clip-path="url(#p05749e8654)" d="M 54 28.8 
L 388.8 28.8 
" style="fill:none;stroke:#000000;stroke-dasharray:1.000000,3.000000;stroke-dashoffset:0.0;stroke-width:0.5;"/>
     </g>
     <g id="line2d_36">
      <g>
       <use style="stroke:#000000;stroke-width:0.5;" x="54.0" xlink:href="#m86d8348f10" y="28.8"/>
      </g>
     </g>
     <g id="line2d_37">
      <g>
       <use style="stroke:#000000;stroke-width:0.5;" x="388.8" xlink:href="#m35d6f17c4f" y="28.8"/>
      </g>
     </g>
     <g id="text_13">
      <!-- 1.0 -->
      <g transform="translate(34.096875 31.559375)scale(0.1 -0.1)">
       <use xlink:href="#BitstreamVeraSans-Roman-31"/>
       <use x="63.623046875" xlink:href="#BitstreamVeraSans-Roman-2e"/>
       <use x="95.41015625" xlink:href="#BitstreamVeraSans-Roman-30"/>
      </g>
     </g>
    </g>
    <g id="text_14">
     <!-- X1 -->
     <g transform="translate(27.0171875 147.00625)rotate(-90.0)scale(0.1 -0.1)">
      <use xlink:href="#BitstreamVeraSans-Roman-58"/>
      <use x="68.505859375" xlink:href="#BitstreamVeraSans-Roman-31"/>
     </g>
    </g>
   </g>
   <g id="text_15">
    <g clip-path="url(#p05749e8654)">
     <!-- 0.434932 -->
     <defs>
      <path d="M 10.984375 1.515625 
L 10.984375 10.5 
Q 14.703125 8.734375 18.5 7.8125 
Q 22.3125 6.890625 25.984375 6.890625 
Q 35.75 6.890625 40.890625 13.453125 
Q 46.046875 20.015625 46.78125 33.40625 
Q 43.953125 29.203125 39.59375 26.953125 
Q 35.25 24.703125 29.984375 24.703125 
Q 19.046875 24.703125 12.671875 31.3125 
Q 6.296875 37.9375 6.296875 49.421875 
Q 6.296875 60.640625 12.9375 67.421875 
Q 19.578125 74.21875 30.609375 74.21875 
Q 43.265625 74.21875 49.921875 64.515625 
Q 56.59375 54.828125 56.59375 36.375 
Q 56.59375 19.140625 48.40625 8.859375 
Q 40.234375 -1.421875 26.421875 -1.421875 
Q 22.703125 -1.421875 18.890625 -0.6875 
Q 15.09375 0.046875 10.984375 1.515625 
M 30.609375 32.421875 
Q 37.25 32.421875 41.125 36.953125 
Q 45.015625 41.5 45.015625 49.421875 
Q 45.015625 57.28125 41.125 61.84375 
Q 37.25 66.40625 30.609375 66.40625 
Q 23.96875 66.40625 20.09375 61.84375 
Q 16.21875 57.28125 16.21875 49.421875 
Q 16.21875 41.5 20.09375 36.953125 
Q 23.96875 32.421875 30.609375 32.421875 
" id="BitstreamVeraSans-Roman-39"/>
      <path d="M 40.578125 39.3125 
Q 47.65625 37.796875 51.625 33 
Q 55.609375 28.21875 55.609375 21.1875 
Q 55.609375 10.40625 48.1875 4.484375 
Q 40.765625 -1.421875 27.09375 -1.421875 
Q 22.515625 -1.421875 17.65625 -0.515625 
Q 12.796875 0.390625 7.625 2.203125 
L 7.625 11.71875 
Q 11.71875 9.328125 16.59375 8.109375 
Q 21.484375 6.890625 26.8125 6.890625 
Q 36.078125 6.890625 40.9375 10.546875 
Q 45.796875 14.203125 45.796875 21.1875 
Q 45.796875 27.640625 41.28125 31.265625 
Q 36.765625 34.90625 28.71875 34.90625 
L 20.21875 34.90625 
L 20.21875 43.015625 
L 29.109375 43.015625 
Q 36.375 43.015625 40.234375 45.921875 
Q 44.09375 48.828125 44.09375 54.296875 
Q 44.09375 59.90625 40.109375 62.90625 
Q 36.140625 65.921875 28.71875 65.921875 
Q 24.65625 65.921875 20.015625 65.03125 
Q 15.375 64.15625 9.8125 62.3125 
L 9.8125 71.09375 
Q 15.4375 72.65625 20.34375 73.4375 
Q 25.25 74.21875 29.59375 74.21875 
Q 40.828125 74.21875 47.359375 69.109375 
Q 53.90625 64.015625 53.90625 55.328125 
Q 53.90625 49.265625 50.4375 45.09375 
Q 46.96875 40.921875 40.578125 39.3125 
" id="BitstreamVeraSans-Roman-33"/>
     </defs>
     <g style="fill:#0000ff;" transform="translate(390.246088368 124.625368756)rotate(-89.62280960094549)scale(0.08 -0.08)">
      <use xlink:href="#BitstreamVeraSans-Roman-30"/>
      <use x="63.623046875" xlink:href="#BitstreamVeraSans-Roman-2e"/>
      <use x="95.41015625" xlink:href="#BitstreamVeraSans-Roman-34"/>
      <use x="159.033203125" xlink:href="#BitstreamVeraSans-Roman-33"/>
      <use x="222.65625" xlink:href="#BitstreamVeraSans-Roman-34"/>
      <use x="286.279296875" xlink:href="#BitstreamVeraSans-Roman-39"/>
      <use x="349.90234375" xlink:href="#BitstreamVeraSans-Roman-33"/>
      <use x="413.525390625" xlink:href="#BitstreamVeraSans-Roman-32"/>
     </g>
    </g>
   </g>
   <g id="text_16">
    <g clip-path="url(#p05749e8654)">
     <!-- 0.720955 -->
     <defs>
      <path d="M 8.203125 72.90625 
L 55.078125 72.90625 
L 55.078125 68.703125 
L 28.609375 0 
L 18.3125 0 
L 43.21875 64.59375 
L 8.203125 64.59375 
z
" id="BitstreamVeraSans-Roman-37"/>
      <path d="M 10.796875 72.90625 
L 49.515625 72.90625 
L 49.515625 64.59375 
L 19.828125 64.59375 
L 19.828125 46.734375 
Q 21.96875 47.46875 24.109375 47.828125 
Q 26.265625 48.1875 28.421875 48.1875 
Q 40.625 48.1875 47.75 41.5 
Q 54.890625 34.8125 54.890625 23.390625 
Q 54.890625 11.625 47.5625 5.09375 
Q 40.234375 -1.421875 26.90625 -1.421875 
Q 22.3125 -1.421875 17.546875 -0.640625 
Q 12.796875 0.140625 7.71875 1.703125 
L 7.71875 11.625 
Q 12.109375 9.234375 16.796875 8.0625 
Q 21.484375 6.890625 26.703125 6.890625 
Q 35.15625 6.890625 40.078125 11.328125 
Q 45.015625 15.765625 45.015625 23.390625 
Q 45.015625 31 40.078125 35.4375 
Q 35.15625 39.890625 26.703125 39.890625 
Q 22.75 39.890625 18.8125 39.015625 
Q 14.890625 38.140625 10.796875 36.28125 
z
" id="BitstreamVeraSans-Roman-35"/>
     </defs>
     <g style="fill:#0000ff;" transform="translate(87.2345336985 253.541872108)rotate(-0.2116252107621426)scale(0.08 -0.08)">
      <use xlink:href="#BitstreamVeraSans-Roman-30"/>
      <use x="63.623046875" xlink:href="#BitstreamVeraSans-Roman-2e"/>
      <use x="95.41015625" xlink:href="#BitstreamVeraSans-Roman-37"/>
      <use x="159.033203125" xlink:href="#BitstreamVeraSans-Roman-32"/>
      <use x="222.65625" xlink:href="#BitstreamVeraSans-Roman-30"/>
      <use x="286.279296875" xlink:href="#BitstreamVeraSans-Roman-39"/>
      <use x="349.90234375" xlink:href="#BitstreamVeraSans-Roman-35"/>
      <use x="413.525390625" xlink:href="#BitstreamVeraSans-Roman-35"/>
     </g>
    </g>
   </g>
   <g id="text_17">
    <g clip-path="url(#p05749e8654)">
     <!-- 0.849496 -->
     <g style="fill:#0000ff;" transform="translate(283.418918748 32.4291643402)rotate(-0.5193583475250136)scale(0.08 -0.08)">
      <use xlink:href="#BitstreamVeraSans-Roman-30"/>
      <use x="63.623046875" xlink:href="#BitstreamVeraSans-Roman-2e"/>
      <use x="95.41015625" xlink:href="#BitstreamVeraSans-Roman-38"/>
      <use x="159.033203125" xlink:href="#BitstreamVeraSans-Roman-34"/>
      <use x="222.65625" xlink:href="#BitstreamVeraSans-Roman-39"/>
      <use x="286.279296875" xlink:href="#BitstreamVeraSans-Roman-34"/>
      <use x="349.90234375" xlink:href="#BitstreamVeraSans-Roman-39"/>
      <use x="413.525390625" xlink:href="#BitstreamVeraSans-Roman-36"/>
     </g>
    </g>
   </g>
   <g id="text_18">
    <g clip-path="url(#p05749e8654)">
     <!-- 0.927672 -->
     <g style="fill:#0000ff;" transform="translate(57.4448550549 215.311986341)rotate(-89.29443297084723)scale(0.08 -0.08)">
      <use xlink:href="#BitstreamVeraSans-Roman-30"/>
      <use x="63.623046875" xlink:href="#BitstreamVeraSans-Roman-2e"/>
      <use x="95.41015625" xlink:href="#BitstreamVeraSans-Roman-39"/>
      <use x="159.033203125" xlink:href="#BitstreamVeraSans-Roman-32"/>
      <use x="222.65625" xlink:href="#BitstreamVeraSans-Roman-37"/>
      <use x="286.279296875" xlink:href="#BitstreamVeraSans-Roman-36"/>
      <use x="349.90234375" xlink:href="#BitstreamVeraSans-Roman-37"/>
      <use x="413.525390625" xlink:href="#BitstreamVeraSans-Roman-32"/>
     </g>
    </g>
   </g>
   <g id="text_19">
    <g clip-path="url(#p05749e8654)">
     <!-- 0.981358 -->
     <g style="fill:#0000ff;" transform="translate(260.634423173 180.01468481)rotate(-11.04968586418513)scale(0.08 -0.08)">
      <use xlink:href="#BitstreamVeraSans-Roman-30"/>
      <use x="63.623046875" xlink:href="#BitstreamVeraSans-Roman-2e"/>
      <use x="95.41015625" xlink:href="#BitstreamVeraSans-Roman-39"/>
      <use x="159.033203125" xlink:href="#BitstreamVeraSans-Roman-38"/>
      <use x="222.65625" xlink:href="#BitstreamVeraSans-Roman-31"/>
      <use x="286.279296875" xlink:href="#BitstreamVeraSans-Roman-33"/>
      <use x="349.90234375" xlink:href="#BitstreamVeraSans-Roman-35"/>
      <use x="413.525390625" xlink:href="#BitstreamVeraSans-Roman-38"/>
     </g>
    </g>
   </g>
   <g id="text_20">
    <g clip-path="url(#p05749e8654)">
     <!-- 1.0138 -->
     <g style="fill:#0000ff;" transform="translate(152.490855397 252.912785838)rotate(-0.38702116628712874)scale(0.08 -0.08)">
      <use xlink:href="#BitstreamVeraSans-Roman-31"/>
      <use x="63.623046875" xlink:href="#BitstreamVeraSans-Roman-2e"/>
      <use x="95.41015625" xlink:href="#BitstreamVeraSans-Roman-30"/>
      <use x="159.033203125" xlink:href="#BitstreamVeraSans-Roman-31"/>
      <use x="222.65625" xlink:href="#BitstreamVeraSans-Roman-33"/>
      <use x="286.279296875" xlink:href="#BitstreamVeraSans-Roman-38"/>
     </g>
    </g>
   </g>
   <g id="text_21">
    <g clip-path="url(#p05749e8654)">
     <!-- 1.0138 -->
     <g style="fill:#0000ff;" transform="translate(327.747032057 32.2969422834)rotate(-0.6157637934932154)scale(0.08 -0.08)">
      <use xlink:href="#BitstreamVeraSans-Roman-31"/>
      <use x="63.623046875" xlink:href="#BitstreamVeraSans-Roman-2e"/>
      <use x="95.41015625" xlink:href="#BitstreamVeraSans-Roman-30"/>
      <use x="159.033203125" xlink:href="#BitstreamVeraSans-Roman-31"/>
      <use x="222.65625" xlink:href="#BitstreamVeraSans-Roman-33"/>
      <use x="286.279296875" xlink:href="#BitstreamVeraSans-Roman-38"/>
     </g>
    </g>
   </g>
   <g id="text_22">
    <g clip-path="url(#p05749e8654)">
     <!-- 1.05533 -->
     <g style="fill:#0000ff;" transform="translate(81.9614587832 160.0917781)rotate(-343.88852943390316)scale(0.08 -0.08)">
      <use xlink:href="#BitstreamVeraSans-Roman-31"/>
      <use x="63.623046875" xlink:href="#BitstreamVeraSans-Roman-2e"/>
      <use x="95.41015625" xlink:href="#BitstreamVeraSans-Roman-30"/>
      <use x="159.033203125" xlink:href="#BitstreamVeraSans-Roman-35"/>
      <use x="222.65625" xlink:href="#BitstreamVeraSans-Roman-35"/>
      <use x="286.279296875" xlink:href="#BitstreamVeraSans-Roman-33"/>
      <use x="349.90234375" xlink:href="#BitstreamVeraSans-Roman-33"/>
     </g>
    </g>
   </g>
   <g id="text_23">
    <g clip-path="url(#p05749e8654)">
     <!-- 1.05533 -->
     <g style="fill:#0000ff;" transform="translate(251.97267538 70.1026297345)rotate(-28.85067077914374)scale(0.08 -0.08)">
      <use xlink:href="#BitstreamVeraSans-Roman-31"/>
      <use x="63.623046875" xlink:href="#BitstreamVeraSans-Roman-2e"/>
      <use x="95.41015625" xlink:href="#BitstreamVeraSans-Roman-30"/>
      <use x="159.033203125" xlink:href="#BitstreamVeraSans-Roman-35"/>
      <use x="222.65625" xlink:href="#BitstreamVeraSans-Roman-35"/>
      <use x="286.279296875" xlink:href="#BitstreamVeraSans-Roman-33"/>
      <use x="349.90234375" xlink:href="#BitstreamVeraSans-Roman-33"/>
     </g>
    </g>
   </g>
   <g id="text_24">
    <g clip-path="url(#p05749e8654)">
     <!-- 1.10373 -->
     <g style="fill:#0000ff;" transform="translate(118.34089888 179.277239015)rotate(-329.6229813321252)scale(0.08 -0.08)">
      <use xlink:href="#BitstreamVeraSans-Roman-31"/>
      <use x="63.623046875" xlink:href="#BitstreamVeraSans-Roman-2e"/>
      <use x="95.41015625" xlink:href="#BitstreamVeraSans-Roman-31"/>
      <use x="159.033203125" xlink:href="#BitstreamVeraSans-Roman-30"/>
      <use x="222.65625" xlink:href="#BitstreamVeraSans-Roman-33"/>
      <use x="286.279296875" xlink:href="#BitstreamVeraSans-Roman-37"/>
      <use x="349.90234375" xlink:href="#BitstreamVeraSans-Roman-33"/>
     </g>
    </g>
   </g>
   <g id="text_25">
    <g clip-path="url(#p05749e8654)">
     <!-- 1.10373 -->
     <g style="fill:#0000ff;" transform="translate(388.96287318 71.5382028207)rotate(-88.85823909067406)scale(0.08 -0.08)">
      <use xlink:href="#BitstreamVeraSans-Roman-31"/>
      <use x="63.623046875" xlink:href="#BitstreamVeraSans-Roman-2e"/>
      <use x="95.41015625" xlink:href="#BitstreamVeraSans-Roman-31"/>
      <use x="159.033203125" xlink:href="#BitstreamVeraSans-Roman-30"/>
      <use x="222.65625" xlink:href="#BitstreamVeraSans-Roman-33"/>
      <use x="286.279296875" xlink:href="#BitstreamVeraSans-Roman-37"/>
      <use x="349.90234375" xlink:href="#BitstreamVeraSans-Roman-33"/>
     </g>
    </g>
   </g>
   <g id="text_26">
    <g clip-path="url(#p05749e8654)">
     <!-- 1.17098 -->
     <g style="fill:#0000ff;" transform="translate(81.9375070749 253.154489842)rotate(-0.33356968144416027)scale(0.08 -0.08)">
      <use xlink:href="#BitstreamVeraSans-Roman-31"/>
      <use x="63.623046875" xlink:href="#BitstreamVeraSans-Roman-2e"/>
      <use x="95.41015625" xlink:href="#BitstreamVeraSans-Roman-31"/>
      <use x="159.033203125" xlink:href="#BitstreamVeraSans-Roman-37"/>
      <use x="222.65625" xlink:href="#BitstreamVeraSans-Roman-30"/>
      <use x="286.279296875" xlink:href="#BitstreamVeraSans-Roman-39"/>
      <use x="349.90234375" xlink:href="#BitstreamVeraSans-Roman-38"/>
     </g>
    </g>
   </g>
   <g id="text_27">
    <g clip-path="url(#p05749e8654)">
     <!-- 1.17098 -->
     <g style="fill:#0000ff;" transform="translate(323.12726046 83.3004349681)rotate(-335.6010740541195)scale(0.08 -0.08)">
      <use xlink:href="#BitstreamVeraSans-Roman-31"/>
      <use x="63.623046875" xlink:href="#BitstreamVeraSans-Roman-2e"/>
      <use x="95.41015625" xlink:href="#BitstreamVeraSans-Roman-31"/>
      <use x="159.033203125" xlink:href="#BitstreamVeraSans-Roman-37"/>
      <use x="222.65625" xlink:href="#BitstreamVeraSans-Roman-30"/>
      <use x="286.279296875" xlink:href="#BitstreamVeraSans-Roman-39"/>
      <use x="349.90234375" xlink:href="#BitstreamVeraSans-Roman-38"/>
     </g>
    </g>
   </g>
   <g id="text_28">
    <g clip-path="url(#p05749e8654)">
     <!-- 1.47004 -->
     <g style="fill:#0000ff;" transform="translate(58.0672004384 226.721661163)rotate(-89.16506285079154)scale(0.08 -0.08)">
      <use xlink:href="#BitstreamVeraSans-Roman-31"/>
      <use x="63.623046875" xlink:href="#BitstreamVeraSans-Roman-2e"/>
      <use x="95.41015625" xlink:href="#BitstreamVeraSans-Roman-34"/>
      <use x="159.033203125" xlink:href="#BitstreamVeraSans-Roman-37"/>
      <use x="222.65625" xlink:href="#BitstreamVeraSans-Roman-30"/>
      <use x="286.279296875" xlink:href="#BitstreamVeraSans-Roman-30"/>
      <use x="349.90234375" xlink:href="#BitstreamVeraSans-Roman-34"/>
     </g>
    </g>
   </g>
   <g id="text_29">
    <!-- [X0,X1] iso-PDF -->
    <defs>
     <path d="M 11.71875 12.40625 
L 22.015625 12.40625 
L 22.015625 4 
L 14.015625 -11.625 
L 7.71875 -11.625 
L 11.71875 4 
z
" id="BitstreamVeraSans-Roman-2c"/>
     <path d="M 19.671875 64.796875 
L 19.671875 37.40625 
L 32.078125 37.40625 
Q 38.96875 37.40625 42.71875 40.96875 
Q 46.484375 44.53125 46.484375 51.125 
Q 46.484375 57.671875 42.71875 61.234375 
Q 38.96875 64.796875 32.078125 64.796875 
z
M 9.8125 72.90625 
L 32.078125 72.90625 
Q 44.34375 72.90625 50.609375 67.359375 
Q 56.890625 61.8125 56.890625 51.125 
Q 56.890625 40.328125 50.609375 34.8125 
Q 44.34375 29.296875 32.078125 29.296875 
L 19.671875 29.296875 
L 19.671875 0 
L 9.8125 0 
z
" id="BitstreamVeraSans-Roman-50"/>
     <path d="M 44.28125 53.078125 
L 44.28125 44.578125 
Q 40.484375 46.53125 36.375 47.5 
Q 32.28125 48.484375 27.875 48.484375 
Q 21.1875 48.484375 17.84375 46.4375 
Q 14.5 44.390625 14.5 40.28125 
Q 14.5 37.15625 16.890625 35.375 
Q 19.28125 33.59375 26.515625 31.984375 
L 29.59375 31.296875 
Q 39.15625 29.25 43.1875 25.515625 
Q 47.21875 21.78125 47.21875 15.09375 
Q 47.21875 7.46875 41.1875 3.015625 
Q 35.15625 -1.421875 24.609375 -1.421875 
Q 20.21875 -1.421875 15.453125 -0.5625 
Q 10.6875 0.296875 5.421875 2 
L 5.421875 11.28125 
Q 10.40625 8.6875 15.234375 7.390625 
Q 20.0625 6.109375 24.8125 6.109375 
Q 31.15625 6.109375 34.5625 8.28125 
Q 37.984375 10.453125 37.984375 14.40625 
Q 37.984375 18.0625 35.515625 20.015625 
Q 33.0625 21.96875 24.703125 23.78125 
L 21.578125 24.515625 
Q 13.234375 26.265625 9.515625 29.90625 
Q 5.8125 33.546875 5.8125 39.890625 
Q 5.8125 47.609375 11.28125 51.796875 
Q 16.75 56 26.8125 56 
Q 31.78125 56 36.171875 55.265625 
Q 40.578125 54.546875 44.28125 53.078125 
" id="BitstreamVeraSans-Roman-73"/>
     <path d="M 19.671875 64.796875 
L 19.671875 8.109375 
L 31.59375 8.109375 
Q 46.6875 8.109375 53.6875 14.9375 
Q 60.6875 21.78125 60.6875 36.53125 
Q 60.6875 51.171875 53.6875 57.984375 
Q 46.6875 64.796875 31.59375 64.796875 
z
M 9.8125 72.90625 
L 30.078125 72.90625 
Q 51.265625 72.90625 61.171875 64.09375 
Q 71.09375 55.28125 71.09375 36.53125 
Q 71.09375 17.671875 61.125 8.828125 
Q 51.171875 0 30.078125 0 
L 9.8125 0 
z
" id="BitstreamVeraSans-Roman-44"/>
     <path d="M 8.59375 75.984375 
L 29.296875 75.984375 
L 29.296875 69 
L 17.578125 69 
L 17.578125 -6.203125 
L 29.296875 -6.203125 
L 29.296875 -13.1875 
L 8.59375 -13.1875 
z
" id="BitstreamVeraSans-Roman-5b"/>
     <path d="M 9.421875 54.6875 
L 18.40625 54.6875 
L 18.40625 0 
L 9.421875 0 
z
M 9.421875 75.984375 
L 18.40625 75.984375 
L 18.40625 64.59375 
L 9.421875 64.59375 
z
" id="BitstreamVeraSans-Roman-69"/>
     <path d="M 30.609375 48.390625 
Q 23.390625 48.390625 19.1875 42.75 
Q 14.984375 37.109375 14.984375 27.296875 
Q 14.984375 17.484375 19.15625 11.84375 
Q 23.34375 6.203125 30.609375 6.203125 
Q 37.796875 6.203125 41.984375 11.859375 
Q 46.1875 17.53125 46.1875 27.296875 
Q 46.1875 37.015625 41.984375 42.703125 
Q 37.796875 48.390625 30.609375 48.390625 
M 30.609375 56 
Q 42.328125 56 49.015625 48.375 
Q 55.71875 40.765625 55.71875 27.296875 
Q 55.71875 13.875 49.015625 6.21875 
Q 42.328125 -1.421875 30.609375 -1.421875 
Q 18.84375 -1.421875 12.171875 6.21875 
Q 5.515625 13.875 5.515625 27.296875 
Q 5.515625 40.765625 12.171875 48.375 
Q 18.84375 56 30.609375 56 
" id="BitstreamVeraSans-Roman-6f"/>
     <path id="BitstreamVeraSans-Roman-20"/>
     <path d="M 9.8125 72.90625 
L 51.703125 72.90625 
L 51.703125 64.59375 
L 19.671875 64.59375 
L 19.671875 43.109375 
L 48.578125 43.109375 
L 48.578125 34.8125 
L 19.671875 34.8125 
L 19.671875 0 
L 9.8125 0 
z
" id="BitstreamVeraSans-Roman-46"/>
     <path d="M 30.421875 75.984375 
L 30.421875 -13.1875 
L 9.71875 -13.1875 
L 9.71875 -6.203125 
L 21.390625 -6.203125 
L 21.390625 69 
L 9.71875 69 
L 9.71875 75.984375 
z
" id="BitstreamVeraSans-Roman-5d"/>
     <path d="M 4.890625 31.390625 
L 31.203125 31.390625 
L 31.203125 23.390625 
L 4.890625 23.390625 
z
" id="BitstreamVeraSans-Roman-2d"/>
    </defs>
    <g transform="translate(174.73125 23.8)scale(0.12 -0.12)">
     <use xlink:href="#BitstreamVeraSans-Roman-5b"/>
     <use x="39.013671875" xlink:href="#BitstreamVeraSans-Roman-58"/>
     <use x="107.51953125" xlink:href="#BitstreamVeraSans-Roman-30"/>
     <use x="171.142578125" xlink:href="#BitstreamVeraSans-Roman-2c"/>
     <use x="202.9296875" xlink:href="#BitstreamVeraSans-Roman-58"/>
     <use x="271.435546875" xlink:href="#BitstreamVeraSans-Roman-31"/>
     <use x="335.05859375" xlink:href="#BitstreamVeraSans-Roman-5d"/>
     <use x="374.072265625" xlink:href="#BitstreamVeraSans-Roman-20"/>
     <use x="405.859375" xlink:href="#BitstreamVeraSans-Roman-69"/>
     <use x="433.642578125" xlink:href="#BitstreamVeraSans-Roman-73"/>
     <use x="485.7421875" xlink:href="#BitstreamVeraSans-Roman-6f"/>
     <use x="546.939453125" xlink:href="#BitstreamVeraSans-Roman-2d"/>
     <use x="583.0234375" xlink:href="#BitstreamVeraSans-Roman-50"/>
     <use x="643.326171875" xlink:href="#BitstreamVeraSans-Roman-44"/>
     <use x="720.328125" xlink:href="#BitstreamVeraSans-Roman-46"/>
    </g>
   </g>
   <g id="legend_1">
    <g id="patch_7">
     <path d="M 274.01875 53.478125 
L 383.8 53.478125 
Q 385.8 53.478125 385.8 51.478125 
L 385.8 37.8 
Q 385.8 35.8 383.8 35.8 
L 274.01875 35.8 
Q 272.01875 35.8 272.01875 37.8 
L 272.01875 51.478125 
Q 272.01875 53.478125 274.01875 53.478125 
z
" style="fill:#4c4c4c;opacity:0.5;stroke:#4c4c4c;stroke-linejoin:miter;"/>
    </g>
    <g id="patch_8">
     <path d="M 272.01875 51.478125 
L 381.8 51.478125 
Q 383.8 51.478125 383.8 49.478125 
L 383.8 35.8 
Q 383.8 33.8 381.8 33.8 
L 272.01875 33.8 
Q 270.01875 33.8 270.01875 35.8 
L 270.01875 49.478125 
Q 270.01875 51.478125 272.01875 51.478125 
z
" style="fill:#ffffff;stroke:#000000;stroke-linejoin:miter;"/>
    </g>
    <g id="line2d_38">
     <path d="M 277.01875 41.898438 
L 284.01875 41.898438 
L 291.01875 41.898438 
" style="fill:none;stroke:#0000ff;stroke-linecap:square;"/>
    </g>
    <g id="text_30">
     <!-- [X0,X1] iso-PDF -->
     <g transform="translate(302.01875 45.3984375)scale(0.1 -0.1)">
      <use xlink:href="#BitstreamVeraSans-Roman-5b"/>
      <use x="39.013671875" xlink:href="#BitstreamVeraSans-Roman-58"/>
      <use x="107.51953125" xlink:href="#BitstreamVeraSans-Roman-30"/>
      <use x="171.142578125" xlink:href="#BitstreamVeraSans-Roman-2c"/>
      <use x="202.9296875" xlink:href="#BitstreamVeraSans-Roman-58"/>
      <use x="271.435546875" xlink:href="#BitstreamVeraSans-Roman-31"/>
      <use x="335.05859375" xlink:href="#BitstreamVeraSans-Roman-5d"/>
      <use x="374.072265625" xlink:href="#BitstreamVeraSans-Roman-20"/>
      <use x="405.859375" xlink:href="#BitstreamVeraSans-Roman-69"/>
      <use x="433.642578125" xlink:href="#BitstreamVeraSans-Roman-73"/>
      <use x="485.7421875" xlink:href="#BitstreamVeraSans-Roman-6f"/>
      <use x="546.939453125" xlink:href="#BitstreamVeraSans-Roman-2d"/>
      <use x="583.0234375" xlink:href="#BitstreamVeraSans-Roman-50"/>
      <use x="643.326171875" xlink:href="#BitstreamVeraSans-Roman-44"/>
      <use x="720.328125" xlink:href="#BitstreamVeraSans-Roman-46"/>
     </g>
    </g>
   </g>
  </g>
 </g>
 <defs>
  <clipPath id="p05749e8654">
   <rect height="223.2" width="334.8" x="54.0" y="28.8"/>
  </clipPath>
 </defs>
</svg>
