<?xml version="1.0" encoding="utf-8" standalone="no"?>
<!DOCTYPE svg PUBLIC "-//W3C//DTD SVG 1.1//EN"
  "http://www.w3.org/Graphics/SVG/1.1/DTD/svg11.dtd">
<!-- Created with matplotlib (http://matplotlib.org/) -->
<svg height="288pt" version="1.1" viewBox="0 0 432 288" width="432pt" xmlns="http://www.w3.org/2000/svg" xmlns:xlink="http://www.w3.org/1999/xlink">
 <defs>
  <style type="text/css">
*{stroke-linecap:butt;stroke-linejoin:round;stroke-miterlimit:100000;}
  </style>
 </defs>
 <g id="figure_1">
  <g id="patch_1">
   <path d="M 0 288 
L 432 288 
L 432 0 
L 0 0 
z
" style="fill:#ffffff;"/>
  </g>
  <g id="axes_1">
   <g id="patch_2">
    <path d="M 54 252 
L 388.8 252 
L 388.8 28.8 
L 54 28.8 
z
" style="fill:#ffffff;"/>
   </g>
   <g id="line2d_1">
    <path clip-path="url(#pa0ef4a3a38)" d="M 54 80.136 
L 104.727273 227.448 
L 155.454545 205.128 
L 206.181818 46.656 
L 256.909091 247.536 
L 307.636364 120.312 
L 358.363636 160.488 
" style="fill:none;stroke:#bebebe;stroke-linecap:square;"/>
   </g>
   <g id="line2d_2">
    <path clip-path="url(#pa0ef4a3a38)" d="M 54 169.416 
L 104.727273 42.192 
L 155.454545 80.136 
L 206.181818 66.744 
L 256.909091 169.416 
L 307.636364 129.24 
L 358.363636 247.536 
" style="fill:none;stroke:#bebebe;stroke-linecap:square;"/>
   </g>
   <g id="line2d_3">
    <path clip-path="url(#pa0ef4a3a38)" d="M 54 249.768 
L 104.727273 229.68 
L 155.454545 243.072 
L 206.181818 135.936 
L 256.909091 60.048 
L 307.636364 153.792 
L 358.363636 176.112 
" style="fill:none;stroke:#bebebe;stroke-linecap:square;"/>
   </g>
   <g id="line2d_4">
    <path clip-path="url(#pa0ef4a3a38)" d="M 54 200.664 
L 104.727273 133.704 
L 155.454545 142.632 
L 206.181818 95.76 
L 256.909091 220.752 
L 307.636364 220.752 
L 358.363636 60.048 
" style="fill:none;stroke:#bebebe;stroke-linecap:square;"/>
   </g>
   <g id="line2d_5">
    <path clip-path="url(#pa0ef4a3a38)" d="M 54 82.368 
L 104.727273 162.72 
L 155.454545 138.168 
L 206.181818 35.496 
L 256.909091 124.776 
L 307.636364 214.056 
L 358.363636 37.728 
" style="fill:none;stroke:#bebebe;stroke-linecap:square;"/>
   </g>
   <g id="line2d_6">
    <path clip-path="url(#pa0ef4a3a38)" d="M 54 209.592 
L 104.727273 171.648 
L 155.454545 249.768 
L 206.181818 104.688 
L 256.909091 53.352 
L 307.636364 64.512 
L 358.363636 35.496 
" style="fill:none;stroke:#bebebe;stroke-linecap:square;"/>
   </g>
   <g id="line2d_7">
    <path clip-path="url(#pa0ef4a3a38)" d="M 54 71.208 
L 104.727273 158.256 
L 155.454545 113.616 
L 206.181818 111.384 
L 256.909091 100.224 
L 307.636364 189.504 
L 358.363636 131.472 
" style="fill:none;stroke:#bebebe;stroke-linecap:square;"/>
   </g>
   <g id="line2d_8">
    <path clip-path="url(#pa0ef4a3a38)" d="M 54 171.648 
L 104.727273 205.128 
L 155.454545 144.864 
L 206.181818 31.032 
L 256.909091 189.504 
L 307.636364 35.496 
L 358.363636 118.08 
" style="fill:none;stroke:#bebebe;stroke-linecap:square;"/>
   </g>
   <g id="line2d_9">
    <path clip-path="url(#pa0ef4a3a38)" d="M 54 129.24 
L 104.727273 91.296 
L 155.454545 93.528 
L 206.181818 193.968 
L 256.909091 115.848 
L 307.636364 240.84 
L 358.363636 198.432 
" style="fill:none;stroke:#bebebe;stroke-linecap:square;"/>
   </g>
   <g id="line2d_10">
    <path clip-path="url(#pa0ef4a3a38)" d="M 54 42.192 
L 104.727273 218.52 
L 155.454545 191.736 
L 206.181818 44.424 
L 256.909091 200.664 
L 307.636364 229.68 
L 358.363636 207.36 
" style="fill:none;stroke:#bebebe;stroke-linecap:square;"/>
   </g>
   <g id="line2d_11">
    <path clip-path="url(#pa0ef4a3a38)" d="M 54 124.776 
L 104.727273 211.824 
L 155.454545 71.208 
L 206.181818 109.152 
L 256.909091 171.648 
L 307.636364 89.064 
L 358.363636 214.056 
" style="fill:none;stroke:#bebebe;stroke-linecap:square;"/>
   </g>
   <g id="line2d_12">
    <path clip-path="url(#pa0ef4a3a38)" d="M 54 39.96 
L 104.727273 64.512 
L 155.454545 211.824 
L 206.181818 245.304 
L 256.909091 33.264 
L 307.636364 82.368 
L 358.363636 140.4 
" style="fill:none;stroke:#bebebe;stroke-linecap:square;"/>
   </g>
   <g id="line2d_13">
    <path clip-path="url(#pa0ef4a3a38)" d="M 54 187.272 
L 104.727273 191.736 
L 155.454545 229.68 
L 206.181818 91.296 
L 256.909091 62.28 
L 307.636364 207.36 
L 358.363636 216.288 
" style="fill:none;stroke:#bebebe;stroke-linecap:square;"/>
   </g>
   <g id="line2d_14">
    <path clip-path="url(#pa0ef4a3a38)" d="M 54 151.56 
L 104.727273 73.44 
L 155.454545 173.88 
L 206.181818 211.824 
L 256.909091 243.072 
L 307.636364 202.896 
L 358.363636 200.664 
" style="fill:none;stroke:#bebebe;stroke-linecap:square;"/>
   </g>
   <g id="line2d_15">
    <path clip-path="url(#pa0ef4a3a38)" d="M 54 97.992 
L 104.727273 71.208 
L 155.454545 102.456 
L 206.181818 133.704 
L 256.909091 209.592 
L 307.636364 48.888 
L 358.363636 111.384 
" style="fill:none;stroke:#bebebe;stroke-linecap:square;"/>
   </g>
   <g id="line2d_16">
    <path clip-path="url(#pa0ef4a3a38)" d="M 54 162.72 
L 104.727273 48.888 
L 155.454545 31.032 
L 206.181818 207.36 
L 256.909091 236.376 
L 307.636364 227.448 
L 358.363636 135.936 
" style="fill:none;stroke:#bebebe;stroke-linecap:square;"/>
   </g>
   <g id="line2d_17">
    <path clip-path="url(#pa0ef4a3a38)" d="M 54 106.92 
L 104.727273 252 
L 155.454545 162.72 
L 206.181818 225.216 
L 256.909091 57.816 
L 307.636364 211.824 
L 358.363636 42.192 
" style="fill:none;stroke:#bebebe;stroke-linecap:square;"/>
   </g>
   <g id="line2d_18">
    <path clip-path="url(#pa0ef4a3a38)" d="M 54 109.152 
L 104.727273 68.976 
L 155.454545 140.4 
L 206.181818 180.576 
L 256.909091 167.184 
L 307.636364 122.544 
L 358.363636 180.576 
" style="fill:none;stroke:#bebebe;stroke-linecap:square;"/>
   </g>
   <g id="line2d_19">
    <path clip-path="url(#pa0ef4a3a38)" d="M 54 156.024 
L 104.727273 31.032 
L 155.454545 68.976 
L 206.181818 80.136 
L 256.909091 80.136 
L 307.636364 243.072 
L 358.363636 227.448 
" style="fill:none;stroke:#bebebe;stroke-linecap:square;"/>
   </g>
   <g id="line2d_20">
    <path clip-path="url(#pa0ef4a3a38)" d="M 54 252 
L 104.727273 111.384 
L 155.454545 222.984 
L 206.181818 198.432 
L 256.909091 93.528 
L 307.636364 187.272 
L 358.363636 249.768 
" style="fill:none;stroke:#bebebe;stroke-linecap:square;"/>
   </g>
   <g id="line2d_21">
    <path clip-path="url(#pa0ef4a3a38)" d="M 54 33.264 
L 104.727273 142.632 
L 155.454545 42.192 
L 206.181818 182.808 
L 256.909091 196.2 
L 307.636364 191.736 
L 358.363636 218.52 
" style="fill:none;stroke:#bebebe;stroke-linecap:square;"/>
   </g>
   <g id="line2d_22">
    <path clip-path="url(#pa0ef4a3a38)" d="M 54 247.536 
L 104.727273 189.504 
L 155.454545 185.04 
L 206.181818 249.768 
L 256.909091 191.736 
L 307.636364 140.4 
L 358.363636 109.152 
" style="fill:none;stroke:#bebebe;stroke-linecap:square;"/>
   </g>
   <g id="line2d_23">
    <path clip-path="url(#pa0ef4a3a38)" d="M 54 66.744 
L 104.727273 238.608 
L 155.454545 187.272 
L 206.181818 39.96 
L 256.909091 164.952 
L 307.636364 247.536 
L 358.363636 138.168 
" style="fill:none;stroke:#bebebe;stroke-linecap:square;"/>
   </g>
   <g id="line2d_24">
    <path clip-path="url(#pa0ef4a3a38)" d="M 54 191.736 
L 104.727273 113.616 
L 155.454545 164.952 
L 206.181818 68.976 
L 256.909091 149.328 
L 307.636364 106.92 
L 358.363636 133.704 
" style="fill:none;stroke:#bebebe;stroke-linecap:square;"/>
   </g>
   <g id="line2d_25">
    <path clip-path="url(#pa0ef4a3a38)" d="M 54 142.632 
L 104.727273 156.024 
L 155.454545 158.256 
L 206.181818 162.72 
L 256.909091 138.168 
L 307.636364 138.168 
L 358.363636 31.032 
" style="fill:none;stroke:#bebebe;stroke-linecap:square;"/>
   </g>
   <g id="line2d_26">
    <path clip-path="url(#pa0ef4a3a38)" d="M 54 158.256 
L 104.727273 129.24 
L 155.454545 153.792 
L 206.181818 106.92 
L 256.909091 120.312 
L 307.636364 149.328 
L 358.363636 33.264 
" style="fill:none;stroke:#bebebe;stroke-linecap:square;"/>
   </g>
   <g id="line2d_27">
    <path clip-path="url(#pa0ef4a3a38)" d="M 54 46.656 
L 104.727273 57.816 
L 155.454545 115.848 
L 206.181818 191.736 
L 256.909091 144.864 
L 307.636364 238.608 
L 358.363636 222.984 
" style="fill:none;stroke:#bebebe;stroke-linecap:square;"/>
   </g>
   <g id="line2d_28">
    <path clip-path="url(#pa0ef4a3a38)" d="M 54 60.048 
L 104.727273 77.904 
L 155.454545 189.504 
L 206.181818 82.368 
L 256.909091 182.808 
L 307.636364 231.912 
L 358.363636 220.752 
" style="fill:none;stroke:#bebebe;stroke-linecap:square;"/>
   </g>
   <g id="line2d_29">
    <path clip-path="url(#pa0ef4a3a38)" d="M 54 185.04 
L 104.727273 243.072 
L 155.454545 124.776 
L 206.181818 118.08 
L 256.909091 140.4 
L 307.636364 100.224 
L 358.363636 127.008 
" style="fill:none;stroke:#bebebe;stroke-linecap:square;"/>
   </g>
   <g id="line2d_30">
    <path clip-path="url(#pa0ef4a3a38)" d="M 54 202.896 
L 104.727273 222.984 
L 155.454545 227.448 
L 206.181818 142.632 
L 256.909091 91.296 
L 307.636364 104.688 
L 358.363636 225.216 
" style="fill:none;stroke:#bebebe;stroke-linecap:square;"/>
   </g>
   <g id="line2d_31">
    <path clip-path="url(#pa0ef4a3a38)" d="M 54 243.072 
L 104.727273 198.432 
L 155.454545 95.76 
L 206.181818 231.912 
L 256.909091 133.704 
L 307.636364 200.664 
L 358.363636 120.312 
" style="fill:none;stroke:#bebebe;stroke-linecap:square;"/>
   </g>
   <g id="line2d_32">
    <path clip-path="url(#pa0ef4a3a38)" d="M 54 167.184 
L 104.727273 33.264 
L 155.454545 62.28 
L 206.181818 236.376 
L 256.909091 207.36 
L 307.636364 164.952 
L 358.363636 171.648 
" style="fill:none;stroke:#bebebe;stroke-linecap:square;"/>
   </g>
   <g id="line2d_33">
    <path clip-path="url(#pa0ef4a3a38)" d="M 54 89.064 
L 104.727273 209.592 
L 155.454545 75.672 
L 206.181818 209.592 
L 256.909091 214.056 
L 307.636364 51.12 
L 358.363636 167.184 
" style="fill:none;stroke:#bebebe;stroke-linecap:square;"/>
   </g>
   <g id="line2d_34">
    <path clip-path="url(#pa0ef4a3a38)" d="M 54 100.224 
L 104.727273 127.008 
L 155.454545 129.24 
L 206.181818 200.664 
L 256.909091 187.272 
L 307.636364 151.56 
L 358.363636 142.632 
" style="fill:none;stroke:#bebebe;stroke-linecap:square;"/>
   </g>
   <g id="line2d_35">
    <path clip-path="url(#pa0ef4a3a38)" d="M 54 216.288 
L 104.727273 220.752 
L 155.454545 51.12 
L 206.181818 187.272 
L 256.909091 240.84 
L 307.636364 80.136 
L 358.363636 229.68 
" style="fill:none;stroke:#bebebe;stroke-linecap:square;"/>
   </g>
   <g id="line2d_36">
    <path clip-path="url(#pa0ef4a3a38)" d="M 54 31.032 
L 104.727273 35.496 
L 155.454545 247.536 
L 206.181818 216.288 
L 256.909091 68.976 
L 307.636364 193.968 
L 358.363636 252 
" style="fill:none;stroke:#bebebe;stroke-linecap:square;"/>
   </g>
   <g id="line2d_37">
    <path clip-path="url(#pa0ef4a3a38)" d="M 54 147.096 
L 104.727273 182.808 
L 155.454545 178.344 
L 206.181818 205.128 
L 256.909091 252 
L 307.636364 147.096 
L 358.363636 44.424 
" style="fill:none;stroke:#bebebe;stroke-linecap:square;"/>
   </g>
   <g id="line2d_38">
    <path clip-path="url(#pa0ef4a3a38)" d="M 54 140.4 
L 104.727273 118.08 
L 155.454545 156.024 
L 206.181818 196.2 
L 256.909091 176.112 
L 307.636364 102.456 
L 358.363636 182.808 
" style="fill:none;stroke:#bebebe;stroke-linecap:square;"/>
   </g>
   <g id="line2d_39">
    <path clip-path="url(#pa0ef4a3a38)" d="M 54 131.472 
L 104.727273 115.848 
L 155.454545 84.6 
L 206.181818 60.048 
L 256.909091 48.888 
L 307.636364 95.76 
L 358.363636 185.04 
" style="fill:none;stroke:#bebebe;stroke-linecap:square;"/>
   </g>
   <g id="line2d_40">
    <path clip-path="url(#pa0ef4a3a38)" d="M 54 51.12 
L 104.727273 122.544 
L 155.454545 37.728 
L 206.181818 62.28 
L 256.909091 211.824 
L 307.636364 196.2 
L 358.363636 189.504 
" style="fill:none;stroke:#bebebe;stroke-linecap:square;"/>
   </g>
   <g id="line2d_41">
    <path clip-path="url(#pa0ef4a3a38)" d="M 54 127.008 
L 104.727273 169.416 
L 155.454545 240.84 
L 206.181818 218.52 
L 256.909091 238.608 
L 307.636364 68.976 
L 358.363636 124.776 
" style="fill:none;stroke:#bebebe;stroke-linecap:square;"/>
   </g>
   <g id="line2d_42">
    <path clip-path="url(#pa0ef4a3a38)" d="M 54 193.968 
L 104.727273 216.288 
L 155.454545 245.304 
L 206.181818 33.264 
L 256.909091 66.744 
L 307.636364 55.584 
L 358.363636 144.864 
" style="fill:none;stroke:#bebebe;stroke-linecap:square;"/>
   </g>
   <g id="line2d_43">
    <path clip-path="url(#pa0ef4a3a38)" d="M 54 73.44 
L 104.727273 185.04 
L 155.454545 104.688 
L 206.181818 75.672 
L 256.909091 75.672 
L 307.636364 109.152 
L 358.363636 234.144 
" style="fill:none;stroke:#bebebe;stroke-linecap:square;"/>
   </g>
   <g id="line2d_44">
    <path clip-path="url(#pa0ef4a3a38)" d="M 54 173.88 
L 104.727273 39.96 
L 155.454545 198.432 
L 206.181818 89.064 
L 256.909091 51.12 
L 307.636364 171.648 
L 358.363636 151.56 
" style="fill:none;stroke:#bebebe;stroke-linecap:square;"/>
   </g>
   <g id="line2d_45">
    <path clip-path="url(#pa0ef4a3a38)" d="M 54 238.608 
L 104.727273 53.352 
L 155.454545 209.592 
L 206.181818 149.328 
L 256.909091 156.024 
L 307.636364 216.288 
L 358.363636 158.256 
" style="fill:none;stroke:#bebebe;stroke-linecap:square;"/>
   </g>
   <g id="line2d_46">
    <path clip-path="url(#pa0ef4a3a38)" d="M 54 35.496 
L 104.727273 75.672 
L 155.454545 57.816 
L 206.181818 189.504 
L 256.909091 131.472 
L 307.636364 37.728 
L 358.363636 196.2 
" style="fill:none;stroke:#bebebe;stroke-linecap:square;"/>
   </g>
   <g id="line2d_47">
    <path clip-path="url(#pa0ef4a3a38)" d="M 54 95.76 
L 104.727273 231.912 
L 155.454545 238.608 
L 206.181818 173.88 
L 256.909091 205.128 
L 307.636364 209.592 
L 358.363636 236.376 
" style="fill:none;stroke:#bebebe;stroke-linecap:square;"/>
   </g>
   <g id="line2d_48">
    <path clip-path="url(#pa0ef4a3a38)" d="M 54 84.6 
L 104.727273 193.968 
L 155.454545 216.288 
L 206.181818 124.776 
L 256.909091 135.936 
L 307.636364 84.6 
L 358.363636 57.816 
" style="fill:none;stroke:#bebebe;stroke-linecap:square;"/>
   </g>
   <g id="line2d_49">
    <path clip-path="url(#pa0ef4a3a38)" d="M 54 207.36 
L 104.727273 106.92 
L 155.454545 106.92 
L 206.181818 252 
L 256.909091 202.896 
L 307.636364 205.128 
L 358.363636 211.824 
" style="fill:none;stroke:#bebebe;stroke-linecap:square;"/>
   </g>
   <g id="line2d_50">
    <path clip-path="url(#pa0ef4a3a38)" d="M 54 189.504 
L 104.727273 187.272 
L 155.454545 60.048 
L 206.181818 37.728 
L 256.909091 39.96 
L 307.636364 118.08 
L 358.363636 149.328 
" style="fill:none;stroke:#bebebe;stroke-linecap:square;"/>
   </g>
   <g id="line2d_51">
    <path clip-path="url(#pa0ef4a3a38)" d="M 54 86.832 
L 104.727273 100.224 
L 155.454545 214.056 
L 206.181818 156.024 
L 256.909091 229.68 
L 307.636364 142.632 
L 358.363636 48.888 
" style="fill:none;stroke:#bebebe;stroke-linecap:square;"/>
   </g>
   <g id="line2d_52">
    <path clip-path="url(#pa0ef4a3a38)" d="M 54 227.448 
L 104.727273 151.56 
L 155.454545 91.296 
L 206.181818 153.792 
L 256.909091 162.72 
L 307.636364 131.472 
L 358.363636 122.544 
" style="fill:none;stroke:#bebebe;stroke-linecap:square;"/>
   </g>
   <g id="line2d_53">
    <path clip-path="url(#pa0ef4a3a38)" d="M 54 37.728 
L 104.727273 200.664 
L 155.454545 44.424 
L 206.181818 97.992 
L 256.909091 151.56 
L 307.636364 115.848 
L 358.363636 178.344 
" style="fill:none;stroke:#bebebe;stroke-linecap:square;"/>
   </g>
   <g id="line2d_54">
    <path clip-path="url(#pa0ef4a3a38)" d="M 54 91.296 
L 104.727273 147.096 
L 155.454545 48.888 
L 206.181818 169.416 
L 256.909091 142.632 
L 307.636364 66.744 
L 358.363636 53.352 
" style="fill:none;stroke:#bebebe;stroke-linecap:square;"/>
   </g>
   <g id="line2d_55">
    <path clip-path="url(#pa0ef4a3a38)" d="M 54 211.824 
L 104.727273 37.728 
L 155.454545 133.704 
L 206.181818 93.528 
L 256.909091 95.76 
L 307.636364 39.96 
L 358.363636 231.912 
" style="fill:none;stroke:#bebebe;stroke-linecap:square;"/>
   </g>
   <g id="line2d_56">
    <path clip-path="url(#pa0ef4a3a38)" d="M 54 138.168 
L 104.727273 176.112 
L 155.454545 151.56 
L 206.181818 42.192 
L 256.909091 129.24 
L 307.636364 127.008 
L 358.363636 39.96 
" style="fill:none;stroke:#bebebe;stroke-linecap:square;"/>
   </g>
   <g id="line2d_57">
    <path clip-path="url(#pa0ef4a3a38)" d="M 54 153.792 
L 104.727273 180.576 
L 155.454545 33.264 
L 206.181818 77.904 
L 256.909091 160.488 
L 307.636364 173.88 
L 358.363636 113.616 
" style="fill:none;stroke:#bebebe;stroke-linecap:square;"/>
   </g>
   <g id="line2d_58">
    <path clip-path="url(#pa0ef4a3a38)" d="M 54 236.376 
L 104.727273 240.84 
L 155.454545 149.328 
L 206.181818 84.6 
L 256.909091 147.096 
L 307.636364 93.528 
L 358.363636 187.272 
" style="fill:none;stroke:#bebebe;stroke-linecap:square;"/>
   </g>
   <g id="line2d_59">
    <path clip-path="url(#pa0ef4a3a38)" d="M 54 75.672 
L 104.727273 93.528 
L 155.454545 127.008 
L 206.181818 176.112 
L 256.909091 42.192 
L 307.636364 124.776 
L 358.363636 169.416 
" style="fill:none;stroke:#bebebe;stroke-linecap:square;"/>
   </g>
   <g id="line2d_60">
    <path clip-path="url(#pa0ef4a3a38)" d="M 54 120.312 
L 104.727273 202.896 
L 155.454545 120.312 
L 206.181818 55.584 
L 256.909091 180.576 
L 307.636364 42.192 
L 358.363636 209.592 
" style="fill:none;stroke:#bebebe;stroke-linecap:square;"/>
   </g>
   <g id="line2d_61">
    <path clip-path="url(#pa0ef4a3a38)" d="M 54 160.488 
L 104.727273 144.864 
L 155.454545 55.584 
L 206.181818 127.008 
L 256.909091 37.728 
L 307.636364 62.28 
L 358.363636 55.584 
" style="fill:none;stroke:#bebebe;stroke-linecap:square;"/>
   </g>
   <g id="line2d_62">
    <path clip-path="url(#pa0ef4a3a38)" d="M 54 57.816 
L 104.727273 55.584 
L 155.454545 180.576 
L 206.181818 185.04 
L 256.909091 122.544 
L 307.636364 178.344 
L 358.363636 153.792 
" style="fill:none;stroke:#bebebe;stroke-linecap:square;"/>
   </g>
   <g id="line2d_63">
    <path clip-path="url(#pa0ef4a3a38)" d="M 54 93.528 
L 104.727273 167.184 
L 155.454545 231.912 
L 206.181818 53.352 
L 256.909091 111.384 
L 307.636364 198.432 
L 358.363636 147.096 
" style="fill:none;stroke:#bebebe;stroke-linecap:square;"/>
   </g>
   <g id="line2d_64">
    <path clip-path="url(#pa0ef4a3a38)" d="M 54 231.912 
L 104.727273 207.36 
L 155.454545 82.368 
L 206.181818 86.832 
L 256.909091 55.584 
L 307.636364 180.576 
L 358.363636 193.968 
" style="fill:none;stroke:#bebebe;stroke-linecap:square;"/>
   </g>
   <g id="line2d_65">
    <path clip-path="url(#pa0ef4a3a38)" d="M 54 245.304 
L 104.727273 135.936 
L 155.454545 176.112 
L 206.181818 227.448 
L 256.909091 198.432 
L 307.636364 111.384 
L 358.363636 173.88 
" style="fill:none;stroke:#bebebe;stroke-linecap:square;"/>
   </g>
   <g id="line2d_66">
    <path clip-path="url(#pa0ef4a3a38)" d="M 54 44.424 
L 104.727273 225.216 
L 155.454545 225.216 
L 206.181818 202.896 
L 256.909091 31.032 
L 307.636364 234.144 
L 358.363636 243.072 
" style="fill:none;stroke:#bebebe;stroke-linecap:square;"/>
   </g>
   <g id="line2d_67">
    <path clip-path="url(#pa0ef4a3a38)" d="M 54 113.616 
L 104.727273 62.28 
L 155.454545 171.648 
L 206.181818 164.952 
L 256.909091 193.968 
L 307.636364 160.488 
L 358.363636 129.24 
" style="fill:none;stroke:#bebebe;stroke-linecap:square;"/>
   </g>
   <g id="line2d_68">
    <path clip-path="url(#pa0ef4a3a38)" d="M 54 225.216 
L 104.727273 173.88 
L 155.454545 53.352 
L 206.181818 220.752 
L 256.909091 73.44 
L 307.636364 86.832 
L 358.363636 202.896 
" style="fill:none;stroke:#bebebe;stroke-linecap:square;"/>
   </g>
   <g id="line2d_69">
    <path clip-path="url(#pa0ef4a3a38)" d="M 54 133.704 
L 104.727273 86.832 
L 155.454545 167.184 
L 206.181818 222.984 
L 256.909091 231.912 
L 307.636364 46.656 
L 358.363636 62.28 
" style="fill:none;stroke:#bebebe;stroke-linecap:square;"/>
   </g>
   <g id="line2d_70">
    <path clip-path="url(#pa0ef4a3a38)" d="M 54 178.344 
L 104.727273 44.424 
L 155.454545 77.904 
L 206.181818 147.096 
L 256.909091 185.04 
L 307.636364 113.616 
L 358.363636 238.608 
" style="fill:none;stroke:#bebebe;stroke-linecap:square;"/>
   </g>
   <g id="line2d_71">
    <path clip-path="url(#pa0ef4a3a38)" d="M 54 53.352 
L 104.727273 247.536 
L 155.454545 100.224 
L 206.181818 48.888 
L 256.909091 82.368 
L 307.636364 252 
L 358.363636 240.84 
" style="fill:none;stroke:#bebebe;stroke-linecap:square;"/>
   </g>
   <g id="line2d_72">
    <path clip-path="url(#pa0ef4a3a38)" d="M 54 180.576 
L 104.727273 89.064 
L 155.454545 147.096 
L 206.181818 240.84 
L 256.909091 118.08 
L 307.636364 169.416 
L 358.363636 51.12 
" style="fill:none;stroke:#bebebe;stroke-linecap:square;"/>
   </g>
   <g id="line2d_73">
    <path clip-path="url(#pa0ef4a3a38)" d="M 54 222.984 
L 104.727273 51.12 
L 155.454545 218.52 
L 206.181818 120.312 
L 256.909091 218.52 
L 307.636364 185.04 
L 358.363636 164.952 
" style="fill:none;stroke:#bebebe;stroke-linecap:square;"/>
   </g>
   <g id="line2d_74">
    <path clip-path="url(#pa0ef4a3a38)" d="M 54 48.888 
L 104.727273 82.368 
L 155.454545 73.44 
L 206.181818 115.848 
L 256.909091 97.992 
L 307.636364 167.184 
L 358.363636 205.128 
" style="fill:none;stroke:#bebebe;stroke-linecap:square;"/>
   </g>
   <g id="line2d_75">
    <path clip-path="url(#pa0ef4a3a38)" d="M 54 218.52 
L 104.727273 138.168 
L 155.454545 169.416 
L 206.181818 131.472 
L 256.909091 44.424 
L 307.636364 44.424 
L 358.363636 64.512 
" style="fill:none;stroke:#bebebe;stroke-linecap:square;"/>
   </g>
   <g id="line2d_76">
    <path clip-path="url(#pa0ef4a3a38)" d="M 54 214.056 
L 104.727273 236.376 
L 155.454545 207.36 
L 206.181818 57.816 
L 256.909091 227.448 
L 307.636364 31.032 
L 358.363636 191.736 
" style="fill:none;stroke:#bebebe;stroke-linecap:square;"/>
   </g>
   <g id="line2d_77">
    <path clip-path="url(#pa0ef4a3a38)" d="M 54 55.584 
L 104.727273 164.952 
L 155.454545 236.376 
L 206.181818 71.208 
L 256.909091 84.6 
L 307.636364 236.376 
L 358.363636 245.304 
" style="fill:none;stroke:#bebebe;stroke-linecap:square;"/>
   </g>
   <g id="line2d_78">
    <path clip-path="url(#pa0ef4a3a38)" d="M 54 164.952 
L 104.727273 84.6 
L 155.454545 89.064 
L 206.181818 138.168 
L 256.909091 173.88 
L 307.636364 176.112 
L 358.363636 162.72 
" style="fill:none;stroke:#bebebe;stroke-linecap:square;"/>
   </g>
   <g id="line2d_79">
    <path clip-path="url(#pa0ef4a3a38)" d="M 54 234.144 
L 104.727273 153.792 
L 155.454545 196.2 
L 206.181818 64.512 
L 256.909091 245.304 
L 307.636364 222.984 
L 358.363636 115.848 
" style="fill:none;stroke:#bebebe;stroke-linecap:square;"/>
   </g>
   <g id="line2d_80">
    <path clip-path="url(#pa0ef4a3a38)" d="M 54 62.28 
L 104.727273 160.488 
L 155.454545 35.496 
L 206.181818 140.4 
L 256.909091 127.008 
L 307.636364 182.808 
L 358.363636 46.656 
" style="fill:none;stroke:#bebebe;stroke-linecap:square;"/>
   </g>
   <g id="line2d_81">
    <path clip-path="url(#pa0ef4a3a38)" d="M 54 115.848 
L 104.727273 245.304 
L 155.454545 64.512 
L 206.181818 234.144 
L 256.909091 71.208 
L 307.636364 77.904 
L 358.363636 156.024 
" style="fill:none;stroke:#bebebe;stroke-linecap:square;"/>
   </g>
   <g id="line2d_82">
    <path clip-path="url(#pa0ef4a3a38)" d="M 54 102.456 
L 104.727273 80.136 
L 155.454545 135.936 
L 206.181818 51.12 
L 256.909091 46.656 
L 307.636364 33.264 
L 358.363636 66.744 
" style="fill:none;stroke:#bebebe;stroke-linecap:square;"/>
   </g>
   <g id="line2d_83">
    <path clip-path="url(#pa0ef4a3a38)" d="M 54 77.904 
L 104.727273 124.776 
L 155.454545 39.96 
L 206.181818 214.056 
L 256.909091 102.456 
L 307.636364 158.256 
L 358.363636 102.456 
" style="fill:none;stroke:#ff0000;stroke-linecap:square;"/>
   </g>
   <g id="line2d_84">
    <path clip-path="url(#pa0ef4a3a38)" d="M 54 182.808 
L 104.727273 249.768 
L 155.454545 202.896 
L 206.181818 113.616 
L 256.909091 158.256 
L 307.636364 53.352 
L 358.363636 73.44 
" style="fill:none;stroke:#ff0000;stroke-linecap:square;"/>
   </g>
   <g id="line2d_85">
    <path clip-path="url(#pa0ef4a3a38)" d="M 54 144.864 
L 104.727273 131.472 
L 155.454545 220.752 
L 206.181818 243.072 
L 256.909091 178.344 
L 307.636364 162.72 
L 358.363636 95.76 
" style="fill:none;stroke:#ff0000;stroke-linecap:square;"/>
   </g>
   <g id="line2d_86">
    <path clip-path="url(#pa0ef4a3a38)" d="M 54 205.128 
L 104.727273 46.656 
L 155.454545 252 
L 206.181818 100.224 
L 256.909091 216.288 
L 307.636364 225.216 
L 358.363636 71.208 
" style="fill:none;stroke:#ff0000;stroke-linecap:square;"/>
   </g>
   <g id="line2d_87">
    <path clip-path="url(#pa0ef4a3a38)" d="M 54 122.544 
L 104.727273 109.152 
L 155.454545 234.144 
L 206.181818 129.24 
L 256.909091 86.832 
L 307.636364 144.864 
L 358.363636 97.992 
" style="fill:none;stroke:#ff0000;stroke-linecap:square;"/>
   </g>
   <g id="line2d_88">
    <path clip-path="url(#pa0ef4a3a38)" d="M 54 149.328 
L 104.727273 120.312 
L 155.454545 86.832 
L 206.181818 73.44 
L 256.909091 225.216 
L 307.636364 75.672 
L 358.363636 100.224 
" style="fill:none;stroke:#ff0000;stroke-linecap:square;"/>
   </g>
   <g id="line2d_89">
    <path clip-path="url(#pa0ef4a3a38)" d="M 54 64.512 
L 104.727273 149.328 
L 155.454545 118.08 
L 206.181818 247.536 
L 256.909091 104.688 
L 307.636364 91.296 
L 358.363636 93.528 
" style="fill:none;stroke:#ff0000;stroke-linecap:square;"/>
   </g>
   <g id="line2d_90">
    <path clip-path="url(#pa0ef4a3a38)" d="M 54 104.688 
L 104.727273 140.4 
L 155.454545 109.152 
L 206.181818 171.648 
L 256.909091 89.064 
L 307.636364 249.768 
L 358.363636 82.368 
" style="fill:none;stroke:#ff0000;stroke-linecap:square;"/>
   </g>
   <g id="line2d_91">
    <path clip-path="url(#pa0ef4a3a38)" d="M 54 240.84 
L 104.727273 66.744 
L 155.454545 131.472 
L 206.181818 144.864 
L 256.909091 106.92 
L 307.636364 71.208 
L 358.363636 104.688 
" style="fill:none;stroke:#ff0000;stroke-linecap:square;"/>
   </g>
   <g id="line2d_92">
    <path clip-path="url(#pa0ef4a3a38)" d="M 54 176.112 
L 104.727273 214.056 
L 155.454545 111.384 
L 206.181818 238.608 
L 256.909091 77.904 
L 307.636364 57.816 
L 358.363636 89.064 
" style="fill:none;stroke:#ff0000;stroke-linecap:square;"/>
   </g>
   <g id="line2d_93">
    <path clip-path="url(#pa0ef4a3a38)" d="M 54 135.936 
L 104.727273 234.144 
L 155.454545 200.664 
L 206.181818 229.68 
L 256.909091 153.792 
L 307.636364 73.44 
L 358.363636 86.832 
" style="fill:none;stroke:#ff0000;stroke-linecap:square;"/>
   </g>
   <g id="line2d_94">
    <path clip-path="url(#pa0ef4a3a38)" d="M 54 220.752 
L 104.727273 196.2 
L 155.454545 193.968 
L 206.181818 158.256 
L 256.909091 35.496 
L 307.636364 245.304 
L 358.363636 77.904 
" style="fill:none;stroke:#ff0000;stroke-linecap:square;"/>
   </g>
   <g id="line2d_95">
    <path clip-path="url(#pa0ef4a3a38)" d="M 54 111.384 
L 104.727273 60.048 
L 155.454545 160.488 
L 206.181818 167.184 
L 256.909091 64.512 
L 307.636364 135.936 
L 358.363636 91.296 
" style="fill:none;stroke:#ff0000;stroke-linecap:square;"/>
   </g>
   <g id="line2d_96">
    <path clip-path="url(#pa0ef4a3a38)" d="M 54 196.2 
L 104.727273 104.688 
L 155.454545 97.992 
L 206.181818 151.56 
L 256.909091 109.152 
L 307.636364 218.52 
L 358.363636 84.6 
" style="fill:none;stroke:#ff0000;stroke-linecap:square;"/>
   </g>
   <g id="line2d_97">
    <path clip-path="url(#pa0ef4a3a38)" d="M 54 118.08 
L 104.727273 178.344 
L 155.454545 182.808 
L 206.181818 178.344 
L 256.909091 113.616 
L 307.636364 97.992 
L 358.363636 80.136 
" style="fill:none;stroke:#ff0000;stroke-linecap:square;"/>
   </g>
   <g id="line2d_98">
    <path clip-path="url(#pa0ef4a3a38)" d="M 54 198.432 
L 104.727273 97.992 
L 155.454545 122.544 
L 206.181818 102.456 
L 256.909091 234.144 
L 307.636364 156.024 
L 358.363636 68.976 
" style="fill:none;stroke:#ff0000;stroke-linecap:square;"/>
   </g>
   <g id="line2d_99">
    <path clip-path="url(#pa0ef4a3a38)" d="M 54 229.68 
L 104.727273 102.456 
L 155.454545 46.656 
L 206.181818 122.544 
L 256.909091 249.768 
L 307.636364 133.704 
L 358.363636 106.92 
" style="fill:none;stroke:#ff0000;stroke-linecap:square;"/>
   </g>
   <g id="line2d_100">
    <path clip-path="url(#pa0ef4a3a38)" d="M 54 68.976 
L 104.727273 95.76 
L 155.454545 66.744 
L 206.181818 160.488 
L 256.909091 222.984 
L 307.636364 60.048 
L 358.363636 75.672 
" style="fill:none;stroke:#ff0000;stroke-linecap:square;"/>
   </g>
   <g id="line2d_101">
    <path clip-path="url(#pa0ef4a3a38)" d="M 54 252 
L 54 28.8 
" style="fill:none;stroke:#ff0000;stroke-linecap:square;stroke-width:3.0;"/>
   </g>
   <g id="line2d_102">
    <path clip-path="url(#pa0ef4a3a38)" d="M 104.727273 252 
L 104.727273 28.8 
" style="fill:none;stroke:#ffdb00;stroke-linecap:square;stroke-width:3.0;"/>
   </g>
   <g id="line2d_103">
    <path clip-path="url(#pa0ef4a3a38)" d="M 155.454545 252 
L 155.454545 28.8 
" style="fill:none;stroke:#49ff00;stroke-linecap:square;stroke-width:3.0;"/>
   </g>
   <g id="line2d_104">
    <path clip-path="url(#pa0ef4a3a38)" d="M 206.181818 252 
L 206.181818 28.8 
" style="fill:none;stroke:#00ff92;stroke-linecap:square;stroke-width:3.0;"/>
   </g>
   <g id="line2d_105">
    <path clip-path="url(#pa0ef4a3a38)" d="M 256.909091 252 
L 256.909091 28.8 
" style="fill:none;stroke:#0092ff;stroke-linecap:square;stroke-width:3.0;"/>
   </g>
   <g id="line2d_106">
    <path clip-path="url(#pa0ef4a3a38)" d="M 307.636364 252 
L 307.636364 28.8 
" style="fill:none;stroke:#4900ff;stroke-linecap:square;stroke-width:3.0;"/>
   </g>
   <g id="line2d_107">
    <path clip-path="url(#pa0ef4a3a38)" d="M 358.363636 252 
L 358.363636 28.8 
" style="fill:none;stroke:#000000;stroke-linecap:square;stroke-width:3.0;"/>
   </g>
   <g id="patch_3">
    <path d="M 54 28.8 
L 388.8 28.8 
" style="fill:none;stroke:#000000;stroke-linecap:square;stroke-linejoin:miter;"/>
   </g>
   <g id="patch_4">
    <path d="M 54 252 
L 388.8 252 
" style="fill:none;stroke:#000000;stroke-linecap:square;stroke-linejoin:miter;"/>
   </g>
   <g id="patch_5">
    <path d="M 388.8 252 
L 388.8 28.8 
" style="fill:none;stroke:#000000;stroke-linecap:square;stroke-linejoin:miter;"/>
   </g>
   <g id="patch_6">
    <path d="M 54 252 
L 54 28.8 
" style="fill:none;stroke:#000000;stroke-linecap:square;stroke-linejoin:miter;"/>
   </g>
   <g id="matplotlib.axis_1">
    <g id="xtick_1">
     <g id="line2d_108">
      <defs>
       <path d="M 0 0 
L 0 -4 
" id="mc032750971" style="stroke:#000000;stroke-width:0.5;"/>
      </defs>
      <g>
       <use style="stroke:#000000;stroke-width:0.5;" x="54.0" xlink:href="#mc032750971" y="252.0"/>
      </g>
     </g>
     <g id="line2d_109">
      <defs>
       <path d="M 0 0 
L 0 4 
" id="m3fb2effb81" style="stroke:#000000;stroke-width:0.5;"/>
      </defs>
      <g>
       <use style="stroke:#000000;stroke-width:0.5;" x="54.0" xlink:href="#m3fb2effb81" y="28.8"/>
      </g>
     </g>
     <g id="text_1">
      <!-- 0 -->
      <defs>
       <path d="M 31.78125 66.40625 
Q 24.171875 66.40625 20.328125 58.90625 
Q 16.5 51.421875 16.5 36.375 
Q 16.5 21.390625 20.328125 13.890625 
Q 24.171875 6.390625 31.78125 6.390625 
Q 39.453125 6.390625 43.28125 13.890625 
Q 47.125 21.390625 47.125 36.375 
Q 47.125 51.421875 43.28125 58.90625 
Q 39.453125 66.40625 31.78125 66.40625 
M 31.78125 74.21875 
Q 44.046875 74.21875 50.515625 64.515625 
Q 56.984375 54.828125 56.984375 36.375 
Q 56.984375 17.96875 50.515625 8.265625 
Q 44.046875 -1.421875 31.78125 -1.421875 
Q 19.53125 -1.421875 13.0625 8.265625 
Q 6.59375 17.96875 6.59375 36.375 
Q 6.59375 54.828125 13.0625 64.515625 
Q 19.53125 74.21875 31.78125 74.21875 
" id="BitstreamVeraSans-Roman-30"/>
      </defs>
      <g transform="translate(50.81875 263.5984375)scale(0.1 -0.1)">
       <use xlink:href="#BitstreamVeraSans-Roman-30"/>
      </g>
     </g>
    </g>
    <g id="xtick_2">
     <g id="line2d_110">
      <g>
       <use style="stroke:#000000;stroke-width:0.5;" x="104.727272727" xlink:href="#mc032750971" y="252.0"/>
      </g>
     </g>
     <g id="line2d_111">
      <g>
       <use style="stroke:#000000;stroke-width:0.5;" x="104.727272727" xlink:href="#m3fb2effb81" y="28.8"/>
      </g>
     </g>
     <g id="text_2">
      <!-- 1 -->
      <defs>
       <path d="M 12.40625 8.296875 
L 28.515625 8.296875 
L 28.515625 63.921875 
L 10.984375 60.40625 
L 10.984375 69.390625 
L 28.421875 72.90625 
L 38.28125 72.90625 
L 38.28125 8.296875 
L 54.390625 8.296875 
L 54.390625 0 
L 12.40625 0 
z
" id="BitstreamVeraSans-Roman-31"/>
      </defs>
      <g transform="translate(101.546022727 263.5984375)scale(0.1 -0.1)">
       <use xlink:href="#BitstreamVeraSans-Roman-31"/>
      </g>
     </g>
    </g>
    <g id="xtick_3">
     <g id="line2d_112">
      <g>
       <use style="stroke:#000000;stroke-width:0.5;" x="155.454545455" xlink:href="#mc032750971" y="252.0"/>
      </g>
     </g>
     <g id="line2d_113">
      <g>
       <use style="stroke:#000000;stroke-width:0.5;" x="155.454545455" xlink:href="#m3fb2effb81" y="28.8"/>
      </g>
     </g>
     <g id="text_3">
      <!-- 2 -->
      <defs>
       <path d="M 19.1875 8.296875 
L 53.609375 8.296875 
L 53.609375 0 
L 7.328125 0 
L 7.328125 8.296875 
Q 12.9375 14.109375 22.625 23.890625 
Q 32.328125 33.6875 34.8125 36.53125 
Q 39.546875 41.84375 41.421875 45.53125 
Q 43.3125 49.21875 43.3125 52.78125 
Q 43.3125 58.59375 39.234375 62.25 
Q 35.15625 65.921875 28.609375 65.921875 
Q 23.96875 65.921875 18.8125 64.3125 
Q 13.671875 62.703125 7.8125 59.421875 
L 7.8125 69.390625 
Q 13.765625 71.78125 18.9375 73 
Q 24.125 74.21875 28.421875 74.21875 
Q 39.75 74.21875 46.484375 68.546875 
Q 53.21875 62.890625 53.21875 53.421875 
Q 53.21875 48.921875 51.53125 44.890625 
Q 49.859375 40.875 45.40625 35.40625 
Q 44.1875 33.984375 37.640625 27.21875 
Q 31.109375 20.453125 19.1875 8.296875 
" id="BitstreamVeraSans-Roman-32"/>
      </defs>
      <g transform="translate(152.273295455 263.5984375)scale(0.1 -0.1)">
       <use xlink:href="#BitstreamVeraSans-Roman-32"/>
      </g>
     </g>
    </g>
    <g id="xtick_4">
     <g id="line2d_114">
      <g>
       <use style="stroke:#000000;stroke-width:0.5;" x="206.181818182" xlink:href="#mc032750971" y="252.0"/>
      </g>
     </g>
     <g id="line2d_115">
      <g>
       <use style="stroke:#000000;stroke-width:0.5;" x="206.181818182" xlink:href="#m3fb2effb81" y="28.8"/>
      </g>
     </g>
     <g id="text_4">
      <!-- 3 -->
      <defs>
       <path d="M 40.578125 39.3125 
Q 47.65625 37.796875 51.625 33 
Q 55.609375 28.21875 55.609375 21.1875 
Q 55.609375 10.40625 48.1875 4.484375 
Q 40.765625 -1.421875 27.09375 -1.421875 
Q 22.515625 -1.421875 17.65625 -0.515625 
Q 12.796875 0.390625 7.625 2.203125 
L 7.625 11.71875 
Q 11.71875 9.328125 16.59375 8.109375 
Q 21.484375 6.890625 26.8125 6.890625 
Q 36.078125 6.890625 40.9375 10.546875 
Q 45.796875 14.203125 45.796875 21.1875 
Q 45.796875 27.640625 41.28125 31.265625 
Q 36.765625 34.90625 28.71875 34.90625 
L 20.21875 34.90625 
L 20.21875 43.015625 
L 29.109375 43.015625 
Q 36.375 43.015625 40.234375 45.921875 
Q 44.09375 48.828125 44.09375 54.296875 
Q 44.09375 59.90625 40.109375 62.90625 
Q 36.140625 65.921875 28.71875 65.921875 
Q 24.65625 65.921875 20.015625 65.03125 
Q 15.375 64.15625 9.8125 62.3125 
L 9.8125 71.09375 
Q 15.4375 72.65625 20.34375 73.4375 
Q 25.25 74.21875 29.59375 74.21875 
Q 40.828125 74.21875 47.359375 69.109375 
Q 53.90625 64.015625 53.90625 55.328125 
Q 53.90625 49.265625 50.4375 45.09375 
Q 46.96875 40.921875 40.578125 39.3125 
" id="BitstreamVeraSans-Roman-33"/>
      </defs>
      <g transform="translate(203.000568182 263.5984375)scale(0.1 -0.1)">
       <use xlink:href="#BitstreamVeraSans-Roman-33"/>
      </g>
     </g>
    </g>
    <g id="xtick_5">
     <g id="line2d_116">
      <g>
       <use style="stroke:#000000;stroke-width:0.5;" x="256.909090909" xlink:href="#mc032750971" y="252.0"/>
      </g>
     </g>
     <g id="line2d_117">
      <g>
       <use style="stroke:#000000;stroke-width:0.5;" x="256.909090909" xlink:href="#m3fb2effb81" y="28.8"/>
      </g>
     </g>
     <g id="text_5">
      <!-- 4 -->
      <defs>
       <path d="M 37.796875 64.3125 
L 12.890625 25.390625 
L 37.796875 25.390625 
z
M 35.203125 72.90625 
L 47.609375 72.90625 
L 47.609375 25.390625 
L 58.015625 25.390625 
L 58.015625 17.1875 
L 47.609375 17.1875 
L 47.609375 0 
L 37.796875 0 
L 37.796875 17.1875 
L 4.890625 17.1875 
L 4.890625 26.703125 
z
" id="BitstreamVeraSans-Roman-34"/>
      </defs>
      <g transform="translate(253.727840909 263.5984375)scale(0.1 -0.1)">
       <use xlink:href="#BitstreamVeraSans-Roman-34"/>
      </g>
     </g>
    </g>
    <g id="xtick_6">
     <g id="line2d_118">
      <g>
       <use style="stroke:#000000;stroke-width:0.5;" x="307.636363636" xlink:href="#mc032750971" y="252.0"/>
      </g>
     </g>
     <g id="line2d_119">
      <g>
       <use style="stroke:#000000;stroke-width:0.5;" x="307.636363636" xlink:href="#m3fb2effb81" y="28.8"/>
      </g>
     </g>
     <g id="text_6">
      <!-- 5 -->
      <defs>
       <path d="M 10.796875 72.90625 
L 49.515625 72.90625 
L 49.515625 64.59375 
L 19.828125 64.59375 
L 19.828125 46.734375 
Q 21.96875 47.46875 24.109375 47.828125 
Q 26.265625 48.1875 28.421875 48.1875 
Q 40.625 48.1875 47.75 41.5 
Q 54.890625 34.8125 54.890625 23.390625 
Q 54.890625 11.625 47.5625 5.09375 
Q 40.234375 -1.421875 26.90625 -1.421875 
Q 22.3125 -1.421875 17.546875 -0.640625 
Q 12.796875 0.140625 7.71875 1.703125 
L 7.71875 11.625 
Q 12.109375 9.234375 16.796875 8.0625 
Q 21.484375 6.890625 26.703125 6.890625 
Q 35.15625 6.890625 40.078125 11.328125 
Q 45.015625 15.765625 45.015625 23.390625 
Q 45.015625 31 40.078125 35.4375 
Q 35.15625 39.890625 26.703125 39.890625 
Q 22.75 39.890625 18.8125 39.015625 
Q 14.890625 38.140625 10.796875 36.28125 
z
" id="BitstreamVeraSans-Roman-35"/>
      </defs>
      <g transform="translate(304.455113636 263.5984375)scale(0.1 -0.1)">
       <use xlink:href="#BitstreamVeraSans-Roman-35"/>
      </g>
     </g>
    </g>
    <g id="xtick_7">
     <g id="line2d_120">
      <g>
       <use style="stroke:#000000;stroke-width:0.5;" x="358.363636364" xlink:href="#mc032750971" y="252.0"/>
      </g>
     </g>
     <g id="line2d_121">
      <g>
       <use style="stroke:#000000;stroke-width:0.5;" x="358.363636364" xlink:href="#m3fb2effb81" y="28.8"/>
      </g>
     </g>
     <g id="text_7">
      <!-- 6 -->
      <defs>
       <path d="M 33.015625 40.375 
Q 26.375 40.375 22.484375 35.828125 
Q 18.609375 31.296875 18.609375 23.390625 
Q 18.609375 15.53125 22.484375 10.953125 
Q 26.375 6.390625 33.015625 6.390625 
Q 39.65625 6.390625 43.53125 10.953125 
Q 47.40625 15.53125 47.40625 23.390625 
Q 47.40625 31.296875 43.53125 35.828125 
Q 39.65625 40.375 33.015625 40.375 
M 52.59375 71.296875 
L 52.59375 62.3125 
Q 48.875 64.0625 45.09375 64.984375 
Q 41.3125 65.921875 37.59375 65.921875 
Q 27.828125 65.921875 22.671875 59.328125 
Q 17.53125 52.734375 16.796875 39.40625 
Q 19.671875 43.65625 24.015625 45.921875 
Q 28.375 48.1875 33.59375 48.1875 
Q 44.578125 48.1875 50.953125 41.515625 
Q 57.328125 34.859375 57.328125 23.390625 
Q 57.328125 12.15625 50.6875 5.359375 
Q 44.046875 -1.421875 33.015625 -1.421875 
Q 20.359375 -1.421875 13.671875 8.265625 
Q 6.984375 17.96875 6.984375 36.375 
Q 6.984375 53.65625 15.1875 63.9375 
Q 23.390625 74.21875 37.203125 74.21875 
Q 40.921875 74.21875 44.703125 73.484375 
Q 48.484375 72.75 52.59375 71.296875 
" id="BitstreamVeraSans-Roman-36"/>
      </defs>
      <g transform="translate(355.182386364 263.5984375)scale(0.1 -0.1)">
       <use xlink:href="#BitstreamVeraSans-Roman-36"/>
      </g>
     </g>
    </g>
   </g>
   <g id="matplotlib.axis_2">
    <g id="ytick_1">
     <g id="line2d_122">
      <defs>
       <path d="M 0 0 
L 4 0 
" id="m55f05421fb" style="stroke:#000000;stroke-width:0.5;"/>
      </defs>
      <g>
       <use style="stroke:#000000;stroke-width:0.5;" x="54.0" xlink:href="#m55f05421fb" y="252.0"/>
      </g>
     </g>
     <g id="line2d_123">
      <defs>
       <path d="M 0 0 
L -4 0 
" id="mf7340a2c9e" style="stroke:#000000;stroke-width:0.5;"/>
      </defs>
      <g>
       <use style="stroke:#000000;stroke-width:0.5;" x="388.8" xlink:href="#mf7340a2c9e" y="252.0"/>
      </g>
     </g>
     <g id="text_8">
      <!-- 0 -->
      <g transform="translate(43.6375 254.759375)scale(0.1 -0.1)">
       <use xlink:href="#BitstreamVeraSans-Roman-30"/>
      </g>
     </g>
    </g>
    <g id="ytick_2">
     <g id="line2d_124">
      <g>
       <use style="stroke:#000000;stroke-width:0.5;" x="54.0" xlink:href="#m55f05421fb" y="207.36"/>
      </g>
     </g>
     <g id="line2d_125">
      <g>
       <use style="stroke:#000000;stroke-width:0.5;" x="388.8" xlink:href="#mf7340a2c9e" y="207.36"/>
      </g>
     </g>
     <g id="text_9">
      <!-- 20 -->
      <g transform="translate(37.275 210.119375)scale(0.1 -0.1)">
       <use xlink:href="#BitstreamVeraSans-Roman-32"/>
       <use x="63.623046875" xlink:href="#BitstreamVeraSans-Roman-30"/>
      </g>
     </g>
    </g>
    <g id="ytick_3">
     <g id="line2d_126">
      <g>
       <use style="stroke:#000000;stroke-width:0.5;" x="54.0" xlink:href="#m55f05421fb" y="162.72"/>
      </g>
     </g>
     <g id="line2d_127">
      <g>
       <use style="stroke:#000000;stroke-width:0.5;" x="388.8" xlink:href="#mf7340a2c9e" y="162.72"/>
      </g>
     </g>
     <g id="text_10">
      <!-- 40 -->
      <g transform="translate(37.275 165.479375)scale(0.1 -0.1)">
       <use xlink:href="#BitstreamVeraSans-Roman-34"/>
       <use x="63.623046875" xlink:href="#BitstreamVeraSans-Roman-30"/>
      </g>
     </g>
    </g>
    <g id="ytick_4">
     <g id="line2d_128">
      <g>
       <use style="stroke:#000000;stroke-width:0.5;" x="54.0" xlink:href="#m55f05421fb" y="118.08"/>
      </g>
     </g>
     <g id="line2d_129">
      <g>
       <use style="stroke:#000000;stroke-width:0.5;" x="388.8" xlink:href="#mf7340a2c9e" y="118.08"/>
      </g>
     </g>
     <g id="text_11">
      <!-- 60 -->
      <g transform="translate(37.275 120.839375)scale(0.1 -0.1)">
       <use xlink:href="#BitstreamVeraSans-Roman-36"/>
       <use x="63.623046875" xlink:href="#BitstreamVeraSans-Roman-30"/>
      </g>
     </g>
    </g>
    <g id="ytick_5">
     <g id="line2d_130">
      <g>
       <use style="stroke:#000000;stroke-width:0.5;" x="54.0" xlink:href="#m55f05421fb" y="73.44"/>
      </g>
     </g>
     <g id="line2d_131">
      <g>
       <use style="stroke:#000000;stroke-width:0.5;" x="388.8" xlink:href="#mf7340a2c9e" y="73.44"/>
      </g>
     </g>
     <g id="text_12">
      <!-- 80 -->
      <defs>
       <path d="M 31.78125 34.625 
Q 24.75 34.625 20.71875 30.859375 
Q 16.703125 27.09375 16.703125 20.515625 
Q 16.703125 13.921875 20.71875 10.15625 
Q 24.75 6.390625 31.78125 6.390625 
Q 38.8125 6.390625 42.859375 10.171875 
Q 46.921875 13.96875 46.921875 20.515625 
Q 46.921875 27.09375 42.890625 30.859375 
Q 38.875 34.625 31.78125 34.625 
M 21.921875 38.8125 
Q 15.578125 40.375 12.03125 44.71875 
Q 8.5 49.078125 8.5 55.328125 
Q 8.5 64.0625 14.71875 69.140625 
Q 20.953125 74.21875 31.78125 74.21875 
Q 42.671875 74.21875 48.875 69.140625 
Q 55.078125 64.0625 55.078125 55.328125 
Q 55.078125 49.078125 51.53125 44.71875 
Q 48 40.375 41.703125 38.8125 
Q 48.828125 37.15625 52.796875 32.3125 
Q 56.78125 27.484375 56.78125 20.515625 
Q 56.78125 9.90625 50.3125 4.234375 
Q 43.84375 -1.421875 31.78125 -1.421875 
Q 19.734375 -1.421875 13.25 4.234375 
Q 6.78125 9.90625 6.78125 20.515625 
Q 6.78125 27.484375 10.78125 32.3125 
Q 14.796875 37.15625 21.921875 38.8125 
M 18.3125 54.390625 
Q 18.3125 48.734375 21.84375 45.5625 
Q 25.390625 42.390625 31.78125 42.390625 
Q 38.140625 42.390625 41.71875 45.5625 
Q 45.3125 48.734375 45.3125 54.390625 
Q 45.3125 60.0625 41.71875 63.234375 
Q 38.140625 66.40625 31.78125 66.40625 
Q 25.390625 66.40625 21.84375 63.234375 
Q 18.3125 60.0625 18.3125 54.390625 
" id="BitstreamVeraSans-Roman-38"/>
      </defs>
      <g transform="translate(37.275 76.199375)scale(0.1 -0.1)">
       <use xlink:href="#BitstreamVeraSans-Roman-38"/>
       <use x="63.623046875" xlink:href="#BitstreamVeraSans-Roman-30"/>
      </g>
     </g>
    </g>
    <g id="ytick_6">
     <g id="line2d_132">
      <g>
       <use style="stroke:#000000;stroke-width:0.5;" x="54.0" xlink:href="#m55f05421fb" y="28.8"/>
      </g>
     </g>
     <g id="line2d_133">
      <g>
       <use style="stroke:#000000;stroke-width:0.5;" x="388.8" xlink:href="#mf7340a2c9e" y="28.8"/>
      </g>
     </g>
     <g id="text_13">
      <!-- 100 -->
      <g transform="translate(30.9125 31.559375)scale(0.1 -0.1)">
       <use xlink:href="#BitstreamVeraSans-Roman-31"/>
       <use x="63.623046875" xlink:href="#BitstreamVeraSans-Roman-30"/>
       <use x="127.24609375" xlink:href="#BitstreamVeraSans-Roman-30"/>
      </g>
     </g>
    </g>
   </g>
   <g id="text_14">
    <!-- Cobweb graph - [y0] vs [X0,X1,X2,X3,X4,X5] -->
    <defs>
     <path d="M 32.171875 -5.078125 
Q 28.375 -14.84375 24.75 -17.8125 
Q 21.140625 -20.796875 15.09375 -20.796875 
L 7.90625 -20.796875 
L 7.90625 -13.28125 
L 13.1875 -13.28125 
Q 16.890625 -13.28125 18.9375 -11.515625 
Q 21 -9.765625 23.484375 -3.21875 
L 25.09375 0.875 
L 2.984375 54.6875 
L 12.5 54.6875 
L 29.59375 11.921875 
L 46.6875 54.6875 
L 56.203125 54.6875 
z
" id="BitstreamVeraSans-Roman-79"/>
     <path d="M 30.421875 75.984375 
L 30.421875 -13.1875 
L 9.71875 -13.1875 
L 9.71875 -6.203125 
L 21.390625 -6.203125 
L 21.390625 69 
L 9.71875 69 
L 9.71875 75.984375 
z
" id="BitstreamVeraSans-Roman-5d"/>
     <path d="M 64.40625 67.28125 
L 64.40625 56.890625 
Q 59.421875 61.53125 53.78125 63.8125 
Q 48.140625 66.109375 41.796875 66.109375 
Q 29.296875 66.109375 22.65625 58.46875 
Q 16.015625 50.828125 16.015625 36.375 
Q 16.015625 21.96875 22.65625 14.328125 
Q 29.296875 6.6875 41.796875 6.6875 
Q 48.140625 6.6875 53.78125 8.984375 
Q 59.421875 11.28125 64.40625 15.921875 
L 64.40625 5.609375 
Q 59.234375 2.09375 53.4375 0.328125 
Q 47.65625 -1.421875 41.21875 -1.421875 
Q 24.65625 -1.421875 15.125 8.703125 
Q 5.609375 18.84375 5.609375 36.375 
Q 5.609375 53.953125 15.125 64.078125 
Q 24.65625 74.21875 41.21875 74.21875 
Q 47.75 74.21875 53.53125 72.484375 
Q 59.328125 70.75 64.40625 67.28125 
" id="BitstreamVeraSans-Roman-43"/>
     <path d="M 45.40625 27.984375 
Q 45.40625 37.75 41.375 43.109375 
Q 37.359375 48.484375 30.078125 48.484375 
Q 22.859375 48.484375 18.828125 43.109375 
Q 14.796875 37.75 14.796875 27.984375 
Q 14.796875 18.265625 18.828125 12.890625 
Q 22.859375 7.515625 30.078125 7.515625 
Q 37.359375 7.515625 41.375 12.890625 
Q 45.40625 18.265625 45.40625 27.984375 
M 54.390625 6.78125 
Q 54.390625 -7.171875 48.1875 -13.984375 
Q 42 -20.796875 29.203125 -20.796875 
Q 24.46875 -20.796875 20.265625 -20.09375 
Q 16.0625 -19.390625 12.109375 -17.921875 
L 12.109375 -9.1875 
Q 16.0625 -11.328125 19.921875 -12.34375 
Q 23.78125 -13.375 27.78125 -13.375 
Q 36.625 -13.375 41.015625 -8.765625 
Q 45.40625 -4.15625 45.40625 5.171875 
L 45.40625 9.625 
Q 42.625 4.78125 38.28125 2.390625 
Q 33.9375 0 27.875 0 
Q 17.828125 0 11.671875 7.65625 
Q 5.515625 15.328125 5.515625 27.984375 
Q 5.515625 40.671875 11.671875 48.328125 
Q 17.828125 56 27.875 56 
Q 33.9375 56 38.28125 53.609375 
Q 42.625 51.21875 45.40625 46.390625 
L 45.40625 54.6875 
L 54.390625 54.6875 
z
" id="BitstreamVeraSans-Roman-67"/>
     <path d="M 6.296875 72.90625 
L 16.890625 72.90625 
L 35.015625 45.796875 
L 53.21875 72.90625 
L 63.8125 72.90625 
L 40.375 37.890625 
L 65.375 0 
L 54.78125 0 
L 34.28125 31 
L 13.625 0 
L 2.984375 0 
L 29 38.921875 
z
" id="BitstreamVeraSans-Roman-58"/>
     <path d="M 4.890625 31.390625 
L 31.203125 31.390625 
L 31.203125 23.390625 
L 4.890625 23.390625 
z
" id="BitstreamVeraSans-Roman-2d"/>
     <path d="M 34.28125 27.484375 
Q 23.390625 27.484375 19.1875 25 
Q 14.984375 22.515625 14.984375 16.5 
Q 14.984375 11.71875 18.140625 8.90625 
Q 21.296875 6.109375 26.703125 6.109375 
Q 34.1875 6.109375 38.703125 11.40625 
Q 43.21875 16.703125 43.21875 25.484375 
L 43.21875 27.484375 
z
M 52.203125 31.203125 
L 52.203125 0 
L 43.21875 0 
L 43.21875 8.296875 
Q 40.140625 3.328125 35.546875 0.953125 
Q 30.953125 -1.421875 24.3125 -1.421875 
Q 15.921875 -1.421875 10.953125 3.296875 
Q 6 8.015625 6 15.921875 
Q 6 25.140625 12.171875 29.828125 
Q 18.359375 34.515625 30.609375 34.515625 
L 43.21875 34.515625 
L 43.21875 35.40625 
Q 43.21875 41.609375 39.140625 45 
Q 35.0625 48.390625 27.6875 48.390625 
Q 23 48.390625 18.546875 47.265625 
Q 14.109375 46.140625 10.015625 43.890625 
L 10.015625 52.203125 
Q 14.9375 54.109375 19.578125 55.046875 
Q 24.21875 56 28.609375 56 
Q 40.484375 56 46.34375 49.84375 
Q 52.203125 43.703125 52.203125 31.203125 
" id="BitstreamVeraSans-Roman-61"/>
     <path d="M 44.28125 53.078125 
L 44.28125 44.578125 
Q 40.484375 46.53125 36.375 47.5 
Q 32.28125 48.484375 27.875 48.484375 
Q 21.1875 48.484375 17.84375 46.4375 
Q 14.5 44.390625 14.5 40.28125 
Q 14.5 37.15625 16.890625 35.375 
Q 19.28125 33.59375 26.515625 31.984375 
L 29.59375 31.296875 
Q 39.15625 29.25 43.1875 25.515625 
Q 47.21875 21.78125 47.21875 15.09375 
Q 47.21875 7.46875 41.1875 3.015625 
Q 35.15625 -1.421875 24.609375 -1.421875 
Q 20.21875 -1.421875 15.453125 -0.5625 
Q 10.6875 0.296875 5.421875 2 
L 5.421875 11.28125 
Q 10.40625 8.6875 15.234375 7.390625 
Q 20.0625 6.109375 24.8125 6.109375 
Q 31.15625 6.109375 34.5625 8.28125 
Q 37.984375 10.453125 37.984375 14.40625 
Q 37.984375 18.0625 35.515625 20.015625 
Q 33.0625 21.96875 24.703125 23.78125 
L 21.578125 24.515625 
Q 13.234375 26.265625 9.515625 29.90625 
Q 5.8125 33.546875 5.8125 39.890625 
Q 5.8125 47.609375 11.28125 51.796875 
Q 16.75 56 26.8125 56 
Q 31.78125 56 36.171875 55.265625 
Q 40.578125 54.546875 44.28125 53.078125 
" id="BitstreamVeraSans-Roman-73"/>
     <path d="M 11.71875 12.40625 
L 22.015625 12.40625 
L 22.015625 4 
L 14.015625 -11.625 
L 7.71875 -11.625 
L 11.71875 4 
z
" id="BitstreamVeraSans-Roman-2c"/>
     <path d="M 54.890625 33.015625 
L 54.890625 0 
L 45.90625 0 
L 45.90625 32.71875 
Q 45.90625 40.484375 42.875 44.328125 
Q 39.84375 48.1875 33.796875 48.1875 
Q 26.515625 48.1875 22.3125 43.546875 
Q 18.109375 38.921875 18.109375 30.90625 
L 18.109375 0 
L 9.078125 0 
L 9.078125 75.984375 
L 18.109375 75.984375 
L 18.109375 46.1875 
Q 21.34375 51.125 25.703125 53.5625 
Q 30.078125 56 35.796875 56 
Q 45.21875 56 50.046875 50.171875 
Q 54.890625 44.34375 54.890625 33.015625 
" id="BitstreamVeraSans-Roman-68"/>
     <path id="BitstreamVeraSans-Roman-20"/>
     <path d="M 30.609375 48.390625 
Q 23.390625 48.390625 19.1875 42.75 
Q 14.984375 37.109375 14.984375 27.296875 
Q 14.984375 17.484375 19.15625 11.84375 
Q 23.34375 6.203125 30.609375 6.203125 
Q 37.796875 6.203125 41.984375 11.859375 
Q 46.1875 17.53125 46.1875 27.296875 
Q 46.1875 37.015625 41.984375 42.703125 
Q 37.796875 48.390625 30.609375 48.390625 
M 30.609375 56 
Q 42.328125 56 49.015625 48.375 
Q 55.71875 40.765625 55.71875 27.296875 
Q 55.71875 13.875 49.015625 6.21875 
Q 42.328125 -1.421875 30.609375 -1.421875 
Q 18.84375 -1.421875 12.171875 6.21875 
Q 5.515625 13.875 5.515625 27.296875 
Q 5.515625 40.765625 12.171875 48.375 
Q 18.84375 56 30.609375 56 
" id="BitstreamVeraSans-Roman-6f"/>
     <path d="M 8.59375 75.984375 
L 29.296875 75.984375 
L 29.296875 69 
L 17.578125 69 
L 17.578125 -6.203125 
L 29.296875 -6.203125 
L 29.296875 -13.1875 
L 8.59375 -13.1875 
z
" id="BitstreamVeraSans-Roman-5b"/>
     <path d="M 41.109375 46.296875 
Q 39.59375 47.171875 37.8125 47.578125 
Q 36.03125 48 33.890625 48 
Q 26.265625 48 22.1875 43.046875 
Q 18.109375 38.09375 18.109375 28.8125 
L 18.109375 0 
L 9.078125 0 
L 9.078125 54.6875 
L 18.109375 54.6875 
L 18.109375 46.1875 
Q 20.953125 51.171875 25.484375 53.578125 
Q 30.03125 56 36.53125 56 
Q 37.453125 56 38.578125 55.875 
Q 39.703125 55.765625 41.0625 55.515625 
z
" id="BitstreamVeraSans-Roman-72"/>
     <path d="M 18.109375 8.203125 
L 18.109375 -20.796875 
L 9.078125 -20.796875 
L 9.078125 54.6875 
L 18.109375 54.6875 
L 18.109375 46.390625 
Q 20.953125 51.265625 25.265625 53.625 
Q 29.59375 56 35.59375 56 
Q 45.5625 56 51.78125 48.09375 
Q 58.015625 40.1875 58.015625 27.296875 
Q 58.015625 14.40625 51.78125 6.484375 
Q 45.5625 -1.421875 35.59375 -1.421875 
Q 29.59375 -1.421875 25.265625 0.953125 
Q 20.953125 3.328125 18.109375 8.203125 
M 48.6875 27.296875 
Q 48.6875 37.203125 44.609375 42.84375 
Q 40.53125 48.484375 33.40625 48.484375 
Q 26.265625 48.484375 22.1875 42.84375 
Q 18.109375 37.203125 18.109375 27.296875 
Q 18.109375 17.390625 22.1875 11.75 
Q 26.265625 6.109375 33.40625 6.109375 
Q 40.53125 6.109375 44.609375 11.75 
Q 48.6875 17.390625 48.6875 27.296875 
" id="BitstreamVeraSans-Roman-70"/>
     <path d="M 56.203125 29.59375 
L 56.203125 25.203125 
L 14.890625 25.203125 
Q 15.484375 15.921875 20.484375 11.0625 
Q 25.484375 6.203125 34.421875 6.203125 
Q 39.59375 6.203125 44.453125 7.46875 
Q 49.3125 8.734375 54.109375 11.28125 
L 54.109375 2.78125 
Q 49.265625 0.734375 44.1875 -0.34375 
Q 39.109375 -1.421875 33.890625 -1.421875 
Q 20.796875 -1.421875 13.15625 6.1875 
Q 5.515625 13.8125 5.515625 26.8125 
Q 5.515625 40.234375 12.765625 48.109375 
Q 20.015625 56 32.328125 56 
Q 43.359375 56 49.78125 48.890625 
Q 56.203125 41.796875 56.203125 29.59375 
M 47.21875 32.234375 
Q 47.125 39.59375 43.09375 43.984375 
Q 39.0625 48.390625 32.421875 48.390625 
Q 24.90625 48.390625 20.390625 44.140625 
Q 15.875 39.890625 15.1875 32.171875 
z
" id="BitstreamVeraSans-Roman-65"/>
     <path d="M 48.6875 27.296875 
Q 48.6875 37.203125 44.609375 42.84375 
Q 40.53125 48.484375 33.40625 48.484375 
Q 26.265625 48.484375 22.1875 42.84375 
Q 18.109375 37.203125 18.109375 27.296875 
Q 18.109375 17.390625 22.1875 11.75 
Q 26.265625 6.109375 33.40625 6.109375 
Q 40.53125 6.109375 44.609375 11.75 
Q 48.6875 17.390625 48.6875 27.296875 
M 18.109375 46.390625 
Q 20.953125 51.265625 25.265625 53.625 
Q 29.59375 56 35.59375 56 
Q 45.5625 56 51.78125 48.09375 
Q 58.015625 40.1875 58.015625 27.296875 
Q 58.015625 14.40625 51.78125 6.484375 
Q 45.5625 -1.421875 35.59375 -1.421875 
Q 29.59375 -1.421875 25.265625 0.953125 
Q 20.953125 3.328125 18.109375 8.203125 
L 18.109375 0 
L 9.078125 0 
L 9.078125 75.984375 
L 18.109375 75.984375 
z
" id="BitstreamVeraSans-Roman-62"/>
     <path d="M 4.203125 54.6875 
L 13.1875 54.6875 
L 24.421875 12.015625 
L 35.59375 54.6875 
L 46.1875 54.6875 
L 57.421875 12.015625 
L 68.609375 54.6875 
L 77.59375 54.6875 
L 63.28125 0 
L 52.6875 0 
L 40.921875 44.828125 
L 29.109375 0 
L 18.5 0 
z
" id="BitstreamVeraSans-Roman-77"/>
     <path d="M 2.984375 54.6875 
L 12.5 54.6875 
L 29.59375 8.796875 
L 46.6875 54.6875 
L 56.203125 54.6875 
L 35.6875 0 
L 23.484375 0 
z
" id="BitstreamVeraSans-Roman-76"/>
    </defs>
    <g transform="translate(87.5503125 23.8)scale(0.12 -0.12)">
     <use xlink:href="#BitstreamVeraSans-Roman-43"/>
     <use x="69.82421875" xlink:href="#BitstreamVeraSans-Roman-6f"/>
     <use x="131.005859375" xlink:href="#BitstreamVeraSans-Roman-62"/>
     <use x="194.482421875" xlink:href="#BitstreamVeraSans-Roman-77"/>
     <use x="276.26953125" xlink:href="#BitstreamVeraSans-Roman-65"/>
     <use x="337.79296875" xlink:href="#BitstreamVeraSans-Roman-62"/>
     <use x="401.26953125" xlink:href="#BitstreamVeraSans-Roman-20"/>
     <use x="433.056640625" xlink:href="#BitstreamVeraSans-Roman-67"/>
     <use x="496.533203125" xlink:href="#BitstreamVeraSans-Roman-72"/>
     <use x="537.646484375" xlink:href="#BitstreamVeraSans-Roman-61"/>
     <use x="598.92578125" xlink:href="#BitstreamVeraSans-Roman-70"/>
     <use x="662.40234375" xlink:href="#BitstreamVeraSans-Roman-68"/>
     <use x="725.78125" xlink:href="#BitstreamVeraSans-Roman-20"/>
     <use x="757.568359375" xlink:href="#BitstreamVeraSans-Roman-2d"/>
     <use x="793.65234375" xlink:href="#BitstreamVeraSans-Roman-20"/>
     <use x="825.439453125" xlink:href="#BitstreamVeraSans-Roman-5b"/>
     <use x="864.453125" xlink:href="#BitstreamVeraSans-Roman-79"/>
     <use x="923.6328125" xlink:href="#BitstreamVeraSans-Roman-30"/>
     <use x="987.255859375" xlink:href="#BitstreamVeraSans-Roman-5d"/>
     <use x="1026.26953125" xlink:href="#BitstreamVeraSans-Roman-20"/>
     <use x="1058.056640625" xlink:href="#BitstreamVeraSans-Roman-76"/>
     <use x="1117.236328125" xlink:href="#BitstreamVeraSans-Roman-73"/>
     <use x="1169.3359375" xlink:href="#BitstreamVeraSans-Roman-20"/>
     <use x="1201.123046875" xlink:href="#BitstreamVeraSans-Roman-5b"/>
     <use x="1240.13671875" xlink:href="#BitstreamVeraSans-Roman-58"/>
     <use x="1308.642578125" xlink:href="#BitstreamVeraSans-Roman-30"/>
     <use x="1372.265625" xlink:href="#BitstreamVeraSans-Roman-2c"/>
     <use x="1404.052734375" xlink:href="#BitstreamVeraSans-Roman-58"/>
     <use x="1472.55859375" xlink:href="#BitstreamVeraSans-Roman-31"/>
     <use x="1536.181640625" xlink:href="#BitstreamVeraSans-Roman-2c"/>
     <use x="1567.96875" xlink:href="#BitstreamVeraSans-Roman-58"/>
     <use x="1636.474609375" xlink:href="#BitstreamVeraSans-Roman-32"/>
     <use x="1700.09765625" xlink:href="#BitstreamVeraSans-Roman-2c"/>
     <use x="1731.884765625" xlink:href="#BitstreamVeraSans-Roman-58"/>
     <use x="1800.390625" xlink:href="#BitstreamVeraSans-Roman-33"/>
     <use x="1864.013671875" xlink:href="#BitstreamVeraSans-Roman-2c"/>
     <use x="1895.80078125" xlink:href="#BitstreamVeraSans-Roman-58"/>
     <use x="1964.306640625" xlink:href="#BitstreamVeraSans-Roman-34"/>
     <use x="2027.9296875" xlink:href="#BitstreamVeraSans-Roman-2c"/>
     <use x="2059.716796875" xlink:href="#BitstreamVeraSans-Roman-58"/>
     <use x="2128.22265625" xlink:href="#BitstreamVeraSans-Roman-35"/>
     <use x="2191.845703125" xlink:href="#BitstreamVeraSans-Roman-5d"/>
    </g>
   </g>
   <g id="legend_1">
    <g id="patch_7">
     <path d="M 63 141.546875 
L 108.2125 141.546875 
Q 110.2125 141.546875 110.2125 139.546875 
L 110.2125 37.8 
Q 110.2125 35.8 108.2125 35.8 
L 63 35.8 
Q 61 35.8 61 37.8 
L 61 139.546875 
Q 61 141.546875 63 141.546875 
z
" style="fill:#4c4c4c;opacity:0.5;stroke:#4c4c4c;stroke-linejoin:miter;"/>
    </g>
    <g id="patch_8">
     <path d="M 61 139.546875 
L 106.2125 139.546875 
Q 108.2125 139.546875 108.2125 137.546875 
L 108.2125 35.8 
Q 108.2125 33.8 106.2125 33.8 
L 61 33.8 
Q 59 33.8 59 35.8 
L 59 137.546875 
Q 59 139.546875 61 139.546875 
z
" style="fill:#ffffff;stroke:#000000;stroke-linejoin:miter;"/>
    </g>
    <g id="line2d_134">
     <path d="M 63 41.898438 
L 83 41.898438 
" style="fill:none;stroke:#ff0000;stroke-linecap:square;stroke-width:3.0;"/>
    </g>
    <g id="line2d_135"/>
    <g id="text_15">
     <!-- X0 -->
     <g transform="translate(91.0 45.3984375)scale(0.1 -0.1)">
      <use xlink:href="#BitstreamVeraSans-Roman-58"/>
      <use x="68.505859375" xlink:href="#BitstreamVeraSans-Roman-30"/>
     </g>
    </g>
    <g id="line2d_136">
     <path d="M 63 56.576563 
L 83 56.576563 
" style="fill:none;stroke:#ffdb00;stroke-linecap:square;stroke-width:3.0;"/>
    </g>
    <g id="line2d_137"/>
    <g id="text_16">
     <!-- X1 -->
     <g transform="translate(91.0 60.0765625)scale(0.1 -0.1)">
      <use xlink:href="#BitstreamVeraSans-Roman-58"/>
      <use x="68.505859375" xlink:href="#BitstreamVeraSans-Roman-31"/>
     </g>
    </g>
    <g id="line2d_138">
     <path d="M 63 71.254687 
L 83 71.254687 
" style="fill:none;stroke:#49ff00;stroke-linecap:square;stroke-width:3.0;"/>
    </g>
    <g id="line2d_139"/>
    <g id="text_17">
     <!-- X2 -->
     <g transform="translate(91.0 74.7546875)scale(0.1 -0.1)">
      <use xlink:href="#BitstreamVeraSans-Roman-58"/>
      <use x="68.505859375" xlink:href="#BitstreamVeraSans-Roman-32"/>
     </g>
    </g>
    <g id="line2d_140">
     <path d="M 63 85.932813 
L 83 85.932813 
" style="fill:none;stroke:#00ff92;stroke-linecap:square;stroke-width:3.0;"/>
    </g>
    <g id="line2d_141"/>
    <g id="text_18">
     <!-- X3 -->
     <g transform="translate(91.0 89.4328125)scale(0.1 -0.1)">
      <use xlink:href="#BitstreamVeraSans-Roman-58"/>
      <use x="68.505859375" xlink:href="#BitstreamVeraSans-Roman-33"/>
     </g>
    </g>
    <g id="line2d_142">
     <path d="M 63 100.610938 
L 83 100.610938 
" style="fill:none;stroke:#0092ff;stroke-linecap:square;stroke-width:3.0;"/>
    </g>
    <g id="line2d_143"/>
    <g id="text_19">
     <!-- X4 -->
     <g transform="translate(91.0 104.1109375)scale(0.1 -0.1)">
      <use xlink:href="#BitstreamVeraSans-Roman-58"/>
      <use x="68.505859375" xlink:href="#BitstreamVeraSans-Roman-34"/>
     </g>
    </g>
    <g id="line2d_144">
     <path d="M 63 115.289062 
L 83 115.289062 
" style="fill:none;stroke:#4900ff;stroke-linecap:square;stroke-width:3.0;"/>
    </g>
    <g id="line2d_145"/>
    <g id="text_20">
     <!-- X5 -->
     <g transform="translate(91.0 118.7890625)scale(0.1 -0.1)">
      <use xlink:href="#BitstreamVeraSans-Roman-58"/>
      <use x="68.505859375" xlink:href="#BitstreamVeraSans-Roman-35"/>
     </g>
    </g>
    <g id="line2d_146">
     <path d="M 63 129.967187 
L 83 129.967187 
" style="fill:none;stroke:#000000;stroke-linecap:square;stroke-width:3.0;"/>
    </g>
    <g id="line2d_147"/>
    <g id="text_21">
     <!-- y0 -->
     <g transform="translate(91.0 133.4671875)scale(0.1 -0.1)">
      <use xlink:href="#BitstreamVeraSans-Roman-79"/>
      <use x="59.1796875" xlink:href="#BitstreamVeraSans-Roman-30"/>
     </g>
    </g>
   </g>
  </g>
 </g>
 <defs>
  <clipPath id="pa0ef4a3a38">
   <rect height="223.2" width="334.8" x="54.0" y="28.8"/>
  </clipPath>
 </defs>
</svg>
