<?xml version="1.0" encoding="utf-8" standalone="no"?>
<!DOCTYPE svg PUBLIC "-//W3C//DTD SVG 1.1//EN"
  "http://www.w3.org/Graphics/SVG/1.1/DTD/svg11.dtd">
<!-- Created with matplotlib (http://matplotlib.org/) -->
<svg height="288pt" version="1.1" viewBox="0 0 432 288" width="432pt" xmlns="http://www.w3.org/2000/svg" xmlns:xlink="http://www.w3.org/1999/xlink">
 <defs>
  <style type="text/css">
*{stroke-linecap:butt;stroke-linejoin:round;stroke-miterlimit:100000;}
  </style>
 </defs>
 <g id="figure_1">
  <g id="patch_1">
   <path d="M 0 288 
L 432 288 
L 432 0 
L 0 0 
z
" style="fill:#ffffff;"/>
  </g>
  <g id="axes_1">
   <g id="patch_2">
    <path d="M 54 252 
L 388.8 252 
L 388.8 28.8 
L 54 28.8 
z
" style="fill:#ffffff;"/>
   </g>
   <g id="LineCollection_1">
    <path clip-path="url(#p3815626884)" d="M 371.655946 29.107325 
L 370.490625 29.112398 
L 367.875 29.124233 
L 365.259375 29.136524 
L 362.64375 29.149271 
L 360.028125 29.162458 
L 357.4125 29.176063 
L 354.796875 29.190048 
L 352.18125 29.20437 
L 349.565625 29.218972 
L 346.95 29.233788 
L 344.334375 29.248746 
L 341.71875 29.263762 
L 339.103125 29.278746 
L 336.4875 29.293606 
L 333.871875 29.308243 
L 331.25625 29.322558 
L 328.640625 29.336452 
L 326.025 29.349832 
L 323.409375 29.362607 
L 320.79375 29.374696 
L 318.178125 29.386027 
L 315.5625 29.396538 
L 312.946875 29.406181 
L 310.33125 29.41492 
L 307.715625 29.422734 
L 306.617062 28.8 
" style="fill:none;stroke:#0000ff;"/>
    <path clip-path="url(#p3815626884)" d="M 125.825667 28.8 
L 124.621875 29.646975 
L 122.00625 29.670378 
L 119.390625 29.696023 
L 116.775 29.724213 
L 114.159375 29.755312 
L 111.54375 29.789755 
L 108.928125 29.828066 
L 106.3125 29.870881 
L 103.696875 29.918977 
L 101.08125 29.97331 
L 98.465625 30.035073 
L 95.85 30.10576 
L 93.234375 30.18727 
L 90.61875 30.282047 
L 88.003125 30.393275 
L 85.3875 30.525175 
L 85.055941 30.54375 
L 83.89465 32.2875 
L 83.137446 34.03125 
L 82.771875 35.122642 
L 82.558495 35.775 
L 82.082468 37.51875 
L 81.668288 39.2625 
L 81.296075 41.00625 
L 80.95345 42.75 
L 80.632046 44.49375 
L 80.325841 46.2375 
L 80.15625 47.236796 
L 80.032233 47.98125 
L 79.748342 49.725 
L 79.468602 51.46875 
L 79.190445 53.2125 
L 78.911592 54.95625 
L 78.629955 56.7 
L 78.343567 58.44375 
L 78.050529 60.1875 
L 77.748964 61.93125 
L 77.540625 63.095962 
L 77.438502 63.675 
L 77.119083 65.41875 
L 76.78576 67.1625 
L 76.436466 68.90625 
L 76.069008 70.65 
L 75.68104 72.39375 
L 75.270026 74.1375 
L 74.925 75.516175 
L 74.834354 75.88125 
L 74.37473 77.625 
L 73.88377 79.36875 
L 73.357907 81.1125 
L 72.793186 82.85625 
L 72.309375 84.246372 
L 72.186362 84.6 
L 71.536652 86.34375 
L 70.834309 88.0875 
L 70.073232 89.83125 
L 69.69375 90.637562 
L 69.24928 91.575 
L 68.355254 93.31875 
L 67.380214 95.0625 
L 67.078125 95.563004 
L 66.316749 96.80625 
L 65.152992 98.55 
L 64.4625 99.501334 
L 63.876452 100.29375 
L 62.473362 102.0375 
L 61.846875 102.753594 
L 60.93195 103.78125 
L 59.23125 105.525 
L 57.403191 107.26875 
L 56.615625 107.955745 
L 56.525319 109.0125 
L 56.383512 110.75625 
L 56.251765 112.5 
L 56.129414 114.24375 
L 56.015822 115.9875 
L 55.910387 117.73125 
L 55.812537 119.475 
L 55.721735 121.21875 
L 55.637474 122.9625 
L 55.559279 124.70625 
L 55.486708 126.45 
L 55.419345 128.19375 
L 55.356806 129.9375 
L 55.29873 131.68125 
L 55.244785 133.425 
L 55.194662 135.16875 
L 55.148073 136.9125 
L 55.104752 138.65625 
L 55.064454 140.4 
L 55.026951 142.14375 
L 54.992032 143.8875 
L 54.959502 145.63125 
L 54.929181 147.375 
L 54.900904 149.11875 
L 54.874514 150.8625 
L 54.849872 152.60625 
L 54.826843 154.35 
L 54.805308 156.09375 
L 54.785152 157.8375 
L 54.766272 159.58125 
L 54.748571 161.325 
L 54.731959 163.06875 
L 54.716354 164.8125 
L 54.701679 166.55625 
L 54.687862 168.3 
L 54.674837 170.04375 
L 54.662544 171.7875 
L 54.650925 173.53125 
L 54.639927 175.275 
L 54.629501 177.01875 
L 54.619601 178.7625 
L 54.610186 180.50625 
L 54.601215 182.25 
L 54.592653 183.99375 
L 54.584465 185.7375 
L 54.576619 187.48125 
L 54.569086 189.225 
L 54.561838 190.96875 
L 54.560986 191.181391 
" style="fill:none;stroke:#0000ff;"/>
    <path clip-path="url(#p3815626884)" d="M 54.402714 239.58113 
L 54.349693 250.25625 
L 56.615625 251.766871 
L 163.85625 251.489804 
L 247.55625 251.189835 
L 302.484375 250.80435 
L 331.25625 250.417246 
L 339.103125 250.230693 
L 347.000916 248.5125 
L 352.477555 246.76875 
L 357.4125 244.640056 
L 360.028125 243.26655 
L 362.815573 241.5375 
L 365.259375 239.787147 
L 367.875 237.631155 
L 371.083188 234.5625 
L 374.226672 231.075 
L 377.009635 227.5875 
L 379.527846 224.1 
L 381.831317 220.6125 
L 383.941655 217.125 
L 386.184375 212.965517 
L 387.120529 211.89375 
L 388.8 209.587929 
L 388.8 209.587929 
" style="fill:none;stroke:#0000ff;"/>
   </g>
   <g id="LineCollection_2">
    <path clip-path="url(#p3815626884)" d="M 371.191995 29.430923 
L 370.490625 29.437151 
L 367.875 29.461288 
L 365.259375 29.486357 
L 362.64375 29.512354 
L 360.028125 29.53925 
L 357.4125 29.566997 
L 354.796875 29.595521 
L 352.18125 29.624731 
L 349.565625 29.654512 
L 346.95 29.684732 
L 344.334375 29.715238 
L 341.71875 29.745863 
L 339.103125 29.776425 
L 336.4875 29.806733 
L 333.871875 29.836585 
L 331.25625 29.865781 
L 328.640625 29.894119 
L 326.025 29.921408 
L 323.409375 29.947463 
L 320.79375 29.972119 
L 318.178125 29.995228 
L 315.5625 30.016666 
L 312.946875 30.036334 
L 310.33125 30.054158 
L 307.715625 30.070095 
L 305.475055 28.8 
" style="fill:none;stroke:#0000ff;"/>
    <path clip-path="url(#p3815626884)" d="M 127.077065 28.8 
L 124.621875 30.527445 
L 123.712282 30.54375 
L 121.805032 32.2875 
L 120.509567 34.03125 
L 119.390625 35.946153 
L 117.889656 39.2625 
L 116.616373 42.75 
L 115.065506 47.98125 
L 113.730248 53.2125 
L 111.388776 63.675 
L 108.015761 79.36875 
L 106.3125 86.34375 
L 104.872308 91.575 
L 103.155952 96.80625 
L 101.808662 100.29375 
L 100.228996 103.78125 
L 98.327571 107.26875 
L 97.245487 109.0125 
L 94.673356 112.5 
L 93.137632 114.24375 
L 90.61875 116.725143 
L 88.003125 118.909886 
L 87.27429 119.475 
L 84.744345 121.21875 
L 81.845754 122.9625 
L 77.540625 125.156277 
L 72.309375 127.382841 
L 67.078125 129.247451 
L 61.846875 130.834275 
L 56.615625 132.191908 
L 56.094513 142.14375 
L 55.686385 154.35 
L 55.351289 171.7875 
L 55.079021 199.6875 
L 54.713215 250.25625 
L 56.615625 251.524523 
L 127.2375 251.11241 
L 176.275441 250.897772 
L 176.275441 250.897772 
" style="fill:none;stroke:#0000ff;"/>
    <path clip-path="url(#p3815626884)" d="M 224.674279 250.565558 
L 226.63125 250.548622 
L 229.246875 250.525456 
L 231.8625 250.501752 
L 234.478125 250.477502 
L 237.09375 250.452695 
L 239.709375 250.42732 
L 242.325 250.401362 
L 244.940625 250.374805 
L 247.55625 250.347631 
L 250.171875 250.319817 
L 252.7875 250.29134 
L 255.403125 250.262172 
L 255.928512 250.25625 
L 257.720475 248.5125 
L 258.01875 248.223469 
L 259.645219 246.76875 
L 260.634375 245.890516 
L 261.686483 245.025 
L 263.25 243.751866 
L 263.872789 243.28125 
L 265.865625 241.796654 
L 266.24024 241.5375 
L 268.48125 240.013652 
L 268.82939 239.79375 
L 271.096875 238.388575 
L 271.684815 238.05 
L 273.7125 236.905563 
L 274.854397 236.30625 
L 276.328125 235.548458 
L 278.387537 234.5625 
L 278.94375 234.301582 
L 281.559375 233.14363 
L 282.336504 232.81875 
L 284.175 232.062989 
L 286.732116 231.075 
L 286.790625 231.05276 
L 289.40625 230.088788 
L 291.567318 229.33125 
L 292.021875 229.173984 
L 294.6375 228.287601 
L 296.76863 227.5875 
L 297.253125 227.429944 
L 299.86875 226.583412 
L 302.185707 225.84375 
L 302.484375 225.749113 
L 305.1 224.909402 
L 307.613077 224.1 
L 307.715625 224.067139 
L 310.33125 223.20392 
L 312.84942 222.35625 
L 312.946875 222.323543 
L 315.5625 221.407982 
L 317.75656 220.6125 
L 318.178125 220.459863 
L 320.79375 219.464125 
L 322.283965 218.86875 
L 323.409375 218.4192 
L 326.025 217.316662 
L 326.453872 217.125 
L 328.640625 216.147333 
L 330.258809 215.38125 
L 331.25625 214.909036 
L 333.787745 213.6375 
L 333.871875 213.595267 
L 336.4875 212.198212 
L 337.024515 211.89375 
L 339.103125 210.717142 
L 340.047964 210.15 
L 341.71875 209.150005 
L 342.892348 208.40625 
L 344.334375 207.496463 
L 345.585404 206.6625 
L 346.95 205.75858 
L 348.153103 204.91875 
L 349.565625 203.941066 
L 350.619128 203.175 
L 352.18125 202.051407 
L 353.004745 201.43125 
L 354.796875 200.099843 
L 355.328928 199.6875 
L 357.4125 198.099142 
L 357.608643 197.94375 
L 359.850083 196.2 
L 360.028125 196.064057 
L 362.066128 194.45625 
L 362.64375 194.01114 
L 364.281399 192.7125 
L 365.259375 191.95749 
L 366.508678 190.96875 
L 367.875 189.919569 
L 368.760292 189.225 
L 370.490625 187.912401 
L 371.048306 187.48125 
L 373.10625 185.948445 
L 373.384412 185.7375 
L 375.721875 184.036287 
L 375.779167 183.99375 
L 378.232606 182.25 
L 378.3375 182.178664 
L 380.744817 180.50625 
L 380.953125 180.368652 
L 383.285833 178.7625 
L 383.56875 178.578758 
L 385.728754 177.01875 
L 386.184375 176.713336 
L 388.8 176.724856 
" style="fill:none;stroke:#0000ff;"/>
   </g>
   <g id="LineCollection_3">
    <path clip-path="url(#p3815626884)" d="M 374.50037 29.520791 
L 373.10625 29.53507 
L 370.490625 29.562881 
L 367.875 29.591781 
L 365.259375 29.621797 
L 362.64375 29.652924 
L 360.028125 29.685128 
L 357.4125 29.71835 
L 354.796875 29.752503 
L 352.18125 29.787477 
L 349.565625 29.823135 
L 346.95 29.859317 
L 344.334375 29.895844 
L 341.71875 29.932512 
L 339.103125 29.969105 
L 336.4875 30.005393 
L 333.871875 30.041136 
L 331.25625 30.076093 
L 328.640625 30.110024 
L 326.025 30.142697 
L 323.409375 30.173894 
L 320.79375 30.203416 
L 318.178125 30.231085 
L 315.5625 30.256754 
L 312.946875 30.280302 
L 310.33125 30.301644 
L 307.715625 30.320725 
L 305.1 29.073999 
L 302.484375 28.91068 
L 301.295467 28.8 
" style="fill:none;stroke:#0000ff;"/>
    <path clip-path="url(#p3815626884)" d="M 134.41992 28.8 
L 135.084375 29.0095 
L 137.7 29.624576 
L 140.315625 30.028815 
L 146.02999 30.54375 
L 143.93727 32.2875 
L 142.360727 34.03125 
L 140.315625 36.954682 
L 139.002049 39.2625 
L 137.326346 42.75 
L 135.919319 46.2375 
L 134.680865 49.725 
L 133.073799 54.95625 
L 131.680233 60.1875 
L 129.853125 68.149455 
L 128.695264 74.1375 
L 127.2375 82.881905 
L 126.096621 91.575 
L 125.001619 102.0375 
L 123.949731 112.5 
L 123.444157 115.9875 
L 122.696416 119.475 
L 122.00625 121.643154 
L 121.484574 122.9625 
L 120.572697 124.70625 
L 119.297716 126.45 
L 117.511844 128.19375 
L 116.775 128.732683 
L 114.159375 130.275287 
L 110.707967 131.68125 
L 106.3125 132.905426 
L 101.08125 133.985604 
L 93.234375 135.24688 
L 74.925 137.735013 
L 56.615625 140.103672 
L 56.135576 150.8625 
L 55.749347 164.8125 
L 55.427271 185.7375 
L 55.092187 225.84375 
L 54.853955 250.25625 
L 56.615625 251.430697 
L 122.00625 250.963 
L 210.9375 250.41555 
L 227.201146 250.25625 
L 226.897369 248.5125 
L 226.858457 245.025 
L 227.162608 239.79375 
L 227.662214 234.5625 
L 228.356051 229.33125 
L 229.246875 224.548602 
L 229.796824 222.35625 
L 230.945183 218.86875 
L 231.8625 216.797435 
L 232.664399 215.38125 
L 234.478125 212.950952 
L 235.554054 211.89375 
L 237.902941 210.15 
L 239.709375 209.174303 
L 242.325 208.127636 
L 244.940625 207.362114 
L 248.179342 206.6625 
L 252.7875 205.955035 
L 258.01875 205.386526 
L 268.48125 204.558877 
L 284.175 203.325526 
L 292.021875 202.490853 
L 299.86875 201.396333 
L 305.1 200.47213 
L 310.33125 199.360346 
L 315.848272 197.94375 
L 321.490325 196.2 
L 326.313999 194.45625 
L 331.25625 192.403218 
L 333.740632 191.26456 
L 333.740632 191.26456 
" style="fill:none;stroke:#0000ff;"/>
    <path clip-path="url(#p3815626884)" d="M 375.84039 167.449503 
L 377.847255 166.55625 
L 378.3375 166.345286 
L 380.953125 165.28579 
L 382.223254 164.8125 
L 383.56875 164.333955 
L 386.184375 163.489267 
L 387.023706 164.8125 
L 388.534905 166.55625 
L 388.8 166.804052 
" style="fill:none;stroke:#0000ff;"/>
    <path clip-path="url(#p3815626884)" d="M 187.396875 175.275 
L 184.78125 174.783615 
L 182.165625 174.016916 
L 180.910381 173.53125 
L 179.55 172.977628 
L 177.078631 171.7875 
L 176.934375 171.713365 
L 174.31875 170.141274 
L 174.174479 170.04375 
L 171.773162 168.3 
L 171.703125 168.243523 
L 169.830264 166.55625 
L 169.0875 165.808008 
L 168.188885 164.8125 
L 166.85419 163.06875 
L 166.471875 162.381874 
L 165.932381 161.325 
L 165.478258 159.58125 
L 165.659474 157.8375 
L 166.471875 156.660327 
L 167.230312 156.09375 
L 169.0875 155.432688 
L 171.703125 155.183076 
L 174.31875 155.366424 
L 176.934375 155.834744 
L 177.877983 156.09375 
L 179.55 156.604621 
L 182.165625 157.599744 
L 182.681791 157.8375 
L 184.78125 158.917657 
L 185.915375 159.58125 
L 187.396875 160.559306 
L 188.430233 161.325 
L 190.0125 162.659408 
L 190.450714 163.06875 
L 192.018633 164.8125 
L 192.628125 165.644534 
L 193.234631 166.55625 
L 194.076856 168.3 
L 194.572358 170.04375 
L 194.569839 171.7875 
L 193.760295 173.53125 
L 192.628125 174.491878 
L 190.160209 175.275 
L 190.0125 175.302806 
L 187.396875 175.275 
" style="fill:none;stroke:#0000ff;"/>
   </g>
   <g id="LineCollection_4">
    <path clip-path="url(#p3815626884)" d="M 377.940429 29.516451 
L 375.721875 29.53938 
L 373.10625 29.567346 
L 370.490625 29.596378 
L 367.875 29.626546 
L 365.259375 29.65788 
L 362.64375 29.690374 
L 360.028125 29.723992 
L 357.4125 29.758673 
L 354.796875 29.794326 
L 352.18125 29.830835 
L 349.565625 29.868058 
L 346.95 29.90583 
L 344.334375 29.94396 
L 341.71875 29.982238 
L 339.103125 30.020438 
L 336.4875 30.058319 
L 333.871875 30.095632 
L 331.25625 30.132124 
L 328.640625 30.167544 
L 326.025 30.201652 
L 323.409375 30.234219 
L 320.79375 30.265037 
L 318.178125 30.293921 
L 315.5625 30.320716 
L 312.946875 30.345299 
L 310.33125 30.367578 
L 307.715625 30.387497 
L 305.1 29.55513 
L 302.484375 29.491217 
L 299.86875 29.364288 
L 297.253125 29.110982 
L 295.577454 28.8 
" style="fill:none;stroke:#0000ff;"/>
    <path clip-path="url(#p3815626884)" d="M 137.328241 28.8 
L 137.7 28.893265 
L 140.315625 29.418799 
L 142.93125 29.7873 
L 145.546875 30.056373 
L 148.1625 30.258812 
L 150.778125 30.414627 
L 153.39375 30.536692 
L 153.569379 30.54375 
L 153.39375 30.686617 
L 151.449338 32.2875 
L 150.778125 32.97661 
L 149.782718 34.03125 
L 148.377189 35.775 
L 148.1625 36.076697 
L 147.178597 37.51875 
L 146.102763 39.2625 
L 145.546875 40.245277 
L 145.135087 41.00625 
L 144.261571 42.75 
L 143.445211 44.49375 
L 142.93125 45.662021 
L 142.689067 46.2375 
L 141.996566 47.98125 
L 141.33986 49.725 
L 140.715249 51.46875 
L 140.315625 52.639773 
L 140.128344 53.2125 
L 139.584473 54.95625 
L 139.064376 56.7 
L 138.566637 58.44375 
L 138.090143 60.1875 
L 137.7 61.679904 
L 137.636843 61.93125 
L 137.219005 63.675 
L 136.819626 65.41875 
L 136.438458 67.1625 
L 136.075404 68.90625 
L 135.730504 70.65 
L 135.403922 72.39375 
L 135.095942 74.1375 
L 135.084375 74.207933 
L 134.818505 75.88125 
L 134.560233 77.625 
L 134.321232 79.36875 
L 134.10219 81.1125 
L 133.903897 82.85625 
L 133.727239 84.6 
L 133.573213 86.34375 
L 133.442919 88.0875 
L 133.337577 89.83125 
L 133.25853 91.575 
L 133.207262 93.31875 
L 133.18541 95.0625 
L 133.194789 96.80625 
L 133.237422 98.55 
L 133.315582 100.29375 
L 133.431839 102.0375 
L 133.589134 103.78125 
L 133.790873 105.525 
L 134.041056 107.26875 
L 134.344457 109.0125 
L 134.706866 110.75625 
L 135.084375 112.302354 
L 135.137468 112.5 
L 135.660723 114.24375 
L 136.273224 115.9875 
L 136.990443 117.73125 
L 137.7 119.217722 
L 137.837769 119.475 
L 138.866441 121.21875 
L 140.093047 122.9625 
L 140.315625 123.24994 
L 141.607366 124.70625 
L 142.93125 125.985456 
L 143.484054 126.45 
L 145.546875 127.987391 
L 145.86605 128.19375 
L 148.1625 129.545479 
L 148.930626 129.9375 
L 150.778125 130.814232 
L 152.880218 131.68125 
L 153.39375 131.881717 
L 153.794074 132.026825 
" style="fill:none;stroke:#0000ff;"/>
    <path clip-path="url(#p3815626884)" d="M 199.175957 148.494485 
L 200.251109 149.11875 
L 200.475 149.255614 
L 202.980984 150.8625 
L 203.090625 150.936662 
L 205.451654 152.60625 
L 205.70625 152.796296 
L 207.705656 154.35 
L 208.321875 154.855085 
L 209.780735 156.09375 
L 210.9375 157.127212 
L 211.709236 157.8375 
L 213.516547 159.58125 
L 213.553125 159.618573 
L 215.189156 161.325 
L 216.16875 162.386794 
L 216.788359 163.06875 
L 218.312288 164.8125 
L 218.784375 165.373539 
L 219.773798 166.55625 
L 221.206723 168.3 
L 221.4 168.543177 
L 222.598305 170.04375 
L 224.001498 171.7875 
L 224.015625 171.80549 
L 225.393352 173.53125 
L 226.63125 175.034035 
L 226.83485 175.275 
L 228.317791 177.01875 
L 229.246875 178.0629 
L 229.894745 178.7625 
L 231.594887 180.50625 
L 231.8625 180.769125 
L 233.459237 182.25 
L 234.478125 183.123979 
L 235.565942 183.99375 
L 237.09375 185.120895 
L 238.003426 185.7375 
L 239.709375 186.80397 
L 240.908361 187.48125 
L 242.325 188.220018 
L 244.500583 189.225 
L 244.940625 189.413047 
L 247.55625 190.426076 
L 249.16369 190.96875 
L 250.171875 191.2863 
L 252.7875 192.020952 
L 255.403125 192.647983 
L 255.702118 192.7125 
L 258.01875 193.184448 
L 260.634375 193.641246 
L 263.25 194.028205 
L 265.865625 194.35295 
L 266.846292 194.45625 
L 268.48125 194.620874 
L 271.096875 194.836433 
L 273.7125 195.003272 
L 276.328125 195.123896 
L 278.94375 195.200018 
L 281.559375 195.23268 
L 284.175 195.222342 
L 286.790625 195.168954 
L 289.40625 195.07201 
L 292.021875 194.930605 
L 294.6375 194.743472 
L 297.253125 194.509027 
L 297.733216 194.45625 
L 299.86875 194.223451 
L 302.484375 193.885584 
L 305.1 193.493569 
L 307.715625 193.045009 
L 309.421536 192.7125 
L 310.33125 192.535705 
L 312.946875 191.960949 
L 315.5625 191.321781 
L 316.863608 190.96875 
L 318.178125 190.612301 
L 320.79375 189.830117 
L 322.645099 189.225 
L 323.409375 188.975161 
L 326.025 188.042137 
L 327.479212 187.48125 
L 328.640625 187.033321 
L 331.25625 185.948302 
L 331.729759 185.7375 
L 333.871875 184.78503 
L 335.547962 183.99375 
L 336.4875 183.551024 
L 339.103125 182.25 
L 341.71875 180.881965 
L 342.406996 180.50625 
L 344.334375 179.46017 
L 345.574242 178.7625 
L 346.95 177.993934 
L 348.645753 177.01875 
L 349.565625 176.494356 
L 351.659258 175.275 
L 352.18125 174.974097 
L 354.651079 173.53125 
L 354.796875 173.447077 
L 357.4125 171.92548 
L 357.649517 171.7875 
L 360.028125 170.424747 
L 360.700423 170.04375 
L 362.64375 168.961367 
L 363.857596 168.3 
L 365.259375 167.55022 
L 367.183595 166.55625 
L 367.875 166.205976 
L 370.490625 164.939922 
L 370.766611 164.8125 
L 373.10625 163.7573 
L 374.763922 163.06875 
L 375.721875 162.680489 
L 378.3375 161.713707 
L 379.520812 161.325 
L 380.953125 160.869331 
L 383.56875 160.164329 
L 386.184375 159.637202 
L 386.944622 161.325 
L 387.980313 163.06875 
L 388.8 164.150674 
" style="fill:none;stroke:#0000ff;"/>
    <path clip-path="url(#p3815626884)" d="M 130.51214 250.874108 
L 205.70625 250.394272 
L 220.014377 250.25625 
L 219.318725 248.5125 
L 218.536304 245.025 
L 215.978069 231.075 
L 215.113968 227.5875 
L 214.058741 224.1 
L 212.760582 220.6125 
L 211.120833 217.125 
L 210.151502 215.38125 
L 208.321875 212.620791 
L 207.785957 211.89375 
L 205.70625 209.434348 
L 204.738053 208.40625 
L 202.883971 206.6625 
L 200.475 204.655698 
L 197.859375 202.717492 
L 193.256473 199.6875 
L 184.346317 194.45625 
L 175.404149 189.225 
L 171.703125 186.949199 
L 166.471875 183.509256 
L 161.240625 179.753842 
L 156.009375 175.617823 
L 151.62372 171.7875 
L 147.913566 168.3 
L 142.778556 163.06875 
L 134.606047 154.35 
L 130.993834 150.8625 
L 128.925072 149.11875 
L 126.543512 147.375 
L 123.653759 145.63125 
L 122.00625 144.799129 
L 119.390625 143.712481 
L 116.775 142.831067 
L 114.159375 142.142116 
L 111.54375 141.578406 
L 106.3125 140.790567 
L 101.08125 140.320979 
L 95.85 140.07906 
L 90.61875 140.019445 
L 82.771875 140.199733 
L 74.925 140.634359 
L 64.4625 141.488431 
L 56.615625 142.187617 
L 56.166525 152.60625 
L 55.788746 166.55625 
L 55.469938 187.48125 
L 55.099071 231.075 
L 54.89145 250.25625 
L 56.615625 251.4057 
L 82.113153 251.182905 
L 82.113153 251.182905 
" style="fill:none;stroke:#0000ff;"/>
   </g>
   <g id="LineCollection_5">
    <path clip-path="url(#p3815626884)" d="M 388.8 54.059566 
L 387.353469 53.2125 
L 387.385518 51.46875 
L 387.417368 49.725 
L 387.449039 47.98125 
L 387.480566 46.2375 
L 387.512007 44.49375 
L 387.543445 42.75 
L 387.575 41.00625 
L 387.606844 39.2625 
L 387.639232 37.51875 
L 387.672564 35.775 
L 387.707516 34.03125 
L 387.745406 32.2875 
L 387.789573 30.54375 
L 386.184375 29.473618 
L 383.56875 29.502649 
L 380.953125 29.530488 
L 378.3375 29.558538 
L 375.721875 29.587324 
L 373.10625 29.617103 
L 370.490625 29.648018 
L 367.875 29.680143 
L 365.259375 29.713508 
L 362.64375 29.748109 
L 360.028125 29.783907 
L 357.4125 29.820837 
L 354.796875 29.858801 
L 352.18125 29.897678 
L 349.565625 29.937315 
L 346.95 29.977536 
L 344.334375 30.018138 
L 341.71875 30.058899 
L 339.103125 30.099576 
L 336.4875 30.139913 
L 333.871875 30.179645 
L 331.25625 30.218503 
L 328.640625 30.256221 
L 326.025 30.29254 
L 323.409375 30.327219 
L 320.79375 30.360035 
L 318.178125 30.390792 
L 315.5625 30.419325 
L 312.946875 30.445502 
L 310.33125 30.469225 
L 307.715625 30.490436 
L 305.352471 30.315553 
" style="fill:none;stroke:#0000ff;"/>
    <path clip-path="url(#p3815626884)" d="M 272.232185 30.433801 
L 273.7125 30.405839 
L 276.328125 30.345243 
L 278.94375 30.26655 
L 281.559375 30.154172 
L 284.175 29.963611 
L 286.790625 29.495162 
L 288.0656 28.8 
" style="fill:none;stroke:#0000ff;"/>
    <path clip-path="url(#p3815626884)" d="M 141.891619 28.8 
L 142.93125 28.981742 
L 145.546875 29.352391 
L 148.1625 29.633849 
L 150.778125 29.852699 
L 153.39375 30.026066 
L 156.009375 30.165459 
L 158.625 30.278886 
L 161.240625 30.372081 
L 163.85625 30.44925 
L 166.471875 30.513545 
L 167.903763 30.54375 
L 166.471875 31.693424 
L 165.741476 32.2875 
L 163.85625 33.991682 
L 163.814133 34.03125 
L 162.156191 35.775 
L 161.240625 36.825417 
L 160.667144 37.51875 
L 159.338385 39.2625 
L 158.625 40.268932 
L 158.130154 41.00625 
L 157.036832 42.75 
L 156.009375 44.49375 
L 155.092945 46.2375 
L 154.227025 47.98125 
L 153.407555 49.725 
L 153.39375 49.756043 
L 152.670156 51.46875 
L 151.971784 53.2125 
L 151.309856 54.95625 
L 150.778125 56.435678 
L 150.687563 56.7 
L 150.123266 58.44375 
L 149.590408 60.1875 
L 149.088628 61.93125 
L 148.617829 63.675 
L 148.178167 65.41875 
L 148.1625 65.486008 
L 147.788071 67.1625 
L 147.429228 68.90625 
L 147.101738 70.65 
L 146.806635 72.39375 
L 146.545176 74.1375 
L 146.318841 75.88125 
L 146.129343 77.625 
L 145.978648 79.36875 
L 145.868982 81.1125 
L 145.80286 82.85625 
L 145.78311 84.6 
L 145.812903 86.34375 
L 145.895796 88.0875 
L 146.03578 89.83125 
L 146.23734 91.575 
L 146.505529 93.31875 
L 146.846064 95.0625 
L 147.26544 96.80625 
L 147.771078 98.55 
L 148.1625 99.69848 
L 148.38031 100.29375 
L 149.114443 102.0375 
L 149.968377 103.78125 
L 150.778125 105.220659 
L 150.962753 105.525 
L 152.142999 107.26875 
L 153.39375 108.886443 
L 153.499067 109.0125 
L 155.100114 110.75625 
L 156.009375 111.645267 
L 156.95488 112.5 
L 158.625 113.873743 
L 159.110656 114.24375 
L 161.240625 115.741154 
L 161.617808 115.9875 
L 163.85625 117.353241 
L 164.520207 117.73125 
L 166.471875 118.780753 
L 167.847215 119.475 
L 169.0875 120.072306 
L 171.604381 121.21875 
L 171.703125 121.26206 
L 174.31875 122.372475 
L 175.763108 122.9625 
L 176.934375 123.428915 
L 179.55 124.445833 
L 180.228787 124.70625 
L 182.165625 125.438508 
L 184.78125 126.41782 
L 184.866767 126.45 
L 187.396875 127.39742 
L 189.508321 128.19375 
L 190.0125 128.384212 
L 192.628125 129.39094 
L 194.017047 129.9375 
L 195.24375 130.425033 
L 197.859375 131.494734 
L 198.301394 131.68125 
L 200.475 132.614403 
L 202.29513 133.425 
L 203.090625 133.787236 
L 205.70625 135.025475 
L 205.997533 135.16875 
L 208.321875 136.344207 
L 209.400436 136.9125 
L 210.9375 137.748149 
L 212.541816 138.65625 
L 213.553125 139.248603 
L 215.444703 140.4 
L 216.16875 140.857001 
L 218.13604 142.14375 
L 218.784375 142.583974 
L 220.643697 143.8875 
L 221.4 144.438008 
L 222.994572 145.63125 
L 224.015625 146.42376 
L 225.213559 147.375 
L 226.63125 148.540116 
L 227.090478 148.924181 
" style="fill:none;stroke:#0000ff;"/>
    <path clip-path="url(#p3815626884)" d="M 265.454302 177.849695 
L 265.865625 178.012634 
L 268.000273 178.7625 
L 268.48125 178.92472 
L 271.096875 179.71714 
L 273.7125 180.404505 
L 274.153442 180.50625 
L 276.328125 180.989596 
L 278.94375 181.482921 
L 281.559375 181.890852 
L 284.175 182.217659 
L 284.50875 182.25 
L 286.790625 182.463982 
L 289.40625 182.635224 
L 292.021875 182.733589 
L 294.6375 182.760255 
L 297.253125 182.715847 
L 299.86875 182.600534 
L 302.484375 182.414128 
L 304.140732 182.25 
L 305.1 182.154754 
L 307.715625 181.819549 
L 310.33125 181.410281 
L 312.946875 180.926362 
L 314.907281 180.50625 
L 315.5625 180.365072 
L 318.178125 179.720336 
L 320.79375 178.999824 
L 321.56801 178.7625 
L 323.409375 178.19467 
L 326.025 177.311658 
L 326.821279 177.01875 
L 328.640625 176.345698 
L 331.25625 175.307396 
L 331.33219 175.275 
L 333.871875 174.186829 
L 335.320062 173.53125 
L 336.4875 173.000639 
L 339.033946 171.7875 
L 339.103125 171.754427 
L 341.71875 170.445871 
L 342.496632 170.04375 
L 344.334375 169.09308 
L 345.831701 168.3 
L 346.95 167.707746 
L 349.092968 166.55625 
L 349.565625 166.302498 
L 352.18125 164.889267 
L 352.322935 164.8125 
L 354.796875 163.47752 
L 355.564876 163.06875 
L 357.4125 162.089812 
L 358.894646 161.325 
L 360.028125 160.742891 
L 362.385198 159.58125 
L 362.64375 159.454424 
L 365.259375 158.228113 
L 366.151629 157.8375 
L 367.875 157.088108 
L 370.403204 156.09375 
L 370.490625 156.059574 
L 373.10625 155.131024 
L 375.721875 154.352645 
L 375.732444 154.35 
L 378.3375 153.705998 
L 380.953125 153.242732 
L 383.56875 152.995165 
L 386.184375 153.052404 
L 386.514504 154.35 
L 387.052927 156.09375 
L 387.72594 157.8375 
L 388.577182 159.58125 
L 388.8 159.972152 
" style="fill:none;stroke:#0000ff;"/>
    <path clip-path="url(#p3815626884)" d="M 114.509956 156.0502 
L 111.54375 154.166666 
L 108.756225 152.60625 
L 105.125994 150.8625 
L 101.08125 149.275745 
L 98.465625 148.422851 
L 93.234375 147.077113 
L 88.003125 146.129434 
L 82.771875 145.507561 
L 77.540625 145.151076 
L 72.309375 145.012134 
L 64.4625 145.113173 
L 56.615625 145.407218 
L 56.186039 156.09375 
L 55.798502 171.7875 
L 55.487839 194.45625 
L 54.949255 250.25625 
L 56.615625 251.367163 
L 119.390625 250.861949 
L 209.186098 250.25625 
L 207.958202 248.5125 
L 206.179289 245.025 
L 202.899416 238.05 
L 200.475 233.48262 
L 199.044616 231.075 
L 196.729964 227.5875 
L 194.086297 224.1 
L 191.069031 220.6125 
L 187.396875 216.89061 
L 183.833173 213.6375 
L 179.55 210.07572 
L 172.898447 204.91875 
L 158.625 194.208144 
L 150.83031 187.982471 
L 150.83031 187.982471 
" style="fill:none;stroke:#0000ff;"/>
   </g>
   <g id="LineCollection_6">
    <path clip-path="url(#p3815626884)" d="M 388.8 54.112633 
L 387.262847 53.2125 
L 387.296904 51.46875 
L 387.33075 49.725 
L 387.364404 47.98125 
L 387.397907 46.2375 
L 387.431317 44.49375 
L 387.464725 42.75 
L 387.498256 41.00625 
L 387.532095 39.2625 
L 387.566512 37.51875 
L 387.601932 35.775 
L 387.639074 34.03125 
L 387.679339 32.2875 
L 387.726272 30.54375 
L 386.184375 29.515819 
L 383.56875 29.546668 
L 380.953125 29.576251 
L 378.3375 29.606059 
L 375.721875 29.636648 
L 373.10625 29.668293 
L 370.490625 29.701144 
L 367.875 29.735282 
L 365.259375 29.770738 
L 362.64375 29.807506 
L 360.028125 29.845547 
L 357.4125 29.88479 
L 354.796875 29.925133 
L 352.18125 29.966445 
L 349.565625 30.008565 
L 346.95 30.051306 
L 344.334375 30.094452 
L 341.71875 30.137766 
L 339.103125 30.180992 
L 336.4875 30.223856 
L 333.871875 30.266077 
L 331.25625 30.307369 
L 328.640625 30.34745 
L 327.394017 30.365844 
" style="fill:none;stroke:#0000ff;"/>
    <path clip-path="url(#p3815626884)" d="M 289.495887 47.348909 
L 289.40625 47.377581 
L 286.887663 47.98125 
L 286.790625 48.004918 
L 284.175 48.459286 
L 281.559375 48.744893 
L 278.94375 48.877644 
L 276.328125 48.869793 
L 273.7125 48.730934 
L 271.096875 48.468762 
L 268.48125 48.089655 
L 267.897127 47.98125 
L 265.865625 47.606833 
L 263.25 47.021669 
L 260.634375 46.336861 
L 260.295713 46.2375 
L 258.01875 45.56947 
L 255.403125 44.716069 
L 254.771778 44.49375 
L 252.7875 43.791568 
L 250.171875 42.796756 
L 250.054209 42.75 
L 247.55625 41.746922 
L 245.790569 41.00625 
L 244.940625 40.643399 
L 242.325 39.497759 
L 241.793615 39.2625 
L 239.709375 38.312101 
L 237.976067 37.51875 
L 237.09375 37.093396 
L 234.478125 35.847674 
L 234.320521 35.775 
L 231.8625 34.518596 
L 230.864942 34.03125 
L 229.246875 32.997107 
L 228.052778 32.2875 
L 227.82578 30.54375 
L 229.246875 30.537075 
L 231.8625 30.522979 
L 234.478125 30.506842 
L 237.09375 30.488507 
L 239.709375 30.467776 
L 242.325 30.444401 
L 244.940625 30.418073 
L 247.55625 30.388411 
L 250.171875 30.354933 
L 252.7875 30.317026 
L 255.403125 30.273902 
L 258.01875 30.224526 
L 260.634375 30.167507 
L 263.25 30.100928 
L 265.865625 30.022057 
L 268.48125 29.926855 
L 271.096875 29.809062 
L 273.7125 29.658388 
L 276.328125 29.456603 
L 278.94375 29.167964 
L 281.153985 28.8 
" style="fill:none;stroke:#0000ff;"/>
    <path clip-path="url(#p3815626884)" d="M 146.708722 28.8 
L 148.1625 28.990897 
L 150.778125 29.274598 
L 153.39375 29.500743 
L 156.009375 29.68379 
L 158.625 29.833804 
L 161.240625 29.958 
L 163.85625 30.061676 
L 166.471875 30.1488 
L 169.0875 30.222403 
L 171.703125 30.284832 
L 174.31875 30.337928 
L 176.934375 30.383156 
L 179.55 30.421692 
L 182.165625 30.454486 
L 184.78125 30.482316 
L 187.396875 30.505818 
L 190.0125 30.525518 
L 192.628125 30.541852 
L 192.994273 30.54375 
L 192.628125 30.79899 
L 190.601001 32.2875 
L 190.0125 32.578316 
L 187.396875 34.009783 
L 187.361223 34.03125 
L 184.78125 35.53798 
L 184.413344 35.775 
L 182.165625 37.256285 
L 181.804586 37.51875 
L 179.55 39.225059 
L 179.504979 39.2625 
L 177.50768 41.00625 
L 176.934375 41.532005 
L 175.721713 42.75 
L 174.554861 43.984551 
" style="fill:none;stroke:#0000ff;"/>
    <path clip-path="url(#p3815626884)" d="M 161.477309 84.285953 
L 161.834241 86.34375 
L 162.769237 89.83125 
L 163.85625 92.628964 
L 164.173606 93.31875 
L 165.104284 95.0625 
L 166.471875 97.22125 
L 167.464363 98.55 
L 169.0875 100.455098 
L 171.703125 102.976027 
L 174.31875 105.078402 
L 176.934375 106.883762 
L 179.55 108.474887 
L 182.165625 109.909637 
L 184.78125 111.229357 
L 190.0125 113.61837 
L 195.665305 115.9875 
L 208.511746 121.21875 
L 213.553125 123.424112 
L 219.824815 126.45 
L 224.015625 128.69924 
L 229.246875 131.833846 
L 234.478125 135.376111 
L 239.709375 139.335522 
L 245.236079 143.8875 
L 255.582225 152.60625 
L 260.634375 156.454677 
L 265.336196 159.58125 
L 268.48125 161.412821 
L 271.74066 163.06875 
L 275.760391 164.8125 
L 278.94375 165.968266 
L 281.559375 166.775688 
L 286.790625 168.029402 
L 289.40625 168.490053 
L 294.6375 169.09424 
L 299.86875 169.305023 
L 305.1 169.133825 
L 310.33125 168.589918 
L 315.5625 167.667488 
L 320.79375 166.378583 
L 326.025 164.722023 
L 331.25625 162.714085 
L 336.4875 160.395874 
L 341.71875 157.8375 
L 360.028125 148.331747 
L 365.259375 146.050755 
L 367.875 145.085446 
L 370.490625 144.276702 
L 373.10625 143.648973 
L 375.721875 143.220625 
L 378.3375 143.04347 
L 380.953125 143.158442 
L 383.56875 143.647978 
L 384.104583 143.8875 
L 386.184375 144.676277 
L 386.584284 147.375 
L 387.304582 150.8625 
L 388.360551 154.35 
L 388.8 155.463357 
L 388.8 155.463357 
" style="fill:none;stroke:#0000ff;"/>
    <path clip-path="url(#p3815626884)" d="M 156.570499 206.365071 
L 150.748813 201.43125 
L 142.819768 194.45625 
L 135.084375 187.272929 
L 116.775 169.660144 
L 113.249352 166.55625 
L 108.894909 163.06875 
L 106.3125 161.193686 
L 103.696875 159.455692 
L 101.004603 157.8375 
L 97.724273 156.09375 
L 93.86441 154.35 
L 90.61875 153.118416 
L 88.003125 152.269141 
L 82.771875 150.912623 
L 80.15625 150.387309 
L 74.925 149.599423 
L 69.69375 149.109394 
L 64.4625 148.858866 
L 56.615625 148.748993 
L 56.210387 159.58125 
L 55.845932 175.275 
L 55.526096 199.6875 
L 55.008724 250.25625 
L 56.615625 251.327517 
L 116.775 250.806596 
L 198.238542 250.25625 
L 196.527108 248.5125 
L 193.862354 245.025 
L 187.798768 236.644457 
L 187.798768 236.644457 
" style="fill:none;stroke:#0000ff;"/>
   </g>
   <g id="LineCollection_7">
    <path clip-path="url(#p3815626884)" d="M 388.8 54.156026 
L 387.188744 53.2125 
L 387.67451 30.54375 
L 386.184375 29.550327 
L 341.71875 30.202257 
L 320.323236 30.54375 
L 318.953149 32.2875 
L 317.016368 35.775 
L 313.487753 42.75 
L 312.511837 44.49375 
L 310.33125 47.981306 
L 307.65624 51.46875 
L 305.1 54.172637 
L 302.067954 56.7 
L 299.482188 58.44375 
L 296.204552 60.1875 
L 294.6375 60.907312 
L 291.814446 61.93125 
L 289.40625 62.645391 
L 286.790625 63.23938 
L 284.175 63.675 
L 281.559375 63.979785 
L 278.94375 64.153337 
L 276.328125 64.205631 
L 271.096875 63.973316 
L 265.865625 63.33158 
L 260.634375 62.313728 
L 255.403125 60.961695 
L 250.171875 59.323966 
L 242.325 56.488993 
L 228.89755 51.46875 
L 223.378461 49.725 
L 218.784375 48.565545 
L 215.597917 47.98125 
L 213.553125 47.698896 
L 210.9375 47.486805 
L 208.321875 47.439977 
L 205.70625 47.575171 
L 202.73695 47.98125 
L 200.475 48.473273 
L 196.746492 49.725 
L 195.24375 50.364081 
L 192.628125 51.763791 
L 190.0125 53.548736 
L 187.396875 55.812747 
L 184.990237 58.44375 
L 183.69963 60.1875 
L 182.165625 62.580565 
L 180.751138 65.41875 
L 179.55 68.548672 
L 178.981786 70.65 
L 178.39786 74.1375 
L 178.275419 75.88125 
L 178.271782 77.625 
L 178.391857 79.36875 
L 178.641011 81.1125 
L 179.02507 82.85625 
L 179.55033 84.6 
L 180.271272 86.34375 
L 181.155292 88.0875 
L 182.212374 89.83125 
L 183.526966 91.575 
L 185.048673 93.31875 
L 187.396875 95.529141 
L 190.0125 97.582074 
L 192.628125 99.345158 
L 195.24375 100.903286 
L 197.859375 102.315401 
L 203.090625 104.818523 
L 206.602119 106.359539 
L 206.602119 106.359539 
" style="fill:none;stroke:#0000ff;"/>
    <path clip-path="url(#p3815626884)" d="M 245.372566 126.034383 
L 245.9438 126.45 
L 247.55625 127.647104 
L 248.27428 128.19375 
L 250.171875 129.665758 
L 250.515874 129.9375 
L 252.69119 131.68125 
L 252.7875 131.75926 
L 254.82871 133.425 
L 255.403125 133.899354 
L 256.940535 135.16875 
L 258.01875 136.065314 
L 259.045869 136.9125 
L 260.634375 138.224806 
L 261.16525 138.65625 
L 263.25 140.343214 
L 263.321956 140.4 
L 265.559569 142.14375 
L 265.865625 142.379289 
L 267.899935 143.8875 
L 268.48125 144.31084 
L 270.381842 145.63125 
L 271.096875 146.116557 
L 273.061149 147.375 
L 273.7125 147.780713 
L 276.015039 149.11875 
L 276.328125 149.294913 
L 278.94375 150.649955 
L 279.3946 150.8625 
L 281.559375 151.844935 
L 283.436517 152.60625 
L 284.175 152.893978 
L 286.790625 153.787193 
L 288.719322 154.35 
L 289.40625 154.542026 
L 292.021875 155.147807 
L 294.6375 155.624765 
L 297.253125 155.97323 
L 298.67744 156.09375 
L 299.86875 156.190006 
L 302.484375 156.280153 
L 305.1 156.249953 
L 307.715625 156.101565 
L 307.792459 156.09375 
L 310.33125 155.826947 
L 312.946875 155.435066 
L 315.5625 154.930641 
L 318.04462 154.35 
L 318.178125 154.317698 
L 320.79375 153.573456 
L 323.409375 152.732269 
L 323.760258 152.60625 
L 326.025 151.765547 
L 328.264491 150.8625 
L 328.640625 150.705568 
L 331.25625 149.530392 
L 332.121397 149.11875 
L 333.871875 148.257569 
L 335.590221 147.375 
L 336.4875 146.898132 
L 338.797464 145.63125 
L 339.103125 145.457666 
L 341.71875 143.940884 
L 341.809728 143.8875 
L 344.334375 142.354799 
L 344.68289 142.14375 
L 346.95 140.722069 
L 347.471317 140.4 
L 349.565625 139.058876 
L 350.212506 138.65625 
L 352.18125 137.38484 
L 352.945303 136.9125 
L 354.796875 135.723629 
L 355.715897 135.16875 
L 357.4125 134.103789 
L 358.588073 133.425 
L 360.028125 132.559849 
L 361.664262 131.68125 
L 362.64375 131.133707 
L 365.136895 129.9375 
L 365.259375 129.876322 
L 367.875 128.810907 
L 369.985648 128.19375 
L 370.490625 128.039431 
L 373.10625 127.596756 
L 375.721875 127.59513 
L 378.3375 128.148911 
L 378.426322 128.19375 
L 380.953125 129.345015 
L 381.645673 129.9375 
L 383.56875 131.38318 
L 383.775887 131.68125 
L 385.172082 133.425 
L 386.184375 134.49629 
L 386.224573 135.16875 
L 386.345754 136.9125 
L 386.489176 138.65625 
L 386.658919 140.4 
L 386.859862 142.14375 
L 387.097904 143.8875 
L 387.380268 145.63125 
L 387.715912 147.375 
L 388.11609 149.11875 
L 388.595148 150.8625 
L 388.8 151.512327 
" style="fill:none;stroke:#0000ff;"/>
    <path clip-path="url(#p3815626884)" d="M 150.761931 28.8 
L 150.778125 28.801876 
L 153.39375 29.071178 
L 156.009375 29.289921 
L 158.625 29.469853 
L 161.240625 29.6194 
L 163.85625 29.74475 
L 166.471875 29.850543 
L 168.216838 29.910437 
" style="fill:none;stroke:#0000ff;"/>
    <path clip-path="url(#p3815626884)" d="M 211.812278 30.396931 
L 213.553125 30.395711 
L 216.16875 30.391599 
L 218.784375 30.38522 
L 221.4 30.376561 
L 224.015625 30.365573 
L 226.63125 30.352178 
L 229.246875 30.336261 
L 231.8625 30.31767 
L 234.478125 30.296205 
L 237.09375 30.271616 
L 239.709375 30.243592 
L 242.325 30.211743 
L 244.940625 30.175584 
L 247.55625 30.134509 
L 250.171875 30.087753 
L 252.7875 30.034336 
L 255.403125 29.97299 
L 258.01875 29.902038 
L 260.634375 29.819218 
L 263.25 29.721394 
L 265.865625 29.60408 
L 268.48125 29.46062 
L 271.096875 29.280667 
L 273.7125 29.047185 
L 275.824652 28.8 
" style="fill:none;stroke:#0000ff;"/>
    <path clip-path="url(#p3815626884)" d="M 57.748535 151.574062 
L 56.615625 151.520272 
L 56.213196 163.06875 
L 55.844994 180.50625 
L 55.512505 208.40625 
L 55.057353 250.25625 
L 56.615625 251.295098 
L 116.775 250.749064 
L 189.334352 250.25625 
L 187.265252 248.5125 
L 183.970863 245.025 
L 174.31875 234.158579 
L 169.651436 229.33125 
L 163.85625 223.718236 
L 156.709709 217.125 
L 145.214495 206.6625 
L 137.7 199.57679 
L 129.017826 190.96875 
L 111.54375 173.434997 
L 107.803025 170.04375 
L 103.567691 166.55625 
L 99.083824 163.308236 
L 99.083824 163.308236 
" style="fill:none;stroke:#0000ff;"/>
   </g>
   <g id="LineCollection_8">
    <path clip-path="url(#p3815626884)" d="M 388.8 54.190771 
L 387.12941 53.2125 
L 387.633064 30.54375 
L 386.184375 29.577957 
L 341.71875 30.253895 
L 324.70223 30.54375 
L 323.745853 32.2875 
L 322.522029 35.775 
L 321.128664 41.00625 
L 319.730438 46.2375 
L 318.178125 51.519724 
L 316.247962 56.7 
L 315.507462 58.44375 
L 313.708717 61.93125 
L 312.671569 63.675 
L 310.120032 67.1625 
L 307.715625 69.738033 
L 305.1 71.951244 
L 301.776093 74.1375 
L 299.86875 75.203456 
L 297.253125 76.419402 
L 294.052622 77.625 
L 292.021875 78.30122 
L 286.790625 79.633905 
L 281.559375 80.566953 
L 276.328125 81.142502 
L 271.096875 81.420848 
L 265.865625 81.373497 
L 260.634375 80.986748 
L 255.403125 80.260074 
L 250.171875 79.134096 
L 244.940625 77.666231 
L 237.09375 75.070804 
L 231.8625 73.282847 
L 229.120192 72.39375 
L 224.015625 71.076182 
L 221.4 70.580651 
L 218.784375 70.305069 
L 216.16875 70.257313 
L 212.90158 70.65 
L 210.9375 71.206345 
L 208.321875 72.523314 
L 206.622762 74.1375 
L 205.508318 75.88125 
L 205.039349 77.625 
L 204.992593 79.36875 
L 205.332099 81.1125 
L 206.078805 82.85625 
L 207.248755 84.6 
L 208.795599 86.34375 
L 210.9375 88.192464 
L 213.553125 89.981649 
L 216.313254 91.575 
L 221.4 94.021489 
L 227.774522 96.80625 
L 231.8625 98.589139 
L 237.09375 101.022702 
L 242.325 103.877093 
L 245.007377 105.525 
L 247.626677 107.26875 
L 252.7875 111.102363 
L 257.432719 114.990861 
L 257.432719 114.990861 
" style="fill:none;stroke:#0000ff;"/>
    <path clip-path="url(#p3815626884)" d="M 292.517448 140.241371 
L 293.047368 140.4 
L 294.6375 140.849658 
L 297.253125 141.423514 
L 299.86875 141.826995 
L 302.484375 142.056746 
L 305.1 142.111667 
L 307.715625 141.992935 
L 310.33125 141.703991 
L 312.946875 141.250496 
L 315.5625 140.640265 
L 316.386865 140.4 
L 318.178125 139.848176 
L 320.79375 138.89624 
L 321.368689 138.65625 
L 323.409375 137.757159 
L 325.134394 136.9125 
L 326.025 136.452372 
L 328.305445 135.16875 
L 328.640625 134.969926 
L 331.071517 133.425 
L 331.25625 133.301558 
L 333.552856 131.68125 
L 333.871875 131.445449 
L 335.829872 129.9375 
L 336.4875 129.409593 
L 337.95922 128.19375 
L 339.103125 127.21545 
L 339.98323 126.45 
L 341.71875 124.901061 
L 341.935948 124.70625 
L 343.83785 122.9625 
L 344.334375 122.503709 
L 345.73761 121.21875 
L 346.95 120.119839 
L 347.677547 119.475 
L 349.565625 117.845087 
L 349.702498 117.73125 
L 351.879667 115.9875 
L 352.18125 115.75922 
L 354.30612 114.24375 
L 354.796875 113.919016 
L 357.124389 112.5 
L 357.4125 112.339308 
L 360.028125 111.021047 
L 360.627287 110.75625 
L 362.64375 109.949135 
L 365.259375 109.080195 
L 365.51255 109.0125 
L 367.875 108.444016 
L 370.490625 108.00189 
L 373.10625 107.769642 
L 375.721875 107.788732 
L 378.3375 108.139116 
L 380.953125 108.983515 
L 380.998646 109.0125 
L 383.379002 110.75625 
L 383.56875 110.916331 
L 384.472348 112.5 
L 385.325748 114.24375 
L 386.075329 115.9875 
L 386.184375 116.259351 
L 386.215656 117.73125 
L 386.253116 119.475 
L 386.292519 121.21875 
L 386.335436 122.9625 
L 386.38351 124.70625 
L 386.438476 126.45 
L 386.502196 128.19375 
L 386.576698 129.9375 
L 386.664219 131.68125 
L 386.767271 133.425 
L 386.888707 135.16875 
L 387.031814 136.9125 
L 387.20043 138.65625 
L 387.399093 140.4 
L 387.633229 142.14375 
L 387.909405 143.8875 
L 388.23567 145.63125 
L 388.622004 147.375 
L 388.8 148.077479 
" style="fill:none;stroke:#0000ff;"/>
    <path clip-path="url(#p3815626884)" d="M 180.406714 30.0133 
L 182.165625 30.045381 
L 184.78125 30.086263 
L 187.396875 30.121153 
L 190.0125 30.150736 
L 192.628125 30.175578 
L 195.24375 30.196146 
L 197.859375 30.212825 
L 200.475 30.225931 
L 203.090625 30.23572 
L 205.70625 30.242396 
L 208.321875 30.246115 
L 210.9375 30.246994 
L 213.553125 30.24511 
L 216.16875 30.240503 
L 218.784375 30.233177 
L 221.4 30.223101 
L 224.015625 30.210204 
L 226.63125 30.194378 
L 229.246875 30.17547 
L 231.8625 30.153279 
L 234.478125 30.127548 
L 237.09375 30.097952 
L 239.709375 30.064088 
L 242.325 30.025454 
L 244.940625 29.981423 
L 247.55625 29.93121 
L 250.171875 29.873822 
L 252.7875 29.807986 
L 255.403125 29.73205 
L 258.01875 29.643823 
L 260.634375 29.540344 
L 263.25 29.417501 
L 265.865625 29.269406 
L 268.48125 29.087305 
L 271.096875 28.857582 
L 271.661028 28.8 
" style="fill:none;stroke:#0000ff;"/>
    <path clip-path="url(#p3815626884)" d="M 120.265032 250.680005 
L 182.18922 250.25625 
L 182.165625 250.237965 
L 179.55 248.226099 
L 176.131162 245.025 
L 157.057226 225.84375 
L 140.315625 209.797525 
L 131.995191 201.43125 
L 123.699889 192.7125 
L 110.460496 178.7625 
L 105.02303 173.53125 
L 101.01189 170.04375 
L 96.507886 166.55625 
L 93.234375 164.338503 
L 90.61875 162.751295 
L 88.000443 161.325 
L 84.308515 159.58125 
L 80.15625 157.959193 
L 77.540625 157.110333 
L 72.309375 155.76098 
L 67.078125 154.81755 
L 61.846875 154.195736 
L 56.615625 153.772626 
L 56.199767 166.55625 
L 55.8323 185.7375 
L 55.46788 218.86875 
L 55.096289 250.25625 
L 56.615625 251.269141 
L 76.666662 251.052506 
L 76.666662 251.052506 
" style="fill:none;stroke:#0000ff;"/>
   </g>
   <g id="LineCollection_9">
    <path clip-path="url(#p3815626884)" d="M 388.8 54.223948 
L 387.072755 53.2125 
L 387.111024 51.46875 
L 387.149054 49.725 
L 387.186871 47.98125 
L 387.224516 46.2375 
L 387.262059 44.49375 
L 387.299598 42.75 
L 387.337276 41.00625 
L 387.375299 39.2625 
L 387.413973 37.51875 
L 387.453773 35.775 
L 387.495508 34.03125 
L 387.540752 32.2875 
L 387.593489 30.54375 
L 386.184375 29.604341 
L 383.56875 29.639005 
L 380.953125 29.672246 
L 378.3375 29.70574 
L 375.721875 29.740112 
L 373.10625 29.77567 
L 370.490625 29.812584 
L 367.875 29.850943 
L 365.259375 29.890784 
L 362.64375 29.932099 
L 360.028125 29.974844 
L 357.4125 30.01894 
L 354.796875 30.064273 
L 352.18125 30.110694 
L 349.565625 30.158023 
L 346.95 30.206049 
L 344.334375 30.254531 
L 341.71875 30.303201 
L 339.103125 30.351772 
L 336.4875 30.399937 
L 333.871875 30.44738 
L 331.25625 30.493778 
L 328.640625 30.538816 
L 328.336452 30.54375 
L 327.632857 32.2875 
L 327.22522 34.03125 
L 326.933233 35.775 
L 326.702454 37.51875 
L 326.509236 39.2625 
L 326.34121 41.00625 
L 326.191119 42.75 
L 326.054352 44.49375 
L 326.025 44.913649 
L 325.919933 46.2375 
L 325.792065 47.98125 
L 325.671429 49.725 
L 325.556748 51.46875 
L 325.447069 53.2125 
L 325.341677 54.95625 
L 325.240048 56.7 
L 325.141811 58.44375 
L 325.046728 60.1875 
L 324.954692 61.93125 
L 324.865722 63.675 
L 324.779976 65.41875 
L 324.697773 67.1625 
L 324.61963 68.90625 
L 324.546317 70.65 
L 324.478935 72.39375 
L 324.419036 74.1375 
L 324.368803 75.88125 
L 324.33132 77.625 
L 324.310986 79.36875 
L 324.314184 81.1125 
L 324.350374 82.85625 
L 324.433981 84.6 
L 324.587804 86.34375 
L 324.849621 88.0875 
L 325.286043 89.83125 
L 326.025 91.575 
L 327.383304 93.31875 
L 328.640625 94.254631 
L 330.44566 95.0625 
L 331.25625 95.322146 
L 333.871875 95.855464 
L 336.4875 96.137445 
L 339.103125 96.284939 
L 341.71875 96.356266 
L 344.334375 96.383805 
L 346.95 96.387069 
L 349.565625 96.378673 
L 352.18125 96.367342 
L 354.796875 96.359568 
L 357.4125 96.360601 
L 360.028125 96.375112 
L 362.64375 96.407707 
L 365.259375 96.463417 
L 367.875 96.548263 
L 370.490625 96.67007 
L 372.569129 96.80625 
L 373.10625 96.842658 
L 375.721875 97.097842 
L 378.3375 97.455112 
L 380.953125 97.971313 
L 382.837512 98.55 
L 383.56875 98.796659 
L 385.937303 100.29375 
L 386.184375 100.473198 
L 386.22216 101.173488 
" style="fill:none;stroke:#0000ff;"/>
    <path clip-path="url(#p3815626884)" d="M 157.418278 28.8 
L 158.625 28.900181 
L 161.240625 29.089407 
L 163.85625 29.248682 
L 166.471875 29.383697 
L 169.0875 29.498795 
L 171.703125 29.597349 
L 174.31875 29.682008 
L 176.062289 29.73058 
" style="fill:none;stroke:#0000ff;"/>
    <path clip-path="url(#p3815626884)" d="M 219.659263 30.084176 
L 221.4 30.076569 
L 224.015625 30.061849 
L 226.63125 30.043702 
L 229.246875 30.021938 
L 231.8625 29.99631 
L 234.478125 29.966505 
L 237.09375 29.932128 
L 239.709375 29.892689 
L 242.325 29.847576 
L 244.940625 29.796028 
L 247.55625 29.73709 
L 250.171875 29.66955 
L 252.7875 29.591856 
L 255.403125 29.501988 
L 258.01875 29.397265 
L 260.634375 29.27406 
L 263.25 29.127329 
L 265.865625 28.949842 
L 267.715761 28.8 
" style="fill:none;stroke:#0000ff;"/>
    <path clip-path="url(#p3815626884)" d="M 55.332711 237.180148 
L 55.133468 250.25625 
L 56.615625 251.244355 
L 114.159375 250.677386 
L 175.329713 250.25625 
L 171.703125 247.614801 
L 169.0875 245.358916 
L 166.471875 242.916961 
L 158.625 235.248043 
L 138.609922 215.38125 
L 132.46875 209.007064 
L 122.00625 197.610698 
L 111.338566 185.7375 
L 106.3125 180.409082 
L 102.919965 177.01875 
L 98.465625 172.94256 
L 94.951381 170.04375 
L 90.61875 166.910869 
L 87.272762 164.8125 
L 84.078741 163.06875 
L 80.15625 161.247474 
L 75.703628 159.58125 
L 72.309375 158.560573 
L 67.078125 157.363508 
L 61.846875 156.541668 
L 56.615625 155.9565 
L 56.229583 168.3 
L 55.869008 187.48125 
L 55.787533 193.582533 
L 55.787533 193.582533 
" style="fill:none;stroke:#0000ff;"/>
   </g>
   <g id="LineCollection_10">
    <path clip-path="url(#p3815626884)" d="M 388.8 54.510505 
L 386.583402 53.2125 
L 386.632512 51.46875 
L 386.681318 49.725 
L 386.729848 47.98125 
L 386.778159 46.2375 
L 386.826338 44.49375 
L 386.874512 42.75 
L 386.922865 41.00625 
L 386.971661 39.2625 
L 387.021291 37.51875 
L 387.072368 35.775 
L 387.125927 34.03125 
L 387.183989 32.2875 
L 387.251667 30.54375 
L 386.184375 29.832222 
L 383.56875 29.876707 
L 380.953125 29.919366 
L 378.3375 29.962349 
L 375.721875 30.006459 
L 373.10625 30.052092 
L 370.490625 30.099464 
L 367.875 30.148691 
L 365.259375 30.199819 
L 362.64375 30.252839 
L 360.028125 30.307695 
L 357.4125 30.364284 
L 354.796875 30.422459 
L 352.18125 30.482032 
L 349.565625 30.54277 
L 349.522598 30.54375 
L 349.565625 30.653857 
L 350.216872 32.2875 
L 351.019776 34.03125 
L 351.890873 35.775 
L 352.18125 36.337792 
L 352.337402 36.636825 
" style="fill:none;stroke:#0000ff;"/>
    <path clip-path="url(#p3815626884)" d="M 383.504741 65.820712 
L 383.56875 65.850944 
L 386.184375 67.096699 
L 386.197742 67.1625 
L 386.547115 68.90625 
L 386.898947 70.65 
L 387.250112 72.39375 
L 387.597442 74.1375 
L 387.937796 75.88125 
L 388.268155 77.625 
L 388.585696 79.36875 
L 388.8 80.609387 
" style="fill:none;stroke:#0000ff;"/>
    <path clip-path="url(#p3815626884)" d="M 200.330853 28.8 
L 200.475 28.801812 
L 203.090625 28.827478 
L 205.70625 28.845838 
L 208.321875 28.857153 
L 210.9375 28.861593 
L 213.553125 28.859238 
L 216.16875 28.850083 
L 218.784375 28.834038 
L 221.4 28.810921 
L 222.345068 28.8 
" style="fill:none;stroke:#0000ff;"/>
    <path clip-path="url(#p3815626884)" d="M 55.600225 244.154108 
L 55.58458 245.025 
L 55.549633 246.76875 
L 55.5086 248.5125 
L 55.454596 250.25625 
L 56.615625 251.030269 
L 59.23125 250.990999 
L 61.846875 250.953753 
L 64.4625 250.916806 
L 67.078125 250.879707 
L 69.69375 250.842392 
L 72.309375 250.804955 
L 74.925 250.767565 
L 77.540625 250.730419 
L 80.15625 250.693717 
L 82.771875 250.657647 
L 85.3875 250.622372 
L 88.003125 250.588023 
L 90.61875 250.554698 
L 93.234375 250.522462 
L 95.85 250.491348 
L 98.465625 250.461359 
L 101.08125 250.432475 
L 103.696875 250.404653 
L 106.3125 250.377837 
L 108.928125 250.351955 
L 111.54375 250.326928 
L 114.159375 250.30267 
L 116.775 250.279092 
L 119.374084 250.25625 
L 117.205455 248.5125 
L 116.775 248.10355 
L 115.430456 246.76875 
L 114.159375 245.375661 
L 113.853607 245.025 
L 112.432009 243.28125 
L 111.54375 242.141305 
L 111.094362 241.5375 
L 109.838575 239.79375 
L 108.928125 238.501774 
L 108.624041 238.05 
L 107.469547 236.30625 
L 106.323322 234.5625 
L 106.3125 234.545896 
L 105.235719 232.81875 
L 104.146828 231.075 
L 103.696875 230.355048 
L 103.083957 229.33125 
L 102.034167 227.5875 
L 101.08125 226.019559 
L 100.978675 225.84375 
L 99.953913 224.1 
L 98.913474 222.35625 
L 98.465625 221.614946 
L 97.881915 220.6125 
L 96.849763 218.86875 
L 95.85 217.214017 
L 95.797962 217.125 
L 94.762517 215.38125 
L 93.700535 213.6375 
L 93.234375 212.888072 
L 92.632351 211.89375 
L 91.54951 210.15 
L 90.61875 208.694146 
L 90.438543 208.40625 
L 89.319936 206.6625 
L 88.160803 204.91875 
L 88.003125 204.687633 
L 86.984198 203.175 
L 85.763062 201.43125 
L 85.3875 200.911799 
L 84.506288 199.6875 
L 83.197999 197.94375 
L 82.771875 197.396043 
L 81.836547 196.2 
L 80.40782 194.45625 
L 80.15625 194.160672 
L 78.903472 192.7125 
L 77.540625 191.21761 
L 77.307591 190.96875 
L 75.60043 189.225 
L 74.925 188.569423 
L 73.756648 187.48125 
L 72.309375 186.205571 
L 71.748384 185.7375 
L 69.69375 184.115295 
L 69.528632 183.99375 
L 67.078125 182.285941 
L 67.021884 182.25 
L 64.4625 180.6997 
L 64.108108 180.50625 
L 61.846875 179.334141 
L 60.6044 178.7625 
L 59.23125 178.161024 
L 56.615625 177.138466 
L 56.577316 178.7625 
L 56.538152 180.50625 
L 56.500838 182.25 
L 56.465221 183.99375 
L 56.431161 185.7375 
L 56.398525 187.48125 
L 56.367191 189.225 
L 56.337044 190.96875 
L 56.307979 192.7125 
L 56.279896 194.45625 
L 56.252704 196.2 
L 56.226317 197.94375 
L 56.200655 199.6875 
L 56.188166 200.558104 
" style="fill:none;stroke:#0000ff;"/>
   </g>
   <g id="line2d_1">
    <path clip-path="url(#p3815626884)" d="M 54 252 
L 388.8 252 
L 388.8 28.8 
L 54 28.8 
L 54 252 
" style="fill:none;stroke:#0000ff;stroke-linecap:square;"/>
   </g>
   <g id="patch_3">
    <path d="M 54 252 
L 388.8 252 
" style="fill:none;stroke:#000000;stroke-linecap:square;stroke-linejoin:miter;"/>
   </g>
   <g id="patch_4">
    <path d="M 54 28.8 
L 388.8 28.8 
" style="fill:none;stroke:#000000;stroke-linecap:square;stroke-linejoin:miter;"/>
   </g>
   <g id="patch_5">
    <path d="M 388.8 252 
L 388.8 28.8 
" style="fill:none;stroke:#000000;stroke-linecap:square;stroke-linejoin:miter;"/>
   </g>
   <g id="patch_6">
    <path d="M 54 252 
L 54 28.8 
" style="fill:none;stroke:#000000;stroke-linecap:square;stroke-linejoin:miter;"/>
   </g>
   <g id="matplotlib.axis_1">
    <g id="xtick_1">
     <g id="line2d_2">
      <path clip-path="url(#p3815626884)" d="M 54 252 
L 54 28.8 
" style="fill:none;stroke:#000000;stroke-dasharray:1.000000,3.000000;stroke-dashoffset:0.0;stroke-width:0.5;"/>
     </g>
     <g id="line2d_3">
      <defs>
       <path d="M 0 0 
L 0 -4 
" id="m574a46c024" style="stroke:#000000;stroke-width:0.5;"/>
      </defs>
      <g>
       <use style="stroke:#000000;stroke-width:0.5;" x="54.0" xlink:href="#m574a46c024" y="252.0"/>
      </g>
     </g>
     <g id="line2d_4">
      <defs>
       <path d="M 0 0 
L 0 4 
" id="md3d1180418" style="stroke:#000000;stroke-width:0.5;"/>
      </defs>
      <g>
       <use style="stroke:#000000;stroke-width:0.5;" x="54.0" xlink:href="#md3d1180418" y="28.8"/>
      </g>
     </g>
     <g id="text_1">
      <!-- 0.0 -->
      <defs>
       <path d="M 10.6875 12.40625 
L 21 12.40625 
L 21 0 
L 10.6875 0 
z
" id="BitstreamVeraSans-Roman-2e"/>
       <path d="M 31.78125 66.40625 
Q 24.171875 66.40625 20.328125 58.90625 
Q 16.5 51.421875 16.5 36.375 
Q 16.5 21.390625 20.328125 13.890625 
Q 24.171875 6.390625 31.78125 6.390625 
Q 39.453125 6.390625 43.28125 13.890625 
Q 47.125 21.390625 47.125 36.375 
Q 47.125 51.421875 43.28125 58.90625 
Q 39.453125 66.40625 31.78125 66.40625 
M 31.78125 74.21875 
Q 44.046875 74.21875 50.515625 64.515625 
Q 56.984375 54.828125 56.984375 36.375 
Q 56.984375 17.96875 50.515625 8.265625 
Q 44.046875 -1.421875 31.78125 -1.421875 
Q 19.53125 -1.421875 13.0625 8.265625 
Q 6.59375 17.96875 6.59375 36.375 
Q 6.59375 54.828125 13.0625 64.515625 
Q 19.53125 74.21875 31.78125 74.21875 
" id="BitstreamVeraSans-Roman-30"/>
      </defs>
      <g transform="translate(46.0484375 263.5984375)scale(0.1 -0.1)">
       <use xlink:href="#BitstreamVeraSans-Roman-30"/>
       <use x="63.623046875" xlink:href="#BitstreamVeraSans-Roman-2e"/>
       <use x="95.41015625" xlink:href="#BitstreamVeraSans-Roman-30"/>
      </g>
     </g>
    </g>
    <g id="xtick_2">
     <g id="line2d_5">
      <path clip-path="url(#p3815626884)" d="M 120.96 252 
L 120.96 28.8 
" style="fill:none;stroke:#000000;stroke-dasharray:1.000000,3.000000;stroke-dashoffset:0.0;stroke-width:0.5;"/>
     </g>
     <g id="line2d_6">
      <g>
       <use style="stroke:#000000;stroke-width:0.5;" x="120.96" xlink:href="#m574a46c024" y="252.0"/>
      </g>
     </g>
     <g id="line2d_7">
      <g>
       <use style="stroke:#000000;stroke-width:0.5;" x="120.96" xlink:href="#md3d1180418" y="28.8"/>
      </g>
     </g>
     <g id="text_2">
      <!-- 0.2 -->
      <defs>
       <path d="M 19.1875 8.296875 
L 53.609375 8.296875 
L 53.609375 0 
L 7.328125 0 
L 7.328125 8.296875 
Q 12.9375 14.109375 22.625 23.890625 
Q 32.328125 33.6875 34.8125 36.53125 
Q 39.546875 41.84375 41.421875 45.53125 
Q 43.3125 49.21875 43.3125 52.78125 
Q 43.3125 58.59375 39.234375 62.25 
Q 35.15625 65.921875 28.609375 65.921875 
Q 23.96875 65.921875 18.8125 64.3125 
Q 13.671875 62.703125 7.8125 59.421875 
L 7.8125 69.390625 
Q 13.765625 71.78125 18.9375 73 
Q 24.125 74.21875 28.421875 74.21875 
Q 39.75 74.21875 46.484375 68.546875 
Q 53.21875 62.890625 53.21875 53.421875 
Q 53.21875 48.921875 51.53125 44.890625 
Q 49.859375 40.875 45.40625 35.40625 
Q 44.1875 33.984375 37.640625 27.21875 
Q 31.109375 20.453125 19.1875 8.296875 
" id="BitstreamVeraSans-Roman-32"/>
      </defs>
      <g transform="translate(113.0084375 263.5984375)scale(0.1 -0.1)">
       <use xlink:href="#BitstreamVeraSans-Roman-30"/>
       <use x="63.623046875" xlink:href="#BitstreamVeraSans-Roman-2e"/>
       <use x="95.41015625" xlink:href="#BitstreamVeraSans-Roman-32"/>
      </g>
     </g>
    </g>
    <g id="xtick_3">
     <g id="line2d_8">
      <path clip-path="url(#p3815626884)" d="M 187.92 252 
L 187.92 28.8 
" style="fill:none;stroke:#000000;stroke-dasharray:1.000000,3.000000;stroke-dashoffset:0.0;stroke-width:0.5;"/>
     </g>
     <g id="line2d_9">
      <g>
       <use style="stroke:#000000;stroke-width:0.5;" x="187.92" xlink:href="#m574a46c024" y="252.0"/>
      </g>
     </g>
     <g id="line2d_10">
      <g>
       <use style="stroke:#000000;stroke-width:0.5;" x="187.92" xlink:href="#md3d1180418" y="28.8"/>
      </g>
     </g>
     <g id="text_3">
      <!-- 0.4 -->
      <defs>
       <path d="M 37.796875 64.3125 
L 12.890625 25.390625 
L 37.796875 25.390625 
z
M 35.203125 72.90625 
L 47.609375 72.90625 
L 47.609375 25.390625 
L 58.015625 25.390625 
L 58.015625 17.1875 
L 47.609375 17.1875 
L 47.609375 0 
L 37.796875 0 
L 37.796875 17.1875 
L 4.890625 17.1875 
L 4.890625 26.703125 
z
" id="BitstreamVeraSans-Roman-34"/>
      </defs>
      <g transform="translate(179.9684375 263.5984375)scale(0.1 -0.1)">
       <use xlink:href="#BitstreamVeraSans-Roman-30"/>
       <use x="63.623046875" xlink:href="#BitstreamVeraSans-Roman-2e"/>
       <use x="95.41015625" xlink:href="#BitstreamVeraSans-Roman-34"/>
      </g>
     </g>
    </g>
    <g id="xtick_4">
     <g id="line2d_11">
      <path clip-path="url(#p3815626884)" d="M 254.88 252 
L 254.88 28.8 
" style="fill:none;stroke:#000000;stroke-dasharray:1.000000,3.000000;stroke-dashoffset:0.0;stroke-width:0.5;"/>
     </g>
     <g id="line2d_12">
      <g>
       <use style="stroke:#000000;stroke-width:0.5;" x="254.88" xlink:href="#m574a46c024" y="252.0"/>
      </g>
     </g>
     <g id="line2d_13">
      <g>
       <use style="stroke:#000000;stroke-width:0.5;" x="254.88" xlink:href="#md3d1180418" y="28.8"/>
      </g>
     </g>
     <g id="text_4">
      <!-- 0.6 -->
      <defs>
       <path d="M 33.015625 40.375 
Q 26.375 40.375 22.484375 35.828125 
Q 18.609375 31.296875 18.609375 23.390625 
Q 18.609375 15.53125 22.484375 10.953125 
Q 26.375 6.390625 33.015625 6.390625 
Q 39.65625 6.390625 43.53125 10.953125 
Q 47.40625 15.53125 47.40625 23.390625 
Q 47.40625 31.296875 43.53125 35.828125 
Q 39.65625 40.375 33.015625 40.375 
M 52.59375 71.296875 
L 52.59375 62.3125 
Q 48.875 64.0625 45.09375 64.984375 
Q 41.3125 65.921875 37.59375 65.921875 
Q 27.828125 65.921875 22.671875 59.328125 
Q 17.53125 52.734375 16.796875 39.40625 
Q 19.671875 43.65625 24.015625 45.921875 
Q 28.375 48.1875 33.59375 48.1875 
Q 44.578125 48.1875 50.953125 41.515625 
Q 57.328125 34.859375 57.328125 23.390625 
Q 57.328125 12.15625 50.6875 5.359375 
Q 44.046875 -1.421875 33.015625 -1.421875 
Q 20.359375 -1.421875 13.671875 8.265625 
Q 6.984375 17.96875 6.984375 36.375 
Q 6.984375 53.65625 15.1875 63.9375 
Q 23.390625 74.21875 37.203125 74.21875 
Q 40.921875 74.21875 44.703125 73.484375 
Q 48.484375 72.75 52.59375 71.296875 
" id="BitstreamVeraSans-Roman-36"/>
      </defs>
      <g transform="translate(246.9284375 263.5984375)scale(0.1 -0.1)">
       <use xlink:href="#BitstreamVeraSans-Roman-30"/>
       <use x="63.623046875" xlink:href="#BitstreamVeraSans-Roman-2e"/>
       <use x="95.41015625" xlink:href="#BitstreamVeraSans-Roman-36"/>
      </g>
     </g>
    </g>
    <g id="xtick_5">
     <g id="line2d_14">
      <path clip-path="url(#p3815626884)" d="M 321.84 252 
L 321.84 28.8 
" style="fill:none;stroke:#000000;stroke-dasharray:1.000000,3.000000;stroke-dashoffset:0.0;stroke-width:0.5;"/>
     </g>
     <g id="line2d_15">
      <g>
       <use style="stroke:#000000;stroke-width:0.5;" x="321.84" xlink:href="#m574a46c024" y="252.0"/>
      </g>
     </g>
     <g id="line2d_16">
      <g>
       <use style="stroke:#000000;stroke-width:0.5;" x="321.84" xlink:href="#md3d1180418" y="28.8"/>
      </g>
     </g>
     <g id="text_5">
      <!-- 0.8 -->
      <defs>
       <path d="M 31.78125 34.625 
Q 24.75 34.625 20.71875 30.859375 
Q 16.703125 27.09375 16.703125 20.515625 
Q 16.703125 13.921875 20.71875 10.15625 
Q 24.75 6.390625 31.78125 6.390625 
Q 38.8125 6.390625 42.859375 10.171875 
Q 46.921875 13.96875 46.921875 20.515625 
Q 46.921875 27.09375 42.890625 30.859375 
Q 38.875 34.625 31.78125 34.625 
M 21.921875 38.8125 
Q 15.578125 40.375 12.03125 44.71875 
Q 8.5 49.078125 8.5 55.328125 
Q 8.5 64.0625 14.71875 69.140625 
Q 20.953125 74.21875 31.78125 74.21875 
Q 42.671875 74.21875 48.875 69.140625 
Q 55.078125 64.0625 55.078125 55.328125 
Q 55.078125 49.078125 51.53125 44.71875 
Q 48 40.375 41.703125 38.8125 
Q 48.828125 37.15625 52.796875 32.3125 
Q 56.78125 27.484375 56.78125 20.515625 
Q 56.78125 9.90625 50.3125 4.234375 
Q 43.84375 -1.421875 31.78125 -1.421875 
Q 19.734375 -1.421875 13.25 4.234375 
Q 6.78125 9.90625 6.78125 20.515625 
Q 6.78125 27.484375 10.78125 32.3125 
Q 14.796875 37.15625 21.921875 38.8125 
M 18.3125 54.390625 
Q 18.3125 48.734375 21.84375 45.5625 
Q 25.390625 42.390625 31.78125 42.390625 
Q 38.140625 42.390625 41.71875 45.5625 
Q 45.3125 48.734375 45.3125 54.390625 
Q 45.3125 60.0625 41.71875 63.234375 
Q 38.140625 66.40625 31.78125 66.40625 
Q 25.390625 66.40625 21.84375 63.234375 
Q 18.3125 60.0625 18.3125 54.390625 
" id="BitstreamVeraSans-Roman-38"/>
      </defs>
      <g transform="translate(313.8884375 263.5984375)scale(0.1 -0.1)">
       <use xlink:href="#BitstreamVeraSans-Roman-30"/>
       <use x="63.623046875" xlink:href="#BitstreamVeraSans-Roman-2e"/>
       <use x="95.41015625" xlink:href="#BitstreamVeraSans-Roman-38"/>
      </g>
     </g>
    </g>
    <g id="xtick_6">
     <g id="line2d_17">
      <path clip-path="url(#p3815626884)" d="M 388.8 252 
L 388.8 28.8 
" style="fill:none;stroke:#000000;stroke-dasharray:1.000000,3.000000;stroke-dashoffset:0.0;stroke-width:0.5;"/>
     </g>
     <g id="line2d_18">
      <g>
       <use style="stroke:#000000;stroke-width:0.5;" x="388.8" xlink:href="#m574a46c024" y="252.0"/>
      </g>
     </g>
     <g id="line2d_19">
      <g>
       <use style="stroke:#000000;stroke-width:0.5;" x="388.8" xlink:href="#md3d1180418" y="28.8"/>
      </g>
     </g>
     <g id="text_6">
      <!-- 1.0 -->
      <defs>
       <path d="M 12.40625 8.296875 
L 28.515625 8.296875 
L 28.515625 63.921875 
L 10.984375 60.40625 
L 10.984375 69.390625 
L 28.421875 72.90625 
L 38.28125 72.90625 
L 38.28125 8.296875 
L 54.390625 8.296875 
L 54.390625 0 
L 12.40625 0 
z
" id="BitstreamVeraSans-Roman-31"/>
      </defs>
      <g transform="translate(380.8484375 263.5984375)scale(0.1 -0.1)">
       <use xlink:href="#BitstreamVeraSans-Roman-31"/>
       <use x="63.623046875" xlink:href="#BitstreamVeraSans-Roman-2e"/>
       <use x="95.41015625" xlink:href="#BitstreamVeraSans-Roman-30"/>
      </g>
     </g>
    </g>
    <g id="text_7">
     <!-- X0 -->
     <defs>
      <path d="M 6.296875 72.90625 
L 16.890625 72.90625 
L 35.015625 45.796875 
L 53.21875 72.90625 
L 63.8125 72.90625 
L 40.375 37.890625 
L 65.375 0 
L 54.78125 0 
L 34.28125 31 
L 13.625 0 
L 2.984375 0 
L 29 38.921875 
z
" id="BitstreamVeraSans-Roman-58"/>
     </defs>
     <g transform="translate(214.79375 278.2765625)scale(0.1 -0.1)">
      <use xlink:href="#BitstreamVeraSans-Roman-58"/>
      <use x="68.505859375" xlink:href="#BitstreamVeraSans-Roman-30"/>
     </g>
    </g>
   </g>
   <g id="matplotlib.axis_2">
    <g id="ytick_1">
     <g id="line2d_20">
      <path clip-path="url(#p3815626884)" d="M 54 252 
L 388.8 252 
" style="fill:none;stroke:#000000;stroke-dasharray:1.000000,3.000000;stroke-dashoffset:0.0;stroke-width:0.5;"/>
     </g>
     <g id="line2d_21">
      <defs>
       <path d="M 0 0 
L 4 0 
" id="me5fab3afab" style="stroke:#000000;stroke-width:0.5;"/>
      </defs>
      <g>
       <use style="stroke:#000000;stroke-width:0.5;" x="54.0" xlink:href="#me5fab3afab" y="252.0"/>
      </g>
     </g>
     <g id="line2d_22">
      <defs>
       <path d="M 0 0 
L -4 0 
" id="m09bd59dff6" style="stroke:#000000;stroke-width:0.5;"/>
      </defs>
      <g>
       <use style="stroke:#000000;stroke-width:0.5;" x="388.8" xlink:href="#m09bd59dff6" y="252.0"/>
      </g>
     </g>
     <g id="text_8">
      <!-- 0.0 -->
      <g transform="translate(34.096875 254.759375)scale(0.1 -0.1)">
       <use xlink:href="#BitstreamVeraSans-Roman-30"/>
       <use x="63.623046875" xlink:href="#BitstreamVeraSans-Roman-2e"/>
       <use x="95.41015625" xlink:href="#BitstreamVeraSans-Roman-30"/>
      </g>
     </g>
    </g>
    <g id="ytick_2">
     <g id="line2d_23">
      <path clip-path="url(#p3815626884)" d="M 54 207.36 
L 388.8 207.36 
" style="fill:none;stroke:#000000;stroke-dasharray:1.000000,3.000000;stroke-dashoffset:0.0;stroke-width:0.5;"/>
     </g>
     <g id="line2d_24">
      <g>
       <use style="stroke:#000000;stroke-width:0.5;" x="54.0" xlink:href="#me5fab3afab" y="207.36"/>
      </g>
     </g>
     <g id="line2d_25">
      <g>
       <use style="stroke:#000000;stroke-width:0.5;" x="388.8" xlink:href="#m09bd59dff6" y="207.36"/>
      </g>
     </g>
     <g id="text_9">
      <!-- 0.2 -->
      <g transform="translate(34.096875 210.119375)scale(0.1 -0.1)">
       <use xlink:href="#BitstreamVeraSans-Roman-30"/>
       <use x="63.623046875" xlink:href="#BitstreamVeraSans-Roman-2e"/>
       <use x="95.41015625" xlink:href="#BitstreamVeraSans-Roman-32"/>
      </g>
     </g>
    </g>
    <g id="ytick_3">
     <g id="line2d_26">
      <path clip-path="url(#p3815626884)" d="M 54 162.72 
L 388.8 162.72 
" style="fill:none;stroke:#000000;stroke-dasharray:1.000000,3.000000;stroke-dashoffset:0.0;stroke-width:0.5;"/>
     </g>
     <g id="line2d_27">
      <g>
       <use style="stroke:#000000;stroke-width:0.5;" x="54.0" xlink:href="#me5fab3afab" y="162.72"/>
      </g>
     </g>
     <g id="line2d_28">
      <g>
       <use style="stroke:#000000;stroke-width:0.5;" x="388.8" xlink:href="#m09bd59dff6" y="162.72"/>
      </g>
     </g>
     <g id="text_10">
      <!-- 0.4 -->
      <g transform="translate(34.096875 165.479375)scale(0.1 -0.1)">
       <use xlink:href="#BitstreamVeraSans-Roman-30"/>
       <use x="63.623046875" xlink:href="#BitstreamVeraSans-Roman-2e"/>
       <use x="95.41015625" xlink:href="#BitstreamVeraSans-Roman-34"/>
      </g>
     </g>
    </g>
    <g id="ytick_4">
     <g id="line2d_29">
      <path clip-path="url(#p3815626884)" d="M 54 118.08 
L 388.8 118.08 
" style="fill:none;stroke:#000000;stroke-dasharray:1.000000,3.000000;stroke-dashoffset:0.0;stroke-width:0.5;"/>
     </g>
     <g id="line2d_30">
      <g>
       <use style="stroke:#000000;stroke-width:0.5;" x="54.0" xlink:href="#me5fab3afab" y="118.08"/>
      </g>
     </g>
     <g id="line2d_31">
      <g>
       <use style="stroke:#000000;stroke-width:0.5;" x="388.8" xlink:href="#m09bd59dff6" y="118.08"/>
      </g>
     </g>
     <g id="text_11">
      <!-- 0.6 -->
      <g transform="translate(34.096875 120.839375)scale(0.1 -0.1)">
       <use xlink:href="#BitstreamVeraSans-Roman-30"/>
       <use x="63.623046875" xlink:href="#BitstreamVeraSans-Roman-2e"/>
       <use x="95.41015625" xlink:href="#BitstreamVeraSans-Roman-36"/>
      </g>
     </g>
    </g>
    <g id="ytick_5">
     <g id="line2d_32">
      <path clip-path="url(#p3815626884)" d="M 54 73.44 
L 388.8 73.44 
" style="fill:none;stroke:#000000;stroke-dasharray:1.000000,3.000000;stroke-dashoffset:0.0;stroke-width:0.5;"/>
     </g>
     <g id="line2d_33">
      <g>
       <use style="stroke:#000000;stroke-width:0.5;" x="54.0" xlink:href="#me5fab3afab" y="73.44"/>
      </g>
     </g>
     <g id="line2d_34">
      <g>
       <use style="stroke:#000000;stroke-width:0.5;" x="388.8" xlink:href="#m09bd59dff6" y="73.44"/>
      </g>
     </g>
     <g id="text_12">
      <!-- 0.8 -->
      <g transform="translate(34.096875 76.199375)scale(0.1 -0.1)">
       <use xlink:href="#BitstreamVeraSans-Roman-30"/>
       <use x="63.623046875" xlink:href="#BitstreamVeraSans-Roman-2e"/>
       <use x="95.41015625" xlink:href="#BitstreamVeraSans-Roman-38"/>
      </g>
     </g>
    </g>
    <g id="ytick_6">
     <g id="line2d_35">
      <path clip-path="url(#p3815626884)" d="M 54 28.8 
L 388.8 28.8 
" style="fill:none;stroke:#000000;stroke-dasharray:1.000000,3.000000;stroke-dashoffset:0.0;stroke-width:0.5;"/>
     </g>
     <g id="line2d_36">
      <g>
       <use style="stroke:#000000;stroke-width:0.5;" x="54.0" xlink:href="#me5fab3afab" y="28.8"/>
      </g>
     </g>
     <g id="line2d_37">
      <g>
       <use style="stroke:#000000;stroke-width:0.5;" x="388.8" xlink:href="#m09bd59dff6" y="28.8"/>
      </g>
     </g>
     <g id="text_13">
      <!-- 1.0 -->
      <g transform="translate(34.096875 31.559375)scale(0.1 -0.1)">
       <use xlink:href="#BitstreamVeraSans-Roman-31"/>
       <use x="63.623046875" xlink:href="#BitstreamVeraSans-Roman-2e"/>
       <use x="95.41015625" xlink:href="#BitstreamVeraSans-Roman-30"/>
      </g>
     </g>
    </g>
    <g id="text_14">
     <!-- X1 -->
     <g transform="translate(27.0171875 147.00625)rotate(-90.0)scale(0.1 -0.1)">
      <use xlink:href="#BitstreamVeraSans-Roman-58"/>
      <use x="68.505859375" xlink:href="#BitstreamVeraSans-Roman-31"/>
     </g>
    </g>
   </g>
   <g id="text_15">
    <g clip-path="url(#p3815626884)">
     <!-- 0.359493 -->
     <defs>
      <path d="M 10.984375 1.515625 
L 10.984375 10.5 
Q 14.703125 8.734375 18.5 7.8125 
Q 22.3125 6.890625 25.984375 6.890625 
Q 35.75 6.890625 40.890625 13.453125 
Q 46.046875 20.015625 46.78125 33.40625 
Q 43.953125 29.203125 39.59375 26.953125 
Q 35.25 24.703125 29.984375 24.703125 
Q 19.046875 24.703125 12.671875 31.3125 
Q 6.296875 37.9375 6.296875 49.421875 
Q 6.296875 60.640625 12.9375 67.421875 
Q 19.578125 74.21875 30.609375 74.21875 
Q 43.265625 74.21875 49.921875 64.515625 
Q 56.59375 54.828125 56.59375 36.375 
Q 56.59375 19.140625 48.40625 8.859375 
Q 40.234375 -1.421875 26.421875 -1.421875 
Q 22.703125 -1.421875 18.890625 -0.6875 
Q 15.09375 0.046875 10.984375 1.515625 
M 30.609375 32.421875 
Q 37.25 32.421875 41.125 36.953125 
Q 45.015625 41.5 45.015625 49.421875 
Q 45.015625 57.28125 41.125 61.84375 
Q 37.25 66.40625 30.609375 66.40625 
Q 23.96875 66.40625 20.09375 61.84375 
Q 16.21875 57.28125 16.21875 49.421875 
Q 16.21875 41.5 20.09375 36.953125 
Q 23.96875 32.421875 30.609375 32.421875 
" id="BitstreamVeraSans-Roman-39"/>
      <path d="M 40.578125 39.3125 
Q 47.65625 37.796875 51.625 33 
Q 55.609375 28.21875 55.609375 21.1875 
Q 55.609375 10.40625 48.1875 4.484375 
Q 40.765625 -1.421875 27.09375 -1.421875 
Q 22.515625 -1.421875 17.65625 -0.515625 
Q 12.796875 0.390625 7.625 2.203125 
L 7.625 11.71875 
Q 11.71875 9.328125 16.59375 8.109375 
Q 21.484375 6.890625 26.8125 6.890625 
Q 36.078125 6.890625 40.9375 10.546875 
Q 45.796875 14.203125 45.796875 21.1875 
Q 45.796875 27.640625 41.28125 31.265625 
Q 36.765625 34.90625 28.71875 34.90625 
L 20.21875 34.90625 
L 20.21875 43.015625 
L 29.109375 43.015625 
Q 36.375 43.015625 40.234375 45.921875 
Q 44.09375 48.828125 44.09375 54.296875 
Q 44.09375 59.90625 40.109375 62.90625 
Q 36.140625 65.921875 28.71875 65.921875 
Q 24.65625 65.921875 20.015625 65.03125 
Q 15.375 64.15625 9.8125 62.3125 
L 9.8125 71.09375 
Q 15.4375 72.65625 20.34375 73.4375 
Q 25.25 74.21875 29.59375 74.21875 
Q 40.828125 74.21875 47.359375 69.109375 
Q 53.90625 64.015625 53.90625 55.328125 
Q 53.90625 49.265625 50.4375 45.09375 
Q 46.96875 40.921875 40.578125 39.3125 
" id="BitstreamVeraSans-Roman-33"/>
      <path d="M 10.796875 72.90625 
L 49.515625 72.90625 
L 49.515625 64.59375 
L 19.828125 64.59375 
L 19.828125 46.734375 
Q 21.96875 47.46875 24.109375 47.828125 
Q 26.265625 48.1875 28.421875 48.1875 
Q 40.625 48.1875 47.75 41.5 
Q 54.890625 34.8125 54.890625 23.390625 
Q 54.890625 11.625 47.5625 5.09375 
Q 40.234375 -1.421875 26.90625 -1.421875 
Q 22.3125 -1.421875 17.546875 -0.640625 
Q 12.796875 0.140625 7.71875 1.703125 
L 7.71875 11.625 
Q 12.109375 9.234375 16.796875 8.0625 
Q 21.484375 6.890625 26.703125 6.890625 
Q 35.15625 6.890625 40.078125 11.328125 
Q 45.015625 15.765625 45.015625 23.390625 
Q 45.015625 31 40.078125 35.4375 
Q 35.15625 39.890625 26.703125 39.890625 
Q 22.75 39.890625 18.8125 39.015625 
Q 14.890625 38.140625 10.796875 36.28125 
z
" id="BitstreamVeraSans-Roman-35"/>
     </defs>
     <g style="fill:#0000ff;" transform="translate(377.901905059 21.4089091831)rotate(-296.42411584581384)scale(0.08 -0.08)">
      <use xlink:href="#BitstreamVeraSans-Roman-30"/>
      <use x="63.623046875" xlink:href="#BitstreamVeraSans-Roman-2e"/>
      <use x="95.41015625" xlink:href="#BitstreamVeraSans-Roman-33"/>
      <use x="159.033203125" xlink:href="#BitstreamVeraSans-Roman-35"/>
      <use x="222.65625" xlink:href="#BitstreamVeraSans-Roman-39"/>
      <use x="286.279296875" xlink:href="#BitstreamVeraSans-Roman-34"/>
      <use x="349.90234375" xlink:href="#BitstreamVeraSans-Roman-39"/>
      <use x="413.525390625" xlink:href="#BitstreamVeraSans-Roman-33"/>
     </g>
    </g>
   </g>
   <g id="text_16">
    <g clip-path="url(#p3815626884)">
     <!-- 0.359493 -->
     <g style="fill:#0000ff;" transform="translate(56.6257060402 234.474402357)rotate(-89.8183592662913)scale(0.08 -0.08)">
      <use xlink:href="#BitstreamVeraSans-Roman-30"/>
      <use x="63.623046875" xlink:href="#BitstreamVeraSans-Roman-2e"/>
      <use x="95.41015625" xlink:href="#BitstreamVeraSans-Roman-33"/>
      <use x="159.033203125" xlink:href="#BitstreamVeraSans-Roman-35"/>
      <use x="222.65625" xlink:href="#BitstreamVeraSans-Roman-39"/>
      <use x="286.279296875" xlink:href="#BitstreamVeraSans-Roman-34"/>
      <use x="349.90234375" xlink:href="#BitstreamVeraSans-Roman-39"/>
      <use x="413.525390625" xlink:href="#BitstreamVeraSans-Roman-33"/>
     </g>
    </g>
   </g>
   <g id="text_17">
    <g clip-path="url(#p3815626884)">
     <!-- 0.733204 -->
     <defs>
      <path d="M 8.203125 72.90625 
L 55.078125 72.90625 
L 55.078125 68.703125 
L 28.609375 0 
L 18.3125 0 
L 43.21875 64.59375 
L 8.203125 64.59375 
z
" id="BitstreamVeraSans-Roman-37"/>
     </defs>
     <g style="fill:#0000ff;" transform="translate(377.221209153 21.5648952397)rotate(-297.26815623036623)scale(0.08 -0.08)">
      <use xlink:href="#BitstreamVeraSans-Roman-30"/>
      <use x="63.623046875" xlink:href="#BitstreamVeraSans-Roman-2e"/>
      <use x="95.41015625" xlink:href="#BitstreamVeraSans-Roman-37"/>
      <use x="159.033203125" xlink:href="#BitstreamVeraSans-Roman-33"/>
      <use x="222.65625" xlink:href="#BitstreamVeraSans-Roman-33"/>
      <use x="286.279296875" xlink:href="#BitstreamVeraSans-Roman-32"/>
      <use x="349.90234375" xlink:href="#BitstreamVeraSans-Roman-30"/>
      <use x="413.525390625" xlink:href="#BitstreamVeraSans-Roman-34"/>
     </g>
    </g>
   </g>
   <g id="text_18">
    <g clip-path="url(#p3815626884)">
     <!-- 0.733204 -->
     <g style="fill:#0000ff;" transform="translate(181.404317931 253.090173034)rotate(-0.39244886915813926)scale(0.08 -0.08)">
      <use xlink:href="#BitstreamVeraSans-Roman-30"/>
      <use x="63.623046875" xlink:href="#BitstreamVeraSans-Roman-2e"/>
      <use x="95.41015625" xlink:href="#BitstreamVeraSans-Roman-37"/>
      <use x="159.033203125" xlink:href="#BitstreamVeraSans-Roman-33"/>
      <use x="222.65625" xlink:href="#BitstreamVeraSans-Roman-33"/>
      <use x="286.279296875" xlink:href="#BitstreamVeraSans-Roman-32"/>
      <use x="349.90234375" xlink:href="#BitstreamVeraSans-Roman-30"/>
      <use x="413.525390625" xlink:href="#BitstreamVeraSans-Roman-34"/>
     </g>
    </g>
   </g>
   <g id="text_19">
    <g clip-path="url(#p3815626884)">
     <!-- 0.877888 -->
     <g style="fill:#0000ff;" transform="translate(378.861609709 23.9452859641)rotate(-290.7834955358003)scale(0.08 -0.08)">
      <use xlink:href="#BitstreamVeraSans-Roman-30"/>
      <use x="63.623046875" xlink:href="#BitstreamVeraSans-Roman-2e"/>
      <use x="95.41015625" xlink:href="#BitstreamVeraSans-Roman-38"/>
      <use x="159.033203125" xlink:href="#BitstreamVeraSans-Roman-37"/>
      <use x="222.65625" xlink:href="#BitstreamVeraSans-Roman-37"/>
      <use x="286.279296875" xlink:href="#BitstreamVeraSans-Roman-38"/>
      <use x="349.90234375" xlink:href="#BitstreamVeraSans-Roman-38"/>
      <use x="413.525390625" xlink:href="#BitstreamVeraSans-Roman-38"/>
     </g>
    </g>
   </g>
   <g id="text_20">
    <g clip-path="url(#p3815626884)">
     <!-- 0.877888 -->
     <g style="fill:#0000ff;" transform="translate(339.435675792 190.906963143)rotate(-30.32005863113977)scale(0.08 -0.08)">
      <use xlink:href="#BitstreamVeraSans-Roman-30"/>
      <use x="63.623046875" xlink:href="#BitstreamVeraSans-Roman-2e"/>
      <use x="95.41015625" xlink:href="#BitstreamVeraSans-Roman-38"/>
      <use x="159.033203125" xlink:href="#BitstreamVeraSans-Roman-37"/>
      <use x="222.65625" xlink:href="#BitstreamVeraSans-Roman-37"/>
      <use x="286.279296875" xlink:href="#BitstreamVeraSans-Roman-38"/>
      <use x="349.90234375" xlink:href="#BitstreamVeraSans-Roman-38"/>
      <use x="413.525390625" xlink:href="#BitstreamVeraSans-Roman-38"/>
     </g>
    </g>
   </g>
   <g id="text_21">
    <g clip-path="url(#p3815626884)">
     <!-- 0.916434 -->
     <g style="fill:#0000ff;" transform="translate(381.010697095 26.4420191912)rotate(-283.42901138124455)scale(0.08 -0.08)">
      <use xlink:href="#BitstreamVeraSans-Roman-30"/>
      <use x="63.623046875" xlink:href="#BitstreamVeraSans-Roman-2e"/>
      <use x="95.41015625" xlink:href="#BitstreamVeraSans-Roman-39"/>
      <use x="159.033203125" xlink:href="#BitstreamVeraSans-Roman-31"/>
      <use x="222.65625" xlink:href="#BitstreamVeraSans-Roman-36"/>
      <use x="286.279296875" xlink:href="#BitstreamVeraSans-Roman-34"/>
      <use x="349.90234375" xlink:href="#BitstreamVeraSans-Roman-33"/>
      <use x="413.525390625" xlink:href="#BitstreamVeraSans-Roman-34"/>
     </g>
    </g>
   </g>
   <g id="text_22">
    <g clip-path="url(#p3815626884)">
     <!-- 0.916434 -->
     <g style="fill:#0000ff;" transform="translate(158.166292572 134.979351247)rotate(-341.04153845081464)scale(0.08 -0.08)">
      <use xlink:href="#BitstreamVeraSans-Roman-30"/>
      <use x="63.623046875" xlink:href="#BitstreamVeraSans-Roman-2e"/>
      <use x="95.41015625" xlink:href="#BitstreamVeraSans-Roman-39"/>
      <use x="159.033203125" xlink:href="#BitstreamVeraSans-Roman-31"/>
      <use x="222.65625" xlink:href="#BitstreamVeraSans-Roman-36"/>
      <use x="286.279296875" xlink:href="#BitstreamVeraSans-Roman-34"/>
      <use x="349.90234375" xlink:href="#BitstreamVeraSans-Roman-33"/>
      <use x="413.525390625" xlink:href="#BitstreamVeraSans-Roman-34"/>
     </g>
    </g>
   </g>
   <g id="text_23">
    <g clip-path="url(#p3815626884)">
     <!-- 0.916434 -->
     <g style="fill:#0000ff;" transform="translate(87.2405674266 253.333812865)rotate(-0.36173881246644257)scale(0.08 -0.08)">
      <use xlink:href="#BitstreamVeraSans-Roman-30"/>
      <use x="63.623046875" xlink:href="#BitstreamVeraSans-Roman-2e"/>
      <use x="95.41015625" xlink:href="#BitstreamVeraSans-Roman-39"/>
      <use x="159.033203125" xlink:href="#BitstreamVeraSans-Roman-31"/>
      <use x="222.65625" xlink:href="#BitstreamVeraSans-Roman-36"/>
      <use x="286.279296875" xlink:href="#BitstreamVeraSans-Roman-34"/>
      <use x="349.90234375" xlink:href="#BitstreamVeraSans-Roman-33"/>
      <use x="413.525390625" xlink:href="#BitstreamVeraSans-Roman-34"/>
     </g>
    </g>
   </g>
   <g id="text_24">
    <g clip-path="url(#p3815626884)">
     <!-- 0.975859 -->
     <g style="fill:#0000ff;" transform="translate(262.475924429 36.1289231329)rotate(-0.07226530857207081)scale(0.08 -0.08)">
      <use xlink:href="#BitstreamVeraSans-Roman-30"/>
      <use x="63.623046875" xlink:href="#BitstreamVeraSans-Roman-2e"/>
      <use x="95.41015625" xlink:href="#BitstreamVeraSans-Roman-39"/>
      <use x="159.033203125" xlink:href="#BitstreamVeraSans-Roman-37"/>
      <use x="222.65625" xlink:href="#BitstreamVeraSans-Roman-35"/>
      <use x="286.279296875" xlink:href="#BitstreamVeraSans-Roman-38"/>
      <use x="349.90234375" xlink:href="#BitstreamVeraSans-Roman-35"/>
      <use x="413.525390625" xlink:href="#BitstreamVeraSans-Roman-39"/>
     </g>
    </g>
   </g>
   <g id="text_25">
    <g clip-path="url(#p3815626884)">
     <!-- 0.975859 -->
     <g style="fill:#0000ff;" transform="translate(228.590774546 155.168276224)rotate(-321.71844865536605)scale(0.08 -0.08)">
      <use xlink:href="#BitstreamVeraSans-Roman-30"/>
      <use x="63.623046875" xlink:href="#BitstreamVeraSans-Roman-2e"/>
      <use x="95.41015625" xlink:href="#BitstreamVeraSans-Roman-39"/>
      <use x="159.033203125" xlink:href="#BitstreamVeraSans-Roman-37"/>
      <use x="222.65625" xlink:href="#BitstreamVeraSans-Roman-35"/>
      <use x="286.279296875" xlink:href="#BitstreamVeraSans-Roman-38"/>
      <use x="349.90234375" xlink:href="#BitstreamVeraSans-Roman-35"/>
      <use x="413.525390625" xlink:href="#BitstreamVeraSans-Roman-39"/>
     </g>
    </g>
   </g>
   <g id="text_26">
    <g clip-path="url(#p3815626884)">
     <!-- 0.975859 -->
     <g style="fill:#0000ff;" transform="translate(117.220805581 160.619997189)rotate(-317.86525045741195)scale(0.08 -0.08)">
      <use xlink:href="#BitstreamVeraSans-Roman-30"/>
      <use x="63.623046875" xlink:href="#BitstreamVeraSans-Roman-2e"/>
      <use x="95.41015625" xlink:href="#BitstreamVeraSans-Roman-39"/>
      <use x="159.033203125" xlink:href="#BitstreamVeraSans-Roman-37"/>
      <use x="222.65625" xlink:href="#BitstreamVeraSans-Roman-35"/>
      <use x="286.279296875" xlink:href="#BitstreamVeraSans-Roman-38"/>
      <use x="349.90234375" xlink:href="#BitstreamVeraSans-Roman-35"/>
      <use x="413.525390625" xlink:href="#BitstreamVeraSans-Roman-39"/>
     </g>
    </g>
   </g>
   <g id="text_27">
    <g clip-path="url(#p3815626884)">
     <!-- 1.03699 -->
     <g style="fill:#0000ff;" transform="translate(294.209137305 45.6713826716)rotate(-28.36528309184635)scale(0.08 -0.08)">
      <use xlink:href="#BitstreamVeraSans-Roman-31"/>
      <use x="63.623046875" xlink:href="#BitstreamVeraSans-Roman-2e"/>
      <use x="95.41015625" xlink:href="#BitstreamVeraSans-Roman-30"/>
      <use x="159.033203125" xlink:href="#BitstreamVeraSans-Roman-33"/>
      <use x="222.65625" xlink:href="#BitstreamVeraSans-Roman-36"/>
      <use x="286.279296875" xlink:href="#BitstreamVeraSans-Roman-39"/>
      <use x="349.90234375" xlink:href="#BitstreamVeraSans-Roman-39"/>
     </g>
    </g>
   </g>
   <g id="text_28">
    <g clip-path="url(#p3815626884)">
     <!-- 1.03699 -->
     <g style="fill:#0000ff;" transform="translate(160.800963549 79.2094711492)rotate(-71.84910787750917)scale(0.08 -0.08)">
      <use xlink:href="#BitstreamVeraSans-Roman-31"/>
      <use x="63.623046875" xlink:href="#BitstreamVeraSans-Roman-2e"/>
      <use x="95.41015625" xlink:href="#BitstreamVeraSans-Roman-30"/>
      <use x="159.033203125" xlink:href="#BitstreamVeraSans-Roman-33"/>
      <use x="222.65625" xlink:href="#BitstreamVeraSans-Roman-36"/>
      <use x="286.279296875" xlink:href="#BitstreamVeraSans-Roman-39"/>
      <use x="349.90234375" xlink:href="#BitstreamVeraSans-Roman-39"/>
     </g>
    </g>
   </g>
   <g id="text_29">
    <g clip-path="url(#p3815626884)">
     <!-- 1.03699 -->
     <g style="fill:#0000ff;" transform="translate(159.572469082 210.795720552)rotate(-316.36511010390325)scale(0.08 -0.08)">
      <use xlink:href="#BitstreamVeraSans-Roman-31"/>
      <use x="63.623046875" xlink:href="#BitstreamVeraSans-Roman-2e"/>
      <use x="95.41015625" xlink:href="#BitstreamVeraSans-Roman-30"/>
      <use x="159.033203125" xlink:href="#BitstreamVeraSans-Roman-33"/>
      <use x="222.65625" xlink:href="#BitstreamVeraSans-Roman-36"/>
      <use x="286.279296875" xlink:href="#BitstreamVeraSans-Roman-39"/>
      <use x="349.90234375" xlink:href="#BitstreamVeraSans-Roman-39"/>
     </g>
    </g>
   </g>
   <g id="text_30">
    <g clip-path="url(#p3815626884)">
     <!-- 1.08699 -->
     <g style="fill:#0000ff;" transform="translate(210.830069738 109.592862269)rotate(-333.6368567651634)scale(0.08 -0.08)">
      <use xlink:href="#BitstreamVeraSans-Roman-31"/>
      <use x="63.623046875" xlink:href="#BitstreamVeraSans-Roman-2e"/>
      <use x="95.41015625" xlink:href="#BitstreamVeraSans-Roman-30"/>
      <use x="159.033203125" xlink:href="#BitstreamVeraSans-Roman-38"/>
      <use x="222.65625" xlink:href="#BitstreamVeraSans-Roman-36"/>
      <use x="286.279296875" xlink:href="#BitstreamVeraSans-Roman-39"/>
      <use x="349.90234375" xlink:href="#BitstreamVeraSans-Roman-39"/>
     </g>
    </g>
   </g>
   <g id="text_31">
    <g clip-path="url(#p3815626884)">
     <!-- 1.08699 -->
     <g style="fill:#0000ff;" transform="translate(173.449712943 32.357016939)rotate(-359.41891500995797)scale(0.08 -0.08)">
      <use xlink:href="#BitstreamVeraSans-Roman-31"/>
      <use x="63.623046875" xlink:href="#BitstreamVeraSans-Roman-2e"/>
      <use x="95.41015625" xlink:href="#BitstreamVeraSans-Roman-30"/>
      <use x="159.033203125" xlink:href="#BitstreamVeraSans-Roman-38"/>
      <use x="222.65625" xlink:href="#BitstreamVeraSans-Roman-36"/>
      <use x="286.279296875" xlink:href="#BitstreamVeraSans-Roman-39"/>
      <use x="349.90234375" xlink:href="#BitstreamVeraSans-Roman-39"/>
     </g>
    </g>
   </g>
   <g id="text_32">
    <g clip-path="url(#p3815626884)">
     <!-- 1.08699 -->
     <g style="fill:#0000ff;" transform="translate(62.7923057607 152.087129575)rotate(-344.60526428662047)scale(0.08 -0.08)">
      <use xlink:href="#BitstreamVeraSans-Roman-31"/>
      <use x="63.623046875" xlink:href="#BitstreamVeraSans-Roman-2e"/>
      <use x="95.41015625" xlink:href="#BitstreamVeraSans-Roman-30"/>
      <use x="159.033203125" xlink:href="#BitstreamVeraSans-Roman-38"/>
      <use x="222.65625" xlink:href="#BitstreamVeraSans-Roman-36"/>
      <use x="286.279296875" xlink:href="#BitstreamVeraSans-Roman-39"/>
      <use x="349.90234375" xlink:href="#BitstreamVeraSans-Roman-39"/>
     </g>
    </g>
   </g>
   <g id="text_33">
    <g clip-path="url(#p3815626884)">
     <!-- 1.12701 -->
     <g style="fill:#0000ff;" transform="translate(259.182505241 121.278122226)rotate(-322.93752069074264)scale(0.08 -0.08)">
      <use xlink:href="#BitstreamVeraSans-Roman-31"/>
      <use x="63.623046875" xlink:href="#BitstreamVeraSans-Roman-2e"/>
      <use x="95.41015625" xlink:href="#BitstreamVeraSans-Roman-31"/>
      <use x="159.033203125" xlink:href="#BitstreamVeraSans-Roman-32"/>
      <use x="222.65625" xlink:href="#BitstreamVeraSans-Roman-37"/>
      <use x="286.279296875" xlink:href="#BitstreamVeraSans-Roman-30"/>
      <use x="349.90234375" xlink:href="#BitstreamVeraSans-Roman-31"/>
     </g>
    </g>
   </g>
   <g id="text_34">
    <g clip-path="url(#p3815626884)">
     <!-- 1.12701 -->
     <g style="fill:#0000ff;" transform="translate(141.991604381 30.5260878584)rotate(-357.0305755571192)scale(0.08 -0.08)">
      <use xlink:href="#BitstreamVeraSans-Roman-31"/>
      <use x="63.623046875" xlink:href="#BitstreamVeraSans-Roman-2e"/>
      <use x="95.41015625" xlink:href="#BitstreamVeraSans-Roman-31"/>
      <use x="159.033203125" xlink:href="#BitstreamVeraSans-Roman-32"/>
      <use x="222.65625" xlink:href="#BitstreamVeraSans-Roman-37"/>
      <use x="286.279296875" xlink:href="#BitstreamVeraSans-Roman-30"/>
      <use x="349.90234375" xlink:href="#BitstreamVeraSans-Roman-31"/>
     </g>
    </g>
   </g>
   <g id="text_35">
    <g clip-path="url(#p3815626884)">
     <!-- 1.12701 -->
     <g style="fill:#0000ff;" transform="translate(81.9438019336 253.188850791)rotate(-0.48862107901458063)scale(0.08 -0.08)">
      <use xlink:href="#BitstreamVeraSans-Roman-31"/>
      <use x="63.623046875" xlink:href="#BitstreamVeraSans-Roman-2e"/>
      <use x="95.41015625" xlink:href="#BitstreamVeraSans-Roman-31"/>
      <use x="159.033203125" xlink:href="#BitstreamVeraSans-Roman-32"/>
      <use x="222.65625" xlink:href="#BitstreamVeraSans-Roman-37"/>
      <use x="286.279296875" xlink:href="#BitstreamVeraSans-Roman-30"/>
      <use x="349.90234375" xlink:href="#BitstreamVeraSans-Roman-31"/>
     </g>
    </g>
   </g>
   <g id="text_36">
    <g clip-path="url(#p3815626884)">
     <!-- 1.16523 -->
     <g style="fill:#0000ff;" transform="translate(383.907338123 106.542592458)rotate(-272.6806311529416)scale(0.08 -0.08)">
      <use xlink:href="#BitstreamVeraSans-Roman-31"/>
      <use x="63.623046875" xlink:href="#BitstreamVeraSans-Roman-2e"/>
      <use x="95.41015625" xlink:href="#BitstreamVeraSans-Roman-31"/>
      <use x="159.033203125" xlink:href="#BitstreamVeraSans-Roman-36"/>
      <use x="222.65625" xlink:href="#BitstreamVeraSans-Roman-35"/>
      <use x="286.279296875" xlink:href="#BitstreamVeraSans-Roman-32"/>
      <use x="349.90234375" xlink:href="#BitstreamVeraSans-Roman-33"/>
     </g>
    </g>
   </g>
   <g id="text_37">
    <g clip-path="url(#p3815626884)">
     <!-- 1.16523 -->
     <g style="fill:#0000ff;" transform="translate(181.302138941 32.1471688595)rotate(-359.5731636454332)scale(0.08 -0.08)">
      <use xlink:href="#BitstreamVeraSans-Roman-31"/>
      <use x="63.623046875" xlink:href="#BitstreamVeraSans-Roman-2e"/>
      <use x="95.41015625" xlink:href="#BitstreamVeraSans-Roman-31"/>
      <use x="159.033203125" xlink:href="#BitstreamVeraSans-Roman-36"/>
      <use x="222.65625" xlink:href="#BitstreamVeraSans-Roman-35"/>
      <use x="286.279296875" xlink:href="#BitstreamVeraSans-Roman-32"/>
      <use x="349.90234375" xlink:href="#BitstreamVeraSans-Roman-33"/>
     </g>
    </g>
   </g>
   <g id="text_38">
    <g clip-path="url(#p3815626884)">
     <!-- 1.16523 -->
     <g style="fill:#0000ff;" transform="translate(57.5910139745 231.944076295)rotate(-89.41781268020837)scale(0.08 -0.08)">
      <use xlink:href="#BitstreamVeraSans-Roman-31"/>
      <use x="63.623046875" xlink:href="#BitstreamVeraSans-Roman-2e"/>
      <use x="95.41015625" xlink:href="#BitstreamVeraSans-Roman-31"/>
      <use x="159.033203125" xlink:href="#BitstreamVeraSans-Roman-36"/>
      <use x="222.65625" xlink:href="#BitstreamVeraSans-Roman-35"/>
      <use x="286.279296875" xlink:href="#BitstreamVeraSans-Roman-32"/>
      <use x="349.90234375" xlink:href="#BitstreamVeraSans-Roman-33"/>
     </g>
    </g>
   </g>
   <g id="text_39">
    <g clip-path="url(#p3815626884)">
     <!-- 1.49536 -->
     <g style="fill:#0000ff;" transform="translate(351.661058452 44.3885582323)rotate(-316.97215629697945)scale(0.08 -0.08)">
      <use xlink:href="#BitstreamVeraSans-Roman-31"/>
      <use x="63.623046875" xlink:href="#BitstreamVeraSans-Roman-2e"/>
      <use x="95.41015625" xlink:href="#BitstreamVeraSans-Roman-34"/>
      <use x="159.033203125" xlink:href="#BitstreamVeraSans-Roman-39"/>
      <use x="222.65625" xlink:href="#BitstreamVeraSans-Roman-35"/>
      <use x="286.279296875" xlink:href="#BitstreamVeraSans-Roman-33"/>
      <use x="349.90234375" xlink:href="#BitstreamVeraSans-Roman-36"/>
     </g>
    </g>
   </g>
   <g id="text_40">
    <g clip-path="url(#p3815626884)">
     <!-- 1.49536 -->
     <g style="fill:#0000ff;" transform="translate(57.8961955607 238.924824499)rotate(-89.25442079968114)scale(0.08 -0.08)">
      <use xlink:href="#BitstreamVeraSans-Roman-31"/>
      <use x="63.623046875" xlink:href="#BitstreamVeraSans-Roman-2e"/>
      <use x="95.41015625" xlink:href="#BitstreamVeraSans-Roman-34"/>
      <use x="159.033203125" xlink:href="#BitstreamVeraSans-Roman-39"/>
      <use x="222.65625" xlink:href="#BitstreamVeraSans-Roman-35"/>
      <use x="286.279296875" xlink:href="#BitstreamVeraSans-Roman-33"/>
      <use x="349.90234375" xlink:href="#BitstreamVeraSans-Roman-36"/>
     </g>
    </g>
   </g>
   <g id="text_41">
    <!-- [X0,X1] iso-PDF -->
    <defs>
     <path d="M 11.71875 12.40625 
L 22.015625 12.40625 
L 22.015625 4 
L 14.015625 -11.625 
L 7.71875 -11.625 
L 11.71875 4 
z
" id="BitstreamVeraSans-Roman-2c"/>
     <path d="M 19.671875 64.796875 
L 19.671875 37.40625 
L 32.078125 37.40625 
Q 38.96875 37.40625 42.71875 40.96875 
Q 46.484375 44.53125 46.484375 51.125 
Q 46.484375 57.671875 42.71875 61.234375 
Q 38.96875 64.796875 32.078125 64.796875 
z
M 9.8125 72.90625 
L 32.078125 72.90625 
Q 44.34375 72.90625 50.609375 67.359375 
Q 56.890625 61.8125 56.890625 51.125 
Q 56.890625 40.328125 50.609375 34.8125 
Q 44.34375 29.296875 32.078125 29.296875 
L 19.671875 29.296875 
L 19.671875 0 
L 9.8125 0 
z
" id="BitstreamVeraSans-Roman-50"/>
     <path d="M 44.28125 53.078125 
L 44.28125 44.578125 
Q 40.484375 46.53125 36.375 47.5 
Q 32.28125 48.484375 27.875 48.484375 
Q 21.1875 48.484375 17.84375 46.4375 
Q 14.5 44.390625 14.5 40.28125 
Q 14.5 37.15625 16.890625 35.375 
Q 19.28125 33.59375 26.515625 31.984375 
L 29.59375 31.296875 
Q 39.15625 29.25 43.1875 25.515625 
Q 47.21875 21.78125 47.21875 15.09375 
Q 47.21875 7.46875 41.1875 3.015625 
Q 35.15625 -1.421875 24.609375 -1.421875 
Q 20.21875 -1.421875 15.453125 -0.5625 
Q 10.6875 0.296875 5.421875 2 
L 5.421875 11.28125 
Q 10.40625 8.6875 15.234375 7.390625 
Q 20.0625 6.109375 24.8125 6.109375 
Q 31.15625 6.109375 34.5625 8.28125 
Q 37.984375 10.453125 37.984375 14.40625 
Q 37.984375 18.0625 35.515625 20.015625 
Q 33.0625 21.96875 24.703125 23.78125 
L 21.578125 24.515625 
Q 13.234375 26.265625 9.515625 29.90625 
Q 5.8125 33.546875 5.8125 39.890625 
Q 5.8125 47.609375 11.28125 51.796875 
Q 16.75 56 26.8125 56 
Q 31.78125 56 36.171875 55.265625 
Q 40.578125 54.546875 44.28125 53.078125 
" id="BitstreamVeraSans-Roman-73"/>
     <path d="M 19.671875 64.796875 
L 19.671875 8.109375 
L 31.59375 8.109375 
Q 46.6875 8.109375 53.6875 14.9375 
Q 60.6875 21.78125 60.6875 36.53125 
Q 60.6875 51.171875 53.6875 57.984375 
Q 46.6875 64.796875 31.59375 64.796875 
z
M 9.8125 72.90625 
L 30.078125 72.90625 
Q 51.265625 72.90625 61.171875 64.09375 
Q 71.09375 55.28125 71.09375 36.53125 
Q 71.09375 17.671875 61.125 8.828125 
Q 51.171875 0 30.078125 0 
L 9.8125 0 
z
" id="BitstreamVeraSans-Roman-44"/>
     <path d="M 8.59375 75.984375 
L 29.296875 75.984375 
L 29.296875 69 
L 17.578125 69 
L 17.578125 -6.203125 
L 29.296875 -6.203125 
L 29.296875 -13.1875 
L 8.59375 -13.1875 
z
" id="BitstreamVeraSans-Roman-5b"/>
     <path d="M 9.421875 54.6875 
L 18.40625 54.6875 
L 18.40625 0 
L 9.421875 0 
z
M 9.421875 75.984375 
L 18.40625 75.984375 
L 18.40625 64.59375 
L 9.421875 64.59375 
z
" id="BitstreamVeraSans-Roman-69"/>
     <path d="M 30.609375 48.390625 
Q 23.390625 48.390625 19.1875 42.75 
Q 14.984375 37.109375 14.984375 27.296875 
Q 14.984375 17.484375 19.15625 11.84375 
Q 23.34375 6.203125 30.609375 6.203125 
Q 37.796875 6.203125 41.984375 11.859375 
Q 46.1875 17.53125 46.1875 27.296875 
Q 46.1875 37.015625 41.984375 42.703125 
Q 37.796875 48.390625 30.609375 48.390625 
M 30.609375 56 
Q 42.328125 56 49.015625 48.375 
Q 55.71875 40.765625 55.71875 27.296875 
Q 55.71875 13.875 49.015625 6.21875 
Q 42.328125 -1.421875 30.609375 -1.421875 
Q 18.84375 -1.421875 12.171875 6.21875 
Q 5.515625 13.875 5.515625 27.296875 
Q 5.515625 40.765625 12.171875 48.375 
Q 18.84375 56 30.609375 56 
" id="BitstreamVeraSans-Roman-6f"/>
     <path id="BitstreamVeraSans-Roman-20"/>
     <path d="M 9.8125 72.90625 
L 51.703125 72.90625 
L 51.703125 64.59375 
L 19.671875 64.59375 
L 19.671875 43.109375 
L 48.578125 43.109375 
L 48.578125 34.8125 
L 19.671875 34.8125 
L 19.671875 0 
L 9.8125 0 
z
" id="BitstreamVeraSans-Roman-46"/>
     <path d="M 30.421875 75.984375 
L 30.421875 -13.1875 
L 9.71875 -13.1875 
L 9.71875 -6.203125 
L 21.390625 -6.203125 
L 21.390625 69 
L 9.71875 69 
L 9.71875 75.984375 
z
" id="BitstreamVeraSans-Roman-5d"/>
     <path d="M 4.890625 31.390625 
L 31.203125 31.390625 
L 31.203125 23.390625 
L 4.890625 23.390625 
z
" id="BitstreamVeraSans-Roman-2d"/>
    </defs>
    <g transform="translate(174.73125 23.8)scale(0.12 -0.12)">
     <use xlink:href="#BitstreamVeraSans-Roman-5b"/>
     <use x="39.013671875" xlink:href="#BitstreamVeraSans-Roman-58"/>
     <use x="107.51953125" xlink:href="#BitstreamVeraSans-Roman-30"/>
     <use x="171.142578125" xlink:href="#BitstreamVeraSans-Roman-2c"/>
     <use x="202.9296875" xlink:href="#BitstreamVeraSans-Roman-58"/>
     <use x="271.435546875" xlink:href="#BitstreamVeraSans-Roman-31"/>
     <use x="335.05859375" xlink:href="#BitstreamVeraSans-Roman-5d"/>
     <use x="374.072265625" xlink:href="#BitstreamVeraSans-Roman-20"/>
     <use x="405.859375" xlink:href="#BitstreamVeraSans-Roman-69"/>
     <use x="433.642578125" xlink:href="#BitstreamVeraSans-Roman-73"/>
     <use x="485.7421875" xlink:href="#BitstreamVeraSans-Roman-6f"/>
     <use x="546.939453125" xlink:href="#BitstreamVeraSans-Roman-2d"/>
     <use x="583.0234375" xlink:href="#BitstreamVeraSans-Roman-50"/>
     <use x="643.326171875" xlink:href="#BitstreamVeraSans-Roman-44"/>
     <use x="720.328125" xlink:href="#BitstreamVeraSans-Roman-46"/>
    </g>
   </g>
   <g id="legend_1">
    <g id="patch_7">
     <path d="M 274.01875 53.478125 
L 383.8 53.478125 
Q 385.8 53.478125 385.8 51.478125 
L 385.8 37.8 
Q 385.8 35.8 383.8 35.8 
L 274.01875 35.8 
Q 272.01875 35.8 272.01875 37.8 
L 272.01875 51.478125 
Q 272.01875 53.478125 274.01875 53.478125 
z
" style="fill:#4c4c4c;opacity:0.5;stroke:#4c4c4c;stroke-linejoin:miter;"/>
    </g>
    <g id="patch_8">
     <path d="M 272.01875 51.478125 
L 381.8 51.478125 
Q 383.8 51.478125 383.8 49.478125 
L 383.8 35.8 
Q 383.8 33.8 381.8 33.8 
L 272.01875 33.8 
Q 270.01875 33.8 270.01875 35.8 
L 270.01875 49.478125 
Q 270.01875 51.478125 272.01875 51.478125 
z
" style="fill:#ffffff;stroke:#000000;stroke-linejoin:miter;"/>
    </g>
    <g id="line2d_38">
     <path d="M 277.01875 41.898438 
L 284.01875 41.898438 
L 291.01875 41.898438 
" style="fill:none;stroke:#0000ff;stroke-linecap:square;"/>
    </g>
    <g id="text_42">
     <!-- [X0,X1] iso-PDF -->
     <g transform="translate(302.01875 45.3984375)scale(0.1 -0.1)">
      <use xlink:href="#BitstreamVeraSans-Roman-5b"/>
      <use x="39.013671875" xlink:href="#BitstreamVeraSans-Roman-58"/>
      <use x="107.51953125" xlink:href="#BitstreamVeraSans-Roman-30"/>
      <use x="171.142578125" xlink:href="#BitstreamVeraSans-Roman-2c"/>
      <use x="202.9296875" xlink:href="#BitstreamVeraSans-Roman-58"/>
      <use x="271.435546875" xlink:href="#BitstreamVeraSans-Roman-31"/>
      <use x="335.05859375" xlink:href="#BitstreamVeraSans-Roman-5d"/>
      <use x="374.072265625" xlink:href="#BitstreamVeraSans-Roman-20"/>
      <use x="405.859375" xlink:href="#BitstreamVeraSans-Roman-69"/>
      <use x="433.642578125" xlink:href="#BitstreamVeraSans-Roman-73"/>
      <use x="485.7421875" xlink:href="#BitstreamVeraSans-Roman-6f"/>
      <use x="546.939453125" xlink:href="#BitstreamVeraSans-Roman-2d"/>
      <use x="583.0234375" xlink:href="#BitstreamVeraSans-Roman-50"/>
      <use x="643.326171875" xlink:href="#BitstreamVeraSans-Roman-44"/>
      <use x="720.328125" xlink:href="#BitstreamVeraSans-Roman-46"/>
     </g>
    </g>
   </g>
  </g>
 </g>
 <defs>
  <clipPath id="p3815626884">
   <rect height="223.2" width="334.8" x="54.0" y="28.8"/>
  </clipPath>
 </defs>
</svg>
