<?xml version="1.0" encoding="utf-8" standalone="no"?>
<!DOCTYPE svg PUBLIC "-//W3C//DTD SVG 1.1//EN"
  "http://www.w3.org/Graphics/SVG/1.1/DTD/svg11.dtd">
<!-- Created with matplotlib (http://matplotlib.org/) -->
<svg height="288pt" version="1.1" viewBox="0 0 432 288" width="432pt" xmlns="http://www.w3.org/2000/svg" xmlns:xlink="http://www.w3.org/1999/xlink">
 <defs>
  <style type="text/css">
*{stroke-linecap:butt;stroke-linejoin:round;stroke-miterlimit:100000;}
  </style>
 </defs>
 <g id="figure_1">
  <g id="patch_1">
   <path d="M 0 288 
L 432 288 
L 432 0 
L 0 0 
z
" style="fill:#ffffff;"/>
  </g>
  <g id="axes_1">
   <g id="patch_2">
    <path d="M 54 252 
L 388.8 252 
L 388.8 28.8 
L 54 28.8 
z
" style="fill:#ffffff;"/>
   </g>
   <g id="LineCollection_1">
    <path clip-path="url(#p1ff24d9412)" d="M 280.900137 29.257698 
L 197.859375 29.657753 
L 150.778125 30.081888 
L 121.727481 30.54375 
L 108.928125 31.972661 
L 106.3125 32.295534 
L 97.086495 34.03125 
L 90.473595 35.775 
L 85.3875 37.51875 
L 81.311815 39.2625 
L 77.540625 41.229682 
L 74.925 42.851024 
L 72.309375 44.75264 
L 69.69375 47.007877 
L 67.078125 49.725 
L 64.400787 53.2125 
L 61.846875 57.52433 
L 59.945608 61.93125 
L 59.23125 63.705484 
L 57.410603 70.65 
L 56.606936 74.1375 
L 56.075799 88.0875 
L 55.592904 107.26875 
L 55.139893 135.16875 
L 54.711293 177.01875 
L 54.146725 250.25625 
L 56.615625 251.902184 
L 90.61875 251.766921 
L 229.246875 251.240071 
L 284.175 250.808333 
L 315.5625 250.36472 
L 321.072519 250.25625 
L 333.871875 248.827339 
L 336.4875 248.504466 
L 345.713505 246.76875 
L 352.326405 245.025 
L 357.4125 243.28125 
L 357.4125 243.28125 
L 361.488185 241.5375 
L 365.259375 239.570318 
L 367.875 237.948976 
L 370.490625 236.04736 
L 373.10625 233.792123 
L 375.721875 231.075 
L 378.399213 227.5875 
L 380.953125 223.27567 
L 382.854392 218.86875 
L 383.56875 217.094516 
L 385.389397 210.15 
L 386.193064 206.6625 
L 386.724201 192.7125 
L 387.207096 173.53125 
L 387.660107 145.63125 
L 388.088707 103.78125 
L 388.653275 30.54375 
L 386.184375 28.897816 
L 352.18125 29.033079 
L 329.299885 29.101638 
L 329.299885 29.101638 
" style="fill:none;stroke:#0000ff;"/>
   </g>
   <g id="LineCollection_2">
    <path clip-path="url(#p1ff24d9412)" d="M 130.51197 251.228336 
L 205.70625 250.609881 
L 235.787667 250.25625 
L 252.7875 248.095206 
L 260.634375 246.72536 
L 271.096875 244.301052 
L 276.328125 242.891508 
L 284.175 240.451615 
L 289.40625 238.627344 
L 294.6375 236.63959 
L 299.693257 234.5625 
L 307.715625 230.918469 
L 314.374373 227.5875 
L 320.79375 224.1 
L 326.739631 220.6125 
L 332.288845 217.125 
L 337.485901 213.6375 
L 342.363715 210.15 
L 346.95 206.6625 
L 352.18125 202.382916 
L 357.4125 197.729889 
L 362.64375 192.595504 
L 367.284914 187.48125 
L 368.741016 185.7375 
L 371.477423 182.25 
L 373.970289 178.7625 
L 376.231282 175.275 
L 378.3375 171.697887 
L 380.953125 166.428126 
L 383.615418 159.58125 
L 386.184375 149.991778 
L 386.833083 124.70625 
L 387.484886 89.83125 
L 388.479734 30.54375 
L 386.184375 29.013511 
L 367.875 29.199151 
L 216.16875 30.426144 
L 207.012333 30.54375 
L 190.0125 32.704794 
L 182.165625 34.07464 
L 171.703125 36.498948 
L 166.471875 37.908492 
L 158.625 40.348385 
L 153.39375 42.172656 
L 148.1625 44.16041 
L 143.106743 46.2375 
L 135.084375 49.881531 
L 128.425627 53.2125 
L 122.00625 56.7 
L 116.060369 60.1875 
L 110.511155 63.675 
L 105.314099 67.1625 
L 100.436285 70.65 
L 95.85 74.1375 
L 90.61875 78.417084 
L 85.3875 83.070111 
L 80.15625 88.204496 
L 75.515086 93.31875 
L 74.058984 95.0625 
L 71.322577 98.55 
L 68.829711 102.0375 
L 66.568718 105.525 
L 64.4625 109.102113 
L 61.846875 114.371874 
L 59.184582 121.21875 
L 56.615625 130.808222 
L 55.966917 156.09375 
L 55.315114 190.96875 
L 54.320266 250.25625 
L 56.615625 251.786489 
L 74.925 251.600849 
L 82.113033 251.549058 
L 82.113033 251.549058 
" style="fill:none;stroke:#0000ff;"/>
   </g>
   <g id="LineCollection_3">
    <path clip-path="url(#p1ff24d9412)" d="M 55.043064 223.883162 
L 54.486136 248.5125 
L 54.40831 250.25625 
L 56.615625 251.727794 
L 72.309375 251.51665 
L 203.529573 250.25625 
L 213.553125 248.714573 
L 216.16875 248.233404 
L 224.015625 246.425737 
L 229.246875 244.973145 
L 237.09375 242.300538 
L 239.709375 241.332879 
L 247.579066 238.05 
L 255.403125 234.334101 
L 261.716581 231.075 
L 271.096875 225.84375 
L 279.894736 220.6125 
L 292.021875 213.031389 
L 302.484375 206.263058 
L 315.5625 197.584911 
L 328.640625 188.67062 
L 340.18092 180.50625 
L 347.269289 175.275 
L 354.001055 170.04375 
L 358.255684 166.55625 
L 362.64375 162.773721 
L 367.889435 157.8375 
L 372.799318 152.60625 
L 373.10625 152.275752 
L 376.963236 147.375 
L 378.3375 145.529044 
L 381.407463 140.4 
L 383.87186 135.16875 
L 386.192837 128.19375 
L 386.937849 98.55 
L 387.894413 49.725 
L 388.313864 32.2875 
L 388.39169 30.54375 
L 386.184375 29.072206 
L 370.490625 29.28335 
L 239.270427 30.54375 
L 229.246875 32.085427 
L 226.63125 32.566596 
L 218.784375 34.374263 
L 213.553125 35.826855 
L 205.70625 38.499462 
L 203.090625 39.467121 
L 195.220934 42.75 
L 187.396875 46.465899 
L 181.083419 49.725 
L 171.703125 54.95625 
L 162.905264 60.1875 
L 150.778125 67.768611 
L 140.315625 74.536942 
L 127.2375 83.215089 
L 114.159375 92.12938 
L 102.61908 100.29375 
L 95.530711 105.525 
L 88.798945 110.75625 
L 84.544316 114.24375 
L 80.15625 118.026279 
L 74.910565 122.9625 
L 70.000682 128.19375 
L 69.69375 128.524248 
L 65.836764 133.425 
L 64.4625 135.270956 
L 61.392537 140.4 
L 58.92814 145.63125 
L 56.607163 152.60625 
L 56.014591 175.492959 
L 56.014591 175.492959 
" style="fill:none;stroke:#0000ff;"/>
   </g>
   <g id="LineCollection_4">
    <path clip-path="url(#p1ff24d9412)" d="M 270.648903 200.701169 
L 276.822892 196.2 
L 284.24805 190.96875 
L 292.021875 185.712345 
L 300.058095 180.50625 
L 310.33125 174.150209 
L 320.184271 168.3 
L 352.18125 149.67957 
L 361.209356 143.8875 
L 365.259375 141.086632 
L 370.676913 136.9125 
L 374.596938 133.425 
L 376.372662 131.68125 
L 378.3375 129.62438 
L 380.953125 126.362281 
L 383.977816 121.21875 
L 386.189666 115.9875 
L 386.997748 84.6 
L 388.331394 30.54375 
L 386.184375 29.112404 
L 373.10625 29.324063 
L 312.946875 29.922508 
L 257.745947 30.54375 
L 250.171875 32.014789 
L 248.63088 32.2875 
L 239.709375 35.032779 
L 237.09375 35.981051 
L 231.8625 38.268708 
L 229.246875 39.522366 
L 224.015625 42.349367 
L 221.4 43.890775 
L 217.602834 46.2375 
L 209.906019 51.46875 
L 200.45539 58.44375 
L 184.626451 70.65 
L 173.133547 79.36875 
L 165.977108 84.6 
L 158.55195 89.83125 
L 150.778125 95.087655 
L 142.741905 100.29375 
L 132.46875 106.649791 
L 122.615729 112.5 
L 90.61875 131.12043 
L 81.590644 136.9125 
L 77.540625 139.713368 
L 72.123087 143.8875 
L 68.203062 147.375 
L 66.427338 149.11875 
L 64.4625 151.17562 
L 61.846875 154.437719 
L 58.822184 159.58125 
L 56.610334 164.8125 
L 55.802252 196.2 
L 54.468606 250.25625 
L 56.615625 251.687596 
L 69.69375 251.475937 
L 129.853125 250.877492 
L 185.054053 250.25625 
L 192.628125 248.785211 
L 194.16912 248.5125 
L 203.090625 245.767221 
L 205.70625 244.818949 
L 210.9375 242.531292 
L 213.553125 241.277634 
L 218.784375 238.450633 
L 221.4 236.909225 
L 225.197166 234.5625 
L 232.058945 229.907613 
L 232.058945 229.907613 
" style="fill:none;stroke:#0000ff;"/>
   </g>
   <g id="LineCollection_5">
    <path clip-path="url(#p1ff24d9412)" d="M 363.716407 129.187218 
L 367.875 126.898524 
L 373.10625 123.600516 
L 376.261577 121.21875 
L 378.364913 119.475 
L 380.953125 116.904584 
L 383.003252 114.24375 
L 383.56875 113.565412 
L 384.963676 110.75625 
L 386.184375 108.540265 
L 387.048713 75.88125 
L 388.191745 32.2875 
L 388.289122 30.54375 
L 386.184375 29.140585 
L 373.10625 29.371337 
L 318.178125 29.967525 
L 269.189603 30.54375 
L 265.865625 31.357549 
L 261.651883 32.2875 
L 255.403125 34.609585 
L 252.743884 35.775 
L 249.465721 37.51875 
L 244.019876 41.00625 
L 239.44658 44.49375 
L 235.384654 47.98125 
L 229.246875 53.857015 
L 224.768915 58.44375 
L 205.70625 78.792632 
L 199.903105 84.6 
L 194.349954 89.83125 
L 188.375407 95.0625 
L 184.101725 98.55 
L 179.55 102.0375 
L 174.31875 105.781822 
L 169.0875 109.260027 
L 163.85625 112.5 
L 157.816849 115.9875 
L 150.778125 119.746059 
L 142.93125 123.628507 
L 135.084375 127.252976 
L 124.90452 131.68125 
L 90.61875 146.050079 
L 82.771875 149.723102 
L 77.240124 152.60625 
L 72.309375 155.479918 
L 67.078125 159.110481 
L 64.435087 161.325 
L 61.846875 163.895416 
L 59.796748 166.55625 
L 59.23125 167.234588 
L 57.836324 170.04375 
L 56.615625 172.259735 
L 55.751287 204.91875 
L 54.608255 248.5125 
L 54.510878 250.25625 
L 56.615625 251.659415 
L 69.69375 251.428663 
L 124.621875 250.832475 
L 173.610397 250.25625 
L 176.934375 249.442451 
L 181.148117 248.5125 
L 187.396875 246.190415 
L 190.056116 245.025 
L 193.334279 243.28125 
L 198.780124 239.79375 
L 203.35342 236.30625 
L 207.415346 232.81875 
L 213.553125 226.942985 
L 218.031085 222.35625 
L 237.09375 202.007368 
L 242.896895 196.2 
L 248.450046 190.96875 
L 254.424593 185.7375 
L 258.698275 182.25 
L 263.25 178.7625 
L 268.48125 175.018178 
L 273.7125 171.539973 
L 278.94375 168.3 
L 284.983151 164.8125 
L 292.021875 161.053941 
L 299.86875 157.171493 
L 307.715625 153.547024 
L 317.89548 149.11875 
L 319.356991 148.504822 
L 319.356991 148.504822 
" style="fill:none;stroke:#0000ff;"/>
   </g>
   <g id="LineCollection_6">
    <path clip-path="url(#p1ff24d9412)" d="M 221.206126 189.710796 
L 224.015625 185.436862 
L 227.507749 180.50625 
L 230.193308 177.01875 
L 233.11547 173.53125 
L 236.341598 170.04375 
L 238.092461 168.3 
L 241.941079 164.8125 
L 244.940625 162.382592 
L 248.80997 159.58125 
L 252.7875 157.030812 
L 257.530682 154.35 
L 260.971553 152.60625 
L 265.865625 150.361065 
L 271.096875 148.210313 
L 278.120452 145.63125 
L 284.175 143.625682 
L 292.021875 141.234028 
L 302.484375 138.296827 
L 318.178125 134.158551 
L 336.4875 129.317704 
L 346.95 126.327259 
L 354.796875 123.852739 
L 360.028125 122.02453 
L 366.402948 119.475 
L 370.240655 117.73125 
L 370.490625 117.618605 
L 373.550853 115.9875 
L 376.404611 114.24375 
L 378.856517 112.5 
L 380.986429 110.75625 
L 383.56875 107.986017 
L 384.985239 105.525 
L 386.184375 103.656413 
L 387.122841 68.90625 
L 388.0779 34.03125 
L 388.259662 30.54375 
L 386.184375 29.160225 
L 373.10625 29.404284 
L 320.79375 30.005419 
L 276.328125 30.600277 
L 270.020975 32.2875 
L 265.807271 34.03125 
L 262.572858 35.775 
L 259.906897 37.51875 
L 257.609993 39.2625 
L 255.403125 41.172897 
L 252.026085 44.49375 
L 248.963205 47.98125 
L 246.220892 51.46875 
L 242.509112 56.7 
L 236.956259 65.41875 
L 230.762174 75.88125 
L 224.015625 87.233958 
L 220.148958 93.31875 
L 216.16875 99.101374 
L 212.606692 103.78125 
L 209.68453 107.26875 
L 206.458402 110.75625 
L 204.707539 112.5 
L 200.858921 115.9875 
L 197.859375 118.417408 
L 193.99003 121.21875 
L 190.0125 123.769188 
L 185.269318 126.45 
L 181.828447 128.19375 
L 176.934375 130.438935 
L 171.703125 132.589687 
L 164.679548 135.16875 
L 158.625 137.174318 
L 150.778125 139.565972 
L 140.315625 142.503173 
L 124.621875 146.641449 
L 106.3125 151.482296 
L 95.85 154.472741 
L 88.003125 156.947261 
L 82.771875 158.77547 
L 76.397052 161.325 
L 72.559345 163.06875 
L 72.309375 163.181395 
L 69.249147 164.8125 
L 66.395389 166.55625 
L 63.943483 168.3 
L 61.813571 170.04375 
L 59.23125 172.813983 
L 57.814761 175.275 
L 56.615625 177.143587 
L 55.677159 211.89375 
L 54.7221 246.76875 
L 54.540338 250.25625 
L 56.615625 251.639775 
L 69.69375 251.395716 
L 122.00625 250.794581 
L 166.471875 250.199723 
L 172.779025 248.5125 
L 176.992729 246.76875 
L 180.227142 245.025 
L 182.893103 243.28125 
L 185.190007 241.5375 
L 187.396875 239.627103 
L 190.773915 236.30625 
L 193.836795 232.81875 
L 196.579108 229.33125 
L 198.384623 226.847476 
L 198.384623 226.847476 
" style="fill:none;stroke:#0000ff;"/>
   </g>
   <g id="LineCollection_7">
    <path clip-path="url(#p1ff24d9412)" d="M 108.336759 157.852002 
L 99.5586 159.58125 
L 93.234375 160.973925 
L 85.040576 163.06875 
L 79.268917 164.8125 
L 74.925 166.312937 
L 69.69375 168.505444 
L 66.73164 170.04375 
L 63.931111 171.7875 
L 61.610345 173.53125 
L 59.23125 175.807006 
L 57.330413 178.7625 
L 56.615625 179.75126 
L 55.595312 217.125 
L 54.744356 246.76875 
L 54.556991 250.25625 
L 56.615625 251.628673 
L 69.69375 251.377092 
L 122.00625 250.75743 
L 162.37311 250.25625 
L 166.471875 249.006942 
L 168.289491 248.5125 
L 172.073377 246.76875 
L 174.933351 245.025 
L 177.26003 243.28125 
L 179.55 241.214129 
L 180.980706 239.79375 
L 183.941058 236.30625 
L 186.43366 232.81875 
L 188.604804 229.33125 
L 190.539113 225.84375 
L 193.113701 220.6125 
L 195.39129 215.38125 
L 197.859375 209.00148 
L 199.308874 204.91875 
L 201.556254 197.94375 
L 203.556752 190.96875 
L 205.309076 183.99375 
L 206.435565 178.7625 
L 207.355267 173.53125 
L 207.813906 170.04375 
L 208.094365 166.55625 
L 208.109236 163.06875 
L 207.970092 161.325 
L 207.691216 159.58125 
L 207.221258 157.8375 
L 206.479403 156.09375 
L 205.308108 154.35 
L 203.090625 152.419473 
L 199.707136 150.8625 
L 197.859375 150.347065 
L 195.24375 149.852495 
L 192.628125 149.539189 
L 187.396875 149.260509 
L 182.165625 149.270423 
L 174.31875 149.597896 
L 166.471875 150.154757 
L 156.009375 151.127282 
L 151.478949 151.613567 
L 151.478949 151.613567 
" style="fill:none;stroke:#0000ff;"/>
    <path clip-path="url(#p1ff24d9412)" d="M 387.315646 59.319786 
L 388.055644 34.03125 
L 388.243009 30.54375 
L 386.184375 29.171327 
L 373.10625 29.422908 
L 320.79375 30.04257 
L 280.42689 30.54375 
L 276.328125 31.793058 
L 274.510509 32.2875 
L 270.726623 34.03125 
L 267.866649 35.775 
L 265.53997 37.51875 
L 263.25 39.585871 
L 261.819294 41.00625 
L 258.858942 44.49375 
L 256.36634 47.98125 
L 254.195196 51.46875 
L 252.260887 54.95625 
L 249.686299 60.1875 
L 247.40871 65.41875 
L 244.940625 71.79852 
L 243.491126 75.88125 
L 241.243746 82.85625 
L 239.243248 89.83125 
L 237.490924 96.80625 
L 236.364435 102.0375 
L 235.444733 107.26875 
L 234.986094 110.75625 
L 234.705635 114.24375 
L 234.690764 117.73125 
L 234.829908 119.475 
L 235.108784 121.21875 
L 235.578742 122.9625 
L 236.320597 124.70625 
L 237.491892 126.45 
L 239.709375 128.380527 
L 243.092864 129.9375 
L 244.940625 130.452935 
L 247.55625 130.947505 
L 250.171875 131.260811 
L 255.403125 131.539491 
L 260.634375 131.529577 
L 268.48125 131.202104 
L 276.328125 130.645243 
L 286.790625 129.672718 
L 299.86875 128.186855 
L 312.946875 126.443501 
L 324.302219 124.70625 
L 333.871875 123.06086 
L 344.334375 120.995078 
L 352.18125 119.197831 
L 357.759424 117.73125 
L 363.531083 115.9875 
L 367.875 114.487063 
L 373.10625 112.294556 
L 376.06836 110.75625 
L 378.868889 109.0125 
L 381.189655 107.26875 
L 383.56875 104.992994 
L 385.117721 102.566814 
L 385.117721 102.566814 
" style="fill:none;stroke:#0000ff;"/>
   </g>
   <g id="LineCollection_8">
    <path clip-path="url(#p1ff24d9412)" d="M 178.694991 221.568858 
L 179.151685 218.86875 
L 179.568039 215.38125 
L 179.800373 211.89375 
L 179.841088 208.40625 
L 179.67702 204.91875 
L 179.286155 201.43125 
L 178.634375 197.94375 
L 177.673242 194.45625 
L 176.332085 190.96875 
L 175.487437 189.225 
L 174.31875 187.179408 
L 173.362543 185.7375 
L 171.703125 183.603397 
L 170.474055 182.25 
L 168.643901 180.50625 
L 166.471875 178.7625 
L 163.85625 177.01875 
L 160.644183 175.275 
L 156.594905 173.53125 
L 153.39375 172.424972 
L 150.778125 171.66226 
L 145.546875 170.445276 
L 140.315625 169.551172 
L 135.084375 168.910417 
L 129.853125 168.475897 
L 124.621875 168.21532 
L 116.775 168.103127 
L 108.682693 168.3 
L 101.08125 168.750845 
L 93.234375 169.504074 
L 88.003125 170.188896 
L 82.771875 171.045477 
L 77.540625 172.125274 
L 72.247883 173.53125 
L 69.69375 174.358592 
L 67.078125 175.364605 
L 63.748493 177.01875 
L 61.846875 178.109986 
L 59.023307 180.50625 
L 56.615625 183.58438 
L 55.482682 224.1 
L 54.778677 246.76875 
L 54.582673 250.25625 
L 56.615625 251.611551 
L 69.69375 251.348371 
L 119.390625 250.73168 
L 151.491835 250.32598 
L 151.491835 250.32598 
" style="fill:none;stroke:#0000ff;"/>
    <path clip-path="url(#p1ff24d9412)" d="M 269.224251 94.740997 
L 269.437457 95.0625 
L 271.096875 97.196603 
L 272.325945 98.55 
L 274.156099 100.29375 
L 276.328125 102.0375 
L 278.94375 103.78125 
L 282.155817 105.525 
L 286.205095 107.26875 
L 289.40625 108.375028 
L 292.021875 109.13774 
L 297.253125 110.354724 
L 302.484375 111.248828 
L 307.715625 111.889583 
L 312.946875 112.324103 
L 318.178125 112.58468 
L 326.025 112.696873 
L 334.117307 112.5 
L 341.71875 112.049155 
L 349.565625 111.295926 
L 354.796875 110.611104 
L 360.028125 109.754523 
L 365.259375 108.674726 
L 370.552117 107.26875 
L 373.10625 106.441408 
L 375.721875 105.435395 
L 379.051507 103.78125 
L 380.953125 102.690014 
L 383.776693 100.29375 
L 386.184375 97.21562 
L 387.317318 56.7 
L 388.021323 34.03125 
L 388.217327 30.54375 
L 386.184375 29.188449 
L 373.10625 29.451629 
L 323.409375 30.06832 
L 286.176569 30.54375 
L 281.559375 32.148871 
L 281.108341 32.2875 
L 277.964979 34.03125 
L 275.664486 35.775 
L 273.7125 37.683398 
L 272.337888 39.2625 
L 271.065167 41.00625 
L 269.955031 42.75 
L 268.132073 46.2375 
L 266.688868 49.725 
L 265.731045 52.611623 
L 265.731045 52.611623 
" style="fill:none;stroke:#0000ff;"/>
   </g>
   <g id="LineCollection_9">
    <path clip-path="url(#p1ff24d9412)" d="M 74.285069 251.216558 
L 132.46875 250.440061 
L 145.65471 250.25625 
L 149.092267 248.5125 
L 150.973524 246.76875 
L 152.195548 245.025 
L 153.019374 243.28125 
L 153.583864 241.5375 
L 153.959183 239.79375 
L 154.179893 238.05 
L 154.254536 234.5625 
L 153.927698 231.075 
L 153.251837 227.5875 
L 152.250711 224.1 
L 150.778125 220.321749 
L 149.214116 217.125 
L 147.120412 213.6375 
L 144.569242 210.15 
L 142.93125 208.224241 
L 140.315625 205.518606 
L 137.7 203.175 
L 135.084375 201.117214 
L 132.46875 199.292564 
L 129.853125 197.663007 
L 127.2375 196.2 
L 123.722092 194.45625 
L 119.390625 192.603829 
L 114.159375 190.729764 
L 108.928125 189.188492 
L 103.696875 187.927645 
L 98.465625 186.917822 
L 93.234375 186.137984 
L 88.003125 185.579283 
L 82.771875 185.241945 
L 77.540625 185.151602 
L 72.309375 185.360545 
L 68.855583 185.7375 
L 67.078125 185.987084 
L 64.4625 186.536301 
L 61.599014 187.48125 
L 59.23125 188.605155 
L 58.588593 189.225 
L 56.613345 190.96875 
L 55.541971 226.727118 
L 55.541971 226.727118 
" style="fill:none;stroke:#0000ff;"/>
    <path clip-path="url(#p1ff24d9412)" d="M 368.514931 29.583442 
L 310.33125 30.359939 
L 297.14529 30.54375 
L 293.707733 32.2875 
L 291.826476 34.03125 
L 290.604452 35.775 
L 289.780626 37.51875 
L 289.216136 39.2625 
L 288.840817 41.00625 
L 288.620107 42.75 
L 288.545464 46.2375 
L 288.872302 49.725 
L 289.548163 53.2125 
L 290.549289 56.7 
L 292.021875 60.478251 
L 293.585884 63.675 
L 295.679588 67.1625 
L 298.230758 70.65 
L 299.86875 72.575759 
L 302.484375 75.281394 
L 305.1 77.625 
L 307.715625 79.682786 
L 310.33125 81.507436 
L 312.946875 83.136993 
L 315.5625 84.6 
L 319.077908 86.34375 
L 323.409375 88.196171 
L 328.640625 90.070236 
L 333.871875 91.611508 
L 339.103125 92.872355 
L 344.334375 93.882178 
L 349.565625 94.662016 
L 354.796875 95.220717 
L 360.028125 95.558055 
L 365.259375 95.648398 
L 370.490625 95.439455 
L 373.944417 95.0625 
L 375.721875 94.812916 
L 378.3375 94.263699 
L 381.200986 93.31875 
L 383.56875 92.194845 
L 384.211407 91.575 
L 386.186655 89.83125 
L 387.258029 54.072882 
L 387.258029 54.072882 
" style="fill:none;stroke:#0000ff;"/>
   </g>
   <g id="LineCollection_10">
    <path clip-path="url(#p1ff24d9412)" d="M 75.56003 213.58673 
L 74.925 213.299926 
L 72.309375 212.157455 
L 71.685631 211.89375 
L 69.69375 211.078286 
L 67.260018 210.15 
L 67.078125 210.083054 
L 64.4625 209.161526 
L 61.973306 208.40625 
L 61.846875 208.369713 
L 59.23125 207.75119 
L 56.615625 207.579887 
L 56.585544 208.40625 
L 56.521583 210.15 
L 56.457911 211.89375 
L 56.394474 213.6375 
L 56.331213 215.38125 
L 56.268061 217.125 
L 56.204948 218.86875 
L 56.141797 220.6125 
L 56.078522 222.35625 
L 56.015023 224.1 
L 55.951192 225.84375 
L 55.886898 227.5875 
L 55.821992 229.33125 
L 55.756295 231.075 
L 55.689591 232.81875 
L 55.621613 234.5625 
L 55.552024 236.30625 
L 55.480386 238.05 
L 55.406113 239.79375 
L 55.328385 241.5375 
L 55.245999 243.28125 
L 55.157058 245.025 
L 55.058253 246.76875 
L 54.942813 248.5125 
L 54.791876 250.25625 
L 56.615625 251.472083 
L 59.23125 251.371458 
L 61.846875 251.294498 
L 64.4625 251.228628 
L 67.078125 251.169334 
L 69.69375 251.11441 
L 72.309375 251.062592 
L 74.925 251.013076 
L 77.540625 250.965317 
L 80.15625 250.918924 
L 82.771875 250.873606 
L 85.3875 250.829137 
L 88.003125 250.785339 
L 90.61875 250.742068 
L 93.234375 250.699206 
L 95.85 250.656651 
L 98.465625 250.614319 
L 101.08125 250.572135 
L 103.696875 250.530034 
L 106.3125 250.48796 
L 108.928125 250.445858 
L 111.54375 250.403684 
L 114.159375 250.361393 
L 116.775 250.318945 
L 119.390625 250.276304 
L 120.630169 250.25625 
L 120.373215 248.5125 
L 119.445431 246.76875 
L 119.390625 246.684462 
L 118.257711 245.025 
L 116.875418 243.28125 
L 116.775 243.159988 
L 115.38257 241.5375 
L 114.159375 240.209579 
L 113.763818 239.79375 
L 112.050111 238.05 
L 111.658089 237.664222 
" style="fill:none;stroke:#0000ff;"/>
    <path clip-path="url(#p1ff24d9412)" d="M 373.301007 69.795999 
L 375.539982 70.65 
L 375.721875 70.716946 
L 378.3375 71.638474 
L 380.826694 72.39375 
L 380.953125 72.430287 
L 383.56875 73.04881 
L 386.184375 73.220113 
L 386.214456 72.39375 
L 386.278417 70.65 
L 386.342089 68.90625 
L 386.405526 67.1625 
L 386.468787 65.41875 
L 386.531939 63.675 
L 386.595052 61.93125 
L 386.658203 60.1875 
L 386.721478 58.44375 
L 386.784977 56.7 
L 386.848808 54.95625 
L 386.913102 53.2125 
L 386.978008 51.46875 
L 387.043705 49.725 
L 387.110409 47.98125 
L 387.178387 46.2375 
L 387.247976 44.49375 
L 387.319614 42.75 
L 387.393887 41.00625 
L 387.471615 39.2625 
L 387.554001 37.51875 
L 387.642942 35.775 
L 387.741747 34.03125 
L 387.857187 32.2875 
L 388.008124 30.54375 
L 386.184375 29.327917 
L 383.56875 29.428542 
L 380.953125 29.505502 
L 378.3375 29.571372 
L 375.721875 29.630666 
L 373.10625 29.68559 
L 370.490625 29.737408 
L 367.875 29.786924 
L 365.259375 29.834683 
L 362.64375 29.881076 
L 360.028125 29.926394 
L 357.4125 29.970863 
L 354.796875 30.014661 
L 352.18125 30.057932 
L 349.565625 30.100794 
L 346.95 30.143349 
L 344.334375 30.185681 
L 341.71875 30.227865 
L 339.103125 30.269966 
L 336.4875 30.31204 
L 333.871875 30.354142 
L 331.25625 30.396316 
L 328.640625 30.438607 
L 326.025 30.481055 
L 323.409375 30.523696 
L 322.169831 30.54375 
L 322.426785 32.2875 
L 323.354569 34.03125 
L 323.409375 34.115538 
L 324.542289 35.775 
L 325.924582 37.51875 
L 326.025 37.640012 
L 327.41743 39.2625 
L 328.640625 40.590421 
L 329.036182 41.00625 
L 330.749889 42.75 
L 331.25625 43.248295 
L 332.55794 44.49375 
L 333.871875 45.701527 
L 334.470761 46.2375 
L 336.012906 47.570898 
" style="fill:none;stroke:#0000ff;"/>
   </g>
   <g id="line2d_1">
    <path clip-path="url(#p1ff24d9412)" d="M 54 252 
L 388.8 252 
L 388.8 28.8 
L 54 28.8 
L 54 252 
" style="fill:none;stroke:#0000ff;stroke-linecap:square;"/>
   </g>
   <g id="patch_3">
    <path d="M 54 252 
L 388.8 252 
" style="fill:none;stroke:#000000;stroke-linecap:square;stroke-linejoin:miter;"/>
   </g>
   <g id="patch_4">
    <path d="M 54 28.8 
L 388.8 28.8 
" style="fill:none;stroke:#000000;stroke-linecap:square;stroke-linejoin:miter;"/>
   </g>
   <g id="patch_5">
    <path d="M 54 252 
L 54 28.8 
" style="fill:none;stroke:#000000;stroke-linecap:square;stroke-linejoin:miter;"/>
   </g>
   <g id="patch_6">
    <path d="M 388.8 252 
L 388.8 28.8 
" style="fill:none;stroke:#000000;stroke-linecap:square;stroke-linejoin:miter;"/>
   </g>
   <g id="matplotlib.axis_1">
    <g id="xtick_1">
     <g id="line2d_2">
      <path clip-path="url(#p1ff24d9412)" d="M 54 252 
L 54 28.8 
" style="fill:none;stroke:#000000;stroke-dasharray:1.000000,3.000000;stroke-dashoffset:0.0;stroke-width:0.5;"/>
     </g>
     <g id="line2d_3">
      <defs>
       <path d="M 0 0 
L 0 -4 
" id="mab1738495c" style="stroke:#000000;stroke-width:0.5;"/>
      </defs>
      <g>
       <use style="stroke:#000000;stroke-width:0.5;" x="54.0" xlink:href="#mab1738495c" y="252.0"/>
      </g>
     </g>
     <g id="line2d_4">
      <defs>
       <path d="M 0 0 
L 0 4 
" id="m4b099b5c96" style="stroke:#000000;stroke-width:0.5;"/>
      </defs>
      <g>
       <use style="stroke:#000000;stroke-width:0.5;" x="54.0" xlink:href="#m4b099b5c96" y="28.8"/>
      </g>
     </g>
     <g id="text_1">
      <!-- 0.0 -->
      <defs>
       <path d="M 31.78125 66.40625 
Q 24.171875 66.40625 20.328125 58.90625 
Q 16.5 51.421875 16.5 36.375 
Q 16.5 21.390625 20.328125 13.890625 
Q 24.171875 6.390625 31.78125 6.390625 
Q 39.453125 6.390625 43.28125 13.890625 
Q 47.125 21.390625 47.125 36.375 
Q 47.125 51.421875 43.28125 58.90625 
Q 39.453125 66.40625 31.78125 66.40625 
M 31.78125 74.21875 
Q 44.046875 74.21875 50.515625 64.515625 
Q 56.984375 54.828125 56.984375 36.375 
Q 56.984375 17.96875 50.515625 8.265625 
Q 44.046875 -1.421875 31.78125 -1.421875 
Q 19.53125 -1.421875 13.0625 8.265625 
Q 6.59375 17.96875 6.59375 36.375 
Q 6.59375 54.828125 13.0625 64.515625 
Q 19.53125 74.21875 31.78125 74.21875 
" id="BitstreamVeraSans-Roman-30"/>
       <path d="M 10.6875 12.40625 
L 21 12.40625 
L 21 0 
L 10.6875 0 
z
" id="BitstreamVeraSans-Roman-2e"/>
      </defs>
      <g transform="translate(46.0484375 263.5984375)scale(0.1 -0.1)">
       <use xlink:href="#BitstreamVeraSans-Roman-30"/>
       <use x="63.623046875" xlink:href="#BitstreamVeraSans-Roman-2e"/>
       <use x="95.41015625" xlink:href="#BitstreamVeraSans-Roman-30"/>
      </g>
     </g>
    </g>
    <g id="xtick_2">
     <g id="line2d_5">
      <path clip-path="url(#p1ff24d9412)" d="M 120.96 252 
L 120.96 28.8 
" style="fill:none;stroke:#000000;stroke-dasharray:1.000000,3.000000;stroke-dashoffset:0.0;stroke-width:0.5;"/>
     </g>
     <g id="line2d_6">
      <g>
       <use style="stroke:#000000;stroke-width:0.5;" x="120.96" xlink:href="#mab1738495c" y="252.0"/>
      </g>
     </g>
     <g id="line2d_7">
      <g>
       <use style="stroke:#000000;stroke-width:0.5;" x="120.96" xlink:href="#m4b099b5c96" y="28.8"/>
      </g>
     </g>
     <g id="text_2">
      <!-- 0.2 -->
      <defs>
       <path d="M 19.1875 8.296875 
L 53.609375 8.296875 
L 53.609375 0 
L 7.328125 0 
L 7.328125 8.296875 
Q 12.9375 14.109375 22.625 23.890625 
Q 32.328125 33.6875 34.8125 36.53125 
Q 39.546875 41.84375 41.421875 45.53125 
Q 43.3125 49.21875 43.3125 52.78125 
Q 43.3125 58.59375 39.234375 62.25 
Q 35.15625 65.921875 28.609375 65.921875 
Q 23.96875 65.921875 18.8125 64.3125 
Q 13.671875 62.703125 7.8125 59.421875 
L 7.8125 69.390625 
Q 13.765625 71.78125 18.9375 73 
Q 24.125 74.21875 28.421875 74.21875 
Q 39.75 74.21875 46.484375 68.546875 
Q 53.21875 62.890625 53.21875 53.421875 
Q 53.21875 48.921875 51.53125 44.890625 
Q 49.859375 40.875 45.40625 35.40625 
Q 44.1875 33.984375 37.640625 27.21875 
Q 31.109375 20.453125 19.1875 8.296875 
" id="BitstreamVeraSans-Roman-32"/>
      </defs>
      <g transform="translate(113.0084375 263.5984375)scale(0.1 -0.1)">
       <use xlink:href="#BitstreamVeraSans-Roman-30"/>
       <use x="63.623046875" xlink:href="#BitstreamVeraSans-Roman-2e"/>
       <use x="95.41015625" xlink:href="#BitstreamVeraSans-Roman-32"/>
      </g>
     </g>
    </g>
    <g id="xtick_3">
     <g id="line2d_8">
      <path clip-path="url(#p1ff24d9412)" d="M 187.92 252 
L 187.92 28.8 
" style="fill:none;stroke:#000000;stroke-dasharray:1.000000,3.000000;stroke-dashoffset:0.0;stroke-width:0.5;"/>
     </g>
     <g id="line2d_9">
      <g>
       <use style="stroke:#000000;stroke-width:0.5;" x="187.92" xlink:href="#mab1738495c" y="252.0"/>
      </g>
     </g>
     <g id="line2d_10">
      <g>
       <use style="stroke:#000000;stroke-width:0.5;" x="187.92" xlink:href="#m4b099b5c96" y="28.8"/>
      </g>
     </g>
     <g id="text_3">
      <!-- 0.4 -->
      <defs>
       <path d="M 37.796875 64.3125 
L 12.890625 25.390625 
L 37.796875 25.390625 
z
M 35.203125 72.90625 
L 47.609375 72.90625 
L 47.609375 25.390625 
L 58.015625 25.390625 
L 58.015625 17.1875 
L 47.609375 17.1875 
L 47.609375 0 
L 37.796875 0 
L 37.796875 17.1875 
L 4.890625 17.1875 
L 4.890625 26.703125 
z
" id="BitstreamVeraSans-Roman-34"/>
      </defs>
      <g transform="translate(179.9684375 263.5984375)scale(0.1 -0.1)">
       <use xlink:href="#BitstreamVeraSans-Roman-30"/>
       <use x="63.623046875" xlink:href="#BitstreamVeraSans-Roman-2e"/>
       <use x="95.41015625" xlink:href="#BitstreamVeraSans-Roman-34"/>
      </g>
     </g>
    </g>
    <g id="xtick_4">
     <g id="line2d_11">
      <path clip-path="url(#p1ff24d9412)" d="M 254.88 252 
L 254.88 28.8 
" style="fill:none;stroke:#000000;stroke-dasharray:1.000000,3.000000;stroke-dashoffset:0.0;stroke-width:0.5;"/>
     </g>
     <g id="line2d_12">
      <g>
       <use style="stroke:#000000;stroke-width:0.5;" x="254.88" xlink:href="#mab1738495c" y="252.0"/>
      </g>
     </g>
     <g id="line2d_13">
      <g>
       <use style="stroke:#000000;stroke-width:0.5;" x="254.88" xlink:href="#m4b099b5c96" y="28.8"/>
      </g>
     </g>
     <g id="text_4">
      <!-- 0.6 -->
      <defs>
       <path d="M 33.015625 40.375 
Q 26.375 40.375 22.484375 35.828125 
Q 18.609375 31.296875 18.609375 23.390625 
Q 18.609375 15.53125 22.484375 10.953125 
Q 26.375 6.390625 33.015625 6.390625 
Q 39.65625 6.390625 43.53125 10.953125 
Q 47.40625 15.53125 47.40625 23.390625 
Q 47.40625 31.296875 43.53125 35.828125 
Q 39.65625 40.375 33.015625 40.375 
M 52.59375 71.296875 
L 52.59375 62.3125 
Q 48.875 64.0625 45.09375 64.984375 
Q 41.3125 65.921875 37.59375 65.921875 
Q 27.828125 65.921875 22.671875 59.328125 
Q 17.53125 52.734375 16.796875 39.40625 
Q 19.671875 43.65625 24.015625 45.921875 
Q 28.375 48.1875 33.59375 48.1875 
Q 44.578125 48.1875 50.953125 41.515625 
Q 57.328125 34.859375 57.328125 23.390625 
Q 57.328125 12.15625 50.6875 5.359375 
Q 44.046875 -1.421875 33.015625 -1.421875 
Q 20.359375 -1.421875 13.671875 8.265625 
Q 6.984375 17.96875 6.984375 36.375 
Q 6.984375 53.65625 15.1875 63.9375 
Q 23.390625 74.21875 37.203125 74.21875 
Q 40.921875 74.21875 44.703125 73.484375 
Q 48.484375 72.75 52.59375 71.296875 
" id="BitstreamVeraSans-Roman-36"/>
      </defs>
      <g transform="translate(246.9284375 263.5984375)scale(0.1 -0.1)">
       <use xlink:href="#BitstreamVeraSans-Roman-30"/>
       <use x="63.623046875" xlink:href="#BitstreamVeraSans-Roman-2e"/>
       <use x="95.41015625" xlink:href="#BitstreamVeraSans-Roman-36"/>
      </g>
     </g>
    </g>
    <g id="xtick_5">
     <g id="line2d_14">
      <path clip-path="url(#p1ff24d9412)" d="M 321.84 252 
L 321.84 28.8 
" style="fill:none;stroke:#000000;stroke-dasharray:1.000000,3.000000;stroke-dashoffset:0.0;stroke-width:0.5;"/>
     </g>
     <g id="line2d_15">
      <g>
       <use style="stroke:#000000;stroke-width:0.5;" x="321.84" xlink:href="#mab1738495c" y="252.0"/>
      </g>
     </g>
     <g id="line2d_16">
      <g>
       <use style="stroke:#000000;stroke-width:0.5;" x="321.84" xlink:href="#m4b099b5c96" y="28.8"/>
      </g>
     </g>
     <g id="text_5">
      <!-- 0.8 -->
      <defs>
       <path d="M 31.78125 34.625 
Q 24.75 34.625 20.71875 30.859375 
Q 16.703125 27.09375 16.703125 20.515625 
Q 16.703125 13.921875 20.71875 10.15625 
Q 24.75 6.390625 31.78125 6.390625 
Q 38.8125 6.390625 42.859375 10.171875 
Q 46.921875 13.96875 46.921875 20.515625 
Q 46.921875 27.09375 42.890625 30.859375 
Q 38.875 34.625 31.78125 34.625 
M 21.921875 38.8125 
Q 15.578125 40.375 12.03125 44.71875 
Q 8.5 49.078125 8.5 55.328125 
Q 8.5 64.0625 14.71875 69.140625 
Q 20.953125 74.21875 31.78125 74.21875 
Q 42.671875 74.21875 48.875 69.140625 
Q 55.078125 64.0625 55.078125 55.328125 
Q 55.078125 49.078125 51.53125 44.71875 
Q 48 40.375 41.703125 38.8125 
Q 48.828125 37.15625 52.796875 32.3125 
Q 56.78125 27.484375 56.78125 20.515625 
Q 56.78125 9.90625 50.3125 4.234375 
Q 43.84375 -1.421875 31.78125 -1.421875 
Q 19.734375 -1.421875 13.25 4.234375 
Q 6.78125 9.90625 6.78125 20.515625 
Q 6.78125 27.484375 10.78125 32.3125 
Q 14.796875 37.15625 21.921875 38.8125 
M 18.3125 54.390625 
Q 18.3125 48.734375 21.84375 45.5625 
Q 25.390625 42.390625 31.78125 42.390625 
Q 38.140625 42.390625 41.71875 45.5625 
Q 45.3125 48.734375 45.3125 54.390625 
Q 45.3125 60.0625 41.71875 63.234375 
Q 38.140625 66.40625 31.78125 66.40625 
Q 25.390625 66.40625 21.84375 63.234375 
Q 18.3125 60.0625 18.3125 54.390625 
" id="BitstreamVeraSans-Roman-38"/>
      </defs>
      <g transform="translate(313.8884375 263.5984375)scale(0.1 -0.1)">
       <use xlink:href="#BitstreamVeraSans-Roman-30"/>
       <use x="63.623046875" xlink:href="#BitstreamVeraSans-Roman-2e"/>
       <use x="95.41015625" xlink:href="#BitstreamVeraSans-Roman-38"/>
      </g>
     </g>
    </g>
    <g id="xtick_6">
     <g id="line2d_17">
      <path clip-path="url(#p1ff24d9412)" d="M 388.8 252 
L 388.8 28.8 
" style="fill:none;stroke:#000000;stroke-dasharray:1.000000,3.000000;stroke-dashoffset:0.0;stroke-width:0.5;"/>
     </g>
     <g id="line2d_18">
      <g>
       <use style="stroke:#000000;stroke-width:0.5;" x="388.8" xlink:href="#mab1738495c" y="252.0"/>
      </g>
     </g>
     <g id="line2d_19">
      <g>
       <use style="stroke:#000000;stroke-width:0.5;" x="388.8" xlink:href="#m4b099b5c96" y="28.8"/>
      </g>
     </g>
     <g id="text_6">
      <!-- 1.0 -->
      <defs>
       <path d="M 12.40625 8.296875 
L 28.515625 8.296875 
L 28.515625 63.921875 
L 10.984375 60.40625 
L 10.984375 69.390625 
L 28.421875 72.90625 
L 38.28125 72.90625 
L 38.28125 8.296875 
L 54.390625 8.296875 
L 54.390625 0 
L 12.40625 0 
z
" id="BitstreamVeraSans-Roman-31"/>
      </defs>
      <g transform="translate(380.8484375 263.5984375)scale(0.1 -0.1)">
       <use xlink:href="#BitstreamVeraSans-Roman-31"/>
       <use x="63.623046875" xlink:href="#BitstreamVeraSans-Roman-2e"/>
       <use x="95.41015625" xlink:href="#BitstreamVeraSans-Roman-30"/>
      </g>
     </g>
    </g>
    <g id="text_7">
     <!-- X0 -->
     <defs>
      <path d="M 6.296875 72.90625 
L 16.890625 72.90625 
L 35.015625 45.796875 
L 53.21875 72.90625 
L 63.8125 72.90625 
L 40.375 37.890625 
L 65.375 0 
L 54.78125 0 
L 34.28125 31 
L 13.625 0 
L 2.984375 0 
L 29 38.921875 
z
" id="BitstreamVeraSans-Roman-58"/>
     </defs>
     <g transform="translate(214.79375 278.2765625)scale(0.1 -0.1)">
      <use xlink:href="#BitstreamVeraSans-Roman-58"/>
      <use x="68.505859375" xlink:href="#BitstreamVeraSans-Roman-30"/>
     </g>
    </g>
   </g>
   <g id="matplotlib.axis_2">
    <g id="ytick_1">
     <g id="line2d_20">
      <path clip-path="url(#p1ff24d9412)" d="M 54 252 
L 388.8 252 
" style="fill:none;stroke:#000000;stroke-dasharray:1.000000,3.000000;stroke-dashoffset:0.0;stroke-width:0.5;"/>
     </g>
     <g id="line2d_21">
      <defs>
       <path d="M 0 0 
L 4 0 
" id="mc5e5bf5a0d" style="stroke:#000000;stroke-width:0.5;"/>
      </defs>
      <g>
       <use style="stroke:#000000;stroke-width:0.5;" x="54.0" xlink:href="#mc5e5bf5a0d" y="252.0"/>
      </g>
     </g>
     <g id="line2d_22">
      <defs>
       <path d="M 0 0 
L -4 0 
" id="m6252f84aed" style="stroke:#000000;stroke-width:0.5;"/>
      </defs>
      <g>
       <use style="stroke:#000000;stroke-width:0.5;" x="388.8" xlink:href="#m6252f84aed" y="252.0"/>
      </g>
     </g>
     <g id="text_8">
      <!-- 0.0 -->
      <g transform="translate(34.096875 254.759375)scale(0.1 -0.1)">
       <use xlink:href="#BitstreamVeraSans-Roman-30"/>
       <use x="63.623046875" xlink:href="#BitstreamVeraSans-Roman-2e"/>
       <use x="95.41015625" xlink:href="#BitstreamVeraSans-Roman-30"/>
      </g>
     </g>
    </g>
    <g id="ytick_2">
     <g id="line2d_23">
      <path clip-path="url(#p1ff24d9412)" d="M 54 207.36 
L 388.8 207.36 
" style="fill:none;stroke:#000000;stroke-dasharray:1.000000,3.000000;stroke-dashoffset:0.0;stroke-width:0.5;"/>
     </g>
     <g id="line2d_24">
      <g>
       <use style="stroke:#000000;stroke-width:0.5;" x="54.0" xlink:href="#mc5e5bf5a0d" y="207.36"/>
      </g>
     </g>
     <g id="line2d_25">
      <g>
       <use style="stroke:#000000;stroke-width:0.5;" x="388.8" xlink:href="#m6252f84aed" y="207.36"/>
      </g>
     </g>
     <g id="text_9">
      <!-- 0.2 -->
      <g transform="translate(34.096875 210.119375)scale(0.1 -0.1)">
       <use xlink:href="#BitstreamVeraSans-Roman-30"/>
       <use x="63.623046875" xlink:href="#BitstreamVeraSans-Roman-2e"/>
       <use x="95.41015625" xlink:href="#BitstreamVeraSans-Roman-32"/>
      </g>
     </g>
    </g>
    <g id="ytick_3">
     <g id="line2d_26">
      <path clip-path="url(#p1ff24d9412)" d="M 54 162.72 
L 388.8 162.72 
" style="fill:none;stroke:#000000;stroke-dasharray:1.000000,3.000000;stroke-dashoffset:0.0;stroke-width:0.5;"/>
     </g>
     <g id="line2d_27">
      <g>
       <use style="stroke:#000000;stroke-width:0.5;" x="54.0" xlink:href="#mc5e5bf5a0d" y="162.72"/>
      </g>
     </g>
     <g id="line2d_28">
      <g>
       <use style="stroke:#000000;stroke-width:0.5;" x="388.8" xlink:href="#m6252f84aed" y="162.72"/>
      </g>
     </g>
     <g id="text_10">
      <!-- 0.4 -->
      <g transform="translate(34.096875 165.479375)scale(0.1 -0.1)">
       <use xlink:href="#BitstreamVeraSans-Roman-30"/>
       <use x="63.623046875" xlink:href="#BitstreamVeraSans-Roman-2e"/>
       <use x="95.41015625" xlink:href="#BitstreamVeraSans-Roman-34"/>
      </g>
     </g>
    </g>
    <g id="ytick_4">
     <g id="line2d_29">
      <path clip-path="url(#p1ff24d9412)" d="M 54 118.08 
L 388.8 118.08 
" style="fill:none;stroke:#000000;stroke-dasharray:1.000000,3.000000;stroke-dashoffset:0.0;stroke-width:0.5;"/>
     </g>
     <g id="line2d_30">
      <g>
       <use style="stroke:#000000;stroke-width:0.5;" x="54.0" xlink:href="#mc5e5bf5a0d" y="118.08"/>
      </g>
     </g>
     <g id="line2d_31">
      <g>
       <use style="stroke:#000000;stroke-width:0.5;" x="388.8" xlink:href="#m6252f84aed" y="118.08"/>
      </g>
     </g>
     <g id="text_11">
      <!-- 0.6 -->
      <g transform="translate(34.096875 120.839375)scale(0.1 -0.1)">
       <use xlink:href="#BitstreamVeraSans-Roman-30"/>
       <use x="63.623046875" xlink:href="#BitstreamVeraSans-Roman-2e"/>
       <use x="95.41015625" xlink:href="#BitstreamVeraSans-Roman-36"/>
      </g>
     </g>
    </g>
    <g id="ytick_5">
     <g id="line2d_32">
      <path clip-path="url(#p1ff24d9412)" d="M 54 73.44 
L 388.8 73.44 
" style="fill:none;stroke:#000000;stroke-dasharray:1.000000,3.000000;stroke-dashoffset:0.0;stroke-width:0.5;"/>
     </g>
     <g id="line2d_33">
      <g>
       <use style="stroke:#000000;stroke-width:0.5;" x="54.0" xlink:href="#mc5e5bf5a0d" y="73.44"/>
      </g>
     </g>
     <g id="line2d_34">
      <g>
       <use style="stroke:#000000;stroke-width:0.5;" x="388.8" xlink:href="#m6252f84aed" y="73.44"/>
      </g>
     </g>
     <g id="text_12">
      <!-- 0.8 -->
      <g transform="translate(34.096875 76.199375)scale(0.1 -0.1)">
       <use xlink:href="#BitstreamVeraSans-Roman-30"/>
       <use x="63.623046875" xlink:href="#BitstreamVeraSans-Roman-2e"/>
       <use x="95.41015625" xlink:href="#BitstreamVeraSans-Roman-38"/>
      </g>
     </g>
    </g>
    <g id="ytick_6">
     <g id="line2d_35">
      <path clip-path="url(#p1ff24d9412)" d="M 54 28.8 
L 388.8 28.8 
" style="fill:none;stroke:#000000;stroke-dasharray:1.000000,3.000000;stroke-dashoffset:0.0;stroke-width:0.5;"/>
     </g>
     <g id="line2d_36">
      <g>
       <use style="stroke:#000000;stroke-width:0.5;" x="54.0" xlink:href="#mc5e5bf5a0d" y="28.8"/>
      </g>
     </g>
     <g id="line2d_37">
      <g>
       <use style="stroke:#000000;stroke-width:0.5;" x="388.8" xlink:href="#m6252f84aed" y="28.8"/>
      </g>
     </g>
     <g id="text_13">
      <!-- 1.0 -->
      <g transform="translate(34.096875 31.559375)scale(0.1 -0.1)">
       <use xlink:href="#BitstreamVeraSans-Roman-31"/>
       <use x="63.623046875" xlink:href="#BitstreamVeraSans-Roman-2e"/>
       <use x="95.41015625" xlink:href="#BitstreamVeraSans-Roman-30"/>
      </g>
     </g>
    </g>
    <g id="text_14">
     <!-- X1 -->
     <g transform="translate(27.0171875 147.00625)rotate(-90.0)scale(0.1 -0.1)">
      <use xlink:href="#BitstreamVeraSans-Roman-58"/>
      <use x="68.505859375" xlink:href="#BitstreamVeraSans-Roman-31"/>
     </g>
    </g>
   </g>
   <g id="text_15">
    <g clip-path="url(#p1ff24d9412)">
     <!-- 0.283923 -->
     <defs>
      <path d="M 40.578125 39.3125 
Q 47.65625 37.796875 51.625 33 
Q 55.609375 28.21875 55.609375 21.1875 
Q 55.609375 10.40625 48.1875 4.484375 
Q 40.765625 -1.421875 27.09375 -1.421875 
Q 22.515625 -1.421875 17.65625 -0.515625 
Q 12.796875 0.390625 7.625 2.203125 
L 7.625 11.71875 
Q 11.71875 9.328125 16.59375 8.109375 
Q 21.484375 6.890625 26.8125 6.890625 
Q 36.078125 6.890625 40.9375 10.546875 
Q 45.796875 14.203125 45.796875 21.1875 
Q 45.796875 27.640625 41.28125 31.265625 
Q 36.765625 34.90625 28.71875 34.90625 
L 20.21875 34.90625 
L 20.21875 43.015625 
L 29.109375 43.015625 
Q 36.375 43.015625 40.234375 45.921875 
Q 44.09375 48.828125 44.09375 54.296875 
Q 44.09375 59.90625 40.109375 62.90625 
Q 36.140625 65.921875 28.71875 65.921875 
Q 24.65625 65.921875 20.015625 65.03125 
Q 15.375 64.15625 9.8125 62.3125 
L 9.8125 71.09375 
Q 15.4375 72.65625 20.34375 73.4375 
Q 25.25 74.21875 29.59375 74.21875 
Q 40.828125 74.21875 47.359375 69.109375 
Q 53.90625 64.015625 53.90625 55.328125 
Q 53.90625 49.265625 50.4375 45.09375 
Q 46.96875 40.921875 40.578125 39.3125 
" id="BitstreamVeraSans-Roman-33"/>
      <path d="M 10.984375 1.515625 
L 10.984375 10.5 
Q 14.703125 8.734375 18.5 7.8125 
Q 22.3125 6.890625 25.984375 6.890625 
Q 35.75 6.890625 40.890625 13.453125 
Q 46.046875 20.015625 46.78125 33.40625 
Q 43.953125 29.203125 39.59375 26.953125 
Q 35.25 24.703125 29.984375 24.703125 
Q 19.046875 24.703125 12.671875 31.3125 
Q 6.296875 37.9375 6.296875 49.421875 
Q 6.296875 60.640625 12.9375 67.421875 
Q 19.578125 74.21875 30.609375 74.21875 
Q 43.265625 74.21875 49.921875 64.515625 
Q 56.59375 54.828125 56.59375 36.375 
Q 56.59375 19.140625 48.40625 8.859375 
Q 40.234375 -1.421875 26.421875 -1.421875 
Q 22.703125 -1.421875 18.890625 -0.6875 
Q 15.09375 0.046875 10.984375 1.515625 
M 30.609375 32.421875 
Q 37.25 32.421875 41.125 36.953125 
Q 45.015625 41.5 45.015625 49.421875 
Q 45.015625 57.28125 41.125 61.84375 
Q 37.25 66.40625 30.609375 66.40625 
Q 23.96875 66.40625 20.09375 61.84375 
Q 16.21875 57.28125 16.21875 49.421875 
Q 16.21875 41.5 20.09375 36.953125 
Q 23.96875 32.421875 30.609375 32.421875 
" id="BitstreamVeraSans-Roman-39"/>
     </defs>
     <g style="fill:#0000ff;" transform="translate(286.020942811 31.4450268552)rotate(-0.18413196270714138)scale(0.08 -0.08)">
      <use xlink:href="#BitstreamVeraSans-Roman-30"/>
      <use x="63.623046875" xlink:href="#BitstreamVeraSans-Roman-2e"/>
      <use x="95.41015625" xlink:href="#BitstreamVeraSans-Roman-32"/>
      <use x="159.033203125" xlink:href="#BitstreamVeraSans-Roman-38"/>
      <use x="222.65625" xlink:href="#BitstreamVeraSans-Roman-33"/>
      <use x="286.279296875" xlink:href="#BitstreamVeraSans-Roman-39"/>
      <use x="349.90234375" xlink:href="#BitstreamVeraSans-Roman-32"/>
      <use x="413.525390625" xlink:href="#BitstreamVeraSans-Roman-33"/>
     </g>
    </g>
   </g>
   <g id="text_16">
    <g clip-path="url(#p1ff24d9412)">
     <!-- 0.619738 -->
     <defs>
      <path d="M 8.203125 72.90625 
L 55.078125 72.90625 
L 55.078125 68.703125 
L 28.609375 0 
L 18.3125 0 
L 43.21875 64.59375 
L 8.203125 64.59375 
z
" id="BitstreamVeraSans-Roman-37"/>
     </defs>
     <g style="fill:#0000ff;" transform="translate(87.2411879764 253.721506054)rotate(-0.37699517130385024)scale(0.08 -0.08)">
      <use xlink:href="#BitstreamVeraSans-Roman-30"/>
      <use x="63.623046875" xlink:href="#BitstreamVeraSans-Roman-2e"/>
      <use x="95.41015625" xlink:href="#BitstreamVeraSans-Roman-36"/>
      <use x="159.033203125" xlink:href="#BitstreamVeraSans-Roman-31"/>
      <use x="222.65625" xlink:href="#BitstreamVeraSans-Roman-39"/>
      <use x="286.279296875" xlink:href="#BitstreamVeraSans-Roman-37"/>
      <use x="349.90234375" xlink:href="#BitstreamVeraSans-Roman-33"/>
      <use x="413.525390625" xlink:href="#BitstreamVeraSans-Roman-38"/>
     </g>
    </g>
   </g>
   <g id="text_17">
    <g clip-path="url(#p1ff24d9412)">
     <!-- 0.790109 -->
     <g style="fill:#0000ff;" transform="translate(57.3283548083 218.813910402)rotate(-88.8594032305153)scale(0.08 -0.08)">
      <use xlink:href="#BitstreamVeraSans-Roman-30"/>
      <use x="63.623046875" xlink:href="#BitstreamVeraSans-Roman-2e"/>
      <use x="95.41015625" xlink:href="#BitstreamVeraSans-Roman-37"/>
      <use x="159.033203125" xlink:href="#BitstreamVeraSans-Roman-39"/>
      <use x="222.65625" xlink:href="#BitstreamVeraSans-Roman-30"/>
      <use x="286.279296875" xlink:href="#BitstreamVeraSans-Roman-31"/>
      <use x="349.90234375" xlink:href="#BitstreamVeraSans-Roman-30"/>
      <use x="413.525390625" xlink:href="#BitstreamVeraSans-Roman-39"/>
     </g>
    </g>
   </g>
   <g id="text_18">
    <g clip-path="url(#p1ff24d9412)">
     <!-- 0.906787 -->
     <g style="fill:#0000ff;" transform="translate(237.58069156 228.71863805)rotate(-37.363493180984854)scale(0.08 -0.08)">
      <use xlink:href="#BitstreamVeraSans-Roman-30"/>
      <use x="63.623046875" xlink:href="#BitstreamVeraSans-Roman-2e"/>
      <use x="95.41015625" xlink:href="#BitstreamVeraSans-Roman-39"/>
      <use x="159.033203125" xlink:href="#BitstreamVeraSans-Roman-30"/>
      <use x="222.65625" xlink:href="#BitstreamVeraSans-Roman-36"/>
      <use x="286.279296875" xlink:href="#BitstreamVeraSans-Roman-37"/>
      <use x="349.90234375" xlink:href="#BitstreamVeraSans-Roman-38"/>
      <use x="413.525390625" xlink:href="#BitstreamVeraSans-Roman-37"/>
     </g>
    </g>
   </g>
   <g id="text_19">
    <g clip-path="url(#p1ff24d9412)">
     <!-- 0.988586 -->
     <defs>
      <path d="M 10.796875 72.90625 
L 49.515625 72.90625 
L 49.515625 64.59375 
L 19.828125 64.59375 
L 19.828125 46.734375 
Q 21.96875 47.46875 24.109375 47.828125 
Q 26.265625 48.1875 28.421875 48.1875 
Q 40.625 48.1875 47.75 41.5 
Q 54.890625 34.8125 54.890625 23.390625 
Q 54.890625 11.625 47.5625 5.09375 
Q 40.234375 -1.421875 26.90625 -1.421875 
Q 22.3125 -1.421875 17.546875 -0.640625 
Q 12.796875 0.140625 7.71875 1.703125 
L 7.71875 11.625 
Q 12.109375 9.234375 16.796875 8.0625 
Q 21.484375 6.890625 26.703125 6.890625 
Q 35.15625 6.890625 40.078125 11.328125 
Q 45.015625 15.765625 45.015625 23.390625 
Q 45.015625 31 40.078125 35.4375 
Q 35.15625 39.890625 26.703125 39.890625 
Q 22.75 39.890625 18.8125 39.015625 
Q 14.890625 38.140625 10.796875 36.28125 
z
" id="BitstreamVeraSans-Roman-35"/>
     </defs>
     <g style="fill:#0000ff;" transform="translate(325.047761221 148.80545595)rotate(-23.21338722001038)scale(0.08 -0.08)">
      <use xlink:href="#BitstreamVeraSans-Roman-30"/>
      <use x="63.623046875" xlink:href="#BitstreamVeraSans-Roman-2e"/>
      <use x="95.41015625" xlink:href="#BitstreamVeraSans-Roman-39"/>
      <use x="159.033203125" xlink:href="#BitstreamVeraSans-Roman-38"/>
      <use x="222.65625" xlink:href="#BitstreamVeraSans-Roman-38"/>
      <use x="286.279296875" xlink:href="#BitstreamVeraSans-Roman-35"/>
      <use x="349.90234375" xlink:href="#BitstreamVeraSans-Roman-38"/>
      <use x="413.525390625" xlink:href="#BitstreamVeraSans-Roman-36"/>
     </g>
    </g>
   </g>
   <g id="text_20">
    <g clip-path="url(#p1ff24d9412)">
     <!-- 1.04559 -->
     <g style="fill:#0000ff;" transform="translate(203.347734756 223.712324665)rotate(-58.9180844502456)scale(0.08 -0.08)">
      <use xlink:href="#BitstreamVeraSans-Roman-31"/>
      <use x="63.623046875" xlink:href="#BitstreamVeraSans-Roman-2e"/>
      <use x="95.41015625" xlink:href="#BitstreamVeraSans-Roman-30"/>
      <use x="159.033203125" xlink:href="#BitstreamVeraSans-Roman-34"/>
      <use x="222.65625" xlink:href="#BitstreamVeraSans-Roman-35"/>
      <use x="286.279296875" xlink:href="#BitstreamVeraSans-Roman-35"/>
      <use x="349.90234375" xlink:href="#BitstreamVeraSans-Roman-39"/>
     </g>
    </g>
   </g>
   <g id="text_21">
    <g clip-path="url(#p1ff24d9412)">
     <!-- 1.07782 -->
     <g style="fill:#0000ff;" transform="translate(113.795232223 158.898534501)rotate(-8.192306079222107)scale(0.08 -0.08)">
      <use xlink:href="#BitstreamVeraSans-Roman-31"/>
      <use x="63.623046875" xlink:href="#BitstreamVeraSans-Roman-2e"/>
      <use x="95.41015625" xlink:href="#BitstreamVeraSans-Roman-30"/>
      <use x="159.033203125" xlink:href="#BitstreamVeraSans-Roman-37"/>
      <use x="222.65625" xlink:href="#BitstreamVeraSans-Roman-37"/>
      <use x="286.279296875" xlink:href="#BitstreamVeraSans-Roman-38"/>
      <use x="349.90234375" xlink:href="#BitstreamVeraSans-Roman-32"/>
     </g>
    </g>
   </g>
   <g id="text_22">
    <g clip-path="url(#p1ff24d9412)">
     <!-- 1.07782 -->
     <g style="fill:#0000ff;" transform="translate(388.511137341 97.7074357616)rotate(-88.44912528224651)scale(0.08 -0.08)">
      <use xlink:href="#BitstreamVeraSans-Roman-31"/>
      <use x="63.623046875" xlink:href="#BitstreamVeraSans-Roman-2e"/>
      <use x="95.41015625" xlink:href="#BitstreamVeraSans-Roman-30"/>
      <use x="159.033203125" xlink:href="#BitstreamVeraSans-Roman-37"/>
      <use x="222.65625" xlink:href="#BitstreamVeraSans-Roman-37"/>
      <use x="286.279296875" xlink:href="#BitstreamVeraSans-Roman-38"/>
      <use x="349.90234375" xlink:href="#BitstreamVeraSans-Roman-32"/>
     </g>
    </g>
   </g>
   <g id="text_23">
    <g clip-path="url(#p1ff24d9412)">
     <!-- 1.12752 -->
     <g style="fill:#0000ff;" transform="translate(161.149987366 255.385616966)rotate(-48.47980974318361)scale(0.08 -0.08)">
      <use xlink:href="#BitstreamVeraSans-Roman-31"/>
      <use x="63.623046875" xlink:href="#BitstreamVeraSans-Roman-2e"/>
      <use x="95.41015625" xlink:href="#BitstreamVeraSans-Roman-31"/>
      <use x="159.033203125" xlink:href="#BitstreamVeraSans-Roman-32"/>
      <use x="222.65625" xlink:href="#BitstreamVeraSans-Roman-37"/>
      <use x="286.279296875" xlink:href="#BitstreamVeraSans-Roman-35"/>
      <use x="349.90234375" xlink:href="#BitstreamVeraSans-Roman-32"/>
     </g>
    </g>
   </g>
   <g id="text_24">
    <g clip-path="url(#p1ff24d9412)">
     <!-- 1.12752 -->
     <g style="fill:#0000ff;" transform="translate(259.670792604 57.7879531065)rotate(-273.9559044742483)scale(0.08 -0.08)">
      <use xlink:href="#BitstreamVeraSans-Roman-31"/>
      <use x="63.623046875" xlink:href="#BitstreamVeraSans-Roman-2e"/>
      <use x="95.41015625" xlink:href="#BitstreamVeraSans-Roman-31"/>
      <use x="159.033203125" xlink:href="#BitstreamVeraSans-Roman-32"/>
      <use x="222.65625" xlink:href="#BitstreamVeraSans-Roman-37"/>
      <use x="286.279296875" xlink:href="#BitstreamVeraSans-Roman-35"/>
      <use x="349.90234375" xlink:href="#BitstreamVeraSans-Roman-32"/>
     </g>
    </g>
   </g>
   <g id="text_25">
    <g clip-path="url(#p1ff24d9412)">
     <!-- 1.23152 -->
     <g style="fill:#0000ff;" transform="translate(43.3819897434 236.302724611)rotate(-305.37328251179383)scale(0.08 -0.08)">
      <use xlink:href="#BitstreamVeraSans-Roman-31"/>
      <use x="63.623046875" xlink:href="#BitstreamVeraSans-Roman-2e"/>
      <use x="95.41015625" xlink:href="#BitstreamVeraSans-Roman-32"/>
      <use x="159.033203125" xlink:href="#BitstreamVeraSans-Roman-33"/>
      <use x="222.65625" xlink:href="#BitstreamVeraSans-Roman-31"/>
      <use x="286.279296875" xlink:href="#BitstreamVeraSans-Roman-35"/>
      <use x="349.90234375" xlink:href="#BitstreamVeraSans-Roman-32"/>
     </g>
    </g>
   </g>
   <g id="text_26">
    <g clip-path="url(#p1ff24d9412)">
     <!-- 1.23152 -->
     <g style="fill:#0000ff;" transform="translate(376.666536216 20.0777246108)rotate(-305.37328251179366)scale(0.08 -0.08)">
      <use xlink:href="#BitstreamVeraSans-Roman-31"/>
      <use x="63.623046875" xlink:href="#BitstreamVeraSans-Roman-2e"/>
      <use x="95.41015625" xlink:href="#BitstreamVeraSans-Roman-32"/>
      <use x="159.033203125" xlink:href="#BitstreamVeraSans-Roman-33"/>
      <use x="222.65625" xlink:href="#BitstreamVeraSans-Roman-31"/>
      <use x="286.279296875" xlink:href="#BitstreamVeraSans-Roman-35"/>
      <use x="349.90234375" xlink:href="#BitstreamVeraSans-Roman-32"/>
     </g>
    </g>
   </g>
   <g id="text_27">
    <g clip-path="url(#p1ff24d9412)">
     <!-- 1.53234 -->
     <g style="fill:#0000ff;" transform="translate(79.6307435896 216.791676348)rotate(-326.4259370339292)scale(0.08 -0.08)">
      <use xlink:href="#BitstreamVeraSans-Roman-31"/>
      <use x="63.623046875" xlink:href="#BitstreamVeraSans-Roman-2e"/>
      <use x="95.41015625" xlink:href="#BitstreamVeraSans-Roman-35"/>
      <use x="159.033203125" xlink:href="#BitstreamVeraSans-Roman-33"/>
      <use x="222.65625" xlink:href="#BitstreamVeraSans-Roman-32"/>
      <use x="286.279296875" xlink:href="#BitstreamVeraSans-Roman-33"/>
      <use x="349.90234375" xlink:href="#BitstreamVeraSans-Roman-34"/>
     </g>
    </g>
   </g>
   <g id="text_28">
    <g clip-path="url(#p1ff24d9412)">
     <!-- 1.53234 -->
     <g style="fill:#0000ff;" transform="translate(338.407410669 53.6382303989)rotate(-329.291133078165)scale(0.08 -0.08)">
      <use xlink:href="#BitstreamVeraSans-Roman-31"/>
      <use x="63.623046875" xlink:href="#BitstreamVeraSans-Roman-2e"/>
      <use x="95.41015625" xlink:href="#BitstreamVeraSans-Roman-35"/>
      <use x="159.033203125" xlink:href="#BitstreamVeraSans-Roman-33"/>
      <use x="222.65625" xlink:href="#BitstreamVeraSans-Roman-32"/>
      <use x="286.279296875" xlink:href="#BitstreamVeraSans-Roman-33"/>
      <use x="349.90234375" xlink:href="#BitstreamVeraSans-Roman-34"/>
     </g>
    </g>
   </g>
   <g id="text_29">
    <!-- [X0,X1] iso-PDF -->
    <defs>
     <path d="M 9.8125 72.90625 
L 51.703125 72.90625 
L 51.703125 64.59375 
L 19.671875 64.59375 
L 19.671875 43.109375 
L 48.578125 43.109375 
L 48.578125 34.8125 
L 19.671875 34.8125 
L 19.671875 0 
L 9.8125 0 
z
" id="BitstreamVeraSans-Roman-46"/>
     <path d="M 8.59375 75.984375 
L 29.296875 75.984375 
L 29.296875 69 
L 17.578125 69 
L 17.578125 -6.203125 
L 29.296875 -6.203125 
L 29.296875 -13.1875 
L 8.59375 -13.1875 
z
" id="BitstreamVeraSans-Roman-5b"/>
     <path d="M 4.890625 31.390625 
L 31.203125 31.390625 
L 31.203125 23.390625 
L 4.890625 23.390625 
z
" id="BitstreamVeraSans-Roman-2d"/>
     <path d="M 30.421875 75.984375 
L 30.421875 -13.1875 
L 9.71875 -13.1875 
L 9.71875 -6.203125 
L 21.390625 -6.203125 
L 21.390625 69 
L 9.71875 69 
L 9.71875 75.984375 
z
" id="BitstreamVeraSans-Roman-5d"/>
     <path d="M 19.671875 64.796875 
L 19.671875 8.109375 
L 31.59375 8.109375 
Q 46.6875 8.109375 53.6875 14.9375 
Q 60.6875 21.78125 60.6875 36.53125 
Q 60.6875 51.171875 53.6875 57.984375 
Q 46.6875 64.796875 31.59375 64.796875 
z
M 9.8125 72.90625 
L 30.078125 72.90625 
Q 51.265625 72.90625 61.171875 64.09375 
Q 71.09375 55.28125 71.09375 36.53125 
Q 71.09375 17.671875 61.125 8.828125 
Q 51.171875 0 30.078125 0 
L 9.8125 0 
z
" id="BitstreamVeraSans-Roman-44"/>
     <path d="M 9.421875 54.6875 
L 18.40625 54.6875 
L 18.40625 0 
L 9.421875 0 
z
M 9.421875 75.984375 
L 18.40625 75.984375 
L 18.40625 64.59375 
L 9.421875 64.59375 
z
" id="BitstreamVeraSans-Roman-69"/>
     <path d="M 11.71875 12.40625 
L 22.015625 12.40625 
L 22.015625 4 
L 14.015625 -11.625 
L 7.71875 -11.625 
L 11.71875 4 
z
" id="BitstreamVeraSans-Roman-2c"/>
     <path d="M 19.671875 64.796875 
L 19.671875 37.40625 
L 32.078125 37.40625 
Q 38.96875 37.40625 42.71875 40.96875 
Q 46.484375 44.53125 46.484375 51.125 
Q 46.484375 57.671875 42.71875 61.234375 
Q 38.96875 64.796875 32.078125 64.796875 
z
M 9.8125 72.90625 
L 32.078125 72.90625 
Q 44.34375 72.90625 50.609375 67.359375 
Q 56.890625 61.8125 56.890625 51.125 
Q 56.890625 40.328125 50.609375 34.8125 
Q 44.34375 29.296875 32.078125 29.296875 
L 19.671875 29.296875 
L 19.671875 0 
L 9.8125 0 
z
" id="BitstreamVeraSans-Roman-50"/>
     <path id="BitstreamVeraSans-Roman-20"/>
     <path d="M 44.28125 53.078125 
L 44.28125 44.578125 
Q 40.484375 46.53125 36.375 47.5 
Q 32.28125 48.484375 27.875 48.484375 
Q 21.1875 48.484375 17.84375 46.4375 
Q 14.5 44.390625 14.5 40.28125 
Q 14.5 37.15625 16.890625 35.375 
Q 19.28125 33.59375 26.515625 31.984375 
L 29.59375 31.296875 
Q 39.15625 29.25 43.1875 25.515625 
Q 47.21875 21.78125 47.21875 15.09375 
Q 47.21875 7.46875 41.1875 3.015625 
Q 35.15625 -1.421875 24.609375 -1.421875 
Q 20.21875 -1.421875 15.453125 -0.5625 
Q 10.6875 0.296875 5.421875 2 
L 5.421875 11.28125 
Q 10.40625 8.6875 15.234375 7.390625 
Q 20.0625 6.109375 24.8125 6.109375 
Q 31.15625 6.109375 34.5625 8.28125 
Q 37.984375 10.453125 37.984375 14.40625 
Q 37.984375 18.0625 35.515625 20.015625 
Q 33.0625 21.96875 24.703125 23.78125 
L 21.578125 24.515625 
Q 13.234375 26.265625 9.515625 29.90625 
Q 5.8125 33.546875 5.8125 39.890625 
Q 5.8125 47.609375 11.28125 51.796875 
Q 16.75 56 26.8125 56 
Q 31.78125 56 36.171875 55.265625 
Q 40.578125 54.546875 44.28125 53.078125 
" id="BitstreamVeraSans-Roman-73"/>
     <path d="M 30.609375 48.390625 
Q 23.390625 48.390625 19.1875 42.75 
Q 14.984375 37.109375 14.984375 27.296875 
Q 14.984375 17.484375 19.15625 11.84375 
Q 23.34375 6.203125 30.609375 6.203125 
Q 37.796875 6.203125 41.984375 11.859375 
Q 46.1875 17.53125 46.1875 27.296875 
Q 46.1875 37.015625 41.984375 42.703125 
Q 37.796875 48.390625 30.609375 48.390625 
M 30.609375 56 
Q 42.328125 56 49.015625 48.375 
Q 55.71875 40.765625 55.71875 27.296875 
Q 55.71875 13.875 49.015625 6.21875 
Q 42.328125 -1.421875 30.609375 -1.421875 
Q 18.84375 -1.421875 12.171875 6.21875 
Q 5.515625 13.875 5.515625 27.296875 
Q 5.515625 40.765625 12.171875 48.375 
Q 18.84375 56 30.609375 56 
" id="BitstreamVeraSans-Roman-6f"/>
    </defs>
    <g transform="translate(174.73125 23.8)scale(0.12 -0.12)">
     <use xlink:href="#BitstreamVeraSans-Roman-5b"/>
     <use x="39.013671875" xlink:href="#BitstreamVeraSans-Roman-58"/>
     <use x="107.51953125" xlink:href="#BitstreamVeraSans-Roman-30"/>
     <use x="171.142578125" xlink:href="#BitstreamVeraSans-Roman-2c"/>
     <use x="202.9296875" xlink:href="#BitstreamVeraSans-Roman-58"/>
     <use x="271.435546875" xlink:href="#BitstreamVeraSans-Roman-31"/>
     <use x="335.05859375" xlink:href="#BitstreamVeraSans-Roman-5d"/>
     <use x="374.072265625" xlink:href="#BitstreamVeraSans-Roman-20"/>
     <use x="405.859375" xlink:href="#BitstreamVeraSans-Roman-69"/>
     <use x="433.642578125" xlink:href="#BitstreamVeraSans-Roman-73"/>
     <use x="485.7421875" xlink:href="#BitstreamVeraSans-Roman-6f"/>
     <use x="546.939453125" xlink:href="#BitstreamVeraSans-Roman-2d"/>
     <use x="583.0234375" xlink:href="#BitstreamVeraSans-Roman-50"/>
     <use x="643.326171875" xlink:href="#BitstreamVeraSans-Roman-44"/>
     <use x="720.328125" xlink:href="#BitstreamVeraSans-Roman-46"/>
    </g>
   </g>
   <g id="legend_1">
    <g id="patch_7">
     <path d="M 304.084375 185.58125 
L 383.8 185.58125 
Q 385.8 185.58125 385.8 183.58125 
L 385.8 37.8 
Q 385.8 35.8 383.8 35.8 
L 304.084375 35.8 
Q 302.084375 35.8 302.084375 37.8 
L 302.084375 183.58125 
Q 302.084375 185.58125 304.084375 185.58125 
z
" style="fill:#4c4c4c;opacity:0.5;stroke:#4c4c4c;stroke-linejoin:miter;"/>
    </g>
    <g id="patch_8">
     <path d="M 302.084375 183.58125 
L 381.8 183.58125 
Q 383.8 183.58125 383.8 181.58125 
L 383.8 35.8 
Q 383.8 33.8 381.8 33.8 
L 302.084375 33.8 
Q 300.084375 33.8 300.084375 35.8 
L 300.084375 181.58125 
Q 300.084375 183.58125 302.084375 183.58125 
z
" style="fill:#ffffff;stroke:#000000;stroke-linejoin:miter;"/>
    </g>
    <g id="line2d_38">
     <path d="M 307.084375 41.898438 
L 314.084375 41.898438 
L 321.084375 41.898438 
" style="fill:none;stroke:#0000ff;stroke-linecap:square;"/>
    </g>
    <g id="text_30">
     <!-- 0.283923 -->
     <g transform="translate(332.084375 45.3984375)scale(0.1 -0.1)">
      <use xlink:href="#BitstreamVeraSans-Roman-30"/>
      <use x="63.623046875" xlink:href="#BitstreamVeraSans-Roman-2e"/>
      <use x="95.41015625" xlink:href="#BitstreamVeraSans-Roman-32"/>
      <use x="159.033203125" xlink:href="#BitstreamVeraSans-Roman-38"/>
      <use x="222.65625" xlink:href="#BitstreamVeraSans-Roman-33"/>
      <use x="286.279296875" xlink:href="#BitstreamVeraSans-Roman-39"/>
      <use x="349.90234375" xlink:href="#BitstreamVeraSans-Roman-32"/>
      <use x="413.525390625" xlink:href="#BitstreamVeraSans-Roman-33"/>
     </g>
    </g>
    <g id="line2d_39">
     <path d="M 307.084375 56.576563 
L 314.084375 56.576563 
L 321.084375 56.576563 
" style="fill:none;stroke:#0000ff;stroke-linecap:square;"/>
    </g>
    <g id="text_31">
     <!-- 0.619738 -->
     <g transform="translate(332.084375 60.0765625)scale(0.1 -0.1)">
      <use xlink:href="#BitstreamVeraSans-Roman-30"/>
      <use x="63.623046875" xlink:href="#BitstreamVeraSans-Roman-2e"/>
      <use x="95.41015625" xlink:href="#BitstreamVeraSans-Roman-36"/>
      <use x="159.033203125" xlink:href="#BitstreamVeraSans-Roman-31"/>
      <use x="222.65625" xlink:href="#BitstreamVeraSans-Roman-39"/>
      <use x="286.279296875" xlink:href="#BitstreamVeraSans-Roman-37"/>
      <use x="349.90234375" xlink:href="#BitstreamVeraSans-Roman-33"/>
      <use x="413.525390625" xlink:href="#BitstreamVeraSans-Roman-38"/>
     </g>
    </g>
    <g id="line2d_40">
     <path d="M 307.084375 71.254688 
L 314.084375 71.254688 
L 321.084375 71.254688 
" style="fill:none;stroke:#0000ff;stroke-linecap:square;"/>
    </g>
    <g id="text_32">
     <!-- 0.790109 -->
     <g transform="translate(332.084375 74.7546875)scale(0.1 -0.1)">
      <use xlink:href="#BitstreamVeraSans-Roman-30"/>
      <use x="63.623046875" xlink:href="#BitstreamVeraSans-Roman-2e"/>
      <use x="95.41015625" xlink:href="#BitstreamVeraSans-Roman-37"/>
      <use x="159.033203125" xlink:href="#BitstreamVeraSans-Roman-39"/>
      <use x="222.65625" xlink:href="#BitstreamVeraSans-Roman-30"/>
      <use x="286.279296875" xlink:href="#BitstreamVeraSans-Roman-31"/>
      <use x="349.90234375" xlink:href="#BitstreamVeraSans-Roman-30"/>
      <use x="413.525390625" xlink:href="#BitstreamVeraSans-Roman-39"/>
     </g>
    </g>
    <g id="line2d_41">
     <path d="M 307.084375 85.932813 
L 314.084375 85.932813 
L 321.084375 85.932813 
" style="fill:none;stroke:#0000ff;stroke-linecap:square;"/>
    </g>
    <g id="text_33">
     <!-- 0.906787 -->
     <g transform="translate(332.084375 89.4328125)scale(0.1 -0.1)">
      <use xlink:href="#BitstreamVeraSans-Roman-30"/>
      <use x="63.623046875" xlink:href="#BitstreamVeraSans-Roman-2e"/>
      <use x="95.41015625" xlink:href="#BitstreamVeraSans-Roman-39"/>
      <use x="159.033203125" xlink:href="#BitstreamVeraSans-Roman-30"/>
      <use x="222.65625" xlink:href="#BitstreamVeraSans-Roman-36"/>
      <use x="286.279296875" xlink:href="#BitstreamVeraSans-Roman-37"/>
      <use x="349.90234375" xlink:href="#BitstreamVeraSans-Roman-38"/>
      <use x="413.525390625" xlink:href="#BitstreamVeraSans-Roman-37"/>
     </g>
    </g>
    <g id="line2d_42">
     <path d="M 307.084375 100.610938 
L 314.084375 100.610938 
L 321.084375 100.610938 
" style="fill:none;stroke:#0000ff;stroke-linecap:square;"/>
    </g>
    <g id="text_34">
     <!-- 0.988586 -->
     <g transform="translate(332.084375 104.1109375)scale(0.1 -0.1)">
      <use xlink:href="#BitstreamVeraSans-Roman-30"/>
      <use x="63.623046875" xlink:href="#BitstreamVeraSans-Roman-2e"/>
      <use x="95.41015625" xlink:href="#BitstreamVeraSans-Roman-39"/>
      <use x="159.033203125" xlink:href="#BitstreamVeraSans-Roman-38"/>
      <use x="222.65625" xlink:href="#BitstreamVeraSans-Roman-38"/>
      <use x="286.279296875" xlink:href="#BitstreamVeraSans-Roman-35"/>
      <use x="349.90234375" xlink:href="#BitstreamVeraSans-Roman-38"/>
      <use x="413.525390625" xlink:href="#BitstreamVeraSans-Roman-36"/>
     </g>
    </g>
    <g id="line2d_43">
     <path d="M 307.084375 115.289062 
L 314.084375 115.289062 
L 321.084375 115.289062 
" style="fill:none;stroke:#0000ff;stroke-linecap:square;"/>
    </g>
    <g id="text_35">
     <!-- 1.04559 -->
     <g transform="translate(332.084375 118.7890625)scale(0.1 -0.1)">
      <use xlink:href="#BitstreamVeraSans-Roman-31"/>
      <use x="63.623046875" xlink:href="#BitstreamVeraSans-Roman-2e"/>
      <use x="95.41015625" xlink:href="#BitstreamVeraSans-Roman-30"/>
      <use x="159.033203125" xlink:href="#BitstreamVeraSans-Roman-34"/>
      <use x="222.65625" xlink:href="#BitstreamVeraSans-Roman-35"/>
      <use x="286.279296875" xlink:href="#BitstreamVeraSans-Roman-35"/>
      <use x="349.90234375" xlink:href="#BitstreamVeraSans-Roman-39"/>
     </g>
    </g>
    <g id="line2d_44">
     <path d="M 307.084375 129.967188 
L 314.084375 129.967188 
L 321.084375 129.967188 
" style="fill:none;stroke:#0000ff;stroke-linecap:square;"/>
    </g>
    <g id="text_36">
     <!-- 1.07782 -->
     <g transform="translate(332.084375 133.4671875)scale(0.1 -0.1)">
      <use xlink:href="#BitstreamVeraSans-Roman-31"/>
      <use x="63.623046875" xlink:href="#BitstreamVeraSans-Roman-2e"/>
      <use x="95.41015625" xlink:href="#BitstreamVeraSans-Roman-30"/>
      <use x="159.033203125" xlink:href="#BitstreamVeraSans-Roman-37"/>
      <use x="222.65625" xlink:href="#BitstreamVeraSans-Roman-37"/>
      <use x="286.279296875" xlink:href="#BitstreamVeraSans-Roman-38"/>
      <use x="349.90234375" xlink:href="#BitstreamVeraSans-Roman-32"/>
     </g>
    </g>
    <g id="line2d_45">
     <path d="M 307.084375 144.645312 
L 314.084375 144.645312 
L 321.084375 144.645312 
" style="fill:none;stroke:#0000ff;stroke-linecap:square;"/>
    </g>
    <g id="text_37">
     <!-- 1.12752 -->
     <g transform="translate(332.084375 148.1453125)scale(0.1 -0.1)">
      <use xlink:href="#BitstreamVeraSans-Roman-31"/>
      <use x="63.623046875" xlink:href="#BitstreamVeraSans-Roman-2e"/>
      <use x="95.41015625" xlink:href="#BitstreamVeraSans-Roman-31"/>
      <use x="159.033203125" xlink:href="#BitstreamVeraSans-Roman-32"/>
      <use x="222.65625" xlink:href="#BitstreamVeraSans-Roman-37"/>
      <use x="286.279296875" xlink:href="#BitstreamVeraSans-Roman-35"/>
      <use x="349.90234375" xlink:href="#BitstreamVeraSans-Roman-32"/>
     </g>
    </g>
    <g id="line2d_46">
     <path d="M 307.084375 159.323438 
L 314.084375 159.323438 
L 321.084375 159.323438 
" style="fill:none;stroke:#0000ff;stroke-linecap:square;"/>
    </g>
    <g id="text_38">
     <!-- 1.23152 -->
     <g transform="translate(332.084375 162.8234375)scale(0.1 -0.1)">
      <use xlink:href="#BitstreamVeraSans-Roman-31"/>
      <use x="63.623046875" xlink:href="#BitstreamVeraSans-Roman-2e"/>
      <use x="95.41015625" xlink:href="#BitstreamVeraSans-Roman-32"/>
      <use x="159.033203125" xlink:href="#BitstreamVeraSans-Roman-33"/>
      <use x="222.65625" xlink:href="#BitstreamVeraSans-Roman-31"/>
      <use x="286.279296875" xlink:href="#BitstreamVeraSans-Roman-35"/>
      <use x="349.90234375" xlink:href="#BitstreamVeraSans-Roman-32"/>
     </g>
    </g>
    <g id="line2d_47">
     <path d="M 307.084375 174.001562 
L 314.084375 174.001562 
L 321.084375 174.001562 
" style="fill:none;stroke:#0000ff;stroke-linecap:square;"/>
    </g>
    <g id="text_39">
     <!-- 1.53234 -->
     <g transform="translate(332.084375 177.5015625)scale(0.1 -0.1)">
      <use xlink:href="#BitstreamVeraSans-Roman-31"/>
      <use x="63.623046875" xlink:href="#BitstreamVeraSans-Roman-2e"/>
      <use x="95.41015625" xlink:href="#BitstreamVeraSans-Roman-35"/>
      <use x="159.033203125" xlink:href="#BitstreamVeraSans-Roman-33"/>
      <use x="222.65625" xlink:href="#BitstreamVeraSans-Roman-32"/>
      <use x="286.279296875" xlink:href="#BitstreamVeraSans-Roman-33"/>
      <use x="349.90234375" xlink:href="#BitstreamVeraSans-Roman-34"/>
     </g>
    </g>
   </g>
  </g>
 </g>
 <defs>
  <clipPath id="p1ff24d9412">
   <rect height="223.2" width="334.8" x="54.0" y="28.8"/>
  </clipPath>
 </defs>
</svg>
