<?xml version="1.0" encoding="utf-8" standalone="no"?>
<!DOCTYPE svg PUBLIC "-//W3C//DTD SVG 1.1//EN"
  "http://www.w3.org/Graphics/SVG/1.1/DTD/svg11.dtd">
<!-- Created with matplotlib (http://matplotlib.org/) -->
<svg height="288pt" version="1.1" viewBox="0 0 432 288" width="432pt" xmlns="http://www.w3.org/2000/svg" xmlns:xlink="http://www.w3.org/1999/xlink">
 <defs>
  <style type="text/css">
*{stroke-linecap:butt;stroke-linejoin:round;}
  </style>
 </defs>
 <g id="figure_1">
  <g id="patch_1">
   <path d="M 0 288 
L 432 288 
L 432 0 
L 0 0 
z
" style="fill:#ffffff;"/>
  </g>
  <g id="axes_1">
   <g id="patch_2">
    <path d="M 54 252 
L 388.8 252 
L 388.8 34.56 
L 54 34.56 
z
" style="fill:#ffffff;"/>
   </g>
   <g id="matplotlib.axis_1">
    <g id="xtick_1">
     <g id="line2d_1">
      <path clip-path="url(#p40f77e2bbf)" d="M 69.218182 252 
L 69.218182 34.56 
" style="fill:none;stroke:#b0b0b0;stroke-linecap:square;stroke-width:0.8;"/>
     </g>
     <g id="line2d_2">
      <defs>
       <path d="M 0 0 
L 0 3.5 
" id="m25be1815ff" style="stroke:#000000;stroke-width:0.8;"/>
      </defs>
      <g>
       <use style="stroke:#000000;stroke-width:0.8;" x="69.218182" xlink:href="#m25be1815ff" y="252"/>
      </g>
     </g>
     <g id="text_1">
      <!-- −1.00 -->
      <defs>
       <path d="M 10.59375 35.5 
L 73.1875 35.5 
L 73.1875 27.203125 
L 10.59375 27.203125 
z
" id="DejaVuSans-2212"/>
       <path d="M 12.40625 8.296875 
L 28.515625 8.296875 
L 28.515625 63.921875 
L 10.984375 60.40625 
L 10.984375 69.390625 
L 28.421875 72.90625 
L 38.28125 72.90625 
L 38.28125 8.296875 
L 54.390625 8.296875 
L 54.390625 0 
L 12.40625 0 
z
" id="DejaVuSans-31"/>
       <path d="M 10.6875 12.40625 
L 21 12.40625 
L 21 0 
L 10.6875 0 
z
" id="DejaVuSans-2e"/>
       <path d="M 31.78125 66.40625 
Q 24.171875 66.40625 20.328125 58.90625 
Q 16.5 51.421875 16.5 36.375 
Q 16.5 21.390625 20.328125 13.890625 
Q 24.171875 6.390625 31.78125 6.390625 
Q 39.453125 6.390625 43.28125 13.890625 
Q 47.125 21.390625 47.125 36.375 
Q 47.125 51.421875 43.28125 58.90625 
Q 39.453125 66.40625 31.78125 66.40625 
z
M 31.78125 74.21875 
Q 44.046875 74.21875 50.515625 64.515625 
Q 56.984375 54.828125 56.984375 36.375 
Q 56.984375 17.96875 50.515625 8.265625 
Q 44.046875 -1.421875 31.78125 -1.421875 
Q 19.53125 -1.421875 13.0625 8.265625 
Q 6.59375 17.96875 6.59375 36.375 
Q 6.59375 54.828125 13.0625 64.515625 
Q 19.53125 74.21875 31.78125 74.21875 
z
" id="DejaVuSans-30"/>
      </defs>
      <g transform="translate(53.895526 266.598437)scale(0.1 -0.1)">
       <use xlink:href="#DejaVuSans-2212"/>
       <use x="83.789062" xlink:href="#DejaVuSans-31"/>
       <use x="147.412109" xlink:href="#DejaVuSans-2e"/>
       <use x="179.199219" xlink:href="#DejaVuSans-30"/>
       <use x="242.822266" xlink:href="#DejaVuSans-30"/>
      </g>
     </g>
    </g>
    <g id="xtick_2">
     <g id="line2d_3">
      <path clip-path="url(#p40f77e2bbf)" d="M 107.263636 252 
L 107.263636 34.56 
" style="fill:none;stroke:#b0b0b0;stroke-linecap:square;stroke-width:0.8;"/>
     </g>
     <g id="line2d_4">
      <g>
       <use style="stroke:#000000;stroke-width:0.8;" x="107.263636" xlink:href="#m25be1815ff" y="252"/>
      </g>
     </g>
     <g id="text_2">
      <!-- −0.75 -->
      <defs>
       <path d="M 8.203125 72.90625 
L 55.078125 72.90625 
L 55.078125 68.703125 
L 28.609375 0 
L 18.3125 0 
L 43.21875 64.59375 
L 8.203125 64.59375 
z
" id="DejaVuSans-37"/>
       <path d="M 10.796875 72.90625 
L 49.515625 72.90625 
L 49.515625 64.59375 
L 19.828125 64.59375 
L 19.828125 46.734375 
Q 21.96875 47.46875 24.109375 47.828125 
Q 26.265625 48.1875 28.421875 48.1875 
Q 40.625 48.1875 47.75 41.5 
Q 54.890625 34.8125 54.890625 23.390625 
Q 54.890625 11.625 47.5625 5.09375 
Q 40.234375 -1.421875 26.90625 -1.421875 
Q 22.3125 -1.421875 17.546875 -0.640625 
Q 12.796875 0.140625 7.71875 1.703125 
L 7.71875 11.625 
Q 12.109375 9.234375 16.796875 8.0625 
Q 21.484375 6.890625 26.703125 6.890625 
Q 35.15625 6.890625 40.078125 11.328125 
Q 45.015625 15.765625 45.015625 23.390625 
Q 45.015625 31 40.078125 35.4375 
Q 35.15625 39.890625 26.703125 39.890625 
Q 22.75 39.890625 18.8125 39.015625 
Q 14.890625 38.140625 10.796875 36.28125 
z
" id="DejaVuSans-35"/>
      </defs>
      <g transform="translate(91.94098 266.598437)scale(0.1 -0.1)">
       <use xlink:href="#DejaVuSans-2212"/>
       <use x="83.789062" xlink:href="#DejaVuSans-30"/>
       <use x="147.412109" xlink:href="#DejaVuSans-2e"/>
       <use x="179.199219" xlink:href="#DejaVuSans-37"/>
       <use x="242.822266" xlink:href="#DejaVuSans-35"/>
      </g>
     </g>
    </g>
    <g id="xtick_3">
     <g id="line2d_5">
      <path clip-path="url(#p40f77e2bbf)" d="M 145.309091 252 
L 145.309091 34.56 
" style="fill:none;stroke:#b0b0b0;stroke-linecap:square;stroke-width:0.8;"/>
     </g>
     <g id="line2d_6">
      <g>
       <use style="stroke:#000000;stroke-width:0.8;" x="145.309091" xlink:href="#m25be1815ff" y="252"/>
      </g>
     </g>
     <g id="text_3">
      <!-- −0.50 -->
      <g transform="translate(129.986435 266.598437)scale(0.1 -0.1)">
       <use xlink:href="#DejaVuSans-2212"/>
       <use x="83.789062" xlink:href="#DejaVuSans-30"/>
       <use x="147.412109" xlink:href="#DejaVuSans-2e"/>
       <use x="179.199219" xlink:href="#DejaVuSans-35"/>
       <use x="242.822266" xlink:href="#DejaVuSans-30"/>
      </g>
     </g>
    </g>
    <g id="xtick_4">
     <g id="line2d_7">
      <path clip-path="url(#p40f77e2bbf)" d="M 183.354545 252 
L 183.354545 34.56 
" style="fill:none;stroke:#b0b0b0;stroke-linecap:square;stroke-width:0.8;"/>
     </g>
     <g id="line2d_8">
      <g>
       <use style="stroke:#000000;stroke-width:0.8;" x="183.354545" xlink:href="#m25be1815ff" y="252"/>
      </g>
     </g>
     <g id="text_4">
      <!-- −0.25 -->
      <defs>
       <path d="M 19.1875 8.296875 
L 53.609375 8.296875 
L 53.609375 0 
L 7.328125 0 
L 7.328125 8.296875 
Q 12.9375 14.109375 22.625 23.890625 
Q 32.328125 33.6875 34.8125 36.53125 
Q 39.546875 41.84375 41.421875 45.53125 
Q 43.3125 49.21875 43.3125 52.78125 
Q 43.3125 58.59375 39.234375 62.25 
Q 35.15625 65.921875 28.609375 65.921875 
Q 23.96875 65.921875 18.8125 64.3125 
Q 13.671875 62.703125 7.8125 59.421875 
L 7.8125 69.390625 
Q 13.765625 71.78125 18.9375 73 
Q 24.125 74.21875 28.421875 74.21875 
Q 39.75 74.21875 46.484375 68.546875 
Q 53.21875 62.890625 53.21875 53.421875 
Q 53.21875 48.921875 51.53125 44.890625 
Q 49.859375 40.875 45.40625 35.40625 
Q 44.1875 33.984375 37.640625 27.21875 
Q 31.109375 20.453125 19.1875 8.296875 
z
" id="DejaVuSans-32"/>
      </defs>
      <g transform="translate(168.031889 266.598437)scale(0.1 -0.1)">
       <use xlink:href="#DejaVuSans-2212"/>
       <use x="83.789062" xlink:href="#DejaVuSans-30"/>
       <use x="147.412109" xlink:href="#DejaVuSans-2e"/>
       <use x="179.199219" xlink:href="#DejaVuSans-32"/>
       <use x="242.822266" xlink:href="#DejaVuSans-35"/>
      </g>
     </g>
    </g>
    <g id="xtick_5">
     <g id="line2d_9">
      <path clip-path="url(#p40f77e2bbf)" d="M 221.4 252 
L 221.4 34.56 
" style="fill:none;stroke:#b0b0b0;stroke-linecap:square;stroke-width:0.8;"/>
     </g>
     <g id="line2d_10">
      <g>
       <use style="stroke:#000000;stroke-width:0.8;" x="221.4" xlink:href="#m25be1815ff" y="252"/>
      </g>
     </g>
     <g id="text_5">
      <!-- 0.00 -->
      <g transform="translate(210.267188 266.598437)scale(0.1 -0.1)">
       <use xlink:href="#DejaVuSans-30"/>
       <use x="63.623047" xlink:href="#DejaVuSans-2e"/>
       <use x="95.410156" xlink:href="#DejaVuSans-30"/>
       <use x="159.033203" xlink:href="#DejaVuSans-30"/>
      </g>
     </g>
    </g>
    <g id="xtick_6">
     <g id="line2d_11">
      <path clip-path="url(#p40f77e2bbf)" d="M 259.445455 252 
L 259.445455 34.56 
" style="fill:none;stroke:#b0b0b0;stroke-linecap:square;stroke-width:0.8;"/>
     </g>
     <g id="line2d_12">
      <g>
       <use style="stroke:#000000;stroke-width:0.8;" x="259.445455" xlink:href="#m25be1815ff" y="252"/>
      </g>
     </g>
     <g id="text_6">
      <!-- 0.25 -->
      <g transform="translate(248.312642 266.598437)scale(0.1 -0.1)">
       <use xlink:href="#DejaVuSans-30"/>
       <use x="63.623047" xlink:href="#DejaVuSans-2e"/>
       <use x="95.410156" xlink:href="#DejaVuSans-32"/>
       <use x="159.033203" xlink:href="#DejaVuSans-35"/>
      </g>
     </g>
    </g>
    <g id="xtick_7">
     <g id="line2d_13">
      <path clip-path="url(#p40f77e2bbf)" d="M 297.490909 252 
L 297.490909 34.56 
" style="fill:none;stroke:#b0b0b0;stroke-linecap:square;stroke-width:0.8;"/>
     </g>
     <g id="line2d_14">
      <g>
       <use style="stroke:#000000;stroke-width:0.8;" x="297.490909" xlink:href="#m25be1815ff" y="252"/>
      </g>
     </g>
     <g id="text_7">
      <!-- 0.50 -->
      <g transform="translate(286.358097 266.598437)scale(0.1 -0.1)">
       <use xlink:href="#DejaVuSans-30"/>
       <use x="63.623047" xlink:href="#DejaVuSans-2e"/>
       <use x="95.410156" xlink:href="#DejaVuSans-35"/>
       <use x="159.033203" xlink:href="#DejaVuSans-30"/>
      </g>
     </g>
    </g>
    <g id="xtick_8">
     <g id="line2d_15">
      <path clip-path="url(#p40f77e2bbf)" d="M 335.536364 252 
L 335.536364 34.56 
" style="fill:none;stroke:#b0b0b0;stroke-linecap:square;stroke-width:0.8;"/>
     </g>
     <g id="line2d_16">
      <g>
       <use style="stroke:#000000;stroke-width:0.8;" x="335.536364" xlink:href="#m25be1815ff" y="252"/>
      </g>
     </g>
     <g id="text_8">
      <!-- 0.75 -->
      <g transform="translate(324.403551 266.598437)scale(0.1 -0.1)">
       <use xlink:href="#DejaVuSans-30"/>
       <use x="63.623047" xlink:href="#DejaVuSans-2e"/>
       <use x="95.410156" xlink:href="#DejaVuSans-37"/>
       <use x="159.033203" xlink:href="#DejaVuSans-35"/>
      </g>
     </g>
    </g>
    <g id="xtick_9">
     <g id="line2d_17">
      <path clip-path="url(#p40f77e2bbf)" d="M 373.581818 252 
L 373.581818 34.56 
" style="fill:none;stroke:#b0b0b0;stroke-linecap:square;stroke-width:0.8;"/>
     </g>
     <g id="line2d_18">
      <g>
       <use style="stroke:#000000;stroke-width:0.8;" x="373.581818" xlink:href="#m25be1815ff" y="252"/>
      </g>
     </g>
     <g id="text_9">
      <!-- 1.00 -->
      <g transform="translate(362.449006 266.598437)scale(0.1 -0.1)">
       <use xlink:href="#DejaVuSans-31"/>
       <use x="63.623047" xlink:href="#DejaVuSans-2e"/>
       <use x="95.410156" xlink:href="#DejaVuSans-30"/>
       <use x="159.033203" xlink:href="#DejaVuSans-30"/>
      </g>
     </g>
    </g>
    <g id="text_10">
     <!-- $t$ -->
     <defs>
      <path d="M 42.28125 54.6875 
L 40.921875 47.703125 
L 23 47.703125 
L 17.1875 18.015625 
Q 16.890625 16.359375 16.75 15.234375 
Q 16.609375 14.109375 16.609375 13.484375 
Q 16.609375 10.359375 18.484375 8.9375 
Q 20.359375 7.515625 24.515625 7.515625 
L 33.59375 7.515625 
L 32.078125 0 
L 23.484375 0 
Q 15.484375 0 11.546875 3.125 
Q 7.625 6.25 7.625 12.59375 
Q 7.625 13.71875 7.765625 15.0625 
Q 7.90625 16.40625 8.203125 18.015625 
L 14.015625 47.703125 
L 6.390625 47.703125 
L 7.8125 54.6875 
L 15.28125 54.6875 
L 18.3125 70.21875 
L 27.296875 70.21875 
L 24.3125 54.6875 
z
" id="DejaVuSans-Oblique-74"/>
     </defs>
     <g transform="translate(219.4 280.276563)scale(0.1 -0.1)">
      <use transform="translate(0 0.78125)" xlink:href="#DejaVuSans-Oblique-74"/>
     </g>
    </g>
   </g>
   <g id="matplotlib.axis_2">
    <g id="ytick_1">
     <g id="line2d_19">
      <path clip-path="url(#p40f77e2bbf)" d="M 54 243.1127 
L 388.8 243.1127 
" style="fill:none;stroke:#b0b0b0;stroke-linecap:square;stroke-width:0.8;"/>
     </g>
     <g id="line2d_20">
      <defs>
       <path d="M 0 0 
L -3.5 0 
" id="mde87879303" style="stroke:#000000;stroke-width:0.8;"/>
      </defs>
      <g>
       <use style="stroke:#000000;stroke-width:0.8;" x="54" xlink:href="#mde87879303" y="243.1127"/>
      </g>
     </g>
     <g id="text_11">
      <!-- −3 -->
      <defs>
       <path d="M 40.578125 39.3125 
Q 47.65625 37.796875 51.625 33 
Q 55.609375 28.21875 55.609375 21.1875 
Q 55.609375 10.40625 48.1875 4.484375 
Q 40.765625 -1.421875 27.09375 -1.421875 
Q 22.515625 -1.421875 17.65625 -0.515625 
Q 12.796875 0.390625 7.625 2.203125 
L 7.625 11.71875 
Q 11.71875 9.328125 16.59375 8.109375 
Q 21.484375 6.890625 26.8125 6.890625 
Q 36.078125 6.890625 40.9375 10.546875 
Q 45.796875 14.203125 45.796875 21.1875 
Q 45.796875 27.640625 41.28125 31.265625 
Q 36.765625 34.90625 28.71875 34.90625 
L 20.21875 34.90625 
L 20.21875 43.015625 
L 29.109375 43.015625 
Q 36.375 43.015625 40.234375 45.921875 
Q 44.09375 48.828125 44.09375 54.296875 
Q 44.09375 59.90625 40.109375 62.90625 
Q 36.140625 65.921875 28.71875 65.921875 
Q 24.65625 65.921875 20.015625 65.03125 
Q 15.375 64.15625 9.8125 62.3125 
L 9.8125 71.09375 
Q 15.4375 72.65625 20.34375 73.4375 
Q 25.25 74.21875 29.59375 74.21875 
Q 40.828125 74.21875 47.359375 69.109375 
Q 53.90625 64.015625 53.90625 55.328125 
Q 53.90625 49.265625 50.4375 45.09375 
Q 46.96875 40.921875 40.578125 39.3125 
z
" id="DejaVuSans-33"/>
      </defs>
      <g transform="translate(32.257812 246.911919)scale(0.1 -0.1)">
       <use xlink:href="#DejaVuSans-2212"/>
       <use x="83.789062" xlink:href="#DejaVuSans-33"/>
      </g>
     </g>
    </g>
    <g id="ytick_2">
     <g id="line2d_21">
      <path clip-path="url(#p40f77e2bbf)" d="M 54 207.86625 
L 388.8 207.86625 
" style="fill:none;stroke:#b0b0b0;stroke-linecap:square;stroke-width:0.8;"/>
     </g>
     <g id="line2d_22">
      <g>
       <use style="stroke:#000000;stroke-width:0.8;" x="54" xlink:href="#mde87879303" y="207.86625"/>
      </g>
     </g>
     <g id="text_12">
      <!-- −2 -->
      <g transform="translate(32.257812 211.665469)scale(0.1 -0.1)">
       <use xlink:href="#DejaVuSans-2212"/>
       <use x="83.789062" xlink:href="#DejaVuSans-32"/>
      </g>
     </g>
    </g>
    <g id="ytick_3">
     <g id="line2d_23">
      <path clip-path="url(#p40f77e2bbf)" d="M 54 172.619801 
L 388.8 172.619801 
" style="fill:none;stroke:#b0b0b0;stroke-linecap:square;stroke-width:0.8;"/>
     </g>
     <g id="line2d_24">
      <g>
       <use style="stroke:#000000;stroke-width:0.8;" x="54" xlink:href="#mde87879303" y="172.619801"/>
      </g>
     </g>
     <g id="text_13">
      <!-- −1 -->
      <g transform="translate(32.257812 176.419019)scale(0.1 -0.1)">
       <use xlink:href="#DejaVuSans-2212"/>
       <use x="83.789062" xlink:href="#DejaVuSans-31"/>
      </g>
     </g>
    </g>
    <g id="ytick_4">
     <g id="line2d_25">
      <path clip-path="url(#p40f77e2bbf)" d="M 54 137.373351 
L 388.8 137.373351 
" style="fill:none;stroke:#b0b0b0;stroke-linecap:square;stroke-width:0.8;"/>
     </g>
     <g id="line2d_26">
      <g>
       <use style="stroke:#000000;stroke-width:0.8;" x="54" xlink:href="#mde87879303" y="137.373351"/>
      </g>
     </g>
     <g id="text_14">
      <!-- 0 -->
      <g transform="translate(40.6375 141.17257)scale(0.1 -0.1)">
       <use xlink:href="#DejaVuSans-30"/>
      </g>
     </g>
    </g>
    <g id="ytick_5">
     <g id="line2d_27">
      <path clip-path="url(#p40f77e2bbf)" d="M 54 102.126901 
L 388.8 102.126901 
" style="fill:none;stroke:#b0b0b0;stroke-linecap:square;stroke-width:0.8;"/>
     </g>
     <g id="line2d_28">
      <g>
       <use style="stroke:#000000;stroke-width:0.8;" x="54" xlink:href="#mde87879303" y="102.126901"/>
      </g>
     </g>
     <g id="text_15">
      <!-- 1 -->
      <g transform="translate(40.6375 105.92612)scale(0.1 -0.1)">
       <use xlink:href="#DejaVuSans-31"/>
      </g>
     </g>
    </g>
    <g id="ytick_6">
     <g id="line2d_29">
      <path clip-path="url(#p40f77e2bbf)" d="M 54 66.880452 
L 388.8 66.880452 
" style="fill:none;stroke:#b0b0b0;stroke-linecap:square;stroke-width:0.8;"/>
     </g>
     <g id="line2d_30">
      <g>
       <use style="stroke:#000000;stroke-width:0.8;" x="54" xlink:href="#mde87879303" y="66.880452"/>
      </g>
     </g>
     <g id="text_16">
      <!-- 2 -->
      <g transform="translate(40.6375 70.679671)scale(0.1 -0.1)">
       <use xlink:href="#DejaVuSans-32"/>
      </g>
     </g>
    </g>
    <g id="text_17">
     <!-- $X$ -->
     <defs>
      <path d="M 13.71875 72.90625 
L 23.6875 72.90625 
L 36.1875 46.578125 
L 58.796875 72.90625 
L 70.3125 72.90625 
L 40.28125 38.09375 
L 58.40625 0 
L 48.484375 0 
L 33.796875 30.71875 
L 7.171875 0 
L -4.296875 0 
L 29.78125 39.203125 
z
" id="DejaVuSans-Oblique-58"/>
     </defs>
     <g transform="translate(26.178125 146.73)rotate(-90)scale(0.1 -0.1)">
      <use transform="translate(0 0.09375)" xlink:href="#DejaVuSans-Oblique-58"/>
     </g>
    </g>
   </g>
   <g id="line2d_31">
    <path clip-path="url(#p40f77e2bbf)" d="M 69.218182 154.651546 
L 72.292562 143.985712 
L 75.366942 123.94658 
L 78.441322 127.658892 
L 81.515702 141.775405 
L 84.590083 151.001559 
L 87.664463 146.693283 
L 90.738843 129.305134 
L 93.813223 111.121142 
L 96.887603 121.929884 
L 99.961983 103.556906 
L 103.036364 102.065728 
L 106.110744 93.641957 
L 109.185124 108.892264 
L 112.259504 89.471057 
L 115.333884 105.893299 
L 118.408264 105.133953 
L 121.482645 85.645686 
L 124.557025 86.626485 
L 127.631405 93.290998 
L 130.705785 94.857519 
L 133.780165 97.399832 
L 136.854545 74.96735 
L 139.928926 85.767545 
L 143.003306 86.010093 
L 146.077686 100.905256 
L 149.152066 101.101444 
L 152.226446 107.280408 
L 155.300826 102.152836 
L 158.375207 121.236266 
L 161.449587 118.314705 
L 164.523967 119.222421 
L 167.598347 135.72682 
L 170.672727 120.950302 
L 173.747107 115.76338 
L 176.821488 113.553051 
L 179.895868 125.705726 
L 182.970248 127.707874 
L 186.044628 120.005031 
L 189.119008 104.585592 
L 192.193388 108.422336 
L 195.267769 117.518122 
L 198.342149 126.652927 
L 201.416529 145.339874 
L 204.490909 148.296023 
L 207.565289 124.383298 
L 210.639669 116.227232 
L 213.71405 112.995558 
L 216.78843 105.971384 
L 219.86281 94.554497 
L 222.93719 74.905983 
L 226.01157 72.744252 
L 229.08595 66.371572 
L 232.160331 63.883945 
L 235.234711 50.419015 
L 238.309091 60.736225 
L 241.383471 57.110097 
L 244.457851 44.443636 
L 247.532231 65.40383 
L 250.606612 80.485429 
L 253.680992 61.210517 
L 256.755372 87.341557 
L 259.829752 85.466858 
L 262.904132 81.442933 
L 265.978512 76.880164 
L 269.052893 77.125165 
L 272.127273 79.710272 
L 275.201653 82.812406 
L 278.276033 89.048527 
L 281.350413 81.461601 
L 284.424793 73.521111 
L 287.499174 80.724591 
L 290.573554 85.15632 
L 293.647934 87.926709 
L 296.722314 95.872206 
L 299.796694 102.685396 
L 302.871074 101.193993 
L 305.945455 110.841671 
L 309.019835 123.310462 
L 312.094215 129.174025 
L 315.168595 126.657675 
L 318.242975 103.650642 
L 321.317355 80.312457 
L 324.391736 81.155628 
L 327.466116 81.04514 
L 330.540496 84.5181 
L 333.614876 77.427274 
L 336.689256 90.173778 
L 339.763636 90.013823 
L 342.838017 82.182823 
L 345.912397 85.709162 
L 348.986777 86.430062 
L 352.061157 101.14892 
L 355.135537 127.589948 
L 358.209917 149.832619 
L 361.284298 161.482929 
L 364.358678 153.600635 
L 367.433058 172.349962 
L 370.507438 158.151779 
L 373.581818 152.97609 
" style="fill:none;stroke:#ff0000;stroke-linecap:square;"/>
   </g>
   <g id="line2d_32">
    <path clip-path="url(#p40f77e2bbf)" d="M 69.218182 166.392067 
L 72.292562 161.402773 
L 75.366942 186.938613 
L 78.441322 190.770566 
L 81.515702 198.473248 
L 84.590083 180.973988 
L 87.664463 186.707934 
L 90.738843 172.804365 
L 93.813223 182.986381 
L 96.887603 179.740536 
L 99.961983 177.794104 
L 103.036364 199.419284 
L 106.110744 211.16312 
L 109.185124 193.561462 
L 112.259504 198.494687 
L 115.333884 187.194605 
L 118.408264 186.350998 
L 121.482645 169.558059 
L 124.557025 166.880355 
L 127.631405 160.212564 
L 130.705785 162.856963 
L 133.780165 167.413971 
L 136.854545 153.142518 
L 139.928926 143.10342 
L 143.003306 144.033875 
L 146.077686 150.086771 
L 149.152066 140.519077 
L 152.226446 132.022769 
L 155.300826 141.303445 
L 158.375207 130.492258 
L 161.449587 128.673024 
L 164.523967 133.362179 
L 167.598347 134.716548 
L 170.672727 124.840679 
L 173.747107 116.756815 
L 176.821488 119.77708 
L 179.895868 123.756458 
L 182.970248 137.530425 
L 186.044628 130.928599 
L 189.119008 134.622848 
L 192.193388 131.409497 
L 195.267769 150.427874 
L 198.342149 133.481664 
L 201.416529 154.27831 
L 204.490909 140.396735 
L 207.565289 135.010922 
L 210.639669 128.537195 
L 213.71405 128.245766 
L 216.78843 107.622647 
L 219.86281 118.042265 
L 222.93719 134.445886 
L 226.01157 126.061833 
L 229.08595 120.941067 
L 232.160331 134.431342 
L 235.234711 141.21442 
L 238.309091 132.748245 
L 241.383471 132.496707 
L 244.457851 154.253691 
L 247.532231 151.350935 
L 250.606612 155.142143 
L 253.680992 150.886334 
L 256.755372 148.705361 
L 259.829752 143.654874 
L 262.904132 160.378239 
L 265.978512 147.527453 
L 269.052893 141.117513 
L 272.127273 151.163391 
L 275.201653 154.674448 
L 278.276033 142.056991 
L 281.350413 147.791763 
L 284.424793 148.121722 
L 287.499174 165.062241 
L 290.573554 161.464789 
L 293.647934 155.267087 
L 296.722314 146.460613 
L 299.796694 151.170249 
L 302.871074 141.714897 
L 305.945455 138.153662 
L 309.019835 146.057742 
L 312.094215 132.852385 
L 315.168595 136.456673 
L 318.242975 135.103787 
L 321.317355 132.929292 
L 324.391736 121.388221 
L 327.466116 122.141266 
L 330.540496 134.13293 
L 333.614876 136.671776 
L 336.689256 149.382028 
L 339.763636 131.32073 
L 342.838017 123.806369 
L 345.912397 113.208951 
L 348.986777 116.356024 
L 352.061157 120.78258 
L 355.135537 124.026679 
L 358.209917 116.443973 
L 361.284298 121.846407 
L 364.358678 129.015213 
L 367.433058 111.89768 
L 370.507438 112.765062 
L 373.581818 120.92584 
" style="fill:none;stroke:#ff8b00;stroke-linecap:square;"/>
   </g>
   <g id="line2d_33">
    <path clip-path="url(#p40f77e2bbf)" d="M 69.218182 123.166674 
L 72.292562 114.33029 
L 75.366942 116.730009 
L 78.441322 114.207249 
L 81.515702 114.920052 
L 84.590083 121.676719 
L 87.664463 122.464622 
L 90.738843 120.86746 
L 93.813223 115.643831 
L 96.887603 118.397677 
L 99.961983 115.226473 
L 103.036364 106.050557 
L 106.110744 89.997076 
L 109.185124 95.416372 
L 112.259504 77.445897 
L 115.333884 86.258926 
L 118.408264 70.31388 
L 121.482645 77.825625 
L 124.557025 89.011299 
L 127.631405 73.816527 
L 130.705785 86.667071 
L 133.780165 97.582851 
L 136.854545 96.43473 
L 139.928926 120.430073 
L 143.003306 122.12284 
L 146.077686 123.112316 
L 149.152066 128.75833 
L 152.226446 122.826562 
L 155.300826 118.781343 
L 158.375207 117.541302 
L 161.449587 120.19801 
L 164.523967 114.878996 
L 167.598347 136.390678 
L 170.672727 137.282282 
L 173.747107 138.491384 
L 176.821488 149.710643 
L 179.895868 146.397802 
L 182.970248 136.706459 
L 186.044628 110.218507 
L 189.119008 107.441349 
L 192.193388 116.931092 
L 195.267769 102.924062 
L 198.342149 111.845953 
L 201.416529 102.973492 
L 204.490909 114.81564 
L 207.565289 132.760398 
L 210.639669 133.683168 
L 213.71405 120.068531 
L 216.78843 142.761859 
L 219.86281 135.744427 
L 222.93719 143.598214 
L 226.01157 132.617443 
L 229.08595 136.462319 
L 232.160331 116.078268 
L 235.234711 114.11004 
L 238.309091 116.404957 
L 241.383471 101.620998 
L 244.457851 117.609939 
L 247.532231 127.315566 
L 250.606612 105.009553 
L 253.680992 100.266078 
L 256.755372 89.789153 
L 259.829752 81.912193 
L 262.904132 79.06589 
L 265.978512 100.49159 
L 269.052893 102.143951 
L 272.127273 102.795009 
L 275.201653 105.789402 
L 278.276033 98.033762 
L 281.350413 101.785252 
L 284.424793 104.721374 
L 287.499174 100.195146 
L 290.573554 116.813037 
L 293.647934 136.333029 
L 296.722314 138.011017 
L 299.796694 133.84712 
L 302.871074 126.903103 
L 305.945455 138.064211 
L 309.019835 135.904217 
L 312.094215 142.356954 
L 315.168595 132.600592 
L 318.242975 142.984127 
L 321.317355 147.133517 
L 324.391736 149.696421 
L 327.466116 163.661321 
L 330.540496 166.819512 
L 333.614876 167.794205 
L 336.689256 170.457765 
L 339.763636 160.080445 
L 342.838017 152.528456 
L 345.912397 148.739346 
L 348.986777 146.980825 
L 352.061157 157.357195 
L 355.135537 153.762884 
L 358.209917 140.519264 
L 361.284298 152.52743 
L 364.358678 161.748947 
L 367.433058 143.965397 
L 370.507438 143.922685 
L 373.581818 141.449824 
" style="fill:none;stroke:#e8ff00;stroke-linecap:square;"/>
   </g>
   <g id="line2d_34">
    <path clip-path="url(#p40f77e2bbf)" d="M 69.218182 119.25937 
L 72.292562 129.127778 
L 75.366942 132.512368 
L 78.441322 144.467518 
L 81.515702 144.028884 
L 84.590083 136.399362 
L 87.664463 126.040597 
L 90.738843 117.381901 
L 93.813223 104.929195 
L 96.887603 96.573013 
L 99.961983 111.957998 
L 103.036364 108.860092 
L 106.110744 98.564091 
L 109.185124 94.988199 
L 112.259504 91.125012 
L 115.333884 107.34873 
L 118.408264 118.516558 
L 121.482645 116.253003 
L 124.557025 99.385425 
L 127.631405 112.376333 
L 130.705785 124.93398 
L 133.780165 130.978621 
L 136.854545 135.205329 
L 139.928926 128.063834 
L 143.003306 121.92247 
L 146.077686 127.215354 
L 149.152066 124.595115 
L 152.226446 123.509168 
L 155.300826 128.658019 
L 158.375207 126.83395 
L 161.449587 128.810451 
L 164.523967 129.38728 
L 167.598347 125.497861 
L 170.672727 121.950669 
L 173.747107 115.278231 
L 176.821488 103.940978 
L 179.895868 96.970199 
L 182.970248 89.826128 
L 186.044628 92.667329 
L 189.119008 105.993702 
L 192.193388 89.888995 
L 195.267769 98.376535 
L 198.342149 82.112153 
L 201.416529 73.419438 
L 204.490909 75.253032 
L 207.565289 58.876486 
L 210.639669 68.50366 
L 213.71405 67.574371 
L 216.78843 84.329109 
L 219.86281 75.798841 
L 222.93719 70.766256 
L 226.01157 66.679006 
L 229.08595 77.696416 
L 232.160331 96.954603 
L 235.234711 100.885217 
L 238.309091 105.714389 
L 241.383471 94.905501 
L 244.457851 115.262591 
L 247.532231 112.937264 
L 250.606612 131.758595 
L 253.680992 130.5314 
L 256.755372 150.275687 
L 259.829752 142.784471 
L 262.904132 137.648354 
L 265.978512 173.813518 
L 269.052893 161.850615 
L 272.127273 174.33112 
L 275.201653 187.143183 
L 278.276033 193.570414 
L 281.350413 184.429086 
L 284.424793 184.440917 
L 287.499174 190.568471 
L 290.573554 190.927677 
L 293.647934 181.49511 
L 296.722314 188.894804 
L 299.796694 178.914547 
L 302.871074 181.984108 
L 305.945455 205.984298 
L 309.019835 201.713248 
L 312.094215 208.171279 
L 315.168595 204.607101 
L 318.242975 203.132507 
L 321.317355 207.301093 
L 324.391736 223.593424 
L 327.466116 224.999258 
L 330.540496 232.550984 
L 333.614876 221.035967 
L 336.689256 215.639814 
L 339.763636 211.626766 
L 342.838017 216.543179 
L 345.912397 195.169785 
L 348.986777 177.401385 
L 352.061157 187.660344 
L 355.135537 174.445808 
L 358.209917 181.645243 
L 361.284298 183.757542 
L 364.358678 169.432831 
L 367.433058 155.948477 
L 370.507438 136.966509 
L 373.581818 109.615773 
" style="fill:none;stroke:#5dff00;stroke-linecap:square;"/>
   </g>
   <g id="line2d_35">
    <path clip-path="url(#p40f77e2bbf)" d="M 69.218182 200.705059 
L 72.292562 197.48283 
L 75.366942 196.158788 
L 78.441322 201.488669 
L 81.515702 187.909618 
L 84.590083 182.442208 
L 87.664463 184.620141 
L 90.738843 190.582368 
L 93.813223 182.719638 
L 96.887603 177.279907 
L 99.961983 175.823322 
L 103.036364 179.143085 
L 106.110744 176.868284 
L 109.185124 180.402756 
L 112.259504 181.481071 
L 115.333884 175.672031 
L 118.408264 197.557855 
L 121.482645 181.827116 
L 124.557025 177.487819 
L 127.631405 170.033891 
L 130.705785 166.631922 
L 133.780165 165.982992 
L 136.854545 171.053273 
L 139.928926 174.445921 
L 143.003306 160.954289 
L 146.077686 157.275954 
L 149.152066 148.821089 
L 152.226446 164.821613 
L 155.300826 158.298462 
L 158.375207 152.3874 
L 161.449587 137.644999 
L 164.523967 146.566679 
L 167.598347 143.274706 
L 170.672727 148.327918 
L 173.747107 157.392794 
L 176.821488 154.105711 
L 179.895868 171.049662 
L 182.970248 186.739815 
L 186.044628 193.318249 
L 189.119008 189.559274 
L 192.193388 181.465931 
L 195.267769 181.623331 
L 198.342149 184.177555 
L 201.416529 185.400524 
L 204.490909 177.755057 
L 207.565289 178.627652 
L 210.639669 177.51545 
L 213.71405 160.555083 
L 216.78843 152.431705 
L 219.86281 159.620117 
L 222.93719 155.419894 
L 226.01157 150.93092 
L 229.08595 133.860972 
L 232.160331 126.11415 
L 235.234711 134.862197 
L 238.309091 143.204359 
L 241.383471 151.938067 
L 244.457851 151.292263 
L 247.532231 158.618328 
L 250.606612 149.238508 
L 253.680992 134.870912 
L 256.755372 149.834068 
L 259.829752 158.261621 
L 262.904132 172.587854 
L 265.978512 163.278604 
L 269.052893 172.304768 
L 272.127273 151.487769 
L 275.201653 143.533664 
L 278.276033 131.160687 
L 281.350413 133.484195 
L 284.424793 106.578008 
L 287.499174 130.54455 
L 290.573554 146.26702 
L 293.647934 135.8843 
L 296.722314 134.141723 
L 299.796694 140.911715 
L 302.871074 134.564226 
L 305.945455 114.129683 
L 309.019835 113.734494 
L 312.094215 104.344081 
L 315.168595 101.647909 
L 318.242975 104.56685 
L 321.317355 111.045821 
L 324.391736 111.213548 
L 327.466116 91.957828 
L 330.540496 100.35484 
L 333.614876 114.718328 
L 336.689256 109.057252 
L 339.763636 102.017806 
L 342.838017 109.291264 
L 345.912397 127.275923 
L 348.986777 121.030549 
L 352.061157 141.523735 
L 355.135537 141.767102 
L 358.209917 139.435202 
L 361.284298 135.010842 
L 364.358678 137.146076 
L 367.433058 130.979051 
L 370.507438 129.540002 
L 373.581818 124.422478 
" style="fill:none;stroke:#00ff2e;stroke-linecap:square;"/>
   </g>
   <g id="line2d_36">
    <path clip-path="url(#p40f77e2bbf)" d="M 69.218182 150.659549 
L 72.292562 130.040547 
L 75.366942 128.95353 
L 78.441322 140.170272 
L 81.515702 158.234634 
L 84.590083 150.291133 
L 87.664463 158.041189 
L 90.738843 169.62487 
L 93.813223 173.675434 
L 96.887603 179.157078 
L 99.961983 181.801065 
L 103.036364 180.553309 
L 106.110744 204.848055 
L 109.185124 197.312691 
L 112.259504 182.811798 
L 115.333884 171.623659 
L 118.408264 175.571044 
L 121.482645 170.755181 
L 124.557025 165.190628 
L 127.631405 182.772369 
L 130.705785 171.192 
L 133.780165 178.894758 
L 136.854545 181.806957 
L 139.928926 178.565391 
L 143.003306 176.006793 
L 146.077686 162.81183 
L 149.152066 157.057697 
L 152.226446 149.175581 
L 155.300826 129.760027 
L 158.375207 149.521219 
L 161.449587 155.140267 
L 164.523967 151.552094 
L 167.598347 152.71648 
L 170.672727 161.122709 
L 173.747107 165.706667 
L 176.821488 156.074192 
L 179.895868 149.076401 
L 182.970248 153.407223 
L 186.044628 155.776079 
L 189.119008 157.151801 
L 192.193388 153.578399 
L 195.267769 168.485043 
L 198.342149 166.20655 
L 201.416529 175.129389 
L 204.490909 173.811689 
L 207.565289 183.469841 
L 210.639669 186.283268 
L 213.71405 192.802877 
L 216.78843 181.926309 
L 219.86281 183.865988 
L 222.93719 180.784355 
L 226.01157 181.658778 
L 229.08595 178.132727 
L 232.160331 173.420539 
L 235.234711 174.568061 
L 238.309091 175.656791 
L 241.383471 182.808957 
L 244.457851 200.388306 
L 247.532231 202.920004 
L 250.606612 198.9272 
L 253.680992 176.582847 
L 256.755372 168.976861 
L 259.829752 158.867137 
L 262.904132 144.098256 
L 265.978512 145.111552 
L 269.052893 139.176034 
L 272.127273 135.668317 
L 275.201653 124.184131 
L 278.276033 121.623275 
L 281.350413 129.204993 
L 284.424793 119.516458 
L 287.499174 118.133846 
L 290.573554 116.388815 
L 293.647934 118.401459 
L 296.722314 103.459555 
L 299.796694 117.511858 
L 302.871074 110.114005 
L 305.945455 100.929776 
L 309.019835 91.283538 
L 312.094215 75.2783 
L 315.168595 91.478546 
L 318.242975 93.553351 
L 321.317355 112.085066 
L 324.391736 109.005694 
L 327.466116 110.24412 
L 330.540496 110.151496 
L 333.614876 121.367638 
L 336.689256 120.111001 
L 339.763636 112.817044 
L 342.838017 110.372069 
L 345.912397 113.453221 
L 348.986777 112.330064 
L 352.061157 91.793891 
L 355.135537 105.990812 
L 358.209917 110.562802 
L 361.284298 126.1936 
L 364.358678 126.295513 
L 367.433058 143.532544 
L 370.507438 151.203701 
L 373.581818 157.560171 
" style="fill:none;stroke:#00ffb9;stroke-linecap:square;"/>
   </g>
   <g id="line2d_37">
    <path clip-path="url(#p40f77e2bbf)" d="M 69.218182 103.604047 
L 72.292562 103.785822 
L 75.366942 119.822025 
L 78.441322 120.912106 
L 81.515702 117.615277 
L 84.590083 119.334307 
L 87.664463 111.988771 
L 90.738843 118.050053 
L 93.813223 125.664761 
L 96.887603 120.146291 
L 99.961983 104.583001 
L 103.036364 109.781192 
L 106.110744 111.704637 
L 109.185124 108.199763 
L 112.259504 104.073052 
L 115.333884 98.353494 
L 118.408264 107.621864 
L 121.482645 97.654865 
L 124.557025 108.409791 
L 127.631405 106.944732 
L 130.705785 96.539113 
L 133.780165 99.405086 
L 136.854545 101.857652 
L 139.928926 101.583183 
L 143.003306 111.841547 
L 146.077686 124.126288 
L 149.152066 125.632161 
L 152.226446 128.159392 
L 155.300826 132.409171 
L 158.375207 133.390269 
L 161.449587 141.134432 
L 164.523967 150.76632 
L 167.598347 134.999316 
L 170.672727 137.644687 
L 173.747107 143.03463 
L 176.821488 147.217101 
L 179.895868 151.904046 
L 182.970248 160.638836 
L 186.044628 168.790465 
L 189.119008 171.567154 
L 192.193388 188.734325 
L 195.267769 169.877787 
L 198.342149 162.539415 
L 201.416529 169.132921 
L 204.490909 167.906497 
L 207.565289 168.360436 
L 210.639669 156.192749 
L 213.71405 146.481756 
L 216.78843 146.807934 
L 219.86281 159.437949 
L 222.93719 165.041948 
L 226.01157 158.14505 
L 229.08595 147.696769 
L 232.160331 131.001651 
L 235.234711 144.105558 
L 238.309091 165.291915 
L 241.383471 165.659238 
L 244.457851 172.921588 
L 247.532231 176.891273 
L 250.606612 174.636806 
L 253.680992 169.201898 
L 256.755372 148.989687 
L 259.829752 137.589084 
L 262.904132 134.105874 
L 265.978512 140.678045 
L 269.052893 129.704896 
L 272.127273 157.981391 
L 275.201653 161.440005 
L 278.276033 158.990605 
L 281.350413 136.23989 
L 284.424793 121.438789 
L 287.499174 122.488721 
L 290.573554 112.692073 
L 293.647934 116.061167 
L 296.722314 126.189461 
L 299.796694 109.961379 
L 302.871074 96.03407 
L 305.945455 105.923532 
L 309.019835 83.936477 
L 312.094215 90.237328 
L 315.168595 76.854357 
L 318.242975 69.194322 
L 321.317355 58.113181 
L 324.391736 68.297726 
L 327.466116 57.539381 
L 330.540496 47.731197 
L 333.614876 70.685648 
L 336.689256 78.643643 
L 339.763636 66.577347 
L 342.838017 68.765049 
L 345.912397 70.73368 
L 348.986777 76.64999 
L 352.061157 84.239357 
L 355.135537 85.909084 
L 358.209917 74.840087 
L 361.284298 84.300154 
L 364.358678 77.941908 
L 367.433058 88.936127 
L 370.507438 80.085953 
L 373.581818 71.573999 
" style="fill:none;stroke:#00b9ff;stroke-linecap:square;"/>
   </g>
   <g id="line2d_38">
    <path clip-path="url(#p40f77e2bbf)" d="M 69.218182 168.274804 
L 72.292562 186.659429 
L 75.366942 189.907954 
L 78.441322 181.083963 
L 81.515702 185.353968 
L 84.590083 202.580088 
L 87.664463 201.08619 
L 90.738843 209.929726 
L 93.813223 208.080634 
L 96.887603 193.282265 
L 99.961983 189.116553 
L 103.036364 195.403714 
L 106.110744 185.351322 
L 109.185124 172.325521 
L 112.259504 173.892655 
L 115.333884 177.680779 
L 118.408264 174.033083 
L 121.482645 178.417913 
L 124.557025 186.519618 
L 127.631405 195.851546 
L 130.705785 191.573903 
L 133.780165 209.292263 
L 136.854545 210.658452 
L 139.928926 207.153113 
L 143.003306 190.497571 
L 146.077686 184.298655 
L 149.152066 192.186677 
L 152.226446 196.674413 
L 155.300826 191.670045 
L 158.375207 171.774809 
L 161.449587 176.483138 
L 164.523967 193.547477 
L 167.598347 188.747011 
L 170.672727 208.227928 
L 173.747107 201.407108 
L 176.821488 199.98006 
L 179.895868 208.568089 
L 182.970248 219.062114 
L 186.044628 234.321916 
L 189.119008 242.116364 
L 192.193388 238.361697 
L 195.267769 232.461483 
L 198.342149 211.20472 
L 201.416529 192.510817 
L 204.490909 194.00033 
L 207.565289 174.686856 
L 210.639669 161.360852 
L 213.71405 155.90437 
L 216.78843 165.631717 
L 219.86281 176.361329 
L 222.93719 168.827687 
L 226.01157 165.219891 
L 229.08595 157.551481 
L 232.160331 160.181223 
L 235.234711 151.342888 
L 238.309091 144.462136 
L 241.383471 124.650406 
L 244.457851 137.836886 
L 247.532231 140.207465 
L 250.606612 152.9014 
L 253.680992 146.008156 
L 256.755372 147.788209 
L 259.829752 142.936411 
L 262.904132 150.922172 
L 265.978512 158.019196 
L 269.052893 158.932426 
L 272.127273 164.092389 
L 275.201653 167.670544 
L 278.276033 168.736325 
L 281.350413 149.608664 
L 284.424793 159.103472 
L 287.499174 157.016337 
L 290.573554 152.239989 
L 293.647934 168.618895 
L 296.722314 158.723354 
L 299.796694 146.882675 
L 302.871074 147.978849 
L 305.945455 161.063964 
L 309.019835 153.675361 
L 312.094215 147.776399 
L 315.168595 142.300161 
L 318.242975 136.749068 
L 321.317355 149.601631 
L 324.391736 163.193274 
L 327.466116 183.748854 
L 330.540496 175.96362 
L 333.614876 175.867128 
L 336.689256 172.647872 
L 339.763636 189.176727 
L 342.838017 193.300424 
L 345.912397 191.641988 
L 348.986777 190.278479 
L 352.061157 194.791456 
L 355.135537 193.676359 
L 358.209917 192.383941 
L 361.284298 193.475481 
L 364.358678 211.174158 
L 367.433058 213.159769 
L 370.507438 205.145947 
L 373.581818 191.83991 
" style="fill:none;stroke:#002eff;stroke-linecap:square;"/>
   </g>
   <g id="line2d_39">
    <path clip-path="url(#p40f77e2bbf)" d="M 69.218182 134.961293 
L 72.292562 125.462022 
L 75.366942 115.552838 
L 78.441322 122.061571 
L 81.515702 111.474824 
L 84.590083 102.709234 
L 87.664463 121.303099 
L 90.738843 125.553571 
L 93.813223 125.897591 
L 96.887603 128.643046 
L 99.961983 145.740358 
L 103.036364 153.58456 
L 106.110744 144.390023 
L 109.185124 150.318675 
L 112.259504 152.118336 
L 115.333884 171.212117 
L 118.408264 150.923136 
L 121.482645 153.951377 
L 124.557025 142.417868 
L 127.631405 142.825527 
L 130.705785 154.578084 
L 133.780165 158.919678 
L 136.854545 154.112709 
L 139.928926 144.927938 
L 143.003306 147.963196 
L 146.077686 132.919697 
L 149.152066 123.590816 
L 152.226446 111.152293 
L 155.300826 91.554488 
L 158.375207 102.428105 
L 161.449587 117.677275 
L 164.523967 128.860273 
L 167.598347 134.903971 
L 170.672727 126.137702 
L 173.747107 122.163393 
L 176.821488 117.001206 
L 179.895868 133.329058 
L 182.970248 145.590044 
L 186.044628 148.86108 
L 189.119008 153.794931 
L 192.193388 161.386542 
L 195.267769 153.059534 
L 198.342149 148.582295 
L 201.416529 163.28974 
L 204.490909 155.887198 
L 207.565289 151.53615 
L 210.639669 154.514464 
L 213.71405 157.911162 
L 216.78843 154.112607 
L 219.86281 173.371437 
L 222.93719 166.805205 
L 226.01157 174.242968 
L 229.08595 176.527441 
L 232.160331 188.078308 
L 235.234711 192.036263 
L 238.309091 197.404335 
L 241.383471 199.67313 
L 244.457851 192.237395 
L 247.532231 190.47267 
L 250.606612 178.696315 
L 253.680992 186.552862 
L 256.755372 167.149656 
L 259.829752 162.243038 
L 262.904132 175.92578 
L 265.978512 150.480212 
L 269.052893 159.396736 
L 272.127273 158.139995 
L 275.201653 159.731559 
L 278.276033 156.220848 
L 281.350413 152.614453 
L 284.424793 157.875722 
L 287.499174 159.629456 
L 290.573554 157.431201 
L 293.647934 164.904723 
L 296.722314 165.279021 
L 299.796694 151.613936 
L 302.871074 163.589688 
L 305.945455 150.612198 
L 309.019835 159.718413 
L 312.094215 160.084276 
L 315.168595 162.925743 
L 318.242975 162.292678 
L 321.317355 171.658279 
L 324.391736 155.174032 
L 327.466116 157.067208 
L 330.540496 167.668857 
L 333.614876 168.819444 
L 336.689256 170.3079 
L 339.763636 170.998425 
L 342.838017 166.320026 
L 345.912397 168.739064 
L 348.986777 168.525969 
L 352.061157 181.158635 
L 355.135537 189.081295 
L 358.209917 185.523401 
L 361.284298 194.013926 
L 364.358678 194.671687 
L 367.433058 188.303941 
L 370.507438 192.853105 
L 373.581818 198.092349 
" style="fill:none;stroke:#5d00ff;stroke-linecap:square;"/>
   </g>
   <g id="line2d_40">
    <path clip-path="url(#p40f77e2bbf)" d="M 69.218182 90.878982 
L 72.292562 90.824851 
L 75.366942 83.707277 
L 78.441322 87.964745 
L 81.515702 92.03414 
L 84.590083 111.138005 
L 87.664463 119.539166 
L 90.738843 111.899915 
L 93.813223 105.45449 
L 96.887603 112.77732 
L 99.961983 116.597901 
L 103.036364 139.006476 
L 106.110744 148.992397 
L 109.185124 149.504446 
L 112.259504 145.633573 
L 115.333884 152.613555 
L 118.408264 143.492346 
L 121.482645 131.410037 
L 124.557025 136.070036 
L 127.631405 126.393564 
L 130.705785 125.966402 
L 133.780165 155.02491 
L 136.854545 155.698776 
L 139.928926 155.864065 
L 143.003306 135.559492 
L 146.077686 132.861716 
L 149.152066 141.767991 
L 152.226446 138.541161 
L 155.300826 136.080944 
L 158.375207 137.127879 
L 161.449587 137.590792 
L 164.523967 132.090827 
L 167.598347 134.286011 
L 170.672727 123.225043 
L 173.747107 125.209106 
L 176.821488 142.813283 
L 179.895868 132.704207 
L 182.970248 142.678635 
L 186.044628 131.703068 
L 189.119008 133.454494 
L 192.193388 136.578194 
L 195.267769 121.813652 
L 198.342149 107.233016 
L 201.416529 106.8283 
L 204.490909 99.024393 
L 207.565289 91.529022 
L 210.639669 112.475542 
L 213.71405 121.697838 
L 216.78843 124.33224 
L 219.86281 122.434047 
L 222.93719 122.864194 
L 226.01157 127.936913 
L 229.08595 140.910205 
L 232.160331 141.590234 
L 235.234711 154.043616 
L 238.309091 147.379625 
L 241.383471 126.859841 
L 244.457851 126.247915 
L 247.532231 122.345215 
L 250.606612 111.068882 
L 253.680992 103.701412 
L 256.755372 94.662765 
L 259.829752 107.218914 
L 262.904132 110.873237 
L 265.978512 108.657262 
L 269.052893 116.247493 
L 272.127273 124.700746 
L 275.201653 125.939654 
L 278.276033 137.698166 
L 281.350413 130.344358 
L 284.424793 154.416802 
L 287.499174 163.1469 
L 290.573554 175.996115 
L 293.647934 177.518574 
L 296.722314 161.893558 
L 299.796694 165.88355 
L 302.871074 174.964169 
L 305.945455 172.077387 
L 309.019835 164.234939 
L 312.094215 155.783376 
L 315.168595 142.44382 
L 318.242975 141.225624 
L 321.317355 134.640732 
L 324.391736 137.411364 
L 327.466116 136.262638 
L 330.540496 144.594818 
L 333.614876 138.578055 
L 336.689256 144.989935 
L 339.763636 162.121379 
L 342.838017 165.788242 
L 345.912397 167.745308 
L 348.986777 169.57506 
L 352.061157 167.663389 
L 355.135537 169.823011 
L 358.209917 168.541854 
L 361.284298 162.624368 
L 364.358678 161.444943 
L 367.433058 151.40526 
L 370.507438 153.030496 
L 373.581818 158.38779 
" style="fill:none;stroke:#e800ff;stroke-linecap:square;"/>
   </g>
   <g id="patch_3">
    <path d="M 54 252 
L 54 34.56 
" style="fill:none;stroke:#000000;stroke-linecap:square;stroke-linejoin:miter;stroke-width:0.8;"/>
   </g>
   <g id="patch_4">
    <path d="M 388.8 252 
L 388.8 34.56 
" style="fill:none;stroke:#000000;stroke-linecap:square;stroke-linejoin:miter;stroke-width:0.8;"/>
   </g>
   <g id="patch_5">
    <path d="M 54 252 
L 388.8 252 
" style="fill:none;stroke:#000000;stroke-linecap:square;stroke-linejoin:miter;stroke-width:0.8;"/>
   </g>
   <g id="patch_6">
    <path d="M 54 34.56 
L 388.8 34.56 
" style="fill:none;stroke:#000000;stroke-linecap:square;stroke-linejoin:miter;stroke-width:0.8;"/>
   </g>
   <g id="text_18">
    <!-- Trajectory $X$ -->
    <defs>
     <path d="M -0.296875 72.90625 
L 61.375 72.90625 
L 61.375 64.59375 
L 35.5 64.59375 
L 35.5 0 
L 25.59375 0 
L 25.59375 64.59375 
L -0.296875 64.59375 
z
" id="DejaVuSans-54"/>
     <path d="M 41.109375 46.296875 
Q 39.59375 47.171875 37.8125 47.578125 
Q 36.03125 48 33.890625 48 
Q 26.265625 48 22.1875 43.046875 
Q 18.109375 38.09375 18.109375 28.8125 
L 18.109375 0 
L 9.078125 0 
L 9.078125 54.6875 
L 18.109375 54.6875 
L 18.109375 46.1875 
Q 20.953125 51.171875 25.484375 53.578125 
Q 30.03125 56 36.53125 56 
Q 37.453125 56 38.578125 55.875 
Q 39.703125 55.765625 41.0625 55.515625 
z
" id="DejaVuSans-72"/>
     <path d="M 34.28125 27.484375 
Q 23.390625 27.484375 19.1875 25 
Q 14.984375 22.515625 14.984375 16.5 
Q 14.984375 11.71875 18.140625 8.90625 
Q 21.296875 6.109375 26.703125 6.109375 
Q 34.1875 6.109375 38.703125 11.40625 
Q 43.21875 16.703125 43.21875 25.484375 
L 43.21875 27.484375 
z
M 52.203125 31.203125 
L 52.203125 0 
L 43.21875 0 
L 43.21875 8.296875 
Q 40.140625 3.328125 35.546875 0.953125 
Q 30.953125 -1.421875 24.3125 -1.421875 
Q 15.921875 -1.421875 10.953125 3.296875 
Q 6 8.015625 6 15.921875 
Q 6 25.140625 12.171875 29.828125 
Q 18.359375 34.515625 30.609375 34.515625 
L 43.21875 34.515625 
L 43.21875 35.40625 
Q 43.21875 41.609375 39.140625 45 
Q 35.0625 48.390625 27.6875 48.390625 
Q 23 48.390625 18.546875 47.265625 
Q 14.109375 46.140625 10.015625 43.890625 
L 10.015625 52.203125 
Q 14.9375 54.109375 19.578125 55.046875 
Q 24.21875 56 28.609375 56 
Q 40.484375 56 46.34375 49.84375 
Q 52.203125 43.703125 52.203125 31.203125 
z
" id="DejaVuSans-61"/>
     <path d="M 9.421875 54.6875 
L 18.40625 54.6875 
L 18.40625 -0.984375 
Q 18.40625 -11.421875 14.421875 -16.109375 
Q 10.453125 -20.796875 1.609375 -20.796875 
L -1.8125 -20.796875 
L -1.8125 -13.1875 
L 0.59375 -13.1875 
Q 5.71875 -13.1875 7.5625 -10.8125 
Q 9.421875 -8.453125 9.421875 -0.984375 
z
M 9.421875 75.984375 
L 18.40625 75.984375 
L 18.40625 64.59375 
L 9.421875 64.59375 
z
" id="DejaVuSans-6a"/>
     <path d="M 56.203125 29.59375 
L 56.203125 25.203125 
L 14.890625 25.203125 
Q 15.484375 15.921875 20.484375 11.0625 
Q 25.484375 6.203125 34.421875 6.203125 
Q 39.59375 6.203125 44.453125 7.46875 
Q 49.3125 8.734375 54.109375 11.28125 
L 54.109375 2.78125 
Q 49.265625 0.734375 44.1875 -0.34375 
Q 39.109375 -1.421875 33.890625 -1.421875 
Q 20.796875 -1.421875 13.15625 6.1875 
Q 5.515625 13.8125 5.515625 26.8125 
Q 5.515625 40.234375 12.765625 48.109375 
Q 20.015625 56 32.328125 56 
Q 43.359375 56 49.78125 48.890625 
Q 56.203125 41.796875 56.203125 29.59375 
z
M 47.21875 32.234375 
Q 47.125 39.59375 43.09375 43.984375 
Q 39.0625 48.390625 32.421875 48.390625 
Q 24.90625 48.390625 20.390625 44.140625 
Q 15.875 39.890625 15.1875 32.171875 
z
" id="DejaVuSans-65"/>
     <path d="M 48.78125 52.59375 
L 48.78125 44.1875 
Q 44.96875 46.296875 41.140625 47.34375 
Q 37.3125 48.390625 33.40625 48.390625 
Q 24.65625 48.390625 19.8125 42.84375 
Q 14.984375 37.3125 14.984375 27.296875 
Q 14.984375 17.28125 19.8125 11.734375 
Q 24.65625 6.203125 33.40625 6.203125 
Q 37.3125 6.203125 41.140625 7.25 
Q 44.96875 8.296875 48.78125 10.40625 
L 48.78125 2.09375 
Q 45.015625 0.34375 40.984375 -0.53125 
Q 36.96875 -1.421875 32.421875 -1.421875 
Q 20.0625 -1.421875 12.78125 6.34375 
Q 5.515625 14.109375 5.515625 27.296875 
Q 5.515625 40.671875 12.859375 48.328125 
Q 20.21875 56 33.015625 56 
Q 37.15625 56 41.109375 55.140625 
Q 45.0625 54.296875 48.78125 52.59375 
z
" id="DejaVuSans-63"/>
     <path d="M 18.3125 70.21875 
L 18.3125 54.6875 
L 36.8125 54.6875 
L 36.8125 47.703125 
L 18.3125 47.703125 
L 18.3125 18.015625 
Q 18.3125 11.328125 20.140625 9.421875 
Q 21.96875 7.515625 27.59375 7.515625 
L 36.8125 7.515625 
L 36.8125 0 
L 27.59375 0 
Q 17.1875 0 13.234375 3.875 
Q 9.28125 7.765625 9.28125 18.015625 
L 9.28125 47.703125 
L 2.6875 47.703125 
L 2.6875 54.6875 
L 9.28125 54.6875 
L 9.28125 70.21875 
z
" id="DejaVuSans-74"/>
     <path d="M 30.609375 48.390625 
Q 23.390625 48.390625 19.1875 42.75 
Q 14.984375 37.109375 14.984375 27.296875 
Q 14.984375 17.484375 19.15625 11.84375 
Q 23.34375 6.203125 30.609375 6.203125 
Q 37.796875 6.203125 41.984375 11.859375 
Q 46.1875 17.53125 46.1875 27.296875 
Q 46.1875 37.015625 41.984375 42.703125 
Q 37.796875 48.390625 30.609375 48.390625 
z
M 30.609375 56 
Q 42.328125 56 49.015625 48.375 
Q 55.71875 40.765625 55.71875 27.296875 
Q 55.71875 13.875 49.015625 6.21875 
Q 42.328125 -1.421875 30.609375 -1.421875 
Q 18.84375 -1.421875 12.171875 6.21875 
Q 5.515625 13.875 5.515625 27.296875 
Q 5.515625 40.765625 12.171875 48.375 
Q 18.84375 56 30.609375 56 
z
" id="DejaVuSans-6f"/>
     <path d="M 32.171875 -5.078125 
Q 28.375 -14.84375 24.75 -17.8125 
Q 21.140625 -20.796875 15.09375 -20.796875 
L 7.90625 -20.796875 
L 7.90625 -13.28125 
L 13.1875 -13.28125 
Q 16.890625 -13.28125 18.9375 -11.515625 
Q 21 -9.765625 23.484375 -3.21875 
L 25.09375 0.875 
L 2.984375 54.6875 
L 12.5 54.6875 
L 29.59375 11.921875 
L 46.6875 54.6875 
L 56.203125 54.6875 
z
" id="DejaVuSans-79"/>
     <path id="DejaVuSans-20"/>
    </defs>
    <g transform="translate(184.86 28.56)scale(0.12 -0.12)">
     <use transform="translate(0 0.015625)" xlink:href="#DejaVuSans-54"/>
     <use transform="translate(61.083984 0.015625)" xlink:href="#DejaVuSans-72"/>
     <use transform="translate(102.197266 0.015625)" xlink:href="#DejaVuSans-61"/>
     <use transform="translate(163.476562 0.015625)" xlink:href="#DejaVuSans-6a"/>
     <use transform="translate(191.259766 0.015625)" xlink:href="#DejaVuSans-65"/>
     <use transform="translate(252.783203 0.015625)" xlink:href="#DejaVuSans-63"/>
     <use transform="translate(307.763672 0.015625)" xlink:href="#DejaVuSans-74"/>
     <use transform="translate(346.972656 0.015625)" xlink:href="#DejaVuSans-6f"/>
     <use transform="translate(408.154297 0.015625)" xlink:href="#DejaVuSans-72"/>
     <use transform="translate(449.267578 0.015625)" xlink:href="#DejaVuSans-79"/>
     <use transform="translate(508.447266 0.015625)" xlink:href="#DejaVuSans-20"/>
     <use transform="translate(540.234375 0.015625)" xlink:href="#DejaVuSans-Oblique-58"/>
    </g>
   </g>
  </g>
 </g>
 <defs>
  <clipPath id="p40f77e2bbf">
   <rect height="217.44" width="334.8" x="54" y="34.56"/>
  </clipPath>
 </defs>
</svg>
