<?xml version="1.0" encoding="utf-8" standalone="no"?>
<!DOCTYPE svg PUBLIC "-//W3C//DTD SVG 1.1//EN"
  "http://www.w3.org/Graphics/SVG/1.1/DTD/svg11.dtd">
<!-- Created with matplotlib (http://matplotlib.org/) -->
<svg height="288pt" version="1.1" viewBox="0 0 432 288" width="432pt" xmlns="http://www.w3.org/2000/svg" xmlns:xlink="http://www.w3.org/1999/xlink">
 <defs>
  <style type="text/css">
*{stroke-linecap:butt;stroke-linejoin:round;}
  </style>
 </defs>
 <g id="figure_1">
  <g id="patch_1">
   <path d="M 0 288 
L 432 288 
L 432 0 
L 0 0 
z
" style="fill:#ffffff;"/>
  </g>
  <g id="axes_1">
   <g id="patch_2">
    <path d="M 54 252 
L 388.8 252 
L 388.8 34.56 
L 54 34.56 
z
" style="fill:#ffffff;"/>
   </g>
   <g id="matplotlib.axis_1">
    <g id="xtick_1">
     <g id="line2d_1">
      <path clip-path="url(#pbd0fcb0519)" d="M 69.218182 252 
L 69.218182 34.56 
" style="fill:none;stroke:#b0b0b0;stroke-linecap:square;stroke-width:0.8;"/>
     </g>
     <g id="line2d_2">
      <defs>
       <path d="M 0 0 
L 0 3.5 
" id="m8d7bdfa840" style="stroke:#000000;stroke-width:0.8;"/>
      </defs>
      <g>
       <use style="stroke:#000000;stroke-width:0.8;" x="69.218182" xlink:href="#m8d7bdfa840" y="252"/>
      </g>
     </g>
     <g id="text_1">
      <!-- −1.00 -->
      <defs>
       <path d="M 10.59375 35.5 
L 73.1875 35.5 
L 73.1875 27.203125 
L 10.59375 27.203125 
z
" id="DejaVuSans-2212"/>
       <path d="M 12.40625 8.296875 
L 28.515625 8.296875 
L 28.515625 63.921875 
L 10.984375 60.40625 
L 10.984375 69.390625 
L 28.421875 72.90625 
L 38.28125 72.90625 
L 38.28125 8.296875 
L 54.390625 8.296875 
L 54.390625 0 
L 12.40625 0 
z
" id="DejaVuSans-31"/>
       <path d="M 10.6875 12.40625 
L 21 12.40625 
L 21 0 
L 10.6875 0 
z
" id="DejaVuSans-2e"/>
       <path d="M 31.78125 66.40625 
Q 24.171875 66.40625 20.328125 58.90625 
Q 16.5 51.421875 16.5 36.375 
Q 16.5 21.390625 20.328125 13.890625 
Q 24.171875 6.390625 31.78125 6.390625 
Q 39.453125 6.390625 43.28125 13.890625 
Q 47.125 21.390625 47.125 36.375 
Q 47.125 51.421875 43.28125 58.90625 
Q 39.453125 66.40625 31.78125 66.40625 
z
M 31.78125 74.21875 
Q 44.046875 74.21875 50.515625 64.515625 
Q 56.984375 54.828125 56.984375 36.375 
Q 56.984375 17.96875 50.515625 8.265625 
Q 44.046875 -1.421875 31.78125 -1.421875 
Q 19.53125 -1.421875 13.0625 8.265625 
Q 6.59375 17.96875 6.59375 36.375 
Q 6.59375 54.828125 13.0625 64.515625 
Q 19.53125 74.21875 31.78125 74.21875 
z
" id="DejaVuSans-30"/>
      </defs>
      <g transform="translate(53.895526 266.598437)scale(0.1 -0.1)">
       <use xlink:href="#DejaVuSans-2212"/>
       <use x="83.789062" xlink:href="#DejaVuSans-31"/>
       <use x="147.412109" xlink:href="#DejaVuSans-2e"/>
       <use x="179.199219" xlink:href="#DejaVuSans-30"/>
       <use x="242.822266" xlink:href="#DejaVuSans-30"/>
      </g>
     </g>
    </g>
    <g id="xtick_2">
     <g id="line2d_3">
      <path clip-path="url(#pbd0fcb0519)" d="M 107.263636 252 
L 107.263636 34.56 
" style="fill:none;stroke:#b0b0b0;stroke-linecap:square;stroke-width:0.8;"/>
     </g>
     <g id="line2d_4">
      <g>
       <use style="stroke:#000000;stroke-width:0.8;" x="107.263636" xlink:href="#m8d7bdfa840" y="252"/>
      </g>
     </g>
     <g id="text_2">
      <!-- −0.75 -->
      <defs>
       <path d="M 8.203125 72.90625 
L 55.078125 72.90625 
L 55.078125 68.703125 
L 28.609375 0 
L 18.3125 0 
L 43.21875 64.59375 
L 8.203125 64.59375 
z
" id="DejaVuSans-37"/>
       <path d="M 10.796875 72.90625 
L 49.515625 72.90625 
L 49.515625 64.59375 
L 19.828125 64.59375 
L 19.828125 46.734375 
Q 21.96875 47.46875 24.109375 47.828125 
Q 26.265625 48.1875 28.421875 48.1875 
Q 40.625 48.1875 47.75 41.5 
Q 54.890625 34.8125 54.890625 23.390625 
Q 54.890625 11.625 47.5625 5.09375 
Q 40.234375 -1.421875 26.90625 -1.421875 
Q 22.3125 -1.421875 17.546875 -0.640625 
Q 12.796875 0.140625 7.71875 1.703125 
L 7.71875 11.625 
Q 12.109375 9.234375 16.796875 8.0625 
Q 21.484375 6.890625 26.703125 6.890625 
Q 35.15625 6.890625 40.078125 11.328125 
Q 45.015625 15.765625 45.015625 23.390625 
Q 45.015625 31 40.078125 35.4375 
Q 35.15625 39.890625 26.703125 39.890625 
Q 22.75 39.890625 18.8125 39.015625 
Q 14.890625 38.140625 10.796875 36.28125 
z
" id="DejaVuSans-35"/>
      </defs>
      <g transform="translate(91.94098 266.598437)scale(0.1 -0.1)">
       <use xlink:href="#DejaVuSans-2212"/>
       <use x="83.789062" xlink:href="#DejaVuSans-30"/>
       <use x="147.412109" xlink:href="#DejaVuSans-2e"/>
       <use x="179.199219" xlink:href="#DejaVuSans-37"/>
       <use x="242.822266" xlink:href="#DejaVuSans-35"/>
      </g>
     </g>
    </g>
    <g id="xtick_3">
     <g id="line2d_5">
      <path clip-path="url(#pbd0fcb0519)" d="M 145.309091 252 
L 145.309091 34.56 
" style="fill:none;stroke:#b0b0b0;stroke-linecap:square;stroke-width:0.8;"/>
     </g>
     <g id="line2d_6">
      <g>
       <use style="stroke:#000000;stroke-width:0.8;" x="145.309091" xlink:href="#m8d7bdfa840" y="252"/>
      </g>
     </g>
     <g id="text_3">
      <!-- −0.50 -->
      <g transform="translate(129.986435 266.598437)scale(0.1 -0.1)">
       <use xlink:href="#DejaVuSans-2212"/>
       <use x="83.789062" xlink:href="#DejaVuSans-30"/>
       <use x="147.412109" xlink:href="#DejaVuSans-2e"/>
       <use x="179.199219" xlink:href="#DejaVuSans-35"/>
       <use x="242.822266" xlink:href="#DejaVuSans-30"/>
      </g>
     </g>
    </g>
    <g id="xtick_4">
     <g id="line2d_7">
      <path clip-path="url(#pbd0fcb0519)" d="M 183.354545 252 
L 183.354545 34.56 
" style="fill:none;stroke:#b0b0b0;stroke-linecap:square;stroke-width:0.8;"/>
     </g>
     <g id="line2d_8">
      <g>
       <use style="stroke:#000000;stroke-width:0.8;" x="183.354545" xlink:href="#m8d7bdfa840" y="252"/>
      </g>
     </g>
     <g id="text_4">
      <!-- −0.25 -->
      <defs>
       <path d="M 19.1875 8.296875 
L 53.609375 8.296875 
L 53.609375 0 
L 7.328125 0 
L 7.328125 8.296875 
Q 12.9375 14.109375 22.625 23.890625 
Q 32.328125 33.6875 34.8125 36.53125 
Q 39.546875 41.84375 41.421875 45.53125 
Q 43.3125 49.21875 43.3125 52.78125 
Q 43.3125 58.59375 39.234375 62.25 
Q 35.15625 65.921875 28.609375 65.921875 
Q 23.96875 65.921875 18.8125 64.3125 
Q 13.671875 62.703125 7.8125 59.421875 
L 7.8125 69.390625 
Q 13.765625 71.78125 18.9375 73 
Q 24.125 74.21875 28.421875 74.21875 
Q 39.75 74.21875 46.484375 68.546875 
Q 53.21875 62.890625 53.21875 53.421875 
Q 53.21875 48.921875 51.53125 44.890625 
Q 49.859375 40.875 45.40625 35.40625 
Q 44.1875 33.984375 37.640625 27.21875 
Q 31.109375 20.453125 19.1875 8.296875 
z
" id="DejaVuSans-32"/>
      </defs>
      <g transform="translate(168.031889 266.598437)scale(0.1 -0.1)">
       <use xlink:href="#DejaVuSans-2212"/>
       <use x="83.789062" xlink:href="#DejaVuSans-30"/>
       <use x="147.412109" xlink:href="#DejaVuSans-2e"/>
       <use x="179.199219" xlink:href="#DejaVuSans-32"/>
       <use x="242.822266" xlink:href="#DejaVuSans-35"/>
      </g>
     </g>
    </g>
    <g id="xtick_5">
     <g id="line2d_9">
      <path clip-path="url(#pbd0fcb0519)" d="M 221.4 252 
L 221.4 34.56 
" style="fill:none;stroke:#b0b0b0;stroke-linecap:square;stroke-width:0.8;"/>
     </g>
     <g id="line2d_10">
      <g>
       <use style="stroke:#000000;stroke-width:0.8;" x="221.4" xlink:href="#m8d7bdfa840" y="252"/>
      </g>
     </g>
     <g id="text_5">
      <!-- 0.00 -->
      <g transform="translate(210.267188 266.598437)scale(0.1 -0.1)">
       <use xlink:href="#DejaVuSans-30"/>
       <use x="63.623047" xlink:href="#DejaVuSans-2e"/>
       <use x="95.410156" xlink:href="#DejaVuSans-30"/>
       <use x="159.033203" xlink:href="#DejaVuSans-30"/>
      </g>
     </g>
    </g>
    <g id="xtick_6">
     <g id="line2d_11">
      <path clip-path="url(#pbd0fcb0519)" d="M 259.445455 252 
L 259.445455 34.56 
" style="fill:none;stroke:#b0b0b0;stroke-linecap:square;stroke-width:0.8;"/>
     </g>
     <g id="line2d_12">
      <g>
       <use style="stroke:#000000;stroke-width:0.8;" x="259.445455" xlink:href="#m8d7bdfa840" y="252"/>
      </g>
     </g>
     <g id="text_6">
      <!-- 0.25 -->
      <g transform="translate(248.312642 266.598437)scale(0.1 -0.1)">
       <use xlink:href="#DejaVuSans-30"/>
       <use x="63.623047" xlink:href="#DejaVuSans-2e"/>
       <use x="95.410156" xlink:href="#DejaVuSans-32"/>
       <use x="159.033203" xlink:href="#DejaVuSans-35"/>
      </g>
     </g>
    </g>
    <g id="xtick_7">
     <g id="line2d_13">
      <path clip-path="url(#pbd0fcb0519)" d="M 297.490909 252 
L 297.490909 34.56 
" style="fill:none;stroke:#b0b0b0;stroke-linecap:square;stroke-width:0.8;"/>
     </g>
     <g id="line2d_14">
      <g>
       <use style="stroke:#000000;stroke-width:0.8;" x="297.490909" xlink:href="#m8d7bdfa840" y="252"/>
      </g>
     </g>
     <g id="text_7">
      <!-- 0.50 -->
      <g transform="translate(286.358097 266.598437)scale(0.1 -0.1)">
       <use xlink:href="#DejaVuSans-30"/>
       <use x="63.623047" xlink:href="#DejaVuSans-2e"/>
       <use x="95.410156" xlink:href="#DejaVuSans-35"/>
       <use x="159.033203" xlink:href="#DejaVuSans-30"/>
      </g>
     </g>
    </g>
    <g id="xtick_8">
     <g id="line2d_15">
      <path clip-path="url(#pbd0fcb0519)" d="M 335.536364 252 
L 335.536364 34.56 
" style="fill:none;stroke:#b0b0b0;stroke-linecap:square;stroke-width:0.8;"/>
     </g>
     <g id="line2d_16">
      <g>
       <use style="stroke:#000000;stroke-width:0.8;" x="335.536364" xlink:href="#m8d7bdfa840" y="252"/>
      </g>
     </g>
     <g id="text_8">
      <!-- 0.75 -->
      <g transform="translate(324.403551 266.598437)scale(0.1 -0.1)">
       <use xlink:href="#DejaVuSans-30"/>
       <use x="63.623047" xlink:href="#DejaVuSans-2e"/>
       <use x="95.410156" xlink:href="#DejaVuSans-37"/>
       <use x="159.033203" xlink:href="#DejaVuSans-35"/>
      </g>
     </g>
    </g>
    <g id="xtick_9">
     <g id="line2d_17">
      <path clip-path="url(#pbd0fcb0519)" d="M 373.581818 252 
L 373.581818 34.56 
" style="fill:none;stroke:#b0b0b0;stroke-linecap:square;stroke-width:0.8;"/>
     </g>
     <g id="line2d_18">
      <g>
       <use style="stroke:#000000;stroke-width:0.8;" x="373.581818" xlink:href="#m8d7bdfa840" y="252"/>
      </g>
     </g>
     <g id="text_9">
      <!-- 1.00 -->
      <g transform="translate(362.449006 266.598437)scale(0.1 -0.1)">
       <use xlink:href="#DejaVuSans-31"/>
       <use x="63.623047" xlink:href="#DejaVuSans-2e"/>
       <use x="95.410156" xlink:href="#DejaVuSans-30"/>
       <use x="159.033203" xlink:href="#DejaVuSans-30"/>
      </g>
     </g>
    </g>
    <g id="text_10">
     <!-- $t$ -->
     <defs>
      <path d="M 42.28125 54.6875 
L 40.921875 47.703125 
L 23 47.703125 
L 17.1875 18.015625 
Q 16.890625 16.359375 16.75 15.234375 
Q 16.609375 14.109375 16.609375 13.484375 
Q 16.609375 10.359375 18.484375 8.9375 
Q 20.359375 7.515625 24.515625 7.515625 
L 33.59375 7.515625 
L 32.078125 0 
L 23.484375 0 
Q 15.484375 0 11.546875 3.125 
Q 7.625 6.25 7.625 12.59375 
Q 7.625 13.71875 7.765625 15.0625 
Q 7.90625 16.40625 8.203125 18.015625 
L 14.015625 47.703125 
L 6.390625 47.703125 
L 7.8125 54.6875 
L 15.28125 54.6875 
L 18.3125 70.21875 
L 27.296875 70.21875 
L 24.3125 54.6875 
z
" id="DejaVuSans-Oblique-74"/>
     </defs>
     <g transform="translate(219.4 280.276563)scale(0.1 -0.1)">
      <use transform="translate(0 0.78125)" xlink:href="#DejaVuSans-Oblique-74"/>
     </g>
    </g>
   </g>
   <g id="matplotlib.axis_2">
    <g id="ytick_1">
     <g id="line2d_19">
      <path clip-path="url(#pbd0fcb0519)" d="M 54 227.297734 
L 388.8 227.297734 
" style="fill:none;stroke:#b0b0b0;stroke-linecap:square;stroke-width:0.8;"/>
     </g>
     <g id="line2d_20">
      <defs>
       <path d="M 0 0 
L -3.5 0 
" id="m5aa0e02199" style="stroke:#000000;stroke-width:0.8;"/>
      </defs>
      <g>
       <use style="stroke:#000000;stroke-width:0.8;" x="54" xlink:href="#m5aa0e02199" y="227.297734"/>
      </g>
     </g>
     <g id="text_11">
      <!-- −0.2 -->
      <g transform="translate(22.717187 231.096952)scale(0.1 -0.1)">
       <use xlink:href="#DejaVuSans-2212"/>
       <use x="83.789062" xlink:href="#DejaVuSans-30"/>
       <use x="147.412109" xlink:href="#DejaVuSans-2e"/>
       <use x="179.199219" xlink:href="#DejaVuSans-32"/>
      </g>
     </g>
    </g>
    <g id="ytick_2">
     <g id="line2d_21">
      <path clip-path="url(#pbd0fcb0519)" d="M 54 181.620989 
L 388.8 181.620989 
" style="fill:none;stroke:#b0b0b0;stroke-linecap:square;stroke-width:0.8;"/>
     </g>
     <g id="line2d_22">
      <g>
       <use style="stroke:#000000;stroke-width:0.8;" x="54" xlink:href="#m5aa0e02199" y="181.620989"/>
      </g>
     </g>
     <g id="text_12">
      <!-- −0.1 -->
      <g transform="translate(22.717187 185.420207)scale(0.1 -0.1)">
       <use xlink:href="#DejaVuSans-2212"/>
       <use x="83.789062" xlink:href="#DejaVuSans-30"/>
       <use x="147.412109" xlink:href="#DejaVuSans-2e"/>
       <use x="179.199219" xlink:href="#DejaVuSans-31"/>
      </g>
     </g>
    </g>
    <g id="ytick_3">
     <g id="line2d_23">
      <path clip-path="url(#pbd0fcb0519)" d="M 54 135.944244 
L 388.8 135.944244 
" style="fill:none;stroke:#b0b0b0;stroke-linecap:square;stroke-width:0.8;"/>
     </g>
     <g id="line2d_24">
      <g>
       <use style="stroke:#000000;stroke-width:0.8;" x="54" xlink:href="#m5aa0e02199" y="135.944244"/>
      </g>
     </g>
     <g id="text_13">
      <!-- 0.0 -->
      <g transform="translate(31.096875 139.743462)scale(0.1 -0.1)">
       <use xlink:href="#DejaVuSans-30"/>
       <use x="63.623047" xlink:href="#DejaVuSans-2e"/>
       <use x="95.410156" xlink:href="#DejaVuSans-30"/>
      </g>
     </g>
    </g>
    <g id="ytick_4">
     <g id="line2d_25">
      <path clip-path="url(#pbd0fcb0519)" d="M 54 90.267498 
L 388.8 90.267498 
" style="fill:none;stroke:#b0b0b0;stroke-linecap:square;stroke-width:0.8;"/>
     </g>
     <g id="line2d_26">
      <g>
       <use style="stroke:#000000;stroke-width:0.8;" x="54" xlink:href="#m5aa0e02199" y="90.267498"/>
      </g>
     </g>
     <g id="text_14">
      <!-- 0.1 -->
      <g transform="translate(31.096875 94.066717)scale(0.1 -0.1)">
       <use xlink:href="#DejaVuSans-30"/>
       <use x="63.623047" xlink:href="#DejaVuSans-2e"/>
       <use x="95.410156" xlink:href="#DejaVuSans-31"/>
      </g>
     </g>
    </g>
    <g id="ytick_5">
     <g id="line2d_27">
      <path clip-path="url(#pbd0fcb0519)" d="M 54 44.590753 
L 388.8 44.590753 
" style="fill:none;stroke:#b0b0b0;stroke-linecap:square;stroke-width:0.8;"/>
     </g>
     <g id="line2d_28">
      <g>
       <use style="stroke:#000000;stroke-width:0.8;" x="54" xlink:href="#m5aa0e02199" y="44.590753"/>
      </g>
     </g>
     <g id="text_15">
      <!-- 0.2 -->
      <g transform="translate(31.096875 48.389972)scale(0.1 -0.1)">
       <use xlink:href="#DejaVuSans-30"/>
       <use x="63.623047" xlink:href="#DejaVuSans-2e"/>
       <use x="95.410156" xlink:href="#DejaVuSans-32"/>
      </g>
     </g>
    </g>
    <g id="text_16">
     <!-- $Y$, $\tilde{Y}$ -->
     <defs>
      <path d="M 6.296875 72.90625 
L 16.890625 72.90625 
L 30.515625 42.921875 
L 56.5 72.90625 
L 67.578125 72.90625 
L 34.515625 34.71875 
L 27.78125 0 
L 17.921875 0 
L 24.609375 34.71875 
z
" id="DejaVuSans-Oblique-59"/>
      <path d="M 11.71875 12.40625 
L 22.015625 12.40625 
L 22.015625 4 
L 14.015625 -11.625 
L 7.71875 -11.625 
L 11.71875 4 
z
" id="DejaVuSans-2c"/>
      <path id="DejaVuSans-20"/>
      <path d="M -25.328125 66.890625 
L -28.109375 69.578125 
Q -29.171875 70.5625 -29.984375 71.015625 
Q -30.796875 71.484375 -31.421875 71.484375 
Q -33.28125 71.484375 -34.15625 69.703125 
Q -35.03125 67.921875 -35.140625 63.921875 
L -41.234375 63.921875 
Q -41.140625 70.515625 -38.640625 74.09375 
Q -36.15625 77.6875 -31.71875 77.6875 
Q -29.859375 77.6875 -28.296875 77 
Q -26.734375 76.3125 -24.9375 74.703125 
L -22.140625 72.015625 
Q -21.078125 71.046875 -20.265625 70.578125 
Q -19.46875 70.125 -18.828125 70.125 
Q -16.96875 70.125 -16.09375 71.90625 
Q -15.21875 73.6875 -15.109375 77.6875 
L -9.015625 77.6875 
Q -9.109375 71.09375 -11.59375 67.5 
Q -14.09375 63.921875 -18.53125 63.921875 
Q -20.390625 63.921875 -21.953125 64.59375 
Q -23.515625 65.28125 -25.328125 66.890625 
z
" id="DejaVuSans-303"/>
     </defs>
     <g transform="translate(16.6375 152.58)rotate(-90)scale(0.1 -0.1)">
      <use transform="translate(0 0.828125)" xlink:href="#DejaVuSans-Oblique-59"/>
      <use transform="translate(61.083984 0.828125)" xlink:href="#DejaVuSans-2c"/>
      <use transform="translate(92.871094 0.828125)" xlink:href="#DejaVuSans-20"/>
      <use transform="translate(188.163574 22.3125)" xlink:href="#DejaVuSans-303"/>
      <use transform="translate(124.658203 0.828125)" xlink:href="#DejaVuSans-Oblique-59"/>
     </g>
    </g>
   </g>
   <g id="line2d_29">
    <path clip-path="url(#pbd0fcb0519)" d="M 69.218182 137.21621 
L 72.292562 136.057361 
L 75.366942 135.005845 
L 78.441322 135.358227 
L 81.515702 136.734781 
L 84.590083 136.810858 
L 87.664463 133.440711 
L 90.738843 126.656262 
L 93.813223 118.311154 
L 96.887603 110.273172 
L 99.961983 103.506881 
L 103.036364 98.43136 
L 106.110744 95.196043 
L 109.185124 93.482196 
L 112.259504 92.472205 
L 115.333884 91.174417 
L 118.408264 89.029696 
L 121.482645 86.471119 
L 124.557025 84.495721 
L 127.631405 83.387311 
L 130.705785 82.383382 
L 133.780165 80.94026 
L 136.854545 79.842528 
L 139.928926 80.564285 
L 143.003306 83.719481 
L 146.077686 88.552096 
L 149.152066 93.868328 
L 152.226446 99.079939 
L 155.300826 104.230349 
L 158.375207 109.310029 
L 161.449587 113.85373 
L 164.523967 117.097344 
L 167.598347 118.429233 
L 170.672727 118.020417 
L 173.747107 117.004586 
L 176.821488 116.468808 
L 179.895868 116.229793 
L 182.970248 115.212417 
L 186.044628 113.21581 
L 189.119008 111.817528 
L 192.193388 113.151952 
L 195.267769 117.833167 
L 198.342149 124.026376 
L 201.416529 128.392923 
L 204.490909 128.251708 
L 207.565289 123.282871 
L 210.639669 115.137743 
L 213.71405 105.513559 
L 216.78843 95.084291 
L 219.86281 84.166063 
L 222.93719 73.546186 
L 226.01157 64.205731 
L 229.08595 56.646024 
L 232.160331 50.886766 
L 235.234711 46.884937 
L 238.309091 44.733303 
L 241.383471 44.709225 
L 244.457851 47.113346 
L 247.532231 51.675829 
L 250.606612 57.313445 
L 253.680992 62.754091 
L 256.755372 67.037675 
L 259.829752 69.538583 
L 262.904132 70.264807 
L 265.978512 70.10352 
L 269.052893 70.199849 
L 272.127273 70.987551 
L 275.201653 71.938257 
L 278.276033 72.282139 
L 281.350413 72.01096 
L 284.424793 72.100213 
L 287.499174 73.665554 
L 290.573554 77.068896 
L 293.647934 81.900714 
L 296.722314 87.548581 
L 299.796694 93.659043 
L 302.871074 100.113227 
L 305.945455 106.387829 
L 309.019835 110.860675 
L 312.094215 111.208338 
L 315.168595 106.12828 
L 318.242975 96.882176 
L 321.317355 86.842599 
L 324.391736 79.209922 
L 327.466116 75.179765 
L 330.540496 74.112883 
L 333.614876 74.745912 
L 336.689256 75.975056 
L 339.763636 77.287591 
L 342.838017 79.27858 
L 345.912397 83.672345 
L 348.986777 92.299401 
L 352.061157 105.575529 
L 355.135537 121.669903 
L 358.209917 137.232838 
L 361.284298 149.202742 
L 364.358678 156.015808 
L 367.433058 157.486833 
L 370.507438 154.462637 
L 373.581818 148.866993 
" style="fill:none;stroke:#ff0000;stroke-linecap:square;"/>
   </g>
   <g id="line2d_30">
    <path clip-path="url(#pbd0fcb0519)" d="M 69.218182 156.857259 
L 72.292562 168.766747 
L 75.366942 180.038042 
L 78.441322 187.983436 
L 81.515702 191.405434 
L 84.590083 191.073269 
L 87.664463 189.013076 
L 90.738843 187.308731 
L 93.813223 187.364027 
L 96.887603 189.790457 
L 99.961983 194.270957 
L 103.036364 199.268172 
L 106.110744 202.53004 
L 109.185124 202.5221 
L 112.259504 199.212397 
L 115.333884 193.492186 
L 118.408264 186.442699 
L 121.482645 179.224172 
L 124.557025 172.953648 
L 127.631405 168.121712 
L 130.705785 164.174434 
L 133.780165 160.051301 
L 136.854545 155.337724 
L 139.928926 150.63358 
L 143.003306 146.624599 
L 146.077686 143.244029 
L 149.152066 140.05171 
L 152.226446 136.947471 
L 155.300826 134.153737 
L 158.375207 131.853479 
L 161.449587 129.987455 
L 164.523967 128.138312 
L 167.598347 125.808739 
L 170.672727 123.193997 
L 173.747107 121.434116 
L 176.821488 121.670508 
L 179.895868 123.912921 
L 182.970248 127.101256 
L 186.044628 130.232309 
L 189.119008 133.115595 
L 192.193388 135.957718 
L 195.267769 138.566107 
L 198.342149 140.184414 
L 201.416529 139.923897 
L 204.490909 137.325314 
L 207.565289 132.733912 
L 210.639669 127.255408 
L 213.71405 122.424466 
L 216.78843 119.68586 
L 219.86281 119.568087 
L 222.93719 121.314942 
L 226.01157 123.804133 
L 229.08595 126.584143 
L 232.160331 129.651738 
L 235.234711 132.935084 
L 238.309091 136.537244 
L 241.383471 140.734852 
L 244.457851 145.204135 
L 247.532231 148.845411 
L 250.606612 150.768338 
L 253.680992 151.122358 
L 256.755372 150.788542 
L 259.829752 150.431251 
L 262.904132 150.05489 
L 265.978512 149.515105 
L 269.052893 149.027186 
L 272.127273 148.844644 
L 275.201653 148.97256 
L 278.276033 149.607347 
L 281.350413 151.234462 
L 284.424793 153.761473 
L 287.499174 155.977679 
L 290.573554 156.40688 
L 293.647934 154.599556 
L 296.722314 151.310564 
L 299.796694 147.61656 
L 302.871074 144.199698 
L 305.945455 141.258551 
L 309.019835 138.672243 
L 312.094215 136.207825 
L 315.168595 133.664983 
L 318.242975 130.965651 
L 321.317355 128.447538 
L 324.391736 127.053554 
L 327.466116 127.66374 
L 330.540496 129.912942 
L 333.614876 131.916592 
L 336.689256 131.530922 
L 339.763636 128.102376 
L 342.838017 123.041068 
L 345.912397 118.636793 
L 348.986777 116.293695 
L 352.061157 115.842616 
L 355.135537 116.269373 
L 358.209917 116.712708 
L 361.284298 116.785521 
L 364.358678 116.644069 
L 367.433058 117.20419 
L 370.507438 119.640355 
L 373.581818 124.034593 
" style="fill:none;stroke:#ff8b00;stroke-linecap:square;"/>
   </g>
   <g id="line2d_31">
    <path clip-path="url(#pbd0fcb0519)" d="M 69.218182 124.204781 
L 72.292562 118.943766 
L 75.366942 115.102673 
L 78.441322 113.444814 
L 81.515702 113.604709 
L 84.590083 114.506476 
L 87.664463 115.015544 
L 90.738843 114.441256 
L 93.813223 112.537992 
L 96.887603 109.110771 
L 99.961983 103.936199 
L 103.036364 97.218672 
L 106.110744 89.819988 
L 109.185124 82.814675 
L 112.259504 76.998507 
L 115.333884 72.87625 
L 118.408264 70.767513 
L 121.482645 70.691016 
L 124.557025 72.414693 
L 127.631405 75.884391 
L 130.705785 81.337502 
L 133.780165 88.763504 
L 136.854545 97.420394 
L 139.928926 105.920256 
L 143.003306 112.77478 
L 146.077686 117.050417 
L 149.152066 118.68378 
L 152.226446 118.390497 
L 155.300826 117.412505 
L 158.375207 117.154067 
L 161.449587 118.721872 
L 164.523967 122.474586 
L 167.598347 127.768719 
L 170.672727 133.179046 
L 173.747107 137.013353 
L 176.821488 137.675928 
L 179.895868 134.191053 
L 182.970248 127.124573 
L 186.044628 118.762982 
L 189.119008 111.690622 
L 192.193388 107.184131 
L 195.267769 105.258412 
L 198.342149 105.787804 
L 201.416529 108.838245 
L 204.490909 113.933439 
L 207.565289 119.712852 
L 210.639669 124.836299 
L 213.71405 128.897902 
L 216.78843 131.977057 
L 219.86281 133.704699 
L 222.93719 133.309983 
L 226.01157 130.370934 
L 229.08595 125.310169 
L 232.160331 119.357833 
L 235.234711 114.056576 
L 238.309091 110.53651 
L 241.383471 108.873805 
L 244.457851 107.790864 
L 247.532231 105.26625 
L 250.606612 100.134014 
L 253.680992 93.216729 
L 256.755372 86.822562 
L 259.829752 83.277854 
L 262.904132 83.568894 
L 265.978512 86.755864 
L 269.052893 90.693967 
L 272.127273 93.602369 
L 275.201653 95.068557 
L 278.276033 95.88387 
L 281.350413 97.345078 
L 284.424793 100.677487 
L 287.499174 106.509131 
L 290.573554 114.210013 
L 293.647934 121.826273 
L 296.722314 127.374777 
L 299.796694 130.416607 
L 302.871074 132.04973 
L 305.945455 133.489686 
L 309.019835 135.153317 
L 312.094215 137.079665 
L 315.168595 139.614527 
L 318.242975 143.314037 
L 321.317355 148.374703 
L 324.391736 154.325745 
L 327.466116 160.107466 
L 330.540496 164.397416 
L 333.614876 166.117935 
L 336.689256 164.943467 
L 339.763636 161.5787 
L 342.838017 157.550281 
L 345.912397 154.380337 
L 348.986777 152.652717 
L 352.061157 151.908354 
L 355.135537 151.508041 
L 358.209917 151.256526 
L 361.284298 150.930224 
L 364.358678 149.815708 
L 367.433058 147.380398 
L 370.507438 144.034988 
L 373.581818 140.777766 
" style="fill:none;stroke:#e8ff00;stroke-linecap:square;"/>
   </g>
   <g id="line2d_32">
    <path clip-path="url(#pbd0fcb0519)" d="M 69.218182 131.853361 
L 72.292562 132.010475 
L 75.366942 133.407158 
L 78.441322 134.566769 
L 81.515702 133.456396 
L 84.590083 129.010093 
L 87.664463 121.823488 
L 90.738843 113.723256 
L 93.813223 106.762954 
L 96.887603 102.074253 
L 99.961983 99.228771 
L 103.036364 96.995077 
L 106.110744 94.980612 
L 109.185124 94.189456 
L 112.259504 95.702576 
L 115.333884 99.107823 
L 118.408264 102.735875 
L 121.482645 105.563443 
L 124.557025 108.336928 
L 127.631405 112.332304 
L 130.705785 117.41907 
L 133.780165 121.954467 
L 136.854545 124.405448 
L 139.928926 124.644273 
L 143.003306 123.73876 
L 146.077686 122.862911 
L 149.152066 122.584665 
L 152.226446 122.912017 
L 155.300826 123.559387 
L 158.375207 124.071892 
L 161.449587 123.887534 
L 164.523967 122.422903 
L 167.598347 119.20959 
L 170.672727 114.097333 
L 173.747107 107.485217 
L 176.821488 100.439686 
L 179.895868 94.423792 
L 182.970248 90.51101 
L 186.044628 88.549774 
L 189.119008 87.14092 
L 192.193388 84.627475 
L 195.267769 80.188186 
L 198.342149 74.181435 
L 201.416529 67.800321 
L 204.490909 62.501185 
L 207.565289 59.474133 
L 210.639669 59.10555 
L 213.71405 60.586887 
L 216.78843 62.360854 
L 219.86281 63.522198 
L 222.93719 64.843287 
L 226.01157 68.047464 
L 229.08595 73.917656 
L 232.160331 81.362963 
L 235.234711 88.526764 
L 238.309091 94.614413 
L 241.383471 100.381051 
L 244.457851 107.001519 
L 247.532231 114.854369 
L 250.606612 123.352483 
L 253.680992 131.554585 
L 256.755372 138.94947 
L 259.829752 145.935628 
L 262.904132 153.412626 
L 265.978512 161.760575 
L 269.052893 170.486658 
L 272.127273 178.690912 
L 275.201653 185.40606 
L 278.276033 189.901506 
L 281.350413 192.221092 
L 284.424793 193.119949 
L 287.499174 193.25974 
L 290.573554 192.863473 
L 293.647934 192.244433 
L 296.722314 192.27091 
L 299.796694 194.050822 
L 302.871074 198.017961 
L 305.945455 203.294721 
L 309.019835 208.263969 
L 312.094215 211.97373 
L 315.168595 214.887471 
L 318.242975 218.272111 
L 321.317355 222.85831 
L 324.391736 227.952842 
L 327.466116 231.813934 
L 330.540496 232.9478 
L 333.614876 231.069437 
L 336.689256 226.834284 
L 339.763636 220.8299 
L 342.838017 213.267334 
L 345.912397 204.769617 
L 348.986777 196.781959 
L 352.061157 190.602456 
L 355.135537 186.167106 
L 358.209917 181.921866 
L 361.284298 175.793778 
L 364.358678 166.693378 
L 367.433058 155.641305 
L 370.507438 145.395379 
L 373.581818 138.514229 
" style="fill:none;stroke:#5dff00;stroke-linecap:square;"/>
   </g>
   <g id="line2d_33">
    <path clip-path="url(#pbd0fcb0519)" d="M 69.218182 170.606595 
L 72.292562 184.581561 
L 75.366942 193.904664 
L 78.441322 197.283997 
L 81.515702 196.471954 
L 84.590083 194.155285 
L 87.664463 191.934088 
L 90.738843 189.90666 
L 93.813223 187.704399 
L 96.887603 185.50495 
L 99.961983 183.931267 
L 103.036364 183.369864 
L 106.110744 183.743764 
L 109.185124 184.794273 
L 112.259504 186.229062 
L 115.333884 187.457191 
L 118.408264 187.454782 
L 121.482645 185.416432 
L 124.557025 181.653908 
L 127.631405 177.524201 
L 130.705785 174.357788 
L 133.780165 172.454078 
L 136.854545 170.954295 
L 139.928926 168.718367 
L 143.003306 165.507233 
L 146.077686 162.19399 
L 149.152066 159.623595 
L 152.226446 157.50768 
L 155.300826 154.871473 
L 158.375207 151.509071 
L 161.449587 148.505133 
L 164.523967 147.269906 
L 167.598347 148.499722 
L 170.672727 152.160875 
L 173.747107 158.034826 
L 176.821488 165.84832 
L 179.895868 174.73878 
L 182.970248 182.906866 
L 186.044628 188.418359 
L 189.119008 190.599549 
L 192.193388 190.403185 
L 195.267769 189.29857 
L 198.342149 188.000823 
L 201.416529 186.278392 
L 204.490909 183.559649 
L 207.565289 179.442647 
L 210.639669 173.995367 
L 213.71405 167.948179 
L 216.78843 162.251207 
L 219.86281 157.092634 
L 222.93719 151.75923 
L 226.01157 145.887434 
L 229.08595 140.58038 
L 232.160331 137.813456 
L 235.234711 138.659153 
L 238.309091 142.26731 
L 241.383471 146.509327 
L 244.457851 149.406604 
L 247.532231 150.253552 
L 250.606612 150.04459 
L 253.680992 150.824079 
L 256.755372 153.942932 
L 259.829752 158.659259 
L 262.904132 162.575778 
L 265.978512 163.331704 
L 269.052893 159.900568 
L 272.127273 152.869981 
L 275.201653 143.999919 
L 278.276033 135.499569 
L 281.350413 129.445687 
L 284.424793 127.193919 
L 287.499174 128.494969 
L 290.573554 131.322173 
L 293.647934 133.250317 
L 296.722314 132.860212 
L 299.796694 129.732562 
L 302.871074 124.070876 
L 305.945455 116.872924 
L 309.019835 109.816038 
L 312.094215 104.445411 
L 315.168595 101.39059 
L 318.242975 100.123664 
L 321.317355 99.455334 
L 324.391736 98.671336 
L 327.466116 98.189432 
L 330.540496 98.752914 
L 333.614876 100.352471 
L 336.689256 102.622703 
L 339.763636 105.859314 
L 342.838017 110.741959 
L 345.912397 117.218983 
L 348.986777 124.205303 
L 352.061157 130.187617 
L 355.135537 133.970569 
L 358.209917 135.222535 
L 361.284298 134.527507 
L 364.358678 132.925573 
L 367.433058 131.473544 
L 370.507438 130.989854 
L 373.581818 131.719098 
" style="fill:none;stroke:#00ff2e;stroke-linecap:square;"/>
   </g>
   <g id="line2d_34">
    <path clip-path="url(#pbd0fcb0519)" d="M 69.218182 135.651246 
L 72.292562 136.124645 
L 75.366942 138.447701 
L 78.441322 143.063378 
L 81.515702 149.241046 
L 84.590083 155.965654 
L 87.664463 162.790177 
L 90.738843 169.579904 
L 93.813223 176.073429 
L 96.887603 182.073551 
L 99.961983 187.56626 
L 103.036364 192.132712 
L 106.110744 194.512095 
L 109.185124 193.501812 
L 112.259504 189.443481 
L 115.333884 184.27755 
L 118.408264 180.068353 
L 121.482645 177.851374 
L 124.557025 177.607272 
L 127.631405 178.681559 
L 130.705785 180.181585 
L 133.780165 181.212567 
L 136.854545 180.869072 
L 139.928926 178.328007 
L 143.003306 173.262545 
L 146.077686 166.19979 
L 149.152066 158.5251 
L 152.226446 152.15527 
L 155.300826 148.757137 
L 158.375207 148.708052 
L 161.449587 150.91053 
L 164.523967 153.87539 
L 167.598347 156.623817 
L 170.672727 158.484398 
L 173.747107 158.899041 
L 176.821488 157.976038 
L 179.895868 156.726855 
L 182.970248 156.289045 
L 186.044628 157.157084 
L 189.119008 159.308414 
L 192.193388 162.61783 
L 195.267769 166.857711 
L 198.342149 171.625839 
L 201.416529 176.549874 
L 204.490909 181.37885 
L 207.565289 185.720568 
L 210.639669 188.890565 
L 213.71405 190.297569 
L 216.78843 189.98101 
L 219.86281 188.570441 
L 222.93719 186.713618 
L 226.01157 184.763841 
L 229.08595 183.067304 
L 232.160331 182.332565 
L 235.234711 183.492439 
L 238.309091 187.009429 
L 241.383471 192.054946 
L 244.457851 196.309344 
L 247.532231 196.990371 
L 250.606612 192.602439 
L 253.680992 183.853874 
L 256.755372 172.928737 
L 259.829752 162.037207 
L 262.904132 152.502184 
L 265.978512 144.600625 
L 269.052893 137.923128 
L 272.127273 132.070641 
L 275.201653 127.097772 
L 278.276033 123.191882 
L 281.350413 120.142203 
L 284.424793 117.446584 
L 287.499174 114.787501 
L 290.573554 112.136067 
L 293.647934 109.528212 
L 296.722314 106.807402 
L 299.796694 103.411094 
L 302.871074 98.656881 
L 305.945455 92.72415 
L 309.019835 87.27703 
L 312.094215 84.635458 
L 315.168595 86.027451 
L 318.242975 90.625352 
L 321.317355 96.314976 
L 324.391736 101.348298 
L 327.466116 105.216997 
L 330.540496 108.096546 
L 333.614876 109.905584 
L 336.689256 110.282398 
L 339.763636 109.213053 
L 342.838017 107.145462 
L 345.912397 104.63652 
L 348.986777 102.485735 
L 352.061157 102.065931 
L 355.135537 104.733242 
L 358.209917 110.73383 
L 361.284298 119.009491 
L 364.358678 127.844756 
L 367.433058 135.355791 
L 370.507438 139.924498 
L 373.581818 141.059988 
" style="fill:none;stroke:#00ffb9;stroke-linecap:square;"/>
   </g>
   <g id="line2d_35">
    <path clip-path="url(#pbd0fcb0519)" d="M 69.218182 120.41493 
L 72.292562 115.662051 
L 75.366942 113.39881 
L 78.441322 113.043703 
L 81.515702 113.223159 
L 84.590083 113.300227 
L 87.664463 113.405827 
L 90.738843 113.442615 
L 93.813223 112.71424 
L 96.887603 110.741128 
L 99.961983 107.997737 
L 103.036364 105.360306 
L 106.110744 103.121008 
L 109.185124 101.041371 
L 112.259504 99.105364 
L 115.333884 97.689671 
L 118.408264 97.047655 
L 121.482645 96.932484 
L 124.557025 96.762972 
L 127.631405 96.177262 
L 130.705785 95.534087 
L 133.780165 95.806817 
L 136.854545 97.925878 
L 139.928926 102.198366 
L 143.003306 108.103425 
L 146.077686 114.519385 
L 149.152066 120.407307 
L 152.226446 125.433486 
L 155.300826 129.863053 
L 158.375207 133.872474 
L 161.449587 137.114844 
L 164.523967 139.152059 
L 167.598347 140.315664 
L 170.672727 141.790418 
L 173.747107 144.702988 
L 176.821488 149.39842 
L 179.895868 155.539163 
L 182.970248 162.410667 
L 186.044628 168.945639 
L 189.119008 173.776895 
L 192.193388 175.82078 
L 195.267769 175.155532 
L 198.342149 173.020291 
L 201.416529 170.531623 
L 204.490909 167.687158 
L 207.565289 164.022713 
L 210.639669 159.960452 
L 213.71405 156.94193 
L 216.78843 155.987522 
L 219.86281 156.339789 
L 222.93719 155.981675 
L 226.01157 153.760559 
L 229.08595 150.905236 
L 232.160331 150.16709 
L 235.234711 153.301421 
L 238.309091 159.504657 
L 241.383471 166.253918 
L 244.457851 171.09061 
L 247.532231 172.423921 
L 250.606612 169.543335 
L 253.680992 162.871748 
L 256.755372 154.261934 
L 259.829752 146.449996 
L 262.904132 141.771627 
L 265.978512 141.169754 
L 269.052893 143.858321 
L 272.127273 147.355696 
L 275.201653 148.35147 
L 278.276033 144.720326 
L 281.350413 137.100392 
L 284.424793 128.25159 
L 287.499174 120.852655 
L 290.573554 115.849109 
L 293.647934 112.323929 
L 296.722314 108.542268 
L 299.796694 103.377366 
L 302.871074 96.934237 
L 305.945455 89.878488 
L 309.019835 82.575398 
L 312.094215 75.055241 
L 315.168595 67.497705 
L 318.242975 60.501667 
L 321.317355 54.826269 
L 324.391736 51.030311 
L 327.466116 49.524354 
L 330.540496 50.487939 
L 333.614876 53.235441 
L 336.689256 56.265031 
L 339.763636 58.594765 
L 342.838017 60.596292 
L 345.912397 63.103793 
L 348.986777 66.142569 
L 352.061157 68.873304 
L 355.135537 70.582896 
L 358.209917 71.460558 
L 361.284298 72.466175 
L 364.358678 74.907373 
L 367.433058 80.336679 
L 370.507438 89.975552 
L 373.581818 103.142709 
" style="fill:none;stroke:#00b9ff;stroke-linecap:square;"/>
   </g>
   <g id="line2d_36">
    <path clip-path="url(#pbd0fcb0519)" d="M 69.218182 162.131978 
L 72.292562 174.353582 
L 75.366942 184.496538 
L 78.441322 191.943526 
L 81.515702 197.936393 
L 84.590083 203.340052 
L 87.664463 207.533986 
L 90.738843 209.274613 
L 93.813223 208.047862 
L 96.887603 204.531636 
L 99.961983 199.885044 
L 103.036364 194.835251 
L 106.110744 189.770005 
L 109.185124 185.399538 
L 112.259504 182.677979 
L 115.333884 182.171641 
L 118.408264 183.913557 
L 121.482645 187.645878 
L 124.557025 192.864127 
L 127.631405 198.79146 
L 130.705785 204.412568 
L 133.780165 208.424976 
L 136.854545 209.553309 
L 139.928926 207.555045 
L 143.003306 203.809353 
L 146.077686 200.2668 
L 149.152066 197.682429 
L 152.226446 195.370782 
L 155.300826 192.866061 
L 158.375207 191.194712 
L 161.449587 191.958138 
L 164.523967 195.523759 
L 167.598347 200.679208 
L 170.672727 205.923379 
L 173.747107 210.828528 
L 176.821488 216.234126 
L 179.895868 223.122191 
L 182.970248 231.183936 
L 186.044628 238.423535 
L 189.119008 242.116364 
L 192.193388 240.305478 
L 195.267769 232.829103 
L 198.342149 221.293533 
L 201.416529 208.034834 
L 204.490909 194.996178 
L 207.565289 183.610436 
L 210.639669 175.251641 
L 213.71405 170.825376 
L 216.78843 169.69717 
L 219.86281 169.719718 
L 222.93719 168.76078 
L 226.01157 165.997149 
L 229.08595 161.672025 
L 232.160331 156.174982 
L 235.234711 149.934783 
L 238.309091 144.047756 
L 241.383471 140.228302 
L 244.457851 139.55806 
L 247.532231 141.422863 
L 250.606612 144.06281 
L 253.680992 146.170478 
L 256.755372 147.80576 
L 259.829752 149.876941 
L 262.904132 152.997374 
L 265.978512 156.906777 
L 269.052893 160.729544 
L 272.127273 163.464509 
L 275.201653 164.372172 
L 278.276033 163.431727 
L 281.350413 161.55781 
L 284.424793 160.006573 
L 287.499174 159.399236 
L 290.573554 159.328841 
L 293.647934 158.846481 
L 296.722314 157.466011 
L 299.796694 155.703221 
L 302.871074 154.288446 
L 305.945455 153.054367 
L 309.019835 151.281516 
L 312.094215 149.132796 
L 315.168595 148.208179 
L 318.242975 150.456095 
L 321.317355 156.458973 
L 324.391736 164.66311 
L 327.466116 172.441137 
L 330.540496 178.180057 
L 333.614876 182.298757 
L 336.689256 186.155765 
L 339.763636 190.296605 
L 342.838017 194.10729 
L 345.912397 196.879057 
L 348.986777 198.629427 
L 352.061157 199.940743 
L 355.135537 201.531368 
L 358.209917 203.903832 
L 361.284298 206.592682 
L 364.358678 207.350435 
L 367.433058 202.800766 
L 370.507438 191.093409 
L 373.581818 174.339797 
" style="fill:none;stroke:#002eff;stroke-linecap:square;"/>
   </g>
   <g id="line2d_37">
    <path clip-path="url(#pbd0fcb0519)" d="M 69.218182 128.215964 
L 72.292562 123.257169 
L 75.366942 118.145825 
L 78.441322 113.947131 
L 81.515702 111.633521 
L 84.590083 111.951923 
L 87.664463 114.947749 
L 90.738843 119.882267 
L 93.813223 125.934228 
L 96.887603 132.553201 
L 99.961983 139.037504 
L 103.036364 144.551047 
L 106.110744 148.852526 
L 109.185124 152.322127 
L 112.259504 154.958331 
L 115.333884 155.987984 
L 118.408264 154.916965 
L 121.482645 152.582865 
L 124.557025 150.723008 
L 127.631405 150.479091 
L 130.705785 151.367137 
L 133.780165 151.701113 
L 136.854545 149.944625 
L 139.928926 145.502354 
L 143.003306 138.465609 
L 146.077686 129.320468 
L 149.152066 119.294133 
L 152.226446 110.677404 
L 155.300826 106.121098 
L 158.375207 106.918664 
L 161.449587 111.756937 
L 164.523967 117.466536 
L 167.598347 121.333232 
L 170.672727 122.947608 
L 173.747107 124.122513 
L 176.821488 127.10957 
L 179.895868 132.699718 
L 182.970248 139.8021 
L 186.044628 146.551485 
L 189.119008 151.574504 
L 192.193388 154.498323 
L 195.267769 155.836742 
L 198.342149 156.420719 
L 201.416529 156.712182 
L 204.490909 156.802413 
L 207.565289 157.002782 
L 210.639669 157.987095 
L 213.71405 160.304062 
L 216.78843 163.973199 
L 219.86281 168.552585 
L 222.93719 173.592253 
L 226.01157 179.006862 
L 229.08595 184.854259 
L 232.160331 190.783662 
L 235.234711 195.879263 
L 238.309091 199.056591 
L 241.383471 199.620037 
L 244.457851 197.595156 
L 247.532231 193.612987 
L 250.606612 188.455672 
L 253.680992 182.759563 
L 256.755372 177.083068 
L 259.829752 171.911223 
L 262.904132 167.504239 
L 265.978512 164.008846 
L 269.052893 161.573196 
L 272.127273 160.090898 
L 275.201653 159.168186 
L 278.276033 158.589668 
L 281.350413 158.531769 
L 284.424793 159.186779 
L 287.499174 160.381093 
L 290.573554 161.590023 
L 293.647934 162.19958 
L 296.722314 161.889195 
L 299.796694 160.934984 
L 302.871074 160.058033 
L 305.945455 159.922447 
L 309.019835 160.754875 
L 312.094215 162.267743 
L 315.168595 163.829795 
L 318.242975 164.806664 
L 321.317355 165.02236 
L 324.391736 165.063973 
L 327.466116 165.848178 
L 330.540496 167.645169 
L 333.614876 169.777278 
L 336.689256 171.397739 
L 339.763636 172.361339 
L 342.838017 173.370195 
L 345.912397 175.443966 
L 348.986777 179.131696 
L 352.061157 184.030376 
L 355.135537 189.049053 
L 358.209917 193.097541 
L 361.284298 195.346739 
L 364.358678 194.858805 
L 367.433058 190.352009 
L 370.507438 180.986248 
L 373.581818 167.921125 
" style="fill:none;stroke:#5d00ff;stroke-linecap:square;"/>
   </g>
   <g id="line2d_38">
    <path clip-path="url(#pbd0fcb0519)" d="M 69.218182 108.245793 
L 72.292562 96.798252 
L 75.366942 89.56046 
L 78.441322 88.369348 
L 81.515702 92.118945 
L 84.590083 97.858297 
L 87.664463 102.79994 
L 90.738843 106.114621 
L 93.813223 109.219448 
L 96.887603 114.20379 
L 99.961983 121.814064 
L 103.036364 130.738173 
L 106.110744 138.60513 
L 109.185124 143.605934 
L 112.259504 145.233555 
L 115.333884 143.918359 
L 118.408264 140.613352 
L 121.482645 136.785099 
L 124.557025 134.258539 
L 127.631405 134.562376 
L 130.705785 137.902514 
L 133.780165 142.488993 
L 136.854545 145.461257 
L 139.928926 145.180566 
L 143.003306 142.497317 
L 146.077686 139.532404 
L 149.152066 137.588592 
L 152.226446 136.545677 
L 155.300826 135.733037 
L 158.375207 134.676123 
L 161.449587 133.169349 
L 164.523967 131.29423 
L 167.598347 129.5989 
L 170.672727 128.953323 
L 173.747107 129.821782 
L 176.821488 131.639507 
L 179.895868 133.169217 
L 182.970248 133.436794 
L 186.044628 132.070018 
L 189.119008 128.878905 
L 192.193388 123.639204 
L 195.267769 116.614572 
L 198.342149 109.057846 
L 201.416529 102.888688 
L 204.490909 99.889466 
L 207.565289 100.911305 
L 210.639669 105.251061 
L 213.71405 110.906757 
L 216.78843 116.039006 
L 219.86281 120.290704 
L 222.93719 124.549402 
L 226.01157 129.566463 
L 229.08595 134.887927 
L 232.160331 138.89891 
L 235.234711 139.79547 
L 238.309091 136.815806 
L 241.383471 130.755235 
L 244.457851 123.197096 
L 247.532231 115.423993 
L 250.606612 108.351651 
L 253.680992 103.051308 
L 256.755372 100.548032 
L 259.829752 101.047835 
L 262.904132 103.85074 
L 265.978512 108.108549 
L 269.052893 113.332518 
L 272.127273 119.267686 
L 275.201653 125.827562 
L 278.276033 133.282858 
L 281.350413 142.042189 
L 284.424793 151.812513 
L 287.499174 161.083725 
L 290.573554 167.903398 
L 293.647934 171.404825 
L 296.722314 172.395416 
L 299.796694 172.19009 
L 302.871074 171.046395 
L 305.945455 168.129966 
L 309.019835 162.863473 
L 312.094215 155.883174 
L 315.168595 148.732852 
L 318.242975 142.937547 
L 321.317355 139.355702 
L 324.391736 138.100689 
L 327.466116 138.85453 
L 330.540496 141.328645 
L 333.614876 145.500976 
L 336.689256 151.242496 
L 339.763636 157.723975 
L 342.838017 163.571691 
L 345.912397 167.742404 
L 348.986777 170.02271 
L 352.061157 170.697487 
L 355.135537 170.009209 
L 358.209917 168.024616 
L 361.284298 164.860466 
L 364.358678 160.822041 
L 367.433058 156.236275 
L 370.507438 151.295 
L 373.581818 146.2805 
" style="fill:none;stroke:#e800ff;stroke-linecap:square;"/>
   </g>
   <g id="line2d_39">
    <path clip-path="url(#pbd0fcb0519)" d="M 69.218182 134.018921 
L 72.292562 134.348068 
L 75.366942 135.652523 
L 78.441322 137.25719 
L 81.515702 137.883506 
L 84.590083 136.356901 
L 87.664463 132.216668 
L 90.738843 125.881515 
L 93.813223 118.35642 
L 96.887603 110.766945 
L 99.961983 104.051076 
L 103.036364 98.838438 
L 106.110744 95.342331 
L 109.185124 93.269792 
L 112.259504 91.946427 
L 115.333884 90.679707 
L 118.408264 89.093398 
L 121.482645 87.183073 
L 124.557025 85.13788 
L 127.631405 83.172547 
L 130.705785 81.504946 
L 133.780165 80.41271 
L 136.854545 80.253557 
L 139.928926 81.392172 
L 143.003306 84.056621 
L 146.077686 88.206334 
L 149.152066 93.477662 
L 152.226446 99.237207 
L 155.300826 104.773466 
L 158.375207 109.56359 
L 161.449587 113.397542 
L 164.523967 116.247235 
L 167.598347 118.070945 
L 170.672727 118.786139 
L 173.747107 118.387953 
L 176.821488 117.051308 
L 179.895868 115.172879 
L 182.970248 113.381572 
L 186.044628 112.437926 
L 189.119008 112.972788 
L 192.193388 115.21771 
L 195.267769 118.855917 
L 198.342149 122.979095 
L 201.416529 126.191109 
L 204.490909 126.944143 
L 207.565289 124.049694 
L 210.639669 117.156989 
L 213.71405 106.952268 
L 216.78843 94.941432 
L 219.86281 82.903441 
L 222.93719 72.267874 
L 226.01157 63.697198 
L 229.08595 57.0595 
L 232.160331 51.820362 
L 235.234711 47.675879 
L 238.309091 44.965378 
L 241.383471 44.443636 
L 244.457851 46.59866 
L 247.532231 51.142014 
L 250.606612 57.024056 
L 253.680992 62.840915 
L 256.755372 67.356213 
L 259.829752 69.937271 
L 262.904132 70.72729 
L 265.978512 70.444577 
L 269.052893 69.961955 
L 272.127273 69.958023 
L 275.201653 70.718918 
L 278.276033 72.034307 
L 281.350413 73.323037 
L 284.424793 74.130494 
L 287.499174 74.69845 
L 290.573554 76.054795 
L 293.647934 79.465107 
L 296.722314 85.596942 
L 299.796694 93.875721 
L 302.871074 102.453089 
L 305.945455 108.943781 
L 309.019835 111.495731 
L 312.094215 109.484626 
L 315.168595 103.596317 
L 318.242975 95.521551 
L 321.317355 87.384573 
L 324.391736 80.9467 
L 327.466116 76.933718 
L 330.540496 74.972853 
L 333.614876 74.219904 
L 336.689256 74.209874 
L 339.763636 75.316758 
L 342.838017 78.549727 
L 345.912397 84.903098 
L 348.986777 94.715498 
L 352.061157 107.380251 
L 355.135537 121.492081 
L 358.209917 135.265442 
L 361.284298 146.929173 
L 364.358678 154.941466 
L 367.433058 158.192721 
L 370.507438 156.512931 
L 373.581818 151.267112 
" style="fill:none;stroke:#ff0000;stroke-dasharray:3.7,1.6;stroke-dashoffset:0;"/>
   </g>
   <g id="line2d_40">
    <path clip-path="url(#pbd0fcb0519)" d="M 69.218182 159.497278 
L 72.292562 170.619929 
L 75.366942 180.048369 
L 78.441322 186.444192 
L 81.515702 189.764399 
L 84.590083 190.56379 
L 87.664463 189.721646 
L 90.738843 188.495834 
L 93.813223 188.282897 
L 96.887603 190.030451 
L 99.961983 193.703784 
L 103.036364 198.185889 
L 106.110744 201.711471 
L 109.185124 202.621985 
L 112.259504 200.069203 
L 115.333884 194.352479 
L 118.408264 186.755686 
L 121.482645 178.961823 
L 124.557025 172.320813 
L 127.631405 167.331103 
L 130.705785 163.587703 
L 133.780165 160.190129 
L 136.854545 156.341964 
L 139.928926 151.798511 
L 143.003306 146.947751 
L 146.077686 142.504465 
L 149.152066 139.013102 
L 152.226446 136.511038 
L 155.300826 134.582994 
L 158.375207 132.685985 
L 161.449587 130.448967 
L 164.523967 127.816957 
L 167.598347 125.089889 
L 170.672727 122.858893 
L 173.747107 121.763569 
L 176.821488 122.144935 
L 179.895868 123.889087 
L 182.970248 126.610585 
L 186.044628 129.908893 
L 189.119008 133.395543 
L 192.193388 136.584497 
L 195.267769 138.903506 
L 198.342149 139.844608 
L 201.416529 139.09857 
L 204.490909 136.625421 
L 207.565289 132.721167 
L 210.639669 128.060485 
L 213.71405 123.613199 
L 216.78843 120.39386 
L 219.86281 119.124048 
L 222.93719 119.988146 
L 226.01157 122.633048 
L 229.08595 126.365706 
L 232.160331 130.418204 
L 235.234711 134.229119 
L 238.309091 137.63476 
L 241.383471 140.802953 
L 244.457851 143.952106 
L 247.532231 147.090165 
L 250.606612 149.914118 
L 253.680992 151.892561 
L 256.755372 152.543168 
L 259.829752 151.787583 
L 262.904132 150.107769 
L 265.978512 148.359981 
L 269.052893 147.382888 
L 272.127273 147.636044 
L 275.201653 149.047155 
L 278.276033 151.121591 
L 281.350413 153.190235 
L 284.424793 154.63155 
L 287.499174 155.049812 
L 290.573554 154.407529 
L 293.647934 152.977053 
L 296.722314 151.073118 
L 299.796694 148.792555 
L 302.871074 146.007539 
L 305.945455 142.607683 
L 309.019835 138.753087 
L 312.094215 134.915293 
L 315.168595 131.703873 
L 318.242975 129.615469 
L 321.317355 128.818581 
L 324.391736 129.073293 
L 327.466116 129.83801 
L 330.540496 130.464179 
L 333.614876 130.358194 
L 336.689256 129.129952 
L 339.763636 126.754464 
L 342.838017 123.64071 
L 345.912397 120.485859 
L 348.986777 117.945358 
L 352.061157 116.327543 
L 355.135537 115.543733 
L 358.209917 115.326134 
L 361.284298 115.507793 
L 364.358678 116.21455 
L 367.433058 117.894171 
L 370.507438 120.984307 
L 373.581818 125.269388 
" style="fill:none;stroke:#ff8b00;stroke-dasharray:3.7,1.6;stroke-dashoffset:0;"/>
   </g>
   <g id="line2d_41">
    <path clip-path="url(#pbd0fcb0519)" d="M 69.218182 123.758509 
L 72.292562 118.843542 
L 75.366942 115.421545 
L 78.441322 113.836545 
L 81.515702 113.59193 
L 84.590083 114.033303 
L 87.664463 114.585105 
L 90.738843 114.55266 
L 93.813223 113.079012 
L 96.887603 109.508892 
L 99.961983 103.848573 
L 103.036364 96.836422 
L 106.110744 89.532626 
L 109.185124 82.827756 
L 112.259504 77.269337 
L 115.333884 73.19479 
L 118.408264 70.867211 
L 121.482645 70.462491 
L 124.557025 72.058816 
L 127.631405 75.712386 
L 130.705785 81.437051 
L 133.780165 88.974688 
L 136.854545 97.560102 
L 139.928926 105.956243 
L 143.003306 112.803757 
L 146.077686 117.122605 
L 149.152066 118.726935 
L 152.226446 118.328663 
L 155.300826 117.271337 
L 158.375207 117.037024 
L 161.449587 118.713689 
L 164.523967 122.582137 
L 167.598347 127.957812 
L 170.672727 133.349155 
L 173.747107 136.934836 
L 176.821488 137.261238 
L 179.895868 133.839986 
L 182.970248 127.333215 
L 186.044628 119.333469 
L 189.119008 111.867461 
L 192.193388 106.710641 
L 195.267769 104.778415 
L 198.342149 105.947845 
L 201.416529 109.376272 
L 204.490909 114.05494 
L 207.565289 119.219792 
L 210.639669 124.386258 
L 213.71405 129.09538 
L 216.78843 132.669434 
L 219.86281 134.257443 
L 222.93719 133.229107 
L 226.01157 129.646313 
L 229.08595 124.424114 
L 232.160331 119.000565 
L 235.234711 114.641477 
L 238.309091 111.773282 
L 241.383471 109.80099 
L 244.457851 107.537511 
L 247.532231 103.947068 
L 250.606612 98.80279 
L 253.680992 92.925649 
L 256.755372 87.804745 
L 259.829752 84.792395 
L 262.904132 84.424675 
L 265.978512 86.274004 
L 269.052893 89.298811 
L 272.127273 92.393587 
L 275.201653 94.871498 
L 278.276033 96.742096 
L 281.350413 98.69823 
L 284.424793 101.740038 
L 287.499174 106.541064 
L 290.573554 112.956041 
L 293.647934 120.043492 
L 296.722314 126.524117 
L 299.796694 131.317921 
L 302.871074 133.95998 
L 305.945455 134.81666 
L 309.019835 134.970945 
L 312.094215 135.764983 
L 315.168595 138.240595 
L 318.242975 142.753691 
L 321.317355 148.870804 
L 324.391736 155.508091 
L 327.466116 161.236947 
L 330.540496 164.74993 
L 333.614876 165.424978 
L 336.689256 163.661392 
L 339.763636 160.644503 
L 342.838017 157.637396 
L 345.912397 155.33086 
L 348.986777 153.728542 
L 352.061157 152.526118 
L 355.135537 151.506487 
L 358.209917 150.608764 
L 361.284298 149.778337 
L 364.358678 148.841919 
L 367.433058 147.486717 
L 370.507438 145.415508 
L 373.581818 142.698602 
" style="fill:none;stroke:#e8ff00;stroke-dasharray:3.7,1.6;stroke-dashoffset:0;"/>
   </g>
   <g id="line2d_42">
    <path clip-path="url(#pbd0fcb0519)" d="M 69.218182 134.608149 
L 72.292562 134.180003 
L 75.366942 133.753754 
L 78.441322 132.911528 
L 81.515702 131.029227 
L 84.590083 127.601182 
L 87.664463 122.498732 
L 90.738843 116.046397 
L 93.813223 108.977858 
L 96.887603 102.338778 
L 99.961983 97.258042 
L 103.036364 94.529185 
L 106.110744 94.212512 
L 109.185124 95.618972 
L 112.259504 97.755555 
L 115.333884 99.908772 
L 118.408264 101.998719 
L 121.482645 104.507555 
L 124.557025 107.990363 
L 127.631405 112.507765 
L 130.705785 117.439554 
L 133.780165 121.769046 
L 136.854545 124.558193 
L 139.928926 125.363366 
L 143.003306 124.480531 
L 146.077686 122.889155 
L 149.152066 121.78699 
L 152.226446 121.908376 
L 155.300826 123.116669 
L 158.375207 124.53396 
L 161.449587 124.972735 
L 164.523967 123.389647 
L 167.598347 119.317908 
L 170.672727 113.166106 
L 173.747107 106.131597 
L 176.821488 99.680721 
L 179.895868 94.858328 
L 182.970248 91.79589 
L 186.044628 89.697304 
L 189.119008 87.334422 
L 192.193388 83.770538 
L 195.267769 78.866723 
L 198.342149 73.270498 
L 201.416529 67.962068 
L 204.490909 63.734524 
L 207.565289 60.949578 
L 210.639669 59.615733 
L 213.71405 59.584784 
L 216.78843 60.672345 
L 219.86281 62.711458 
L 222.93719 65.640523 
L 226.01157 69.55943 
L 229.08595 74.586944 
L 232.160331 80.617993 
L 235.234711 87.286429 
L 238.309091 94.180324 
L 241.383471 101.074323 
L 244.457851 108.004457 
L 247.532231 115.167857 
L 250.606612 122.717349 
L 253.680992 130.598899 
L 256.755372 138.585711 
L 259.829752 146.488682 
L 262.904132 154.318531 
L 265.978512 162.205172 
L 269.052893 170.140107 
L 272.127273 177.806669 
L 275.201653 184.633981 
L 278.276033 189.962745 
L 281.350413 193.235837 
L 284.424793 194.2476 
L 287.499174 193.404838 
L 290.573554 191.803107 
L 293.647934 190.905469 
L 296.722314 191.858401 
L 299.796694 194.877926 
L 302.871074 199.215933 
L 305.945455 203.764501 
L 309.019835 207.792617 
L 312.094215 211.256317 
L 315.168595 214.616863 
L 318.242975 218.442826 
L 321.317355 222.974714 
L 324.391736 227.782235 
L 327.466116 231.739016 
L 330.540496 233.428843 
L 333.614876 231.829032 
L 336.689256 226.9018 
L 339.763636 219.677849 
L 342.838017 211.720603 
L 345.912397 204.347523 
L 348.986777 198.110124 
L 352.061157 192.721146 
L 355.135537 187.337156 
L 358.209917 181.047826 
L 361.284298 173.377429 
L 364.358678 164.574056 
L 367.433058 155.580431 
L 370.507438 147.678332 
L 373.581818 141.880181 
" style="fill:none;stroke:#5dff00;stroke-dasharray:3.7,1.6;stroke-dashoffset:0;"/>
   </g>
   <g id="line2d_43">
    <path clip-path="url(#pbd0fcb0519)" d="M 69.218182 169.64776 
L 72.292562 183.736473 
L 75.366942 193.584572 
L 78.441322 197.723935 
L 81.515702 197.448973 
L 84.590083 194.971633 
L 87.664463 191.935163 
L 90.738843 189.128961 
L 93.813223 186.85216 
L 96.887603 185.24056 
L 99.961983 184.332065 
L 103.036364 184.057648 
L 106.110744 184.325137 
L 109.185124 185.061544 
L 112.259504 186.049308 
L 115.333884 186.760745 
L 118.408264 186.531902 
L 121.482645 184.981768 
L 124.557025 182.240349 
L 127.631405 178.810123 
L 130.705785 175.271192 
L 133.780165 172.071554 
L 136.854545 169.455952 
L 139.928926 167.433571 
L 143.003306 165.720328 
L 146.077686 163.783194 
L 149.152066 161.128004 
L 152.226446 157.665565 
L 155.300826 153.818248 
L 158.375207 150.323177 
L 161.449587 147.974459 
L 164.523967 147.43169 
L 167.598347 149.077434 
L 170.672727 152.95332 
L 173.747107 158.788431 
L 176.821488 166.04566 
L 179.895868 173.939503 
L 182.970248 181.463616 
L 186.044628 187.510144 
L 189.119008 191.160301 
L 192.193388 192.07341 
L 195.267769 190.673417 
L 198.342149 187.908353 
L 201.416529 184.738562 
L 204.490909 181.692546 
L 207.565289 178.680562 
L 210.639669 175.106953 
L 213.71405 170.273291 
L 216.78843 163.923903 
L 219.86281 156.581879 
L 222.93719 149.40563 
L 226.01157 143.694703 
L 229.08595 140.37921 
L 232.160331 139.673756 
L 235.234711 140.996711 
L 238.309091 143.271598 
L 241.383471 145.494686 
L 244.457851 147.207026 
L 247.532231 148.598868 
L 250.606612 150.233076 
L 253.680992 152.597402 
L 256.755372 155.744287 
L 259.829752 159.115742 
L 262.904132 161.592099 
L 265.978512 161.854304 
L 269.052893 158.969857 
L 272.127273 152.907675 
L 275.201653 144.752299 
L 278.276033 136.474631 
L 281.350413 130.200154 
L 284.424793 127.271698 
L 287.499174 127.6865 
L 290.573554 130.175234 
L 293.647934 132.716884 
L 296.722314 133.266566 
L 299.796694 130.567523 
L 302.871074 124.720598 
L 305.945455 117.105383 
L 309.019835 109.648293 
L 312.094215 103.926566 
L 315.168595 100.619224 
L 318.242975 99.444077 
L 321.317355 99.46903 
L 324.391736 99.659987 
L 327.466116 99.46448 
L 330.540496 99.116862 
L 333.614876 99.447292 
L 336.689256 101.350681 
L 339.763636 105.310885 
L 342.838017 111.172714 
L 345.912397 118.123394 
L 348.986777 124.910448 
L 352.061157 130.303712 
L 355.135537 133.558938 
L 358.209917 134.609218 
L 361.284298 133.995179 
L 364.358678 132.664898 
L 367.433058 131.63973 
L 370.507438 131.576365 
L 373.581818 132.472341 
" style="fill:none;stroke:#00ff2e;stroke-dasharray:3.7,1.6;stroke-dashoffset:0;"/>
   </g>
   <g id="line2d_44">
    <path clip-path="url(#pbd0fcb0519)" d="M 69.218182 134.854555 
L 72.292562 135.980154 
L 75.366942 138.825841 
L 78.441322 143.402891 
L 81.515702 149.247991 
L 84.590083 155.794034 
L 87.664463 162.621937 
L 90.738843 169.460666 
L 93.813223 176.10818 
L 96.887603 182.369313 
L 99.961983 187.907944 
L 103.036364 192.069801 
L 106.110744 193.998097 
L 109.185124 193.132717 
L 112.259504 189.726876 
L 115.333884 184.948997 
L 118.408264 180.435995 
L 121.482645 177.573041 
L 124.557025 176.962296 
L 127.631405 178.281942 
L 130.705785 180.444708 
L 133.780165 181.96558 
L 136.854545 181.476635 
L 139.928926 178.250654 
L 143.003306 172.519532 
L 146.077686 165.388401 
L 149.152066 158.368903 
L 152.226446 152.834671 
L 155.300826 149.663043 
L 158.375207 149.068102 
L 161.449587 150.589706 
L 164.523967 153.297338 
L 167.598347 156.14685 
L 170.672727 158.277626 
L 173.747107 159.16582 
L 176.821488 158.736351 
L 179.895868 157.467355 
L 182.970248 156.326993 
L 186.044628 156.40721 
L 189.119008 158.397894 
L 192.193388 162.257376 
L 195.267769 167.310526 
L 198.342149 172.647069 
L 201.416529 177.516914 
L 204.490909 181.561913 
L 207.565289 184.831347 
L 210.639669 187.526895 
L 213.71405 189.608939 
L 216.78843 190.632971 
L 219.86281 190.047617 
L 222.93719 187.75942 
L 226.01157 184.523873 
L 229.08595 181.826313 
L 232.160331 181.220243 
L 235.234711 183.462662 
L 238.309091 187.994457 
L 241.383471 193.083373 
L 244.457851 196.49324 
L 247.532231 196.349004 
L 250.606612 191.878931 
L 253.680992 183.674662 
L 256.755372 173.287098 
L 259.829752 162.471722 
L 262.904132 152.584229 
L 265.978512 144.313127 
L 269.052893 137.689207 
L 272.127273 132.300662 
L 275.201653 127.630097 
L 278.276033 123.379926 
L 281.350413 119.616414 
L 284.424793 116.614801 
L 287.499174 114.476462 
L 290.573554 112.805075 
L 293.647934 110.756118 
L 296.722314 107.499098 
L 299.796694 102.774456 
L 302.871074 97.135502 
L 305.945455 91.724307 
L 309.019835 87.775119 
L 312.094215 86.158374 
L 315.168595 87.148414 
L 318.242975 90.412753 
L 321.317355 95.15847 
L 324.391736 100.386998 
L 327.466116 105.150936 
L 330.540496 108.701911 
L 333.614876 110.570619 
L 336.689256 110.643624 
L 339.763636 109.174676 
L 342.838017 106.720015 
L 345.912397 104.085013 
L 348.986777 102.270296 
L 352.061157 102.332167 
L 355.135537 105.121789 
L 358.209917 110.912039 
L 361.284298 119.046845 
L 364.358678 127.899438 
L 367.433058 135.343346 
L 370.507438 139.691955 
L 373.581818 140.657827 
" style="fill:none;stroke:#00ffb9;stroke-dasharray:3.7,1.6;stroke-dashoffset:0;"/>
   </g>
   <g id="line2d_45">
    <path clip-path="url(#pbd0fcb0519)" d="M 69.218182 121.699256 
L 72.292562 116.385955 
L 75.366942 113.160576 
L 78.441322 112.229376 
L 81.515702 112.665063 
L 84.590083 113.44034 
L 87.664463 113.912925 
L 90.738843 113.704619 
L 93.813223 112.605014 
L 96.887603 110.637239 
L 99.961983 108.068977 
L 103.036364 105.312884 
L 106.110744 102.787991 
L 109.185124 100.78076 
L 112.259504 99.344872 
L 115.333884 98.313866 
L 118.408264 97.449378 
L 121.482645 96.628687 
L 124.557025 95.920538 
L 127.631405 95.510584 
L 130.705785 95.626378 
L 133.780165 96.573789 
L 136.854545 98.737616 
L 139.928926 102.390061 
L 143.003306 107.469506 
L 146.077686 113.559292 
L 149.152066 120.004393 
L 152.226446 126.03562 
L 155.300826 130.955001 
L 158.375207 134.406277 
L 161.449587 136.565299 
L 164.523967 138.062997 
L 167.598347 139.670285 
L 170.672727 142.009666 
L 173.747107 145.454904 
L 176.821488 150.105272 
L 179.895868 155.76218 
L 182.970248 161.96124 
L 186.044628 168.007124 
L 189.119008 172.987983 
L 192.193388 175.952471 
L 195.267769 176.321683 
L 198.342149 174.239358 
L 201.416529 170.528263 
L 204.490909 166.30184 
L 207.565289 162.54882 
L 210.639669 159.871373 
L 213.71405 158.335458 
L 216.78843 157.455304 
L 219.86281 156.452019 
L 222.93719 154.762337 
L 226.01157 152.53693 
L 229.08595 150.785447 
L 232.160331 150.934101 
L 235.234711 153.946213 
L 238.309091 159.547964 
L 241.383471 166.077162 
L 244.457851 171.09169 
L 247.532231 172.438108 
L 250.606612 169.235961 
L 253.680992 162.316181 
L 256.755372 153.909376 
L 259.829752 146.679742 
L 262.904132 142.565321 
L 265.978512 142.024507 
L 269.052893 143.973241 
L 272.127273 146.321138 
L 275.201653 146.862389 
L 278.276033 144.174798 
L 281.350413 138.165654 
L 284.424793 130.061629 
L 287.499174 121.805176 
L 290.573554 115.061584 
L 293.647934 110.378581 
L 296.722314 107.02289 
L 299.796694 103.532815 
L 302.871074 98.574356 
L 305.945455 91.603514 
L 309.019835 83.053651 
L 312.094215 74.055962 
L 315.168595 65.879977 
L 318.242975 59.39765 
L 321.317355 54.885243 
L 324.391736 52.197166 
L 327.466116 51.04581 
L 330.540496 51.173756 
L 333.614876 52.401143 
L 336.689256 54.581967 
L 339.763636 57.51408 
L 342.838017 60.880991 
L 345.912397 64.25204 
L 348.986777 67.141974 
L 352.061157 69.169546 
L 355.135537 70.266361 
L 358.209917 70.809076 
L 361.284298 71.674695 
L 364.358678 74.28205 
L 367.433058 80.356929 
L 370.507438 90.869842 
L 373.581818 104.548356 
" style="fill:none;stroke:#00b9ff;stroke-dasharray:3.7,1.6;stroke-dashoffset:0;"/>
   </g>
   <g id="line2d_46">
    <path clip-path="url(#pbd0fcb0519)" d="M 69.218182 161.477716 
L 72.292562 173.690761 
L 75.366942 184.401025 
L 78.441322 192.574782 
L 81.515702 198.668204 
L 84.590083 203.386971 
L 87.664463 206.835836 
L 90.738843 208.544239 
L 93.813223 207.977978 
L 96.887603 205.069832 
L 99.961983 200.387825 
L 103.036364 194.87765 
L 106.110744 189.520537 
L 109.185124 185.179187 
L 112.259504 182.546917 
L 115.333884 182.069824 
L 118.408264 183.87842 
L 121.482645 187.763909 
L 124.557025 193.150624 
L 127.631405 199.081602 
L 130.705785 204.352816 
L 133.780165 207.854746 
L 136.854545 208.958084 
L 139.928926 207.704007 
L 143.003306 204.714197 
L 146.077686 200.908991 
L 149.152066 197.177849 
L 152.226446 194.166955 
L 155.300826 192.29222 
L 158.375207 191.863142 
L 161.449587 193.084111 
L 164.523967 195.917008 
L 167.598347 200.023705 
L 170.672727 204.947978 
L 173.747107 210.457497 
L 176.821488 216.712396 
L 179.895868 223.914063 
L 182.970248 231.573973 
L 186.044628 238.120582 
L 189.119008 241.410934 
L 192.193388 239.819576 
L 195.267769 233.009841 
L 198.342149 221.947041 
L 201.416529 208.470424 
L 204.490909 194.827543 
L 207.565289 183.185777 
L 210.639669 175.049021 
L 213.71405 170.784098 
L 216.78843 169.547688 
L 219.86281 169.64468 
L 222.93719 169.149838 
L 226.01157 166.63612 
L 229.08595 161.770881 
L 232.160331 155.401774 
L 235.234711 149.018345 
L 238.309091 143.999229 
L 241.383471 141.121594 
L 244.457851 140.430467 
L 247.532231 141.38402 
L 250.606612 143.226002 
L 253.680992 145.407766 
L 256.755372 147.776027 
L 259.829752 150.455805 
L 262.904132 153.587081 
L 265.978512 157.061817 
L 269.052893 160.397075 
L 272.127273 162.891454 
L 275.201653 164.0036 
L 278.276033 163.655838 
L 281.350413 162.256026 
L 284.424793 160.499756 
L 287.499174 159.084986 
L 290.573554 158.386791 
L 293.647934 158.223814 
L 296.722314 157.960617 
L 299.796694 156.942626 
L 302.871074 154.930661 
L 305.945455 152.274041 
L 309.019835 149.797553 
L 312.094215 148.485223 
L 315.168595 149.123934 
L 318.242975 152.064776 
L 321.317355 157.137552 
L 324.391736 163.697483 
L 327.466116 170.805168 
L 330.540496 177.512638 
L 333.614876 183.156147 
L 336.689256 187.533501 
L 339.763636 190.870182 
L 342.838017 193.564971 
L 345.912397 195.902713 
L 348.986777 198.005085 
L 352.061157 200.014919 
L 355.135537 202.181593 
L 358.209917 204.599563 
L 361.284298 206.69624 
L 364.358678 206.775723 
L 367.433058 202.236848 
L 370.507438 191.263658 
L 373.581818 175.219575 
" style="fill:none;stroke:#002eff;stroke-dasharray:3.7,1.6;stroke-dashoffset:0;"/>
   </g>
   <g id="line2d_47">
    <path clip-path="url(#pbd0fcb0519)" d="M 69.218182 127.311843 
L 72.292562 122.627884 
L 75.366942 118.029354 
L 78.441322 114.341753 
L 81.515702 112.293558 
L 84.590083 112.44531 
L 87.664463 114.970565 
L 90.738843 119.53629 
L 93.813223 125.470433 
L 96.887603 132.067788 
L 99.961983 138.734126 
L 103.036364 144.887811 
L 106.110744 149.892106 
L 109.185124 153.239184 
L 112.259504 154.798381 
L 115.333884 154.839571 
L 118.408264 153.879907 
L 121.482645 152.568564 
L 124.557025 151.57071 
L 127.631405 151.286972 
L 130.705785 151.52062 
L 133.780165 151.395744 
L 136.854545 149.670471 
L 139.928926 145.323337 
L 143.003306 138.11626 
L 146.077686 128.860985 
L 149.152066 119.291345 
L 152.226446 111.55142 
L 155.300826 107.393034 
L 158.375207 107.407293 
L 161.449587 110.762414 
L 164.523967 115.669481 
L 167.598347 120.320405 
L 170.672727 123.747652 
L 173.747107 126.154049 
L 176.821488 128.622642 
L 179.895868 132.389897 
L 182.970248 137.994903 
L 186.044628 144.789305 
L 189.119008 151.225314 
L 192.193388 155.754622 
L 195.267769 157.66741 
L 198.342149 157.372211 
L 201.416529 156.101045 
L 204.490909 155.278518 
L 207.565289 155.863426 
L 210.639669 158.006616 
L 213.71405 161.225778 
L 216.78843 164.935963 
L 219.86281 168.907873 
L 222.93719 173.329909 
L 226.01157 178.494209 
L 229.08595 184.393667 
L 232.160331 190.513322 
L 235.234711 195.893392 
L 238.309091 199.410293 
L 241.383471 200.200455 
L 244.457851 198.055406 
L 247.532231 193.551571 
L 250.606612 187.804446 
L 253.680992 181.958925 
L 256.755372 176.715848 
L 259.829752 172.206406 
L 262.904132 168.258234 
L 265.978512 164.757666 
L 269.052893 161.792734 
L 272.127273 159.567865 
L 275.201653 158.278242 
L 278.276033 158.024857 
L 281.350413 158.711529 
L 284.424793 159.952852 
L 287.499174 161.16235 
L 290.573554 161.82908 
L 293.647934 161.749164 
L 296.722314 161.091308 
L 299.796694 160.343985 
L 302.871074 160.088203 
L 305.945455 160.599829 
L 309.019835 161.624451 
L 312.094215 162.628894 
L 315.168595 163.304739 
L 318.242975 163.797244 
L 321.317355 164.463115 
L 324.391736 165.500675 
L 327.466116 166.840797 
L 330.540496 168.265414 
L 333.614876 169.560532 
L 336.689256 170.678329 
L 339.763636 171.852248 
L 342.838017 173.513766 
L 345.912397 176.045795 
L 348.986777 179.580326 
L 352.061157 183.933524 
L 355.135537 188.611711 
L 358.209917 192.831705 
L 361.284298 195.528943 
L 364.358678 195.309852 
L 367.433058 190.615505 
L 370.507438 180.727804 
L 373.581818 167.233081 
" style="fill:none;stroke:#5d00ff;stroke-dasharray:3.7,1.6;stroke-dashoffset:0;"/>
   </g>
   <g id="line2d_48">
    <path clip-path="url(#pbd0fcb0519)" d="M 69.218182 106.202949 
L 72.292562 95.477588 
L 75.366942 89.780881 
L 78.441322 89.778734 
L 81.515702 93.335568 
L 84.590083 97.789886 
L 87.664463 101.708192 
L 90.738843 105.188067 
L 93.813223 109.220366 
L 96.887603 114.806918 
L 99.961983 122.239842 
L 103.036364 130.72036 
L 106.110744 138.510819 
L 109.185124 143.711386 
L 112.259504 145.269973 
L 115.333884 143.534738 
L 118.408264 140.016701 
L 121.482645 136.632698 
L 124.557025 134.930212 
L 127.631405 135.588658 
L 130.705785 138.239511 
L 133.780165 141.631022 
L 136.854545 144.189537 
L 139.928926 144.802158 
L 143.003306 143.358751 
L 146.077686 140.681906 
L 149.152066 137.930687 
L 152.226446 135.928682 
L 155.300826 134.818849 
L 158.375207 134.157053 
L 161.449587 133.321541 
L 164.523967 131.990462 
L 167.598347 130.411514 
L 170.672727 129.285387 
L 173.747107 129.30158 
L 176.821488 130.611137 
L 179.895868 132.569075 
L 182.970248 133.890116 
L 186.044628 133.175571 
L 189.119008 129.596606 
L 192.193388 123.349974 
L 195.267769 115.63407 
L 198.342149 108.233296 
L 201.416529 102.910194 
L 204.490909 100.772494 
L 207.565289 101.880088 
L 210.639669 105.372798 
L 213.71405 110.073526 
L 216.78843 115.115399 
L 219.86281 120.168301 
L 222.93719 125.253145 
L 226.01157 130.350878 
L 229.08595 135.020871 
L 232.160331 138.323435 
L 235.234711 139.167709 
L 238.309091 136.82014 
L 241.383471 131.299263 
L 244.457851 123.544079 
L 247.532231 115.192048 
L 250.606612 107.96193 
L 253.680992 103.046354 
L 256.755372 100.889163 
L 259.829752 101.312251 
L 262.904132 103.805853 
L 265.978512 107.836982 
L 269.052893 113.017658 
L 272.127273 119.114856 
L 275.201653 126.048856 
L 278.276033 133.869942 
L 281.350413 142.540709 
L 284.424793 151.608704 
L 287.499174 160.150249 
L 290.573554 167.112962 
L 293.647934 171.723627 
L 296.722314 173.682833 
L 299.796694 173.175959 
L 302.871074 170.719209 
L 305.945455 166.841741 
L 309.019835 161.859891 
L 312.094215 156.010918 
L 315.168595 149.778135 
L 318.242975 143.993265 
L 321.317355 139.608928 
L 324.391736 137.40539 
L 327.466116 137.827416 
L 330.540496 140.872997 
L 333.614876 145.989498 
L 336.689256 152.158895 
L 339.763636 158.258732 
L 342.838017 163.445686 
L 345.912397 167.278171 
L 348.986777 169.614653 
L 352.061157 170.487888 
L 355.135537 170.008638 
L 358.209917 168.275375 
L 361.284298 165.350262 
L 364.358678 161.314613 
L 367.433058 156.33779 
L 370.507438 150.792743 
L 373.581818 145.384237 
" style="fill:none;stroke:#e800ff;stroke-dasharray:3.7,1.6;stroke-dashoffset:0;"/>
   </g>
   <g id="patch_3">
    <path d="M 54 252 
L 54 34.56 
" style="fill:none;stroke:#000000;stroke-linecap:square;stroke-linejoin:miter;stroke-width:0.8;"/>
   </g>
   <g id="patch_4">
    <path d="M 388.8 252 
L 388.8 34.56 
" style="fill:none;stroke:#000000;stroke-linecap:square;stroke-linejoin:miter;stroke-width:0.8;"/>
   </g>
   <g id="patch_5">
    <path d="M 54 252 
L 388.8 252 
" style="fill:none;stroke:#000000;stroke-linecap:square;stroke-linejoin:miter;stroke-width:0.8;"/>
   </g>
   <g id="patch_6">
    <path d="M 54 34.56 
L 388.8 34.56 
" style="fill:none;stroke:#000000;stroke-linecap:square;stroke-linejoin:miter;stroke-width:0.8;"/>
   </g>
   <g id="text_17">
    <!-- Comparison $Y_i$ and $\tilde{Y}_i$ -->
    <defs>
     <path d="M 64.40625 67.28125 
L 64.40625 56.890625 
Q 59.421875 61.53125 53.78125 63.8125 
Q 48.140625 66.109375 41.796875 66.109375 
Q 29.296875 66.109375 22.65625 58.46875 
Q 16.015625 50.828125 16.015625 36.375 
Q 16.015625 21.96875 22.65625 14.328125 
Q 29.296875 6.6875 41.796875 6.6875 
Q 48.140625 6.6875 53.78125 8.984375 
Q 59.421875 11.28125 64.40625 15.921875 
L 64.40625 5.609375 
Q 59.234375 2.09375 53.4375 0.328125 
Q 47.65625 -1.421875 41.21875 -1.421875 
Q 24.65625 -1.421875 15.125 8.703125 
Q 5.609375 18.84375 5.609375 36.375 
Q 5.609375 53.953125 15.125 64.078125 
Q 24.65625 74.21875 41.21875 74.21875 
Q 47.75 74.21875 53.53125 72.484375 
Q 59.328125 70.75 64.40625 67.28125 
z
" id="DejaVuSans-43"/>
     <path d="M 30.609375 48.390625 
Q 23.390625 48.390625 19.1875 42.75 
Q 14.984375 37.109375 14.984375 27.296875 
Q 14.984375 17.484375 19.15625 11.84375 
Q 23.34375 6.203125 30.609375 6.203125 
Q 37.796875 6.203125 41.984375 11.859375 
Q 46.1875 17.53125 46.1875 27.296875 
Q 46.1875 37.015625 41.984375 42.703125 
Q 37.796875 48.390625 30.609375 48.390625 
z
M 30.609375 56 
Q 42.328125 56 49.015625 48.375 
Q 55.71875 40.765625 55.71875 27.296875 
Q 55.71875 13.875 49.015625 6.21875 
Q 42.328125 -1.421875 30.609375 -1.421875 
Q 18.84375 -1.421875 12.171875 6.21875 
Q 5.515625 13.875 5.515625 27.296875 
Q 5.515625 40.765625 12.171875 48.375 
Q 18.84375 56 30.609375 56 
z
" id="DejaVuSans-6f"/>
     <path d="M 52 44.1875 
Q 55.375 50.25 60.0625 53.125 
Q 64.75 56 71.09375 56 
Q 79.640625 56 84.28125 50.015625 
Q 88.921875 44.046875 88.921875 33.015625 
L 88.921875 0 
L 79.890625 0 
L 79.890625 32.71875 
Q 79.890625 40.578125 77.09375 44.375 
Q 74.3125 48.1875 68.609375 48.1875 
Q 61.625 48.1875 57.5625 43.546875 
Q 53.515625 38.921875 53.515625 30.90625 
L 53.515625 0 
L 44.484375 0 
L 44.484375 32.71875 
Q 44.484375 40.625 41.703125 44.40625 
Q 38.921875 48.1875 33.109375 48.1875 
Q 26.21875 48.1875 22.15625 43.53125 
Q 18.109375 38.875 18.109375 30.90625 
L 18.109375 0 
L 9.078125 0 
L 9.078125 54.6875 
L 18.109375 54.6875 
L 18.109375 46.1875 
Q 21.1875 51.21875 25.484375 53.609375 
Q 29.78125 56 35.6875 56 
Q 41.65625 56 45.828125 52.96875 
Q 50 49.953125 52 44.1875 
z
" id="DejaVuSans-6d"/>
     <path d="M 18.109375 8.203125 
L 18.109375 -20.796875 
L 9.078125 -20.796875 
L 9.078125 54.6875 
L 18.109375 54.6875 
L 18.109375 46.390625 
Q 20.953125 51.265625 25.265625 53.625 
Q 29.59375 56 35.59375 56 
Q 45.5625 56 51.78125 48.09375 
Q 58.015625 40.1875 58.015625 27.296875 
Q 58.015625 14.40625 51.78125 6.484375 
Q 45.5625 -1.421875 35.59375 -1.421875 
Q 29.59375 -1.421875 25.265625 0.953125 
Q 20.953125 3.328125 18.109375 8.203125 
z
M 48.6875 27.296875 
Q 48.6875 37.203125 44.609375 42.84375 
Q 40.53125 48.484375 33.40625 48.484375 
Q 26.265625 48.484375 22.1875 42.84375 
Q 18.109375 37.203125 18.109375 27.296875 
Q 18.109375 17.390625 22.1875 11.75 
Q 26.265625 6.109375 33.40625 6.109375 
Q 40.53125 6.109375 44.609375 11.75 
Q 48.6875 17.390625 48.6875 27.296875 
z
" id="DejaVuSans-70"/>
     <path d="M 34.28125 27.484375 
Q 23.390625 27.484375 19.1875 25 
Q 14.984375 22.515625 14.984375 16.5 
Q 14.984375 11.71875 18.140625 8.90625 
Q 21.296875 6.109375 26.703125 6.109375 
Q 34.1875 6.109375 38.703125 11.40625 
Q 43.21875 16.703125 43.21875 25.484375 
L 43.21875 27.484375 
z
M 52.203125 31.203125 
L 52.203125 0 
L 43.21875 0 
L 43.21875 8.296875 
Q 40.140625 3.328125 35.546875 0.953125 
Q 30.953125 -1.421875 24.3125 -1.421875 
Q 15.921875 -1.421875 10.953125 3.296875 
Q 6 8.015625 6 15.921875 
Q 6 25.140625 12.171875 29.828125 
Q 18.359375 34.515625 30.609375 34.515625 
L 43.21875 34.515625 
L 43.21875 35.40625 
Q 43.21875 41.609375 39.140625 45 
Q 35.0625 48.390625 27.6875 48.390625 
Q 23 48.390625 18.546875 47.265625 
Q 14.109375 46.140625 10.015625 43.890625 
L 10.015625 52.203125 
Q 14.9375 54.109375 19.578125 55.046875 
Q 24.21875 56 28.609375 56 
Q 40.484375 56 46.34375 49.84375 
Q 52.203125 43.703125 52.203125 31.203125 
z
" id="DejaVuSans-61"/>
     <path d="M 41.109375 46.296875 
Q 39.59375 47.171875 37.8125 47.578125 
Q 36.03125 48 33.890625 48 
Q 26.265625 48 22.1875 43.046875 
Q 18.109375 38.09375 18.109375 28.8125 
L 18.109375 0 
L 9.078125 0 
L 9.078125 54.6875 
L 18.109375 54.6875 
L 18.109375 46.1875 
Q 20.953125 51.171875 25.484375 53.578125 
Q 30.03125 56 36.53125 56 
Q 37.453125 56 38.578125 55.875 
Q 39.703125 55.765625 41.0625 55.515625 
z
" id="DejaVuSans-72"/>
     <path d="M 9.421875 54.6875 
L 18.40625 54.6875 
L 18.40625 0 
L 9.421875 0 
z
M 9.421875 75.984375 
L 18.40625 75.984375 
L 18.40625 64.59375 
L 9.421875 64.59375 
z
" id="DejaVuSans-69"/>
     <path d="M 44.28125 53.078125 
L 44.28125 44.578125 
Q 40.484375 46.53125 36.375 47.5 
Q 32.28125 48.484375 27.875 48.484375 
Q 21.1875 48.484375 17.84375 46.4375 
Q 14.5 44.390625 14.5 40.28125 
Q 14.5 37.15625 16.890625 35.375 
Q 19.28125 33.59375 26.515625 31.984375 
L 29.59375 31.296875 
Q 39.15625 29.25 43.1875 25.515625 
Q 47.21875 21.78125 47.21875 15.09375 
Q 47.21875 7.46875 41.1875 3.015625 
Q 35.15625 -1.421875 24.609375 -1.421875 
Q 20.21875 -1.421875 15.453125 -0.5625 
Q 10.6875 0.296875 5.421875 2 
L 5.421875 11.28125 
Q 10.40625 8.6875 15.234375 7.390625 
Q 20.0625 6.109375 24.8125 6.109375 
Q 31.15625 6.109375 34.5625 8.28125 
Q 37.984375 10.453125 37.984375 14.40625 
Q 37.984375 18.0625 35.515625 20.015625 
Q 33.0625 21.96875 24.703125 23.78125 
L 21.578125 24.515625 
Q 13.234375 26.265625 9.515625 29.90625 
Q 5.8125 33.546875 5.8125 39.890625 
Q 5.8125 47.609375 11.28125 51.796875 
Q 16.75 56 26.8125 56 
Q 31.78125 56 36.171875 55.265625 
Q 40.578125 54.546875 44.28125 53.078125 
z
" id="DejaVuSans-73"/>
     <path d="M 54.890625 33.015625 
L 54.890625 0 
L 45.90625 0 
L 45.90625 32.71875 
Q 45.90625 40.484375 42.875 44.328125 
Q 39.84375 48.1875 33.796875 48.1875 
Q 26.515625 48.1875 22.3125 43.546875 
Q 18.109375 38.921875 18.109375 30.90625 
L 18.109375 0 
L 9.078125 0 
L 9.078125 54.6875 
L 18.109375 54.6875 
L 18.109375 46.1875 
Q 21.34375 51.125 25.703125 53.5625 
Q 30.078125 56 35.796875 56 
Q 45.21875 56 50.046875 50.171875 
Q 54.890625 44.34375 54.890625 33.015625 
z
" id="DejaVuSans-6e"/>
     <path d="M 18.3125 75.984375 
L 27.296875 75.984375 
L 25.09375 64.59375 
L 16.109375 64.59375 
z
M 14.203125 54.6875 
L 23.1875 54.6875 
L 12.5 0 
L 3.515625 0 
z
" id="DejaVuSans-Oblique-69"/>
     <path d="M 45.40625 46.390625 
L 45.40625 75.984375 
L 54.390625 75.984375 
L 54.390625 0 
L 45.40625 0 
L 45.40625 8.203125 
Q 42.578125 3.328125 38.25 0.953125 
Q 33.9375 -1.421875 27.875 -1.421875 
Q 17.96875 -1.421875 11.734375 6.484375 
Q 5.515625 14.40625 5.515625 27.296875 
Q 5.515625 40.1875 11.734375 48.09375 
Q 17.96875 56 27.875 56 
Q 33.9375 56 38.25 53.625 
Q 42.578125 51.265625 45.40625 46.390625 
z
M 14.796875 27.296875 
Q 14.796875 17.390625 18.875 11.75 
Q 22.953125 6.109375 30.078125 6.109375 
Q 37.203125 6.109375 41.296875 11.75 
Q 45.40625 17.390625 45.40625 27.296875 
Q 45.40625 37.203125 41.296875 42.84375 
Q 37.203125 48.484375 30.078125 48.484375 
Q 22.953125 48.484375 18.875 42.84375 
Q 14.796875 37.203125 14.796875 27.296875 
z
" id="DejaVuSans-64"/>
    </defs>
    <g transform="translate(158.4 28.56)scale(0.12 -0.12)">
     <use transform="translate(0 0.828125)" xlink:href="#DejaVuSans-43"/>
     <use transform="translate(69.824219 0.828125)" xlink:href="#DejaVuSans-6f"/>
     <use transform="translate(131.005859 0.828125)" xlink:href="#DejaVuSans-6d"/>
     <use transform="translate(228.417969 0.828125)" xlink:href="#DejaVuSans-70"/>
     <use transform="translate(291.894531 0.828125)" xlink:href="#DejaVuSans-61"/>
     <use transform="translate(353.173828 0.828125)" xlink:href="#DejaVuSans-72"/>
     <use transform="translate(394.287109 0.828125)" xlink:href="#DejaVuSans-69"/>
     <use transform="translate(422.070312 0.828125)" xlink:href="#DejaVuSans-73"/>
     <use transform="translate(474.169922 0.828125)" xlink:href="#DejaVuSans-6f"/>
     <use transform="translate(535.351562 0.828125)" xlink:href="#DejaVuSans-6e"/>
     <use transform="translate(598.730469 0.828125)" xlink:href="#DejaVuSans-20"/>
     <use transform="translate(630.517578 0.828125)" xlink:href="#DejaVuSans-Oblique-59"/>
     <use transform="translate(691.601562 -15.578125)scale(0.7)" xlink:href="#DejaVuSans-Oblique-69"/>
     <use transform="translate(713.78418 0.828125)" xlink:href="#DejaVuSans-20"/>
     <use transform="translate(745.571289 0.828125)" xlink:href="#DejaVuSans-61"/>
     <use transform="translate(806.850586 0.828125)" xlink:href="#DejaVuSans-6e"/>
     <use transform="translate(870.229492 0.828125)" xlink:href="#DejaVuSans-64"/>
     <use transform="translate(933.706055 0.828125)" xlink:href="#DejaVuSans-20"/>
     <use transform="translate(1028.998535 22.3125)" xlink:href="#DejaVuSans-303"/>
     <use transform="translate(965.493164 0.828125)" xlink:href="#DejaVuSans-Oblique-59"/>
     <use transform="translate(1027.53418 -15.578125)scale(0.7)" xlink:href="#DejaVuSans-Oblique-69"/>
    </g>
   </g>
  </g>
 </g>
 <defs>
  <clipPath id="pbd0fcb0519">
   <rect height="217.44" width="334.8" x="54" y="34.56"/>
  </clipPath>
 </defs>
</svg>
