<?xml version="1.0" encoding="utf-8" standalone="no"?>
<!DOCTYPE svg PUBLIC "-//W3C//DTD SVG 1.1//EN"
  "http://www.w3.org/Graphics/SVG/1.1/DTD/svg11.dtd">
<!-- Created with matplotlib (http://matplotlib.org/) -->
<svg height="288pt" version="1.1" viewBox="0 0 432 288" width="432pt" xmlns="http://www.w3.org/2000/svg" xmlns:xlink="http://www.w3.org/1999/xlink">
 <defs>
  <style type="text/css">
*{stroke-linecap:butt;stroke-linejoin:round;}
  </style>
 </defs>
 <g id="figure_1">
  <g id="patch_1">
   <path d="M 0 288 
L 432 288 
L 432 0 
L 0 0 
z
" style="fill:#ffffff;"/>
  </g>
  <g id="axes_1">
   <g id="patch_2">
    <path d="M 54 252 
L 388.8 252 
L 388.8 34.56 
L 54 34.56 
z
" style="fill:#ffffff;"/>
   </g>
   <g id="matplotlib.axis_1">
    <g id="xtick_1">
     <g id="line2d_1">
      <path clip-path="url(#p10a29cffcf)" d="M 83.711688 252 
L 83.711688 34.56 
" style="fill:none;stroke:#b0b0b0;stroke-linecap:square;stroke-width:0.8;"/>
     </g>
     <g id="line2d_2">
      <defs>
       <path d="M 0 0 
L 0 3.5 
" id="m15426b4536" style="stroke:#000000;stroke-width:0.8;"/>
      </defs>
      <g>
       <use style="stroke:#000000;stroke-width:0.8;" x="83.711688" xlink:href="#m15426b4536" y="252"/>
      </g>
     </g>
     <g id="text_1">
      <!-- 1800 -->
      <defs>
       <path d="M 12.40625 8.296875 
L 28.515625 8.296875 
L 28.515625 63.921875 
L 10.984375 60.40625 
L 10.984375 69.390625 
L 28.421875 72.90625 
L 38.28125 72.90625 
L 38.28125 8.296875 
L 54.390625 8.296875 
L 54.390625 0 
L 12.40625 0 
z
" id="DejaVuSans-31"/>
       <path d="M 31.78125 34.625 
Q 24.75 34.625 20.71875 30.859375 
Q 16.703125 27.09375 16.703125 20.515625 
Q 16.703125 13.921875 20.71875 10.15625 
Q 24.75 6.390625 31.78125 6.390625 
Q 38.8125 6.390625 42.859375 10.171875 
Q 46.921875 13.96875 46.921875 20.515625 
Q 46.921875 27.09375 42.890625 30.859375 
Q 38.875 34.625 31.78125 34.625 
z
M 21.921875 38.8125 
Q 15.578125 40.375 12.03125 44.71875 
Q 8.5 49.078125 8.5 55.328125 
Q 8.5 64.0625 14.71875 69.140625 
Q 20.953125 74.21875 31.78125 74.21875 
Q 42.671875 74.21875 48.875 69.140625 
Q 55.078125 64.0625 55.078125 55.328125 
Q 55.078125 49.078125 51.53125 44.71875 
Q 48 40.375 41.703125 38.8125 
Q 48.828125 37.15625 52.796875 32.3125 
Q 56.78125 27.484375 56.78125 20.515625 
Q 56.78125 9.90625 50.3125 4.234375 
Q 43.84375 -1.421875 31.78125 -1.421875 
Q 19.734375 -1.421875 13.25 4.234375 
Q 6.78125 9.90625 6.78125 20.515625 
Q 6.78125 27.484375 10.78125 32.3125 
Q 14.796875 37.15625 21.921875 38.8125 
z
M 18.3125 54.390625 
Q 18.3125 48.734375 21.84375 45.5625 
Q 25.390625 42.390625 31.78125 42.390625 
Q 38.140625 42.390625 41.71875 45.5625 
Q 45.3125 48.734375 45.3125 54.390625 
Q 45.3125 60.0625 41.71875 63.234375 
Q 38.140625 66.40625 31.78125 66.40625 
Q 25.390625 66.40625 21.84375 63.234375 
Q 18.3125 60.0625 18.3125 54.390625 
z
" id="DejaVuSans-38"/>
       <path d="M 31.78125 66.40625 
Q 24.171875 66.40625 20.328125 58.90625 
Q 16.5 51.421875 16.5 36.375 
Q 16.5 21.390625 20.328125 13.890625 
Q 24.171875 6.390625 31.78125 6.390625 
Q 39.453125 6.390625 43.28125 13.890625 
Q 47.125 21.390625 47.125 36.375 
Q 47.125 51.421875 43.28125 58.90625 
Q 39.453125 66.40625 31.78125 66.40625 
z
M 31.78125 74.21875 
Q 44.046875 74.21875 50.515625 64.515625 
Q 56.984375 54.828125 56.984375 36.375 
Q 56.984375 17.96875 50.515625 8.265625 
Q 44.046875 -1.421875 31.78125 -1.421875 
Q 19.53125 -1.421875 13.0625 8.265625 
Q 6.59375 17.96875 6.59375 36.375 
Q 6.59375 54.828125 13.0625 64.515625 
Q 19.53125 74.21875 31.78125 74.21875 
z
" id="DejaVuSans-30"/>
      </defs>
      <g transform="translate(70.986688 266.598437)scale(0.1 -0.1)">
       <use xlink:href="#DejaVuSans-31"/>
       <use x="63.623047" xlink:href="#DejaVuSans-38"/>
       <use x="127.246094" xlink:href="#DejaVuSans-30"/>
       <use x="190.869141" xlink:href="#DejaVuSans-30"/>
      </g>
     </g>
    </g>
    <g id="xtick_2">
     <g id="line2d_3">
      <path clip-path="url(#p10a29cffcf)" d="M 156.179221 252 
L 156.179221 34.56 
" style="fill:none;stroke:#b0b0b0;stroke-linecap:square;stroke-width:0.8;"/>
     </g>
     <g id="line2d_4">
      <g>
       <use style="stroke:#000000;stroke-width:0.8;" x="156.179221" xlink:href="#m15426b4536" y="252"/>
      </g>
     </g>
     <g id="text_2">
      <!-- 1850 -->
      <defs>
       <path d="M 10.796875 72.90625 
L 49.515625 72.90625 
L 49.515625 64.59375 
L 19.828125 64.59375 
L 19.828125 46.734375 
Q 21.96875 47.46875 24.109375 47.828125 
Q 26.265625 48.1875 28.421875 48.1875 
Q 40.625 48.1875 47.75 41.5 
Q 54.890625 34.8125 54.890625 23.390625 
Q 54.890625 11.625 47.5625 5.09375 
Q 40.234375 -1.421875 26.90625 -1.421875 
Q 22.3125 -1.421875 17.546875 -0.640625 
Q 12.796875 0.140625 7.71875 1.703125 
L 7.71875 11.625 
Q 12.109375 9.234375 16.796875 8.0625 
Q 21.484375 6.890625 26.703125 6.890625 
Q 35.15625 6.890625 40.078125 11.328125 
Q 45.015625 15.765625 45.015625 23.390625 
Q 45.015625 31 40.078125 35.4375 
Q 35.15625 39.890625 26.703125 39.890625 
Q 22.75 39.890625 18.8125 39.015625 
Q 14.890625 38.140625 10.796875 36.28125 
z
" id="DejaVuSans-35"/>
      </defs>
      <g transform="translate(143.454221 266.598437)scale(0.1 -0.1)">
       <use xlink:href="#DejaVuSans-31"/>
       <use x="63.623047" xlink:href="#DejaVuSans-38"/>
       <use x="127.246094" xlink:href="#DejaVuSans-35"/>
       <use x="190.869141" xlink:href="#DejaVuSans-30"/>
      </g>
     </g>
    </g>
    <g id="xtick_3">
     <g id="line2d_5">
      <path clip-path="url(#p10a29cffcf)" d="M 228.646753 252 
L 228.646753 34.56 
" style="fill:none;stroke:#b0b0b0;stroke-linecap:square;stroke-width:0.8;"/>
     </g>
     <g id="line2d_6">
      <g>
       <use style="stroke:#000000;stroke-width:0.8;" x="228.646753" xlink:href="#m15426b4536" y="252"/>
      </g>
     </g>
     <g id="text_3">
      <!-- 1900 -->
      <defs>
       <path d="M 10.984375 1.515625 
L 10.984375 10.5 
Q 14.703125 8.734375 18.5 7.8125 
Q 22.3125 6.890625 25.984375 6.890625 
Q 35.75 6.890625 40.890625 13.453125 
Q 46.046875 20.015625 46.78125 33.40625 
Q 43.953125 29.203125 39.59375 26.953125 
Q 35.25 24.703125 29.984375 24.703125 
Q 19.046875 24.703125 12.671875 31.3125 
Q 6.296875 37.9375 6.296875 49.421875 
Q 6.296875 60.640625 12.9375 67.421875 
Q 19.578125 74.21875 30.609375 74.21875 
Q 43.265625 74.21875 49.921875 64.515625 
Q 56.59375 54.828125 56.59375 36.375 
Q 56.59375 19.140625 48.40625 8.859375 
Q 40.234375 -1.421875 26.421875 -1.421875 
Q 22.703125 -1.421875 18.890625 -0.6875 
Q 15.09375 0.046875 10.984375 1.515625 
z
M 30.609375 32.421875 
Q 37.25 32.421875 41.125 36.953125 
Q 45.015625 41.5 45.015625 49.421875 
Q 45.015625 57.28125 41.125 61.84375 
Q 37.25 66.40625 30.609375 66.40625 
Q 23.96875 66.40625 20.09375 61.84375 
Q 16.21875 57.28125 16.21875 49.421875 
Q 16.21875 41.5 20.09375 36.953125 
Q 23.96875 32.421875 30.609375 32.421875 
z
" id="DejaVuSans-39"/>
      </defs>
      <g transform="translate(215.921753 266.598437)scale(0.1 -0.1)">
       <use xlink:href="#DejaVuSans-31"/>
       <use x="63.623047" xlink:href="#DejaVuSans-39"/>
       <use x="127.246094" xlink:href="#DejaVuSans-30"/>
       <use x="190.869141" xlink:href="#DejaVuSans-30"/>
      </g>
     </g>
    </g>
    <g id="xtick_4">
     <g id="line2d_7">
      <path clip-path="url(#p10a29cffcf)" d="M 301.114286 252 
L 301.114286 34.56 
" style="fill:none;stroke:#b0b0b0;stroke-linecap:square;stroke-width:0.8;"/>
     </g>
     <g id="line2d_8">
      <g>
       <use style="stroke:#000000;stroke-width:0.8;" x="301.114286" xlink:href="#m15426b4536" y="252"/>
      </g>
     </g>
     <g id="text_4">
      <!-- 1950 -->
      <g transform="translate(288.389286 266.598437)scale(0.1 -0.1)">
       <use xlink:href="#DejaVuSans-31"/>
       <use x="63.623047" xlink:href="#DejaVuSans-39"/>
       <use x="127.246094" xlink:href="#DejaVuSans-35"/>
       <use x="190.869141" xlink:href="#DejaVuSans-30"/>
      </g>
     </g>
    </g>
    <g id="xtick_5">
     <g id="line2d_9">
      <path clip-path="url(#p10a29cffcf)" d="M 373.581818 252 
L 373.581818 34.56 
" style="fill:none;stroke:#b0b0b0;stroke-linecap:square;stroke-width:0.8;"/>
     </g>
     <g id="line2d_10">
      <g>
       <use style="stroke:#000000;stroke-width:0.8;" x="373.581818" xlink:href="#m15426b4536" y="252"/>
      </g>
     </g>
     <g id="text_5">
      <!-- 2000 -->
      <defs>
       <path d="M 19.1875 8.296875 
L 53.609375 8.296875 
L 53.609375 0 
L 7.328125 0 
L 7.328125 8.296875 
Q 12.9375 14.109375 22.625 23.890625 
Q 32.328125 33.6875 34.8125 36.53125 
Q 39.546875 41.84375 41.421875 45.53125 
Q 43.3125 49.21875 43.3125 52.78125 
Q 43.3125 58.59375 39.234375 62.25 
Q 35.15625 65.921875 28.609375 65.921875 
Q 23.96875 65.921875 18.8125 64.3125 
Q 13.671875 62.703125 7.8125 59.421875 
L 7.8125 69.390625 
Q 13.765625 71.78125 18.9375 73 
Q 24.125 74.21875 28.421875 74.21875 
Q 39.75 74.21875 46.484375 68.546875 
Q 53.21875 62.890625 53.21875 53.421875 
Q 53.21875 48.921875 51.53125 44.890625 
Q 49.859375 40.875 45.40625 35.40625 
Q 44.1875 33.984375 37.640625 27.21875 
Q 31.109375 20.453125 19.1875 8.296875 
z
" id="DejaVuSans-32"/>
      </defs>
      <g transform="translate(360.856818 266.598437)scale(0.1 -0.1)">
       <use xlink:href="#DejaVuSans-32"/>
       <use x="63.623047" xlink:href="#DejaVuSans-30"/>
       <use x="127.246094" xlink:href="#DejaVuSans-30"/>
       <use x="190.869141" xlink:href="#DejaVuSans-30"/>
      </g>
     </g>
    </g>
    <g id="text_6">
     <!-- $t$ (years) -->
     <defs>
      <path d="M 42.28125 54.6875 
L 40.921875 47.703125 
L 23 47.703125 
L 17.1875 18.015625 
Q 16.890625 16.359375 16.75 15.234375 
Q 16.609375 14.109375 16.609375 13.484375 
Q 16.609375 10.359375 18.484375 8.9375 
Q 20.359375 7.515625 24.515625 7.515625 
L 33.59375 7.515625 
L 32.078125 0 
L 23.484375 0 
Q 15.484375 0 11.546875 3.125 
Q 7.625 6.25 7.625 12.59375 
Q 7.625 13.71875 7.765625 15.0625 
Q 7.90625 16.40625 8.203125 18.015625 
L 14.015625 47.703125 
L 6.390625 47.703125 
L 7.8125 54.6875 
L 15.28125 54.6875 
L 18.3125 70.21875 
L 27.296875 70.21875 
L 24.3125 54.6875 
z
" id="DejaVuSans-Oblique-74"/>
      <path id="DejaVuSans-20"/>
      <path d="M 31 75.875 
Q 24.46875 64.65625 21.28125 53.65625 
Q 18.109375 42.671875 18.109375 31.390625 
Q 18.109375 20.125 21.3125 9.0625 
Q 24.515625 -2 31 -13.1875 
L 23.1875 -13.1875 
Q 15.875 -1.703125 12.234375 9.375 
Q 8.59375 20.453125 8.59375 31.390625 
Q 8.59375 42.28125 12.203125 53.3125 
Q 15.828125 64.359375 23.1875 75.875 
z
" id="DejaVuSans-28"/>
      <path d="M 32.171875 -5.078125 
Q 28.375 -14.84375 24.75 -17.8125 
Q 21.140625 -20.796875 15.09375 -20.796875 
L 7.90625 -20.796875 
L 7.90625 -13.28125 
L 13.1875 -13.28125 
Q 16.890625 -13.28125 18.9375 -11.515625 
Q 21 -9.765625 23.484375 -3.21875 
L 25.09375 0.875 
L 2.984375 54.6875 
L 12.5 54.6875 
L 29.59375 11.921875 
L 46.6875 54.6875 
L 56.203125 54.6875 
z
" id="DejaVuSans-79"/>
      <path d="M 56.203125 29.59375 
L 56.203125 25.203125 
L 14.890625 25.203125 
Q 15.484375 15.921875 20.484375 11.0625 
Q 25.484375 6.203125 34.421875 6.203125 
Q 39.59375 6.203125 44.453125 7.46875 
Q 49.3125 8.734375 54.109375 11.28125 
L 54.109375 2.78125 
Q 49.265625 0.734375 44.1875 -0.34375 
Q 39.109375 -1.421875 33.890625 -1.421875 
Q 20.796875 -1.421875 13.15625 6.1875 
Q 5.515625 13.8125 5.515625 26.8125 
Q 5.515625 40.234375 12.765625 48.109375 
Q 20.015625 56 32.328125 56 
Q 43.359375 56 49.78125 48.890625 
Q 56.203125 41.796875 56.203125 29.59375 
z
M 47.21875 32.234375 
Q 47.125 39.59375 43.09375 43.984375 
Q 39.0625 48.390625 32.421875 48.390625 
Q 24.90625 48.390625 20.390625 44.140625 
Q 15.875 39.890625 15.1875 32.171875 
z
" id="DejaVuSans-65"/>
      <path d="M 34.28125 27.484375 
Q 23.390625 27.484375 19.1875 25 
Q 14.984375 22.515625 14.984375 16.5 
Q 14.984375 11.71875 18.140625 8.90625 
Q 21.296875 6.109375 26.703125 6.109375 
Q 34.1875 6.109375 38.703125 11.40625 
Q 43.21875 16.703125 43.21875 25.484375 
L 43.21875 27.484375 
z
M 52.203125 31.203125 
L 52.203125 0 
L 43.21875 0 
L 43.21875 8.296875 
Q 40.140625 3.328125 35.546875 0.953125 
Q 30.953125 -1.421875 24.3125 -1.421875 
Q 15.921875 -1.421875 10.953125 3.296875 
Q 6 8.015625 6 15.921875 
Q 6 25.140625 12.171875 29.828125 
Q 18.359375 34.515625 30.609375 34.515625 
L 43.21875 34.515625 
L 43.21875 35.40625 
Q 43.21875 41.609375 39.140625 45 
Q 35.0625 48.390625 27.6875 48.390625 
Q 23 48.390625 18.546875 47.265625 
Q 14.109375 46.140625 10.015625 43.890625 
L 10.015625 52.203125 
Q 14.9375 54.109375 19.578125 55.046875 
Q 24.21875 56 28.609375 56 
Q 40.484375 56 46.34375 49.84375 
Q 52.203125 43.703125 52.203125 31.203125 
z
" id="DejaVuSans-61"/>
      <path d="M 41.109375 46.296875 
Q 39.59375 47.171875 37.8125 47.578125 
Q 36.03125 48 33.890625 48 
Q 26.265625 48 22.1875 43.046875 
Q 18.109375 38.09375 18.109375 28.8125 
L 18.109375 0 
L 9.078125 0 
L 9.078125 54.6875 
L 18.109375 54.6875 
L 18.109375 46.1875 
Q 20.953125 51.171875 25.484375 53.578125 
Q 30.03125 56 36.53125 56 
Q 37.453125 56 38.578125 55.875 
Q 39.703125 55.765625 41.0625 55.515625 
z
" id="DejaVuSans-72"/>
      <path d="M 44.28125 53.078125 
L 44.28125 44.578125 
Q 40.484375 46.53125 36.375 47.5 
Q 32.28125 48.484375 27.875 48.484375 
Q 21.1875 48.484375 17.84375 46.4375 
Q 14.5 44.390625 14.5 40.28125 
Q 14.5 37.15625 16.890625 35.375 
Q 19.28125 33.59375 26.515625 31.984375 
L 29.59375 31.296875 
Q 39.15625 29.25 43.1875 25.515625 
Q 47.21875 21.78125 47.21875 15.09375 
Q 47.21875 7.46875 41.1875 3.015625 
Q 35.15625 -1.421875 24.609375 -1.421875 
Q 20.21875 -1.421875 15.453125 -0.5625 
Q 10.6875 0.296875 5.421875 2 
L 5.421875 11.28125 
Q 10.40625 8.6875 15.234375 7.390625 
Q 20.0625 6.109375 24.8125 6.109375 
Q 31.15625 6.109375 34.5625 8.28125 
Q 37.984375 10.453125 37.984375 14.40625 
Q 37.984375 18.0625 35.515625 20.015625 
Q 33.0625 21.96875 24.703125 23.78125 
L 21.578125 24.515625 
Q 13.234375 26.265625 9.515625 29.90625 
Q 5.8125 33.546875 5.8125 39.890625 
Q 5.8125 47.609375 11.28125 51.796875 
Q 16.75 56 26.8125 56 
Q 31.78125 56 36.171875 55.265625 
Q 40.578125 54.546875 44.28125 53.078125 
z
" id="DejaVuSans-73"/>
      <path d="M 8.015625 75.875 
L 15.828125 75.875 
Q 23.140625 64.359375 26.78125 53.3125 
Q 30.421875 42.28125 30.421875 31.390625 
Q 30.421875 20.453125 26.78125 9.375 
Q 23.140625 -1.703125 15.828125 -13.1875 
L 8.015625 -13.1875 
Q 14.5 -2 17.703125 9.0625 
Q 20.90625 20.125 20.90625 31.390625 
Q 20.90625 42.671875 17.703125 53.65625 
Q 14.5 64.65625 8.015625 75.875 
z
" id="DejaVuSans-29"/>
     </defs>
     <g transform="translate(200.15 280.278125)scale(0.1 -0.1)">
      <use transform="translate(0 0.125)" xlink:href="#DejaVuSans-Oblique-74"/>
      <use transform="translate(39.208984 0.125)" xlink:href="#DejaVuSans-20"/>
      <use transform="translate(70.996094 0.125)" xlink:href="#DejaVuSans-28"/>
      <use transform="translate(110.009766 0.125)" xlink:href="#DejaVuSans-79"/>
      <use transform="translate(169.189453 0.125)" xlink:href="#DejaVuSans-65"/>
      <use transform="translate(230.712891 0.125)" xlink:href="#DejaVuSans-61"/>
      <use transform="translate(291.992188 0.125)" xlink:href="#DejaVuSans-72"/>
      <use transform="translate(333.105469 0.125)" xlink:href="#DejaVuSans-73"/>
      <use transform="translate(385.205078 0.125)" xlink:href="#DejaVuSans-29"/>
     </g>
    </g>
   </g>
   <g id="matplotlib.axis_2">
    <g id="ytick_1">
     <g id="line2d_11">
      <path clip-path="url(#p10a29cffcf)" d="M 54 243.62054 
L 388.8 243.62054 
" style="fill:none;stroke:#b0b0b0;stroke-linecap:square;stroke-width:0.8;"/>
     </g>
     <g id="line2d_12">
      <defs>
       <path d="M 0 0 
L -3.5 0 
" id="m545400aa23" style="stroke:#000000;stroke-width:0.8;"/>
      </defs>
      <g>
       <use style="stroke:#000000;stroke-width:0.8;" x="54" xlink:href="#m545400aa23" y="243.62054"/>
      </g>
     </g>
     <g id="text_7">
      <!-- 0 -->
      <g transform="translate(40.6375 247.419759)scale(0.1 -0.1)">
       <use xlink:href="#DejaVuSans-30"/>
      </g>
     </g>
    </g>
    <g id="ytick_2">
     <g id="line2d_13">
      <path clip-path="url(#p10a29cffcf)" d="M 54 201.230066 
L 388.8 201.230066 
" style="fill:none;stroke:#b0b0b0;stroke-linecap:square;stroke-width:0.8;"/>
     </g>
     <g id="line2d_14">
      <g>
       <use style="stroke:#000000;stroke-width:0.8;" x="54" xlink:href="#m545400aa23" y="201.230066"/>
      </g>
     </g>
     <g id="text_8">
      <!-- 100 -->
      <g transform="translate(27.9125 205.029285)scale(0.1 -0.1)">
       <use xlink:href="#DejaVuSans-31"/>
       <use x="63.623047" xlink:href="#DejaVuSans-30"/>
       <use x="127.246094" xlink:href="#DejaVuSans-30"/>
      </g>
     </g>
    </g>
    <g id="ytick_3">
     <g id="line2d_15">
      <path clip-path="url(#p10a29cffcf)" d="M 54 158.839591 
L 388.8 158.839591 
" style="fill:none;stroke:#b0b0b0;stroke-linecap:square;stroke-width:0.8;"/>
     </g>
     <g id="line2d_16">
      <g>
       <use style="stroke:#000000;stroke-width:0.8;" x="54" xlink:href="#m545400aa23" y="158.839591"/>
      </g>
     </g>
     <g id="text_9">
      <!-- 200 -->
      <g transform="translate(27.9125 162.63881)scale(0.1 -0.1)">
       <use xlink:href="#DejaVuSans-32"/>
       <use x="63.623047" xlink:href="#DejaVuSans-30"/>
       <use x="127.246094" xlink:href="#DejaVuSans-30"/>
      </g>
     </g>
    </g>
    <g id="ytick_4">
     <g id="line2d_17">
      <path clip-path="url(#p10a29cffcf)" d="M 54 116.449117 
L 388.8 116.449117 
" style="fill:none;stroke:#b0b0b0;stroke-linecap:square;stroke-width:0.8;"/>
     </g>
     <g id="line2d_18">
      <g>
       <use style="stroke:#000000;stroke-width:0.8;" x="54" xlink:href="#m545400aa23" y="116.449117"/>
      </g>
     </g>
     <g id="text_10">
      <!-- 300 -->
      <defs>
       <path d="M 40.578125 39.3125 
Q 47.65625 37.796875 51.625 33 
Q 55.609375 28.21875 55.609375 21.1875 
Q 55.609375 10.40625 48.1875 4.484375 
Q 40.765625 -1.421875 27.09375 -1.421875 
Q 22.515625 -1.421875 17.65625 -0.515625 
Q 12.796875 0.390625 7.625 2.203125 
L 7.625 11.71875 
Q 11.71875 9.328125 16.59375 8.109375 
Q 21.484375 6.890625 26.8125 6.890625 
Q 36.078125 6.890625 40.9375 10.546875 
Q 45.796875 14.203125 45.796875 21.1875 
Q 45.796875 27.640625 41.28125 31.265625 
Q 36.765625 34.90625 28.71875 34.90625 
L 20.21875 34.90625 
L 20.21875 43.015625 
L 29.109375 43.015625 
Q 36.375 43.015625 40.234375 45.921875 
Q 44.09375 48.828125 44.09375 54.296875 
Q 44.09375 59.90625 40.109375 62.90625 
Q 36.140625 65.921875 28.71875 65.921875 
Q 24.65625 65.921875 20.015625 65.03125 
Q 15.375 64.15625 9.8125 62.3125 
L 9.8125 71.09375 
Q 15.4375 72.65625 20.34375 73.4375 
Q 25.25 74.21875 29.59375 74.21875 
Q 40.828125 74.21875 47.359375 69.109375 
Q 53.90625 64.015625 53.90625 55.328125 
Q 53.90625 49.265625 50.4375 45.09375 
Q 46.96875 40.921875 40.578125 39.3125 
z
" id="DejaVuSans-33"/>
      </defs>
      <g transform="translate(27.9125 120.248336)scale(0.1 -0.1)">
       <use xlink:href="#DejaVuSans-33"/>
       <use x="63.623047" xlink:href="#DejaVuSans-30"/>
       <use x="127.246094" xlink:href="#DejaVuSans-30"/>
      </g>
     </g>
    </g>
    <g id="ytick_5">
     <g id="line2d_19">
      <path clip-path="url(#p10a29cffcf)" d="M 54 74.058643 
L 388.8 74.058643 
" style="fill:none;stroke:#b0b0b0;stroke-linecap:square;stroke-width:0.8;"/>
     </g>
     <g id="line2d_20">
      <g>
       <use style="stroke:#000000;stroke-width:0.8;" x="54" xlink:href="#m545400aa23" y="74.058643"/>
      </g>
     </g>
     <g id="text_11">
      <!-- 400 -->
      <defs>
       <path d="M 37.796875 64.3125 
L 12.890625 25.390625 
L 37.796875 25.390625 
z
M 35.203125 72.90625 
L 47.609375 72.90625 
L 47.609375 25.390625 
L 58.015625 25.390625 
L 58.015625 17.1875 
L 47.609375 17.1875 
L 47.609375 0 
L 37.796875 0 
L 37.796875 17.1875 
L 4.890625 17.1875 
L 4.890625 26.703125 
z
" id="DejaVuSans-34"/>
      </defs>
      <g transform="translate(27.9125 77.857862)scale(0.1 -0.1)">
       <use xlink:href="#DejaVuSans-34"/>
       <use x="63.623047" xlink:href="#DejaVuSans-30"/>
       <use x="127.246094" xlink:href="#DejaVuSans-30"/>
      </g>
     </g>
    </g>
    <g id="text_12">
     <!-- $N$ (millions) -->
     <defs>
      <path d="M 16.890625 72.90625 
L 30.171875 72.90625 
L 50.296875 10.40625 
L 62.5 72.90625 
L 72.125 72.90625 
L 57.90625 0 
L 44.578125 0 
L 24.515625 62.890625 
L 12.3125 0 
L 2.6875 0 
z
" id="DejaVuSans-Oblique-4e"/>
      <path d="M 52 44.1875 
Q 55.375 50.25 60.0625 53.125 
Q 64.75 56 71.09375 56 
Q 79.640625 56 84.28125 50.015625 
Q 88.921875 44.046875 88.921875 33.015625 
L 88.921875 0 
L 79.890625 0 
L 79.890625 32.71875 
Q 79.890625 40.578125 77.09375 44.375 
Q 74.3125 48.1875 68.609375 48.1875 
Q 61.625 48.1875 57.5625 43.546875 
Q 53.515625 38.921875 53.515625 30.90625 
L 53.515625 0 
L 44.484375 0 
L 44.484375 32.71875 
Q 44.484375 40.625 41.703125 44.40625 
Q 38.921875 48.1875 33.109375 48.1875 
Q 26.21875 48.1875 22.15625 43.53125 
Q 18.109375 38.875 18.109375 30.90625 
L 18.109375 0 
L 9.078125 0 
L 9.078125 54.6875 
L 18.109375 54.6875 
L 18.109375 46.1875 
Q 21.1875 51.21875 25.484375 53.609375 
Q 29.78125 56 35.6875 56 
Q 41.65625 56 45.828125 52.96875 
Q 50 49.953125 52 44.1875 
z
" id="DejaVuSans-6d"/>
      <path d="M 9.421875 54.6875 
L 18.40625 54.6875 
L 18.40625 0 
L 9.421875 0 
z
M 9.421875 75.984375 
L 18.40625 75.984375 
L 18.40625 64.59375 
L 9.421875 64.59375 
z
" id="DejaVuSans-69"/>
      <path d="M 9.421875 75.984375 
L 18.40625 75.984375 
L 18.40625 0 
L 9.421875 0 
z
" id="DejaVuSans-6c"/>
      <path d="M 30.609375 48.390625 
Q 23.390625 48.390625 19.1875 42.75 
Q 14.984375 37.109375 14.984375 27.296875 
Q 14.984375 17.484375 19.15625 11.84375 
Q 23.34375 6.203125 30.609375 6.203125 
Q 37.796875 6.203125 41.984375 11.859375 
Q 46.1875 17.53125 46.1875 27.296875 
Q 46.1875 37.015625 41.984375 42.703125 
Q 37.796875 48.390625 30.609375 48.390625 
z
M 30.609375 56 
Q 42.328125 56 49.015625 48.375 
Q 55.71875 40.765625 55.71875 27.296875 
Q 55.71875 13.875 49.015625 6.21875 
Q 42.328125 -1.421875 30.609375 -1.421875 
Q 18.84375 -1.421875 12.171875 6.21875 
Q 5.515625 13.875 5.515625 27.296875 
Q 5.515625 40.765625 12.171875 48.375 
Q 18.84375 56 30.609375 56 
z
" id="DejaVuSans-6f"/>
      <path d="M 54.890625 33.015625 
L 54.890625 0 
L 45.90625 0 
L 45.90625 32.71875 
Q 45.90625 40.484375 42.875 44.328125 
Q 39.84375 48.1875 33.796875 48.1875 
Q 26.515625 48.1875 22.3125 43.546875 
Q 18.109375 38.921875 18.109375 30.90625 
L 18.109375 0 
L 9.078125 0 
L 9.078125 54.6875 
L 18.109375 54.6875 
L 18.109375 46.1875 
Q 21.34375 51.125 25.703125 53.5625 
Q 30.078125 56 35.796875 56 
Q 45.21875 56 50.046875 50.171875 
Q 54.890625 44.34375 54.890625 33.015625 
z
" id="DejaVuSans-6e"/>
     </defs>
     <g transform="translate(21.832812 171.78)rotate(-90)scale(0.1 -0.1)">
      <use transform="translate(0 0.015625)" xlink:href="#DejaVuSans-Oblique-4e"/>
      <use transform="translate(74.804688 0.015625)" xlink:href="#DejaVuSans-20"/>
      <use transform="translate(106.591797 0.015625)" xlink:href="#DejaVuSans-28"/>
      <use transform="translate(145.605469 0.015625)" xlink:href="#DejaVuSans-6d"/>
      <use transform="translate(243.017578 0.015625)" xlink:href="#DejaVuSans-69"/>
      <use transform="translate(270.800781 0.015625)" xlink:href="#DejaVuSans-6c"/>
      <use transform="translate(298.583984 0.015625)" xlink:href="#DejaVuSans-6c"/>
      <use transform="translate(326.367188 0.015625)" xlink:href="#DejaVuSans-69"/>
      <use transform="translate(354.150391 0.015625)" xlink:href="#DejaVuSans-6f"/>
      <use transform="translate(415.332031 0.015625)" xlink:href="#DejaVuSans-6e"/>
      <use transform="translate(478.710938 0.015625)" xlink:href="#DejaVuSans-73"/>
      <use transform="translate(530.810547 0.015625)" xlink:href="#DejaVuSans-29"/>
     </g>
    </g>
   </g>
   <g id="line2d_21">
    <path clip-path="url(#p10a29cffcf)" d="M 69.218182 241.911308 
L 100.294349 241.199644 
L 127.409828 240.360025 
L 151.783292 239.386153 
L 174.328747 238.264238 
L 195.35086 236.999236 
L 215.763636 235.549447 
L 235.871744 233.89783 
L 256.284521 231.995656 
L 277.611302 229.783417 
L 301.984767 227.023576 
L 336.716953 222.839172 
L 373.581818 218.410765 
L 373.581818 218.410765 
" style="fill:none;stroke:#ff0000;stroke-linecap:square;"/>
   </g>
   <g id="line2d_22">
    <path clip-path="url(#p10a29cffcf)" d="M 69.218182 241.799417 
L 95.419656 241.079275 
L 118.269779 240.235698 
L 138.682555 239.265686 
L 157.267322 238.165918 
L 174.633415 236.918759 
L 191.085504 235.514315 
L 206.623587 233.967634 
L 221.857002 232.228229 
L 236.785749 230.300599 
L 251.714496 228.151076 
L 267.25258 225.687044 
L 283.704668 222.849904 
L 302.594103 219.357047 
L 328.490909 214.318218 
L 365.965111 207.043626 
L 373.581818 205.63385 
L 373.581818 205.63385 
" style="fill:none;stroke:#ff9900;stroke-linecap:square;"/>
   </g>
   <g id="line2d_23">
    <path clip-path="url(#p10a29cffcf)" d="M 69.218182 241.861973 
L 84.146929 241.154362 
L 96.942998 240.332303 
L 108.215725 239.393183 
L 118.574447 238.307833 
L 128.019165 237.092901 
L 136.549877 235.777268 
L 144.775921 234.282099 
L 152.392629 232.673524 
L 159.704668 230.904169 
L 166.712039 228.982933 
L 173.71941 226.824888 
L 180.422113 224.527133 
L 187.124816 221.993068 
L 193.827518 219.219437 
L 200.530221 216.208597 
L 207.537592 212.817037 
L 214.849631 209.032352 
L 223.075676 204.514145 
L 232.520393 199.063417 
L 247.44914 190.148825 
L 262.073219 181.498477 
L 271.213268 176.345104 
L 279.134644 172.127018 
L 286.446683 168.481132 
L 293.454054 165.23502 
L 300.156757 162.369834 
L 306.859459 159.74403 
L 313.562162 157.35638 
L 320.264865 155.200697 
L 327.272236 153.1841 
L 334.279607 151.395286 
L 341.591646 149.753266 
L 349.208354 148.264915 
L 357.434398 146.885285 
L 366.269779 145.634838 
L 373.581818 144.757779 
L 373.581818 144.757779 
" style="fill:none;stroke:#ccff00;stroke-linecap:square;"/>
   </g>
   <g id="line2d_24">
    <path clip-path="url(#p10a29cffcf)" d="M 69.218182 241.982175 
L 373.581818 241.409302 
L 373.581818 241.409302 
" style="fill:none;stroke:#33ff00;stroke-linecap:square;"/>
   </g>
   <g id="line2d_25">
    <path clip-path="url(#p10a29cffcf)" d="M 69.218182 242.108809 
L 86.279607 241.447755 
L 100.903686 240.663034 
L 113.699754 239.757384 
L 125.27715 238.714769 
L 135.635872 237.562442 
L 145.385258 236.253441 
L 154.525307 234.797884 
L 163.05602 233.214178 
L 171.282064 231.459417 
L 179.20344 229.540943 
L 186.820147 227.471753 
L 194.436855 225.173943 
L 202.053563 222.644096 
L 209.67027 219.885014 
L 217.591646 216.783346 
L 226.122359 213.201984 
L 235.567076 208.991226 
L 247.44914 203.433208 
L 279.134644 188.474133 
L 288.579361 184.339889 
L 297.110074 180.843687 
L 305.03145 177.83057 
L 312.648157 175.161722 
L 320.264865 172.72404 
L 327.881572 170.517715 
L 335.49828 168.537208 
L 343.419656 166.706266 
L 351.6457 165.036024 
L 360.176413 163.532238 
L 369.316462 162.153169 
L 373.581818 161.58395 
L 373.581818 161.58395 
" style="fill:none;stroke:#00ff66;stroke-linecap:square;"/>
   </g>
   <g id="line2d_26">
    <path clip-path="url(#p10a29cffcf)" d="M 69.218182 241.75714 
L 96.638329 241.004442 
L 121.011794 240.118213 
L 143.861916 239.066387 
L 165.798034 237.832442 
L 187.429484 236.392313 
L 209.974939 234.667413 
L 235.871744 232.456212 
L 288.579361 227.652822 
L 317.52285 225.174234 
L 340.677641 223.411159 
L 362.613759 221.964294 
L 373.581818 221.326573 
L 373.581818 221.326573 
" style="fill:none;stroke:#00ffff;stroke-linecap:square;"/>
   </g>
   <g id="line2d_27">
    <path clip-path="url(#p10a29cffcf)" d="M 69.218182 242.0067 
L 82.014251 241.321698 
L 92.98231 240.515765 
L 102.731695 239.576423 
L 111.262408 238.538339 
L 119.183784 237.355472 
L 126.495823 236.043573 
L 133.503194 234.558749 
L 140.205897 232.904396 
L 146.603931 231.090439 
L 152.697297 229.133454 
L 158.790663 226.940879 
L 164.884029 224.506039 
L 170.977396 221.828645 
L 177.37543 218.764671 
L 184.078133 215.298089 
L 191.390172 211.258632 
L 200.225553 206.110014 
L 229.47371 188.83435 
L 236.785749 184.90974 
L 243.488452 181.568777 
L 249.886486 178.636405 
L 255.979853 176.08966 
L 262.073219 173.786197 
L 268.166585 171.722088 
L 274.259951 169.887842 
L 280.657985 168.194413 
L 287.360688 166.655621 
L 294.368059 165.279073 
L 301.680098 164.066409 
L 309.601474 162.975876 
L 318.436855 161.990662 
L 328.186241 161.135283 
L 339.1543 160.402845 
L 351.950369 159.781364 
L 367.183784 159.275788 
L 373.581818 159.119184 
L 373.581818 159.119184 
" style="fill:none;stroke:#0066ff;stroke-linecap:square;"/>
   </g>
   <g id="line2d_28">
    <path clip-path="url(#p10a29cffcf)" d="M 69.218182 241.748044 
L 89.935627 241.013612 
L 108.215725 240.145308 
L 124.363145 239.161076 
L 139.291892 238.031829 
L 153.306634 236.7484 
L 166.407371 235.328482 
L 179.20344 233.717715 
L 191.69484 231.920411 
L 204.186241 229.897491 
L 216.98231 227.598271 
L 230.692383 224.902865 
L 246.230467 221.611554 
L 267.861916 216.776679 
L 297.414742 210.195119 
L 312.952826 206.973155 
L 326.662899 204.357083 
L 339.458968 202.14139 
L 351.950369 200.203909 
L 364.441769 198.491819 
L 373.581818 197.378381 
L 373.581818 197.378381 
" style="fill:none;stroke:#3300ff;stroke-linecap:square;"/>
   </g>
   <g id="line2d_29">
    <path clip-path="url(#p10a29cffcf)" d="M 69.218182 241.616881 
L 83.537592 240.862646 
L 96.028993 239.987543 
L 107.30172 238.976848 
L 117.355774 237.859319 
L 126.800491 236.589941 
L 135.635872 235.181011 
L 144.166585 233.592634 
L 152.392629 231.828337 
L 160.314005 229.898218 
L 167.930713 227.819054 
L 175.54742 225.517525 
L 183.468796 222.891791 
L 191.69484 219.928514 
L 200.530221 216.507342 
L 210.888943 212.246471 
L 226.122359 205.70249 
L 244.097789 198.03303 
L 254.151843 193.98701 
L 262.987224 190.666035 
L 271.213268 187.810207 
L 279.134644 185.29555 
L 287.05602 183.020485 
L 294.977396 180.984765 
L 302.898771 179.181111 
L 311.124816 177.540246 
L 319.655528 176.069348 
L 328.490909 174.769634 
L 337.935627 173.602665 
L 348.294349 172.550527 
L 359.567076 171.632536 
L 372.058477 170.839736 
L 373.581818 170.756746 
L 373.581818 170.756746 
" style="fill:none;stroke:#cc00ff;stroke-linecap:square;"/>
   </g>
   <g id="line2d_30">
    <path clip-path="url(#p10a29cffcf)" d="M 69.218182 242.116364 
L 82.014251 241.464045 
L 92.98231 240.68712 
L 102.427027 239.8014 
L 110.95774 238.779092 
L 118.574447 237.643984 
L 125.581818 236.374528 
L 131.979853 234.991552 
L 138.073219 233.442407 
L 143.557248 231.826031 
L 148.736609 230.08085 
L 153.915971 228.098307 
L 158.790663 225.992433 
L 163.360688 223.786662 
L 167.930713 221.337905 
L 172.500737 218.62787 
L 176.766093 215.847284 
L 181.03145 212.810618 
L 185.296806 209.506244 
L 189.562162 205.924658 
L 193.827518 202.059099 
L 198.092875 197.906177 
L 202.662899 193.138508 
L 207.232924 188.048298 
L 212.107617 182.278319 
L 217.286978 175.790498 
L 222.771007 168.565852 
L 229.169042 159.760052 
L 237.395086 148.034942 
L 255.979853 121.408384 
L 262.377887 112.692365 
L 268.166585 105.180937 
L 273.345946 98.821754 
L 278.220639 93.183981 
L 282.790663 88.224255 
L 287.360688 83.590532 
L 291.930713 79.286848 
L 296.196069 75.566452 
L 300.461425 72.12697 
L 304.726781 68.960166 
L 308.992138 66.055383 
L 313.562162 63.219658 
L 318.132187 60.653379 
L 322.702211 58.338529 
L 327.576904 56.125664 
L 332.451597 54.155434 
L 337.630958 52.303431 
L 343.114988 50.586129 
L 348.903686 49.014863 
L 354.997052 47.595915 
L 361.395086 46.330848 
L 368.402457 45.171013 
L 373.581818 44.443636 
L 373.581818 44.443636 
" style="fill:none;stroke:#ff0099;stroke-linecap:square;"/>
   </g>
   <g id="line2d_31">
    <defs>
     <path d="M 0 3 
C 0.795609 3 1.55874 2.683901 2.12132 2.12132 
C 2.683901 1.55874 3 0.795609 3 0 
C 3 -0.795609 2.683901 -1.55874 2.12132 -2.12132 
C 1.55874 -2.683901 0.795609 -3 0 -3 
C -0.795609 -3 -1.55874 -2.683901 -2.12132 -2.12132 
C -2.683901 -1.55874 -3 -0.795609 -3 0 
C -3 0.795609 -2.683901 1.55874 -2.12132 2.12132 
C -1.55874 2.683901 -0.795609 3 0 3 
z
" id="mfd4a686d74" style="stroke:#0000ff;"/>
    </defs>
    <g clip-path="url(#p10a29cffcf)">
     <use style="fill:#0000ff;stroke:#0000ff;" x="69.218182" xlink:href="#mfd4a686d74" y="241.967312"/>
     <use style="fill:#0000ff;stroke:#0000ff;" x="83.711688" xlink:href="#mfd4a686d74" y="241.373845"/>
     <use style="fill:#0000ff;stroke:#0000ff;" x="98.205195" xlink:href="#mfd4a686d74" y="240.568426"/>
     <use style="fill:#0000ff;stroke:#0000ff;" x="112.698701" xlink:href="#mfd4a686d74" y="239.551055"/>
     <use style="fill:#0000ff;stroke:#0000ff;" x="127.192208" xlink:href="#mfd4a686d74" y="238.109778"/>
     <use style="fill:#0000ff;stroke:#0000ff;" x="141.685714" xlink:href="#mfd4a686d74" y="236.414159"/>
     <use style="fill:#0000ff;stroke:#0000ff;" x="156.179221" xlink:href="#mfd4a686d74" y="233.870731"/>
     <use style="fill:#0000ff;stroke:#0000ff;" x="170.672727" xlink:href="#mfd4a686d74" y="230.479493"/>
     <use style="fill:#0000ff;stroke:#0000ff;" x="185.166234" xlink:href="#mfd4a686d74" y="227.088255"/>
     <use style="fill:#0000ff;stroke:#0000ff;" x="199.65974" xlink:href="#mfd4a686d74" y="222.425303"/>
     <use style="fill:#0000ff;stroke:#0000ff;" x="214.153247" xlink:href="#mfd4a686d74" y="217.338446"/>
     <use style="fill:#0000ff;stroke:#0000ff;" x="228.646753" xlink:href="#mfd4a686d74" y="211.40378"/>
     <use style="fill:#0000ff;stroke:#0000ff;" x="243.14026" xlink:href="#mfd4a686d74" y="204.621304"/>
     <use style="fill:#0000ff;stroke:#0000ff;" x="257.633766" xlink:href="#mfd4a686d74" y="198.686637"/>
     <use style="fill:#0000ff;stroke:#0000ff;" x="272.127273" xlink:href="#mfd4a686d74" y="191.480257"/>
     <use style="fill:#0000ff;stroke:#0000ff;" x="286.620779" xlink:href="#mfd4a686d74" y="187.665114"/>
     <use style="fill:#0000ff;stroke:#0000ff;" x="301.114286" xlink:href="#mfd4a686d74" y="179.610924"/>
     <use style="fill:#0000ff;stroke:#0000ff;" x="315.607792" xlink:href="#mfd4a686d74" y="167.741591"/>
     <use style="fill:#0000ff;stroke:#0000ff;" x="330.101299" xlink:href="#mfd4a686d74" y="157.567877"/>
     <use style="fill:#0000ff;stroke:#0000ff;" x="344.594805" xlink:href="#mfd4a686d74" y="149.937592"/>
     <use style="fill:#0000ff;stroke:#0000ff;" x="359.088312" xlink:href="#mfd4a686d74" y="137.644354"/>
     <use style="fill:#0000ff;stroke:#0000ff;" x="373.581818" xlink:href="#mfd4a686d74" y="124.503307"/>
    </g>
   </g>
   <g id="patch_3">
    <path d="M 54 252 
L 54 34.56 
" style="fill:none;stroke:#000000;stroke-linecap:square;stroke-linejoin:miter;stroke-width:0.8;"/>
   </g>
   <g id="patch_4">
    <path d="M 388.8 252 
L 388.8 34.56 
" style="fill:none;stroke:#000000;stroke-linecap:square;stroke-linejoin:miter;stroke-width:0.8;"/>
   </g>
   <g id="patch_5">
    <path d="M 54 252 
L 388.8 252 
" style="fill:none;stroke:#000000;stroke-linecap:square;stroke-linejoin:miter;stroke-width:0.8;"/>
   </g>
   <g id="patch_6">
    <path d="M 54 34.56 
L 388.8 34.56 
" style="fill:none;stroke:#000000;stroke-linecap:square;stroke-linejoin:miter;stroke-width:0.8;"/>
   </g>
   <g id="text_13">
    <!-- US population -->
    <defs>
     <path d="M 8.6875 72.90625 
L 18.609375 72.90625 
L 18.609375 28.609375 
Q 18.609375 16.890625 22.84375 11.734375 
Q 27.09375 6.59375 36.625 6.59375 
Q 46.09375 6.59375 50.34375 11.734375 
Q 54.59375 16.890625 54.59375 28.609375 
L 54.59375 72.90625 
L 64.5 72.90625 
L 64.5 27.390625 
Q 64.5 13.140625 57.4375 5.859375 
Q 50.390625 -1.421875 36.625 -1.421875 
Q 22.796875 -1.421875 15.734375 5.859375 
Q 8.6875 13.140625 8.6875 27.390625 
z
" id="DejaVuSans-55"/>
     <path d="M 53.515625 70.515625 
L 53.515625 60.890625 
Q 47.90625 63.578125 42.921875 64.890625 
Q 37.9375 66.21875 33.296875 66.21875 
Q 25.25 66.21875 20.875 63.09375 
Q 16.5 59.96875 16.5 54.203125 
Q 16.5 49.359375 19.40625 46.890625 
Q 22.3125 44.4375 30.421875 42.921875 
L 36.375 41.703125 
Q 47.40625 39.59375 52.65625 34.296875 
Q 57.90625 29 57.90625 20.125 
Q 57.90625 9.515625 50.796875 4.046875 
Q 43.703125 -1.421875 29.984375 -1.421875 
Q 24.8125 -1.421875 18.96875 -0.25 
Q 13.140625 0.921875 6.890625 3.21875 
L 6.890625 13.375 
Q 12.890625 10.015625 18.65625 8.296875 
Q 24.421875 6.59375 29.984375 6.59375 
Q 38.421875 6.59375 43.015625 9.90625 
Q 47.609375 13.234375 47.609375 19.390625 
Q 47.609375 24.75 44.3125 27.78125 
Q 41.015625 30.8125 33.5 32.328125 
L 27.484375 33.5 
Q 16.453125 35.6875 11.515625 40.375 
Q 6.59375 45.0625 6.59375 53.421875 
Q 6.59375 63.09375 13.40625 68.65625 
Q 20.21875 74.21875 32.171875 74.21875 
Q 37.3125 74.21875 42.625 73.28125 
Q 47.953125 72.359375 53.515625 70.515625 
z
" id="DejaVuSans-53"/>
     <path d="M 18.109375 8.203125 
L 18.109375 -20.796875 
L 9.078125 -20.796875 
L 9.078125 54.6875 
L 18.109375 54.6875 
L 18.109375 46.390625 
Q 20.953125 51.265625 25.265625 53.625 
Q 29.59375 56 35.59375 56 
Q 45.5625 56 51.78125 48.09375 
Q 58.015625 40.1875 58.015625 27.296875 
Q 58.015625 14.40625 51.78125 6.484375 
Q 45.5625 -1.421875 35.59375 -1.421875 
Q 29.59375 -1.421875 25.265625 0.953125 
Q 20.953125 3.328125 18.109375 8.203125 
z
M 48.6875 27.296875 
Q 48.6875 37.203125 44.609375 42.84375 
Q 40.53125 48.484375 33.40625 48.484375 
Q 26.265625 48.484375 22.1875 42.84375 
Q 18.109375 37.203125 18.109375 27.296875 
Q 18.109375 17.390625 22.1875 11.75 
Q 26.265625 6.109375 33.40625 6.109375 
Q 40.53125 6.109375 44.609375 11.75 
Q 48.6875 17.390625 48.6875 27.296875 
z
" id="DejaVuSans-70"/>
     <path d="M 8.5 21.578125 
L 8.5 54.6875 
L 17.484375 54.6875 
L 17.484375 21.921875 
Q 17.484375 14.15625 20.5 10.265625 
Q 23.53125 6.390625 29.59375 6.390625 
Q 36.859375 6.390625 41.078125 11.03125 
Q 45.3125 15.671875 45.3125 23.6875 
L 45.3125 54.6875 
L 54.296875 54.6875 
L 54.296875 0 
L 45.3125 0 
L 45.3125 8.40625 
Q 42.046875 3.421875 37.71875 1 
Q 33.40625 -1.421875 27.6875 -1.421875 
Q 18.265625 -1.421875 13.375 4.4375 
Q 8.5 10.296875 8.5 21.578125 
z
M 31.109375 56 
z
" id="DejaVuSans-75"/>
     <path d="M 18.3125 70.21875 
L 18.3125 54.6875 
L 36.8125 54.6875 
L 36.8125 47.703125 
L 18.3125 47.703125 
L 18.3125 18.015625 
Q 18.3125 11.328125 20.140625 9.421875 
Q 21.96875 7.515625 27.59375 7.515625 
L 36.8125 7.515625 
L 36.8125 0 
L 27.59375 0 
Q 17.1875 0 13.234375 3.875 
Q 9.28125 7.765625 9.28125 18.015625 
L 9.28125 47.703125 
L 2.6875 47.703125 
L 2.6875 54.6875 
L 9.28125 54.6875 
L 9.28125 70.21875 
z
" id="DejaVuSans-74"/>
    </defs>
    <g transform="translate(179.364375 28.56)scale(0.12 -0.12)">
     <use xlink:href="#DejaVuSans-55"/>
     <use x="73.193359" xlink:href="#DejaVuSans-53"/>
     <use x="136.669922" xlink:href="#DejaVuSans-20"/>
     <use x="168.457031" xlink:href="#DejaVuSans-70"/>
     <use x="231.933594" xlink:href="#DejaVuSans-6f"/>
     <use x="293.115234" xlink:href="#DejaVuSans-70"/>
     <use x="356.591797" xlink:href="#DejaVuSans-75"/>
     <use x="419.970703" xlink:href="#DejaVuSans-6c"/>
     <use x="447.753906" xlink:href="#DejaVuSans-61"/>
     <use x="509.033203" xlink:href="#DejaVuSans-74"/>
     <use x="548.242188" xlink:href="#DejaVuSans-69"/>
     <use x="576.025391" xlink:href="#DejaVuSans-6f"/>
     <use x="637.207031" xlink:href="#DejaVuSans-6e"/>
    </g>
   </g>
   <g id="legend_1">
    <g id="patch_7">
     <path d="M 63 59.238125 
L 118.876563 59.238125 
Q 120.876563 59.238125 120.876563 57.238125 
L 120.876563 43.56 
Q 120.876563 41.56 118.876563 41.56 
L 63 41.56 
Q 61 41.56 61 43.56 
L 61 57.238125 
Q 61 59.238125 63 59.238125 
z
" style="fill:#4c4c4c;opacity:0.5;stroke:#4c4c4c;stroke-linejoin:miter;"/>
    </g>
    <g id="patch_8">
     <path d="M 61 57.238125 
L 116.876563 57.238125 
Q 118.876563 57.238125 118.876563 55.238125 
L 118.876563 41.56 
Q 118.876563 39.56 116.876563 39.56 
L 61 39.56 
Q 59 39.56 59 41.56 
L 59 55.238125 
Q 59 57.238125 61 57.238125 
z
" style="fill:#ffffff;opacity:0.8;stroke:#cccccc;stroke-linejoin:miter;"/>
    </g>
    <g id="line2d_32"/>
    <g id="line2d_33">
     <g>
      <use style="fill:#0000ff;stroke:#0000ff;" x="73" xlink:href="#mfd4a686d74" y="47.658437"/>
     </g>
    </g>
    <g id="text_14">
     <!-- Data -->
     <defs>
      <path d="M 19.671875 64.796875 
L 19.671875 8.109375 
L 31.59375 8.109375 
Q 46.6875 8.109375 53.6875 14.9375 
Q 60.6875 21.78125 60.6875 36.53125 
Q 60.6875 51.171875 53.6875 57.984375 
Q 46.6875 64.796875 31.59375 64.796875 
z
M 9.8125 72.90625 
L 30.078125 72.90625 
Q 51.265625 72.90625 61.171875 64.09375 
Q 71.09375 55.28125 71.09375 36.53125 
Q 71.09375 17.671875 61.125 8.828125 
Q 51.171875 0 30.078125 0 
L 9.8125 0 
z
" id="DejaVuSans-44"/>
     </defs>
     <g transform="translate(91 51.158437)scale(0.1 -0.1)">
      <use xlink:href="#DejaVuSans-44"/>
      <use x="77.001953" xlink:href="#DejaVuSans-61"/>
      <use x="138.28125" xlink:href="#DejaVuSans-74"/>
      <use x="177.490234" xlink:href="#DejaVuSans-61"/>
     </g>
    </g>
   </g>
  </g>
 </g>
 <defs>
  <clipPath id="p10a29cffcf">
   <rect height="217.44" width="334.8" x="54" y="34.56"/>
  </clipPath>
 </defs>
</svg>
