<?xml version="1.0" encoding="utf-8" standalone="no"?>
<!DOCTYPE svg PUBLIC "-//W3C//DTD SVG 1.1//EN"
  "http://www.w3.org/Graphics/SVG/1.1/DTD/svg11.dtd">
<!-- Created with matplotlib (http://matplotlib.org/) -->
<svg height="288pt" version="1.1" viewBox="0 0 432 288" width="432pt" xmlns="http://www.w3.org/2000/svg" xmlns:xlink="http://www.w3.org/1999/xlink">
 <defs>
  <style type="text/css">
*{stroke-linecap:butt;stroke-linejoin:round;}
  </style>
 </defs>
 <g id="figure_1">
  <g id="patch_1">
   <path d="M 0 288 
L 432 288 
L 432 0 
L 0 0 
z
" style="fill:#ffffff;"/>
  </g>
  <g id="axes_1">
   <g id="patch_2">
    <path d="M 54 252 
L 388.8 252 
L 388.8 34.56 
L 54 34.56 
z
" style="fill:#ffffff;"/>
   </g>
   <g id="matplotlib.axis_1">
    <g id="xtick_1">
     <g id="line2d_1">
      <path clip-path="url(#p82d7c16860)" d="M 120.696896 252 
L 120.696896 34.56 
" style="fill:none;stroke:#b0b0b0;stroke-linecap:square;stroke-width:0.8;"/>
     </g>
     <g id="line2d_2">
      <defs>
       <path d="M 0 0 
L 0 3.5 
" id="meea48161fc" style="stroke:#000000;stroke-width:0.8;"/>
      </defs>
      <g>
       <use style="stroke:#000000;stroke-width:0.8;" x="120.696896" xlink:href="#meea48161fc" y="252"/>
      </g>
     </g>
     <g id="text_1">
      <!-- 0.2 -->
      <defs>
       <path d="M 31.78125 66.40625 
Q 24.171875 66.40625 20.328125 58.90625 
Q 16.5 51.421875 16.5 36.375 
Q 16.5 21.390625 20.328125 13.890625 
Q 24.171875 6.390625 31.78125 6.390625 
Q 39.453125 6.390625 43.28125 13.890625 
Q 47.125 21.390625 47.125 36.375 
Q 47.125 51.421875 43.28125 58.90625 
Q 39.453125 66.40625 31.78125 66.40625 
z
M 31.78125 74.21875 
Q 44.046875 74.21875 50.515625 64.515625 
Q 56.984375 54.828125 56.984375 36.375 
Q 56.984375 17.96875 50.515625 8.265625 
Q 44.046875 -1.421875 31.78125 -1.421875 
Q 19.53125 -1.421875 13.0625 8.265625 
Q 6.59375 17.96875 6.59375 36.375 
Q 6.59375 54.828125 13.0625 64.515625 
Q 19.53125 74.21875 31.78125 74.21875 
z
" id="DejaVuSans-30"/>
       <path d="M 10.6875 12.40625 
L 21 12.40625 
L 21 0 
L 10.6875 0 
z
" id="DejaVuSans-2e"/>
       <path d="M 19.1875 8.296875 
L 53.609375 8.296875 
L 53.609375 0 
L 7.328125 0 
L 7.328125 8.296875 
Q 12.9375 14.109375 22.625 23.890625 
Q 32.328125 33.6875 34.8125 36.53125 
Q 39.546875 41.84375 41.421875 45.53125 
Q 43.3125 49.21875 43.3125 52.78125 
Q 43.3125 58.59375 39.234375 62.25 
Q 35.15625 65.921875 28.609375 65.921875 
Q 23.96875 65.921875 18.8125 64.3125 
Q 13.671875 62.703125 7.8125 59.421875 
L 7.8125 69.390625 
Q 13.765625 71.78125 18.9375 73 
Q 24.125 74.21875 28.421875 74.21875 
Q 39.75 74.21875 46.484375 68.546875 
Q 53.21875 62.890625 53.21875 53.421875 
Q 53.21875 48.921875 51.53125 44.890625 
Q 49.859375 40.875 45.40625 35.40625 
Q 44.1875 33.984375 37.640625 27.21875 
Q 31.109375 20.453125 19.1875 8.296875 
z
" id="DejaVuSans-32"/>
      </defs>
      <g transform="translate(112.745333 266.598437)scale(0.1 -0.1)">
       <use xlink:href="#DejaVuSans-30"/>
       <use x="63.623047" xlink:href="#DejaVuSans-2e"/>
       <use x="95.410156" xlink:href="#DejaVuSans-32"/>
      </g>
     </g>
    </g>
    <g id="xtick_2">
     <g id="line2d_3">
      <path clip-path="url(#p82d7c16860)" d="M 188.051552 252 
L 188.051552 34.56 
" style="fill:none;stroke:#b0b0b0;stroke-linecap:square;stroke-width:0.8;"/>
     </g>
     <g id="line2d_4">
      <g>
       <use style="stroke:#000000;stroke-width:0.8;" x="188.051552" xlink:href="#meea48161fc" y="252"/>
      </g>
     </g>
     <g id="text_2">
      <!-- 0.4 -->
      <defs>
       <path d="M 37.796875 64.3125 
L 12.890625 25.390625 
L 37.796875 25.390625 
z
M 35.203125 72.90625 
L 47.609375 72.90625 
L 47.609375 25.390625 
L 58.015625 25.390625 
L 58.015625 17.1875 
L 47.609375 17.1875 
L 47.609375 0 
L 37.796875 0 
L 37.796875 17.1875 
L 4.890625 17.1875 
L 4.890625 26.703125 
z
" id="DejaVuSans-34"/>
      </defs>
      <g transform="translate(180.09999 266.598437)scale(0.1 -0.1)">
       <use xlink:href="#DejaVuSans-30"/>
       <use x="63.623047" xlink:href="#DejaVuSans-2e"/>
       <use x="95.410156" xlink:href="#DejaVuSans-34"/>
      </g>
     </g>
    </g>
    <g id="xtick_3">
     <g id="line2d_5">
      <path clip-path="url(#p82d7c16860)" d="M 255.406208 252 
L 255.406208 34.56 
" style="fill:none;stroke:#b0b0b0;stroke-linecap:square;stroke-width:0.8;"/>
     </g>
     <g id="line2d_6">
      <g>
       <use style="stroke:#000000;stroke-width:0.8;" x="255.406208" xlink:href="#meea48161fc" y="252"/>
      </g>
     </g>
     <g id="text_3">
      <!-- 0.6 -->
      <defs>
       <path d="M 33.015625 40.375 
Q 26.375 40.375 22.484375 35.828125 
Q 18.609375 31.296875 18.609375 23.390625 
Q 18.609375 15.53125 22.484375 10.953125 
Q 26.375 6.390625 33.015625 6.390625 
Q 39.65625 6.390625 43.53125 10.953125 
Q 47.40625 15.53125 47.40625 23.390625 
Q 47.40625 31.296875 43.53125 35.828125 
Q 39.65625 40.375 33.015625 40.375 
z
M 52.59375 71.296875 
L 52.59375 62.3125 
Q 48.875 64.0625 45.09375 64.984375 
Q 41.3125 65.921875 37.59375 65.921875 
Q 27.828125 65.921875 22.671875 59.328125 
Q 17.53125 52.734375 16.796875 39.40625 
Q 19.671875 43.65625 24.015625 45.921875 
Q 28.375 48.1875 33.59375 48.1875 
Q 44.578125 48.1875 50.953125 41.515625 
Q 57.328125 34.859375 57.328125 23.390625 
Q 57.328125 12.15625 50.6875 5.359375 
Q 44.046875 -1.421875 33.015625 -1.421875 
Q 20.359375 -1.421875 13.671875 8.265625 
Q 6.984375 17.96875 6.984375 36.375 
Q 6.984375 53.65625 15.1875 63.9375 
Q 23.390625 74.21875 37.203125 74.21875 
Q 40.921875 74.21875 44.703125 73.484375 
Q 48.484375 72.75 52.59375 71.296875 
z
" id="DejaVuSans-36"/>
      </defs>
      <g transform="translate(247.454646 266.598437)scale(0.1 -0.1)">
       <use xlink:href="#DejaVuSans-30"/>
       <use x="63.623047" xlink:href="#DejaVuSans-2e"/>
       <use x="95.410156" xlink:href="#DejaVuSans-36"/>
      </g>
     </g>
    </g>
    <g id="xtick_4">
     <g id="line2d_7">
      <path clip-path="url(#p82d7c16860)" d="M 322.760864 252 
L 322.760864 34.56 
" style="fill:none;stroke:#b0b0b0;stroke-linecap:square;stroke-width:0.8;"/>
     </g>
     <g id="line2d_8">
      <g>
       <use style="stroke:#000000;stroke-width:0.8;" x="322.760864" xlink:href="#meea48161fc" y="252"/>
      </g>
     </g>
     <g id="text_4">
      <!-- 0.8 -->
      <defs>
       <path d="M 31.78125 34.625 
Q 24.75 34.625 20.71875 30.859375 
Q 16.703125 27.09375 16.703125 20.515625 
Q 16.703125 13.921875 20.71875 10.15625 
Q 24.75 6.390625 31.78125 6.390625 
Q 38.8125 6.390625 42.859375 10.171875 
Q 46.921875 13.96875 46.921875 20.515625 
Q 46.921875 27.09375 42.890625 30.859375 
Q 38.875 34.625 31.78125 34.625 
z
M 21.921875 38.8125 
Q 15.578125 40.375 12.03125 44.71875 
Q 8.5 49.078125 8.5 55.328125 
Q 8.5 64.0625 14.71875 69.140625 
Q 20.953125 74.21875 31.78125 74.21875 
Q 42.671875 74.21875 48.875 69.140625 
Q 55.078125 64.0625 55.078125 55.328125 
Q 55.078125 49.078125 51.53125 44.71875 
Q 48 40.375 41.703125 38.8125 
Q 48.828125 37.15625 52.796875 32.3125 
Q 56.78125 27.484375 56.78125 20.515625 
Q 56.78125 9.90625 50.3125 4.234375 
Q 43.84375 -1.421875 31.78125 -1.421875 
Q 19.734375 -1.421875 13.25 4.234375 
Q 6.78125 9.90625 6.78125 20.515625 
Q 6.78125 27.484375 10.78125 32.3125 
Q 14.796875 37.15625 21.921875 38.8125 
z
M 18.3125 54.390625 
Q 18.3125 48.734375 21.84375 45.5625 
Q 25.390625 42.390625 31.78125 42.390625 
Q 38.140625 42.390625 41.71875 45.5625 
Q 45.3125 48.734375 45.3125 54.390625 
Q 45.3125 60.0625 41.71875 63.234375 
Q 38.140625 66.40625 31.78125 66.40625 
Q 25.390625 66.40625 21.84375 63.234375 
Q 18.3125 60.0625 18.3125 54.390625 
z
" id="DejaVuSans-38"/>
      </defs>
      <g transform="translate(314.809302 266.598437)scale(0.1 -0.1)">
       <use xlink:href="#DejaVuSans-30"/>
       <use x="63.623047" xlink:href="#DejaVuSans-2e"/>
       <use x="95.410156" xlink:href="#DejaVuSans-38"/>
      </g>
     </g>
    </g>
   </g>
   <g id="matplotlib.axis_2">
    <g id="ytick_1">
     <g id="line2d_9">
      <path clip-path="url(#p82d7c16860)" d="M 54 252.299917 
L 388.8 252.299917 
" style="fill:none;stroke:#b0b0b0;stroke-linecap:square;stroke-width:0.8;"/>
     </g>
     <g id="line2d_10">
      <defs>
       <path d="M 0 0 
L -3.5 0 
" id="m08a17dd22f" style="stroke:#000000;stroke-width:0.8;"/>
      </defs>
      <g>
       <use style="stroke:#000000;stroke-width:0.8;" x="54" xlink:href="#m08a17dd22f" y="252.299917"/>
      </g>
     </g>
     <g id="text_5">
      <!-- 0.0 -->
      <g transform="translate(31.096875 256.099136)scale(0.1 -0.1)">
       <use xlink:href="#DejaVuSans-30"/>
       <use x="63.623047" xlink:href="#DejaVuSans-2e"/>
       <use x="95.410156" xlink:href="#DejaVuSans-30"/>
      </g>
     </g>
    </g>
    <g id="ytick_2">
     <g id="line2d_11">
      <path clip-path="url(#p82d7c16860)" d="M 54 208.571983 
L 388.8 208.571983 
" style="fill:none;stroke:#b0b0b0;stroke-linecap:square;stroke-width:0.8;"/>
     </g>
     <g id="line2d_12">
      <g>
       <use style="stroke:#000000;stroke-width:0.8;" x="54" xlink:href="#m08a17dd22f" y="208.571983"/>
      </g>
     </g>
     <g id="text_6">
      <!-- 0.2 -->
      <g transform="translate(31.096875 212.371202)scale(0.1 -0.1)">
       <use xlink:href="#DejaVuSans-30"/>
       <use x="63.623047" xlink:href="#DejaVuSans-2e"/>
       <use x="95.410156" xlink:href="#DejaVuSans-32"/>
      </g>
     </g>
    </g>
    <g id="ytick_3">
     <g id="line2d_13">
      <path clip-path="url(#p82d7c16860)" d="M 54 164.84405 
L 388.8 164.84405 
" style="fill:none;stroke:#b0b0b0;stroke-linecap:square;stroke-width:0.8;"/>
     </g>
     <g id="line2d_14">
      <g>
       <use style="stroke:#000000;stroke-width:0.8;" x="54" xlink:href="#m08a17dd22f" y="164.84405"/>
      </g>
     </g>
     <g id="text_7">
      <!-- 0.4 -->
      <g transform="translate(31.096875 168.643268)scale(0.1 -0.1)">
       <use xlink:href="#DejaVuSans-30"/>
       <use x="63.623047" xlink:href="#DejaVuSans-2e"/>
       <use x="95.410156" xlink:href="#DejaVuSans-34"/>
      </g>
     </g>
    </g>
    <g id="ytick_4">
     <g id="line2d_15">
      <path clip-path="url(#p82d7c16860)" d="M 54 121.116116 
L 388.8 121.116116 
" style="fill:none;stroke:#b0b0b0;stroke-linecap:square;stroke-width:0.8;"/>
     </g>
     <g id="line2d_16">
      <g>
       <use style="stroke:#000000;stroke-width:0.8;" x="54" xlink:href="#m08a17dd22f" y="121.116116"/>
      </g>
     </g>
     <g id="text_8">
      <!-- 0.6 -->
      <g transform="translate(31.096875 124.915335)scale(0.1 -0.1)">
       <use xlink:href="#DejaVuSans-30"/>
       <use x="63.623047" xlink:href="#DejaVuSans-2e"/>
       <use x="95.410156" xlink:href="#DejaVuSans-36"/>
      </g>
     </g>
    </g>
    <g id="ytick_5">
     <g id="line2d_17">
      <path clip-path="url(#p82d7c16860)" d="M 54 77.388182 
L 388.8 77.388182 
" style="fill:none;stroke:#b0b0b0;stroke-linecap:square;stroke-width:0.8;"/>
     </g>
     <g id="line2d_18">
      <g>
       <use style="stroke:#000000;stroke-width:0.8;" x="54" xlink:href="#m08a17dd22f" y="77.388182"/>
      </g>
     </g>
     <g id="text_9">
      <!-- 0.8 -->
      <g transform="translate(31.096875 81.187401)scale(0.1 -0.1)">
       <use xlink:href="#DejaVuSans-30"/>
       <use x="63.623047" xlink:href="#DejaVuSans-2e"/>
       <use x="95.410156" xlink:href="#DejaVuSans-38"/>
      </g>
     </g>
    </g>
   </g>
   <g id="line2d_19">
    <defs>
     <path d="M -3 0 
L 3 0 
M 0 3 
L 0 -3 
" id="mf9e7e625a1" style="stroke:#0000ff;"/>
    </defs>
    <g clip-path="url(#p82d7c16860)">
     <use style="fill:#0000ff;stroke:#0000ff;" x="221.72888" xlink:href="#mf9e7e625a1" y="179.420028"/>
     <use style="fill:#0000ff;stroke:#0000ff;" x="137.53556" xlink:href="#mf9e7e625a1" y="106.540138"/>
     <use style="fill:#0000ff;stroke:#0000ff;" x="305.9222" xlink:href="#mf9e7e625a1" y="228.006621"/>
     <use style="fill:#0000ff;stroke:#0000ff;" x="95.4389" xlink:href="#mf9e7e625a1" y="155.126731"/>
     <use style="fill:#0000ff;stroke:#0000ff;" x="263.82554" xlink:href="#mf9e7e625a1" y="82.246841"/>
     <use style="fill:#0000ff;stroke:#0000ff;" x="179.63222" xlink:href="#mf9e7e625a1" y="203.713324"/>
     <use style="fill:#0000ff;stroke:#0000ff;" x="348.018861" xlink:href="#mf9e7e625a1" y="130.833434"/>
     <use style="fill:#0000ff;stroke:#0000ff;" x="74.39057" xlink:href="#mf9e7e625a1" y="57.953545"/>
     <use style="fill:#0000ff;stroke:#0000ff;" x="242.77721" xlink:href="#mf9e7e625a1" y="244.202152"/>
     <use style="fill:#0000ff;stroke:#0000ff;" x="158.58389" xlink:href="#mf9e7e625a1" y="171.322262"/>
     <use style="fill:#0000ff;stroke:#0000ff;" x="326.97053" xlink:href="#mf9e7e625a1" y="98.442372"/>
     <use style="fill:#0000ff;stroke:#0000ff;" x="116.48723" xlink:href="#mf9e7e625a1" y="219.908855"/>
     <use style="fill:#0000ff;stroke:#0000ff;" x="284.87387" xlink:href="#mf9e7e625a1" y="147.028966"/>
     <use style="fill:#0000ff;stroke:#0000ff;" x="200.68055" xlink:href="#mf9e7e625a1" y="74.149076"/>
     <use style="fill:#0000ff;stroke:#0000ff;" x="369.067191" xlink:href="#mf9e7e625a1" y="195.615559"/>
     <use style="fill:#0000ff;stroke:#0000ff;" x="63.866405" xlink:href="#mf9e7e625a1" y="122.735669"/>
     <use style="fill:#0000ff;stroke:#0000ff;" x="232.253045" xlink:href="#mf9e7e625a1" y="49.855779"/>
     <use style="fill:#0000ff;stroke:#0000ff;" x="148.059725" xlink:href="#mf9e7e625a1" y="236.104386"/>
     <use style="fill:#0000ff;stroke:#0000ff;" x="316.446365" xlink:href="#mf9e7e625a1" y="163.224497"/>
     <use style="fill:#0000ff;stroke:#0000ff;" x="105.963065" xlink:href="#mf9e7e625a1" y="90.344607"/>
     <use style="fill:#0000ff;stroke:#0000ff;" x="274.349705" xlink:href="#mf9e7e625a1" y="211.81109"/>
     <use style="fill:#0000ff;stroke:#0000ff;" x="190.156385" xlink:href="#mf9e7e625a1" y="138.9312"/>
     <use style="fill:#0000ff;stroke:#0000ff;" x="358.543026" xlink:href="#mf9e7e625a1" y="66.05131"/>
     <use style="fill:#0000ff;stroke:#0000ff;" x="84.914735" xlink:href="#mf9e7e625a1" y="187.517793"/>
     <use style="fill:#0000ff;stroke:#0000ff;" x="253.301375" xlink:href="#mf9e7e625a1" y="114.637903"/>
     <use style="fill:#0000ff;stroke:#0000ff;" x="169.108055" xlink:href="#mf9e7e625a1" y="41.758014"/>
     <use style="fill:#0000ff;stroke:#0000ff;" x="337.494695" xlink:href="#mf9e7e625a1" y="249.600662"/>
     <use style="fill:#0000ff;stroke:#0000ff;" x="127.011395" xlink:href="#mf9e7e625a1" y="176.720772"/>
     <use style="fill:#0000ff;stroke:#0000ff;" x="295.398035" xlink:href="#mf9e7e625a1" y="103.840883"/>
     <use style="fill:#0000ff;stroke:#0000ff;" x="211.204715" xlink:href="#mf9e7e625a1" y="225.307366"/>
     <use style="fill:#0000ff;stroke:#0000ff;" x="379.591356" xlink:href="#mf9e7e625a1" y="152.427476"/>
     <use style="fill:#0000ff;stroke:#0000ff;" x="58.604322" xlink:href="#mf9e7e625a1" y="79.547586"/>
     <use style="fill:#0000ff;stroke:#0000ff;" x="226.990963" xlink:href="#mf9e7e625a1" y="201.014069"/>
     <use style="fill:#0000ff;stroke:#0000ff;" x="142.797642" xlink:href="#mf9e7e625a1" y="128.134179"/>
     <use style="fill:#0000ff;stroke:#0000ff;" x="311.184283" xlink:href="#mf9e7e625a1" y="55.25429"/>
     <use style="fill:#0000ff;stroke:#0000ff;" x="100.700982" xlink:href="#mf9e7e625a1" y="241.502897"/>
     <use style="fill:#0000ff;stroke:#0000ff;" x="269.087623" xlink:href="#mf9e7e625a1" y="168.623007"/>
     <use style="fill:#0000ff;stroke:#0000ff;" x="184.894303" xlink:href="#mf9e7e625a1" y="95.743117"/>
     <use style="fill:#0000ff;stroke:#0000ff;" x="353.280943" xlink:href="#mf9e7e625a1" y="217.2096"/>
     <use style="fill:#0000ff;stroke:#0000ff;" x="79.652652" xlink:href="#mf9e7e625a1" y="144.32971"/>
     <use style="fill:#0000ff;stroke:#0000ff;" x="248.039293" xlink:href="#mf9e7e625a1" y="71.449821"/>
     <use style="fill:#0000ff;stroke:#0000ff;" x="163.845972" xlink:href="#mf9e7e625a1" y="192.916303"/>
     <use style="fill:#0000ff;stroke:#0000ff;" x="332.232613" xlink:href="#mf9e7e625a1" y="120.036414"/>
     <use style="fill:#0000ff;stroke:#0000ff;" x="121.749312" xlink:href="#mf9e7e625a1" y="47.156524"/>
     <use style="fill:#0000ff;stroke:#0000ff;" x="290.135953" xlink:href="#mf9e7e625a1" y="233.405131"/>
     <use style="fill:#0000ff;stroke:#0000ff;" x="205.942633" xlink:href="#mf9e7e625a1" y="160.525241"/>
     <use style="fill:#0000ff;stroke:#0000ff;" x="374.329273" xlink:href="#mf9e7e625a1" y="87.645352"/>
     <use style="fill:#0000ff;stroke:#0000ff;" x="69.128487" xlink:href="#mf9e7e625a1" y="209.111834"/>
     <use style="fill:#0000ff;stroke:#0000ff;" x="237.515128" xlink:href="#mf9e7e625a1" y="136.231945"/>
     <use style="fill:#0000ff;stroke:#0000ff;" x="153.321807" xlink:href="#mf9e7e625a1" y="63.352055"/>
     <use style="fill:#0000ff;stroke:#0000ff;" x="321.708448" xlink:href="#mf9e7e625a1" y="184.818538"/>
     <use style="fill:#0000ff;stroke:#0000ff;" x="111.225147" xlink:href="#mf9e7e625a1" y="111.938648"/>
     <use style="fill:#0000ff;stroke:#0000ff;" x="279.611788" xlink:href="#mf9e7e625a1" y="39.058759"/>
     <use style="fill:#0000ff;stroke:#0000ff;" x="195.418468" xlink:href="#mf9e7e625a1" y="246.901407"/>
     <use style="fill:#0000ff;stroke:#0000ff;" x="363.805108" xlink:href="#mf9e7e625a1" y="174.021517"/>
     <use style="fill:#0000ff;stroke:#0000ff;" x="90.176817" xlink:href="#mf9e7e625a1" y="101.141628"/>
     <use style="fill:#0000ff;stroke:#0000ff;" x="258.563458" xlink:href="#mf9e7e625a1" y="222.60811"/>
     <use style="fill:#0000ff;stroke:#0000ff;" x="174.370138" xlink:href="#mf9e7e625a1" y="149.728221"/>
     <use style="fill:#0000ff;stroke:#0000ff;" x="342.756778" xlink:href="#mf9e7e625a1" y="76.848331"/>
     <use style="fill:#0000ff;stroke:#0000ff;" x="132.273477" xlink:href="#mf9e7e625a1" y="198.314814"/>
     <use style="fill:#0000ff;stroke:#0000ff;" x="300.660118" xlink:href="#mf9e7e625a1" y="125.434924"/>
     <use style="fill:#0000ff;stroke:#0000ff;" x="216.466798" xlink:href="#mf9e7e625a1" y="52.555034"/>
     <use style="fill:#0000ff;stroke:#0000ff;" x="384.853438" xlink:href="#mf9e7e625a1" y="238.803641"/>
     <use style="fill:#0000ff;stroke:#0000ff;" x="55.973281" xlink:href="#mf9e7e625a1" y="165.923752"/>
     <use style="fill:#0000ff;stroke:#0000ff;" x="224.359921" xlink:href="#mf9e7e625a1" y="93.043862"/>
     <use style="fill:#0000ff;stroke:#0000ff;" x="140.166601" xlink:href="#mf9e7e625a1" y="214.510345"/>
     <use style="fill:#0000ff;stroke:#0000ff;" x="308.553242" xlink:href="#mf9e7e625a1" y="141.630455"/>
     <use style="fill:#0000ff;stroke:#0000ff;" x="98.069941" xlink:href="#mf9e7e625a1" y="68.750566"/>
     <use style="fill:#0000ff;stroke:#0000ff;" x="266.456582" xlink:href="#mf9e7e625a1" y="190.217048"/>
     <use style="fill:#0000ff;stroke:#0000ff;" x="182.263261" xlink:href="#mf9e7e625a1" y="117.337159"/>
     <use style="fill:#0000ff;stroke:#0000ff;" x="350.649902" xlink:href="#mf9e7e625a1" y="44.457269"/>
     <use style="fill:#0000ff;stroke:#0000ff;" x="77.021611" xlink:href="#mf9e7e625a1" y="230.705876"/>
     <use style="fill:#0000ff;stroke:#0000ff;" x="245.408251" xlink:href="#mf9e7e625a1" y="157.825986"/>
     <use style="fill:#0000ff;stroke:#0000ff;" x="161.214931" xlink:href="#mf9e7e625a1" y="84.946097"/>
     <use style="fill:#0000ff;stroke:#0000ff;" x="329.601572" xlink:href="#mf9e7e625a1" y="206.412579"/>
     <use style="fill:#0000ff;stroke:#0000ff;" x="119.118271" xlink:href="#mf9e7e625a1" y="133.53269"/>
     <use style="fill:#0000ff;stroke:#0000ff;" x="287.504912" xlink:href="#mf9e7e625a1" y="60.6528"/>
     <use style="fill:#0000ff;stroke:#0000ff;" x="203.311591" xlink:href="#mf9e7e625a1" y="182.119283"/>
     <use style="fill:#0000ff;stroke:#0000ff;" x="371.698232" xlink:href="#mf9e7e625a1" y="109.239393"/>
     <use style="fill:#0000ff;stroke:#0000ff;" x="66.497446" xlink:href="#mf9e7e625a1" y="36.359503"/>
     <use style="fill:#0000ff;stroke:#0000ff;" x="234.884086" xlink:href="#mf9e7e625a1" y="251.400166"/>
     <use style="fill:#0000ff;stroke:#0000ff;" x="150.690766" xlink:href="#mf9e7e625a1" y="178.520276"/>
     <use style="fill:#0000ff;stroke:#0000ff;" x="319.077407" xlink:href="#mf9e7e625a1" y="105.640386"/>
     <use style="fill:#0000ff;stroke:#0000ff;" x="108.594106" xlink:href="#mf9e7e625a1" y="227.106869"/>
     <use style="fill:#0000ff;stroke:#0000ff;" x="276.980747" xlink:href="#mf9e7e625a1" y="154.226979"/>
     <use style="fill:#0000ff;stroke:#0000ff;" x="192.787426" xlink:href="#mf9e7e625a1" y="81.34709"/>
     <use style="fill:#0000ff;stroke:#0000ff;" x="361.174067" xlink:href="#mf9e7e625a1" y="202.813572"/>
     <use style="fill:#0000ff;stroke:#0000ff;" x="87.545776" xlink:href="#mf9e7e625a1" y="129.933683"/>
     <use style="fill:#0000ff;stroke:#0000ff;" x="255.932417" xlink:href="#mf9e7e625a1" y="57.053793"/>
     <use style="fill:#0000ff;stroke:#0000ff;" x="171.739096" xlink:href="#mf9e7e625a1" y="243.3024"/>
     <use style="fill:#0000ff;stroke:#0000ff;" x="340.125737" xlink:href="#mf9e7e625a1" y="170.42251"/>
     <use style="fill:#0000ff;stroke:#0000ff;" x="129.642436" xlink:href="#mf9e7e625a1" y="97.542621"/>
     <use style="fill:#0000ff;stroke:#0000ff;" x="298.029077" xlink:href="#mf9e7e625a1" y="219.009103"/>
     <use style="fill:#0000ff;stroke:#0000ff;" x="213.835756" xlink:href="#mf9e7e625a1" y="146.129214"/>
     <use style="fill:#0000ff;stroke:#0000ff;" x="382.222397" xlink:href="#mf9e7e625a1" y="73.249324"/>
     <use style="fill:#0000ff;stroke:#0000ff;" x="61.235363" xlink:href="#mf9e7e625a1" y="194.715807"/>
     <use style="fill:#0000ff;stroke:#0000ff;" x="229.622004" xlink:href="#mf9e7e625a1" y="121.835917"/>
     <use style="fill:#0000ff;stroke:#0000ff;" x="145.428684" xlink:href="#mf9e7e625a1" y="48.956028"/>
     <use style="fill:#0000ff;stroke:#0000ff;" x="313.815324" xlink:href="#mf9e7e625a1" y="235.204634"/>
     <use style="fill:#0000ff;stroke:#0000ff;" x="103.332024" xlink:href="#mf9e7e625a1" y="162.324745"/>
     <use style="fill:#0000ff;stroke:#0000ff;" x="271.718664" xlink:href="#mf9e7e625a1" y="89.444855"/>
     <use style="fill:#0000ff;stroke:#0000ff;" x="187.525344" xlink:href="#mf9e7e625a1" y="210.911338"/>
     <use style="fill:#0000ff;stroke:#0000ff;" x="355.911984" xlink:href="#mf9e7e625a1" y="138.031448"/>
     <use style="fill:#0000ff;stroke:#0000ff;" x="82.283694" xlink:href="#mf9e7e625a1" y="65.151559"/>
     <use style="fill:#0000ff;stroke:#0000ff;" x="250.670334" xlink:href="#mf9e7e625a1" y="186.618041"/>
     <use style="fill:#0000ff;stroke:#0000ff;" x="166.477014" xlink:href="#mf9e7e625a1" y="113.738152"/>
     <use style="fill:#0000ff;stroke:#0000ff;" x="334.863654" xlink:href="#mf9e7e625a1" y="40.858262"/>
     <use style="fill:#0000ff;stroke:#0000ff;" x="124.380354" xlink:href="#mf9e7e625a1" y="248.70091"/>
     <use style="fill:#0000ff;stroke:#0000ff;" x="292.766994" xlink:href="#mf9e7e625a1" y="175.821021"/>
     <use style="fill:#0000ff;stroke:#0000ff;" x="208.573674" xlink:href="#mf9e7e625a1" y="102.941131"/>
     <use style="fill:#0000ff;stroke:#0000ff;" x="376.960314" xlink:href="#mf9e7e625a1" y="224.407614"/>
     <use style="fill:#0000ff;stroke:#0000ff;" x="71.759528" xlink:href="#mf9e7e625a1" y="151.527724"/>
     <use style="fill:#0000ff;stroke:#0000ff;" x="240.146169" xlink:href="#mf9e7e625a1" y="78.647834"/>
     <use style="fill:#0000ff;stroke:#0000ff;" x="155.952849" xlink:href="#mf9e7e625a1" y="200.114317"/>
     <use style="fill:#0000ff;stroke:#0000ff;" x="324.339489" xlink:href="#mf9e7e625a1" y="127.234428"/>
     <use style="fill:#0000ff;stroke:#0000ff;" x="113.856189" xlink:href="#mf9e7e625a1" y="54.354538"/>
     <use style="fill:#0000ff;stroke:#0000ff;" x="282.242829" xlink:href="#mf9e7e625a1" y="240.603145"/>
     <use style="fill:#0000ff;stroke:#0000ff;" x="198.049509" xlink:href="#mf9e7e625a1" y="167.723255"/>
     <use style="fill:#0000ff;stroke:#0000ff;" x="366.436149" xlink:href="#mf9e7e625a1" y="94.843366"/>
     <use style="fill:#0000ff;stroke:#0000ff;" x="92.807859" xlink:href="#mf9e7e625a1" y="216.309848"/>
     <use style="fill:#0000ff;stroke:#0000ff;" x="261.194499" xlink:href="#mf9e7e625a1" y="143.429959"/>
     <use style="fill:#0000ff;stroke:#0000ff;" x="177.001179" xlink:href="#mf9e7e625a1" y="70.550069"/>
     <use style="fill:#0000ff;stroke:#0000ff;" x="345.387819" xlink:href="#mf9e7e625a1" y="192.016552"/>
     <use style="fill:#0000ff;stroke:#0000ff;" x="134.904519" xlink:href="#mf9e7e625a1" y="119.136662"/>
     <use style="fill:#0000ff;stroke:#0000ff;" x="303.291159" xlink:href="#mf9e7e625a1" y="46.256772"/>
     <use style="fill:#0000ff;stroke:#0000ff;" x="219.097839" xlink:href="#mf9e7e625a1" y="232.505379"/>
     <use style="fill:#0000ff;stroke:#0000ff;" x="387.484479" xlink:href="#mf9e7e625a1" y="159.62549"/>
     <use style="fill:#0000ff;stroke:#0000ff;" x="54.65776" xlink:href="#mf9e7e625a1" y="86.7456"/>
     <use style="fill:#0000ff;stroke:#0000ff;" x="223.044401" xlink:href="#mf9e7e625a1" y="208.212083"/>
     <use style="fill:#0000ff;stroke:#0000ff;" x="138.851081" xlink:href="#mf9e7e625a1" y="135.332193"/>
     <use style="fill:#0000ff;stroke:#0000ff;" x="307.237721" xlink:href="#mf9e7e625a1" y="62.452303"/>
     <use style="fill:#0000ff;stroke:#0000ff;" x="96.75442" xlink:href="#mf9e7e625a1" y="183.918786"/>
     <use style="fill:#0000ff;stroke:#0000ff;" x="265.141061" xlink:href="#mf9e7e625a1" y="111.038897"/>
     <use style="fill:#0000ff;stroke:#0000ff;" x="180.947741" xlink:href="#mf9e7e625a1" y="38.159007"/>
     <use style="fill:#0000ff;stroke:#0000ff;" x="349.334381" xlink:href="#mf9e7e625a1" y="246.001655"/>
     <use style="fill:#0000ff;stroke:#0000ff;" x="75.70609" xlink:href="#mf9e7e625a1" y="173.121766"/>
     <use style="fill:#0000ff;stroke:#0000ff;" x="244.092731" xlink:href="#mf9e7e625a1" y="100.241876"/>
     <use style="fill:#0000ff;stroke:#0000ff;" x="159.899411" xlink:href="#mf9e7e625a1" y="221.708359"/>
     <use style="fill:#0000ff;stroke:#0000ff;" x="328.286051" xlink:href="#mf9e7e625a1" y="148.828469"/>
     <use style="fill:#0000ff;stroke:#0000ff;" x="117.80275" xlink:href="#mf9e7e625a1" y="75.948579"/>
     <use style="fill:#0000ff;stroke:#0000ff;" x="286.189391" xlink:href="#mf9e7e625a1" y="197.415062"/>
     <use style="fill:#0000ff;stroke:#0000ff;" x="201.996071" xlink:href="#mf9e7e625a1" y="124.535172"/>
     <use style="fill:#0000ff;stroke:#0000ff;" x="370.382711" xlink:href="#mf9e7e625a1" y="51.655283"/>
     <use style="fill:#0000ff;stroke:#0000ff;" x="65.181925" xlink:href="#mf9e7e625a1" y="237.90389"/>
     <use style="fill:#0000ff;stroke:#0000ff;" x="233.568566" xlink:href="#mf9e7e625a1" y="165.024"/>
     <use style="fill:#0000ff;stroke:#0000ff;" x="149.375246" xlink:href="#mf9e7e625a1" y="92.14411"/>
     <use style="fill:#0000ff;stroke:#0000ff;" x="317.761886" xlink:href="#mf9e7e625a1" y="213.610593"/>
     <use style="fill:#0000ff;stroke:#0000ff;" x="107.278585" xlink:href="#mf9e7e625a1" y="140.730703"/>
     <use style="fill:#0000ff;stroke:#0000ff;" x="275.665226" xlink:href="#mf9e7e625a1" y="67.850814"/>
     <use style="fill:#0000ff;stroke:#0000ff;" x="191.471906" xlink:href="#mf9e7e625a1" y="189.317297"/>
     <use style="fill:#0000ff;stroke:#0000ff;" x="359.858546" xlink:href="#mf9e7e625a1" y="116.437407"/>
     <use style="fill:#0000ff;stroke:#0000ff;" x="86.230255" xlink:href="#mf9e7e625a1" y="43.557517"/>
     <use style="fill:#0000ff;stroke:#0000ff;" x="254.616896" xlink:href="#mf9e7e625a1" y="229.806124"/>
     <use style="fill:#0000ff;stroke:#0000ff;" x="170.423576" xlink:href="#mf9e7e625a1" y="156.926234"/>
     <use style="fill:#0000ff;stroke:#0000ff;" x="338.810216" xlink:href="#mf9e7e625a1" y="84.046345"/>
     <use style="fill:#0000ff;stroke:#0000ff;" x="128.326916" xlink:href="#mf9e7e625a1" y="205.512828"/>
     <use style="fill:#0000ff;stroke:#0000ff;" x="296.713556" xlink:href="#mf9e7e625a1" y="132.632938"/>
     <use style="fill:#0000ff;stroke:#0000ff;" x="212.520236" xlink:href="#mf9e7e625a1" y="59.753048"/>
     <use style="fill:#0000ff;stroke:#0000ff;" x="380.906876" xlink:href="#mf9e7e625a1" y="181.219531"/>
     <use style="fill:#0000ff;stroke:#0000ff;" x="59.919843" xlink:href="#mf9e7e625a1" y="108.339641"/>
     <use style="fill:#0000ff;stroke:#0000ff;" x="228.306483" xlink:href="#mf9e7e625a1" y="35.459752"/>
     <use style="fill:#0000ff;stroke:#0000ff;" x="144.113163" xlink:href="#mf9e7e625a1" y="250.500414"/>
     <use style="fill:#0000ff;stroke:#0000ff;" x="312.499804" xlink:href="#mf9e7e625a1" y="177.620524"/>
     <use style="fill:#0000ff;stroke:#0000ff;" x="102.016503" xlink:href="#mf9e7e625a1" y="104.740634"/>
     <use style="fill:#0000ff;stroke:#0000ff;" x="270.403143" xlink:href="#mf9e7e625a1" y="226.207117"/>
     <use style="fill:#0000ff;stroke:#0000ff;" x="186.209823" xlink:href="#mf9e7e625a1" y="153.327228"/>
     <use style="fill:#0000ff;stroke:#0000ff;" x="354.596464" xlink:href="#mf9e7e625a1" y="80.447338"/>
     <use style="fill:#0000ff;stroke:#0000ff;" x="80.968173" xlink:href="#mf9e7e625a1" y="201.913821"/>
     <use style="fill:#0000ff;stroke:#0000ff;" x="249.354813" xlink:href="#mf9e7e625a1" y="129.033931"/>
     <use style="fill:#0000ff;stroke:#0000ff;" x="165.161493" xlink:href="#mf9e7e625a1" y="56.154041"/>
     <use style="fill:#0000ff;stroke:#0000ff;" x="333.548134" xlink:href="#mf9e7e625a1" y="242.402648"/>
     <use style="fill:#0000ff;stroke:#0000ff;" x="123.064833" xlink:href="#mf9e7e625a1" y="169.522759"/>
     <use style="fill:#0000ff;stroke:#0000ff;" x="291.451473" xlink:href="#mf9e7e625a1" y="96.642869"/>
     <use style="fill:#0000ff;stroke:#0000ff;" x="207.258153" xlink:href="#mf9e7e625a1" y="218.109352"/>
     <use style="fill:#0000ff;stroke:#0000ff;" x="375.644794" xlink:href="#mf9e7e625a1" y="145.229462"/>
     <use style="fill:#0000ff;stroke:#0000ff;" x="70.444008" xlink:href="#mf9e7e625a1" y="72.349572"/>
     <use style="fill:#0000ff;stroke:#0000ff;" x="238.830648" xlink:href="#mf9e7e625a1" y="193.816055"/>
     <use style="fill:#0000ff;stroke:#0000ff;" x="154.637328" xlink:href="#mf9e7e625a1" y="120.936166"/>
     <use style="fill:#0000ff;stroke:#0000ff;" x="323.023969" xlink:href="#mf9e7e625a1" y="48.056276"/>
     <use style="fill:#0000ff;stroke:#0000ff;" x="112.540668" xlink:href="#mf9e7e625a1" y="234.304883"/>
     <use style="fill:#0000ff;stroke:#0000ff;" x="280.927308" xlink:href="#mf9e7e625a1" y="161.424993"/>
     <use style="fill:#0000ff;stroke:#0000ff;" x="196.733988" xlink:href="#mf9e7e625a1" y="88.545103"/>
     <use style="fill:#0000ff;stroke:#0000ff;" x="365.120629" xlink:href="#mf9e7e625a1" y="210.011586"/>
     <use style="fill:#0000ff;stroke:#0000ff;" x="91.492338" xlink:href="#mf9e7e625a1" y="137.131697"/>
     <use style="fill:#0000ff;stroke:#0000ff;" x="259.878978" xlink:href="#mf9e7e625a1" y="64.251807"/>
     <use style="fill:#0000ff;stroke:#0000ff;" x="175.685658" xlink:href="#mf9e7e625a1" y="185.71829"/>
     <use style="fill:#0000ff;stroke:#0000ff;" x="344.072299" xlink:href="#mf9e7e625a1" y="112.8384"/>
     <use style="fill:#0000ff;stroke:#0000ff;" x="133.588998" xlink:href="#mf9e7e625a1" y="39.95851"/>
     <use style="fill:#0000ff;stroke:#0000ff;" x="301.975639" xlink:href="#mf9e7e625a1" y="247.801159"/>
     <use style="fill:#0000ff;stroke:#0000ff;" x="217.782318" xlink:href="#mf9e7e625a1" y="174.921269"/>
     <use style="fill:#0000ff;stroke:#0000ff;" x="386.168959" xlink:href="#mf9e7e625a1" y="102.041379"/>
     <use style="fill:#0000ff;stroke:#0000ff;" x="57.288802" xlink:href="#mf9e7e625a1" y="223.507862"/>
     <use style="fill:#0000ff;stroke:#0000ff;" x="225.675442" xlink:href="#mf9e7e625a1" y="150.627972"/>
     <use style="fill:#0000ff;stroke:#0000ff;" x="141.482122" xlink:href="#mf9e7e625a1" y="77.748083"/>
     <use style="fill:#0000ff;stroke:#0000ff;" x="309.868762" xlink:href="#mf9e7e625a1" y="199.214566"/>
     <use style="fill:#0000ff;stroke:#0000ff;" x="99.385462" xlink:href="#mf9e7e625a1" y="126.334676"/>
     <use style="fill:#0000ff;stroke:#0000ff;" x="267.772102" xlink:href="#mf9e7e625a1" y="53.454786"/>
     <use style="fill:#0000ff;stroke:#0000ff;" x="183.578782" xlink:href="#mf9e7e625a1" y="239.703393"/>
     <use style="fill:#0000ff;stroke:#0000ff;" x="351.965422" xlink:href="#mf9e7e625a1" y="166.823503"/>
     <use style="fill:#0000ff;stroke:#0000ff;" x="78.337132" xlink:href="#mf9e7e625a1" y="93.943614"/>
     <use style="fill:#0000ff;stroke:#0000ff;" x="246.723772" xlink:href="#mf9e7e625a1" y="215.410097"/>
     <use style="fill:#0000ff;stroke:#0000ff;" x="162.530452" xlink:href="#mf9e7e625a1" y="142.530207"/>
     <use style="fill:#0000ff;stroke:#0000ff;" x="330.917092" xlink:href="#mf9e7e625a1" y="69.650317"/>
     <use style="fill:#0000ff;stroke:#0000ff;" x="120.433792" xlink:href="#mf9e7e625a1" y="191.1168"/>
     <use style="fill:#0000ff;stroke:#0000ff;" x="288.820432" xlink:href="#mf9e7e625a1" y="118.23691"/>
     <use style="fill:#0000ff;stroke:#0000ff;" x="204.627112" xlink:href="#mf9e7e625a1" y="45.357021"/>
     <use style="fill:#0000ff;stroke:#0000ff;" x="373.013752" xlink:href="#mf9e7e625a1" y="231.605628"/>
     <use style="fill:#0000ff;stroke:#0000ff;" x="67.812967" xlink:href="#mf9e7e625a1" y="158.725738"/>
     <use style="fill:#0000ff;stroke:#0000ff;" x="236.199607" xlink:href="#mf9e7e625a1" y="85.845848"/>
     <use style="fill:#0000ff;stroke:#0000ff;" x="152.006287" xlink:href="#mf9e7e625a1" y="207.312331"/>
     <use style="fill:#0000ff;stroke:#0000ff;" x="320.392927" xlink:href="#mf9e7e625a1" y="134.432441"/>
     <use style="fill:#0000ff;stroke:#0000ff;" x="109.909627" xlink:href="#mf9e7e625a1" y="61.552552"/>
     <use style="fill:#0000ff;stroke:#0000ff;" x="278.296267" xlink:href="#mf9e7e625a1" y="183.019034"/>
     <use style="fill:#0000ff;stroke:#0000ff;" x="194.102947" xlink:href="#mf9e7e625a1" y="110.139145"/>
     <use style="fill:#0000ff;stroke:#0000ff;" x="362.489587" xlink:href="#mf9e7e625a1" y="37.259255"/>
     <use style="fill:#0000ff;stroke:#0000ff;" x="88.861297" xlink:href="#mf9e7e625a1" y="245.101903"/>
     <use style="fill:#0000ff;stroke:#0000ff;" x="257.247937" xlink:href="#mf9e7e625a1" y="172.222014"/>
     <use style="fill:#0000ff;stroke:#0000ff;" x="173.054617" xlink:href="#mf9e7e625a1" y="99.342124"/>
     <use style="fill:#0000ff;stroke:#0000ff;" x="341.441257" xlink:href="#mf9e7e625a1" y="220.808607"/>
     <use style="fill:#0000ff;stroke:#0000ff;" x="130.957957" xlink:href="#mf9e7e625a1" y="147.928717"/>
     <use style="fill:#0000ff;stroke:#0000ff;" x="299.344597" xlink:href="#mf9e7e625a1" y="75.048828"/>
     <use style="fill:#0000ff;stroke:#0000ff;" x="215.151277" xlink:href="#mf9e7e625a1" y="196.51531"/>
     <use style="fill:#0000ff;stroke:#0000ff;" x="383.537917" xlink:href="#mf9e7e625a1" y="123.635421"/>
     <use style="fill:#0000ff;stroke:#0000ff;" x="62.550884" xlink:href="#mf9e7e625a1" y="50.755531"/>
     <use style="fill:#0000ff;stroke:#0000ff;" x="230.937525" xlink:href="#mf9e7e625a1" y="237.004138"/>
     <use style="fill:#0000ff;stroke:#0000ff;" x="146.744204" xlink:href="#mf9e7e625a1" y="164.124248"/>
     <use style="fill:#0000ff;stroke:#0000ff;" x="315.130845" xlink:href="#mf9e7e625a1" y="91.244359"/>
     <use style="fill:#0000ff;stroke:#0000ff;" x="104.647544" xlink:href="#mf9e7e625a1" y="212.710841"/>
     <use style="fill:#0000ff;stroke:#0000ff;" x="273.034185" xlink:href="#mf9e7e625a1" y="139.830952"/>
     <use style="fill:#0000ff;stroke:#0000ff;" x="188.840864" xlink:href="#mf9e7e625a1" y="66.951062"/>
     <use style="fill:#0000ff;stroke:#0000ff;" x="357.227505" xlink:href="#mf9e7e625a1" y="188.417545"/>
     <use style="fill:#0000ff;stroke:#0000ff;" x="83.599214" xlink:href="#mf9e7e625a1" y="115.537655"/>
     <use style="fill:#0000ff;stroke:#0000ff;" x="251.985855" xlink:href="#mf9e7e625a1" y="42.657766"/>
     <use style="fill:#0000ff;stroke:#0000ff;" x="167.792534" xlink:href="#mf9e7e625a1" y="228.906372"/>
     <use style="fill:#0000ff;stroke:#0000ff;" x="336.179175" xlink:href="#mf9e7e625a1" y="156.026483"/>
     <use style="fill:#0000ff;stroke:#0000ff;" x="125.695874" xlink:href="#mf9e7e625a1" y="83.146593"/>
     <use style="fill:#0000ff;stroke:#0000ff;" x="294.082515" xlink:href="#mf9e7e625a1" y="204.613076"/>
     <use style="fill:#0000ff;stroke:#0000ff;" x="209.889194" xlink:href="#mf9e7e625a1" y="131.733186"/>
     <use style="fill:#0000ff;stroke:#0000ff;" x="378.275835" xlink:href="#mf9e7e625a1" y="58.853297"/>
     <use style="fill:#0000ff;stroke:#0000ff;" x="73.075049" xlink:href="#mf9e7e625a1" y="180.319779"/>
     <use style="fill:#0000ff;stroke:#0000ff;" x="241.46169" xlink:href="#mf9e7e625a1" y="107.43989"/>
     <use style="fill:#0000ff;stroke:#0000ff;" x="157.268369" xlink:href="#mf9e7e625a1" y="34.56"/>
     <use style="fill:#0000ff;stroke:#0000ff;" x="325.65501" xlink:href="#mf9e7e625a1" y="252"/>
     <use style="fill:#0000ff;stroke:#0000ff;" x="115.171709" xlink:href="#mf9e7e625a1" y="179.12011"/>
     <use style="fill:#0000ff;stroke:#0000ff;" x="283.55835" xlink:href="#mf9e7e625a1" y="106.240221"/>
     <use style="fill:#0000ff;stroke:#0000ff;" x="199.365029" xlink:href="#mf9e7e625a1" y="227.706703"/>
     <use style="fill:#0000ff;stroke:#0000ff;" x="367.75167" xlink:href="#mf9e7e625a1" y="154.826814"/>
     <use style="fill:#0000ff;stroke:#0000ff;" x="94.123379" xlink:href="#mf9e7e625a1" y="81.946924"/>
     <use style="fill:#0000ff;stroke:#0000ff;" x="262.51002" xlink:href="#mf9e7e625a1" y="203.413407"/>
     <use style="fill:#0000ff;stroke:#0000ff;" x="178.316699" xlink:href="#mf9e7e625a1" y="130.533517"/>
     <use style="fill:#0000ff;stroke:#0000ff;" x="346.70334" xlink:href="#mf9e7e625a1" y="57.653628"/>
     <use style="fill:#0000ff;stroke:#0000ff;" x="136.220039" xlink:href="#mf9e7e625a1" y="243.902234"/>
     <use style="fill:#0000ff;stroke:#0000ff;" x="304.60668" xlink:href="#mf9e7e625a1" y="171.022345"/>
     <use style="fill:#0000ff;stroke:#0000ff;" x="220.41336" xlink:href="#mf9e7e625a1" y="98.142455"/>
     <use style="fill:#0000ff;stroke:#0000ff;" x="388.8" xlink:href="#mf9e7e625a1" y="219.608938"/>
     <use style="fill:#0000ff;stroke:#0000ff;" x="54" xlink:href="#mf9e7e625a1" y="146.729048"/>
     <use style="fill:#0000ff;stroke:#0000ff;" x="222.38664" xlink:href="#mf9e7e625a1" y="73.849159"/>
     <use style="fill:#0000ff;stroke:#0000ff;" x="138.19332" xlink:href="#mf9e7e625a1" y="195.315641"/>
     <use style="fill:#0000ff;stroke:#0000ff;" x="306.579961" xlink:href="#mf9e7e625a1" y="122.435752"/>
     <use style="fill:#0000ff;stroke:#0000ff;" x="96.09666" xlink:href="#mf9e7e625a1" y="49.555862"/>
     <use style="fill:#0000ff;stroke:#0000ff;" x="264.483301" xlink:href="#mf9e7e625a1" y="235.804469"/>
     <use style="fill:#0000ff;stroke:#0000ff;" x="180.28998" xlink:href="#mf9e7e625a1" y="162.924579"/>
     <use style="fill:#0000ff;stroke:#0000ff;" x="348.676621" xlink:href="#mf9e7e625a1" y="90.04469"/>
     <use style="fill:#0000ff;stroke:#0000ff;" x="75.04833" xlink:href="#mf9e7e625a1" y="211.511172"/>
     <use style="fill:#0000ff;stroke:#0000ff;" x="243.434971" xlink:href="#mf9e7e625a1" y="138.631283"/>
     <use style="fill:#0000ff;stroke:#0000ff;" x="159.24165" xlink:href="#mf9e7e625a1" y="65.751393"/>
     <use style="fill:#0000ff;stroke:#0000ff;" x="327.628291" xlink:href="#mf9e7e625a1" y="187.217876"/>
     <use style="fill:#0000ff;stroke:#0000ff;" x="117.14499" xlink:href="#mf9e7e625a1" y="114.337986"/>
     <use style="fill:#0000ff;stroke:#0000ff;" x="285.531631" xlink:href="#mf9e7e625a1" y="41.458097"/>
     <use style="fill:#0000ff;stroke:#0000ff;" x="201.33831" xlink:href="#mf9e7e625a1" y="249.300745"/>
     <use style="fill:#0000ff;stroke:#0000ff;" x="369.724951" xlink:href="#mf9e7e625a1" y="176.420855"/>
     <use style="fill:#0000ff;stroke:#0000ff;" x="64.524165" xlink:href="#mf9e7e625a1" y="103.540966"/>
     <use style="fill:#0000ff;stroke:#0000ff;" x="232.910806" xlink:href="#mf9e7e625a1" y="225.007448"/>
     <use style="fill:#0000ff;stroke:#0000ff;" x="148.717485" xlink:href="#mf9e7e625a1" y="152.127559"/>
     <use style="fill:#0000ff;stroke:#0000ff;" x="317.104126" xlink:href="#mf9e7e625a1" y="79.247669"/>
     <use style="fill:#0000ff;stroke:#0000ff;" x="106.620825" xlink:href="#mf9e7e625a1" y="200.714152"/>
     <use style="fill:#0000ff;stroke:#0000ff;" x="275.007466" xlink:href="#mf9e7e625a1" y="127.834262"/>
     <use style="fill:#0000ff;stroke:#0000ff;" x="190.814145" xlink:href="#mf9e7e625a1" y="54.954372"/>
     <use style="fill:#0000ff;stroke:#0000ff;" x="359.200786" xlink:href="#mf9e7e625a1" y="241.202979"/>
     <use style="fill:#0000ff;stroke:#0000ff;" x="85.572495" xlink:href="#mf9e7e625a1" y="168.32309"/>
     <use style="fill:#0000ff;stroke:#0000ff;" x="253.959136" xlink:href="#mf9e7e625a1" y="95.4432"/>
     <use style="fill:#0000ff;stroke:#0000ff;" x="169.765815" xlink:href="#mf9e7e625a1" y="216.909683"/>
     <use style="fill:#0000ff;stroke:#0000ff;" x="338.152456" xlink:href="#mf9e7e625a1" y="144.029793"/>
     <use style="fill:#0000ff;stroke:#0000ff;" x="127.669155" xlink:href="#mf9e7e625a1" y="71.149903"/>
     <use style="fill:#0000ff;stroke:#0000ff;" x="296.055796" xlink:href="#mf9e7e625a1" y="192.616386"/>
     <use style="fill:#0000ff;stroke:#0000ff;" x="211.862475" xlink:href="#mf9e7e625a1" y="119.736497"/>
     <use style="fill:#0000ff;stroke:#0000ff;" x="380.249116" xlink:href="#mf9e7e625a1" y="46.856607"/>
     <use style="fill:#0000ff;stroke:#0000ff;" x="59.262083" xlink:href="#mf9e7e625a1" y="233.105214"/>
     <use style="fill:#0000ff;stroke:#0000ff;" x="227.648723" xlink:href="#mf9e7e625a1" y="160.225324"/>
     <use style="fill:#0000ff;stroke:#0000ff;" x="143.455403" xlink:href="#mf9e7e625a1" y="87.345434"/>
     <use style="fill:#0000ff;stroke:#0000ff;" x="311.842043" xlink:href="#mf9e7e625a1" y="208.811917"/>
     <use style="fill:#0000ff;stroke:#0000ff;" x="101.358743" xlink:href="#mf9e7e625a1" y="135.932028"/>
     <use style="fill:#0000ff;stroke:#0000ff;" x="269.745383" xlink:href="#mf9e7e625a1" y="63.052138"/>
     <use style="fill:#0000ff;stroke:#0000ff;" x="185.552063" xlink:href="#mf9e7e625a1" y="184.518621"/>
     <use style="fill:#0000ff;stroke:#0000ff;" x="353.938703" xlink:href="#mf9e7e625a1" y="111.638731"/>
     <use style="fill:#0000ff;stroke:#0000ff;" x="80.310413" xlink:href="#mf9e7e625a1" y="38.758841"/>
     <use style="fill:#0000ff;stroke:#0000ff;" x="248.697053" xlink:href="#mf9e7e625a1" y="246.60149"/>
     <use style="fill:#0000ff;stroke:#0000ff;" x="164.503733" xlink:href="#mf9e7e625a1" y="173.7216"/>
     <use style="fill:#0000ff;stroke:#0000ff;" x="332.890373" xlink:href="#mf9e7e625a1" y="100.84171"/>
     <use style="fill:#0000ff;stroke:#0000ff;" x="122.407073" xlink:href="#mf9e7e625a1" y="222.308193"/>
    </g>
   </g>
   <g id="patch_3">
    <path d="M 54 252 
L 54 34.56 
" style="fill:none;stroke:#000000;stroke-linecap:square;stroke-linejoin:miter;stroke-width:0.8;"/>
   </g>
   <g id="patch_4">
    <path d="M 388.8 252 
L 388.8 34.56 
" style="fill:none;stroke:#000000;stroke-linecap:square;stroke-linejoin:miter;stroke-width:0.8;"/>
   </g>
   <g id="patch_5">
    <path d="M 54 252 
L 388.8 252 
" style="fill:none;stroke:#000000;stroke-linecap:square;stroke-linejoin:miter;stroke-width:0.8;"/>
   </g>
   <g id="patch_6">
    <path d="M 54 34.56 
L 388.8 34.56 
" style="fill:none;stroke:#000000;stroke-linecap:square;stroke-linejoin:miter;stroke-width:0.8;"/>
   </g>
   <g id="text_10">
    <!-- Halton -->
    <defs>
     <path d="M 9.8125 72.90625 
L 19.671875 72.90625 
L 19.671875 43.015625 
L 55.515625 43.015625 
L 55.515625 72.90625 
L 65.375 72.90625 
L 65.375 0 
L 55.515625 0 
L 55.515625 34.71875 
L 19.671875 34.71875 
L 19.671875 0 
L 9.8125 0 
z
" id="DejaVuSans-48"/>
     <path d="M 34.28125 27.484375 
Q 23.390625 27.484375 19.1875 25 
Q 14.984375 22.515625 14.984375 16.5 
Q 14.984375 11.71875 18.140625 8.90625 
Q 21.296875 6.109375 26.703125 6.109375 
Q 34.1875 6.109375 38.703125 11.40625 
Q 43.21875 16.703125 43.21875 25.484375 
L 43.21875 27.484375 
z
M 52.203125 31.203125 
L 52.203125 0 
L 43.21875 0 
L 43.21875 8.296875 
Q 40.140625 3.328125 35.546875 0.953125 
Q 30.953125 -1.421875 24.3125 -1.421875 
Q 15.921875 -1.421875 10.953125 3.296875 
Q 6 8.015625 6 15.921875 
Q 6 25.140625 12.171875 29.828125 
Q 18.359375 34.515625 30.609375 34.515625 
L 43.21875 34.515625 
L 43.21875 35.40625 
Q 43.21875 41.609375 39.140625 45 
Q 35.0625 48.390625 27.6875 48.390625 
Q 23 48.390625 18.546875 47.265625 
Q 14.109375 46.140625 10.015625 43.890625 
L 10.015625 52.203125 
Q 14.9375 54.109375 19.578125 55.046875 
Q 24.21875 56 28.609375 56 
Q 40.484375 56 46.34375 49.84375 
Q 52.203125 43.703125 52.203125 31.203125 
z
" id="DejaVuSans-61"/>
     <path d="M 9.421875 75.984375 
L 18.40625 75.984375 
L 18.40625 0 
L 9.421875 0 
z
" id="DejaVuSans-6c"/>
     <path d="M 18.3125 70.21875 
L 18.3125 54.6875 
L 36.8125 54.6875 
L 36.8125 47.703125 
L 18.3125 47.703125 
L 18.3125 18.015625 
Q 18.3125 11.328125 20.140625 9.421875 
Q 21.96875 7.515625 27.59375 7.515625 
L 36.8125 7.515625 
L 36.8125 0 
L 27.59375 0 
Q 17.1875 0 13.234375 3.875 
Q 9.28125 7.765625 9.28125 18.015625 
L 9.28125 47.703125 
L 2.6875 47.703125 
L 2.6875 54.6875 
L 9.28125 54.6875 
L 9.28125 70.21875 
z
" id="DejaVuSans-74"/>
     <path d="M 30.609375 48.390625 
Q 23.390625 48.390625 19.1875 42.75 
Q 14.984375 37.109375 14.984375 27.296875 
Q 14.984375 17.484375 19.15625 11.84375 
Q 23.34375 6.203125 30.609375 6.203125 
Q 37.796875 6.203125 41.984375 11.859375 
Q 46.1875 17.53125 46.1875 27.296875 
Q 46.1875 37.015625 41.984375 42.703125 
Q 37.796875 48.390625 30.609375 48.390625 
z
M 30.609375 56 
Q 42.328125 56 49.015625 48.375 
Q 55.71875 40.765625 55.71875 27.296875 
Q 55.71875 13.875 49.015625 6.21875 
Q 42.328125 -1.421875 30.609375 -1.421875 
Q 18.84375 -1.421875 12.171875 6.21875 
Q 5.515625 13.875 5.515625 27.296875 
Q 5.515625 40.765625 12.171875 48.375 
Q 18.84375 56 30.609375 56 
z
" id="DejaVuSans-6f"/>
     <path d="M 54.890625 33.015625 
L 54.890625 0 
L 45.90625 0 
L 45.90625 32.71875 
Q 45.90625 40.484375 42.875 44.328125 
Q 39.84375 48.1875 33.796875 48.1875 
Q 26.515625 48.1875 22.3125 43.546875 
Q 18.109375 38.921875 18.109375 30.90625 
L 18.109375 0 
L 9.078125 0 
L 9.078125 54.6875 
L 18.109375 54.6875 
L 18.109375 46.1875 
Q 21.34375 51.125 25.703125 53.5625 
Q 30.078125 56 35.796875 56 
Q 45.21875 56 50.046875 50.171875 
Q 54.890625 44.34375 54.890625 33.015625 
z
" id="DejaVuSans-6e"/>
    </defs>
    <g transform="translate(201.718125 28.56)scale(0.12 -0.12)">
     <use xlink:href="#DejaVuSans-48"/>
     <use x="75.195312" xlink:href="#DejaVuSans-61"/>
     <use x="136.474609" xlink:href="#DejaVuSans-6c"/>
     <use x="164.257812" xlink:href="#DejaVuSans-74"/>
     <use x="203.466797" xlink:href="#DejaVuSans-6f"/>
     <use x="264.648438" xlink:href="#DejaVuSans-6e"/>
    </g>
   </g>
  </g>
 </g>
 <defs>
  <clipPath id="p82d7c16860">
   <rect height="217.44" width="334.8" x="54" y="34.56"/>
  </clipPath>
 </defs>
</svg>
