<?xml version="1.0" encoding="utf-8" standalone="no"?>
<!DOCTYPE svg PUBLIC "-//W3C//DTD SVG 1.1//EN"
  "http://www.w3.org/Graphics/SVG/1.1/DTD/svg11.dtd">
<!-- Created with matplotlib (http://matplotlib.org/) -->
<svg height="288pt" version="1.1" viewBox="0 0 432 288" width="432pt" xmlns="http://www.w3.org/2000/svg" xmlns:xlink="http://www.w3.org/1999/xlink">
 <defs>
  <style type="text/css">
*{stroke-linecap:butt;stroke-linejoin:round;}
  </style>
 </defs>
 <g id="figure_1">
  <g id="patch_1">
   <path d="M 0 288 
L 432 288 
L 432 0 
L 0 0 
z
" style="fill:#ffffff;"/>
  </g>
  <g id="axes_1">
   <g id="patch_2">
    <path d="M 54 252 
L 388.8 252 
L 388.8 34.56 
L 54 34.56 
z
" style="fill:#ffffff;"/>
   </g>
   <g id="matplotlib.axis_1">
    <g id="xtick_1">
     <g id="line2d_1">
      <path clip-path="url(#p92fa197b8e)" d="M 54 252 
L 54 34.56 
" style="fill:none;stroke:#b0b0b0;stroke-linecap:square;stroke-width:0.8;"/>
     </g>
     <g id="line2d_2">
      <defs>
       <path d="M 0 0 
L 0 3.5 
" id="mc249b8efa9" style="stroke:#000000;stroke-width:0.8;"/>
      </defs>
      <g>
       <use style="stroke:#000000;stroke-width:0.8;" x="54" xlink:href="#mc249b8efa9" y="252"/>
      </g>
     </g>
     <g id="text_1">
      <!-- −1.5 -->
      <defs>
       <path d="M 10.59375 35.5 
L 73.1875 35.5 
L 73.1875 27.203125 
L 10.59375 27.203125 
z
" id="DejaVuSans-2212"/>
       <path d="M 12.40625 8.296875 
L 28.515625 8.296875 
L 28.515625 63.921875 
L 10.984375 60.40625 
L 10.984375 69.390625 
L 28.421875 72.90625 
L 38.28125 72.90625 
L 38.28125 8.296875 
L 54.390625 8.296875 
L 54.390625 0 
L 12.40625 0 
z
" id="DejaVuSans-31"/>
       <path d="M 10.6875 12.40625 
L 21 12.40625 
L 21 0 
L 10.6875 0 
z
" id="DejaVuSans-2e"/>
       <path d="M 10.796875 72.90625 
L 49.515625 72.90625 
L 49.515625 64.59375 
L 19.828125 64.59375 
L 19.828125 46.734375 
Q 21.96875 47.46875 24.109375 47.828125 
Q 26.265625 48.1875 28.421875 48.1875 
Q 40.625 48.1875 47.75 41.5 
Q 54.890625 34.8125 54.890625 23.390625 
Q 54.890625 11.625 47.5625 5.09375 
Q 40.234375 -1.421875 26.90625 -1.421875 
Q 22.3125 -1.421875 17.546875 -0.640625 
Q 12.796875 0.140625 7.71875 1.703125 
L 7.71875 11.625 
Q 12.109375 9.234375 16.796875 8.0625 
Q 21.484375 6.890625 26.703125 6.890625 
Q 35.15625 6.890625 40.078125 11.328125 
Q 45.015625 15.765625 45.015625 23.390625 
Q 45.015625 31 40.078125 35.4375 
Q 35.15625 39.890625 26.703125 39.890625 
Q 22.75 39.890625 18.8125 39.015625 
Q 14.890625 38.140625 10.796875 36.28125 
z
" id="DejaVuSans-35"/>
      </defs>
      <g transform="translate(41.858594 266.598437)scale(0.1 -0.1)">
       <use xlink:href="#DejaVuSans-2212"/>
       <use x="83.789062" xlink:href="#DejaVuSans-31"/>
       <use x="147.412109" xlink:href="#DejaVuSans-2e"/>
       <use x="179.199219" xlink:href="#DejaVuSans-35"/>
      </g>
     </g>
    </g>
    <g id="xtick_2">
     <g id="line2d_3">
      <path clip-path="url(#p92fa197b8e)" d="M 109.8 252 
L 109.8 34.56 
" style="fill:none;stroke:#b0b0b0;stroke-linecap:square;stroke-width:0.8;"/>
     </g>
     <g id="line2d_4">
      <g>
       <use style="stroke:#000000;stroke-width:0.8;" x="109.8" xlink:href="#mc249b8efa9" y="252"/>
      </g>
     </g>
     <g id="text_2">
      <!-- −1.0 -->
      <defs>
       <path d="M 31.78125 66.40625 
Q 24.171875 66.40625 20.328125 58.90625 
Q 16.5 51.421875 16.5 36.375 
Q 16.5 21.390625 20.328125 13.890625 
Q 24.171875 6.390625 31.78125 6.390625 
Q 39.453125 6.390625 43.28125 13.890625 
Q 47.125 21.390625 47.125 36.375 
Q 47.125 51.421875 43.28125 58.90625 
Q 39.453125 66.40625 31.78125 66.40625 
z
M 31.78125 74.21875 
Q 44.046875 74.21875 50.515625 64.515625 
Q 56.984375 54.828125 56.984375 36.375 
Q 56.984375 17.96875 50.515625 8.265625 
Q 44.046875 -1.421875 31.78125 -1.421875 
Q 19.53125 -1.421875 13.0625 8.265625 
Q 6.59375 17.96875 6.59375 36.375 
Q 6.59375 54.828125 13.0625 64.515625 
Q 19.53125 74.21875 31.78125 74.21875 
z
" id="DejaVuSans-30"/>
      </defs>
      <g transform="translate(97.658594 266.598437)scale(0.1 -0.1)">
       <use xlink:href="#DejaVuSans-2212"/>
       <use x="83.789062" xlink:href="#DejaVuSans-31"/>
       <use x="147.412109" xlink:href="#DejaVuSans-2e"/>
       <use x="179.199219" xlink:href="#DejaVuSans-30"/>
      </g>
     </g>
    </g>
    <g id="xtick_3">
     <g id="line2d_5">
      <path clip-path="url(#p92fa197b8e)" d="M 165.6 252 
L 165.6 34.56 
" style="fill:none;stroke:#b0b0b0;stroke-linecap:square;stroke-width:0.8;"/>
     </g>
     <g id="line2d_6">
      <g>
       <use style="stroke:#000000;stroke-width:0.8;" x="165.6" xlink:href="#mc249b8efa9" y="252"/>
      </g>
     </g>
     <g id="text_3">
      <!-- −0.5 -->
      <g transform="translate(153.458594 266.598437)scale(0.1 -0.1)">
       <use xlink:href="#DejaVuSans-2212"/>
       <use x="83.789062" xlink:href="#DejaVuSans-30"/>
       <use x="147.412109" xlink:href="#DejaVuSans-2e"/>
       <use x="179.199219" xlink:href="#DejaVuSans-35"/>
      </g>
     </g>
    </g>
    <g id="xtick_4">
     <g id="line2d_7">
      <path clip-path="url(#p92fa197b8e)" d="M 221.4 252 
L 221.4 34.56 
" style="fill:none;stroke:#b0b0b0;stroke-linecap:square;stroke-width:0.8;"/>
     </g>
     <g id="line2d_8">
      <g>
       <use style="stroke:#000000;stroke-width:0.8;" x="221.4" xlink:href="#mc249b8efa9" y="252"/>
      </g>
     </g>
     <g id="text_4">
      <!-- 0.0 -->
      <g transform="translate(213.448438 266.598437)scale(0.1 -0.1)">
       <use xlink:href="#DejaVuSans-30"/>
       <use x="63.623047" xlink:href="#DejaVuSans-2e"/>
       <use x="95.410156" xlink:href="#DejaVuSans-30"/>
      </g>
     </g>
    </g>
    <g id="xtick_5">
     <g id="line2d_9">
      <path clip-path="url(#p92fa197b8e)" d="M 277.2 252 
L 277.2 34.56 
" style="fill:none;stroke:#b0b0b0;stroke-linecap:square;stroke-width:0.8;"/>
     </g>
     <g id="line2d_10">
      <g>
       <use style="stroke:#000000;stroke-width:0.8;" x="277.2" xlink:href="#mc249b8efa9" y="252"/>
      </g>
     </g>
     <g id="text_5">
      <!-- 0.5 -->
      <g transform="translate(269.248437 266.598437)scale(0.1 -0.1)">
       <use xlink:href="#DejaVuSans-30"/>
       <use x="63.623047" xlink:href="#DejaVuSans-2e"/>
       <use x="95.410156" xlink:href="#DejaVuSans-35"/>
      </g>
     </g>
    </g>
    <g id="xtick_6">
     <g id="line2d_11">
      <path clip-path="url(#p92fa197b8e)" d="M 333 252 
L 333 34.56 
" style="fill:none;stroke:#b0b0b0;stroke-linecap:square;stroke-width:0.8;"/>
     </g>
     <g id="line2d_12">
      <g>
       <use style="stroke:#000000;stroke-width:0.8;" x="333" xlink:href="#mc249b8efa9" y="252"/>
      </g>
     </g>
     <g id="text_6">
      <!-- 1.0 -->
      <g transform="translate(325.048437 266.598437)scale(0.1 -0.1)">
       <use xlink:href="#DejaVuSans-31"/>
       <use x="63.623047" xlink:href="#DejaVuSans-2e"/>
       <use x="95.410156" xlink:href="#DejaVuSans-30"/>
      </g>
     </g>
    </g>
    <g id="xtick_7">
     <g id="line2d_13">
      <path clip-path="url(#p92fa197b8e)" d="M 388.8 252 
L 388.8 34.56 
" style="fill:none;stroke:#b0b0b0;stroke-linecap:square;stroke-width:0.8;"/>
     </g>
     <g id="line2d_14">
      <g>
       <use style="stroke:#000000;stroke-width:0.8;" x="388.8" xlink:href="#mc249b8efa9" y="252"/>
      </g>
     </g>
     <g id="text_7">
      <!-- 1.5 -->
      <g transform="translate(380.848437 266.598437)scale(0.1 -0.1)">
       <use xlink:href="#DejaVuSans-31"/>
       <use x="63.623047" xlink:href="#DejaVuSans-2e"/>
       <use x="95.410156" xlink:href="#DejaVuSans-35"/>
      </g>
     </g>
    </g>
    <g id="text_8">
     <!-- x -->
     <defs>
      <path d="M 54.890625 54.6875 
L 35.109375 28.078125 
L 55.90625 0 
L 45.3125 0 
L 29.390625 21.484375 
L 13.484375 0 
L 2.875 0 
L 24.125 28.609375 
L 4.6875 54.6875 
L 15.28125 54.6875 
L 29.78125 35.203125 
L 44.28125 54.6875 
z
" id="DejaVuSans-78"/>
     </defs>
     <g transform="translate(218.440625 280.276563)scale(0.1 -0.1)">
      <use xlink:href="#DejaVuSans-78"/>
     </g>
    </g>
   </g>
   <g id="matplotlib.axis_2">
    <g id="ytick_1">
     <g id="line2d_15">
      <path clip-path="url(#p92fa197b8e)" d="M 54 230.256 
L 388.8 230.256 
" style="fill:none;stroke:#b0b0b0;stroke-linecap:square;stroke-width:0.8;"/>
     </g>
     <g id="line2d_16">
      <defs>
       <path d="M 0 0 
L -3.5 0 
" id="m8e7ac95f26" style="stroke:#000000;stroke-width:0.8;"/>
      </defs>
      <g>
       <use style="stroke:#000000;stroke-width:0.8;" x="54" xlink:href="#m8e7ac95f26" y="230.256"/>
      </g>
     </g>
     <g id="text_9">
      <!-- −2 -->
      <defs>
       <path d="M 19.1875 8.296875 
L 53.609375 8.296875 
L 53.609375 0 
L 7.328125 0 
L 7.328125 8.296875 
Q 12.9375 14.109375 22.625 23.890625 
Q 32.328125 33.6875 34.8125 36.53125 
Q 39.546875 41.84375 41.421875 45.53125 
Q 43.3125 49.21875 43.3125 52.78125 
Q 43.3125 58.59375 39.234375 62.25 
Q 35.15625 65.921875 28.609375 65.921875 
Q 23.96875 65.921875 18.8125 64.3125 
Q 13.671875 62.703125 7.8125 59.421875 
L 7.8125 69.390625 
Q 13.765625 71.78125 18.9375 73 
Q 24.125 74.21875 28.421875 74.21875 
Q 39.75 74.21875 46.484375 68.546875 
Q 53.21875 62.890625 53.21875 53.421875 
Q 53.21875 48.921875 51.53125 44.890625 
Q 49.859375 40.875 45.40625 35.40625 
Q 44.1875 33.984375 37.640625 27.21875 
Q 31.109375 20.453125 19.1875 8.296875 
z
" id="DejaVuSans-32"/>
      </defs>
      <g transform="translate(32.257812 234.055219)scale(0.1 -0.1)">
       <use xlink:href="#DejaVuSans-2212"/>
       <use x="83.789062" xlink:href="#DejaVuSans-32"/>
      </g>
     </g>
    </g>
    <g id="ytick_2">
     <g id="line2d_17">
      <path clip-path="url(#p92fa197b8e)" d="M 54 186.768 
L 388.8 186.768 
" style="fill:none;stroke:#b0b0b0;stroke-linecap:square;stroke-width:0.8;"/>
     </g>
     <g id="line2d_18">
      <g>
       <use style="stroke:#000000;stroke-width:0.8;" x="54" xlink:href="#m8e7ac95f26" y="186.768"/>
      </g>
     </g>
     <g id="text_10">
      <!-- −1 -->
      <g transform="translate(32.257812 190.567219)scale(0.1 -0.1)">
       <use xlink:href="#DejaVuSans-2212"/>
       <use x="83.789062" xlink:href="#DejaVuSans-31"/>
      </g>
     </g>
    </g>
    <g id="ytick_3">
     <g id="line2d_19">
      <path clip-path="url(#p92fa197b8e)" d="M 54 143.28 
L 388.8 143.28 
" style="fill:none;stroke:#b0b0b0;stroke-linecap:square;stroke-width:0.8;"/>
     </g>
     <g id="line2d_20">
      <g>
       <use style="stroke:#000000;stroke-width:0.8;" x="54" xlink:href="#m8e7ac95f26" y="143.28"/>
      </g>
     </g>
     <g id="text_11">
      <!-- 0 -->
      <g transform="translate(40.6375 147.079219)scale(0.1 -0.1)">
       <use xlink:href="#DejaVuSans-30"/>
      </g>
     </g>
    </g>
    <g id="ytick_4">
     <g id="line2d_21">
      <path clip-path="url(#p92fa197b8e)" d="M 54 99.792 
L 388.8 99.792 
" style="fill:none;stroke:#b0b0b0;stroke-linecap:square;stroke-width:0.8;"/>
     </g>
     <g id="line2d_22">
      <g>
       <use style="stroke:#000000;stroke-width:0.8;" x="54" xlink:href="#m8e7ac95f26" y="99.792"/>
      </g>
     </g>
     <g id="text_12">
      <!-- 1 -->
      <g transform="translate(40.6375 103.591219)scale(0.1 -0.1)">
       <use xlink:href="#DejaVuSans-31"/>
      </g>
     </g>
    </g>
    <g id="ytick_5">
     <g id="line2d_23">
      <path clip-path="url(#p92fa197b8e)" d="M 54 56.304 
L 388.8 56.304 
" style="fill:none;stroke:#b0b0b0;stroke-linecap:square;stroke-width:0.8;"/>
     </g>
     <g id="line2d_24">
      <g>
       <use style="stroke:#000000;stroke-width:0.8;" x="54" xlink:href="#m8e7ac95f26" y="56.304"/>
      </g>
     </g>
     <g id="text_13">
      <!-- 2 -->
      <g transform="translate(40.6375 60.103219)scale(0.1 -0.1)">
       <use xlink:href="#DejaVuSans-32"/>
      </g>
     </g>
    </g>
    <g id="text_14">
     <!-- y -->
     <defs>
      <path d="M 32.171875 -5.078125 
Q 28.375 -14.84375 24.75 -17.8125 
Q 21.140625 -20.796875 15.09375 -20.796875 
L 7.90625 -20.796875 
L 7.90625 -13.28125 
L 13.1875 -13.28125 
Q 16.890625 -13.28125 18.9375 -11.515625 
Q 21 -9.765625 23.484375 -3.21875 
L 25.09375 0.875 
L 2.984375 54.6875 
L 12.5 54.6875 
L 29.59375 11.921875 
L 46.6875 54.6875 
L 56.203125 54.6875 
z
" id="DejaVuSans-79"/>
     </defs>
     <g transform="translate(26.178125 146.239375)rotate(-90)scale(0.1 -0.1)">
      <use xlink:href="#DejaVuSans-79"/>
     </g>
    </g>
   </g>
   <g id="LineCollection_1">
    <path clip-path="url(#p92fa197b8e)" d="M 321.84 252 
L 321.84 252 
L 323.889796 249.8256 
L 325.188 248.492903 
L 326.025 247.6512 
L 328.251064 245.4768 
L 328.536 245.205 
L 330.573913 243.3024 
L 331.884 242.116364 
L 333 241.128 
L 335.232 239.209412 
L 335.536364 238.9536 
L 338.190698 236.7792 
L 338.58 236.468571 
L 340.971429 234.6048 
L 341.928 233.88 
L 343.887805 232.4304 
L 345.276 231.431351 
L 346.95 230.256 
L 348.624 229.111579 
L 350.169231 228.0816 
L 351.972 226.910769 
L 353.557895 225.9072 
L 355.32 224.82 
L 357.12973 223.7328 
L 358.668 222.83122 
L 360.9 221.5584 
L 362.016 220.937143 
L 364.885714 219.384 
L 365.364 219.131163 
L 368.712 217.407273 
L 369.105882 217.2096 
L 372.06 215.76 
L 373.581818 215.0352 
L 375.408 214.184348 
L 378.3375 212.8608 
L 378.756 212.675745 
L 382.104 211.23 
L 383.4 210.6864 
L 385.452 209.843265 
L 388.8 208.512 
" style="fill:none;stroke:#ff0000;stroke-width:1.5;"/>
    <path clip-path="url(#p92fa197b8e)" d="M 120.96 34.56 
L 118.910204 36.7344 
L 117.612 38.067097 
L 116.775 38.9088 
L 114.548936 41.0832 
L 114.264 41.355 
L 112.226087 43.2576 
L 110.916 44.443636 
L 109.8 45.432 
L 107.568 47.350588 
L 107.263636 47.6064 
L 104.609302 49.7808 
L 104.22 50.091429 
L 101.828571 51.9552 
L 100.872 52.68 
L 98.912195 54.1296 
L 97.524 55.128649 
L 95.85 56.304 
L 94.176 57.448421 
L 92.630769 58.4784 
L 90.828 59.649231 
L 89.242105 60.6528 
L 87.48 61.74 
L 85.67027 62.8272 
L 84.132 63.72878 
L 81.9 65.0016 
L 80.784 65.622857 
L 77.914286 67.176 
L 77.436 67.428837 
L 74.088 69.152727 
L 73.694118 69.3504 
L 70.74 70.8 
L 69.218182 71.5248 
L 67.392 72.375652 
L 64.4625 73.6992 
L 64.044 73.884255 
L 60.696 75.33 
L 59.4 75.8736 
L 57.348 76.716735 
L 54 78.048 
" style="fill:none;stroke:#ff0000;stroke-width:1.5;"/>
   </g>
   <g id="LineCollection_2">
    <path clip-path="url(#p92fa197b8e)" d="M 278.316 252 
L 279.477551 249.8256 
L 280.6875 247.6512 
L 281.664 245.96 
L 281.948936 245.4768 
L 283.265217 243.3024 
L 284.64 241.128 
L 285.012 240.555789 
L 286.077273 238.9536 
L 287.581395 236.7792 
L 288.36 235.692 
L 289.157143 234.6048 
L 290.809756 232.4304 
L 291.708 231.291429 
L 292.545 230.256 
L 294.369231 228.0816 
L 295.056 227.290909 
L 296.289474 225.9072 
L 298.313514 223.7328 
L 298.404 223.638261 
L 300.45 221.5584 
L 301.752 220.29 
L 302.708571 219.384 
L 305.1 217.2096 
L 305.1 217.2096 
L 307.636364 215.0352 
L 308.448 214.366154 
L 310.33125 212.8608 
L 311.796 211.733333 
L 313.2 210.6864 
L 315.144 209.288571 
L 316.26 208.512 
L 318.492 207.012414 
L 319.531034 206.3376 
L 321.84 204.888 
L 323.035714 204.1632 
L 325.188 202.900645 
L 326.8 201.9888 
L 328.536 201.0375 
L 330.853846 199.8144 
L 331.884 199.287273 
L 335.232 197.64 
L 335.232 197.64 
L 338.58 196.086857 
L 339.975 195.4656 
L 341.928 194.62 
L 345.130435 193.2912 
L 345.276 193.232432 
L 348.624 191.917895 
L 350.754545 191.1168 
L 351.972 190.670769 
L 355.32 189.486 
L 356.914286 188.9424 
L 358.668 188.359024 
L 362.016 187.285714 
L 363.69 186.768 
L 365.364 186.262326 
L 368.712 185.285455 
L 371.178947 184.5936 
L 372.06 184.352 
L 375.408 183.45913 
L 378.756 182.604255 
L 379.5 182.4192 
L 382.104 181.785 
L 385.452 180.999184 
L 388.8 180.2448 
" style="fill:none;stroke:#ff9900;stroke-width:1.5;"/>
    <path clip-path="url(#p92fa197b8e)" d="M 164.484 34.56 
L 163.322449 36.7344 
L 162.1125 38.9088 
L 161.136 40.6 
L 160.851064 41.0832 
L 159.534783 43.2576 
L 158.16 45.432 
L 157.788 46.004211 
L 156.722727 47.6064 
L 155.218605 49.7808 
L 154.44 50.868 
L 153.642857 51.9552 
L 151.990244 54.1296 
L 151.092 55.268571 
L 150.255 56.304 
L 148.430769 58.4784 
L 147.744 59.269091 
L 146.510526 60.6528 
L 144.486486 62.8272 
L 144.396 62.921739 
L 142.35 65.0016 
L 141.048 66.27 
L 140.091429 67.176 
L 137.7 69.3504 
L 137.7 69.3504 
L 135.163636 71.5248 
L 134.352 72.193846 
L 132.46875 73.6992 
L 131.004 74.826667 
L 129.6 75.8736 
L 127.656 77.271429 
L 126.54 78.048 
L 124.308 79.547586 
L 123.268966 80.2224 
L 120.96 81.672 
L 119.764286 82.3968 
L 117.612 83.659355 
L 116 84.5712 
L 114.264 85.5225 
L 111.946154 86.7456 
L 110.916 87.272727 
L 107.568 88.92 
L 107.568 88.92 
L 104.22 90.473143 
L 102.825 91.0944 
L 100.872 91.94 
L 97.669565 93.2688 
L 97.524 93.327568 
L 94.176 94.642105 
L 92.045455 95.4432 
L 90.828 95.889231 
L 87.48 97.074 
L 85.885714 97.6176 
L 84.132 98.200976 
L 80.784 99.274286 
L 79.11 99.792 
L 77.436 100.297674 
L 74.088 101.274545 
L 71.621053 101.9664 
L 70.74 102.208 
L 67.392 103.10087 
L 64.044 103.955745 
L 63.3 104.1408 
L 60.696 104.775 
L 57.348 105.560816 
L 54 106.3152 
" style="fill:none;stroke:#ff9900;stroke-width:1.5;"/>
   </g>
   <g id="LineCollection_3">
    <path clip-path="url(#p92fa197b8e)" d="M 253.27296 252 
L 253.923429 249.8256 
L 254.601 247.6512 
L 254.88 246.78144 
L 255.307404 245.4768 
L 256.044522 243.3024 
L 256.8144 241.128 
L 257.619273 238.9536 
L 258.228 237.372218 
L 258.461581 236.7792 
L 259.344 234.6048 
L 260.269463 232.4304 
L 261.2412 230.256 
L 261.576 229.5312 
L 262.262769 228.0816 
L 263.338105 225.9072 
L 264.471568 223.7328 
L 264.924 222.896492 
L 265.668 221.5584 
L 266.9328 219.384 
L 268.272 217.2096 
L 268.272 217.2096 
L 269.692364 215.0352 
L 271.2015 212.8608 
L 271.62 212.28096 
L 272.808 210.6864 
L 274.5216 208.512 
L 274.968 207.9684 
L 276.353379 206.3376 
L 278.316 204.1632 
L 280.424 201.9888 
L 281.664 200.7808 
L 282.694154 199.8144 
L 285.012 197.754442 
L 285.14592 197.64 
L 287.802 195.4656 
L 288.36 195.03072 
L 290.689043 193.2912 
L 291.708 192.5664 
L 293.838545 191.1168 
L 295.056 190.326109 
L 297.288 188.9424 
L 298.404 188.280626 
L 301.0824 186.768 
L 301.752 186.4056 
L 305.1 184.680576 
L 305.276211 184.5936 
L 308.448 183.088246 
L 309.936 182.4192 
L 311.796 181.613867 
L 315.144 180.2448 
L 315.144 180.2448 
L 318.492 178.970152 
L 321.003 178.0704 
L 321.84 177.78048 
L 325.188 176.667561 
L 327.6432 175.896 
L 328.536 175.6242 
L 331.884 174.644073 
L 335.232 173.7216 
L 335.232 173.7216 
L 338.58 172.85184 
L 341.928 172.0304 
L 343.988308 171.5472 
L 345.276 171.253362 
L 348.624 170.517221 
L 351.972 169.818831 
L 354.204 169.3728 
L 355.32 169.15536 
L 358.668 168.524254 
L 362.016 167.9232 
L 365.364 167.350102 
L 366.277091 167.1984 
L 368.712 166.803055 
L 372.06 166.28032 
L 375.408 165.780313 
L 378.756 165.301583 
L 380.7648 165.024 
L 382.104 164.8428 
L 385.452 164.402743 
L 388.8 163.980288 
" style="fill:none;stroke:#ccff00;stroke-width:1.5;"/>
    <path clip-path="url(#p92fa197b8e)" d="M 189.52704 34.56 
L 188.876571 36.7344 
L 188.199 38.9088 
L 187.92 39.77856 
L 187.492596 41.0832 
L 186.755478 43.2576 
L 185.9856 45.432 
L 185.180727 47.6064 
L 184.572 49.187782 
L 184.338419 49.7808 
L 183.456 51.9552 
L 182.530537 54.1296 
L 181.5588 56.304 
L 181.224 57.0288 
L 180.537231 58.4784 
L 179.461895 60.6528 
L 178.328432 62.8272 
L 177.876 63.663508 
L 177.132 65.0016 
L 175.8672 67.176 
L 174.528 69.3504 
L 174.528 69.3504 
L 173.107636 71.5248 
L 171.5985 73.6992 
L 171.18 74.27904 
L 169.992 75.8736 
L 168.2784 78.048 
L 167.832 78.5916 
L 166.446621 80.2224 
L 164.484 82.3968 
L 164.484 82.3968 
L 162.376 84.5712 
L 161.136 85.7792 
L 160.105846 86.7456 
L 157.788 88.805558 
L 157.65408 88.92 
L 154.998 91.0944 
L 154.44 91.52928 
L 152.110957 93.2688 
L 151.092 93.9936 
L 148.961455 95.4432 
L 147.744 96.233891 
L 145.512 97.6176 
L 144.396 98.279374 
L 141.7176 99.792 
L 141.048 100.1544 
L 137.7 101.879424 
L 137.523789 101.9664 
L 134.352 103.471754 
L 132.864 104.1408 
L 131.004 104.946133 
L 127.656 106.3152 
L 127.656 106.3152 
L 124.308 107.589848 
L 121.797 108.4896 
L 120.96 108.77952 
L 117.612 109.892439 
L 115.1568 110.664 
L 114.264 110.9358 
L 110.916 111.915927 
L 107.568 112.8384 
L 107.568 112.8384 
L 104.22 113.70816 
L 100.872 114.5296 
L 98.811692 115.0128 
L 97.524 115.306638 
L 94.176 116.042779 
L 90.828 116.741169 
L 88.596 117.1872 
L 87.48 117.40464 
L 84.132 118.035746 
L 80.784 118.6368 
L 77.436 119.209898 
L 76.522909 119.3616 
L 74.088 119.756945 
L 70.74 120.27968 
L 67.392 120.779687 
L 64.044 121.258417 
L 62.0352 121.536 
L 60.696 121.7172 
L 57.348 122.157257 
L 54 122.579712 
" style="fill:none;stroke:#ccff00;stroke-width:1.5;"/>
   </g>
   <g id="LineCollection_4">
    <path clip-path="url(#p92fa197b8e)" d="M 236.39904 252 
L 236.705143 249.8256 
L 237.024 247.6512 
L 237.356426 245.4768 
L 237.703304 243.3024 
L 238.0656 241.128 
L 238.14 240.69312 
L 238.444364 238.9536 
L 238.840744 236.7792 
L 239.256 234.6048 
L 239.691512 232.4304 
L 240.1488 230.256 
L 240.629538 228.0816 
L 241.135579 225.9072 
L 241.488 224.4576 
L 241.668973 223.7328 
L 242.232 221.5584 
L 242.8272 219.384 
L 243.457412 217.2096 
L 244.125818 215.0352 
L 244.836 212.8608 
L 244.836 212.8608 
L 245.592 210.6864 
L 246.3984 208.512 
L 247.260414 206.3376 
L 248.184 204.1632 
L 249.176 201.9888 
L 250.244308 199.8144 
L 251.39808 197.64 
L 251.532 197.3984 
L 252.648 195.4656 
L 254.006609 193.2912 
L 254.88 191.98656 
L 255.488727 191.1168 
L 257.112 188.9424 
L 258.228 187.558691 
L 258.8976 186.768 
L 260.871158 184.5936 
L 261.576 183.8688 
L 263.064 182.4192 
L 264.924 180.746585 
L 265.514824 180.2448 
L 268.272 178.0704 
L 268.272 178.0704 
L 271.3968 175.896 
L 271.62 175.75104 
L 274.968 173.7216 
L 274.968 173.7216 
L 278.316 171.930918 
L 279.088615 171.5472 
L 281.664 170.3392 
L 283.896 169.3728 
L 285.012 168.915032 
L 288.36 167.63328 
L 289.577455 167.1984 
L 291.708 166.4736 
L 295.056 165.419345 
L 296.3952 165.024 
L 298.404 164.456765 
L 301.752 163.5744 
L 304.728 162.8496 
L 305.1 162.762624 
L 308.448 162.013292 
L 311.796 161.319467 
L 315.144 160.6752 
L 315.144 160.6752 
L 318.492 160.075366 
L 321.84 159.51552 
L 325.188 158.991794 
L 328.536 158.5008 
L 328.536 158.5008 
L 331.884 158.039564 
L 335.232 157.605459 
L 338.58 157.19616 
L 341.928 156.8096 
L 345.276 156.443935 
L 346.392 156.3264 
L 348.624 156.097516 
L 351.972 155.768862 
L 355.32 155.45664 
L 358.668 155.159649 
L 362.016 154.8768 
L 365.364 154.607107 
L 368.712 154.349673 
L 371.3904 154.152 
L 372.06 154.10368 
L 375.408 153.868383 
L 378.756 153.643098 
L 382.104 153.4272 
L 385.452 153.220114 
L 388.8 153.021312 
" style="fill:none;stroke:#33ff00;stroke-width:1.5;"/>
    <path clip-path="url(#p92fa197b8e)" d="M 206.40096 34.56 
L 206.094857 36.7344 
L 205.776 38.9088 
L 205.443574 41.0832 
L 205.096696 43.2576 
L 204.7344 45.432 
L 204.66 45.86688 
L 204.355636 47.6064 
L 203.959256 49.7808 
L 203.544 51.9552 
L 203.108488 54.1296 
L 202.6512 56.304 
L 202.170462 58.4784 
L 201.664421 60.6528 
L 201.312 62.1024 
L 201.131027 62.8272 
L 200.568 65.0016 
L 199.9728 67.176 
L 199.342588 69.3504 
L 198.674182 71.5248 
L 197.964 73.6992 
L 197.964 73.6992 
L 197.208 75.8736 
L 196.4016 78.048 
L 195.539586 80.2224 
L 194.616 82.3968 
L 194.616 82.3968 
L 193.624 84.5712 
L 192.555692 86.7456 
L 191.40192 88.92 
L 191.268 89.1616 
L 190.152 91.0944 
L 188.793391 93.2688 
L 187.92 94.57344 
L 187.311273 95.4432 
L 185.688 97.6176 
L 184.572 99.001309 
L 183.9024 99.792 
L 181.928842 101.9664 
L 181.224 102.6912 
L 179.736 104.1408 
L 177.876 105.813415 
L 177.285176 106.3152 
L 174.528 108.4896 
L 174.528 108.4896 
L 171.4032 110.664 
L 171.18 110.80896 
L 167.832 112.8384 
L 167.832 112.8384 
L 164.484 114.629082 
L 163.711385 115.0128 
L 161.136 116.2208 
L 158.904 117.1872 
L 157.788 117.644968 
L 154.44 118.92672 
L 153.222545 119.3616 
L 151.092 120.0864 
L 147.744 121.140655 
L 146.4048 121.536 
L 144.396 122.103235 
L 141.048 122.9856 
L 138.072 123.7104 
L 137.7 123.797376 
L 134.352 124.546708 
L 131.004 125.240533 
L 127.656 125.8848 
L 127.656 125.8848 
L 124.308 126.484634 
L 120.96 127.04448 
L 117.612 127.568206 
L 114.264 128.0592 
L 110.916 128.520436 
L 107.568 128.954541 
L 104.22 129.36384 
L 100.872 129.7504 
L 97.524 130.116065 
L 96.408 130.2336 
L 94.176 130.462484 
L 90.828 130.791138 
L 87.48 131.10336 
L 84.132 131.400351 
L 80.784 131.6832 
L 77.436 131.952893 
L 74.088 132.210327 
L 71.4096 132.408 
L 70.74 132.45632 
L 67.392 132.691617 
L 64.044 132.916902 
L 60.696 133.1328 
L 57.348 133.339886 
L 54 133.538688 
" style="fill:none;stroke:#33ff00;stroke-width:1.5;"/>
   </g>
   <g id="LineCollection_5">
    <path clip-path="url(#p92fa197b8e)" d="M 224.748 252 
L 224.816327 249.8256 
L 224.8875 247.6512 
L 224.961702 245.4768 
L 225.03913 243.3024 
L 225.12 241.128 
L 225.204545 238.9536 
L 225.293023 236.7792 
L 225.385714 234.6048 
L 225.482927 232.4304 
L 225.585 230.256 
L 225.692308 228.0816 
L 225.805263 225.9072 
L 225.924324 223.7328 
L 226.05 221.5584 
L 226.182857 219.384 
L 226.323529 217.2096 
L 226.472727 215.0352 
L 226.63125 212.8608 
L 226.8 210.6864 
L 226.98 208.512 
L 227.172414 206.3376 
L 227.378571 204.1632 
L 227.6 201.9888 
L 227.838462 199.8144 
L 228.096 197.64 
L 228.375 195.4656 
L 228.678261 193.2912 
L 229.009091 191.1168 
L 229.371429 188.9424 
L 229.77 186.768 
L 230.210526 184.5936 
L 230.7 182.4192 
L 231.247059 180.2448 
L 231.444 179.52 
L 231.8625 178.0704 
L 232.56 175.896 
L 233.357143 173.7216 
L 234.276923 171.5472 
L 234.792 170.46 
L 235.35 169.3728 
L 236.618182 167.1984 
L 238.14 165.024 
L 240 162.8496 
L 241.488 161.4 
L 242.325 160.6752 
L 244.836 158.811429 
L 245.314286 158.5008 
L 248.184 156.87 
L 249.3 156.3264 
L 251.532 155.36 
L 254.88 154.152 
L 254.88 154.152 
L 258.228 153.163636 
L 261.576 152.34 
L 263.25 151.9776 
L 264.924 151.643077 
L 268.272 151.045714 
L 271.62 150.528 
L 274.968 150.075 
L 277.2 149.8032 
L 278.316 149.675294 
L 281.664 149.32 
L 285.012 149.002105 
L 288.36 148.716 
L 291.708 148.457143 
L 295.056 148.221818 
L 298.404 148.006957 
L 301.752 147.81 
L 305.1 147.6288 
L 308.448 147.461538 
L 311.796 147.306667 
L 315.144 147.162857 
L 318.492 147.028966 
L 321.84 146.904 
L 325.188 146.787097 
L 328.536 146.6775 
L 331.884 146.574545 
L 335.232 146.477647 
L 338.58 146.386286 
L 341.928 146.3 
L 345.276 146.218378 
L 348.624 146.141053 
L 351.972 146.067692 
L 355.32 145.998 
L 358.668 145.931707 
L 362.016 145.868571 
L 365.364 145.808372 
L 368.712 145.750909 
L 372.06 145.696 
L 375.408 145.643478 
L 378.756 145.593191 
L 382.104 145.545 
L 385.452 145.498776 
L 388.8 145.4544 
" style="fill:none;stroke:#00ff66;stroke-width:1.5;"/>
    <path clip-path="url(#p92fa197b8e)" d="M 218.052 34.56 
L 217.983673 36.7344 
L 217.9125 38.9088 
L 217.838298 41.0832 
L 217.76087 43.2576 
L 217.68 45.432 
L 217.595455 47.6064 
L 217.506977 49.7808 
L 217.414286 51.9552 
L 217.317073 54.1296 
L 217.215 56.304 
L 217.107692 58.4784 
L 216.994737 60.6528 
L 216.875676 62.8272 
L 216.75 65.0016 
L 216.617143 67.176 
L 216.476471 69.3504 
L 216.327273 71.5248 
L 216.16875 73.6992 
L 216 75.8736 
L 215.82 78.048 
L 215.627586 80.2224 
L 215.421429 82.3968 
L 215.2 84.5712 
L 214.961538 86.7456 
L 214.704 88.92 
L 214.425 91.0944 
L 214.121739 93.2688 
L 213.790909 95.4432 
L 213.428571 97.6176 
L 213.03 99.792 
L 212.589474 101.9664 
L 212.1 104.1408 
L 211.552941 106.3152 
L 211.356 107.04 
L 210.9375 108.4896 
L 210.24 110.664 
L 209.442857 112.8384 
L 208.523077 115.0128 
L 208.008 116.1 
L 207.45 117.1872 
L 206.181818 119.3616 
L 204.66 121.536 
L 204.66 121.536 
L 202.8 123.7104 
L 201.312 125.16 
L 200.475 125.8848 
L 197.964 127.748571 
L 197.485714 128.0592 
L 194.616 129.69 
L 193.5 130.2336 
L 191.268 131.2 
L 187.92 132.408 
L 187.92 132.408 
L 184.572 133.396364 
L 181.224 134.22 
L 179.55 134.5824 
L 177.876 134.916923 
L 174.528 135.514286 
L 171.18 136.032 
L 167.832 136.485 
L 165.6 136.7568 
L 164.484 136.884706 
L 161.136 137.24 
L 157.788 137.557895 
L 154.44 137.844 
L 151.092 138.102857 
L 147.744 138.338182 
L 144.396 138.553043 
L 141.048 138.75 
L 137.7 138.9312 
L 134.352 139.098462 
L 131.004 139.253333 
L 127.656 139.397143 
L 124.308 139.531034 
L 120.96 139.656 
L 117.612 139.772903 
L 114.264 139.8825 
L 110.916 139.985455 
L 107.568 140.082353 
L 104.22 140.173714 
L 100.872 140.26 
L 97.524 140.341622 
L 94.176 140.418947 
L 90.828 140.492308 
L 87.48 140.562 
L 84.132 140.628293 
L 80.784 140.691429 
L 77.436 140.751628 
L 74.088 140.809091 
L 70.74 140.864 
L 67.392 140.916522 
L 64.044 140.966809 
L 60.696 141.015 
L 57.348 141.061224 
L 54 141.1056 
" style="fill:none;stroke:#00ff66;stroke-width:1.5;"/>
   </g>
   <g id="LineCollection_6">
    <path clip-path="url(#p92fa197b8e)" d="M 218.052 252 
L 217.983673 249.8256 
L 217.9125 247.6512 
L 217.838298 245.4768 
L 217.76087 243.3024 
L 217.68 241.128 
L 217.595455 238.9536 
L 217.506977 236.7792 
L 217.414286 234.6048 
L 217.317073 232.4304 
L 217.215 230.256 
L 217.107692 228.0816 
L 216.994737 225.9072 
L 216.875676 223.7328 
L 216.75 221.5584 
L 216.617143 219.384 
L 216.476471 217.2096 
L 216.327273 215.0352 
L 216.16875 212.8608 
L 216 210.6864 
L 215.82 208.512 
L 215.627586 206.3376 
L 215.421429 204.1632 
L 215.2 201.9888 
L 214.961538 199.8144 
L 214.704 197.64 
L 214.425 195.4656 
L 214.121739 193.2912 
L 213.790909 191.1168 
L 213.428571 188.9424 
L 213.03 186.768 
L 212.589474 184.5936 
L 212.1 182.4192 
L 211.552941 180.2448 
L 211.356 179.52 
L 210.9375 178.0704 
L 210.24 175.896 
L 209.442857 173.7216 
L 208.523077 171.5472 
L 208.008 170.46 
L 207.45 169.3728 
L 206.181818 167.1984 
L 204.66 165.024 
L 204.66 165.024 
L 202.8 162.8496 
L 201.312 161.4 
L 200.475 160.6752 
L 197.964 158.811429 
L 197.485714 158.5008 
L 194.616 156.87 
L 193.5 156.3264 
L 191.268 155.36 
L 187.92 154.152 
L 187.92 154.152 
L 184.572 153.163636 
L 181.224 152.34 
L 179.55 151.9776 
L 177.876 151.643077 
L 174.528 151.045714 
L 171.18 150.528 
L 167.832 150.075 
L 165.6 149.8032 
L 164.484 149.675294 
L 161.136 149.32 
L 157.788 149.002105 
L 154.44 148.716 
L 151.092 148.457143 
L 147.744 148.221818 
L 144.396 148.006957 
L 141.048 147.81 
L 137.7 147.6288 
L 134.352 147.461538 
L 131.004 147.306667 
L 127.656 147.162857 
L 124.308 147.028966 
L 120.96 146.904 
L 117.612 146.787097 
L 114.264 146.6775 
L 110.916 146.574545 
L 107.568 146.477647 
L 104.22 146.386286 
L 100.872 146.3 
L 97.524 146.218378 
L 94.176 146.141053 
L 90.828 146.067692 
L 87.48 145.998 
L 84.132 145.931707 
L 80.784 145.868571 
L 77.436 145.808372 
L 74.088 145.750909 
L 70.74 145.696 
L 67.392 145.643478 
L 64.044 145.593191 
L 60.696 145.545 
L 57.348 145.498776 
L 54 145.4544 
" style="fill:none;stroke:#00ffff;stroke-width:1.5;"/>
    <path clip-path="url(#p92fa197b8e)" d="M 224.748 34.56 
L 224.816327 36.7344 
L 224.8875 38.9088 
L 224.961702 41.0832 
L 225.03913 43.2576 
L 225.12 45.432 
L 225.204545 47.6064 
L 225.293023 49.7808 
L 225.385714 51.9552 
L 225.482927 54.1296 
L 225.585 56.304 
L 225.692308 58.4784 
L 225.805263 60.6528 
L 225.924324 62.8272 
L 226.05 65.0016 
L 226.182857 67.176 
L 226.323529 69.3504 
L 226.472727 71.5248 
L 226.63125 73.6992 
L 226.8 75.8736 
L 226.98 78.048 
L 227.172414 80.2224 
L 227.378571 82.3968 
L 227.6 84.5712 
L 227.838462 86.7456 
L 228.096 88.92 
L 228.375 91.0944 
L 228.678261 93.2688 
L 229.009091 95.4432 
L 229.371429 97.6176 
L 229.77 99.792 
L 230.210526 101.9664 
L 230.7 104.1408 
L 231.247059 106.3152 
L 231.444 107.04 
L 231.8625 108.4896 
L 232.56 110.664 
L 233.357143 112.8384 
L 234.276923 115.0128 
L 234.792 116.1 
L 235.35 117.1872 
L 236.618182 119.3616 
L 238.14 121.536 
L 240 123.7104 
L 241.488 125.16 
L 242.325 125.8848 
L 244.836 127.748571 
L 245.314286 128.0592 
L 248.184 129.69 
L 249.3 130.2336 
L 251.532 131.2 
L 254.88 132.408 
L 254.88 132.408 
L 258.228 133.396364 
L 261.576 134.22 
L 263.25 134.5824 
L 264.924 134.916923 
L 268.272 135.514286 
L 271.62 136.032 
L 274.968 136.485 
L 277.2 136.7568 
L 278.316 136.884706 
L 281.664 137.24 
L 285.012 137.557895 
L 288.36 137.844 
L 291.708 138.102857 
L 295.056 138.338182 
L 298.404 138.553043 
L 301.752 138.75 
L 305.1 138.9312 
L 308.448 139.098462 
L 311.796 139.253333 
L 315.144 139.397143 
L 318.492 139.531034 
L 321.84 139.656 
L 325.188 139.772903 
L 328.536 139.8825 
L 331.884 139.985455 
L 335.232 140.082353 
L 338.58 140.173714 
L 341.928 140.26 
L 345.276 140.341622 
L 348.624 140.418947 
L 351.972 140.492308 
L 355.32 140.562 
L 358.668 140.628293 
L 362.016 140.691429 
L 365.364 140.751628 
L 368.712 140.809091 
L 372.06 140.864 
L 375.408 140.916522 
L 378.756 140.966809 
L 382.104 141.015 
L 385.452 141.061224 
L 388.8 141.1056 
" style="fill:none;stroke:#00ffff;stroke-width:1.5;"/>
   </g>
   <g id="LineCollection_7">
    <path clip-path="url(#p92fa197b8e)" d="M 206.40096 252 
L 206.094857 249.8256 
L 205.776 247.6512 
L 205.443574 245.4768 
L 205.096696 243.3024 
L 204.7344 241.128 
L 204.66 240.69312 
L 204.355636 238.9536 
L 203.959256 236.7792 
L 203.544 234.6048 
L 203.108488 232.4304 
L 202.6512 230.256 
L 202.170462 228.0816 
L 201.664421 225.9072 
L 201.312 224.4576 
L 201.131027 223.7328 
L 200.568 221.5584 
L 199.9728 219.384 
L 199.342588 217.2096 
L 198.674182 215.0352 
L 197.964 212.8608 
L 197.964 212.8608 
L 197.208 210.6864 
L 196.4016 208.512 
L 195.539586 206.3376 
L 194.616 204.1632 
L 194.616 204.1632 
L 193.624 201.9888 
L 192.555692 199.8144 
L 191.40192 197.64 
L 191.268 197.3984 
L 190.152 195.4656 
L 188.793391 193.2912 
L 187.92 191.98656 
L 187.311273 191.1168 
L 185.688 188.9424 
L 184.572 187.558691 
L 183.9024 186.768 
L 181.928842 184.5936 
L 181.224 183.8688 
L 179.736 182.4192 
L 177.876 180.746585 
L 177.285176 180.2448 
L 174.528 178.0704 
L 174.528 178.0704 
L 171.4032 175.896 
L 171.18 175.75104 
L 167.832 173.7216 
L 167.832 173.7216 
L 164.484 171.930918 
L 163.711385 171.5472 
L 161.136 170.3392 
L 158.904 169.3728 
L 157.788 168.915032 
L 154.44 167.63328 
L 153.222545 167.1984 
L 151.092 166.4736 
L 147.744 165.419345 
L 146.4048 165.024 
L 144.396 164.456765 
L 141.048 163.5744 
L 138.072 162.8496 
L 137.7 162.762624 
L 134.352 162.013292 
L 131.004 161.319467 
L 127.656 160.6752 
L 127.656 160.6752 
L 124.308 160.075366 
L 120.96 159.51552 
L 117.612 158.991794 
L 114.264 158.5008 
L 114.264 158.5008 
L 110.916 158.039564 
L 107.568 157.605459 
L 104.22 157.19616 
L 100.872 156.8096 
L 97.524 156.443935 
L 96.408 156.3264 
L 94.176 156.097516 
L 90.828 155.768862 
L 87.48 155.45664 
L 84.132 155.159649 
L 80.784 154.8768 
L 77.436 154.607107 
L 74.088 154.349673 
L 71.4096 154.152 
L 70.74 154.10368 
L 67.392 153.868383 
L 64.044 153.643098 
L 60.696 153.4272 
L 57.348 153.220114 
L 54 153.021312 
" style="fill:none;stroke:#0066ff;stroke-width:1.5;"/>
    <path clip-path="url(#p92fa197b8e)" d="M 236.39904 34.56 
L 236.705143 36.7344 
L 237.024 38.9088 
L 237.356426 41.0832 
L 237.703304 43.2576 
L 238.0656 45.432 
L 238.14 45.86688 
L 238.444364 47.6064 
L 238.840744 49.7808 
L 239.256 51.9552 
L 239.691512 54.1296 
L 240.1488 56.304 
L 240.629538 58.4784 
L 241.135579 60.6528 
L 241.488 62.1024 
L 241.668973 62.8272 
L 242.232 65.0016 
L 242.8272 67.176 
L 243.457412 69.3504 
L 244.125818 71.5248 
L 244.836 73.6992 
L 244.836 73.6992 
L 245.592 75.8736 
L 246.3984 78.048 
L 247.260414 80.2224 
L 248.184 82.3968 
L 249.176 84.5712 
L 250.244308 86.7456 
L 251.39808 88.92 
L 251.532 89.1616 
L 252.648 91.0944 
L 254.006609 93.2688 
L 254.88 94.57344 
L 255.488727 95.4432 
L 257.112 97.6176 
L 258.228 99.001309 
L 258.8976 99.792 
L 260.871158 101.9664 
L 261.576 102.6912 
L 263.064 104.1408 
L 264.924 105.813415 
L 265.514824 106.3152 
L 268.272 108.4896 
L 268.272 108.4896 
L 271.3968 110.664 
L 271.62 110.80896 
L 274.968 112.8384 
L 274.968 112.8384 
L 278.316 114.629082 
L 279.088615 115.0128 
L 281.664 116.2208 
L 283.896 117.1872 
L 285.012 117.644968 
L 288.36 118.92672 
L 289.577455 119.3616 
L 291.708 120.0864 
L 295.056 121.140655 
L 296.3952 121.536 
L 298.404 122.103235 
L 301.752 122.9856 
L 304.728 123.7104 
L 305.1 123.797376 
L 308.448 124.546708 
L 311.796 125.240533 
L 315.144 125.8848 
L 315.144 125.8848 
L 318.492 126.484634 
L 321.84 127.04448 
L 325.188 127.568206 
L 328.536 128.0592 
L 328.536 128.0592 
L 331.884 128.520436 
L 335.232 128.954541 
L 338.58 129.36384 
L 341.928 129.7504 
L 345.276 130.116065 
L 346.392 130.2336 
L 348.624 130.462484 
L 351.972 130.791138 
L 355.32 131.10336 
L 358.668 131.400351 
L 362.016 131.6832 
L 365.364 131.952893 
L 368.712 132.210327 
L 371.3904 132.408 
L 372.06 132.45632 
L 375.408 132.691617 
L 378.756 132.916902 
L 382.104 133.1328 
L 385.452 133.339886 
L 388.8 133.538688 
" style="fill:none;stroke:#0066ff;stroke-width:1.5;"/>
   </g>
   <g id="LineCollection_8">
    <path clip-path="url(#p92fa197b8e)" d="M 189.52704 252 
L 188.876571 249.8256 
L 188.199 247.6512 
L 187.92 246.78144 
L 187.492596 245.4768 
L 186.755478 243.3024 
L 185.9856 241.128 
L 185.180727 238.9536 
L 184.572 237.372218 
L 184.338419 236.7792 
L 183.456 234.6048 
L 182.530537 232.4304 
L 181.5588 230.256 
L 181.224 229.5312 
L 180.537231 228.0816 
L 179.461895 225.9072 
L 178.328432 223.7328 
L 177.876 222.896492 
L 177.132 221.5584 
L 175.8672 219.384 
L 174.528 217.2096 
L 174.528 217.2096 
L 173.107636 215.0352 
L 171.5985 212.8608 
L 171.18 212.28096 
L 169.992 210.6864 
L 168.2784 208.512 
L 167.832 207.9684 
L 166.446621 206.3376 
L 164.484 204.1632 
L 164.484 204.1632 
L 162.376 201.9888 
L 161.136 200.7808 
L 160.105846 199.8144 
L 157.788 197.754442 
L 157.65408 197.64 
L 154.998 195.4656 
L 154.44 195.03072 
L 152.110957 193.2912 
L 151.092 192.5664 
L 148.961455 191.1168 
L 147.744 190.326109 
L 145.512 188.9424 
L 144.396 188.280626 
L 141.7176 186.768 
L 141.048 186.4056 
L 137.7 184.680576 
L 137.523789 184.5936 
L 134.352 183.088246 
L 132.864 182.4192 
L 131.004 181.613867 
L 127.656 180.2448 
L 127.656 180.2448 
L 124.308 178.970152 
L 121.797 178.0704 
L 120.96 177.78048 
L 117.612 176.667561 
L 115.1568 175.896 
L 114.264 175.6242 
L 110.916 174.644073 
L 107.568 173.7216 
L 107.568 173.7216 
L 104.22 172.85184 
L 100.872 172.0304 
L 98.811692 171.5472 
L 97.524 171.253362 
L 94.176 170.517221 
L 90.828 169.818831 
L 88.596 169.3728 
L 87.48 169.15536 
L 84.132 168.524254 
L 80.784 167.9232 
L 77.436 167.350102 
L 76.522909 167.1984 
L 74.088 166.803055 
L 70.74 166.28032 
L 67.392 165.780313 
L 64.044 165.301583 
L 62.0352 165.024 
L 60.696 164.8428 
L 57.348 164.402743 
L 54 163.980288 
" style="fill:none;stroke:#3300ff;stroke-width:1.5;"/>
    <path clip-path="url(#p92fa197b8e)" d="M 253.27296 34.56 
L 253.923429 36.7344 
L 254.601 38.9088 
L 254.88 39.77856 
L 255.307404 41.0832 
L 256.044522 43.2576 
L 256.8144 45.432 
L 257.619273 47.6064 
L 258.228 49.187782 
L 258.461581 49.7808 
L 259.344 51.9552 
L 260.269463 54.1296 
L 261.2412 56.304 
L 261.576 57.0288 
L 262.262769 58.4784 
L 263.338105 60.6528 
L 264.471568 62.8272 
L 264.924 63.663508 
L 265.668 65.0016 
L 266.9328 67.176 
L 268.272 69.3504 
L 268.272 69.3504 
L 269.692364 71.5248 
L 271.2015 73.6992 
L 271.62 74.27904 
L 272.808 75.8736 
L 274.5216 78.048 
L 274.968 78.5916 
L 276.353379 80.2224 
L 278.316 82.3968 
L 280.424 84.5712 
L 281.664 85.7792 
L 282.694154 86.7456 
L 285.012 88.805558 
L 285.14592 88.92 
L 287.802 91.0944 
L 288.36 91.52928 
L 290.689043 93.2688 
L 291.708 93.9936 
L 293.838545 95.4432 
L 295.056 96.233891 
L 297.288 97.6176 
L 298.404 98.279374 
L 301.0824 99.792 
L 301.752 100.1544 
L 305.1 101.879424 
L 305.276211 101.9664 
L 308.448 103.471754 
L 309.936 104.1408 
L 311.796 104.946133 
L 315.144 106.3152 
L 315.144 106.3152 
L 318.492 107.589848 
L 321.003 108.4896 
L 321.84 108.77952 
L 325.188 109.892439 
L 327.6432 110.664 
L 328.536 110.9358 
L 331.884 111.915927 
L 335.232 112.8384 
L 335.232 112.8384 
L 338.58 113.70816 
L 341.928 114.5296 
L 343.988308 115.0128 
L 345.276 115.306638 
L 348.624 116.042779 
L 351.972 116.741169 
L 354.204 117.1872 
L 355.32 117.40464 
L 358.668 118.035746 
L 362.016 118.6368 
L 365.364 119.209898 
L 366.277091 119.3616 
L 368.712 119.756945 
L 372.06 120.27968 
L 375.408 120.779687 
L 378.756 121.258417 
L 380.7648 121.536 
L 382.104 121.7172 
L 385.452 122.157257 
L 388.8 122.579712 
" style="fill:none;stroke:#3300ff;stroke-width:1.5;"/>
   </g>
   <g id="LineCollection_9">
    <path clip-path="url(#p92fa197b8e)" d="M 164.484 252 
L 163.322449 249.8256 
L 162.1125 247.6512 
L 161.136 245.96 
L 160.851064 245.4768 
L 159.534783 243.3024 
L 158.16 241.128 
L 157.788 240.555789 
L 156.722727 238.9536 
L 155.218605 236.7792 
L 154.44 235.692 
L 153.642857 234.6048 
L 151.990244 232.4304 
L 151.092 231.291429 
L 150.255 230.256 
L 148.430769 228.0816 
L 147.744 227.290909 
L 146.510526 225.9072 
L 144.486486 223.7328 
L 144.396 223.638261 
L 142.35 221.5584 
L 141.048 220.29 
L 140.091429 219.384 
L 137.7 217.2096 
L 137.7 217.2096 
L 135.163636 215.0352 
L 134.352 214.366154 
L 132.46875 212.8608 
L 131.004 211.733333 
L 129.6 210.6864 
L 127.656 209.288571 
L 126.54 208.512 
L 124.308 207.012414 
L 123.268966 206.3376 
L 120.96 204.888 
L 119.764286 204.1632 
L 117.612 202.900645 
L 116 201.9888 
L 114.264 201.0375 
L 111.946154 199.8144 
L 110.916 199.287273 
L 107.568 197.64 
L 107.568 197.64 
L 104.22 196.086857 
L 102.825 195.4656 
L 100.872 194.62 
L 97.669565 193.2912 
L 97.524 193.232432 
L 94.176 191.917895 
L 92.045455 191.1168 
L 90.828 190.670769 
L 87.48 189.486 
L 85.885714 188.9424 
L 84.132 188.359024 
L 80.784 187.285714 
L 79.11 186.768 
L 77.436 186.262326 
L 74.088 185.285455 
L 71.621053 184.5936 
L 70.74 184.352 
L 67.392 183.45913 
L 64.044 182.604255 
L 63.3 182.4192 
L 60.696 181.785 
L 57.348 180.999184 
L 54 180.2448 
" style="fill:none;stroke:#cc00ff;stroke-width:1.5;"/>
    <path clip-path="url(#p92fa197b8e)" d="M 278.316 34.56 
L 279.477551 36.7344 
L 280.6875 38.9088 
L 281.664 40.6 
L 281.948936 41.0832 
L 283.265217 43.2576 
L 284.64 45.432 
L 285.012 46.004211 
L 286.077273 47.6064 
L 287.581395 49.7808 
L 288.36 50.868 
L 289.157143 51.9552 
L 290.809756 54.1296 
L 291.708 55.268571 
L 292.545 56.304 
L 294.369231 58.4784 
L 295.056 59.269091 
L 296.289474 60.6528 
L 298.313514 62.8272 
L 298.404 62.921739 
L 300.45 65.0016 
L 301.752 66.27 
L 302.708571 67.176 
L 305.1 69.3504 
L 305.1 69.3504 
L 307.636364 71.5248 
L 308.448 72.193846 
L 310.33125 73.6992 
L 311.796 74.826667 
L 313.2 75.8736 
L 315.144 77.271429 
L 316.26 78.048 
L 318.492 79.547586 
L 319.531034 80.2224 
L 321.84 81.672 
L 323.035714 82.3968 
L 325.188 83.659355 
L 326.8 84.5712 
L 328.536 85.5225 
L 330.853846 86.7456 
L 331.884 87.272727 
L 335.232 88.92 
L 335.232 88.92 
L 338.58 90.473143 
L 339.975 91.0944 
L 341.928 91.94 
L 345.130435 93.2688 
L 345.276 93.327568 
L 348.624 94.642105 
L 350.754545 95.4432 
L 351.972 95.889231 
L 355.32 97.074 
L 356.914286 97.6176 
L 358.668 98.200976 
L 362.016 99.274286 
L 363.69 99.792 
L 365.364 100.297674 
L 368.712 101.274545 
L 371.178947 101.9664 
L 372.06 102.208 
L 375.408 103.10087 
L 378.756 103.955745 
L 379.5 104.1408 
L 382.104 104.775 
L 385.452 105.560816 
L 388.8 106.3152 
" style="fill:none;stroke:#cc00ff;stroke-width:1.5;"/>
   </g>
   <g id="LineCollection_10">
    <path clip-path="url(#p92fa197b8e)" d="M 120.96 252 
L 118.910204 249.8256 
L 117.612 248.492903 
L 116.775 247.6512 
L 114.548936 245.4768 
L 114.264 245.205 
L 112.226087 243.3024 
L 110.916 242.116364 
L 109.8 241.128 
L 107.568 239.209412 
L 107.263636 238.9536 
L 104.609302 236.7792 
L 104.22 236.468571 
L 101.828571 234.6048 
L 100.872 233.88 
L 98.912195 232.4304 
L 97.524 231.431351 
L 95.85 230.256 
L 94.176 229.111579 
L 92.630769 228.0816 
L 90.828 226.910769 
L 89.242105 225.9072 
L 87.48 224.82 
L 85.67027 223.7328 
L 84.132 222.83122 
L 81.9 221.5584 
L 80.784 220.937143 
L 77.914286 219.384 
L 77.436 219.131163 
L 74.088 217.407273 
L 73.694118 217.2096 
L 70.74 215.76 
L 69.218182 215.0352 
L 67.392 214.184348 
L 64.4625 212.8608 
L 64.044 212.675745 
L 60.696 211.23 
L 59.4 210.6864 
L 57.348 209.843265 
L 54 208.512 
" style="fill:none;stroke:#ff0099;stroke-width:1.5;"/>
    <path clip-path="url(#p92fa197b8e)" d="M 321.84 34.56 
L 321.84 34.56 
L 323.889796 36.7344 
L 325.188 38.067097 
L 326.025 38.9088 
L 328.251064 41.0832 
L 328.536 41.355 
L 330.573913 43.2576 
L 331.884 44.443636 
L 333 45.432 
L 335.232 47.350588 
L 335.536364 47.6064 
L 338.190698 49.7808 
L 338.58 50.091429 
L 340.971429 51.9552 
L 341.928 52.68 
L 343.887805 54.1296 
L 345.276 55.128649 
L 346.95 56.304 
L 348.624 57.448421 
L 350.169231 58.4784 
L 351.972 59.649231 
L 353.557895 60.6528 
L 355.32 61.74 
L 357.12973 62.8272 
L 358.668 63.72878 
L 360.9 65.0016 
L 362.016 65.622857 
L 364.885714 67.176 
L 365.364 67.428837 
L 368.712 69.152727 
L 369.105882 69.3504 
L 372.06 70.8 
L 373.581818 71.5248 
L 375.408 72.375652 
L 378.3375 73.6992 
L 378.756 73.884255 
L 382.104 75.33 
L 383.4 75.8736 
L 385.452 76.716735 
L 388.8 78.048 
" style="fill:none;stroke:#ff0099;stroke-width:1.5;"/>
   </g>
   <g id="patch_3">
    <path d="M 54 252 
L 54 34.56 
" style="fill:none;stroke:#000000;stroke-linecap:square;stroke-linejoin:miter;stroke-width:0.8;"/>
   </g>
   <g id="patch_4">
    <path d="M 388.8 252 
L 388.8 34.56 
" style="fill:none;stroke:#000000;stroke-linecap:square;stroke-linejoin:miter;stroke-width:0.8;"/>
   </g>
   <g id="patch_5">
    <path d="M 54 252 
L 388.8 252 
" style="fill:none;stroke:#000000;stroke-linecap:square;stroke-linejoin:miter;stroke-width:0.8;"/>
   </g>
   <g id="patch_6">
    <path d="M 54 34.56 
L 388.8 34.56 
" style="fill:none;stroke:#000000;stroke-linecap:square;stroke-linejoin:miter;stroke-width:0.8;"/>
   </g>
   <g id="text_15">
    <!-- y0 as a function of (x,y) -->
    <defs>
     <path id="DejaVuSans-20"/>
     <path d="M 34.28125 27.484375 
Q 23.390625 27.484375 19.1875 25 
Q 14.984375 22.515625 14.984375 16.5 
Q 14.984375 11.71875 18.140625 8.90625 
Q 21.296875 6.109375 26.703125 6.109375 
Q 34.1875 6.109375 38.703125 11.40625 
Q 43.21875 16.703125 43.21875 25.484375 
L 43.21875 27.484375 
z
M 52.203125 31.203125 
L 52.203125 0 
L 43.21875 0 
L 43.21875 8.296875 
Q 40.140625 3.328125 35.546875 0.953125 
Q 30.953125 -1.421875 24.3125 -1.421875 
Q 15.921875 -1.421875 10.953125 3.296875 
Q 6 8.015625 6 15.921875 
Q 6 25.140625 12.171875 29.828125 
Q 18.359375 34.515625 30.609375 34.515625 
L 43.21875 34.515625 
L 43.21875 35.40625 
Q 43.21875 41.609375 39.140625 45 
Q 35.0625 48.390625 27.6875 48.390625 
Q 23 48.390625 18.546875 47.265625 
Q 14.109375 46.140625 10.015625 43.890625 
L 10.015625 52.203125 
Q 14.9375 54.109375 19.578125 55.046875 
Q 24.21875 56 28.609375 56 
Q 40.484375 56 46.34375 49.84375 
Q 52.203125 43.703125 52.203125 31.203125 
z
" id="DejaVuSans-61"/>
     <path d="M 44.28125 53.078125 
L 44.28125 44.578125 
Q 40.484375 46.53125 36.375 47.5 
Q 32.28125 48.484375 27.875 48.484375 
Q 21.1875 48.484375 17.84375 46.4375 
Q 14.5 44.390625 14.5 40.28125 
Q 14.5 37.15625 16.890625 35.375 
Q 19.28125 33.59375 26.515625 31.984375 
L 29.59375 31.296875 
Q 39.15625 29.25 43.1875 25.515625 
Q 47.21875 21.78125 47.21875 15.09375 
Q 47.21875 7.46875 41.1875 3.015625 
Q 35.15625 -1.421875 24.609375 -1.421875 
Q 20.21875 -1.421875 15.453125 -0.5625 
Q 10.6875 0.296875 5.421875 2 
L 5.421875 11.28125 
Q 10.40625 8.6875 15.234375 7.390625 
Q 20.0625 6.109375 24.8125 6.109375 
Q 31.15625 6.109375 34.5625 8.28125 
Q 37.984375 10.453125 37.984375 14.40625 
Q 37.984375 18.0625 35.515625 20.015625 
Q 33.0625 21.96875 24.703125 23.78125 
L 21.578125 24.515625 
Q 13.234375 26.265625 9.515625 29.90625 
Q 5.8125 33.546875 5.8125 39.890625 
Q 5.8125 47.609375 11.28125 51.796875 
Q 16.75 56 26.8125 56 
Q 31.78125 56 36.171875 55.265625 
Q 40.578125 54.546875 44.28125 53.078125 
z
" id="DejaVuSans-73"/>
     <path d="M 37.109375 75.984375 
L 37.109375 68.5 
L 28.515625 68.5 
Q 23.6875 68.5 21.796875 66.546875 
Q 19.921875 64.59375 19.921875 59.515625 
L 19.921875 54.6875 
L 34.71875 54.6875 
L 34.71875 47.703125 
L 19.921875 47.703125 
L 19.921875 0 
L 10.890625 0 
L 10.890625 47.703125 
L 2.296875 47.703125 
L 2.296875 54.6875 
L 10.890625 54.6875 
L 10.890625 58.5 
Q 10.890625 67.625 15.140625 71.796875 
Q 19.390625 75.984375 28.609375 75.984375 
z
" id="DejaVuSans-66"/>
     <path d="M 8.5 21.578125 
L 8.5 54.6875 
L 17.484375 54.6875 
L 17.484375 21.921875 
Q 17.484375 14.15625 20.5 10.265625 
Q 23.53125 6.390625 29.59375 6.390625 
Q 36.859375 6.390625 41.078125 11.03125 
Q 45.3125 15.671875 45.3125 23.6875 
L 45.3125 54.6875 
L 54.296875 54.6875 
L 54.296875 0 
L 45.3125 0 
L 45.3125 8.40625 
Q 42.046875 3.421875 37.71875 1 
Q 33.40625 -1.421875 27.6875 -1.421875 
Q 18.265625 -1.421875 13.375 4.4375 
Q 8.5 10.296875 8.5 21.578125 
z
M 31.109375 56 
z
" id="DejaVuSans-75"/>
     <path d="M 54.890625 33.015625 
L 54.890625 0 
L 45.90625 0 
L 45.90625 32.71875 
Q 45.90625 40.484375 42.875 44.328125 
Q 39.84375 48.1875 33.796875 48.1875 
Q 26.515625 48.1875 22.3125 43.546875 
Q 18.109375 38.921875 18.109375 30.90625 
L 18.109375 0 
L 9.078125 0 
L 9.078125 54.6875 
L 18.109375 54.6875 
L 18.109375 46.1875 
Q 21.34375 51.125 25.703125 53.5625 
Q 30.078125 56 35.796875 56 
Q 45.21875 56 50.046875 50.171875 
Q 54.890625 44.34375 54.890625 33.015625 
z
" id="DejaVuSans-6e"/>
     <path d="M 48.78125 52.59375 
L 48.78125 44.1875 
Q 44.96875 46.296875 41.140625 47.34375 
Q 37.3125 48.390625 33.40625 48.390625 
Q 24.65625 48.390625 19.8125 42.84375 
Q 14.984375 37.3125 14.984375 27.296875 
Q 14.984375 17.28125 19.8125 11.734375 
Q 24.65625 6.203125 33.40625 6.203125 
Q 37.3125 6.203125 41.140625 7.25 
Q 44.96875 8.296875 48.78125 10.40625 
L 48.78125 2.09375 
Q 45.015625 0.34375 40.984375 -0.53125 
Q 36.96875 -1.421875 32.421875 -1.421875 
Q 20.0625 -1.421875 12.78125 6.34375 
Q 5.515625 14.109375 5.515625 27.296875 
Q 5.515625 40.671875 12.859375 48.328125 
Q 20.21875 56 33.015625 56 
Q 37.15625 56 41.109375 55.140625 
Q 45.0625 54.296875 48.78125 52.59375 
z
" id="DejaVuSans-63"/>
     <path d="M 18.3125 70.21875 
L 18.3125 54.6875 
L 36.8125 54.6875 
L 36.8125 47.703125 
L 18.3125 47.703125 
L 18.3125 18.015625 
Q 18.3125 11.328125 20.140625 9.421875 
Q 21.96875 7.515625 27.59375 7.515625 
L 36.8125 7.515625 
L 36.8125 0 
L 27.59375 0 
Q 17.1875 0 13.234375 3.875 
Q 9.28125 7.765625 9.28125 18.015625 
L 9.28125 47.703125 
L 2.6875 47.703125 
L 2.6875 54.6875 
L 9.28125 54.6875 
L 9.28125 70.21875 
z
" id="DejaVuSans-74"/>
     <path d="M 9.421875 54.6875 
L 18.40625 54.6875 
L 18.40625 0 
L 9.421875 0 
z
M 9.421875 75.984375 
L 18.40625 75.984375 
L 18.40625 64.59375 
L 9.421875 64.59375 
z
" id="DejaVuSans-69"/>
     <path d="M 30.609375 48.390625 
Q 23.390625 48.390625 19.1875 42.75 
Q 14.984375 37.109375 14.984375 27.296875 
Q 14.984375 17.484375 19.15625 11.84375 
Q 23.34375 6.203125 30.609375 6.203125 
Q 37.796875 6.203125 41.984375 11.859375 
Q 46.1875 17.53125 46.1875 27.296875 
Q 46.1875 37.015625 41.984375 42.703125 
Q 37.796875 48.390625 30.609375 48.390625 
z
M 30.609375 56 
Q 42.328125 56 49.015625 48.375 
Q 55.71875 40.765625 55.71875 27.296875 
Q 55.71875 13.875 49.015625 6.21875 
Q 42.328125 -1.421875 30.609375 -1.421875 
Q 18.84375 -1.421875 12.171875 6.21875 
Q 5.515625 13.875 5.515625 27.296875 
Q 5.515625 40.765625 12.171875 48.375 
Q 18.84375 56 30.609375 56 
z
" id="DejaVuSans-6f"/>
     <path d="M 31 75.875 
Q 24.46875 64.65625 21.28125 53.65625 
Q 18.109375 42.671875 18.109375 31.390625 
Q 18.109375 20.125 21.3125 9.0625 
Q 24.515625 -2 31 -13.1875 
L 23.1875 -13.1875 
Q 15.875 -1.703125 12.234375 9.375 
Q 8.59375 20.453125 8.59375 31.390625 
Q 8.59375 42.28125 12.203125 53.3125 
Q 15.828125 64.359375 23.1875 75.875 
z
" id="DejaVuSans-28"/>
     <path d="M 11.71875 12.40625 
L 22.015625 12.40625 
L 22.015625 4 
L 14.015625 -11.625 
L 7.71875 -11.625 
L 11.71875 4 
z
" id="DejaVuSans-2c"/>
     <path d="M 8.015625 75.875 
L 15.828125 75.875 
Q 23.140625 64.359375 26.78125 53.3125 
Q 30.421875 42.28125 30.421875 31.390625 
Q 30.421875 20.453125 26.78125 9.375 
Q 23.140625 -1.703125 15.828125 -13.1875 
L 8.015625 -13.1875 
Q 14.5 -2 17.703125 9.0625 
Q 20.90625 20.125 20.90625 31.390625 
Q 20.90625 42.671875 17.703125 53.65625 
Q 14.5 64.65625 8.015625 75.875 
z
" id="DejaVuSans-29"/>
    </defs>
    <g transform="translate(150.03375 28.56)scale(0.12 -0.12)">
     <use xlink:href="#DejaVuSans-79"/>
     <use x="59.179688" xlink:href="#DejaVuSans-30"/>
     <use x="122.802734" xlink:href="#DejaVuSans-20"/>
     <use x="154.589844" xlink:href="#DejaVuSans-61"/>
     <use x="215.869141" xlink:href="#DejaVuSans-73"/>
     <use x="267.96875" xlink:href="#DejaVuSans-20"/>
     <use x="299.755859" xlink:href="#DejaVuSans-61"/>
     <use x="361.035156" xlink:href="#DejaVuSans-20"/>
     <use x="392.822266" xlink:href="#DejaVuSans-66"/>
     <use x="428.027344" xlink:href="#DejaVuSans-75"/>
     <use x="491.40625" xlink:href="#DejaVuSans-6e"/>
     <use x="554.785156" xlink:href="#DejaVuSans-63"/>
     <use x="609.765625" xlink:href="#DejaVuSans-74"/>
     <use x="648.974609" xlink:href="#DejaVuSans-69"/>
     <use x="676.757812" xlink:href="#DejaVuSans-6f"/>
     <use x="737.939453" xlink:href="#DejaVuSans-6e"/>
     <use x="801.318359" xlink:href="#DejaVuSans-20"/>
     <use x="833.105469" xlink:href="#DejaVuSans-6f"/>
     <use x="894.287109" xlink:href="#DejaVuSans-66"/>
     <use x="929.492188" xlink:href="#DejaVuSans-20"/>
     <use x="961.279297" xlink:href="#DejaVuSans-28"/>
     <use x="1000.292969" xlink:href="#DejaVuSans-78"/>
     <use x="1059.472656" xlink:href="#DejaVuSans-2c"/>
     <use x="1091.259766" xlink:href="#DejaVuSans-79"/>
     <use x="1150.439453" xlink:href="#DejaVuSans-29"/>
    </g>
   </g>
   <g id="legend_1">
    <g id="patch_7">
     <path d="M 319.564062 191.34125 
L 383.8 191.34125 
Q 385.8 191.34125 385.8 189.34125 
L 385.8 43.56 
Q 385.8 41.56 383.8 41.56 
L 319.564062 41.56 
Q 317.564062 41.56 317.564062 43.56 
L 317.564062 189.34125 
Q 317.564062 191.34125 319.564062 191.34125 
z
" style="fill:#4c4c4c;opacity:0.5;stroke:#4c4c4c;stroke-linejoin:miter;"/>
    </g>
    <g id="patch_8">
     <path d="M 317.564062 189.34125 
L 381.8 189.34125 
Q 383.8 189.34125 383.8 187.34125 
L 383.8 41.56 
Q 383.8 39.56 381.8 39.56 
L 317.564062 39.56 
Q 315.564062 39.56 315.564062 41.56 
L 315.564062 187.34125 
Q 315.564062 189.34125 317.564062 189.34125 
z
" style="fill:#ffffff;opacity:0.8;stroke:#cccccc;stroke-linejoin:miter;"/>
    </g>
    <g id="line2d_25">
     <path d="M 319.564062 47.658437 
L 339.564062 47.658437 
" style="fill:none;stroke:#ff0000;stroke-width:1.5;"/>
    </g>
    <g id="text_16">
     <!-- -2.25 -->
     <defs>
      <path d="M 4.890625 31.390625 
L 31.203125 31.390625 
L 31.203125 23.390625 
L 4.890625 23.390625 
z
" id="DejaVuSans-2d"/>
     </defs>
     <g transform="translate(347.564062 51.158437)scale(0.1 -0.1)">
      <use xlink:href="#DejaVuSans-2d"/>
      <use x="36.083984" xlink:href="#DejaVuSans-32"/>
      <use x="99.707031" xlink:href="#DejaVuSans-2e"/>
      <use x="131.494141" xlink:href="#DejaVuSans-32"/>
      <use x="195.117188" xlink:href="#DejaVuSans-35"/>
     </g>
    </g>
    <g id="line2d_26">
     <path d="M 319.564062 62.336563 
L 339.564062 62.336563 
" style="fill:none;stroke:#ff9900;stroke-width:1.5;"/>
    </g>
    <g id="text_17">
     <!-- -1.275 -->
     <defs>
      <path d="M 8.203125 72.90625 
L 55.078125 72.90625 
L 55.078125 68.703125 
L 28.609375 0 
L 18.3125 0 
L 43.21875 64.59375 
L 8.203125 64.59375 
z
" id="DejaVuSans-37"/>
     </defs>
     <g transform="translate(347.564062 65.836563)scale(0.1 -0.1)">
      <use xlink:href="#DejaVuSans-2d"/>
      <use x="36.083984" xlink:href="#DejaVuSans-31"/>
      <use x="99.707031" xlink:href="#DejaVuSans-2e"/>
      <use x="131.494141" xlink:href="#DejaVuSans-32"/>
      <use x="195.117188" xlink:href="#DejaVuSans-37"/>
      <use x="258.740234" xlink:href="#DejaVuSans-35"/>
     </g>
    </g>
    <g id="line2d_27">
     <path d="M 319.564062 77.014688 
L 339.564062 77.014688 
" style="fill:none;stroke:#ccff00;stroke-width:1.5;"/>
    </g>
    <g id="text_18">
     <!-- -0.714 -->
     <defs>
      <path d="M 37.796875 64.3125 
L 12.890625 25.390625 
L 37.796875 25.390625 
z
M 35.203125 72.90625 
L 47.609375 72.90625 
L 47.609375 25.390625 
L 58.015625 25.390625 
L 58.015625 17.1875 
L 47.609375 17.1875 
L 47.609375 0 
L 37.796875 0 
L 37.796875 17.1875 
L 4.890625 17.1875 
L 4.890625 26.703125 
z
" id="DejaVuSans-34"/>
     </defs>
     <g transform="translate(347.564062 80.514688)scale(0.1 -0.1)">
      <use xlink:href="#DejaVuSans-2d"/>
      <use x="36.083984" xlink:href="#DejaVuSans-30"/>
      <use x="99.707031" xlink:href="#DejaVuSans-2e"/>
      <use x="131.494141" xlink:href="#DejaVuSans-37"/>
      <use x="195.117188" xlink:href="#DejaVuSans-31"/>
      <use x="258.740234" xlink:href="#DejaVuSans-34"/>
     </g>
    </g>
    <g id="line2d_28">
     <path d="M 319.564062 91.692813 
L 339.564062 91.692813 
" style="fill:none;stroke:#33ff00;stroke-width:1.5;"/>
    </g>
    <g id="text_19">
     <!-- -0.336 -->
     <defs>
      <path d="M 40.578125 39.3125 
Q 47.65625 37.796875 51.625 33 
Q 55.609375 28.21875 55.609375 21.1875 
Q 55.609375 10.40625 48.1875 4.484375 
Q 40.765625 -1.421875 27.09375 -1.421875 
Q 22.515625 -1.421875 17.65625 -0.515625 
Q 12.796875 0.390625 7.625 2.203125 
L 7.625 11.71875 
Q 11.71875 9.328125 16.59375 8.109375 
Q 21.484375 6.890625 26.8125 6.890625 
Q 36.078125 6.890625 40.9375 10.546875 
Q 45.796875 14.203125 45.796875 21.1875 
Q 45.796875 27.640625 41.28125 31.265625 
Q 36.765625 34.90625 28.71875 34.90625 
L 20.21875 34.90625 
L 20.21875 43.015625 
L 29.109375 43.015625 
Q 36.375 43.015625 40.234375 45.921875 
Q 44.09375 48.828125 44.09375 54.296875 
Q 44.09375 59.90625 40.109375 62.90625 
Q 36.140625 65.921875 28.71875 65.921875 
Q 24.65625 65.921875 20.015625 65.03125 
Q 15.375 64.15625 9.8125 62.3125 
L 9.8125 71.09375 
Q 15.4375 72.65625 20.34375 73.4375 
Q 25.25 74.21875 29.59375 74.21875 
Q 40.828125 74.21875 47.359375 69.109375 
Q 53.90625 64.015625 53.90625 55.328125 
Q 53.90625 49.265625 50.4375 45.09375 
Q 46.96875 40.921875 40.578125 39.3125 
z
" id="DejaVuSans-33"/>
      <path d="M 33.015625 40.375 
Q 26.375 40.375 22.484375 35.828125 
Q 18.609375 31.296875 18.609375 23.390625 
Q 18.609375 15.53125 22.484375 10.953125 
Q 26.375 6.390625 33.015625 6.390625 
Q 39.65625 6.390625 43.53125 10.953125 
Q 47.40625 15.53125 47.40625 23.390625 
Q 47.40625 31.296875 43.53125 35.828125 
Q 39.65625 40.375 33.015625 40.375 
z
M 52.59375 71.296875 
L 52.59375 62.3125 
Q 48.875 64.0625 45.09375 64.984375 
Q 41.3125 65.921875 37.59375 65.921875 
Q 27.828125 65.921875 22.671875 59.328125 
Q 17.53125 52.734375 16.796875 39.40625 
Q 19.671875 43.65625 24.015625 45.921875 
Q 28.375 48.1875 33.59375 48.1875 
Q 44.578125 48.1875 50.953125 41.515625 
Q 57.328125 34.859375 57.328125 23.390625 
Q 57.328125 12.15625 50.6875 5.359375 
Q 44.046875 -1.421875 33.015625 -1.421875 
Q 20.359375 -1.421875 13.671875 8.265625 
Q 6.984375 17.96875 6.984375 36.375 
Q 6.984375 53.65625 15.1875 63.9375 
Q 23.390625 74.21875 37.203125 74.21875 
Q 40.921875 74.21875 44.703125 73.484375 
Q 48.484375 72.75 52.59375 71.296875 
z
" id="DejaVuSans-36"/>
     </defs>
     <g transform="translate(347.564062 95.192813)scale(0.1 -0.1)">
      <use xlink:href="#DejaVuSans-2d"/>
      <use x="36.083984" xlink:href="#DejaVuSans-30"/>
      <use x="99.707031" xlink:href="#DejaVuSans-2e"/>
      <use x="131.494141" xlink:href="#DejaVuSans-33"/>
      <use x="195.117188" xlink:href="#DejaVuSans-33"/>
      <use x="258.740234" xlink:href="#DejaVuSans-36"/>
     </g>
    </g>
    <g id="line2d_29">
     <path d="M 319.564062 106.370938 
L 339.564062 106.370938 
" style="fill:none;stroke:#00ff66;stroke-width:1.5;"/>
    </g>
    <g id="text_20">
     <!-- -0.075 -->
     <g transform="translate(347.564062 109.870938)scale(0.1 -0.1)">
      <use xlink:href="#DejaVuSans-2d"/>
      <use x="36.083984" xlink:href="#DejaVuSans-30"/>
      <use x="99.707031" xlink:href="#DejaVuSans-2e"/>
      <use x="131.494141" xlink:href="#DejaVuSans-30"/>
      <use x="195.117188" xlink:href="#DejaVuSans-37"/>
      <use x="258.740234" xlink:href="#DejaVuSans-35"/>
     </g>
    </g>
    <g id="line2d_30">
     <path d="M 319.564062 121.049062 
L 339.564062 121.049062 
" style="fill:none;stroke:#00ffff;stroke-width:1.5;"/>
    </g>
    <g id="text_21">
     <!-- 0.075 -->
     <g transform="translate(347.564062 124.549062)scale(0.1 -0.1)">
      <use xlink:href="#DejaVuSans-30"/>
      <use x="63.623047" xlink:href="#DejaVuSans-2e"/>
      <use x="95.410156" xlink:href="#DejaVuSans-30"/>
      <use x="159.033203" xlink:href="#DejaVuSans-37"/>
      <use x="222.65625" xlink:href="#DejaVuSans-35"/>
     </g>
    </g>
    <g id="line2d_31">
     <path d="M 319.564062 135.727188 
L 339.564062 135.727188 
" style="fill:none;stroke:#0066ff;stroke-width:1.5;"/>
    </g>
    <g id="text_22">
     <!-- 0.336 -->
     <g transform="translate(347.564062 139.227188)scale(0.1 -0.1)">
      <use xlink:href="#DejaVuSans-30"/>
      <use x="63.623047" xlink:href="#DejaVuSans-2e"/>
      <use x="95.410156" xlink:href="#DejaVuSans-33"/>
      <use x="159.033203" xlink:href="#DejaVuSans-33"/>
      <use x="222.65625" xlink:href="#DejaVuSans-36"/>
     </g>
    </g>
    <g id="line2d_32">
     <path d="M 319.564062 150.405312 
L 339.564062 150.405312 
" style="fill:none;stroke:#3300ff;stroke-width:1.5;"/>
    </g>
    <g id="text_23">
     <!-- 0.714 -->
     <g transform="translate(347.564062 153.905312)scale(0.1 -0.1)">
      <use xlink:href="#DejaVuSans-30"/>
      <use x="63.623047" xlink:href="#DejaVuSans-2e"/>
      <use x="95.410156" xlink:href="#DejaVuSans-37"/>
      <use x="159.033203" xlink:href="#DejaVuSans-31"/>
      <use x="222.65625" xlink:href="#DejaVuSans-34"/>
     </g>
    </g>
    <g id="line2d_33">
     <path d="M 319.564062 165.083438 
L 339.564062 165.083438 
" style="fill:none;stroke:#cc00ff;stroke-width:1.5;"/>
    </g>
    <g id="text_24">
     <!-- 1.275 -->
     <g transform="translate(347.564062 168.583438)scale(0.1 -0.1)">
      <use xlink:href="#DejaVuSans-31"/>
      <use x="63.623047" xlink:href="#DejaVuSans-2e"/>
      <use x="95.410156" xlink:href="#DejaVuSans-32"/>
      <use x="159.033203" xlink:href="#DejaVuSans-37"/>
      <use x="222.65625" xlink:href="#DejaVuSans-35"/>
     </g>
    </g>
    <g id="line2d_34">
     <path d="M 319.564062 179.761562 
L 339.564062 179.761562 
" style="fill:none;stroke:#ff0099;stroke-width:1.5;"/>
    </g>
    <g id="text_25">
     <!-- 2.25 -->
     <g transform="translate(347.564062 183.261562)scale(0.1 -0.1)">
      <use xlink:href="#DejaVuSans-32"/>
      <use x="63.623047" xlink:href="#DejaVuSans-2e"/>
      <use x="95.410156" xlink:href="#DejaVuSans-32"/>
      <use x="159.033203" xlink:href="#DejaVuSans-35"/>
     </g>
    </g>
   </g>
  </g>
 </g>
 <defs>
  <clipPath id="p92fa197b8e">
   <rect height="217.44" width="334.8" x="54" y="34.56"/>
  </clipPath>
 </defs>
</svg>
