<?xml version="1.0" encoding="utf-8" standalone="no"?>
<!DOCTYPE svg PUBLIC "-//W3C//DTD SVG 1.1//EN"
  "http://www.w3.org/Graphics/SVG/1.1/DTD/svg11.dtd">
<!-- Created with matplotlib (http://matplotlib.org/) -->
<svg height="288pt" version="1.1" viewBox="0 0 432 288" width="432pt" xmlns="http://www.w3.org/2000/svg" xmlns:xlink="http://www.w3.org/1999/xlink">
 <defs>
  <style type="text/css">
*{stroke-linecap:butt;stroke-linejoin:round;}
  </style>
 </defs>
 <g id="figure_1">
  <g id="patch_1">
   <path d="M 0 288 
L 432 288 
L 432 0 
L 0 0 
z
" style="fill:#ffffff;"/>
  </g>
  <g id="axes_1">
   <g id="patch_2">
    <path d="M 54 252 
L 388.8 252 
L 388.8 34.56 
L 54 34.56 
z
" style="fill:#ffffff;"/>
   </g>
   <g id="matplotlib.axis_1">
    <g id="xtick_1">
     <g id="line2d_1">
      <path clip-path="url(#p06cca450da)" d="M 86.803796 252 
L 86.803796 34.56 
" style="fill:none;stroke:#b0b0b0;stroke-linecap:square;stroke-width:0.8;"/>
     </g>
     <g id="line2d_2">
      <defs>
       <path d="M 0 0 
L 0 3.5 
" id="m9830875fec" style="stroke:#000000;stroke-width:0.8;"/>
      </defs>
      <g>
       <use style="stroke:#000000;stroke-width:0.8;" x="86.803796" xlink:href="#m9830875fec" y="252"/>
      </g>
     </g>
     <g id="text_1">
      <!-- 0.5 -->
      <defs>
       <path d="M 31.78125 66.40625 
Q 24.171875 66.40625 20.328125 58.90625 
Q 16.5 51.421875 16.5 36.375 
Q 16.5 21.390625 20.328125 13.890625 
Q 24.171875 6.390625 31.78125 6.390625 
Q 39.453125 6.390625 43.28125 13.890625 
Q 47.125 21.390625 47.125 36.375 
Q 47.125 51.421875 43.28125 58.90625 
Q 39.453125 66.40625 31.78125 66.40625 
z
M 31.78125 74.21875 
Q 44.046875 74.21875 50.515625 64.515625 
Q 56.984375 54.828125 56.984375 36.375 
Q 56.984375 17.96875 50.515625 8.265625 
Q 44.046875 -1.421875 31.78125 -1.421875 
Q 19.53125 -1.421875 13.0625 8.265625 
Q 6.59375 17.96875 6.59375 36.375 
Q 6.59375 54.828125 13.0625 64.515625 
Q 19.53125 74.21875 31.78125 74.21875 
z
" id="DejaVuSans-30"/>
       <path d="M 10.6875 12.40625 
L 21 12.40625 
L 21 0 
L 10.6875 0 
z
" id="DejaVuSans-2e"/>
       <path d="M 10.796875 72.90625 
L 49.515625 72.90625 
L 49.515625 64.59375 
L 19.828125 64.59375 
L 19.828125 46.734375 
Q 21.96875 47.46875 24.109375 47.828125 
Q 26.265625 48.1875 28.421875 48.1875 
Q 40.625 48.1875 47.75 41.5 
Q 54.890625 34.8125 54.890625 23.390625 
Q 54.890625 11.625 47.5625 5.09375 
Q 40.234375 -1.421875 26.90625 -1.421875 
Q 22.3125 -1.421875 17.546875 -0.640625 
Q 12.796875 0.140625 7.71875 1.703125 
L 7.71875 11.625 
Q 12.109375 9.234375 16.796875 8.0625 
Q 21.484375 6.890625 26.703125 6.890625 
Q 35.15625 6.890625 40.078125 11.328125 
Q 45.015625 15.765625 45.015625 23.390625 
Q 45.015625 31 40.078125 35.4375 
Q 35.15625 39.890625 26.703125 39.890625 
Q 22.75 39.890625 18.8125 39.015625 
Q 14.890625 38.140625 10.796875 36.28125 
z
" id="DejaVuSans-35"/>
      </defs>
      <g transform="translate(78.852233 266.598437)scale(0.1 -0.1)">
       <use xlink:href="#DejaVuSans-30"/>
       <use x="63.623047" xlink:href="#DejaVuSans-2e"/>
       <use x="95.410156" xlink:href="#DejaVuSans-35"/>
      </g>
     </g>
    </g>
    <g id="xtick_2">
     <g id="line2d_3">
      <path clip-path="url(#p06cca450da)" d="M 131.669197 252 
L 131.669197 34.56 
" style="fill:none;stroke:#b0b0b0;stroke-linecap:square;stroke-width:0.8;"/>
     </g>
     <g id="line2d_4">
      <g>
       <use style="stroke:#000000;stroke-width:0.8;" x="131.669197" xlink:href="#m9830875fec" y="252"/>
      </g>
     </g>
     <g id="text_2">
      <!-- 1.0 -->
      <defs>
       <path d="M 12.40625 8.296875 
L 28.515625 8.296875 
L 28.515625 63.921875 
L 10.984375 60.40625 
L 10.984375 69.390625 
L 28.421875 72.90625 
L 38.28125 72.90625 
L 38.28125 8.296875 
L 54.390625 8.296875 
L 54.390625 0 
L 12.40625 0 
z
" id="DejaVuSans-31"/>
      </defs>
      <g transform="translate(123.717635 266.598437)scale(0.1 -0.1)">
       <use xlink:href="#DejaVuSans-31"/>
       <use x="63.623047" xlink:href="#DejaVuSans-2e"/>
       <use x="95.410156" xlink:href="#DejaVuSans-30"/>
      </g>
     </g>
    </g>
    <g id="xtick_3">
     <g id="line2d_5">
      <path clip-path="url(#p06cca450da)" d="M 176.534599 252 
L 176.534599 34.56 
" style="fill:none;stroke:#b0b0b0;stroke-linecap:square;stroke-width:0.8;"/>
     </g>
     <g id="line2d_6">
      <g>
       <use style="stroke:#000000;stroke-width:0.8;" x="176.534599" xlink:href="#m9830875fec" y="252"/>
      </g>
     </g>
     <g id="text_3">
      <!-- 1.5 -->
      <g transform="translate(168.583036 266.598437)scale(0.1 -0.1)">
       <use xlink:href="#DejaVuSans-31"/>
       <use x="63.623047" xlink:href="#DejaVuSans-2e"/>
       <use x="95.410156" xlink:href="#DejaVuSans-35"/>
      </g>
     </g>
    </g>
    <g id="xtick_4">
     <g id="line2d_7">
      <path clip-path="url(#p06cca450da)" d="M 221.4 252 
L 221.4 34.56 
" style="fill:none;stroke:#b0b0b0;stroke-linecap:square;stroke-width:0.8;"/>
     </g>
     <g id="line2d_8">
      <g>
       <use style="stroke:#000000;stroke-width:0.8;" x="221.4" xlink:href="#m9830875fec" y="252"/>
      </g>
     </g>
     <g id="text_4">
      <!-- 2.0 -->
      <defs>
       <path d="M 19.1875 8.296875 
L 53.609375 8.296875 
L 53.609375 0 
L 7.328125 0 
L 7.328125 8.296875 
Q 12.9375 14.109375 22.625 23.890625 
Q 32.328125 33.6875 34.8125 36.53125 
Q 39.546875 41.84375 41.421875 45.53125 
Q 43.3125 49.21875 43.3125 52.78125 
Q 43.3125 58.59375 39.234375 62.25 
Q 35.15625 65.921875 28.609375 65.921875 
Q 23.96875 65.921875 18.8125 64.3125 
Q 13.671875 62.703125 7.8125 59.421875 
L 7.8125 69.390625 
Q 13.765625 71.78125 18.9375 73 
Q 24.125 74.21875 28.421875 74.21875 
Q 39.75 74.21875 46.484375 68.546875 
Q 53.21875 62.890625 53.21875 53.421875 
Q 53.21875 48.921875 51.53125 44.890625 
Q 49.859375 40.875 45.40625 35.40625 
Q 44.1875 33.984375 37.640625 27.21875 
Q 31.109375 20.453125 19.1875 8.296875 
z
" id="DejaVuSans-32"/>
      </defs>
      <g transform="translate(213.448437 266.598437)scale(0.1 -0.1)">
       <use xlink:href="#DejaVuSans-32"/>
       <use x="63.623047" xlink:href="#DejaVuSans-2e"/>
       <use x="95.410156" xlink:href="#DejaVuSans-30"/>
      </g>
     </g>
    </g>
    <g id="xtick_5">
     <g id="line2d_9">
      <path clip-path="url(#p06cca450da)" d="M 266.265401 252 
L 266.265401 34.56 
" style="fill:none;stroke:#b0b0b0;stroke-linecap:square;stroke-width:0.8;"/>
     </g>
     <g id="line2d_10">
      <g>
       <use style="stroke:#000000;stroke-width:0.8;" x="266.265401" xlink:href="#m9830875fec" y="252"/>
      </g>
     </g>
     <g id="text_5">
      <!-- 2.5 -->
      <g transform="translate(258.313839 266.598437)scale(0.1 -0.1)">
       <use xlink:href="#DejaVuSans-32"/>
       <use x="63.623047" xlink:href="#DejaVuSans-2e"/>
       <use x="95.410156" xlink:href="#DejaVuSans-35"/>
      </g>
     </g>
    </g>
    <g id="xtick_6">
     <g id="line2d_11">
      <path clip-path="url(#p06cca450da)" d="M 311.130803 252 
L 311.130803 34.56 
" style="fill:none;stroke:#b0b0b0;stroke-linecap:square;stroke-width:0.8;"/>
     </g>
     <g id="line2d_12">
      <g>
       <use style="stroke:#000000;stroke-width:0.8;" x="311.130803" xlink:href="#m9830875fec" y="252"/>
      </g>
     </g>
     <g id="text_6">
      <!-- 3.0 -->
      <defs>
       <path d="M 40.578125 39.3125 
Q 47.65625 37.796875 51.625 33 
Q 55.609375 28.21875 55.609375 21.1875 
Q 55.609375 10.40625 48.1875 4.484375 
Q 40.765625 -1.421875 27.09375 -1.421875 
Q 22.515625 -1.421875 17.65625 -0.515625 
Q 12.796875 0.390625 7.625 2.203125 
L 7.625 11.71875 
Q 11.71875 9.328125 16.59375 8.109375 
Q 21.484375 6.890625 26.8125 6.890625 
Q 36.078125 6.890625 40.9375 10.546875 
Q 45.796875 14.203125 45.796875 21.1875 
Q 45.796875 27.640625 41.28125 31.265625 
Q 36.765625 34.90625 28.71875 34.90625 
L 20.21875 34.90625 
L 20.21875 43.015625 
L 29.109375 43.015625 
Q 36.375 43.015625 40.234375 45.921875 
Q 44.09375 48.828125 44.09375 54.296875 
Q 44.09375 59.90625 40.109375 62.90625 
Q 36.140625 65.921875 28.71875 65.921875 
Q 24.65625 65.921875 20.015625 65.03125 
Q 15.375 64.15625 9.8125 62.3125 
L 9.8125 71.09375 
Q 15.4375 72.65625 20.34375 73.4375 
Q 25.25 74.21875 29.59375 74.21875 
Q 40.828125 74.21875 47.359375 69.109375 
Q 53.90625 64.015625 53.90625 55.328125 
Q 53.90625 49.265625 50.4375 45.09375 
Q 46.96875 40.921875 40.578125 39.3125 
z
" id="DejaVuSans-33"/>
      </defs>
      <g transform="translate(303.17924 266.598437)scale(0.1 -0.1)">
       <use xlink:href="#DejaVuSans-33"/>
       <use x="63.623047" xlink:href="#DejaVuSans-2e"/>
       <use x="95.410156" xlink:href="#DejaVuSans-30"/>
      </g>
     </g>
    </g>
    <g id="xtick_7">
     <g id="line2d_13">
      <path clip-path="url(#p06cca450da)" d="M 355.996204 252 
L 355.996204 34.56 
" style="fill:none;stroke:#b0b0b0;stroke-linecap:square;stroke-width:0.8;"/>
     </g>
     <g id="line2d_14">
      <g>
       <use style="stroke:#000000;stroke-width:0.8;" x="355.996204" xlink:href="#m9830875fec" y="252"/>
      </g>
     </g>
     <g id="text_7">
      <!-- 3.5 -->
      <g transform="translate(348.044642 266.598437)scale(0.1 -0.1)">
       <use xlink:href="#DejaVuSans-33"/>
       <use x="63.623047" xlink:href="#DejaVuSans-2e"/>
       <use x="95.410156" xlink:href="#DejaVuSans-35"/>
      </g>
     </g>
    </g>
    <g id="text_8">
     <!-- X0 -->
     <defs>
      <path d="M 6.296875 72.90625 
L 16.890625 72.90625 
L 35.015625 45.796875 
L 53.21875 72.90625 
L 63.8125 72.90625 
L 40.375 37.890625 
L 65.375 0 
L 54.78125 0 
L 34.28125 31 
L 13.625 0 
L 2.984375 0 
L 29 38.921875 
z
" id="DejaVuSans-58"/>
     </defs>
     <g transform="translate(214.79375 280.276563)scale(0.1 -0.1)">
      <use xlink:href="#DejaVuSans-58"/>
      <use x="68.505859" xlink:href="#DejaVuSans-30"/>
     </g>
    </g>
   </g>
   <g id="matplotlib.axis_2">
    <g id="ytick_1">
     <g id="line2d_15">
      <path clip-path="url(#p06cca450da)" d="M 54 245.264364 
L 388.8 245.264364 
" style="fill:none;stroke:#b0b0b0;stroke-linecap:square;stroke-width:0.8;"/>
     </g>
     <g id="line2d_16">
      <defs>
       <path d="M 0 0 
L -3.5 0 
" id="m696167156e" style="stroke:#000000;stroke-width:0.8;"/>
      </defs>
      <g>
       <use style="stroke:#000000;stroke-width:0.8;" x="54" xlink:href="#m696167156e" y="245.264364"/>
      </g>
     </g>
     <g id="text_9">
      <!-- −4 -->
      <defs>
       <path d="M 10.59375 35.5 
L 73.1875 35.5 
L 73.1875 27.203125 
L 10.59375 27.203125 
z
" id="DejaVuSans-2212"/>
       <path d="M 37.796875 64.3125 
L 12.890625 25.390625 
L 37.796875 25.390625 
z
M 35.203125 72.90625 
L 47.609375 72.90625 
L 47.609375 25.390625 
L 58.015625 25.390625 
L 58.015625 17.1875 
L 47.609375 17.1875 
L 47.609375 0 
L 37.796875 0 
L 37.796875 17.1875 
L 4.890625 17.1875 
L 4.890625 26.703125 
z
" id="DejaVuSans-34"/>
      </defs>
      <g transform="translate(32.257812 249.063583)scale(0.1 -0.1)">
       <use xlink:href="#DejaVuSans-2212"/>
       <use x="83.789062" xlink:href="#DejaVuSans-34"/>
      </g>
     </g>
    </g>
    <g id="ytick_2">
     <g id="line2d_17">
      <path clip-path="url(#p06cca450da)" d="M 54 216.125974 
L 388.8 216.125974 
" style="fill:none;stroke:#b0b0b0;stroke-linecap:square;stroke-width:0.8;"/>
     </g>
     <g id="line2d_18">
      <g>
       <use style="stroke:#000000;stroke-width:0.8;" x="54" xlink:href="#m696167156e" y="216.125974"/>
      </g>
     </g>
     <g id="text_10">
      <!-- −2 -->
      <g transform="translate(32.257812 219.925193)scale(0.1 -0.1)">
       <use xlink:href="#DejaVuSans-2212"/>
       <use x="83.789062" xlink:href="#DejaVuSans-32"/>
      </g>
     </g>
    </g>
    <g id="ytick_3">
     <g id="line2d_19">
      <path clip-path="url(#p06cca450da)" d="M 54 186.987585 
L 388.8 186.987585 
" style="fill:none;stroke:#b0b0b0;stroke-linecap:square;stroke-width:0.8;"/>
     </g>
     <g id="line2d_20">
      <g>
       <use style="stroke:#000000;stroke-width:0.8;" x="54" xlink:href="#m696167156e" y="186.987585"/>
      </g>
     </g>
     <g id="text_11">
      <!-- 0 -->
      <g transform="translate(40.6375 190.786803)scale(0.1 -0.1)">
       <use xlink:href="#DejaVuSans-30"/>
      </g>
     </g>
    </g>
    <g id="ytick_4">
     <g id="line2d_21">
      <path clip-path="url(#p06cca450da)" d="M 54 157.849195 
L 388.8 157.849195 
" style="fill:none;stroke:#b0b0b0;stroke-linecap:square;stroke-width:0.8;"/>
     </g>
     <g id="line2d_22">
      <g>
       <use style="stroke:#000000;stroke-width:0.8;" x="54" xlink:href="#m696167156e" y="157.849195"/>
      </g>
     </g>
     <g id="text_12">
      <!-- 2 -->
      <g transform="translate(40.6375 161.648414)scale(0.1 -0.1)">
       <use xlink:href="#DejaVuSans-32"/>
      </g>
     </g>
    </g>
    <g id="ytick_5">
     <g id="line2d_23">
      <path clip-path="url(#p06cca450da)" d="M 54 128.710805 
L 388.8 128.710805 
" style="fill:none;stroke:#b0b0b0;stroke-linecap:square;stroke-width:0.8;"/>
     </g>
     <g id="line2d_24">
      <g>
       <use style="stroke:#000000;stroke-width:0.8;" x="54" xlink:href="#m696167156e" y="128.710805"/>
      </g>
     </g>
     <g id="text_13">
      <!-- 4 -->
      <g transform="translate(40.6375 132.510024)scale(0.1 -0.1)">
       <use xlink:href="#DejaVuSans-34"/>
      </g>
     </g>
    </g>
    <g id="ytick_6">
     <g id="line2d_25">
      <path clip-path="url(#p06cca450da)" d="M 54 99.572415 
L 388.8 99.572415 
" style="fill:none;stroke:#b0b0b0;stroke-linecap:square;stroke-width:0.8;"/>
     </g>
     <g id="line2d_26">
      <g>
       <use style="stroke:#000000;stroke-width:0.8;" x="54" xlink:href="#m696167156e" y="99.572415"/>
      </g>
     </g>
     <g id="text_14">
      <!-- 6 -->
      <defs>
       <path d="M 33.015625 40.375 
Q 26.375 40.375 22.484375 35.828125 
Q 18.609375 31.296875 18.609375 23.390625 
Q 18.609375 15.53125 22.484375 10.953125 
Q 26.375 6.390625 33.015625 6.390625 
Q 39.65625 6.390625 43.53125 10.953125 
Q 47.40625 15.53125 47.40625 23.390625 
Q 47.40625 31.296875 43.53125 35.828125 
Q 39.65625 40.375 33.015625 40.375 
z
M 52.59375 71.296875 
L 52.59375 62.3125 
Q 48.875 64.0625 45.09375 64.984375 
Q 41.3125 65.921875 37.59375 65.921875 
Q 27.828125 65.921875 22.671875 59.328125 
Q 17.53125 52.734375 16.796875 39.40625 
Q 19.671875 43.65625 24.015625 45.921875 
Q 28.375 48.1875 33.59375 48.1875 
Q 44.578125 48.1875 50.953125 41.515625 
Q 57.328125 34.859375 57.328125 23.390625 
Q 57.328125 12.15625 50.6875 5.359375 
Q 44.046875 -1.421875 33.015625 -1.421875 
Q 20.359375 -1.421875 13.671875 8.265625 
Q 6.984375 17.96875 6.984375 36.375 
Q 6.984375 53.65625 15.1875 63.9375 
Q 23.390625 74.21875 37.203125 74.21875 
Q 40.921875 74.21875 44.703125 73.484375 
Q 48.484375 72.75 52.59375 71.296875 
z
" id="DejaVuSans-36"/>
      </defs>
      <g transform="translate(40.6375 103.371634)scale(0.1 -0.1)">
       <use xlink:href="#DejaVuSans-36"/>
      </g>
     </g>
    </g>
    <g id="ytick_7">
     <g id="line2d_27">
      <path clip-path="url(#p06cca450da)" d="M 54 70.434026 
L 388.8 70.434026 
" style="fill:none;stroke:#b0b0b0;stroke-linecap:square;stroke-width:0.8;"/>
     </g>
     <g id="line2d_28">
      <g>
       <use style="stroke:#000000;stroke-width:0.8;" x="54" xlink:href="#m696167156e" y="70.434026"/>
      </g>
     </g>
     <g id="text_15">
      <!-- 8 -->
      <defs>
       <path d="M 31.78125 34.625 
Q 24.75 34.625 20.71875 30.859375 
Q 16.703125 27.09375 16.703125 20.515625 
Q 16.703125 13.921875 20.71875 10.15625 
Q 24.75 6.390625 31.78125 6.390625 
Q 38.8125 6.390625 42.859375 10.171875 
Q 46.921875 13.96875 46.921875 20.515625 
Q 46.921875 27.09375 42.890625 30.859375 
Q 38.875 34.625 31.78125 34.625 
z
M 21.921875 38.8125 
Q 15.578125 40.375 12.03125 44.71875 
Q 8.5 49.078125 8.5 55.328125 
Q 8.5 64.0625 14.71875 69.140625 
Q 20.953125 74.21875 31.78125 74.21875 
Q 42.671875 74.21875 48.875 69.140625 
Q 55.078125 64.0625 55.078125 55.328125 
Q 55.078125 49.078125 51.53125 44.71875 
Q 48 40.375 41.703125 38.8125 
Q 48.828125 37.15625 52.796875 32.3125 
Q 56.78125 27.484375 56.78125 20.515625 
Q 56.78125 9.90625 50.3125 4.234375 
Q 43.84375 -1.421875 31.78125 -1.421875 
Q 19.734375 -1.421875 13.25 4.234375 
Q 6.78125 9.90625 6.78125 20.515625 
Q 6.78125 27.484375 10.78125 32.3125 
Q 14.796875 37.15625 21.921875 38.8125 
z
M 18.3125 54.390625 
Q 18.3125 48.734375 21.84375 45.5625 
Q 25.390625 42.390625 31.78125 42.390625 
Q 38.140625 42.390625 41.71875 45.5625 
Q 45.3125 48.734375 45.3125 54.390625 
Q 45.3125 60.0625 41.71875 63.234375 
Q 38.140625 66.40625 31.78125 66.40625 
Q 25.390625 66.40625 21.84375 63.234375 
Q 18.3125 60.0625 18.3125 54.390625 
z
" id="DejaVuSans-38"/>
      </defs>
      <g transform="translate(40.6375 74.233245)scale(0.1 -0.1)">
       <use xlink:href="#DejaVuSans-38"/>
      </g>
     </g>
    </g>
    <g id="ytick_8">
     <g id="line2d_29">
      <path clip-path="url(#p06cca450da)" d="M 54 41.295636 
L 388.8 41.295636 
" style="fill:none;stroke:#b0b0b0;stroke-linecap:square;stroke-width:0.8;"/>
     </g>
     <g id="line2d_30">
      <g>
       <use style="stroke:#000000;stroke-width:0.8;" x="54" xlink:href="#m696167156e" y="41.295636"/>
      </g>
     </g>
     <g id="text_16">
      <!-- 10 -->
      <g transform="translate(34.275 45.094855)scale(0.1 -0.1)">
       <use xlink:href="#DejaVuSans-31"/>
       <use x="63.623047" xlink:href="#DejaVuSans-30"/>
      </g>
     </g>
    </g>
    <g id="text_17">
     <!-- X1 -->
     <g transform="translate(26.178125 149.88625)rotate(-90)scale(0.1 -0.1)">
      <use xlink:href="#DejaVuSans-58"/>
      <use x="68.505859" xlink:href="#DejaVuSans-31"/>
     </g>
    </g>
   </g>
   <g id="LineCollection_1">
    <path clip-path="url(#p06cca450da)" d="M 334.350873 252 
L 336.4875 251.082111 
L 338.150297 250.30125 
L 339.103125 249.874315 
L 341.71875 248.6025 
L 344.334375 247.351382 
L 345.206412 246.90375 
L 346.95 246.034693 
L 348.512406 245.205 
L 349.565625 244.658071 
L 351.662585 243.50625 
L 352.18125 243.225678 
L 354.677678 241.8075 
L 354.796875 241.740339 
L 357.4125 240.221911 
L 357.601767 240.10875 
L 360.028125 238.65471 
L 360.424081 238.41 
L 362.64375 237.025218 
L 363.135238 236.71125 
L 365.259375 235.331703 
L 365.742802 235.0125 
L 367.875 233.570908 
L 368.251788 233.31375 
L 370.490625 231.737922 
L 370.664863 231.615 
L 373.002839 229.91625 
L 373.10625 229.838836 
L 375.289868 228.2175 
L 375.721875 227.880647 
L 377.495375 226.51875 
L 378.3375 225.834724 
L 379.615008 224.82 
L 380.953125 223.687605 
L 381.64236 223.12125 
L 383.56875 221.4225 
L 385.527009 219.72375 
L 386.184375 219.104924 
L 387.386693 218.025 
L 388.8 216.637341 
" style="fill:none;stroke:#0000ff;stroke-width:1.5;"/>
    <path clip-path="url(#p06cca450da)" d="M 54 216.637341 
L 55.413307 218.025 
L 56.615625 219.104924 
L 57.272991 219.72375 
L 59.23125 221.4225 
L 61.15764 223.12125 
L 61.846875 223.687605 
L 63.184992 224.82 
L 64.4625 225.834724 
L 65.304625 226.51875 
L 67.078125 227.880647 
L 67.510132 228.2175 
L 69.69375 229.838836 
L 69.797161 229.91625 
L 72.135137 231.615 
L 72.309375 231.737922 
L 74.548212 233.31375 
L 74.925 233.570908 
L 77.057198 235.0125 
L 77.540625 235.331703 
L 79.664762 236.71125 
L 80.15625 237.025218 
L 82.375919 238.41 
L 82.771875 238.65471 
L 85.198233 240.10875 
L 85.3875 240.221911 
L 88.003125 241.740339 
L 88.122322 241.8075 
L 90.61875 243.225678 
L 91.137415 243.50625 
L 93.234375 244.658071 
L 94.287594 245.205 
L 95.85 246.034693 
L 97.593588 246.90375 
L 98.465625 247.351382 
L 101.08125 248.6025 
L 103.696875 249.874315 
L 104.649703 250.30125 
L 106.3125 251.082111 
L 108.449127 252 
" style="fill:none;stroke:#0000ff;stroke-width:1.5;"/>
    <path clip-path="url(#p06cca450da)" d="M 388.8 69.922659 
L 387.386693 68.535 
L 386.184375 67.455076 
L 385.527009 66.83625 
L 383.56875 65.1375 
L 381.64236 63.43875 
L 380.953125 62.872395 
L 379.615008 61.74 
L 378.3375 60.725276 
L 377.495375 60.04125 
L 375.721875 58.679353 
L 375.289868 58.3425 
L 373.10625 56.721164 
L 373.002839 56.64375 
L 370.664863 54.945 
L 370.490625 54.822078 
L 368.251788 53.24625 
L 367.875 52.989092 
L 365.742802 51.5475 
L 365.259375 51.228297 
L 363.135238 49.84875 
L 362.64375 49.534782 
L 360.424081 48.15 
L 360.028125 47.90529 
L 357.601767 46.45125 
L 357.4125 46.338089 
L 354.796875 44.819661 
L 354.677678 44.7525 
L 352.18125 43.334322 
L 351.662585 43.05375 
L 349.565625 41.901929 
L 348.512406 41.355 
L 346.95 40.525307 
L 345.206412 39.65625 
L 344.334375 39.208618 
L 341.71875 37.9575 
L 339.103125 36.685685 
L 338.150297 36.25875 
L 336.4875 35.477889 
L 334.350873 34.56 
" style="fill:none;stroke:#0000ff;stroke-width:1.5;"/>
    <path clip-path="url(#p06cca450da)" d="M 108.449127 34.56 
L 106.3125 35.477889 
L 104.649703 36.25875 
L 103.696875 36.685685 
L 101.08125 37.9575 
L 98.465625 39.208618 
L 97.593588 39.65625 
L 95.85 40.525307 
L 94.287594 41.355 
L 93.234375 41.901929 
L 91.137415 43.05375 
L 90.61875 43.334322 
L 88.122322 44.7525 
L 88.003125 44.819661 
L 85.3875 46.338089 
L 85.198233 46.45125 
L 82.771875 47.90529 
L 82.375919 48.15 
L 80.15625 49.534782 
L 79.664762 49.84875 
L 77.540625 51.228297 
L 77.057198 51.5475 
L 74.925 52.989092 
L 74.548212 53.24625 
L 72.309375 54.822078 
L 72.135137 54.945 
L 69.797161 56.64375 
L 69.69375 56.721164 
L 67.510132 58.3425 
L 67.078125 58.679353 
L 65.304625 60.04125 
L 64.4625 60.725276 
L 63.184992 61.74 
L 61.846875 62.872395 
L 61.15764 63.43875 
L 59.23125 65.1375 
L 57.272991 66.83625 
L 56.615625 67.455076 
L 55.413307 68.535 
L 54 69.922659 
" style="fill:none;stroke:#0000ff;stroke-width:1.5;"/>
   </g>
   <g id="LineCollection_2">
    <path clip-path="url(#p06cca450da)" d="M 281.61723 252 
L 284.175 251.426596 
L 286.790625 250.764424 
L 288.458196 250.30125 
L 289.40625 250.065713 
L 292.021875 249.367032 
L 294.546608 248.6025 
L 294.6375 248.577622 
L 296.779102 247.967014 
" style="fill:none;stroke:#0000ff;stroke-width:1.5;"/>
    <path clip-path="url(#p06cca450da)" d="M 353.149304 220.921782 
L 354.796875 219.72375 
L 357.083285 218.025 
L 357.4125 217.768307 
L 359.279826 216.32625 
L 360.028125 215.715338 
L 361.383138 214.6275 
L 362.64375 213.549706 
L 363.387611 212.92875 
L 365.259375 211.25243 
L 365.28521 211.23 
L 367.193448 209.53125 
L 367.875 208.873947 
L 369.0007 207.8325 
L 370.490625 206.325437 
L 370.689585 206.13375 
L 372.385416 204.435 
L 373.10625 203.64706 
L 373.990285 202.73625 
L 375.497509 201.0375 
L 375.721875 200.771701 
L 377.018723 199.33875 
L 378.3375 197.695116 
L 378.38525 197.64 
L 379.809218 195.94125 
L 380.953125 194.388463 
L 381.070451 194.2425 
L 382.382171 192.54375 
L 383.530445 190.845 
L 383.56875 190.785969 
L 384.745926 189.14625 
L 385.82171 187.4475 
L 386.184375 186.831775 
L 386.89754 185.74875 
L 387.91711 184.05 
L 388.8 182.388824 
" style="fill:none;stroke:#0000ff;stroke-width:1.5;"/>
    <path clip-path="url(#p06cca450da)" d="M 54 182.388824 
L 54.88289 184.05 
L 55.90246 185.74875 
L 56.615625 186.831775 
L 56.97829 187.4475 
L 57.06554 187.585276 
" style="fill:none;stroke:#0000ff;stroke-width:1.5;"/>
    <path clip-path="url(#p06cca450da)" d="M 103.010553 229.518132 
L 103.696875 229.91625 
L 106.3125 231.401187 
L 106.70774 231.615 
L 108.928125 232.827758 
L 109.868767 233.31375 
L 111.54375 234.19378 
L 113.203268 235.0125 
L 114.159375 235.49561 
L 116.740464 236.71125 
L 116.775 236.728029 
L 119.390625 237.967358 
L 120.402698 238.41 
L 122.00625 239.1411 
L 124.326728 240.10875 
L 124.621875 240.237967 
L 127.2375 241.339345 
L 128.450719 241.8075 
L 129.853125 242.381647 
L 132.46875 243.360533 
L 132.878011 243.50625 
L 135.084375 244.348504 
L 137.615137 245.205 
L 137.7 245.236012 
L 140.315625 246.160825 
L 142.706506 246.90375 
L 142.93125 246.979949 
L 145.546875 247.831862 
L 148.1625 248.577622 
L 148.253392 248.6025 
L 150.778125 249.367032 
L 153.39375 250.065713 
L 154.341804 250.30125 
L 156.009375 250.764424 
L 158.625 251.426596 
L 161.18277 252 
" style="fill:none;stroke:#0000ff;stroke-width:1.5;"/>
    <path clip-path="url(#p06cca450da)" d="M 388.8 104.171176 
L 387.91711 102.51 
L 386.89754 100.81125 
L 386.184375 99.728225 
L 385.82171 99.1125 
L 385.73446 98.974724 
" style="fill:none;stroke:#0000ff;stroke-width:1.5;"/>
    <path clip-path="url(#p06cca450da)" d="M 339.789447 57.041868 
L 339.103125 56.64375 
L 339.103125 56.64375 
L 336.4875 55.158813 
L 336.09226 54.945 
L 333.871875 53.732242 
L 332.931233 53.24625 
L 331.25625 52.36622 
L 329.596732 51.5475 
L 328.640625 51.06439 
L 326.059536 49.84875 
L 326.025 49.831971 
L 323.409375 48.592642 
L 322.397302 48.15 
L 320.79375 47.4189 
L 318.473272 46.45125 
L 318.178125 46.322033 
L 315.5625 45.220655 
L 314.349281 44.7525 
L 312.946875 44.178353 
L 310.33125 43.199467 
L 309.921989 43.05375 
L 307.715625 42.211496 
L 305.184863 41.355 
L 305.1 41.323988 
L 302.484375 40.399175 
L 300.093494 39.65625 
L 299.86875 39.580051 
L 297.253125 38.728138 
L 294.6375 37.982378 
L 294.546608 37.9575 
L 292.021875 37.192968 
L 289.40625 36.494287 
L 288.458196 36.25875 
L 286.790625 35.795576 
L 284.175 35.133404 
L 281.61723 34.56 
" style="fill:none;stroke:#0000ff;stroke-width:1.5;"/>
    <path clip-path="url(#p06cca450da)" d="M 161.18277 34.56 
L 158.625 35.133404 
L 156.009375 35.795576 
L 154.341804 36.25875 
L 153.39375 36.494287 
L 150.778125 37.192968 
L 148.253392 37.9575 
L 148.1625 37.982378 
L 146.020898 38.592986 
" style="fill:none;stroke:#0000ff;stroke-width:1.5;"/>
    <path clip-path="url(#p06cca450da)" d="M 89.650696 65.638218 
L 88.003125 66.83625 
L 88.003125 66.83625 
L 85.716715 68.535 
L 85.3875 68.791693 
L 83.520174 70.23375 
L 82.771875 70.844662 
L 81.416862 71.9325 
L 80.15625 73.010294 
L 79.412389 73.63125 
L 77.540625 75.30757 
L 77.51479 75.33 
L 75.606552 77.02875 
L 74.925 77.686053 
L 73.7993 78.7275 
L 72.309375 80.234563 
L 72.110415 80.42625 
L 70.414584 82.125 
L 69.69375 82.91294 
L 68.809715 83.82375 
L 67.302491 85.5225 
L 67.078125 85.788299 
L 65.781277 87.22125 
L 64.4625 88.864884 
L 64.41475 88.92 
L 62.990782 90.61875 
L 61.846875 92.171537 
L 61.729549 92.3175 
L 60.417829 94.01625 
L 59.269555 95.715 
L 59.23125 95.774031 
L 58.054074 97.41375 
L 56.97829 99.1125 
L 56.615625 99.728225 
L 55.90246 100.81125 
L 54.88289 102.51 
L 54 104.171176 
" style="fill:none;stroke:#0000ff;stroke-width:1.5;"/>
   </g>
   <g id="LineCollection_3">
    <path clip-path="url(#p06cca450da)" d="M 244.919834 249.299663 
L 250.171875 248.722359 
L 260.634375 247.307639 
L 271.920224 245.205 
L 276.328125 244.276519 
L 286.790625 241.590559 
L 292.021875 240.04028 
L 297.253125 238.354187 
L 302.484375 236.52478 
L 307.715625 234.536426 
L 315.5625 231.19804 
L 323.409375 227.429505 
L 328.640625 224.620247 
L 334.128859 221.4225 
L 339.47163 218.025 
L 344.334375 214.6275 
L 349.565625 210.653824 
L 352.978754 207.8325 
L 358.56562 202.73625 
L 363.487366 197.64 
L 366.451217 194.2425 
L 370.490625 188.992447 
L 371.644803 187.4475 
L 374.950215 182.35125 
L 378.621578 175.55625 
L 380.209591 172.15875 
L 382.777352 165.36375 
L 384.22598 160.2675 
L 384.998054 156.87 
L 385.566737 153.4725 
L 385.956688 150.075 
L 386.252894 144.97875 
L 386.252894 141.58125 
L 385.956688 136.485 
L 385.566737 133.0875 
L 384.998054 129.69 
L 384.22598 126.2925 
L 382.777352 121.19625 
L 381.575007 117.79875 
L 378.621578 111.00375 
L 374.950215 104.20875 
L 372.772219 100.81125 
L 370.385199 97.41375 
L 369.164419 95.715 
L 364.972261 90.61875 
L 361.910722 87.22125 
L 356.770492 82.125 
L 350.967946 77.02875 
L 346.642433 73.63125 
L 341.71875 70.066848 
L 336.4875 66.59692 
L 331.25625 63.43875 
L 325.137842 60.04125 
L 320.79375 57.824551 
L 312.946875 54.196092 
L 305.1 50.999603 
L 297.077723 48.15 
L 292.021875 46.51972 
L 281.559375 43.554914 
L 271.096875 41.170502 
L 265.865625 40.139147 
L 255.403125 38.471483 
L 244.940625 37.262188 
L 237.09375 36.659882 
L 229.246875 36.319998 
L 221.4 36.199467 
L 213.553125 36.319998 
L 205.70625 36.659882 
L 197.859375 37.262188 
L 190.0125 38.146161 
L 184.78125 38.838707 
L 176.934375 40.139147 
L 170.879776 41.355 
L 166.471875 42.283481 
L 156.009375 44.969441 
L 150.778125 46.51972 
L 145.546875 48.205813 
L 140.315625 50.03522 
L 135.084375 52.023574 
L 127.2375 55.36196 
L 119.390625 59.130495 
L 114.159375 61.939753 
L 108.671141 65.1375 
L 103.32837 68.535 
L 98.465625 71.9325 
L 93.234375 75.906176 
L 89.821246 78.7275 
L 84.23438 83.82375 
L 79.312634 88.92 
L 76.348783 92.3175 
L 72.309375 97.567553 
L 71.155197 99.1125 
L 67.849785 104.20875 
L 64.178422 111.00375 
L 62.590409 114.40125 
L 60.022648 121.19625 
L 58.57402 126.2925 
L 57.801946 129.69 
L 57.233263 133.0875 
L 56.843312 136.485 
L 56.547106 141.58125 
L 56.547106 144.97875 
L 56.843312 150.075 
L 57.233263 153.4725 
L 57.801946 156.87 
L 58.57402 160.2675 
L 60.022648 165.36375 
L 61.224993 168.76125 
L 64.178422 175.55625 
L 67.849785 182.35125 
L 70.027781 185.74875 
L 72.414801 189.14625 
L 73.635581 190.845 
L 77.827739 195.94125 
L 80.889278 199.33875 
L 86.029508 204.435 
L 91.832054 209.53125 
L 96.157567 212.92875 
L 101.08125 216.493152 
L 106.3125 219.96308 
L 111.54375 223.12125 
L 117.662158 226.51875 
L 122.00625 228.735449 
L 129.853125 232.363908 
L 137.7 235.560397 
L 145.722277 238.41 
L 150.778125 240.04028 
L 161.240625 243.005086 
L 171.703125 245.389498 
L 176.934375 246.420853 
L 182.310664 247.330577 
L 182.310664 247.330577 
" style="fill:none;stroke:#0000ff;stroke-width:1.5;"/>
   </g>
   <g id="LineCollection_4">
    <path clip-path="url(#p06cca450da)" d="M 192.687179 45.299447 
L 190.0125 45.641905 
L 182.165625 46.856598 
L 176.934375 47.825097 
L 166.471875 50.152035 
L 161.240625 51.5475 
L 156.009375 53.057028 
L 148.1625 55.618227 
L 140.315625 58.598056 
L 135.084375 60.794597 
L 127.2375 64.503766 
L 122.00625 67.269342 
L 116.775 70.30831 
L 111.54375 73.63125 
L 106.3125 77.279091 
L 102.181332 80.42625 
L 98.140704 83.82375 
L 94.394331 87.22125 
L 89.397781 92.3175 
L 85.064414 97.41375 
L 82.480523 100.81125 
L 81.24685 102.51 
L 77.540625 108.461552 
L 76.089076 111.00375 
L 73.635581 116.1 
L 71.648586 121.19625 
L 70.54617 124.59375 
L 69.280664 129.69 
L 68.625772 133.0875 
L 68.176708 136.485 
L 67.914505 139.8825 
L 67.828285 143.28 
L 67.914505 146.6775 
L 68.176708 150.075 
L 68.625772 153.4725 
L 69.280664 156.87 
L 70.54617 161.96625 
L 71.648586 165.36375 
L 73.635581 170.46 
L 76.089076 175.55625 
L 79.017407 180.6525 
L 82.771875 186.127701 
L 83.713694 187.4475 
L 86.424092 190.845 
L 91.012239 195.94125 
L 94.394331 199.33875 
L 100.105468 204.435 
L 104.363722 207.8325 
L 109.042927 211.23 
L 114.159375 214.6275 
L 119.776083 218.025 
L 124.621875 220.708038 
L 129.853125 223.332274 
L 135.084375 225.765403 
L 142.93125 229.010474 
L 150.778125 231.824832 
L 156.009375 233.502972 
L 161.240625 235.0125 
L 166.471875 236.407965 
L 176.934375 238.734903 
L 182.165625 239.703402 
L 192.628125 241.253885 
L 200.475 242.075784 
L 208.321875 242.662745 
L 216.16875 242.963053 
L 224.015625 243.005086 
L 231.8625 242.792762 
L 239.709375 242.306153 
L 247.55625 241.549222 
L 252.7875 240.918095 
L 260.634375 239.703402 
L 265.865625 238.734903 
L 276.328125 236.407965 
L 281.559375 235.0125 
L 286.790625 233.502972 
L 294.6375 230.941773 
L 302.484375 227.961944 
L 307.715625 225.765403 
L 315.5625 222.056234 
L 320.79375 219.290658 
L 326.025 216.25169 
L 331.25625 212.92875 
L 331.25625 212.92875 
L 336.4875 209.280909 
L 340.618668 206.13375 
L 344.659296 202.73625 
L 348.405669 199.33875 
L 353.402219 194.2425 
L 357.735586 189.14625 
L 360.319477 185.74875 
L 361.55315 184.05 
L 365.259375 178.098448 
L 366.710924 175.55625 
L 369.164419 170.46 
L 371.151414 165.36375 
L 372.25383 161.96625 
L 373.519336 156.87 
L 374.174228 153.4725 
L 374.623292 150.075 
L 374.885495 146.6775 
L 374.971715 143.28 
L 374.885495 139.8825 
L 374.623292 136.485 
L 374.174228 133.0875 
L 373.519336 129.69 
L 372.25383 124.59375 
L 371.151414 121.19625 
L 369.164419 116.1 
L 366.710924 111.00375 
L 363.782593 105.9075 
L 360.028125 100.432299 
L 359.086306 99.1125 
L 356.375908 95.715 
L 351.787761 90.61875 
L 348.405669 87.22125 
L 342.694532 82.125 
L 338.436278 78.7275 
L 333.757073 75.33 
L 328.640625 71.9325 
L 323.023917 68.535 
L 318.178125 65.851962 
L 312.946875 63.227726 
L 307.715625 60.794597 
L 299.86875 57.549526 
L 292.021875 54.735168 
L 286.790625 53.057028 
L 281.559375 51.5475 
L 276.328125 50.152035 
L 265.865625 47.825097 
L 260.634375 46.856598 
L 255.295945 46.006514 
L 255.295945 46.006514 
" style="fill:none;stroke:#0000ff;stroke-width:1.5;"/>
   </g>
   <g id="LineCollection_5">
    <path clip-path="url(#p06cca450da)" d="M 293.899687 222.037565 
L 297.253125 220.708038 
L 305.1 217.216755 
L 310.33125 214.570182 
L 316.348469 211.23 
L 320.79375 208.498515 
L 324.343088 206.13375 
L 329.008844 202.73625 
L 333.871875 198.810304 
L 337.110209 195.94125 
L 340.618668 192.54375 
L 345.262983 187.4475 
L 347.998882 184.05 
L 351.586968 178.95375 
L 354.796875 173.478074 
L 356.375908 170.46 
L 358.56562 165.36375 
L 359.729028 161.96625 
L 361.161558 156.87 
L 361.839935 153.4725 
L 362.305104 150.075 
L 362.57671 146.6775 
L 362.670015 143.28 
L 362.57671 139.8825 
L 362.305104 136.485 
L 361.839935 133.0875 
L 361.161558 129.69 
L 360.028125 125.638199 
L 359.183395 122.895 
L 357.868273 119.4975 
L 355.527394 114.40125 
L 352.18125 108.586249 
L 350.459663 105.9075 
L 346.642433 100.81125 
L 343.779349 97.41375 
L 340.618668 94.01625 
L 335.243017 88.92 
L 331.167995 85.5225 
L 326.025 81.614542 
L 321.819237 78.7275 
L 318.178125 76.422339 
L 312.946875 73.392106 
L 306.901958 70.23375 
L 302.484375 68.130574 
L 295.444281 65.1375 
L 291.013583 63.43875 
L 286.170058 61.74 
L 281.559375 60.252999 
L 273.7125 58.035784 
L 267.897034 56.64375 
L 263.25 55.618227 
L 255.403125 54.196092 
L 248.563701 53.24625 
L 244.940625 52.788033 
L 239.709375 52.271497 
L 231.8625 51.767438 
L 224.015625 51.5475 
L 216.16875 51.59104 
L 208.321875 51.902117 
L 200.475 52.510128 
L 192.628125 53.440502 
L 187.396875 54.196092 
L 179.55 55.618227 
L 171.703125 57.364738 
L 163.85625 59.460606 
L 156.009375 61.939753 
L 150.778125 63.799219 
L 145.546875 65.851962 
L 137.7 69.343245 
L 132.46875 71.989818 
L 126.451531 75.33 
L 122.00625 78.061485 
L 118.456912 80.42625 
L 113.791156 83.82375 
L 108.928125 87.749696 
L 105.689791 90.61875 
L 102.181332 94.01625 
L 97.537017 99.1125 
L 94.801118 102.51 
L 91.213032 107.60625 
L 88.003125 113.081926 
L 86.424092 116.1 
L 84.23438 121.19625 
L 83.070972 124.59375 
L 81.638442 129.69 
L 80.960065 133.0875 
L 80.494896 136.485 
L 80.22329 139.8825 
L 80.129985 143.28 
L 80.22329 146.6775 
L 80.494896 150.075 
L 80.960065 153.4725 
L 81.638442 156.87 
L 82.771875 160.921801 
L 83.616605 163.665 
L 84.931727 167.0625 
L 87.272606 172.15875 
L 90.61875 177.973751 
L 92.340337 180.6525 
L 96.157567 185.74875 
L 99.020651 189.14625 
L 102.181332 192.54375 
L 107.556983 197.64 
L 111.632005 201.0375 
L 116.775 204.945458 
L 120.980763 207.8325 
L 124.621875 210.137661 
L 129.853125 213.167894 
L 135.898042 216.32625 
L 140.315625 218.429426 
L 147.355719 221.4225 
L 151.786417 223.12125 
L 156.629942 224.82 
L 161.240625 226.307001 
L 169.0875 228.524216 
L 174.902966 229.91625 
L 179.55 230.941773 
L 187.396875 232.363908 
L 194.236299 233.31375 
L 197.859375 233.771967 
L 203.090625 234.288503 
L 210.9375 234.792562 
L 218.784375 235.0125 
L 226.63125 234.96896 
L 234.478125 234.657883 
L 242.244642 234.057203 
L 242.244642 234.057203 
" style="fill:none;stroke:#0000ff;stroke-width:1.5;"/>
   </g>
   <g id="LineCollection_6">
    <path clip-path="url(#p06cca450da)" d="M 286.720367 71.982832 
L 278.94375 69.188368 
L 271.028323 66.83625 
L 265.865625 65.488661 
L 258.01875 63.78176 
L 250.171875 62.421996 
L 242.325 61.421689 
L 237.09375 60.91705 
L 229.246875 60.452655 
L 221.4 60.302532 
L 213.553125 60.452655 
L 205.70625 60.91705 
L 200.475 61.421689 
L 192.628125 62.421996 
L 186.707184 63.43875 
L 182.165625 64.300297 
L 174.31875 66.132656 
L 165.970665 68.535 
L 160.837701 70.23375 
L 156.009375 72.008989 
L 150.778125 74.130835 
L 144.495926 77.02875 
L 140.315625 79.159545 
L 135.084375 82.125 
L 129.697228 85.5225 
L 124.621875 89.125768 
L 120.570987 92.3175 
L 116.740464 95.715 
L 113.235459 99.1125 
L 110.112029 102.51 
L 106.3125 107.280733 
L 104.823639 109.305 
L 101.621944 114.40125 
L 98.99377 119.4975 
L 96.900093 124.59375 
L 95.85 127.99125 
L 94.939034 131.38875 
L 94.287594 134.78625 
L 93.867829 138.18375 
L 93.662188 141.58125 
L 93.662188 144.97875 
L 93.867829 148.37625 
L 94.287594 151.77375 
L 94.939034 155.17125 
L 95.85 158.56875 
L 96.900093 161.96625 
L 98.258155 165.36375 
L 100.690306 170.46 
L 103.724121 175.55625 
L 104.823639 177.255 
L 107.318513 180.6525 
L 110.112029 184.05 
L 114.159375 188.363998 
L 116.775 190.876243 
L 120.570987 194.2425 
L 124.892945 197.64 
L 129.853125 201.141511 
L 135.084375 204.435 
L 140.315625 207.400455 
L 145.546875 210.049569 
L 151.982586 212.92875 
L 156.214826 214.6275 
L 161.240625 216.472413 
L 166.471875 218.188422 
L 171.771677 219.72375 
L 176.934375 221.071339 
L 184.78125 222.77824 
L 192.628125 224.138004 
L 200.475 225.138311 
L 205.70625 225.64295 
L 213.553125 226.107345 
L 221.4 226.257468 
L 229.246875 226.107345 
L 237.09375 225.64295 
L 242.325 225.138311 
L 250.171875 224.138004 
L 256.092816 223.12125 
L 260.634375 222.259703 
L 268.48125 220.427344 
L 276.829335 218.025 
L 281.962299 216.32625 
L 286.790625 214.551011 
L 292.021875 212.429165 
L 298.304074 209.53125 
L 302.484375 207.400455 
L 307.715625 204.435 
L 313.102772 201.0375 
L 318.178125 197.434232 
L 322.229013 194.2425 
L 326.059536 190.845 
L 329.564541 187.4475 
L 332.687971 184.05 
L 336.4875 179.279267 
L 337.976361 177.255 
L 341.178056 172.15875 
L 343.80623 167.0625 
L 345.899907 161.96625 
L 346.95 158.56875 
L 347.860966 155.17125 
L 348.512406 151.77375 
L 348.932171 148.37625 
L 349.137812 144.97875 
L 349.137812 141.58125 
L 348.932171 138.18375 
L 348.512406 134.78625 
L 347.860966 131.38875 
L 346.95 127.99125 
L 345.899907 124.59375 
L 344.541845 121.19625 
L 342.109694 116.1 
L 339.075879 111.00375 
L 337.976361 109.305 
L 335.481487 105.9075 
L 332.687971 102.51 
L 330.991194 100.652288 
L 330.991194 100.652288 
" style="fill:none;stroke:#0000ff;stroke-width:1.5;"/>
   </g>
   <g id="LineCollection_7">
    <path clip-path="url(#p06cca450da)" d="M 189.005365 213.323037 
L 192.628125 214.000778 
L 200.475 215.152848 
L 205.70625 215.715338 
L 210.9375 216.101042 
L 218.784375 216.389104 
L 224.015625 216.389104 
L 231.8625 216.101042 
L 237.09375 215.715338 
L 242.325 215.152848 
L 250.171875 214.000778 
L 255.699712 212.92875 
L 260.634375 211.843845 
L 268.48125 209.713837 
L 276.328125 207.134091 
L 283.142709 204.435 
L 286.95084 202.73625 
L 292.021875 200.250259 
L 297.253125 197.330294 
L 302.484375 194.02202 
L 306.941366 190.845 
L 311.160018 187.4475 
L 315.5625 183.379566 
L 318.178125 180.6525 
L 321.117429 177.255 
L 323.690511 173.8575 
L 325.931954 170.46 
L 327.902798 167.0625 
L 330.291264 161.96625 
L 331.518845 158.56875 
L 332.534243 155.17125 
L 333.260364 151.77375 
L 333.72825 148.37625 
L 333.968654 144.97875 
L 333.968654 141.58125 
L 333.72825 138.18375 
L 333.260364 134.78625 
L 332.534243 131.38875 
L 331.518845 127.99125 
L 329.564541 122.895 
L 327.902798 119.4975 
L 325.931954 116.1 
L 323.690511 112.7025 
L 320.79375 108.921899 
L 319.718385 107.60625 
L 315.5625 103.180434 
L 312.946875 100.707196 
L 309.119107 97.41375 
L 304.623134 94.01625 
L 299.52927 90.61875 
L 294.6375 87.724102 
L 289.40625 84.984246 
L 283.142709 82.125 
L 278.94375 80.42625 
L 273.7125 78.517282 
L 268.48125 76.846163 
L 263.002855 75.33 
L 258.01875 74.110441 
L 250.171875 72.559222 
L 242.325 71.407152 
L 237.09375 70.844662 
L 231.8625 70.458958 
L 224.015625 70.170896 
L 218.784375 70.170896 
L 210.9375 70.458958 
L 205.70625 70.844662 
L 200.475 71.407152 
L 192.628125 72.559222 
L 187.100288 73.63125 
L 182.165625 74.716155 
L 174.31875 76.846163 
L 166.471875 79.425909 
L 159.657291 82.125 
L 155.84916 83.82375 
L 150.778125 86.309741 
L 145.546875 89.229706 
L 140.315625 92.53798 
L 135.858634 95.715 
L 131.639982 99.1125 
L 127.2375 103.180434 
L 124.621875 105.9075 
L 121.682571 109.305 
L 119.109489 112.7025 
L 116.868046 116.1 
L 114.897202 119.4975 
L 112.508736 124.59375 
L 111.281155 127.99125 
L 110.265757 131.38875 
L 109.539636 134.78625 
L 109.07175 138.18375 
L 108.831346 141.58125 
L 108.831346 144.97875 
L 109.07175 148.37625 
L 109.539636 151.77375 
L 110.265757 155.17125 
L 111.281155 158.56875 
L 113.235459 163.665 
L 114.897202 167.0625 
L 116.868046 170.46 
L 119.109489 173.8575 
L 122.00625 177.638101 
L 123.081615 178.95375 
L 127.2375 183.379566 
L 129.853125 185.852804 
L 133.680893 189.14625 
L 136.016489 190.961131 
L 136.016489 190.961131 
" style="fill:none;stroke:#0000ff;stroke-width:1.5;"/>
   </g>
   <g id="LineCollection_8">
    <path clip-path="url(#p06cca450da)" d="M 128.391652 130.330479 
L 127.587082 133.0875 
L 126.85973 136.485 
L 126.414799 139.8825 
L 126.268493 143.28 
L 126.414799 146.6775 
L 126.85973 150.075 
L 127.587082 153.4725 
L 128.598114 156.87 
L 129.960584 160.2675 
L 131.60125 163.665 
L 133.603188 167.0625 
L 135.977059 170.46 
L 138.74564 173.8575 
L 141.956505 177.255 
L 145.678314 180.6525 
L 149.943404 184.05 
L 153.39375 186.466109 
L 157.692762 189.14625 
L 161.240625 191.124283 
L 166.471875 193.713924 
L 171.703125 195.94125 
L 176.934375 197.886551 
L 182.165625 199.5519 
L 187.704914 201.0375 
L 192.628125 202.167833 
L 200.475 203.551332 
L 205.70625 204.20796 
L 213.553125 204.849627 
L 218.784375 205.040639 
L 224.015625 205.040639 
L 229.246875 204.849627 
L 234.717935 204.435 
L 239.709375 203.90698 
L 244.940625 203.137151 
L 252.7875 201.600909 
L 258.01875 200.300726 
L 263.25 198.758985 
L 268.48125 196.960896 
L 273.7125 194.87556 
L 278.94375 192.458385 
L 284.175 189.68837 
L 287.895167 187.4475 
L 292.021875 184.655453 
L 295.067522 182.35125 
L 299.054884 178.95375 
L 302.484375 175.55625 
L 305.479624 172.15875 
L 308.04382 168.76125 
L 310.220391 165.36375 
L 312.071664 161.96625 
L 313.564157 158.56875 
L 314.74949 155.17125 
L 315.600567 151.77375 
L 316.200915 148.37625 
L 316.495024 144.97875 
L 316.495024 141.58125 
L 316.200915 138.18375 
L 315.5625 134.630503 
L 314.74949 131.38875 
L 313.564157 127.99125 
L 312.071664 124.59375 
L 310.220391 121.19625 
L 308.04382 117.79875 
L 305.1 113.954732 
L 304.05436 112.7025 
L 300.843495 109.305 
L 297.121686 105.9075 
L 292.856596 102.51 
L 289.40625 100.093891 
L 285.107238 97.41375 
L 281.559375 95.435717 
L 276.328125 92.846076 
L 271.096875 90.61875 
L 265.865625 88.673449 
L 260.634375 87.0081 
L 255.095086 85.5225 
L 250.171875 84.392167 
L 242.325 83.008668 
L 237.09375 82.35204 
L 229.246875 81.710373 
L 224.015625 81.519361 
L 218.784375 81.519361 
L 213.553125 81.710373 
L 208.082065 82.125 
L 203.090625 82.65302 
L 197.859375 83.422849 
L 190.0125 84.959091 
L 184.78125 86.259274 
L 179.55 87.801015 
L 174.31875 89.599104 
L 169.0875 91.68444 
L 164.91344 93.593691 
L 164.91344 93.593691 
" style="fill:none;stroke:#0000ff;stroke-width:1.5;"/>
   </g>
   <g id="LineCollection_9">
    <path clip-path="url(#p06cca450da)" d="M 236.649636 96.441293 
L 231.8625 95.892697 
L 226.63125 95.528337 
L 221.4 95.404948 
L 216.16875 95.528337 
L 210.9375 95.892697 
L 205.70625 96.498278 
L 200.319039 97.41375 
L 195.24375 98.518328 
L 190.0125 99.96013 
L 184.78125 101.729776 
L 179.55 103.872869 
L 175.346369 105.9075 
L 171.703125 107.928485 
L 169.0875 109.559074 
L 166.471875 111.362051 
L 163.85625 113.3699 
L 160.723457 116.1 
L 157.423661 119.4975 
L 154.698876 122.895 
L 152.478883 126.2925 
L 150.728353 129.69 
L 149.36854 133.0875 
L 148.436106 136.485 
L 147.875089 139.8825 
L 147.685103 143.28 
L 147.875089 146.6775 
L 148.436106 150.075 
L 149.36854 153.4725 
L 150.728353 156.87 
L 152.478883 160.2675 
L 154.698876 163.665 
L 157.423661 167.0625 
L 160.723457 170.46 
L 163.85625 173.1901 
L 166.968032 175.55625 
L 169.478707 177.255 
L 172.254813 178.95375 
L 176.934375 181.461428 
L 182.165625 183.805513 
L 184.78125 184.830224 
L 190.0125 186.59987 
L 195.24375 188.041672 
L 200.475 189.178575 
L 205.70625 190.061722 
L 210.9375 190.667303 
L 216.16875 191.031663 
L 221.4 191.155052 
L 226.63125 191.031663 
L 231.8625 190.667303 
L 237.09375 190.061722 
L 242.480961 189.14625 
L 247.55625 188.041672 
L 252.7875 186.59987 
L 258.01875 184.830224 
L 263.25 182.687131 
L 267.453631 180.6525 
L 271.096875 178.631515 
L 273.7125 177.000926 
L 276.328125 175.197949 
L 278.94375 173.1901 
L 282.076543 170.46 
L 285.376339 167.0625 
L 288.101124 163.665 
L 290.321117 160.2675 
L 292.071647 156.87 
L 293.43146 153.4725 
L 294.363894 150.075 
L 294.924911 146.6775 
L 295.114897 143.28 
L 294.924911 139.8825 
L 294.363894 136.485 
L 293.43146 133.0875 
L 292.071647 129.69 
L 290.321117 126.2925 
L 288.101124 122.895 
L 285.376339 119.4975 
L 282.076543 116.1 
L 280.694122 114.852982 
L 280.694122 114.852982 
" style="fill:none;stroke:#0000ff;stroke-width:1.5;"/>
   </g>
   <g id="LineCollection_10">
    <path clip-path="url(#p06cca450da)" d="M 254.031518 161.007655 
L 254.992057 160.2675 
L 255.403125 159.914412 
L 256.871053 158.56875 
L 258.01875 157.374737 
L 258.478966 156.87 
L 259.836381 155.17125 
L 260.634375 153.999195 
L 260.979668 153.4725 
L 261.91721 151.77375 
L 262.671361 150.075 
L 263.25 148.37625 
L 263.25 148.37625 
L 263.655797 146.6775 
L 263.897625 144.97875 
L 263.977961 143.28 
L 263.897625 141.58125 
L 263.655797 139.8825 
L 263.25 138.18375 
L 263.25 138.18375 
L 262.671361 136.485 
L 261.91721 134.78625 
L 260.979668 133.0875 
L 260.634375 132.560805 
L 259.836381 131.38875 
L 258.478966 129.69 
L 258.01875 129.185263 
L 256.871053 127.99125 
L 255.403125 126.645588 
L 254.992057 126.2925 
L 252.7875 124.59375 
L 250.171875 122.895 
L 247.55625 121.463224 
L 247.012589 121.19625 
L 244.940625 120.242886 
L 243.102161 119.4975 
L 242.325 119.198607 
L 239.709375 118.317017 
L 237.904721 117.79875 
L 237.09375 117.574495 
L 234.478125 116.965597 
L 231.8625 116.475804 
L 229.246875 116.1 
L 229.246875 116.1 
L 226.63125 115.83645 
L 224.015625 115.679392 
L 221.4 115.627217 
L 218.784375 115.679392 
L 216.16875 115.83645 
L 213.553125 116.1 
L 213.553125 116.1 
L 210.9375 116.475804 
L 208.321875 116.965597 
L 205.70625 117.574495 
L 204.895279 117.79875 
L 203.090625 118.317017 
L 200.475 119.198607 
L 199.697839 119.4975 
L 197.859375 120.242886 
L 195.787411 121.19625 
L 195.24375 121.463224 
L 192.628125 122.895 
L 190.0125 124.59375 
L 187.807943 126.2925 
L 187.396875 126.645588 
L 185.928947 127.99125 
L 184.78125 129.185263 
L 184.321034 129.69 
L 182.963619 131.38875 
L 182.165625 132.560805 
L 181.820332 133.0875 
L 180.88279 134.78625 
L 180.128639 136.485 
L 179.55 138.18375 
L 179.55 138.18375 
L 179.144203 139.8825 
L 178.902375 141.58125 
L 178.822039 143.28 
L 178.902375 144.97875 
L 179.144203 146.6775 
L 179.55 148.37625 
L 179.55 148.37625 
L 180.128639 150.075 
L 180.88279 151.77375 
L 181.820332 153.4725 
L 182.165625 153.999195 
L 182.963619 155.17125 
L 184.321034 156.87 
L 184.78125 157.374737 
L 185.928947 158.56875 
L 187.396875 159.914412 
L 187.807943 160.2675 
L 190.0125 161.96625 
L 192.628125 163.665 
L 195.24375 165.096776 
L 195.787411 165.36375 
L 197.859375 166.317114 
L 199.697839 167.0625 
L 200.475 167.361393 
L 203.090625 168.242983 
L 204.895279 168.76125 
L 205.70625 168.985505 
L 207.812259 169.475768 
" style="fill:none;stroke:#0000ff;stroke-width:1.5;"/>
   </g>
   <g id="line2d_31">
    <defs>
     <path d="M -3 0 
L 3 0 
M 0 3 
L 0 -3 
" id="mce4c0d757d" style="stroke:#ff0000;"/>
    </defs>
    <g clip-path="url(#p06cca450da)">
     <use style="fill:#ff0000;stroke:#ff0000;" x="221.4" xlink:href="#mce4c0d757d" y="143.28"/>
     <use style="fill:#ff0000;stroke:#ff0000;" x="266.265401" xlink:href="#mce4c0d757d" y="143.28"/>
     <use style="fill:#ff0000;stroke:#ff0000;" x="176.534599" xlink:href="#mce4c0d757d" y="143.28"/>
     <use style="fill:#ff0000;stroke:#ff0000;" x="221.4" xlink:href="#mce4c0d757d" y="114.14161"/>
     <use style="fill:#ff0000;stroke:#ff0000;" x="221.4" xlink:href="#mce4c0d757d" y="172.41839"/>
     <use style="fill:#ff0000;stroke:#ff0000;" x="311.130803" xlink:href="#mce4c0d757d" y="143.28"/>
     <use style="fill:#ff0000;stroke:#ff0000;" x="131.669197" xlink:href="#mce4c0d757d" y="143.28"/>
     <use style="fill:#ff0000;stroke:#ff0000;" x="221.4" xlink:href="#mce4c0d757d" y="85.003221"/>
     <use style="fill:#ff0000;stroke:#ff0000;" x="221.4" xlink:href="#mce4c0d757d" y="201.556779"/>
     <use style="fill:#ff0000;stroke:#ff0000;" x="355.996204" xlink:href="#mce4c0d757d" y="143.28"/>
     <use style="fill:#ff0000;stroke:#ff0000;" x="86.803796" xlink:href="#mce4c0d757d" y="143.28"/>
     <use style="fill:#ff0000;stroke:#ff0000;" x="221.4" xlink:href="#mce4c0d757d" y="55.864831"/>
     <use style="fill:#ff0000;stroke:#ff0000;" x="221.4" xlink:href="#mce4c0d757d" y="230.695169"/>
    </g>
   </g>
   <g id="patch_3">
    <path d="M 54 252 
L 54 34.56 
" style="fill:none;stroke:#000000;stroke-linecap:square;stroke-linejoin:miter;stroke-width:0.8;"/>
   </g>
   <g id="patch_4">
    <path d="M 388.8 252 
L 388.8 34.56 
" style="fill:none;stroke:#000000;stroke-linecap:square;stroke-linejoin:miter;stroke-width:0.8;"/>
   </g>
   <g id="patch_5">
    <path d="M 54 252 
L 388.8 252 
" style="fill:none;stroke:#000000;stroke-linecap:square;stroke-linejoin:miter;stroke-width:0.8;"/>
   </g>
   <g id="patch_6">
    <path d="M 54 34.56 
L 388.8 34.56 
" style="fill:none;stroke:#000000;stroke-linecap:square;stroke-linejoin:miter;stroke-width:0.8;"/>
   </g>
   <g id="text_18">
    <g clip-path="url(#p06cca450da)">
     <!-- 6.13238e-05 -->
     <defs>
      <path d="M 56.203125 29.59375 
L 56.203125 25.203125 
L 14.890625 25.203125 
Q 15.484375 15.921875 20.484375 11.0625 
Q 25.484375 6.203125 34.421875 6.203125 
Q 39.59375 6.203125 44.453125 7.46875 
Q 49.3125 8.734375 54.109375 11.28125 
L 54.109375 2.78125 
Q 49.265625 0.734375 44.1875 -0.34375 
Q 39.109375 -1.421875 33.890625 -1.421875 
Q 20.796875 -1.421875 13.15625 6.1875 
Q 5.515625 13.8125 5.515625 26.8125 
Q 5.515625 40.234375 12.765625 48.109375 
Q 20.015625 56 32.328125 56 
Q 43.359375 56 49.78125 48.890625 
Q 56.203125 41.796875 56.203125 29.59375 
z
M 47.21875 32.234375 
Q 47.125 39.59375 43.09375 43.984375 
Q 39.0625 48.390625 32.421875 48.390625 
Q 24.90625 48.390625 20.390625 44.140625 
Q 15.875 39.890625 15.1875 32.171875 
z
" id="DejaVuSans-65"/>
      <path d="M 4.890625 31.390625 
L 31.203125 31.390625 
L 31.203125 23.390625 
L 4.890625 23.390625 
z
" id="DejaVuSans-2d"/>
     </defs>
     <g style="fill:#0000ff;" transform="translate(303.966958 249.705834)rotate(-25.522709)scale(0.08 -0.08)">
      <use xlink:href="#DejaVuSans-36"/>
      <use x="63.623047" xlink:href="#DejaVuSans-2e"/>
      <use x="95.410156" xlink:href="#DejaVuSans-31"/>
      <use x="159.033203" xlink:href="#DejaVuSans-33"/>
      <use x="222.65625" xlink:href="#DejaVuSans-32"/>
      <use x="286.279297" xlink:href="#DejaVuSans-33"/>
      <use x="349.902344" xlink:href="#DejaVuSans-38"/>
      <use x="413.525391" xlink:href="#DejaVuSans-65"/>
      <use x="475.048828" xlink:href="#DejaVuSans-2d"/>
      <use x="511.132812" xlink:href="#DejaVuSans-30"/>
      <use x="574.755859" xlink:href="#DejaVuSans-35"/>
     </g>
    </g>
   </g>
   <g id="text_19">
    <g clip-path="url(#p06cca450da)">
     <!-- 6.13238e-05 -->
     <g style="fill:#0000ff;" transform="translate(57.143524 195.731493)rotate(-317.790288)scale(0.08 -0.08)">
      <use xlink:href="#DejaVuSans-36"/>
      <use x="63.623047" xlink:href="#DejaVuSans-2e"/>
      <use x="95.410156" xlink:href="#DejaVuSans-31"/>
      <use x="159.033203" xlink:href="#DejaVuSans-33"/>
      <use x="222.65625" xlink:href="#DejaVuSans-32"/>
      <use x="286.279297" xlink:href="#DejaVuSans-33"/>
      <use x="349.902344" xlink:href="#DejaVuSans-38"/>
      <use x="413.525391" xlink:href="#DejaVuSans-65"/>
      <use x="475.048828" xlink:href="#DejaVuSans-2d"/>
      <use x="511.132812" xlink:href="#DejaVuSans-30"/>
      <use x="574.755859" xlink:href="#DejaVuSans-35"/>
     </g>
    </g>
   </g>
   <g id="text_20">
    <g clip-path="url(#p06cca450da)">
     <!-- 6.13238e-05 -->
     <g style="fill:#0000ff;" transform="translate(344.862274 59.786634)rotate(-317.790288)scale(0.08 -0.08)">
      <use xlink:href="#DejaVuSans-36"/>
      <use x="63.623047" xlink:href="#DejaVuSans-2e"/>
      <use x="95.410156" xlink:href="#DejaVuSans-31"/>
      <use x="159.033203" xlink:href="#DejaVuSans-33"/>
      <use x="222.65625" xlink:href="#DejaVuSans-32"/>
      <use x="286.279297" xlink:href="#DejaVuSans-33"/>
      <use x="349.902344" xlink:href="#DejaVuSans-38"/>
      <use x="413.525391" xlink:href="#DejaVuSans-65"/>
      <use x="475.048828" xlink:href="#DejaVuSans-2d"/>
      <use x="511.132812" xlink:href="#DejaVuSans-30"/>
      <use x="574.755859" xlink:href="#DejaVuSans-35"/>
     </g>
    </g>
   </g>
   <g id="text_21">
    <g clip-path="url(#p06cca450da)">
     <!-- 6.13238e-05 -->
     <g style="fill:#0000ff;" transform="translate(94.647887 62.843334)rotate(-25.522709)scale(0.08 -0.08)">
      <use xlink:href="#DejaVuSans-36"/>
      <use x="63.623047" xlink:href="#DejaVuSans-2e"/>
      <use x="95.410156" xlink:href="#DejaVuSans-31"/>
      <use x="159.033203" xlink:href="#DejaVuSans-33"/>
      <use x="222.65625" xlink:href="#DejaVuSans-32"/>
      <use x="286.279297" xlink:href="#DejaVuSans-33"/>
      <use x="349.902344" xlink:href="#DejaVuSans-38"/>
      <use x="413.525391" xlink:href="#DejaVuSans-65"/>
      <use x="475.048828" xlink:href="#DejaVuSans-2d"/>
      <use x="511.132812" xlink:href="#DejaVuSans-30"/>
      <use x="574.755859" xlink:href="#DejaVuSans-35"/>
     </g>
    </g>
   </g>
   <g id="text_22">
    <g clip-path="url(#p06cca450da)">
     <!-- 0.000186025 -->
     <g style="fill:#0000ff;" transform="translate(186.776003 251.612596)rotate(-358.211806)scale(0.08 -0.08)">
      <use xlink:href="#DejaVuSans-30"/>
      <use x="63.623047" xlink:href="#DejaVuSans-2e"/>
      <use x="95.410156" xlink:href="#DejaVuSans-30"/>
      <use x="159.033203" xlink:href="#DejaVuSans-30"/>
      <use x="222.65625" xlink:href="#DejaVuSans-30"/>
      <use x="286.279297" xlink:href="#DejaVuSans-31"/>
      <use x="349.902344" xlink:href="#DejaVuSans-38"/>
      <use x="413.525391" xlink:href="#DejaVuSans-36"/>
      <use x="477.148438" xlink:href="#DejaVuSans-30"/>
      <use x="540.771484" xlink:href="#DejaVuSans-32"/>
      <use x="604.394531" xlink:href="#DejaVuSans-35"/>
     </g>
    </g>
   </g>
   <g id="text_23">
    <g clip-path="url(#p06cca450da)">
     <!-- 0.000456309 -->
     <defs>
      <path d="M 10.984375 1.515625 
L 10.984375 10.5 
Q 14.703125 8.734375 18.5 7.8125 
Q 22.3125 6.890625 25.984375 6.890625 
Q 35.75 6.890625 40.890625 13.453125 
Q 46.046875 20.015625 46.78125 33.40625 
Q 43.953125 29.203125 39.59375 26.953125 
Q 35.25 24.703125 29.984375 24.703125 
Q 19.046875 24.703125 12.671875 31.3125 
Q 6.296875 37.9375 6.296875 49.421875 
Q 6.296875 60.640625 12.9375 67.421875 
Q 19.578125 74.21875 30.609375 74.21875 
Q 43.265625 74.21875 49.921875 64.515625 
Q 56.59375 54.828125 56.59375 36.375 
Q 56.59375 19.140625 48.40625 8.859375 
Q 40.234375 -1.421875 26.421875 -1.421875 
Q 22.703125 -1.421875 18.890625 -0.6875 
Q 15.09375 0.046875 10.984375 1.515625 
z
M 30.609375 32.421875 
Q 37.25 32.421875 41.125 36.953125 
Q 45.015625 41.5 45.015625 49.421875 
Q 45.015625 57.28125 41.125 61.84375 
Q 37.25 66.40625 30.609375 66.40625 
Q 23.96875 66.40625 20.09375 61.84375 
Q 16.21875 57.28125 16.21875 49.421875 
Q 16.21875 41.5 20.09375 36.953125 
Q 23.96875 32.421875 30.609375 32.421875 
z
" id="DejaVuSans-39"/>
     </defs>
     <g style="fill:#0000ff;" transform="translate(197.272577 45.480434)rotate(-359.395631)scale(0.08 -0.08)">
      <use xlink:href="#DejaVuSans-30"/>
      <use x="63.623047" xlink:href="#DejaVuSans-2e"/>
      <use x="95.410156" xlink:href="#DejaVuSans-30"/>
      <use x="159.033203" xlink:href="#DejaVuSans-30"/>
      <use x="222.65625" xlink:href="#DejaVuSans-30"/>
      <use x="286.279297" xlink:href="#DejaVuSans-34"/>
      <use x="349.902344" xlink:href="#DejaVuSans-35"/>
      <use x="413.525391" xlink:href="#DejaVuSans-36"/>
      <use x="477.148438" xlink:href="#DejaVuSans-33"/>
      <use x="540.771484" xlink:href="#DejaVuSans-30"/>
      <use x="604.394531" xlink:href="#DejaVuSans-39"/>
     </g>
    </g>
   </g>
   <g id="text_24">
    <g clip-path="url(#p06cca450da)">
     <!-- 0.0011193 -->
     <g style="fill:#0000ff;" transform="translate(247.902118 236.812282)rotate(-13.009236)scale(0.08 -0.08)">
      <use xlink:href="#DejaVuSans-30"/>
      <use x="63.623047" xlink:href="#DejaVuSans-2e"/>
      <use x="95.410156" xlink:href="#DejaVuSans-30"/>
      <use x="159.033203" xlink:href="#DejaVuSans-30"/>
      <use x="222.65625" xlink:href="#DejaVuSans-31"/>
      <use x="286.279297" xlink:href="#DejaVuSans-31"/>
      <use x="349.902344" xlink:href="#DejaVuSans-31"/>
      <use x="413.525391" xlink:href="#DejaVuSans-39"/>
      <use x="477.148438" xlink:href="#DejaVuSans-33"/>
     </g>
    </g>
   </g>
   <g id="text_25">
    <g clip-path="url(#p06cca450da)">
     <!-- 0.0027643 -->
     <defs>
      <path d="M 8.203125 72.90625 
L 55.078125 72.90625 
L 55.078125 68.703125 
L 28.609375 0 
L 18.3125 0 
L 43.21875 64.59375 
L 8.203125 64.59375 
z
" id="DejaVuSans-37"/>
     </defs>
     <g style="fill:#0000ff;" transform="translate(291.097497 73.992138)rotate(-327.290625)scale(0.08 -0.08)">
      <use xlink:href="#DejaVuSans-30"/>
      <use x="63.623047" xlink:href="#DejaVuSans-2e"/>
      <use x="95.410156" xlink:href="#DejaVuSans-30"/>
      <use x="159.033203" xlink:href="#DejaVuSans-30"/>
      <use x="222.65625" xlink:href="#DejaVuSans-32"/>
      <use x="286.279297" xlink:href="#DejaVuSans-37"/>
      <use x="349.902344" xlink:href="#DejaVuSans-36"/>
      <use x="413.525391" xlink:href="#DejaVuSans-34"/>
      <use x="477.148438" xlink:href="#DejaVuSans-33"/>
     </g>
    </g>
   </g>
   <g id="text_26">
    <g clip-path="url(#p06cca450da)">
     <!-- 0.00682692 -->
     <g style="fill:#0000ff;" transform="translate(138.087264 197.811877)rotate(-337.283998)scale(0.08 -0.08)">
      <use xlink:href="#DejaVuSans-30"/>
      <use x="63.623047" xlink:href="#DejaVuSans-2e"/>
      <use x="95.410156" xlink:href="#DejaVuSans-30"/>
      <use x="159.033203" xlink:href="#DejaVuSans-30"/>
      <use x="222.65625" xlink:href="#DejaVuSans-36"/>
      <use x="286.279297" xlink:href="#DejaVuSans-38"/>
      <use x="349.902344" xlink:href="#DejaVuSans-32"/>
      <use x="413.525391" xlink:href="#DejaVuSans-36"/>
      <use x="477.148438" xlink:href="#DejaVuSans-39"/>
      <use x="540.771484" xlink:href="#DejaVuSans-32"/>
     </g>
    </g>
   </g>
   <g id="text_27">
    <g clip-path="url(#p06cca450da)">
     <!-- 0.0168316 -->
     <g style="fill:#0000ff;" transform="translate(129.084987 125.143768)rotate(-44.619646)scale(0.08 -0.08)">
      <use xlink:href="#DejaVuSans-30"/>
      <use x="63.623047" xlink:href="#DejaVuSans-2e"/>
      <use x="95.410156" xlink:href="#DejaVuSans-30"/>
      <use x="159.033203" xlink:href="#DejaVuSans-31"/>
      <use x="222.65625" xlink:href="#DejaVuSans-36"/>
      <use x="286.279297" xlink:href="#DejaVuSans-38"/>
      <use x="349.902344" xlink:href="#DejaVuSans-33"/>
      <use x="413.525391" xlink:href="#DejaVuSans-31"/>
      <use x="477.148438" xlink:href="#DejaVuSans-36"/>
     </g>
    </g>
   </g>
   <g id="text_28">
    <g clip-path="url(#p06cca450da)">
     <!-- 0.041287 -->
     <g style="fill:#0000ff;" transform="translate(241.521869 97.297454)rotate(-337.661116)scale(0.08 -0.08)">
      <use xlink:href="#DejaVuSans-30"/>
      <use x="63.623047" xlink:href="#DejaVuSans-2e"/>
      <use x="95.410156" xlink:href="#DejaVuSans-30"/>
      <use x="159.033203" xlink:href="#DejaVuSans-34"/>
      <use x="222.65625" xlink:href="#DejaVuSans-31"/>
      <use x="286.279297" xlink:href="#DejaVuSans-32"/>
      <use x="349.902344" xlink:href="#DejaVuSans-38"/>
      <use x="413.525391" xlink:href="#DejaVuSans-37"/>
     </g>
    </g>
   </g>
   <g id="text_29">
    <g clip-path="url(#p06cca450da)">
     <!-- 0.101447 -->
     <g style="fill:#0000ff;" transform="translate(213.445982 175.560494)rotate(-9.962796)scale(0.08 -0.08)">
      <use xlink:href="#DejaVuSans-30"/>
      <use x="63.623047" xlink:href="#DejaVuSans-2e"/>
      <use x="95.410156" xlink:href="#DejaVuSans-31"/>
      <use x="159.033203" xlink:href="#DejaVuSans-30"/>
      <use x="222.65625" xlink:href="#DejaVuSans-31"/>
      <use x="286.279297" xlink:href="#DejaVuSans-34"/>
      <use x="349.902344" xlink:href="#DejaVuSans-34"/>
      <use x="413.525391" xlink:href="#DejaVuSans-37"/>
     </g>
    </g>
   </g>
   <g id="text_30">
    <!-- [X0,X1] iso-PDF -->
    <defs>
     <path d="M 8.59375 75.984375 
L 29.296875 75.984375 
L 29.296875 69 
L 17.578125 69 
L 17.578125 -6.203125 
L 29.296875 -6.203125 
L 29.296875 -13.1875 
L 8.59375 -13.1875 
z
" id="DejaVuSans-5b"/>
     <path d="M 11.71875 12.40625 
L 22.015625 12.40625 
L 22.015625 4 
L 14.015625 -11.625 
L 7.71875 -11.625 
L 11.71875 4 
z
" id="DejaVuSans-2c"/>
     <path d="M 30.421875 75.984375 
L 30.421875 -13.1875 
L 9.71875 -13.1875 
L 9.71875 -6.203125 
L 21.390625 -6.203125 
L 21.390625 69 
L 9.71875 69 
L 9.71875 75.984375 
z
" id="DejaVuSans-5d"/>
     <path id="DejaVuSans-20"/>
     <path d="M 9.421875 54.6875 
L 18.40625 54.6875 
L 18.40625 0 
L 9.421875 0 
z
M 9.421875 75.984375 
L 18.40625 75.984375 
L 18.40625 64.59375 
L 9.421875 64.59375 
z
" id="DejaVuSans-69"/>
     <path d="M 44.28125 53.078125 
L 44.28125 44.578125 
Q 40.484375 46.53125 36.375 47.5 
Q 32.28125 48.484375 27.875 48.484375 
Q 21.1875 48.484375 17.84375 46.4375 
Q 14.5 44.390625 14.5 40.28125 
Q 14.5 37.15625 16.890625 35.375 
Q 19.28125 33.59375 26.515625 31.984375 
L 29.59375 31.296875 
Q 39.15625 29.25 43.1875 25.515625 
Q 47.21875 21.78125 47.21875 15.09375 
Q 47.21875 7.46875 41.1875 3.015625 
Q 35.15625 -1.421875 24.609375 -1.421875 
Q 20.21875 -1.421875 15.453125 -0.5625 
Q 10.6875 0.296875 5.421875 2 
L 5.421875 11.28125 
Q 10.40625 8.6875 15.234375 7.390625 
Q 20.0625 6.109375 24.8125 6.109375 
Q 31.15625 6.109375 34.5625 8.28125 
Q 37.984375 10.453125 37.984375 14.40625 
Q 37.984375 18.0625 35.515625 20.015625 
Q 33.0625 21.96875 24.703125 23.78125 
L 21.578125 24.515625 
Q 13.234375 26.265625 9.515625 29.90625 
Q 5.8125 33.546875 5.8125 39.890625 
Q 5.8125 47.609375 11.28125 51.796875 
Q 16.75 56 26.8125 56 
Q 31.78125 56 36.171875 55.265625 
Q 40.578125 54.546875 44.28125 53.078125 
z
" id="DejaVuSans-73"/>
     <path d="M 30.609375 48.390625 
Q 23.390625 48.390625 19.1875 42.75 
Q 14.984375 37.109375 14.984375 27.296875 
Q 14.984375 17.484375 19.15625 11.84375 
Q 23.34375 6.203125 30.609375 6.203125 
Q 37.796875 6.203125 41.984375 11.859375 
Q 46.1875 17.53125 46.1875 27.296875 
Q 46.1875 37.015625 41.984375 42.703125 
Q 37.796875 48.390625 30.609375 48.390625 
z
M 30.609375 56 
Q 42.328125 56 49.015625 48.375 
Q 55.71875 40.765625 55.71875 27.296875 
Q 55.71875 13.875 49.015625 6.21875 
Q 42.328125 -1.421875 30.609375 -1.421875 
Q 18.84375 -1.421875 12.171875 6.21875 
Q 5.515625 13.875 5.515625 27.296875 
Q 5.515625 40.765625 12.171875 48.375 
Q 18.84375 56 30.609375 56 
z
" id="DejaVuSans-6f"/>
     <path d="M 19.671875 64.796875 
L 19.671875 37.40625 
L 32.078125 37.40625 
Q 38.96875 37.40625 42.71875 40.96875 
Q 46.484375 44.53125 46.484375 51.125 
Q 46.484375 57.671875 42.71875 61.234375 
Q 38.96875 64.796875 32.078125 64.796875 
z
M 9.8125 72.90625 
L 32.078125 72.90625 
Q 44.34375 72.90625 50.609375 67.359375 
Q 56.890625 61.8125 56.890625 51.125 
Q 56.890625 40.328125 50.609375 34.8125 
Q 44.34375 29.296875 32.078125 29.296875 
L 19.671875 29.296875 
L 19.671875 0 
L 9.8125 0 
z
" id="DejaVuSans-50"/>
     <path d="M 19.671875 64.796875 
L 19.671875 8.109375 
L 31.59375 8.109375 
Q 46.6875 8.109375 53.6875 14.9375 
Q 60.6875 21.78125 60.6875 36.53125 
Q 60.6875 51.171875 53.6875 57.984375 
Q 46.6875 64.796875 31.59375 64.796875 
z
M 9.8125 72.90625 
L 30.078125 72.90625 
Q 51.265625 72.90625 61.171875 64.09375 
Q 71.09375 55.28125 71.09375 36.53125 
Q 71.09375 17.671875 61.125 8.828125 
Q 51.171875 0 30.078125 0 
L 9.8125 0 
z
" id="DejaVuSans-44"/>
     <path d="M 9.8125 72.90625 
L 51.703125 72.90625 
L 51.703125 64.59375 
L 19.671875 64.59375 
L 19.671875 43.109375 
L 48.578125 43.109375 
L 48.578125 34.8125 
L 19.671875 34.8125 
L 19.671875 0 
L 9.8125 0 
z
" id="DejaVuSans-46"/>
    </defs>
    <g transform="translate(174.73125 28.56)scale(0.12 -0.12)">
     <use xlink:href="#DejaVuSans-5b"/>
     <use x="39.013672" xlink:href="#DejaVuSans-58"/>
     <use x="107.519531" xlink:href="#DejaVuSans-30"/>
     <use x="171.142578" xlink:href="#DejaVuSans-2c"/>
     <use x="202.929688" xlink:href="#DejaVuSans-58"/>
     <use x="271.435547" xlink:href="#DejaVuSans-31"/>
     <use x="335.058594" xlink:href="#DejaVuSans-5d"/>
     <use x="374.072266" xlink:href="#DejaVuSans-20"/>
     <use x="405.859375" xlink:href="#DejaVuSans-69"/>
     <use x="433.642578" xlink:href="#DejaVuSans-73"/>
     <use x="485.742188" xlink:href="#DejaVuSans-6f"/>
     <use x="546.939453" xlink:href="#DejaVuSans-2d"/>
     <use x="583.023438" xlink:href="#DejaVuSans-50"/>
     <use x="643.326172" xlink:href="#DejaVuSans-44"/>
     <use x="720.328125" xlink:href="#DejaVuSans-46"/>
    </g>
   </g>
   <g id="legend_1">
    <g id="patch_7">
     <path d="M 274.01875 73.91625 
L 383.8 73.91625 
Q 385.8 73.91625 385.8 71.91625 
L 385.8 43.56 
Q 385.8 41.56 383.8 41.56 
L 274.01875 41.56 
Q 272.01875 41.56 272.01875 43.56 
L 272.01875 71.91625 
Q 272.01875 73.91625 274.01875 73.91625 
z
" style="fill:#4c4c4c;opacity:0.5;stroke:#4c4c4c;stroke-linejoin:miter;"/>
    </g>
    <g id="patch_8">
     <path d="M 272.01875 71.91625 
L 381.8 71.91625 
Q 383.8 71.91625 383.8 69.91625 
L 383.8 41.56 
Q 383.8 39.56 381.8 39.56 
L 272.01875 39.56 
Q 270.01875 39.56 270.01875 41.56 
L 270.01875 69.91625 
Q 270.01875 71.91625 272.01875 71.91625 
z
" style="fill:#ffffff;opacity:0.8;stroke:#cccccc;stroke-linejoin:miter;"/>
    </g>
    <g id="line2d_32"/>
    <g id="line2d_33">
     <g>
      <use style="fill:#ff0000;stroke:#ff0000;" x="284.01875" xlink:href="#mce4c0d757d" y="47.658437"/>
     </g>
    </g>
    <g id="text_31">
     <!-- design -->
     <defs>
      <path d="M 45.40625 46.390625 
L 45.40625 75.984375 
L 54.390625 75.984375 
L 54.390625 0 
L 45.40625 0 
L 45.40625 8.203125 
Q 42.578125 3.328125 38.25 0.953125 
Q 33.9375 -1.421875 27.875 -1.421875 
Q 17.96875 -1.421875 11.734375 6.484375 
Q 5.515625 14.40625 5.515625 27.296875 
Q 5.515625 40.1875 11.734375 48.09375 
Q 17.96875 56 27.875 56 
Q 33.9375 56 38.25 53.625 
Q 42.578125 51.265625 45.40625 46.390625 
z
M 14.796875 27.296875 
Q 14.796875 17.390625 18.875 11.75 
Q 22.953125 6.109375 30.078125 6.109375 
Q 37.203125 6.109375 41.296875 11.75 
Q 45.40625 17.390625 45.40625 27.296875 
Q 45.40625 37.203125 41.296875 42.84375 
Q 37.203125 48.484375 30.078125 48.484375 
Q 22.953125 48.484375 18.875 42.84375 
Q 14.796875 37.203125 14.796875 27.296875 
z
" id="DejaVuSans-64"/>
      <path d="M 45.40625 27.984375 
Q 45.40625 37.75 41.375 43.109375 
Q 37.359375 48.484375 30.078125 48.484375 
Q 22.859375 48.484375 18.828125 43.109375 
Q 14.796875 37.75 14.796875 27.984375 
Q 14.796875 18.265625 18.828125 12.890625 
Q 22.859375 7.515625 30.078125 7.515625 
Q 37.359375 7.515625 41.375 12.890625 
Q 45.40625 18.265625 45.40625 27.984375 
z
M 54.390625 6.78125 
Q 54.390625 -7.171875 48.1875 -13.984375 
Q 42 -20.796875 29.203125 -20.796875 
Q 24.46875 -20.796875 20.265625 -20.09375 
Q 16.0625 -19.390625 12.109375 -17.921875 
L 12.109375 -9.1875 
Q 16.0625 -11.328125 19.921875 -12.34375 
Q 23.78125 -13.375 27.78125 -13.375 
Q 36.625 -13.375 41.015625 -8.765625 
Q 45.40625 -4.15625 45.40625 5.171875 
L 45.40625 9.625 
Q 42.625 4.78125 38.28125 2.390625 
Q 33.9375 0 27.875 0 
Q 17.828125 0 11.671875 7.65625 
Q 5.515625 15.328125 5.515625 27.984375 
Q 5.515625 40.671875 11.671875 48.328125 
Q 17.828125 56 27.875 56 
Q 33.9375 56 38.28125 53.609375 
Q 42.625 51.21875 45.40625 46.390625 
L 45.40625 54.6875 
L 54.390625 54.6875 
z
" id="DejaVuSans-67"/>
      <path d="M 54.890625 33.015625 
L 54.890625 0 
L 45.90625 0 
L 45.90625 32.71875 
Q 45.90625 40.484375 42.875 44.328125 
Q 39.84375 48.1875 33.796875 48.1875 
Q 26.515625 48.1875 22.3125 43.546875 
Q 18.109375 38.921875 18.109375 30.90625 
L 18.109375 0 
L 9.078125 0 
L 9.078125 54.6875 
L 18.109375 54.6875 
L 18.109375 46.1875 
Q 21.34375 51.125 25.703125 53.5625 
Q 30.078125 56 35.796875 56 
Q 45.21875 56 50.046875 50.171875 
Q 54.890625 44.34375 54.890625 33.015625 
z
" id="DejaVuSans-6e"/>
     </defs>
     <g transform="translate(302.01875 51.158437)scale(0.1 -0.1)">
      <use xlink:href="#DejaVuSans-64"/>
      <use x="63.476562" xlink:href="#DejaVuSans-65"/>
      <use x="125" xlink:href="#DejaVuSans-73"/>
      <use x="177.099609" xlink:href="#DejaVuSans-69"/>
      <use x="204.882812" xlink:href="#DejaVuSans-67"/>
      <use x="268.359375" xlink:href="#DejaVuSans-6e"/>
     </g>
    </g>
    <g id="line2d_34">
     <path d="M 274.01875 62.336562 
L 294.01875 62.336562 
" style="fill:none;stroke:#0000ff;stroke-width:1.5;"/>
    </g>
    <g id="text_32">
     <!-- [X0,X1] iso-PDF -->
     <g transform="translate(302.01875 65.836562)scale(0.1 -0.1)">
      <use xlink:href="#DejaVuSans-5b"/>
      <use x="39.013672" xlink:href="#DejaVuSans-58"/>
      <use x="107.519531" xlink:href="#DejaVuSans-30"/>
      <use x="171.142578" xlink:href="#DejaVuSans-2c"/>
      <use x="202.929688" xlink:href="#DejaVuSans-58"/>
      <use x="271.435547" xlink:href="#DejaVuSans-31"/>
      <use x="335.058594" xlink:href="#DejaVuSans-5d"/>
      <use x="374.072266" xlink:href="#DejaVuSans-20"/>
      <use x="405.859375" xlink:href="#DejaVuSans-69"/>
      <use x="433.642578" xlink:href="#DejaVuSans-73"/>
      <use x="485.742188" xlink:href="#DejaVuSans-6f"/>
      <use x="546.939453" xlink:href="#DejaVuSans-2d"/>
      <use x="583.023438" xlink:href="#DejaVuSans-50"/>
      <use x="643.326172" xlink:href="#DejaVuSans-44"/>
      <use x="720.328125" xlink:href="#DejaVuSans-46"/>
     </g>
    </g>
   </g>
  </g>
 </g>
 <defs>
  <clipPath id="p06cca450da">
   <rect height="217.44" width="334.8" x="54" y="34.56"/>
  </clipPath>
 </defs>
</svg>
