<?xml version="1.0" encoding="utf-8" standalone="no"?>
<!DOCTYPE svg PUBLIC "-//W3C//DTD SVG 1.1//EN"
  "http://www.w3.org/Graphics/SVG/1.1/DTD/svg11.dtd">
<!-- Created with matplotlib (http://matplotlib.org/) -->
<svg height="288pt" version="1.1" viewBox="0 0 432 288" width="432pt" xmlns="http://www.w3.org/2000/svg" xmlns:xlink="http://www.w3.org/1999/xlink">
 <defs>
  <style type="text/css">
*{stroke-linecap:butt;stroke-linejoin:round;stroke-miterlimit:100000;}
  </style>
 </defs>
 <g id="figure_1">
  <g id="patch_1">
   <path d="M 0 288 
L 432 288 
L 432 0 
L 0 0 
z
" style="fill:#ffffff;"/>
  </g>
  <g id="axes_1">
   <g id="patch_2">
    <path d="M 54 252 
L 388.8 252 
L 388.8 28.8 
L 54 28.8 
z
" style="fill:#ffffff;"/>
   </g>
   <g id="LineCollection_1">
    <path clip-path="url(#p1644334733)" d="M 54 144.669641 
L 54.114963 145.155682 
L 54.362046 146.163737 
" style="fill:none;stroke:#0000ff;"/>
    <path clip-path="url(#p1644334733)" d="M 73.234979 190.455088 
L 73.698216 191.127273 
L 74.833287 192.7125 
L 74.925 192.83723 
L 76.026159 194.297727 
L 77.267891 195.882955 
L 77.540625 196.22129 
L 78.572914 197.468182 
L 79.935096 199.053409 
L 80.15625 199.303602 
L 81.370175 200.638636 
L 82.771875 202.122849 
L 82.870118 202.223864 
L 84.455172 203.809091 
L 85.3875 204.709169 
L 86.119547 205.394318 
L 87.871584 206.979545 
L 88.003125 207.095299 
L 89.728425 208.564773 
L 90.61875 209.298151 
L 91.688385 210.15 
L 93.234375 211.342182 
L 93.762133 211.735227 
L 95.85 213.24267 
L 95.961675 213.320455 
L 98.303498 214.905682 
L 98.465625 215.012341 
L 100.799051 216.490909 
L 101.08125 216.664741 
L 103.462655 218.076136 
L 103.696875 218.211241 
L 106.3125 219.661364 
L 108.928125 221.022025 
L 109.377949 221.246591 
L 111.54375 222.30203 
L 112.67771 222.831818 
L 114.159375 223.508271 
L 116.237667 224.417045 
L 116.775 224.646891 
L 119.390625 225.721772 
L 120.101976 226.002273 
L 122.00625 226.738054 
L 124.306976 227.5875 
L 124.621875 227.701536 
L 127.2375 228.613517 
L 128.915299 229.172727 
L 129.853125 229.479796 
L 132.46875 230.302216 
L 133.982304 230.757955 
L 135.084375 231.084431 
L 137.7 231.828482 
L 139.590793 232.343182 
L 140.315625 232.537577 
L 142.93125 233.212803 
L 145.546875 233.857702 
L 145.844254 233.928409 
L 148.1625 234.472463 
L 150.778125 235.060129 
L 152.884211 235.513636 
L 153.39375 235.622068 
L 156.009375 236.159034 
L 158.625 236.673287 
L 160.881649 237.098864 
L 161.240625 237.165874 
L 163.85625 237.637468 
L 166.471875 238.089768 
L 169.0875 238.523715 
L 170.089939 238.684091 
L 171.703125 238.94002 
L 174.31875 239.3397 
L 176.934375 239.723675 
L 179.55 240.092683 
L 180.847999 240.269318 
L 182.165625 240.447418 
L 184.78125 240.78861 
L 187.396875 241.116902 
L 190.0125 241.432878 
L 192.628125 241.737088 
L 193.673187 241.854545 
" style="fill:none;stroke:#0000ff;"/>
   </g>
   <g id="LineCollection_2">
    <path clip-path="url(#p1644334733)" d="M 61.430379 38.945455 
L 61.496785 40.530682 
L 61.565153 42.115909 
L 61.618504 43.317694 
" style="fill:none;stroke:#0000ff;"/>
    <path clip-path="url(#p1644334733)" d="M 65.031227 91.589955 
L 66.089497 100.769318 
L 67.403549 110.280682 
L 68.709401 118.206818 
L 70.254886 126.132955 
L 71.705063 132.473864 
L 73.390164 138.814773 
L 74.925 143.83388 
L 76.481559 148.326136 
L 78.351685 153.081818 
L 80.460585 157.8375 
L 82.802262 162.593182 
L 85.414996 167.348864 
L 88.34556 172.104545 
L 91.650839 176.860227 
L 94.096087 180.030682 
L 96.7666 183.201136 
L 99.694014 186.371591 
L 102.915211 189.542045 
L 106.475674 192.7125 
L 110.44238 195.882955 
L 114.159375 198.567135 
L 117.297116 200.638636 
L 122.620889 203.809091 
L 127.2375 206.256438 
L 132.46875 208.740551 
L 137.7 210.960535 
L 143.953322 213.320455 
L 148.624007 214.905682 
L 156.009375 217.144375 
L 163.85625 219.218129 
L 171.703125 221.030247 
L 180.666198 222.831818 
L 190.0125 224.46076 
L 200.475 226.029935 
L 212.715968 227.5875 
L 224.015625 228.809875 
L 237.09375 230.011624 
L 252.7875 231.210374 
L 268.48125 232.196483 
L 286.790625 233.135279 
L 307.715625 233.987733 
L 331.25625 234.733048 
L 360.028125 235.411073 
L 388.8 235.902473 
L 388.8 235.902473 
" style="fill:none;stroke:#0000ff;"/>
   </g>
   <g id="LineCollection_3">
    <path clip-path="url(#p1644334733)" d="M 77.021408 38.945455 
L 77.882997 53.2125 
L 78.85771 65.894318 
L 79.911752 76.990909 
L 81.20125 88.0875 
L 82.540556 97.598864 
L 83.863221 105.525 
L 85.415658 113.451136 
L 86.862188 119.792045 
L 88.526653 126.132955 
L 90.45722 132.473864 
L 92.118214 137.229545 
L 93.994667 141.985227 
L 96.128906 146.740909 
L 98.574902 151.496591 
L 101.382061 156.252273 
L 104.537341 161.007955 
L 106.857543 164.178409 
L 109.378355 167.348864 
L 112.126521 170.519318 
L 115.133084 173.689773 
L 118.434035 176.860227 
L 122.072054 180.030682 
L 126.115988 183.201136 
L 129.853125 185.857079 
L 133.077341 187.956818 
L 138.460771 191.127273 
L 142.93125 193.484091 
L 148.1625 195.968158 
L 153.39375 198.196292 
L 159.827739 200.638636 
L 166.471875 202.870896 
L 174.31875 205.183711 
L 182.165625 207.203826 
L 190.0125 208.978728 
L 197.859375 210.546307 
L 208.321875 212.365452 
L 218.784375 213.926652 
L 229.246875 215.274377 
L 242.325 216.711646 
L 257.226771 218.076136 
L 271.096875 219.137175 
L 289.40625 220.288677 
L 299.232639 220.810275 
L 299.232639 220.810275 
" style="fill:none;stroke:#0000ff;"/>
    <path clip-path="url(#p1644334733)" d="M 347.596022 222.669035 
L 349.565625 222.725277 
L 352.18125 222.797772 
L 353.445842 222.831818 
L 354.796875 222.868284 
L 357.4125 222.936861 
L 360.028125 223.003429 
L 362.64375 223.068047 
L 365.259375 223.13077 
L 367.875 223.191654 
L 370.490625 223.250751 
L 373.10625 223.308114 
L 375.721875 223.36379 
L 378.3375 223.41783 
L 380.953125 223.470278 
L 383.56875 223.521181 
L 386.184375 223.570581 
L 388.8 223.618522 
" style="fill:none;stroke:#0000ff;"/>
   </g>
   <g id="LineCollection_4">
    <path clip-path="url(#p1644334733)" d="M 94.074255 38.945455 
L 95.054801 51.627273 
L 96.119863 62.723864 
L 97.423037 73.820455 
L 98.77201 83.331818 
L 100.097767 91.257955 
L 101.644695 99.184091 
L 103.074347 105.525 
L 104.708779 111.865909 
L 106.586301 118.206818 
L 108.760331 124.547727 
L 110.626324 129.303409 
L 112.730686 134.059091 
L 115.119272 138.814773 
L 117.849861 143.570455 
L 119.8944 146.740909 
L 122.149898 149.911364 
L 124.650424 153.081818 
L 127.40816 156.252273 
L 130.416599 159.422727 
L 133.709005 162.593182 
L 137.7 166.076812 
L 141.321849 168.934091 
L 145.755687 172.104545 
L 150.778125 175.31427 
L 156.297361 178.445455 
L 161.240625 180.953242 
L 166.471875 183.345453 
L 171.703125 185.502817 
L 178.358598 187.956818 
L 184.78125 190.064019 
L 192.628125 192.338741 
L 200.475 194.336323 
L 208.321875 196.099209 
L 216.16875 197.662665 
L 226.63125 199.484819 
L 237.09375 201.055457 
L 247.029855 202.351685 
L 247.029855 202.351685 
" style="fill:none;stroke:#0000ff;"/>
    <path clip-path="url(#p1644334733)" d="M 295.223983 206.745448 
L 297.253125 206.879651 
L 298.809806 206.979545 
L 299.86875 207.047457 
L 302.484375 207.210343 
L 305.1 207.368235 
L 307.715625 207.521302 
L 310.33125 207.669703 
L 312.946875 207.813592 
L 315.5625 207.953117 
L 318.178125 208.088421 
L 320.79375 208.219639 
L 323.409375 208.346905 
L 326.025 208.470343 
L 328.086853 208.564773 
L 328.640625 208.590157 
L 331.25625 208.706679 
L 333.871875 208.819725 
L 336.4875 208.929403 
L 339.103125 209.035818 
L 341.71875 209.13907 
L 344.334375 209.239255 
L 346.95 209.336469 
L 349.565625 209.4308 
L 352.18125 209.522335 
L 354.796875 209.611159 
L 357.4125 209.697353 
L 360.028125 209.780995 
L 362.64375 209.862161 
L 365.259375 209.940924 
L 367.875 210.017355 
L 370.490625 210.091521 
L 372.615408 210.15 
L 373.10625 210.163542 
L 375.721875 210.23365 
L 378.3375 210.301683 
L 380.953125 210.367698 
L 383.56875 210.431756 
L 386.184375 210.493911 
L 388.8 210.554218 
" style="fill:none;stroke:#0000ff;"/>
   </g>
   <g id="LineCollection_5">
    <path clip-path="url(#p1644334733)" d="M 113.034773 38.945455 
L 113.180456 40.530682 
L 113.330571 42.115909 
L 113.462416 43.467332 
" style="fill:none;stroke:#0000ff;"/>
    <path clip-path="url(#p1644334733)" d="M 121.07655 91.225074 
L 122.302256 96.013636 
L 124.127839 102.354545 
L 126.222711 108.695455 
L 128.002034 113.451136 
L 129.990777 118.206818 
L 132.46875 123.440436 
L 134.755521 127.718182 
L 136.630524 130.888636 
L 138.677469 134.059091 
L 140.921214 137.229545 
L 143.391248 140.4 
L 146.122619 143.570455 
L 149.157052 146.740909 
L 152.544318 149.911364 
L 156.348774 153.081818 
L 161.240625 156.694094 
L 166.471875 160.129154 
L 171.703125 163.191432 
L 176.934375 165.936589 
L 183.3558 168.934091 
L 187.396875 170.643575 
L 192.628125 172.67231 
L 200.139312 175.275 
L 205.70625 177.000398 
L 213.553125 179.178323 
L 221.4 181.102343 
L 229.246875 182.809556 
L 237.09375 184.330493 
L 247.55625 186.111596 
L 258.01875 187.654075 
L 268.48125 188.996229 
L 281.559375 190.438293 
L 294.6375 191.662317 
L 310.33125 192.895082 
L 326.025 193.917654 
L 344.334375 194.895636 
L 365.259375 195.786111 
L 388.8 196.562778 
L 388.8 196.562778 
" style="fill:none;stroke:#0000ff;"/>
   </g>
   <g id="LineCollection_6">
    <path clip-path="url(#p1644334733)" d="M 134.392278 38.945455 
L 134.588569 40.530682 
L 134.790911 42.115909 
L 134.99946 43.701136 
L 135.084375 44.328447 
L 135.214917 45.286364 
L 135.43731 46.871591 
L 135.666466 48.456818 
L 135.902571 50.042045 
L 136.145816 51.627273 
L 136.396403 53.2125 
L 136.65454 54.797727 
L 136.920445 56.382955 
L 137.194347 57.968182 
L 137.476482 59.553409 
L 137.7 60.773581 
L 137.767437 61.138636 
L 138.068332 62.723864 
L 138.378329 64.309091 
L 138.697714 65.894318 
L 139.026786 67.479545 
L 139.365859 69.064773 
L 139.715259 70.65 
L 140.075327 72.235227 
L 140.315625 73.263224 
L 140.447196 73.820455 
L 140.832001 75.405682 
L 141.228738 76.990909 
L 141.637821 78.576136 
L 142.059689 80.161364 
L 142.494796 81.746591 
L 142.93125 83.288325 
L 142.943706 83.331818 
L 143.409912 84.917045 
L 143.891061 86.502273 
L 144.387714 88.0875 
L 144.900462 89.672727 
L 145.429923 91.257955 
L 145.546875 91.598511 
L 145.980011 92.843182 
L 146.067239 93.086083 
" style="fill:none;stroke:#0000ff;"/>
    <path clip-path="url(#p1644334733)" d="M 171.049918 134.027343 
L 171.081861 134.059091 
L 171.703125 134.654739 
L 172.76249 135.644318 
L 174.31875 137.043399 
L 174.53145 137.229545 
L 176.405201 138.814773 
L 176.934375 139.246682 
L 178.387851 140.4 
L 179.55 141.288937 
L 180.487153 141.985227 
L 182.165625 143.188259 
L 182.715082 143.570455 
L 184.78125 144.957895 
L 185.085021 145.155682 
L 187.396875 146.609876 
L 187.611907 146.740909 
L 190.0125 148.155125 
L 190.312419 148.326136 
L 192.628125 149.603554 
L 193.205163 149.911364 
L 195.24375 150.964155 
L 196.310896 151.496591 
L 197.859375 152.245085 
L 199.652768 153.081818 
L 200.475 153.455176 
L 203.090625 154.60148 
L 203.245133 154.667045 
L 205.70625 155.693123 
L 207.098352 156.252273 
L 208.321875 156.735579 
L 210.9375 157.731607 
L 211.224725 157.8375 
L 213.553125 158.682683 
L 215.672822 159.422727 
L 216.16875 159.593315 
L 218.784375 160.464226 
L 220.480116 161.007955 
L 221.4 161.298872 
L 224.015625 162.098471 
L 225.694893 162.593182 
L 226.63125 162.865537 
L 229.246875 163.601224 
L 231.378527 164.178409 
L 231.8625 164.307922 
L 234.478125 164.986177 
L 237.09375 165.638485 
L 237.611707 165.763636 
L 239.709375 166.265209 
L 242.325 166.868221 
L 244.48743 167.348864 
L 244.940625 167.448635 
L 247.55625 168.007069 
L 250.171875 168.545084 
L 252.130656 168.934091 
L 252.7875 169.063444 
L 255.403125 169.562866 
L 258.01875 170.044465 
L 260.634375 170.508976 
L 260.694337 170.519318 
L 263.25 170.957003 
L 265.865625 171.389405 
L 268.48125 171.806811 
L 270.410466 172.104545 
L 271.096875 172.209837 
L 273.7125 172.599135 
L 276.328125 172.97522 
L 278.94375 173.338603 
L 281.559375 173.689773 
L 284.175 174.029447 
L 286.790625 174.357872 
L 289.40625 174.675469 
L 292.021875 174.98264 
L 294.595319 175.275 
L 294.6375 175.279774 
L 297.253125 175.567589 
L 299.86875 175.846117 
L 302.484375 176.115691 
L 305.1 176.376631 
L 307.715625 176.629243 
L 310.185325 176.860227 
L 310.33125 176.873843 
L 312.946875 177.111085 
L 315.5625 177.340863 
L 318.178125 177.563431 
L 320.79375 177.779036 
L 323.409375 177.987914 
L 326.025 178.19029 
L 328.640625 178.386383 
L 329.451922 178.445455 
L 331.25625 178.5767 
L 333.871875 178.761284 
L 336.4875 178.940195 
L 339.103125 179.113617 
L 341.71875 179.281727 
L 344.334375 179.444696 
L 346.95 179.602688 
L 349.565625 179.755862 
L 352.18125 179.904369 
L 354.475082 180.030682 
L 354.796875 180.048407 
L 357.4125 180.188417 
L 360.028125 180.324186 
L 362.64375 180.455845 
L 365.259375 180.58352 
L 367.875 180.707332 
L 370.490625 180.827399 
L 373.10625 180.943835 
L 375.721875 181.056749 
L 378.3375 181.166247 
L 380.953125 181.272432 
L 383.56875 181.375402 
L 386.184375 181.475252 
L 388.8 181.572077 
" style="fill:none;stroke:#0000ff;"/>
   </g>
   <g id="LineCollection_7">
    <path clip-path="url(#p1644334733)" d="M 159.478268 38.945455 
L 159.752876 40.530682 
L 160.036113 42.115909 
L 160.328209 43.701136 
L 160.629402 45.286364 
L 160.939942 46.871591 
L 161.240625 48.360748 
L 161.260215 48.456818 
L 161.592423 50.042045 
L 161.934902 51.627273 
L 162.287952 53.2125 
L 162.651888 54.797727 
L 163.027034 56.382955 
L 163.413734 57.968182 
L 163.812341 59.553409 
L 163.85625 59.723433 
L 164.225924 61.138636 
L 164.652653 62.723864 
L 165.092621 64.309091 
L 165.546261 65.894318 
L 166.014025 67.479545 
L 166.471875 68.984581 
L 166.49658 69.064773 
L 166.998042 70.65 
L 167.515324 72.235227 
L 168.048978 73.820455 
L 168.599581 75.405682 
L 169.0875 76.768062 
L 169.168431 76.990909 
L 169.75991 78.576136 
L 170.370517 80.161364 
L 171.000963 81.746591 
L 171.651993 83.331818 
L 171.703125 83.453045 
L 172.330207 84.917045 
L 173.031427 86.502273 
L 173.756058 88.0875 
L 174.31875 89.280423 
L 174.506867 89.672727 
L 175.288912 91.257955 
L 176.097717 92.843182 
L 176.934375 94.428409 
L 177.809202 96.013636 
L 178.714771 97.598864 
L 179.55 99.012177 
L 179.653518 99.184091 
L 180.63541 100.769318 
L 181.652803 102.354545 
L 182.165625 103.12883 
L 182.71356 103.939773 
L 183.819651 105.525 
L 184.78125 106.855548 
L 184.969203 107.110227 
L 186.174187 108.695455 
L 187.396875 110.245211 
L 187.42548 110.280682 
L 188.741036 111.865909 
L 190.0125 113.341444 
L 190.109216 113.451136 
L 191.548748 115.036364 
L 192.628125 116.182612 
L 193.051537 116.621591 
L 194.630469 118.206818 
L 195.24375 118.802431 
L 196.288609 119.792045 
L 197.859375 121.227865 
L 198.027098 121.377273 
L 199.862496 122.9625 
L 200.475 123.474051 
L 201.795663 124.547727 
L 203.090625 125.565295 
L 203.833306 126.132955 
L 205.70625 127.517532 
L 205.985499 127.718182 
L 208.264327 129.303409 
L 208.321875 129.342224 
L 210.68354 130.888636 
L 210.9375 131.049707 
L 213.25223 132.473864 
L 213.553125 132.653293 
L 215.985186 134.059091 
L 216.16875 134.161995 
L 218.784375 135.583044 
L 218.90074 135.644318 
L 221.4 136.921996 
L 222.021795 137.229545 
L 224.015625 138.187567 
L 225.365849 138.814773 
L 226.63125 139.386141 
L 228.955679 140.4 
L 229.246875 140.523535 
L 231.8625 141.599148 
L 232.834156 141.985227 
L 234.478125 142.62119 
L 237.023152 143.570455 
L 237.09375 143.596106 
L 239.709375 144.518574 
L 241.584452 145.155682 
L 242.325 145.40103 
L 244.940625 146.240087 
L 246.558581 146.740909 
L 247.55625 147.042304 
L 250.171875 147.806914 
L 252.013083 148.326136 
L 252.7875 148.539462 
L 255.403125 149.237475 
L 258.01875 149.90947 
L 258.026338 149.911364 
L 260.634375 150.547798 
L 263.25 151.162732 
L 264.718514 151.496591 
L 265.865625 151.751845 
L 268.48125 152.315455 
L 271.096875 152.858901 
L 272.204627 153.081818 
L 273.7125 153.380281 
L 276.328125 153.881348 
L 278.94375 154.364879 
L 280.633196 154.667045 
L 281.559375 154.8315 
L 284.175 155.281889 
L 286.790625 155.716839 
L 288.97115 156.067067 
" style="fill:none;stroke:#0000ff;"/>
    <path clip-path="url(#p1644334733)" d="M 337.023381 161.774486 
L 339.103125 161.95367 
L 341.71875 162.171976 
L 344.334375 162.383467 
L 346.95 162.588367 
L 347.013232 162.593182 
L 349.565625 162.787323 
L 352.18125 162.980131 
L 354.796875 163.16698 
L 357.4125 163.34806 
L 360.028125 163.523555 
L 362.64375 163.693643 
L 365.259375 163.858494 
L 367.875 164.018274 
L 370.490625 164.17314 
L 370.582218 164.178409 
L 373.10625 164.323641 
L 375.721875 164.469545 
L 378.3375 164.610979 
L 380.953125 164.74808 
L 383.56875 164.88098 
L 386.184375 165.009807 
L 388.8 165.134684 
" style="fill:none;stroke:#0000ff;"/>
   </g>
   <g id="LineCollection_8">
    <path clip-path="url(#p1644334733)" d="M 189.771819 38.945455 
L 190.0125 39.900284 
L 190.173351 40.530682 
L 190.238643 40.779139 
" style="fill:none;stroke:#0000ff;"/>
    <path clip-path="url(#p1644334733)" d="M 209.291993 85.00869 
L 210.328451 86.502273 
L 210.9375 87.353503 
L 211.473613 88.0875 
L 212.667159 89.672727 
L 213.553125 90.811806 
L 213.907667 91.257955 
L 215.204749 92.843182 
L 216.16875 93.983069 
L 216.553882 94.428409 
L 217.965898 96.013636 
L 218.784375 96.903493 
L 219.438999 97.598864 
L 220.978906 99.184091 
L 221.4 99.604894 
L 222.593703 100.769318 
L 224.015625 102.111073 
L 224.280113 102.354545 
L 226.053241 103.939773 
L 226.63125 104.440829 
L 227.914495 105.525 
L 229.246875 106.615423 
L 229.867607 107.110227 
L 231.8625 108.65151 
L 231.920933 108.695455 
L 234.089918 110.280682 
L 234.478125 110.555978 
L 236.377687 111.865909 
L 237.09375 112.345158 
L 238.794186 113.451136 
L 239.709375 114.029178 
L 241.351351 115.036364 
L 242.325 115.616662 
L 244.062307 116.621591 
L 244.940625 117.115515 
L 246.941475 118.206818 
L 247.55625 118.532982 
L 250.004704 119.792045 
L 250.171875 119.87571 
L 252.7875 121.146312 
L 253.278128 121.377273 
L 255.403125 122.351717 
L 256.779543 122.9625 
L 258.01875 123.498448 
L 260.527547 124.547727 
L 260.634375 124.591296 
L 263.25 125.627368 
L 264.570554 126.132955 
L 265.865625 126.616867 
L 268.48125 127.561994 
L 268.926882 127.718182 
L 271.096875 128.46106 
L 273.647737 129.303409 
L 273.7125 129.324308 
L 276.328125 130.144505 
L 278.789995 130.888636 
L 278.94375 130.934088 
L 281.559375 131.685291 
L 284.175 132.409453 
L 284.414561 132.473864 
L 286.790625 133.099299 
L 289.40625 133.763858 
L 290.605907 134.059091 
L 292.021875 134.400485 
L 294.6375 135.011149 
L 297.253125 135.600572 
L 297.452947 135.644318 
L 299.86875 136.16296 
L 302.484375 136.70552 
L 305.1 137.229545 
L 307.715625 137.729529 
L 310.33125 138.212655 
L 312.946875 138.679553 
L 313.72744 138.814773 
L 315.5625 139.127048 
L 318.178125 139.558119 
L 320.79375 139.974935 
L 323.409375 140.378013 
L 323.556178 140.4 
L 326.025 140.76359 
L 328.640625 141.136347 
L 331.25625 141.496986 
L 333.871875 141.845933 
L 334.947941 141.985227 
L 336.4875 142.181373 
L 339.103125 142.504518 
L 341.71875 142.817311 
L 344.334375 143.120105 
L 346.95 143.413241 
L 348.396331 143.570455 
L 349.565625 143.695675 
L 352.18125 143.967511 
L 354.796875 144.230758 
L 357.4125 144.485699 
L 360.028125 144.732609 
L 362.64375 144.971749 
L 364.719355 145.155682 
L 365.259375 145.202878 
L 367.875 145.424911 
L 370.490625 145.640003 
L 373.10625 145.848375 
L 375.721875 146.050242 
L 378.3375 146.245811 
L 380.953125 146.435279 
L 383.56875 146.618838 
L 385.362656 146.740909 
L 386.184375 146.79612 
L 388.8 146.966706 
" style="fill:none;stroke:#0000ff;"/>
   </g>
   <g id="LineCollection_9">
    <path clip-path="url(#p1644334733)" d="M 228.172485 38.945455 
L 228.804559 40.530682 
L 229.246875 41.606166 
L 229.459986 42.115909 
L 230.142449 43.701136 
L 230.847341 45.286364 
L 231.575339 46.871591 
L 231.8625 47.478977 
L 232.33291 48.456818 
L 233.118974 50.042045 
L 233.93078 51.627273 
L 234.478125 52.66419 
L 234.772874 53.2125 
L 235.649828 54.797727 
L 236.55559 56.382955 
L 237.09375 57.297151 
L 237.496372 57.968182 
L 238.475543 59.553409 
L 239.487102 61.138636 
L 239.709375 61.477501 
L 240.543393 62.723864 
L 241.638017 64.309091 
L 242.325 65.274369 
L 242.775432 65.894318 
L 243.961004 67.479545 
L 244.940625 68.74845 
L 245.190115 69.064773 
L 246.47548 70.65 
L 247.55625 71.940731 
L 247.80836 72.235227 
L 249.203454 73.820455 
L 250.171875 74.886891 
L 250.653892 75.405682 
L 252.169892 76.990909 
L 252.7875 77.618043 
L 253.753627 78.576136 
L 255.403125 80.161364 
L 257.138132 81.746591 
L 258.01875 82.526928 
L 258.950048 83.331818 
L 260.634375 84.744417 
L 260.845529 84.917045 
L 262.838688 86.502273 
L 263.25 86.820278 
L 264.932757 88.0875 
L 265.865625 88.770083 
L 267.132842 89.672727 
L 268.48125 90.606458 
L 269.448236 91.257955 
L 271.096875 92.338343 
L 271.889096 92.843182 
L 273.7125 93.973956 
L 274.466523 94.428409 
L 276.328125 95.520854 
L 277.192642 96.013636 
L 278.94375 96.985984 
L 280.080696 97.598864 
L 281.559375 98.375738 
L 283.145149 99.184091 
L 284.175 99.695995 
L 286.401788 100.769318 
L 286.790625 100.952163 
L 289.40625 102.146156 
L 289.876728 102.354545 
L 292.021875 103.282197 
L 293.592165 103.939773 
L 294.6375 104.36735 
L 297.253125 105.403849 
L 297.567973 105.525 
L 299.86875 106.390382 
L 301.84785 107.110227 
L 302.484375 107.336633 
L 305.1 108.239442 
L 306.4646 108.695455 
L 307.715625 109.104562 
L 310.33125 109.933203 
L 311.46311 110.280682 
L 312.946875 110.72674 
L 315.5625 111.488178 
L 316.901963 111.865909 
L 318.178125 112.218547 
L 320.79375 112.918991 
L 322.848334 113.451136 
L 323.285768 113.562223 
" style="fill:none;stroke:#0000ff;"/>
    <path clip-path="url(#p1644334733)" d="M 370.872613 122.240104 
L 373.10625 122.524539 
L 375.721875 122.846977 
L 376.687681 122.9625 
L 378.3375 123.156902 
L 380.953125 123.455701 
L 383.56875 123.745004 
L 386.184375 124.025116 
L 388.8 124.296333 
" style="fill:none;stroke:#0000ff;"/>
   </g>
   <g id="LineCollection_10">
    <path clip-path="url(#p1644334733)" d="M 288.717952 38.945455 
L 289.40625 39.8305 
L 289.962968 40.530682 
L 290.368881 41.025827 
" style="fill:none;stroke:#0000ff;"/>
    <path clip-path="url(#p1644334733)" d="M 328.274919 70.514966 
L 328.540684 70.65 
L 328.640625 70.699552 
L 331.25625 71.960213 
L 331.844184 72.235227 
L 333.871875 73.161418 
L 335.35967 73.820455 
L 336.4875 74.30852 
L 339.103125 75.405682 
L 341.71875 76.44833 
L 343.123979 76.990909 
L 344.334375 77.447978 
L 346.95 78.405346 
L 347.430592 78.576136 
L 349.565625 79.31864 
L 352.070307 80.161364 
L 352.18125 80.197908 
L 354.796875 81.035292 
L 357.09439 81.746591 
L 357.4125 81.843065 
L 360.028125 82.613641 
L 362.549635 83.331818 
L 362.64375 83.358091 
L 365.259375 84.0677 
L 367.875 84.75376 
L 368.516421 84.917045 
L 370.490625 85.409986 
L 373.10625 86.042312 
L 375.071377 86.502273 
L 375.721875 86.651689 
L 378.3375 87.234831 
L 380.953125 87.798859 
L 382.334136 88.0875 
L 383.56875 88.340896 
L 386.184375 88.861403 
L 388.8 89.364938 
" style="fill:none;stroke:#0000ff;"/>
   </g>
   <g id="line2d_1">
    <path clip-path="url(#p1644334733)" d="M 54 241.854545 
L 57.439387 239.092091 
L 60.848919 236.365825 
L 64.229909 233.674971 
L 67.583604 231.018791 
L 70.911193 228.39658 
L 74.213811 225.807665 
L 77.492541 223.251401 
L 80.74842 220.727173 
L 83.982442 218.23439 
L 87.195559 215.772485 
L 90.38869 213.340912 
L 93.562714 210.93915 
L 96.718483 208.566693 
L 99.856816 206.223058 
L 102.978507 203.907775 
L 106.084322 201.620393 
L 109.175006 199.360476 
L 112.251282 197.127603 
L 115.313851 194.921363 
L 118.363398 192.741363 
L 121.400591 190.587218 
L 124.42608 188.458557 
L 127.440503 186.355017 
L 130.444487 184.276248 
L 133.438643 182.221907 
L 136.423574 180.191662 
L 139.399875 178.185189 
L 142.368132 176.202171 
L 145.328921 174.242301 
L 148.282817 172.305277 
L 151.230385 170.390805 
L 154.172191 168.498597 
L 157.108792 166.628373 
L 160.040748 164.779855 
L 162.968616 162.952776 
L 165.892951 161.146869 
L 168.814311 159.361877 
L 171.733254 157.597543 
L 174.650342 155.85362 
L 177.56614 154.12986 
L 180.481215 152.422165 
L 183.396143 150.713512 
L 186.311506 149.001869 
L 189.22789 147.287175 
L 192.145893 145.569361 
L 195.066121 143.848355 
L 197.989193 142.124075 
L 200.915736 140.396436 
L 203.846393 138.665345 
L 206.781822 136.930701 
L 209.722695 135.192396 
L 212.669702 133.450315 
L 215.623553 131.704335 
L 218.584976 129.954322 
L 221.554724 128.200137 
L 224.533572 126.441629 
L 227.522322 124.678636 
L 230.521804 122.91099 
L 233.532879 121.138508 
L 236.556439 119.360997 
L 239.593414 117.578253 
L 242.644772 115.790056 
L 245.71152 113.996176 
L 248.794712 112.196367 
L 251.895451 110.390367 
L 255.014891 108.577899 
L 258.154244 106.758669 
L 261.314783 104.932361 
L 264.497849 103.098645 
L 267.704855 101.257165 
L 270.937292 99.407545 
L 274.19674 97.549384 
L 277.484872 95.682254 
L 280.803464 93.8057 
L 284.154403 91.919237 
L 287.539702 90.022346 
L 290.961509 88.114472 
L 294.42212 86.195023 
L 297.923999 84.263362 
L 301.469789 82.318808 
L 305.062338 80.360629 
L 308.704716 78.388036 
L 312.400248 76.400182 
L 316.152535 74.396149 
L 319.965495 72.374946 
L 323.843398 70.335499 
L 327.790916 68.276641 
L 331.813172 66.197101 
L 335.915806 64.095493 
L 340.105049 61.970297 
L 344.387808 59.819846 
L 348.771775 57.642303 
L 353.26555 55.435638 
L 357.878797 53.197597 
L 362.622427 50.925667 
L 367.508831 48.617037 
L 372.552164 46.26854 
L 377.768706 43.876596 
L 383.177311 41.437126 
L 388.8 38.945455 
" style="fill:none;stroke:#ff0000;stroke-linecap:square;stroke-width:2.0;"/>
   </g>
   <g id="patch_3">
    <path d="M 54 252 
L 388.8 252 
" style="fill:none;stroke:#000000;stroke-linecap:square;stroke-linejoin:miter;"/>
   </g>
   <g id="patch_4">
    <path d="M 54 28.8 
L 388.8 28.8 
" style="fill:none;stroke:#000000;stroke-linecap:square;stroke-linejoin:miter;"/>
   </g>
   <g id="patch_5">
    <path d="M 54 252 
L 54 28.8 
" style="fill:none;stroke:#000000;stroke-linecap:square;stroke-linejoin:miter;"/>
   </g>
   <g id="patch_6">
    <path d="M 388.8 252 
L 388.8 28.8 
" style="fill:none;stroke:#000000;stroke-linecap:square;stroke-linejoin:miter;"/>
   </g>
   <g id="matplotlib.axis_1">
    <g id="xtick_1">
     <g id="line2d_2">
      <path clip-path="url(#p1644334733)" d="M 101.694555 252 
L 101.694555 28.8 
" style="fill:none;stroke:#000000;stroke-dasharray:1.000000,3.000000;stroke-dashoffset:0.0;stroke-width:0.5;"/>
     </g>
     <g id="line2d_3">
      <defs>
       <path d="M 0 0 
L 0 -4 
" id="m7447e8b017" style="stroke:#000000;stroke-width:0.5;"/>
      </defs>
      <g>
       <use style="stroke:#000000;stroke-width:0.5;" x="101.694554718" xlink:href="#m7447e8b017" y="252.0"/>
      </g>
     </g>
     <g id="line2d_4">
      <defs>
       <path d="M 0 0 
L 0 4 
" id="m6806a97343" style="stroke:#000000;stroke-width:0.5;"/>
      </defs>
      <g>
       <use style="stroke:#000000;stroke-width:0.5;" x="101.694554718" xlink:href="#m6806a97343" y="28.8"/>
      </g>
     </g>
     <g id="text_1">
      <!-- 0.0 -->
      <defs>
       <path d="M 31.78125 66.40625 
Q 24.171875 66.40625 20.328125 58.90625 
Q 16.5 51.421875 16.5 36.375 
Q 16.5 21.390625 20.328125 13.890625 
Q 24.171875 6.390625 31.78125 6.390625 
Q 39.453125 6.390625 43.28125 13.890625 
Q 47.125 21.390625 47.125 36.375 
Q 47.125 51.421875 43.28125 58.90625 
Q 39.453125 66.40625 31.78125 66.40625 
M 31.78125 74.21875 
Q 44.046875 74.21875 50.515625 64.515625 
Q 56.984375 54.828125 56.984375 36.375 
Q 56.984375 17.96875 50.515625 8.265625 
Q 44.046875 -1.421875 31.78125 -1.421875 
Q 19.53125 -1.421875 13.0625 8.265625 
Q 6.59375 17.96875 6.59375 36.375 
Q 6.59375 54.828125 13.0625 64.515625 
Q 19.53125 74.21875 31.78125 74.21875 
" id="BitstreamVeraSans-Roman-30"/>
       <path d="M 10.6875 12.40625 
L 21 12.40625 
L 21 0 
L 10.6875 0 
z
" id="BitstreamVeraSans-Roman-2e"/>
      </defs>
      <g transform="translate(93.7429922181 263.5984375)scale(0.1 -0.1)">
       <use xlink:href="#BitstreamVeraSans-Roman-30"/>
       <use x="63.623046875" xlink:href="#BitstreamVeraSans-Roman-2e"/>
       <use x="95.41015625" xlink:href="#BitstreamVeraSans-Roman-30"/>
      </g>
     </g>
    </g>
    <g id="xtick_2">
     <g id="line2d_5">
      <path clip-path="url(#p1644334733)" d="M 191.178713 252 
L 191.178713 28.8 
" style="fill:none;stroke:#000000;stroke-dasharray:1.000000,3.000000;stroke-dashoffset:0.0;stroke-width:0.5;"/>
     </g>
     <g id="line2d_6">
      <g>
       <use style="stroke:#000000;stroke-width:0.5;" x="191.178712745" xlink:href="#m7447e8b017" y="252.0"/>
      </g>
     </g>
     <g id="line2d_7">
      <g>
       <use style="stroke:#000000;stroke-width:0.5;" x="191.178712745" xlink:href="#m6806a97343" y="28.8"/>
      </g>
     </g>
     <g id="text_2">
      <!-- 0.5 -->
      <defs>
       <path d="M 10.796875 72.90625 
L 49.515625 72.90625 
L 49.515625 64.59375 
L 19.828125 64.59375 
L 19.828125 46.734375 
Q 21.96875 47.46875 24.109375 47.828125 
Q 26.265625 48.1875 28.421875 48.1875 
Q 40.625 48.1875 47.75 41.5 
Q 54.890625 34.8125 54.890625 23.390625 
Q 54.890625 11.625 47.5625 5.09375 
Q 40.234375 -1.421875 26.90625 -1.421875 
Q 22.3125 -1.421875 17.546875 -0.640625 
Q 12.796875 0.140625 7.71875 1.703125 
L 7.71875 11.625 
Q 12.109375 9.234375 16.796875 8.0625 
Q 21.484375 6.890625 26.703125 6.890625 
Q 35.15625 6.890625 40.078125 11.328125 
Q 45.015625 15.765625 45.015625 23.390625 
Q 45.015625 31 40.078125 35.4375 
Q 35.15625 39.890625 26.703125 39.890625 
Q 22.75 39.890625 18.8125 39.015625 
Q 14.890625 38.140625 10.796875 36.28125 
z
" id="BitstreamVeraSans-Roman-35"/>
      </defs>
      <g transform="translate(183.227150245 263.5984375)scale(0.1 -0.1)">
       <use xlink:href="#BitstreamVeraSans-Roman-30"/>
       <use x="63.623046875" xlink:href="#BitstreamVeraSans-Roman-2e"/>
       <use x="95.41015625" xlink:href="#BitstreamVeraSans-Roman-35"/>
      </g>
     </g>
    </g>
    <g id="xtick_3">
     <g id="line2d_8">
      <path clip-path="url(#p1644334733)" d="M 280.662871 252 
L 280.662871 28.8 
" style="fill:none;stroke:#000000;stroke-dasharray:1.000000,3.000000;stroke-dashoffset:0.0;stroke-width:0.5;"/>
     </g>
     <g id="line2d_9">
      <g>
       <use style="stroke:#000000;stroke-width:0.5;" x="280.662870772" xlink:href="#m7447e8b017" y="252.0"/>
      </g>
     </g>
     <g id="line2d_10">
      <g>
       <use style="stroke:#000000;stroke-width:0.5;" x="280.662870772" xlink:href="#m6806a97343" y="28.8"/>
      </g>
     </g>
     <g id="text_3">
      <!-- 1.0 -->
      <defs>
       <path d="M 12.40625 8.296875 
L 28.515625 8.296875 
L 28.515625 63.921875 
L 10.984375 60.40625 
L 10.984375 69.390625 
L 28.421875 72.90625 
L 38.28125 72.90625 
L 38.28125 8.296875 
L 54.390625 8.296875 
L 54.390625 0 
L 12.40625 0 
z
" id="BitstreamVeraSans-Roman-31"/>
      </defs>
      <g transform="translate(272.711308272 263.5984375)scale(0.1 -0.1)">
       <use xlink:href="#BitstreamVeraSans-Roman-31"/>
       <use x="63.623046875" xlink:href="#BitstreamVeraSans-Roman-2e"/>
       <use x="95.41015625" xlink:href="#BitstreamVeraSans-Roman-30"/>
      </g>
     </g>
    </g>
    <g id="xtick_4">
     <g id="line2d_11">
      <path clip-path="url(#p1644334733)" d="M 370.147029 252 
L 370.147029 28.8 
" style="fill:none;stroke:#000000;stroke-dasharray:1.000000,3.000000;stroke-dashoffset:0.0;stroke-width:0.5;"/>
     </g>
     <g id="line2d_12">
      <g>
       <use style="stroke:#000000;stroke-width:0.5;" x="370.147028798" xlink:href="#m7447e8b017" y="252.0"/>
      </g>
     </g>
     <g id="line2d_13">
      <g>
       <use style="stroke:#000000;stroke-width:0.5;" x="370.147028798" xlink:href="#m6806a97343" y="28.8"/>
      </g>
     </g>
     <g id="text_4">
      <!-- 1.5 -->
      <g transform="translate(362.195466298 263.5984375)scale(0.1 -0.1)">
       <use xlink:href="#BitstreamVeraSans-Roman-31"/>
       <use x="63.623046875" xlink:href="#BitstreamVeraSans-Roman-2e"/>
       <use x="95.41015625" xlink:href="#BitstreamVeraSans-Roman-35"/>
      </g>
     </g>
    </g>
    <g id="text_5">
     <!-- X0 -->
     <defs>
      <path d="M 6.296875 72.90625 
L 16.890625 72.90625 
L 35.015625 45.796875 
L 53.21875 72.90625 
L 63.8125 72.90625 
L 40.375 37.890625 
L 65.375 0 
L 54.78125 0 
L 34.28125 31 
L 13.625 0 
L 2.984375 0 
L 29 38.921875 
z
" id="BitstreamVeraSans-Roman-58"/>
     </defs>
     <g transform="translate(214.79375 278.2765625)scale(0.1 -0.1)">
      <use xlink:href="#BitstreamVeraSans-Roman-58"/>
      <use x="68.505859375" xlink:href="#BitstreamVeraSans-Roman-30"/>
     </g>
    </g>
   </g>
   <g id="matplotlib.axis_2">
    <g id="ytick_1">
     <g id="line2d_14">
      <path clip-path="url(#p1644334733)" d="M 54 230.209152 
L 388.8 230.209152 
" style="fill:none;stroke:#000000;stroke-dasharray:1.000000,3.000000;stroke-dashoffset:0.0;stroke-width:0.5;"/>
     </g>
     <g id="line2d_15">
      <defs>
       <path d="M 0 0 
L 4 0 
" id="m59077e6fb0" style="stroke:#000000;stroke-width:0.5;"/>
      </defs>
      <g>
       <use style="stroke:#000000;stroke-width:0.5;" x="54.0" xlink:href="#m59077e6fb0" y="230.209151511"/>
      </g>
     </g>
     <g id="line2d_16">
      <defs>
       <path d="M 0 0 
L -4 0 
" id="m55be11ada8" style="stroke:#000000;stroke-width:0.5;"/>
      </defs>
      <g>
       <use style="stroke:#000000;stroke-width:0.5;" x="388.8" xlink:href="#m55be11ada8" y="230.209151511"/>
      </g>
     </g>
     <g id="text_6">
      <!-- 1.6 -->
      <defs>
       <path d="M 33.015625 40.375 
Q 26.375 40.375 22.484375 35.828125 
Q 18.609375 31.296875 18.609375 23.390625 
Q 18.609375 15.53125 22.484375 10.953125 
Q 26.375 6.390625 33.015625 6.390625 
Q 39.65625 6.390625 43.53125 10.953125 
Q 47.40625 15.53125 47.40625 23.390625 
Q 47.40625 31.296875 43.53125 35.828125 
Q 39.65625 40.375 33.015625 40.375 
M 52.59375 71.296875 
L 52.59375 62.3125 
Q 48.875 64.0625 45.09375 64.984375 
Q 41.3125 65.921875 37.59375 65.921875 
Q 27.828125 65.921875 22.671875 59.328125 
Q 17.53125 52.734375 16.796875 39.40625 
Q 19.671875 43.65625 24.015625 45.921875 
Q 28.375 48.1875 33.59375 48.1875 
Q 44.578125 48.1875 50.953125 41.515625 
Q 57.328125 34.859375 57.328125 23.390625 
Q 57.328125 12.15625 50.6875 5.359375 
Q 44.046875 -1.421875 33.015625 -1.421875 
Q 20.359375 -1.421875 13.671875 8.265625 
Q 6.984375 17.96875 6.984375 36.375 
Q 6.984375 53.65625 15.1875 63.9375 
Q 23.390625 74.21875 37.203125 74.21875 
Q 40.921875 74.21875 44.703125 73.484375 
Q 48.484375 72.75 52.59375 71.296875 
" id="BitstreamVeraSans-Roman-36"/>
      </defs>
      <g transform="translate(34.096875 232.968526511)scale(0.1 -0.1)">
       <use xlink:href="#BitstreamVeraSans-Roman-31"/>
       <use x="63.623046875" xlink:href="#BitstreamVeraSans-Roman-2e"/>
       <use x="95.41015625" xlink:href="#BitstreamVeraSans-Roman-36"/>
      </g>
     </g>
    </g>
    <g id="ytick_2">
     <g id="line2d_17">
      <path clip-path="url(#p1644334733)" d="M 54 191.813253 
L 388.8 191.813253 
" style="fill:none;stroke:#000000;stroke-dasharray:1.000000,3.000000;stroke-dashoffset:0.0;stroke-width:0.5;"/>
     </g>
     <g id="line2d_18">
      <g>
       <use style="stroke:#000000;stroke-width:0.5;" x="54.0" xlink:href="#m59077e6fb0" y="191.813253003"/>
      </g>
     </g>
     <g id="line2d_19">
      <g>
       <use style="stroke:#000000;stroke-width:0.5;" x="388.8" xlink:href="#m55be11ada8" y="191.813253003"/>
      </g>
     </g>
     <g id="text_7">
      <!-- 1.8 -->
      <defs>
       <path d="M 31.78125 34.625 
Q 24.75 34.625 20.71875 30.859375 
Q 16.703125 27.09375 16.703125 20.515625 
Q 16.703125 13.921875 20.71875 10.15625 
Q 24.75 6.390625 31.78125 6.390625 
Q 38.8125 6.390625 42.859375 10.171875 
Q 46.921875 13.96875 46.921875 20.515625 
Q 46.921875 27.09375 42.890625 30.859375 
Q 38.875 34.625 31.78125 34.625 
M 21.921875 38.8125 
Q 15.578125 40.375 12.03125 44.71875 
Q 8.5 49.078125 8.5 55.328125 
Q 8.5 64.0625 14.71875 69.140625 
Q 20.953125 74.21875 31.78125 74.21875 
Q 42.671875 74.21875 48.875 69.140625 
Q 55.078125 64.0625 55.078125 55.328125 
Q 55.078125 49.078125 51.53125 44.71875 
Q 48 40.375 41.703125 38.8125 
Q 48.828125 37.15625 52.796875 32.3125 
Q 56.78125 27.484375 56.78125 20.515625 
Q 56.78125 9.90625 50.3125 4.234375 
Q 43.84375 -1.421875 31.78125 -1.421875 
Q 19.734375 -1.421875 13.25 4.234375 
Q 6.78125 9.90625 6.78125 20.515625 
Q 6.78125 27.484375 10.78125 32.3125 
Q 14.796875 37.15625 21.921875 38.8125 
M 18.3125 54.390625 
Q 18.3125 48.734375 21.84375 45.5625 
Q 25.390625 42.390625 31.78125 42.390625 
Q 38.140625 42.390625 41.71875 45.5625 
Q 45.3125 48.734375 45.3125 54.390625 
Q 45.3125 60.0625 41.71875 63.234375 
Q 38.140625 66.40625 31.78125 66.40625 
Q 25.390625 66.40625 21.84375 63.234375 
Q 18.3125 60.0625 18.3125 54.390625 
" id="BitstreamVeraSans-Roman-38"/>
      </defs>
      <g transform="translate(34.096875 194.572628003)scale(0.1 -0.1)">
       <use xlink:href="#BitstreamVeraSans-Roman-31"/>
       <use x="63.623046875" xlink:href="#BitstreamVeraSans-Roman-2e"/>
       <use x="95.41015625" xlink:href="#BitstreamVeraSans-Roman-38"/>
      </g>
     </g>
    </g>
    <g id="ytick_3">
     <g id="line2d_20">
      <path clip-path="url(#p1644334733)" d="M 54 153.417354 
L 388.8 153.417354 
" style="fill:none;stroke:#000000;stroke-dasharray:1.000000,3.000000;stroke-dashoffset:0.0;stroke-width:0.5;"/>
     </g>
     <g id="line2d_21">
      <g>
       <use style="stroke:#000000;stroke-width:0.5;" x="54.0" xlink:href="#m59077e6fb0" y="153.417354496"/>
      </g>
     </g>
     <g id="line2d_22">
      <g>
       <use style="stroke:#000000;stroke-width:0.5;" x="388.8" xlink:href="#m55be11ada8" y="153.417354496"/>
      </g>
     </g>
     <g id="text_8">
      <!-- 2.0 -->
      <defs>
       <path d="M 19.1875 8.296875 
L 53.609375 8.296875 
L 53.609375 0 
L 7.328125 0 
L 7.328125 8.296875 
Q 12.9375 14.109375 22.625 23.890625 
Q 32.328125 33.6875 34.8125 36.53125 
Q 39.546875 41.84375 41.421875 45.53125 
Q 43.3125 49.21875 43.3125 52.78125 
Q 43.3125 58.59375 39.234375 62.25 
Q 35.15625 65.921875 28.609375 65.921875 
Q 23.96875 65.921875 18.8125 64.3125 
Q 13.671875 62.703125 7.8125 59.421875 
L 7.8125 69.390625 
Q 13.765625 71.78125 18.9375 73 
Q 24.125 74.21875 28.421875 74.21875 
Q 39.75 74.21875 46.484375 68.546875 
Q 53.21875 62.890625 53.21875 53.421875 
Q 53.21875 48.921875 51.53125 44.890625 
Q 49.859375 40.875 45.40625 35.40625 
Q 44.1875 33.984375 37.640625 27.21875 
Q 31.109375 20.453125 19.1875 8.296875 
" id="BitstreamVeraSans-Roman-32"/>
      </defs>
      <g transform="translate(34.096875 156.176729496)scale(0.1 -0.1)">
       <use xlink:href="#BitstreamVeraSans-Roman-32"/>
       <use x="63.623046875" xlink:href="#BitstreamVeraSans-Roman-2e"/>
       <use x="95.41015625" xlink:href="#BitstreamVeraSans-Roman-30"/>
      </g>
     </g>
    </g>
    <g id="ytick_4">
     <g id="line2d_23">
      <path clip-path="url(#p1644334733)" d="M 54 115.021456 
L 388.8 115.021456 
" style="fill:none;stroke:#000000;stroke-dasharray:1.000000,3.000000;stroke-dashoffset:0.0;stroke-width:0.5;"/>
     </g>
     <g id="line2d_24">
      <g>
       <use style="stroke:#000000;stroke-width:0.5;" x="54.0" xlink:href="#m59077e6fb0" y="115.021455989"/>
      </g>
     </g>
     <g id="line2d_25">
      <g>
       <use style="stroke:#000000;stroke-width:0.5;" x="388.8" xlink:href="#m55be11ada8" y="115.021455989"/>
      </g>
     </g>
     <g id="text_9">
      <!-- 2.2 -->
      <g transform="translate(34.096875 117.780830989)scale(0.1 -0.1)">
       <use xlink:href="#BitstreamVeraSans-Roman-32"/>
       <use x="63.623046875" xlink:href="#BitstreamVeraSans-Roman-2e"/>
       <use x="95.41015625" xlink:href="#BitstreamVeraSans-Roman-32"/>
      </g>
     </g>
    </g>
    <g id="ytick_5">
     <g id="line2d_26">
      <path clip-path="url(#p1644334733)" d="M 54 76.625557 
L 388.8 76.625557 
" style="fill:none;stroke:#000000;stroke-dasharray:1.000000,3.000000;stroke-dashoffset:0.0;stroke-width:0.5;"/>
     </g>
     <g id="line2d_27">
      <g>
       <use style="stroke:#000000;stroke-width:0.5;" x="54.0" xlink:href="#m59077e6fb0" y="76.6255574823"/>
      </g>
     </g>
     <g id="line2d_28">
      <g>
       <use style="stroke:#000000;stroke-width:0.5;" x="388.8" xlink:href="#m55be11ada8" y="76.6255574823"/>
      </g>
     </g>
     <g id="text_10">
      <!-- 2.4 -->
      <defs>
       <path d="M 37.796875 64.3125 
L 12.890625 25.390625 
L 37.796875 25.390625 
z
M 35.203125 72.90625 
L 47.609375 72.90625 
L 47.609375 25.390625 
L 58.015625 25.390625 
L 58.015625 17.1875 
L 47.609375 17.1875 
L 47.609375 0 
L 37.796875 0 
L 37.796875 17.1875 
L 4.890625 17.1875 
L 4.890625 26.703125 
z
" id="BitstreamVeraSans-Roman-34"/>
      </defs>
      <g transform="translate(34.096875 79.3849324823)scale(0.1 -0.1)">
       <use xlink:href="#BitstreamVeraSans-Roman-32"/>
       <use x="63.623046875" xlink:href="#BitstreamVeraSans-Roman-2e"/>
       <use x="95.41015625" xlink:href="#BitstreamVeraSans-Roman-34"/>
      </g>
     </g>
    </g>
    <g id="ytick_6">
     <g id="line2d_29">
      <path clip-path="url(#p1644334733)" d="M 54 38.229659 
L 388.8 38.229659 
" style="fill:none;stroke:#000000;stroke-dasharray:1.000000,3.000000;stroke-dashoffset:0.0;stroke-width:0.5;"/>
     </g>
     <g id="line2d_30">
      <g>
       <use style="stroke:#000000;stroke-width:0.5;" x="54.0" xlink:href="#m59077e6fb0" y="38.2296589752"/>
      </g>
     </g>
     <g id="line2d_31">
      <g>
       <use style="stroke:#000000;stroke-width:0.5;" x="388.8" xlink:href="#m55be11ada8" y="38.2296589752"/>
      </g>
     </g>
     <g id="text_11">
      <!-- 2.6 -->
      <g transform="translate(34.096875 40.9890339752)scale(0.1 -0.1)">
       <use xlink:href="#BitstreamVeraSans-Roman-32"/>
       <use x="63.623046875" xlink:href="#BitstreamVeraSans-Roman-2e"/>
       <use x="95.41015625" xlink:href="#BitstreamVeraSans-Roman-36"/>
      </g>
     </g>
    </g>
    <g id="text_12">
     <!-- X1 -->
     <g transform="translate(27.0171875 147.00625)rotate(-90.0)scale(0.1 -0.1)">
      <use xlink:href="#BitstreamVeraSans-Roman-58"/>
      <use x="68.505859375" xlink:href="#BitstreamVeraSans-Roman-31"/>
     </g>
    </g>
   </g>
   <g id="text_13">
    <g clip-path="url(#p1644334733)">
     <!-- 0.371181 -->
     <defs>
      <path d="M 40.578125 39.3125 
Q 47.65625 37.796875 51.625 33 
Q 55.609375 28.21875 55.609375 21.1875 
Q 55.609375 10.40625 48.1875 4.484375 
Q 40.765625 -1.421875 27.09375 -1.421875 
Q 22.515625 -1.421875 17.65625 -0.515625 
Q 12.796875 0.390625 7.625 2.203125 
L 7.625 11.71875 
Q 11.71875 9.328125 16.59375 8.109375 
Q 21.484375 6.890625 26.8125 6.890625 
Q 36.078125 6.890625 40.9375 10.546875 
Q 45.796875 14.203125 45.796875 21.1875 
Q 45.796875 27.640625 41.28125 31.265625 
Q 36.765625 34.90625 28.71875 34.90625 
L 20.21875 34.90625 
L 20.21875 43.015625 
L 29.109375 43.015625 
Q 36.375 43.015625 40.234375 45.921875 
Q 44.09375 48.828125 44.09375 54.296875 
Q 44.09375 59.90625 40.109375 62.90625 
Q 36.140625 65.921875 28.71875 65.921875 
Q 24.65625 65.921875 20.015625 65.03125 
Q 15.375 64.15625 9.8125 62.3125 
L 9.8125 71.09375 
Q 15.4375 72.65625 20.34375 73.4375 
Q 25.25 74.21875 29.59375 74.21875 
Q 40.828125 74.21875 47.359375 69.109375 
Q 53.90625 64.015625 53.90625 55.328125 
Q 53.90625 49.265625 50.4375 45.09375 
Q 46.96875 40.921875 40.578125 39.3125 
" id="BitstreamVeraSans-Roman-33"/>
      <path d="M 8.203125 72.90625 
L 55.078125 72.90625 
L 55.078125 68.703125 
L 28.609375 0 
L 18.3125 0 
L 43.21875 64.59375 
L 8.203125 64.59375 
z
" id="BitstreamVeraSans-Roman-37"/>
     </defs>
     <g style="fill:#0000ff;" transform="translate(52.3990794525 152.424361931)rotate(-292.8567085328384)scale(0.08 -0.08)">
      <use xlink:href="#BitstreamVeraSans-Roman-30"/>
      <use x="63.623046875" xlink:href="#BitstreamVeraSans-Roman-2e"/>
      <use x="95.41015625" xlink:href="#BitstreamVeraSans-Roman-33"/>
      <use x="159.033203125" xlink:href="#BitstreamVeraSans-Roman-37"/>
      <use x="222.65625" xlink:href="#BitstreamVeraSans-Roman-31"/>
      <use x="286.279296875" xlink:href="#BitstreamVeraSans-Roman-31"/>
      <use x="349.90234375" xlink:href="#BitstreamVeraSans-Roman-38"/>
      <use x="413.525390625" xlink:href="#BitstreamVeraSans-Roman-31"/>
     </g>
    </g>
   </g>
   <g id="text_14">
    <g clip-path="url(#p1644334733)">
     <!-- 0.407869 -->
     <defs>
      <path d="M 10.984375 1.515625 
L 10.984375 10.5 
Q 14.703125 8.734375 18.5 7.8125 
Q 22.3125 6.890625 25.984375 6.890625 
Q 35.75 6.890625 40.890625 13.453125 
Q 46.046875 20.015625 46.78125 33.40625 
Q 43.953125 29.203125 39.59375 26.953125 
Q 35.25 24.703125 29.984375 24.703125 
Q 19.046875 24.703125 12.671875 31.3125 
Q 6.296875 37.9375 6.296875 49.421875 
Q 6.296875 60.640625 12.9375 67.421875 
Q 19.578125 74.21875 30.609375 74.21875 
Q 43.265625 74.21875 49.921875 64.515625 
Q 56.59375 54.828125 56.59375 36.375 
Q 56.59375 19.140625 48.40625 8.859375 
Q 40.234375 -1.421875 26.421875 -1.421875 
Q 22.703125 -1.421875 18.890625 -0.6875 
Q 15.09375 0.046875 10.984375 1.515625 
M 30.609375 32.421875 
Q 37.25 32.421875 41.125 36.953125 
Q 45.015625 41.5 45.015625 49.421875 
Q 45.015625 57.28125 41.125 61.84375 
Q 37.25 66.40625 30.609375 66.40625 
Q 23.96875 66.40625 20.09375 61.84375 
Q 16.21875 57.28125 16.21875 49.421875 
Q 16.21875 41.5 20.09375 36.953125 
Q 23.96875 32.421875 30.609375 32.421875 
" id="BitstreamVeraSans-Roman-39"/>
     </defs>
     <g style="fill:#0000ff;" transform="translate(59.4340512379 48.5936121461)rotate(-273.99734252443625)scale(0.08 -0.08)">
      <use xlink:href="#BitstreamVeraSans-Roman-30"/>
      <use x="63.623046875" xlink:href="#BitstreamVeraSans-Roman-2e"/>
      <use x="95.41015625" xlink:href="#BitstreamVeraSans-Roman-34"/>
      <use x="159.033203125" xlink:href="#BitstreamVeraSans-Roman-30"/>
      <use x="222.65625" xlink:href="#BitstreamVeraSans-Roman-37"/>
      <use x="286.279296875" xlink:href="#BitstreamVeraSans-Roman-38"/>
      <use x="349.90234375" xlink:href="#BitstreamVeraSans-Roman-36"/>
      <use x="413.525390625" xlink:href="#BitstreamVeraSans-Roman-39"/>
     </g>
    </g>
   </g>
   <g id="text_15">
    <g clip-path="url(#p1644334733)">
     <!-- 0.441111 -->
     <g style="fill:#0000ff;" transform="translate(304.252692012 223.344080359)rotate(-357.80932187965374)scale(0.08 -0.08)">
      <use xlink:href="#BitstreamVeraSans-Roman-30"/>
      <use x="63.623046875" xlink:href="#BitstreamVeraSans-Roman-2e"/>
      <use x="95.41015625" xlink:href="#BitstreamVeraSans-Roman-34"/>
      <use x="159.033203125" xlink:href="#BitstreamVeraSans-Roman-34"/>
      <use x="222.65625" xlink:href="#BitstreamVeraSans-Roman-31"/>
      <use x="286.279296875" xlink:href="#BitstreamVeraSans-Roman-31"/>
      <use x="349.90234375" xlink:href="#BitstreamVeraSans-Roman-31"/>
      <use x="413.525390625" xlink:href="#BitstreamVeraSans-Roman-31"/>
     </g>
    </g>
   </g>
   <g id="text_16">
    <g clip-path="url(#p1644334733)">
     <!-- 0.477716 -->
     <g style="fill:#0000ff;" transform="translate(251.889299918 205.35175326)rotate(-354.8236368308689)scale(0.08 -0.08)">
      <use xlink:href="#BitstreamVeraSans-Roman-30"/>
      <use x="63.623046875" xlink:href="#BitstreamVeraSans-Roman-2e"/>
      <use x="95.41015625" xlink:href="#BitstreamVeraSans-Roman-34"/>
      <use x="159.033203125" xlink:href="#BitstreamVeraSans-Roman-37"/>
      <use x="222.65625" xlink:href="#BitstreamVeraSans-Roman-37"/>
      <use x="286.279296875" xlink:href="#BitstreamVeraSans-Roman-37"/>
      <use x="349.90234375" xlink:href="#BitstreamVeraSans-Roman-31"/>
      <use x="413.525390625" xlink:href="#BitstreamVeraSans-Roman-36"/>
     </g>
    </g>
   </g>
   <g id="text_17">
    <g clip-path="url(#p1644334733)">
     <!-- 0.518294 -->
     <g style="fill:#0000ff;" transform="translate(111.298237743 48.968876004)rotate(-278.94743264961534)scale(0.08 -0.08)">
      <use xlink:href="#BitstreamVeraSans-Roman-30"/>
      <use x="63.623046875" xlink:href="#BitstreamVeraSans-Roman-2e"/>
      <use x="95.41015625" xlink:href="#BitstreamVeraSans-Roman-35"/>
      <use x="159.033203125" xlink:href="#BitstreamVeraSans-Roman-31"/>
      <use x="222.65625" xlink:href="#BitstreamVeraSans-Roman-38"/>
      <use x="286.279296875" xlink:href="#BitstreamVeraSans-Roman-32"/>
      <use x="349.90234375" xlink:href="#BitstreamVeraSans-Roman-39"/>
      <use x="413.525390625" xlink:href="#BitstreamVeraSans-Roman-34"/>
     </g>
    </g>
   </g>
   <g id="text_18">
    <g clip-path="url(#p1644334733)">
     <!-- 0.563271 -->
     <g style="fill:#0000ff;" transform="translate(144.401238689 99.845428415)rotate(-301.15724028326315)scale(0.08 -0.08)">
      <use xlink:href="#BitstreamVeraSans-Roman-30"/>
      <use x="63.623046875" xlink:href="#BitstreamVeraSans-Roman-2e"/>
      <use x="95.41015625" xlink:href="#BitstreamVeraSans-Roman-35"/>
      <use x="159.033203125" xlink:href="#BitstreamVeraSans-Roman-36"/>
      <use x="222.65625" xlink:href="#BitstreamVeraSans-Roman-33"/>
      <use x="286.279296875" xlink:href="#BitstreamVeraSans-Roman-32"/>
      <use x="349.90234375" xlink:href="#BitstreamVeraSans-Roman-37"/>
      <use x="413.525390625" xlink:href="#BitstreamVeraSans-Roman-31"/>
     </g>
    </g>
   </g>
   <g id="text_19">
    <g clip-path="url(#p1644334733)">
     <!-- 0.614265 -->
     <g style="fill:#0000ff;" transform="translate(293.733443642 159.29620347)rotate(-353.2674878116037)scale(0.08 -0.08)">
      <use xlink:href="#BitstreamVeraSans-Roman-30"/>
      <use x="63.623046875" xlink:href="#BitstreamVeraSans-Roman-2e"/>
      <use x="95.41015625" xlink:href="#BitstreamVeraSans-Roman-36"/>
      <use x="159.033203125" xlink:href="#BitstreamVeraSans-Roman-31"/>
      <use x="222.65625" xlink:href="#BitstreamVeraSans-Roman-34"/>
      <use x="286.279296875" xlink:href="#BitstreamVeraSans-Roman-32"/>
      <use x="349.90234375" xlink:href="#BitstreamVeraSans-Roman-36"/>
      <use x="413.525390625" xlink:href="#BitstreamVeraSans-Roman-35"/>
     </g>
    </g>
   </g>
   <g id="text_20">
    <g clip-path="url(#p1644334733)">
     <!-- 0.671971 -->
     <g style="fill:#0000ff;" transform="translate(188.340619369 47.0364341826)rotate(-293.10001848137654)scale(0.08 -0.08)">
      <use xlink:href="#BitstreamVeraSans-Roman-30"/>
      <use x="63.623046875" xlink:href="#BitstreamVeraSans-Roman-2e"/>
      <use x="95.41015625" xlink:href="#BitstreamVeraSans-Roman-36"/>
      <use x="159.033203125" xlink:href="#BitstreamVeraSans-Roman-37"/>
      <use x="222.65625" xlink:href="#BitstreamVeraSans-Roman-31"/>
      <use x="286.279296875" xlink:href="#BitstreamVeraSans-Roman-39"/>
      <use x="349.90234375" xlink:href="#BitstreamVeraSans-Roman-37"/>
      <use x="413.525390625" xlink:href="#BitstreamVeraSans-Roman-31"/>
     </g>
    </g>
   </g>
   <g id="text_21">
    <g clip-path="url(#p1644334733)">
     <!-- 0.737198 -->
     <g style="fill:#0000ff;" transform="translate(327.775774463 117.374821777)rotate(-349.7391745607504)scale(0.08 -0.08)">
      <use xlink:href="#BitstreamVeraSans-Roman-30"/>
      <use x="63.623046875" xlink:href="#BitstreamVeraSans-Roman-2e"/>
      <use x="95.41015625" xlink:href="#BitstreamVeraSans-Roman-37"/>
      <use x="159.033203125" xlink:href="#BitstreamVeraSans-Roman-33"/>
      <use x="222.65625" xlink:href="#BitstreamVeraSans-Roman-37"/>
      <use x="286.279296875" xlink:href="#BitstreamVeraSans-Roman-31"/>
      <use x="349.90234375" xlink:href="#BitstreamVeraSans-Roman-39"/>
      <use x="413.525390625" xlink:href="#BitstreamVeraSans-Roman-38"/>
     </g>
    </g>
   </g>
   <g id="text_22">
    <g clip-path="url(#p1644334733)">
     <!-- 0.819069 -->
     <g style="fill:#0000ff;" transform="translate(291.269227291 47.886077533)rotate(-322.27092662833564)scale(0.08 -0.08)">
      <use xlink:href="#BitstreamVeraSans-Roman-30"/>
      <use x="63.623046875" xlink:href="#BitstreamVeraSans-Roman-2e"/>
      <use x="95.41015625" xlink:href="#BitstreamVeraSans-Roman-38"/>
      <use x="159.033203125" xlink:href="#BitstreamVeraSans-Roman-31"/>
      <use x="222.65625" xlink:href="#BitstreamVeraSans-Roman-39"/>
      <use x="286.279296875" xlink:href="#BitstreamVeraSans-Roman-30"/>
      <use x="349.90234375" xlink:href="#BitstreamVeraSans-Roman-36"/>
      <use x="413.525390625" xlink:href="#BitstreamVeraSans-Roman-39"/>
     </g>
    </g>
   </g>
   <g id="text_23">
    <!-- [X0,X1] Quantile -->
    <defs>
     <path d="M 9.421875 75.984375 
L 18.40625 75.984375 
L 18.40625 0 
L 9.421875 0 
z
" id="BitstreamVeraSans-Roman-6c"/>
     <path d="M 8.5 21.578125 
L 8.5 54.6875 
L 17.484375 54.6875 
L 17.484375 21.921875 
Q 17.484375 14.15625 20.5 10.265625 
Q 23.53125 6.390625 29.59375 6.390625 
Q 36.859375 6.390625 41.078125 11.03125 
Q 45.3125 15.671875 45.3125 23.6875 
L 45.3125 54.6875 
L 54.296875 54.6875 
L 54.296875 0 
L 45.3125 0 
L 45.3125 8.40625 
Q 42.046875 3.421875 37.71875 1 
Q 33.40625 -1.421875 27.6875 -1.421875 
Q 18.265625 -1.421875 13.375 4.4375 
Q 8.5 10.296875 8.5 21.578125 
" id="BitstreamVeraSans-Roman-75"/>
     <path d="M 18.3125 70.21875 
L 18.3125 54.6875 
L 36.8125 54.6875 
L 36.8125 47.703125 
L 18.3125 47.703125 
L 18.3125 18.015625 
Q 18.3125 11.328125 20.140625 9.421875 
Q 21.96875 7.515625 27.59375 7.515625 
L 36.8125 7.515625 
L 36.8125 0 
L 27.59375 0 
Q 17.1875 0 13.234375 3.875 
Q 9.28125 7.765625 9.28125 18.015625 
L 9.28125 47.703125 
L 2.6875 47.703125 
L 2.6875 54.6875 
L 9.28125 54.6875 
L 9.28125 70.21875 
z
" id="BitstreamVeraSans-Roman-74"/>
     <path d="M 8.59375 75.984375 
L 29.296875 75.984375 
L 29.296875 69 
L 17.578125 69 
L 17.578125 -6.203125 
L 29.296875 -6.203125 
L 29.296875 -13.1875 
L 8.59375 -13.1875 
z
" id="BitstreamVeraSans-Roman-5b"/>
     <path d="M 11.71875 12.40625 
L 22.015625 12.40625 
L 22.015625 4 
L 14.015625 -11.625 
L 7.71875 -11.625 
L 11.71875 4 
z
" id="BitstreamVeraSans-Roman-2c"/>
     <path d="M 34.28125 27.484375 
Q 23.390625 27.484375 19.1875 25 
Q 14.984375 22.515625 14.984375 16.5 
Q 14.984375 11.71875 18.140625 8.90625 
Q 21.296875 6.109375 26.703125 6.109375 
Q 34.1875 6.109375 38.703125 11.40625 
Q 43.21875 16.703125 43.21875 25.484375 
L 43.21875 27.484375 
z
M 52.203125 31.203125 
L 52.203125 0 
L 43.21875 0 
L 43.21875 8.296875 
Q 40.140625 3.328125 35.546875 0.953125 
Q 30.953125 -1.421875 24.3125 -1.421875 
Q 15.921875 -1.421875 10.953125 3.296875 
Q 6 8.015625 6 15.921875 
Q 6 25.140625 12.171875 29.828125 
Q 18.359375 34.515625 30.609375 34.515625 
L 43.21875 34.515625 
L 43.21875 35.40625 
Q 43.21875 41.609375 39.140625 45 
Q 35.0625 48.390625 27.6875 48.390625 
Q 23 48.390625 18.546875 47.265625 
Q 14.109375 46.140625 10.015625 43.890625 
L 10.015625 52.203125 
Q 14.9375 54.109375 19.578125 55.046875 
Q 24.21875 56 28.609375 56 
Q 40.484375 56 46.34375 49.84375 
Q 52.203125 43.703125 52.203125 31.203125 
" id="BitstreamVeraSans-Roman-61"/>
     <path d="M 56.203125 29.59375 
L 56.203125 25.203125 
L 14.890625 25.203125 
Q 15.484375 15.921875 20.484375 11.0625 
Q 25.484375 6.203125 34.421875 6.203125 
Q 39.59375 6.203125 44.453125 7.46875 
Q 49.3125 8.734375 54.109375 11.28125 
L 54.109375 2.78125 
Q 49.265625 0.734375 44.1875 -0.34375 
Q 39.109375 -1.421875 33.890625 -1.421875 
Q 20.796875 -1.421875 13.15625 6.1875 
Q 5.515625 13.8125 5.515625 26.8125 
Q 5.515625 40.234375 12.765625 48.109375 
Q 20.015625 56 32.328125 56 
Q 43.359375 56 49.78125 48.890625 
Q 56.203125 41.796875 56.203125 29.59375 
M 47.21875 32.234375 
Q 47.125 39.59375 43.09375 43.984375 
Q 39.0625 48.390625 32.421875 48.390625 
Q 24.90625 48.390625 20.390625 44.140625 
Q 15.875 39.890625 15.1875 32.171875 
z
" id="BitstreamVeraSans-Roman-65"/>
     <path id="BitstreamVeraSans-Roman-20"/>
     <path d="M 39.40625 66.21875 
Q 28.65625 66.21875 22.328125 58.203125 
Q 16.015625 50.203125 16.015625 36.375 
Q 16.015625 22.609375 22.328125 14.59375 
Q 28.65625 6.59375 39.40625 6.59375 
Q 50.140625 6.59375 56.421875 14.59375 
Q 62.703125 22.609375 62.703125 36.375 
Q 62.703125 50.203125 56.421875 58.203125 
Q 50.140625 66.21875 39.40625 66.21875 
M 53.21875 1.3125 
L 66.21875 -12.890625 
L 54.296875 -12.890625 
L 43.5 -1.21875 
Q 41.890625 -1.3125 41.03125 -1.359375 
Q 40.1875 -1.421875 39.40625 -1.421875 
Q 24.03125 -1.421875 14.8125 8.859375 
Q 5.609375 19.140625 5.609375 36.375 
Q 5.609375 53.65625 14.8125 63.9375 
Q 24.03125 74.21875 39.40625 74.21875 
Q 54.734375 74.21875 63.90625 63.9375 
Q 73.09375 53.65625 73.09375 36.375 
Q 73.09375 23.6875 67.984375 14.640625 
Q 62.890625 5.609375 53.21875 1.3125 
" id="BitstreamVeraSans-Roman-51"/>
     <path d="M 54.890625 33.015625 
L 54.890625 0 
L 45.90625 0 
L 45.90625 32.71875 
Q 45.90625 40.484375 42.875 44.328125 
Q 39.84375 48.1875 33.796875 48.1875 
Q 26.515625 48.1875 22.3125 43.546875 
Q 18.109375 38.921875 18.109375 30.90625 
L 18.109375 0 
L 9.078125 0 
L 9.078125 54.6875 
L 18.109375 54.6875 
L 18.109375 46.1875 
Q 21.34375 51.125 25.703125 53.5625 
Q 30.078125 56 35.796875 56 
Q 45.21875 56 50.046875 50.171875 
Q 54.890625 44.34375 54.890625 33.015625 
" id="BitstreamVeraSans-Roman-6e"/>
     <path d="M 9.421875 54.6875 
L 18.40625 54.6875 
L 18.40625 0 
L 9.421875 0 
z
M 9.421875 75.984375 
L 18.40625 75.984375 
L 18.40625 64.59375 
L 9.421875 64.59375 
z
" id="BitstreamVeraSans-Roman-69"/>
     <path d="M 30.421875 75.984375 
L 30.421875 -13.1875 
L 9.71875 -13.1875 
L 9.71875 -6.203125 
L 21.390625 -6.203125 
L 21.390625 69 
L 9.71875 69 
L 9.71875 75.984375 
z
" id="BitstreamVeraSans-Roman-5d"/>
    </defs>
    <g transform="translate(171.6665625 23.8)scale(0.12 -0.12)">
     <use xlink:href="#BitstreamVeraSans-Roman-5b"/>
     <use x="39.013671875" xlink:href="#BitstreamVeraSans-Roman-58"/>
     <use x="107.51953125" xlink:href="#BitstreamVeraSans-Roman-30"/>
     <use x="171.142578125" xlink:href="#BitstreamVeraSans-Roman-2c"/>
     <use x="202.9296875" xlink:href="#BitstreamVeraSans-Roman-58"/>
     <use x="271.435546875" xlink:href="#BitstreamVeraSans-Roman-31"/>
     <use x="335.05859375" xlink:href="#BitstreamVeraSans-Roman-5d"/>
     <use x="374.072265625" xlink:href="#BitstreamVeraSans-Roman-20"/>
     <use x="405.859375" xlink:href="#BitstreamVeraSans-Roman-51"/>
     <use x="484.5703125" xlink:href="#BitstreamVeraSans-Roman-75"/>
     <use x="547.94921875" xlink:href="#BitstreamVeraSans-Roman-61"/>
     <use x="609.228515625" xlink:href="#BitstreamVeraSans-Roman-6e"/>
     <use x="672.607421875" xlink:href="#BitstreamVeraSans-Roman-74"/>
     <use x="711.81640625" xlink:href="#BitstreamVeraSans-Roman-69"/>
     <use x="739.599609375" xlink:href="#BitstreamVeraSans-Roman-6c"/>
     <use x="767.3828125" xlink:href="#BitstreamVeraSans-Roman-65"/>
    </g>
   </g>
   <g id="legend_1">
    <g id="patch_7">
     <path d="M 63 200.259375 
L 142.715625 200.259375 
Q 144.715625 200.259375 144.715625 198.259375 
L 144.715625 37.8 
Q 144.715625 35.8 142.715625 35.8 
L 63 35.8 
Q 61 35.8 61 37.8 
L 61 198.259375 
Q 61 200.259375 63 200.259375 
z
" style="fill:#4c4c4c;opacity:0.5;stroke:#4c4c4c;stroke-linejoin:miter;"/>
    </g>
    <g id="patch_8">
     <path d="M 61 198.259375 
L 140.715625 198.259375 
Q 142.715625 198.259375 142.715625 196.259375 
L 142.715625 35.8 
Q 142.715625 33.8 140.715625 33.8 
L 61 33.8 
Q 59 33.8 59 35.8 
L 59 196.259375 
Q 59 198.259375 61 198.259375 
z
" style="fill:#ffffff;stroke:#000000;stroke-linejoin:miter;"/>
    </g>
    <g id="line2d_32">
     <path d="M 63 41.898438 
L 83 41.898438 
" style="fill:none;stroke:#ff0000;stroke-linecap:square;stroke-width:2.0;"/>
    </g>
    <g id="line2d_33"/>
    <g id="text_24">
     <!-- quantile -->
     <defs>
      <path d="M 14.796875 27.296875 
Q 14.796875 17.390625 18.875 11.75 
Q 22.953125 6.109375 30.078125 6.109375 
Q 37.203125 6.109375 41.296875 11.75 
Q 45.40625 17.390625 45.40625 27.296875 
Q 45.40625 37.203125 41.296875 42.84375 
Q 37.203125 48.484375 30.078125 48.484375 
Q 22.953125 48.484375 18.875 42.84375 
Q 14.796875 37.203125 14.796875 27.296875 
M 45.40625 8.203125 
Q 42.578125 3.328125 38.25 0.953125 
Q 33.9375 -1.421875 27.875 -1.421875 
Q 17.96875 -1.421875 11.734375 6.484375 
Q 5.515625 14.40625 5.515625 27.296875 
Q 5.515625 40.1875 11.734375 48.09375 
Q 17.96875 56 27.875 56 
Q 33.9375 56 38.25 53.625 
Q 42.578125 51.265625 45.40625 46.390625 
L 45.40625 54.6875 
L 54.390625 54.6875 
L 54.390625 -20.796875 
L 45.40625 -20.796875 
z
" id="BitstreamVeraSans-Roman-71"/>
     </defs>
     <g transform="translate(91.0 45.3984375)scale(0.1 -0.1)">
      <use xlink:href="#BitstreamVeraSans-Roman-71"/>
      <use x="63.4765625" xlink:href="#BitstreamVeraSans-Roman-75"/>
      <use x="126.85546875" xlink:href="#BitstreamVeraSans-Roman-61"/>
      <use x="188.134765625" xlink:href="#BitstreamVeraSans-Roman-6e"/>
      <use x="251.513671875" xlink:href="#BitstreamVeraSans-Roman-74"/>
      <use x="290.72265625" xlink:href="#BitstreamVeraSans-Roman-69"/>
      <use x="318.505859375" xlink:href="#BitstreamVeraSans-Roman-6c"/>
      <use x="346.2890625" xlink:href="#BitstreamVeraSans-Roman-65"/>
     </g>
    </g>
    <g id="line2d_34">
     <path d="M 66 56.576563 
L 73 56.576563 
L 80 56.576563 
" style="fill:none;stroke:#0000ff;stroke-linecap:square;"/>
    </g>
    <g id="text_25">
     <!-- 0.371181 -->
     <g transform="translate(91.0 60.0765625)scale(0.1 -0.1)">
      <use xlink:href="#BitstreamVeraSans-Roman-30"/>
      <use x="63.623046875" xlink:href="#BitstreamVeraSans-Roman-2e"/>
      <use x="95.41015625" xlink:href="#BitstreamVeraSans-Roman-33"/>
      <use x="159.033203125" xlink:href="#BitstreamVeraSans-Roman-37"/>
      <use x="222.65625" xlink:href="#BitstreamVeraSans-Roman-31"/>
      <use x="286.279296875" xlink:href="#BitstreamVeraSans-Roman-31"/>
      <use x="349.90234375" xlink:href="#BitstreamVeraSans-Roman-38"/>
      <use x="413.525390625" xlink:href="#BitstreamVeraSans-Roman-31"/>
     </g>
    </g>
    <g id="line2d_35">
     <path d="M 66 71.254688 
L 73 71.254688 
L 80 71.254688 
" style="fill:none;stroke:#0000ff;stroke-linecap:square;"/>
    </g>
    <g id="text_26">
     <!-- 0.407869 -->
     <g transform="translate(91.0 74.7546875)scale(0.1 -0.1)">
      <use xlink:href="#BitstreamVeraSans-Roman-30"/>
      <use x="63.623046875" xlink:href="#BitstreamVeraSans-Roman-2e"/>
      <use x="95.41015625" xlink:href="#BitstreamVeraSans-Roman-34"/>
      <use x="159.033203125" xlink:href="#BitstreamVeraSans-Roman-30"/>
      <use x="222.65625" xlink:href="#BitstreamVeraSans-Roman-37"/>
      <use x="286.279296875" xlink:href="#BitstreamVeraSans-Roman-38"/>
      <use x="349.90234375" xlink:href="#BitstreamVeraSans-Roman-36"/>
      <use x="413.525390625" xlink:href="#BitstreamVeraSans-Roman-39"/>
     </g>
    </g>
    <g id="line2d_36">
     <path d="M 66 85.932813 
L 73 85.932813 
L 80 85.932813 
" style="fill:none;stroke:#0000ff;stroke-linecap:square;"/>
    </g>
    <g id="text_27">
     <!-- 0.441111 -->
     <g transform="translate(91.0 89.4328125)scale(0.1 -0.1)">
      <use xlink:href="#BitstreamVeraSans-Roman-30"/>
      <use x="63.623046875" xlink:href="#BitstreamVeraSans-Roman-2e"/>
      <use x="95.41015625" xlink:href="#BitstreamVeraSans-Roman-34"/>
      <use x="159.033203125" xlink:href="#BitstreamVeraSans-Roman-34"/>
      <use x="222.65625" xlink:href="#BitstreamVeraSans-Roman-31"/>
      <use x="286.279296875" xlink:href="#BitstreamVeraSans-Roman-31"/>
      <use x="349.90234375" xlink:href="#BitstreamVeraSans-Roman-31"/>
      <use x="413.525390625" xlink:href="#BitstreamVeraSans-Roman-31"/>
     </g>
    </g>
    <g id="line2d_37">
     <path d="M 66 100.610938 
L 73 100.610938 
L 80 100.610938 
" style="fill:none;stroke:#0000ff;stroke-linecap:square;"/>
    </g>
    <g id="text_28">
     <!-- 0.477716 -->
     <g transform="translate(91.0 104.1109375)scale(0.1 -0.1)">
      <use xlink:href="#BitstreamVeraSans-Roman-30"/>
      <use x="63.623046875" xlink:href="#BitstreamVeraSans-Roman-2e"/>
      <use x="95.41015625" xlink:href="#BitstreamVeraSans-Roman-34"/>
      <use x="159.033203125" xlink:href="#BitstreamVeraSans-Roman-37"/>
      <use x="222.65625" xlink:href="#BitstreamVeraSans-Roman-37"/>
      <use x="286.279296875" xlink:href="#BitstreamVeraSans-Roman-37"/>
      <use x="349.90234375" xlink:href="#BitstreamVeraSans-Roman-31"/>
      <use x="413.525390625" xlink:href="#BitstreamVeraSans-Roman-36"/>
     </g>
    </g>
    <g id="line2d_38">
     <path d="M 66 115.289062 
L 73 115.289062 
L 80 115.289062 
" style="fill:none;stroke:#0000ff;stroke-linecap:square;"/>
    </g>
    <g id="text_29">
     <!-- 0.518294 -->
     <g transform="translate(91.0 118.7890625)scale(0.1 -0.1)">
      <use xlink:href="#BitstreamVeraSans-Roman-30"/>
      <use x="63.623046875" xlink:href="#BitstreamVeraSans-Roman-2e"/>
      <use x="95.41015625" xlink:href="#BitstreamVeraSans-Roman-35"/>
      <use x="159.033203125" xlink:href="#BitstreamVeraSans-Roman-31"/>
      <use x="222.65625" xlink:href="#BitstreamVeraSans-Roman-38"/>
      <use x="286.279296875" xlink:href="#BitstreamVeraSans-Roman-32"/>
      <use x="349.90234375" xlink:href="#BitstreamVeraSans-Roman-39"/>
      <use x="413.525390625" xlink:href="#BitstreamVeraSans-Roman-34"/>
     </g>
    </g>
    <g id="line2d_39">
     <path d="M 66 129.967188 
L 73 129.967188 
L 80 129.967188 
" style="fill:none;stroke:#0000ff;stroke-linecap:square;"/>
    </g>
    <g id="text_30">
     <!-- 0.563271 -->
     <g transform="translate(91.0 133.4671875)scale(0.1 -0.1)">
      <use xlink:href="#BitstreamVeraSans-Roman-30"/>
      <use x="63.623046875" xlink:href="#BitstreamVeraSans-Roman-2e"/>
      <use x="95.41015625" xlink:href="#BitstreamVeraSans-Roman-35"/>
      <use x="159.033203125" xlink:href="#BitstreamVeraSans-Roman-36"/>
      <use x="222.65625" xlink:href="#BitstreamVeraSans-Roman-33"/>
      <use x="286.279296875" xlink:href="#BitstreamVeraSans-Roman-32"/>
      <use x="349.90234375" xlink:href="#BitstreamVeraSans-Roman-37"/>
      <use x="413.525390625" xlink:href="#BitstreamVeraSans-Roman-31"/>
     </g>
    </g>
    <g id="line2d_40">
     <path d="M 66 144.645312 
L 73 144.645312 
L 80 144.645312 
" style="fill:none;stroke:#0000ff;stroke-linecap:square;"/>
    </g>
    <g id="text_31">
     <!-- 0.614265 -->
     <g transform="translate(91.0 148.1453125)scale(0.1 -0.1)">
      <use xlink:href="#BitstreamVeraSans-Roman-30"/>
      <use x="63.623046875" xlink:href="#BitstreamVeraSans-Roman-2e"/>
      <use x="95.41015625" xlink:href="#BitstreamVeraSans-Roman-36"/>
      <use x="159.033203125" xlink:href="#BitstreamVeraSans-Roman-31"/>
      <use x="222.65625" xlink:href="#BitstreamVeraSans-Roman-34"/>
      <use x="286.279296875" xlink:href="#BitstreamVeraSans-Roman-32"/>
      <use x="349.90234375" xlink:href="#BitstreamVeraSans-Roman-36"/>
      <use x="413.525390625" xlink:href="#BitstreamVeraSans-Roman-35"/>
     </g>
    </g>
    <g id="line2d_41">
     <path d="M 66 159.323438 
L 73 159.323438 
L 80 159.323438 
" style="fill:none;stroke:#0000ff;stroke-linecap:square;"/>
    </g>
    <g id="text_32">
     <!-- 0.671971 -->
     <g transform="translate(91.0 162.8234375)scale(0.1 -0.1)">
      <use xlink:href="#BitstreamVeraSans-Roman-30"/>
      <use x="63.623046875" xlink:href="#BitstreamVeraSans-Roman-2e"/>
      <use x="95.41015625" xlink:href="#BitstreamVeraSans-Roman-36"/>
      <use x="159.033203125" xlink:href="#BitstreamVeraSans-Roman-37"/>
      <use x="222.65625" xlink:href="#BitstreamVeraSans-Roman-31"/>
      <use x="286.279296875" xlink:href="#BitstreamVeraSans-Roman-39"/>
      <use x="349.90234375" xlink:href="#BitstreamVeraSans-Roman-37"/>
      <use x="413.525390625" xlink:href="#BitstreamVeraSans-Roman-31"/>
     </g>
    </g>
    <g id="line2d_42">
     <path d="M 66 174.001562 
L 73 174.001562 
L 80 174.001562 
" style="fill:none;stroke:#0000ff;stroke-linecap:square;"/>
    </g>
    <g id="text_33">
     <!-- 0.737198 -->
     <g transform="translate(91.0 177.5015625)scale(0.1 -0.1)">
      <use xlink:href="#BitstreamVeraSans-Roman-30"/>
      <use x="63.623046875" xlink:href="#BitstreamVeraSans-Roman-2e"/>
      <use x="95.41015625" xlink:href="#BitstreamVeraSans-Roman-37"/>
      <use x="159.033203125" xlink:href="#BitstreamVeraSans-Roman-33"/>
      <use x="222.65625" xlink:href="#BitstreamVeraSans-Roman-37"/>
      <use x="286.279296875" xlink:href="#BitstreamVeraSans-Roman-31"/>
      <use x="349.90234375" xlink:href="#BitstreamVeraSans-Roman-39"/>
      <use x="413.525390625" xlink:href="#BitstreamVeraSans-Roman-38"/>
     </g>
    </g>
    <g id="line2d_43">
     <path d="M 66 188.679687 
L 73 188.679687 
L 80 188.679687 
" style="fill:none;stroke:#0000ff;stroke-linecap:square;"/>
    </g>
    <g id="text_34">
     <!-- 0.819069 -->
     <g transform="translate(91.0 192.1796875)scale(0.1 -0.1)">
      <use xlink:href="#BitstreamVeraSans-Roman-30"/>
      <use x="63.623046875" xlink:href="#BitstreamVeraSans-Roman-2e"/>
      <use x="95.41015625" xlink:href="#BitstreamVeraSans-Roman-38"/>
      <use x="159.033203125" xlink:href="#BitstreamVeraSans-Roman-31"/>
      <use x="222.65625" xlink:href="#BitstreamVeraSans-Roman-39"/>
      <use x="286.279296875" xlink:href="#BitstreamVeraSans-Roman-30"/>
      <use x="349.90234375" xlink:href="#BitstreamVeraSans-Roman-36"/>
      <use x="413.525390625" xlink:href="#BitstreamVeraSans-Roman-39"/>
     </g>
    </g>
   </g>
  </g>
 </g>
 <defs>
  <clipPath id="p1644334733">
   <rect height="223.2" width="334.8" x="54.0" y="28.8"/>
  </clipPath>
 </defs>
</svg>
