<?xml version="1.0" encoding="utf-8" standalone="no"?>
<!DOCTYPE svg PUBLIC "-//W3C//DTD SVG 1.1//EN"
  "http://www.w3.org/Graphics/SVG/1.1/DTD/svg11.dtd">
<!-- Created with matplotlib (http://matplotlib.org/) -->
<svg height="288pt" version="1.1" viewBox="0 0 432 288" width="432pt" xmlns="http://www.w3.org/2000/svg" xmlns:xlink="http://www.w3.org/1999/xlink">
 <defs>
  <style type="text/css">
*{stroke-linecap:butt;stroke-linejoin:round;}
  </style>
 </defs>
 <g id="figure_1">
  <g id="patch_1">
   <path d="M 0 288 
L 432 288 
L 432 0 
L 0 0 
z
" style="fill:#ffffff;"/>
  </g>
  <g id="axes_1">
   <g id="patch_2">
    <path d="M 54 252 
L 388.8 252 
L 388.8 34.56 
L 54 34.56 
z
" style="fill:#ffffff;"/>
   </g>
   <g id="matplotlib.axis_1">
    <g id="xtick_1">
     <g id="line2d_1">
      <path clip-path="url(#pca4c90ecb6)" d="M 69.218182 252 
L 69.218182 34.56 
" style="fill:none;stroke:#b0b0b0;stroke-linecap:square;stroke-width:0.8;"/>
     </g>
     <g id="line2d_2">
      <defs>
       <path d="M 0 0 
L 0 3.5 
" id="m410ce0547d" style="stroke:#000000;stroke-width:0.8;"/>
      </defs>
      <g>
       <use style="stroke:#000000;stroke-width:0.8;" x="69.218182" xlink:href="#m410ce0547d" y="252"/>
      </g>
     </g>
     <g id="text_1">
      <!-- 0 -->
      <defs>
       <path d="M 31.78125 66.40625 
Q 24.171875 66.40625 20.328125 58.90625 
Q 16.5 51.421875 16.5 36.375 
Q 16.5 21.390625 20.328125 13.890625 
Q 24.171875 6.390625 31.78125 6.390625 
Q 39.453125 6.390625 43.28125 13.890625 
Q 47.125 21.390625 47.125 36.375 
Q 47.125 51.421875 43.28125 58.90625 
Q 39.453125 66.40625 31.78125 66.40625 
z
M 31.78125 74.21875 
Q 44.046875 74.21875 50.515625 64.515625 
Q 56.984375 54.828125 56.984375 36.375 
Q 56.984375 17.96875 50.515625 8.265625 
Q 44.046875 -1.421875 31.78125 -1.421875 
Q 19.53125 -1.421875 13.0625 8.265625 
Q 6.59375 17.96875 6.59375 36.375 
Q 6.59375 54.828125 13.0625 64.515625 
Q 19.53125 74.21875 31.78125 74.21875 
z
" id="DejaVuSans-30"/>
      </defs>
      <g transform="translate(66.036932 266.598437)scale(0.1 -0.1)">
       <use xlink:href="#DejaVuSans-30"/>
      </g>
     </g>
    </g>
    <g id="xtick_2">
     <g id="line2d_3">
      <path clip-path="url(#pca4c90ecb6)" d="M 119.945455 252 
L 119.945455 34.56 
" style="fill:none;stroke:#b0b0b0;stroke-linecap:square;stroke-width:0.8;"/>
     </g>
     <g id="line2d_4">
      <g>
       <use style="stroke:#000000;stroke-width:0.8;" x="119.945455" xlink:href="#m410ce0547d" y="252"/>
      </g>
     </g>
     <g id="text_2">
      <!-- 2 -->
      <defs>
       <path d="M 19.1875 8.296875 
L 53.609375 8.296875 
L 53.609375 0 
L 7.328125 0 
L 7.328125 8.296875 
Q 12.9375 14.109375 22.625 23.890625 
Q 32.328125 33.6875 34.8125 36.53125 
Q 39.546875 41.84375 41.421875 45.53125 
Q 43.3125 49.21875 43.3125 52.78125 
Q 43.3125 58.59375 39.234375 62.25 
Q 35.15625 65.921875 28.609375 65.921875 
Q 23.96875 65.921875 18.8125 64.3125 
Q 13.671875 62.703125 7.8125 59.421875 
L 7.8125 69.390625 
Q 13.765625 71.78125 18.9375 73 
Q 24.125 74.21875 28.421875 74.21875 
Q 39.75 74.21875 46.484375 68.546875 
Q 53.21875 62.890625 53.21875 53.421875 
Q 53.21875 48.921875 51.53125 44.890625 
Q 49.859375 40.875 45.40625 35.40625 
Q 44.1875 33.984375 37.640625 27.21875 
Q 31.109375 20.453125 19.1875 8.296875 
z
" id="DejaVuSans-32"/>
      </defs>
      <g transform="translate(116.764205 266.598437)scale(0.1 -0.1)">
       <use xlink:href="#DejaVuSans-32"/>
      </g>
     </g>
    </g>
    <g id="xtick_3">
     <g id="line2d_5">
      <path clip-path="url(#pca4c90ecb6)" d="M 170.672727 252 
L 170.672727 34.56 
" style="fill:none;stroke:#b0b0b0;stroke-linecap:square;stroke-width:0.8;"/>
     </g>
     <g id="line2d_6">
      <g>
       <use style="stroke:#000000;stroke-width:0.8;" x="170.672727" xlink:href="#m410ce0547d" y="252"/>
      </g>
     </g>
     <g id="text_3">
      <!-- 4 -->
      <defs>
       <path d="M 37.796875 64.3125 
L 12.890625 25.390625 
L 37.796875 25.390625 
z
M 35.203125 72.90625 
L 47.609375 72.90625 
L 47.609375 25.390625 
L 58.015625 25.390625 
L 58.015625 17.1875 
L 47.609375 17.1875 
L 47.609375 0 
L 37.796875 0 
L 37.796875 17.1875 
L 4.890625 17.1875 
L 4.890625 26.703125 
z
" id="DejaVuSans-34"/>
      </defs>
      <g transform="translate(167.491477 266.598437)scale(0.1 -0.1)">
       <use xlink:href="#DejaVuSans-34"/>
      </g>
     </g>
    </g>
    <g id="xtick_4">
     <g id="line2d_7">
      <path clip-path="url(#pca4c90ecb6)" d="M 221.4 252 
L 221.4 34.56 
" style="fill:none;stroke:#b0b0b0;stroke-linecap:square;stroke-width:0.8;"/>
     </g>
     <g id="line2d_8">
      <g>
       <use style="stroke:#000000;stroke-width:0.8;" x="221.4" xlink:href="#m410ce0547d" y="252"/>
      </g>
     </g>
     <g id="text_4">
      <!-- 6 -->
      <defs>
       <path d="M 33.015625 40.375 
Q 26.375 40.375 22.484375 35.828125 
Q 18.609375 31.296875 18.609375 23.390625 
Q 18.609375 15.53125 22.484375 10.953125 
Q 26.375 6.390625 33.015625 6.390625 
Q 39.65625 6.390625 43.53125 10.953125 
Q 47.40625 15.53125 47.40625 23.390625 
Q 47.40625 31.296875 43.53125 35.828125 
Q 39.65625 40.375 33.015625 40.375 
z
M 52.59375 71.296875 
L 52.59375 62.3125 
Q 48.875 64.0625 45.09375 64.984375 
Q 41.3125 65.921875 37.59375 65.921875 
Q 27.828125 65.921875 22.671875 59.328125 
Q 17.53125 52.734375 16.796875 39.40625 
Q 19.671875 43.65625 24.015625 45.921875 
Q 28.375 48.1875 33.59375 48.1875 
Q 44.578125 48.1875 50.953125 41.515625 
Q 57.328125 34.859375 57.328125 23.390625 
Q 57.328125 12.15625 50.6875 5.359375 
Q 44.046875 -1.421875 33.015625 -1.421875 
Q 20.359375 -1.421875 13.671875 8.265625 
Q 6.984375 17.96875 6.984375 36.375 
Q 6.984375 53.65625 15.1875 63.9375 
Q 23.390625 74.21875 37.203125 74.21875 
Q 40.921875 74.21875 44.703125 73.484375 
Q 48.484375 72.75 52.59375 71.296875 
z
" id="DejaVuSans-36"/>
      </defs>
      <g transform="translate(218.21875 266.598437)scale(0.1 -0.1)">
       <use xlink:href="#DejaVuSans-36"/>
      </g>
     </g>
    </g>
    <g id="xtick_5">
     <g id="line2d_9">
      <path clip-path="url(#pca4c90ecb6)" d="M 272.127273 252 
L 272.127273 34.56 
" style="fill:none;stroke:#b0b0b0;stroke-linecap:square;stroke-width:0.8;"/>
     </g>
     <g id="line2d_10">
      <g>
       <use style="stroke:#000000;stroke-width:0.8;" x="272.127273" xlink:href="#m410ce0547d" y="252"/>
      </g>
     </g>
     <g id="text_5">
      <!-- 8 -->
      <defs>
       <path d="M 31.78125 34.625 
Q 24.75 34.625 20.71875 30.859375 
Q 16.703125 27.09375 16.703125 20.515625 
Q 16.703125 13.921875 20.71875 10.15625 
Q 24.75 6.390625 31.78125 6.390625 
Q 38.8125 6.390625 42.859375 10.171875 
Q 46.921875 13.96875 46.921875 20.515625 
Q 46.921875 27.09375 42.890625 30.859375 
Q 38.875 34.625 31.78125 34.625 
z
M 21.921875 38.8125 
Q 15.578125 40.375 12.03125 44.71875 
Q 8.5 49.078125 8.5 55.328125 
Q 8.5 64.0625 14.71875 69.140625 
Q 20.953125 74.21875 31.78125 74.21875 
Q 42.671875 74.21875 48.875 69.140625 
Q 55.078125 64.0625 55.078125 55.328125 
Q 55.078125 49.078125 51.53125 44.71875 
Q 48 40.375 41.703125 38.8125 
Q 48.828125 37.15625 52.796875 32.3125 
Q 56.78125 27.484375 56.78125 20.515625 
Q 56.78125 9.90625 50.3125 4.234375 
Q 43.84375 -1.421875 31.78125 -1.421875 
Q 19.734375 -1.421875 13.25 4.234375 
Q 6.78125 9.90625 6.78125 20.515625 
Q 6.78125 27.484375 10.78125 32.3125 
Q 14.796875 37.15625 21.921875 38.8125 
z
M 18.3125 54.390625 
Q 18.3125 48.734375 21.84375 45.5625 
Q 25.390625 42.390625 31.78125 42.390625 
Q 38.140625 42.390625 41.71875 45.5625 
Q 45.3125 48.734375 45.3125 54.390625 
Q 45.3125 60.0625 41.71875 63.234375 
Q 38.140625 66.40625 31.78125 66.40625 
Q 25.390625 66.40625 21.84375 63.234375 
Q 18.3125 60.0625 18.3125 54.390625 
z
" id="DejaVuSans-38"/>
      </defs>
      <g transform="translate(268.946023 266.598437)scale(0.1 -0.1)">
       <use xlink:href="#DejaVuSans-38"/>
      </g>
     </g>
    </g>
    <g id="xtick_6">
     <g id="line2d_11">
      <path clip-path="url(#pca4c90ecb6)" d="M 322.854545 252 
L 322.854545 34.56 
" style="fill:none;stroke:#b0b0b0;stroke-linecap:square;stroke-width:0.8;"/>
     </g>
     <g id="line2d_12">
      <g>
       <use style="stroke:#000000;stroke-width:0.8;" x="322.854545" xlink:href="#m410ce0547d" y="252"/>
      </g>
     </g>
     <g id="text_6">
      <!-- 10 -->
      <defs>
       <path d="M 12.40625 8.296875 
L 28.515625 8.296875 
L 28.515625 63.921875 
L 10.984375 60.40625 
L 10.984375 69.390625 
L 28.421875 72.90625 
L 38.28125 72.90625 
L 38.28125 8.296875 
L 54.390625 8.296875 
L 54.390625 0 
L 12.40625 0 
z
" id="DejaVuSans-31"/>
      </defs>
      <g transform="translate(316.492045 266.598437)scale(0.1 -0.1)">
       <use xlink:href="#DejaVuSans-31"/>
       <use x="63.623047" xlink:href="#DejaVuSans-30"/>
      </g>
     </g>
    </g>
    <g id="xtick_7">
     <g id="line2d_13">
      <path clip-path="url(#pca4c90ecb6)" d="M 373.581818 252 
L 373.581818 34.56 
" style="fill:none;stroke:#b0b0b0;stroke-linecap:square;stroke-width:0.8;"/>
     </g>
     <g id="line2d_14">
      <g>
       <use style="stroke:#000000;stroke-width:0.8;" x="373.581818" xlink:href="#m410ce0547d" y="252"/>
      </g>
     </g>
     <g id="text_7">
      <!-- 12 -->
      <g transform="translate(367.219318 266.598437)scale(0.1 -0.1)">
       <use xlink:href="#DejaVuSans-31"/>
       <use x="63.623047" xlink:href="#DejaVuSans-32"/>
      </g>
     </g>
    </g>
    <g id="text_8">
     <!-- $t$ -->
     <defs>
      <path d="M 42.28125 54.6875 
L 40.921875 47.703125 
L 23 47.703125 
L 17.1875 18.015625 
Q 16.890625 16.359375 16.75 15.234375 
Q 16.609375 14.109375 16.609375 13.484375 
Q 16.609375 10.359375 18.484375 8.9375 
Q 20.359375 7.515625 24.515625 7.515625 
L 33.59375 7.515625 
L 32.078125 0 
L 23.484375 0 
Q 15.484375 0 11.546875 3.125 
Q 7.625 6.25 7.625 12.59375 
Q 7.625 13.71875 7.765625 15.0625 
Q 7.90625 16.40625 8.203125 18.015625 
L 14.015625 47.703125 
L 6.390625 47.703125 
L 7.8125 54.6875 
L 15.28125 54.6875 
L 18.3125 70.21875 
L 27.296875 70.21875 
L 24.3125 54.6875 
z
" id="DejaVuSans-Oblique-74"/>
     </defs>
     <g transform="translate(219.4 280.276563)scale(0.1 -0.1)">
      <use transform="translate(0 0.78125)" xlink:href="#DejaVuSans-Oblique-74"/>
     </g>
    </g>
   </g>
   <g id="matplotlib.axis_2">
    <g id="ytick_1">
     <g id="line2d_15">
      <path clip-path="url(#pca4c90ecb6)" d="M 54 247.715153 
L 388.8 247.715153 
" style="fill:none;stroke:#b0b0b0;stroke-linecap:square;stroke-width:0.8;"/>
     </g>
     <g id="line2d_16">
      <defs>
       <path d="M 0 0 
L -3.5 0 
" id="m202d2980d4" style="stroke:#000000;stroke-width:0.8;"/>
      </defs>
      <g>
       <use style="stroke:#000000;stroke-width:0.8;" x="54" xlink:href="#m202d2980d4" y="247.715153"/>
      </g>
     </g>
     <g id="text_9">
      <!-- −50 -->
      <defs>
       <path d="M 10.59375 35.5 
L 73.1875 35.5 
L 73.1875 27.203125 
L 10.59375 27.203125 
z
" id="DejaVuSans-2212"/>
       <path d="M 10.796875 72.90625 
L 49.515625 72.90625 
L 49.515625 64.59375 
L 19.828125 64.59375 
L 19.828125 46.734375 
Q 21.96875 47.46875 24.109375 47.828125 
Q 26.265625 48.1875 28.421875 48.1875 
Q 40.625 48.1875 47.75 41.5 
Q 54.890625 34.8125 54.890625 23.390625 
Q 54.890625 11.625 47.5625 5.09375 
Q 40.234375 -1.421875 26.90625 -1.421875 
Q 22.3125 -1.421875 17.546875 -0.640625 
Q 12.796875 0.140625 7.71875 1.703125 
L 7.71875 11.625 
Q 12.109375 9.234375 16.796875 8.0625 
Q 21.484375 6.890625 26.703125 6.890625 
Q 35.15625 6.890625 40.078125 11.328125 
Q 45.015625 15.765625 45.015625 23.390625 
Q 45.015625 31 40.078125 35.4375 
Q 35.15625 39.890625 26.703125 39.890625 
Q 22.75 39.890625 18.8125 39.015625 
Q 14.890625 38.140625 10.796875 36.28125 
z
" id="DejaVuSans-35"/>
      </defs>
      <g transform="translate(25.895312 251.514372)scale(0.1 -0.1)">
       <use xlink:href="#DejaVuSans-2212"/>
       <use x="83.789062" xlink:href="#DejaVuSans-35"/>
       <use x="147.412109" xlink:href="#DejaVuSans-30"/>
      </g>
     </g>
    </g>
    <g id="ytick_2">
     <g id="line2d_17">
      <path clip-path="url(#pca4c90ecb6)" d="M 54 210.752113 
L 388.8 210.752113 
" style="fill:none;stroke:#b0b0b0;stroke-linecap:square;stroke-width:0.8;"/>
     </g>
     <g id="line2d_18">
      <g>
       <use style="stroke:#000000;stroke-width:0.8;" x="54" xlink:href="#m202d2980d4" y="210.752113"/>
      </g>
     </g>
     <g id="text_10">
      <!-- 0 -->
      <g transform="translate(40.6375 214.551332)scale(0.1 -0.1)">
       <use xlink:href="#DejaVuSans-30"/>
      </g>
     </g>
    </g>
    <g id="ytick_3">
     <g id="line2d_19">
      <path clip-path="url(#pca4c90ecb6)" d="M 54 173.789073 
L 388.8 173.789073 
" style="fill:none;stroke:#b0b0b0;stroke-linecap:square;stroke-width:0.8;"/>
     </g>
     <g id="line2d_20">
      <g>
       <use style="stroke:#000000;stroke-width:0.8;" x="54" xlink:href="#m202d2980d4" y="173.789073"/>
      </g>
     </g>
     <g id="text_11">
      <!-- 50 -->
      <g transform="translate(34.275 177.588291)scale(0.1 -0.1)">
       <use xlink:href="#DejaVuSans-35"/>
       <use x="63.623047" xlink:href="#DejaVuSans-30"/>
      </g>
     </g>
    </g>
    <g id="ytick_4">
     <g id="line2d_21">
      <path clip-path="url(#pca4c90ecb6)" d="M 54 136.826032 
L 388.8 136.826032 
" style="fill:none;stroke:#b0b0b0;stroke-linecap:square;stroke-width:0.8;"/>
     </g>
     <g id="line2d_22">
      <g>
       <use style="stroke:#000000;stroke-width:0.8;" x="54" xlink:href="#m202d2980d4" y="136.826032"/>
      </g>
     </g>
     <g id="text_12">
      <!-- 100 -->
      <g transform="translate(27.9125 140.625251)scale(0.1 -0.1)">
       <use xlink:href="#DejaVuSans-31"/>
       <use x="63.623047" xlink:href="#DejaVuSans-30"/>
       <use x="127.246094" xlink:href="#DejaVuSans-30"/>
      </g>
     </g>
    </g>
    <g id="ytick_5">
     <g id="line2d_23">
      <path clip-path="url(#pca4c90ecb6)" d="M 54 99.862992 
L 388.8 99.862992 
" style="fill:none;stroke:#b0b0b0;stroke-linecap:square;stroke-width:0.8;"/>
     </g>
     <g id="line2d_24">
      <g>
       <use style="stroke:#000000;stroke-width:0.8;" x="54" xlink:href="#m202d2980d4" y="99.862992"/>
      </g>
     </g>
     <g id="text_13">
      <!-- 150 -->
      <g transform="translate(27.9125 103.662211)scale(0.1 -0.1)">
       <use xlink:href="#DejaVuSans-31"/>
       <use x="63.623047" xlink:href="#DejaVuSans-35"/>
       <use x="127.246094" xlink:href="#DejaVuSans-30"/>
      </g>
     </g>
    </g>
    <g id="ytick_6">
     <g id="line2d_25">
      <path clip-path="url(#pca4c90ecb6)" d="M 54 62.899952 
L 388.8 62.899952 
" style="fill:none;stroke:#b0b0b0;stroke-linecap:square;stroke-width:0.8;"/>
     </g>
     <g id="line2d_26">
      <g>
       <use style="stroke:#000000;stroke-width:0.8;" x="54" xlink:href="#m202d2980d4" y="62.899952"/>
      </g>
     </g>
     <g id="text_14">
      <!-- 200 -->
      <g transform="translate(27.9125 66.69917)scale(0.1 -0.1)">
       <use xlink:href="#DejaVuSans-32"/>
       <use x="63.623047" xlink:href="#DejaVuSans-30"/>
       <use x="127.246094" xlink:href="#DejaVuSans-30"/>
      </g>
     </g>
    </g>
    <g id="text_15">
     <!-- $z$ -->
     <defs>
      <path d="M 11.625 54.6875 
L 54.296875 54.6875 
L 52.6875 46.484375 
L 11.53125 7.171875 
L 45.515625 7.171875 
L 44.09375 0 
L -0.296875 0 
L 1.3125 8.203125 
L 42.484375 47.515625 
L 10.203125 47.515625 
z
" id="DejaVuSans-Oblique-7a"/>
     </defs>
     <g transform="translate(19.815625 145.93)rotate(-90)scale(0.1 -0.1)">
      <use transform="translate(0 0.3125)" xlink:href="#DejaVuSans-Oblique-7a"/>
     </g>
    </g>
   </g>
   <g id="line2d_27">
    <path clip-path="url(#pca4c90ecb6)" d="M 69.218182 119.844925 
L 72.292562 114.994461 
L 75.366942 110.34661 
L 78.441322 105.89632 
L 81.515702 101.638698 
L 84.590083 97.569009 
L 87.664463 93.682667 
L 90.738843 89.975231 
L 93.813223 86.442398 
L 96.887603 83.080002 
L 99.961983 79.884004 
L 103.036364 76.850494 
L 106.110744 73.975679 
L 109.185124 71.255885 
L 112.259504 68.687551 
L 115.333884 66.267223 
L 118.408264 63.991552 
L 121.482645 61.857293 
L 124.557025 59.861295 
L 127.631405 58.000503 
L 130.705785 56.271955 
L 133.780165 54.672776 
L 136.854545 53.200174 
L 139.928926 51.851441 
L 143.003306 50.62395 
L 146.077686 49.515148 
L 149.152066 48.522558 
L 152.226446 47.643774 
L 155.300826 46.876459 
L 158.375207 46.218343 
L 161.449587 45.667222 
L 164.523967 45.220953 
L 167.598347 44.877455 
L 170.672727 44.634705 
L 173.747107 44.490736 
L 176.821488 44.443636 
L 179.895868 44.491548 
L 182.970248 44.632662 
L 186.044628 44.865223 
L 189.119008 45.187519 
L 192.193388 45.597889 
L 195.267769 46.094713 
L 198.342149 46.676417 
L 201.416529 47.341469 
L 204.490909 48.088376 
L 207.565289 48.915688 
L 210.639669 49.821989 
L 213.71405 50.805904 
L 216.78843 51.866091 
L 219.86281 53.001246 
L 222.93719 54.210094 
L 226.01157 55.491398 
L 229.08595 56.843949 
L 232.160331 58.266571 
L 235.234711 59.758115 
L 238.309091 61.317463 
L 241.383471 62.943526 
L 244.457851 64.635239 
L 247.532231 66.391565 
L 250.606612 68.211494 
L 253.680992 70.094039 
L 256.755372 72.038236 
L 259.829752 74.043146 
L 262.904132 76.107853 
L 265.978512 78.231463 
L 269.052893 80.4131 
L 272.127273 82.651091 
L 275.201653 84.945335 
L 278.276033 87.295092 
L 281.350413 89.699568 
L 284.424793 92.157988 
L 287.499174 94.66826 
L 290.573554 97.228319 
L 293.647934 99.839696 
L 296.722314 102.500976 
L 299.796694 105.210697 
L 302.871074 107.967746 
L 305.945455 110.773132 
L 309.019835 113.623735 
L 312.094215 116.518726 
L 315.168595 119.453455 
L 318.242975 122.4245 
L 321.317355 125.430508 
L 324.391736 128.467658 
L 327.466116 131.531091 
L 330.540496 134.61133 
L 333.614876 137.715732 
L 336.689256 140.830427 
L 339.763636 143.958502 
L 342.838017 147.085994 
L 345.912397 150.214439 
L 348.986777 153.328947 
L 352.061157 156.424828 
L 355.135537 159.479672 
L 358.209917 162.501357 
L 361.284298 165.462025 
L 364.358678 168.370546 
L 367.433058 171.218598 
L 370.507438 173.977973 
L 373.581818 176.653149 
" style="fill:none;stroke:#ff0000;stroke-linecap:square;"/>
   </g>
   <g id="line2d_28">
    <path clip-path="url(#pca4c90ecb6)" d="M 69.218182 191.318484 
L 72.292562 190.915878 
L 75.366942 190.577665 
L 78.441322 190.301174 
L 81.515702 190.083831 
L 84.590083 189.923153 
L 87.664463 189.816749 
L 90.738843 189.762312 
L 93.813223 189.757619 
L 96.887603 189.800525 
L 99.961983 189.888965 
L 103.036364 190.020943 
L 106.110744 190.19454 
L 109.185124 190.4079 
L 112.259504 190.659238 
L 115.333884 190.946829 
L 118.408264 191.269011 
L 121.482645 191.62418 
L 124.557025 192.010791 
L 127.631405 192.42735 
L 130.705785 192.87242 
L 133.780165 193.344613 
L 136.854545 193.842588 
L 139.928926 194.365056 
L 143.003306 194.910768 
L 146.077686 195.478524 
L 149.152066 196.067162 
L 152.226446 196.675565 
L 155.300826 197.302651 
L 158.375207 197.947379 
L 161.449587 198.608743 
L 164.523967 199.285773 
L 167.598347 199.977533 
L 170.672727 200.68312 
L 173.747107 201.40166 
L 176.821488 202.132314 
L 179.895868 202.874269 
L 182.970248 203.626742 
L 186.044628 204.388975 
L 189.119008 205.16024 
L 192.193388 205.939831 
L 195.267769 206.727069 
L 198.342149 207.521297 
L 201.416529 208.321883 
L 204.490909 209.128215 
L 207.565289 209.939702 
L 210.639669 210.755777 
L 213.71405 211.575888 
L 216.78843 212.399505 
L 219.86281 213.226117 
L 222.93719 214.05523 
L 226.01157 214.886366 
L 229.08595 215.719065 
L 232.160331 216.552883 
L 235.234711 217.387391 
L 238.309091 218.222176 
L 241.383471 219.056839 
L 244.457851 219.890993 
L 247.532231 220.724267 
L 250.606612 221.556303 
L 253.680992 222.386753 
L 256.755372 223.215285 
L 259.829752 224.041574 
L 262.904132 224.865312 
L 265.978512 225.686197 
L 269.052893 226.503939 
L 272.127273 227.315208 
L 275.201653 228.122449 
L 278.276033 228.925679 
L 281.350413 229.724648 
L 284.424793 230.519116 
L 287.499174 231.304602 
L 290.573554 232.076426 
L 293.647934 232.841709 
L 296.722314 233.598253 
L 299.796694 234.343414 
L 302.871074 235.075402 
L 305.945455 235.799618 
L 309.019835 236.509374 
L 312.094215 237.204258 
L 315.168595 237.874237 
L 318.242975 238.512423 
L 321.317355 239.118362 
L 324.391736 239.685383 
L 327.466116 240.206581 
L 330.540496 240.666311 
L 333.614876 241.081724 
L 336.689256 241.428944 
L 339.763636 241.716811 
L 342.838017 241.928361 
L 345.912397 242.06697 
L 348.986777 242.116364 
L 352.061157 242.077872 
L 355.135537 241.926432 
L 358.209917 241.676288 
L 361.284298 241.307789 
L 364.358678 240.837278 
L 367.433058 240.263915 
L 370.507438 239.580761 
L 373.581818 238.802955 
" style="fill:none;stroke:#ffaa00;stroke-linecap:square;"/>
   </g>
   <g id="line2d_29">
    <path clip-path="url(#pca4c90ecb6)" d="M 69.218182 205.207507 
L 72.292562 205.006295 
L 75.366942 204.855413 
L 78.441322 204.751488 
L 81.515702 204.691301 
L 84.590083 204.671775 
L 87.664463 204.689974 
L 90.738843 204.743091 
L 93.813223 204.828448 
L 96.887603 204.943487 
L 99.961983 205.085767 
L 103.036364 205.252956 
L 106.110744 205.442829 
L 109.185124 205.653264 
L 112.259504 205.882233 
L 115.333884 206.127804 
L 118.408264 206.388133 
L 121.482645 206.66146 
L 124.557025 206.946108 
L 127.631405 207.240478 
L 130.705785 207.543043 
L 133.780165 207.852352 
L 136.854545 208.167017 
L 139.928926 208.48572 
L 143.003306 208.807202 
L 146.077686 209.130267 
L 149.152066 209.453775 
L 152.226446 209.776639 
L 155.300826 210.097826 
L 158.375207 210.416355 
L 161.449587 210.73129 
L 164.523967 211.041742 
L 167.598347 211.346867 
L 170.672727 211.645862 
L 173.747107 211.937964 
L 176.821488 212.222449 
L 179.895868 212.498631 
L 182.970248 212.765856 
L 186.044628 213.023508 
L 189.119008 213.270999 
L 192.193388 213.507776 
L 195.267769 213.733311 
L 198.342149 213.947109 
L 201.416529 214.148698 
L 204.490909 214.337633 
L 207.565289 214.513496 
L 210.639669 214.67589 
L 213.71405 214.824441 
L 216.78843 214.958797 
L 219.86281 215.078627 
L 222.93719 215.183618 
L 226.01157 215.273479 
L 229.08595 215.347934 
L 232.160331 215.406726 
L 235.234711 215.449613 
L 238.309091 215.476371 
L 241.383471 215.486788 
L 244.457851 215.48067 
L 247.532231 215.457833 
L 250.606612 215.418109 
L 253.680992 215.361341 
L 256.755372 215.287385 
L 259.829752 215.196107 
L 262.904132 215.087385 
L 265.978512 214.961108 
L 269.052893 214.817172 
L 272.127273 214.649982 
L 275.201653 214.464352 
L 278.276033 214.260704 
L 281.350413 214.038974 
L 284.424793 213.799103 
L 287.499174 213.535859 
L 290.573554 213.242092 
L 293.647934 212.927904 
L 296.722314 212.591696 
L 299.796694 212.229914 
L 302.871074 211.838922 
L 305.945455 211.427993 
L 309.019835 210.992609 
L 312.094215 210.533295 
L 315.168595 210.044658 
L 318.242975 209.522947 
L 321.317355 208.972754 
L 324.391736 208.393399 
L 327.466116 207.791394 
L 330.540496 207.1753 
L 333.614876 206.546452 
L 336.689256 205.906539 
L 339.763636 205.258493 
L 342.838017 204.624811 
L 345.912397 203.994954 
L 348.986777 203.386764 
L 352.061157 202.818087 
L 355.135537 202.304877 
L 358.209917 201.830402 
L 361.284298 201.435204 
L 364.358678 201.104365 
L 367.433058 200.834211 
L 370.507438 200.666882 
L 373.581818 200.592029 
" style="fill:none;stroke:#aaff00;stroke-linecap:square;"/>
   </g>
   <g id="line2d_30">
    <path clip-path="url(#pca4c90ecb6)" d="M 69.218182 208.603721 
L 72.292562 208.66256 
L 75.366942 208.730966 
L 78.441322 208.80795 
L 81.515702 208.89258 
L 84.590083 208.983966 
L 87.664463 209.081269 
L 90.738843 209.18369 
L 93.813223 209.290476 
L 96.887603 209.40091 
L 99.961983 209.514314 
L 103.036364 209.630048 
L 106.110744 209.747505 
L 109.185124 209.86611 
L 112.259504 209.985322 
L 115.333884 210.104627 
L 118.408264 210.223542 
L 121.482645 210.341609 
L 124.557025 210.458397 
L 127.631405 210.573499 
L 130.705785 210.686533 
L 133.780165 210.797137 
L 136.854545 210.904972 
L 139.928926 211.009718 
L 143.003306 211.111076 
L 146.077686 211.208763 
L 149.152066 211.302515 
L 152.226446 211.392085 
L 155.300826 211.477241 
L 158.375207 211.557766 
L 161.449587 211.633458 
L 164.523967 211.704127 
L 167.598347 211.769599 
L 170.672727 211.829708 
L 173.747107 211.884304 
L 176.821488 211.933246 
L 179.895868 211.976404 
L 182.970248 212.013657 
L 186.044628 212.044895 
L 189.119008 212.070017 
L 192.193388 212.08893 
L 195.267769 212.101549 
L 198.342149 212.107797 
L 201.416529 212.107605 
L 204.490909 212.10091 
L 207.565289 212.087657 
L 210.639669 212.067795 
L 213.71405 212.041282 
L 216.78843 212.008079 
L 219.86281 211.968153 
L 222.93719 211.921477 
L 226.01157 211.868028 
L 229.08595 211.807788 
L 232.160331 211.740743 
L 235.234711 211.666882 
L 238.309091 211.5862 
L 241.383471 211.498695 
L 244.457851 211.404366 
L 247.532231 211.303219 
L 250.606612 211.19526 
L 253.680992 211.0805 
L 256.755372 210.95895 
L 259.829752 210.830627 
L 262.904132 210.695548 
L 265.978512 210.553732 
L 269.052893 210.405202 
L 272.127273 210.252991 
L 275.201653 210.094447 
L 278.276033 209.929325 
L 281.350413 209.757654 
L 284.424793 209.579464 
L 287.499174 209.403149 
L 290.573554 209.232695 
L 293.647934 209.057275 
L 296.722314 208.881821 
L 299.796694 208.708959 
L 302.871074 208.536791 
L 305.945455 208.362069 
L 309.019835 208.198953 
L 312.094215 208.04818 
L 315.168595 207.930076 
L 318.242975 207.856848 
L 321.317355 207.831993 
L 324.391736 207.866344 
L 327.466116 207.976726 
L 330.540496 208.200549 
L 333.614876 208.492854 
L 336.689256 208.881806 
L 339.763636 209.345671 
L 342.838017 209.905606 
L 345.912397 210.532561 
L 348.986777 211.223527 
L 352.061157 211.968666 
L 355.135537 212.754496 
L 358.209917 213.54837 
L 361.284298 214.325728 
L 364.358678 215.060559 
L 367.433058 215.723302 
L 370.507438 216.290648 
L 373.581818 216.758975 
" style="fill:none;stroke:#00ff00;stroke-linecap:square;"/>
   </g>
   <g id="line2d_31">
    <path clip-path="url(#pca4c90ecb6)" d="M 69.218182 206.638295 
L 72.292562 207.172552 
L 75.366942 207.669408 
L 78.441322 208.130498 
L 81.515702 208.557406 
L 84.590083 208.951665 
L 87.664463 209.314758 
L 90.738843 209.64812 
L 93.813223 209.953141 
L 96.887603 210.231165 
L 99.961983 210.483492 
L 103.036364 210.711381 
L 106.110744 210.916051 
L 109.185124 211.09868 
L 112.259504 211.26041 
L 115.333884 211.402345 
L 118.408264 211.525553 
L 121.482645 211.631069 
L 124.557025 211.719892 
L 127.631405 211.792993 
L 130.705785 211.851306 
L 133.780165 211.895741 
L 136.854545 211.927173 
L 139.928926 211.946453 
L 143.003306 211.954402 
L 146.077686 211.951815 
L 149.152066 211.939463 
L 152.226446 211.918088 
L 155.300826 211.888413 
L 158.375207 211.851134 
L 161.449587 211.806925 
L 164.523967 211.75644 
L 167.598347 211.700309 
L 170.672727 211.639144 
L 173.747107 211.573536 
L 176.821488 211.504056 
L 179.895868 211.431258 
L 182.970248 211.355677 
L 186.044628 211.277831 
L 189.119008 211.198221 
L 192.193388 211.11733 
L 195.267769 211.035628 
L 198.342149 210.953567 
L 201.416529 210.871586 
L 204.490909 210.790109 
L 207.565289 210.709546 
L 210.639669 210.630293 
L 213.71405 210.552733 
L 216.78843 210.477237 
L 219.86281 210.404163 
L 222.93719 210.333858 
L 226.01157 210.266657 
L 229.08595 210.202883 
L 232.160331 210.142848 
L 235.234711 210.086856 
L 238.309091 210.035199 
L 241.383471 209.988159 
L 244.457851 209.946008 
L 247.532231 209.909011 
L 250.606612 209.877421 
L 253.680992 209.851486 
L 256.755372 209.831441 
L 259.829752 209.817518 
L 262.904132 209.809937 
L 265.978512 209.808911 
L 269.052893 209.814649 
L 272.127273 209.834111 
L 275.201653 209.861474 
L 278.276033 209.89631 
L 281.350413 209.938797 
L 284.424793 209.989106 
L 287.499174 210.054981 
L 290.573554 210.136704 
L 293.647934 210.228067 
L 296.722314 210.330893 
L 299.796694 210.446854 
L 302.871074 210.571094 
L 305.945455 210.70522 
L 309.019835 210.848627 
L 312.094215 211.001681 
L 315.168595 211.162112 
L 318.242975 211.327279 
L 321.317355 211.496074 
L 324.391736 211.659057 
L 327.466116 211.80452 
L 330.540496 211.921023 
L 333.614876 212.013382 
L 336.689256 212.05207 
L 339.763636 212.051653 
L 342.838017 211.986115 
L 345.912397 211.859388 
L 348.986777 211.650732 
L 352.061157 211.379302 
L 355.135537 211.036891 
L 358.209917 210.655051 
L 361.284298 210.243436 
L 364.358678 209.814853 
L 367.433058 209.380751 
L 370.507438 208.977295 
L 373.581818 208.609959 
" style="fill:none;stroke:#00ffaa;stroke-linecap:square;"/>
   </g>
   <g id="line2d_32">
    <path clip-path="url(#pca4c90ecb6)" d="M 69.218182 209.568201 
L 72.292562 209.788771 
L 75.366942 209.988358 
L 78.441322 210.168185 
L 81.515702 210.329418 
L 84.590083 210.473178 
L 87.664463 210.600534 
L 90.738843 210.712512 
L 93.813223 210.810095 
L 96.887603 210.894223 
L 99.961983 210.965794 
L 103.036364 211.025671 
L 106.110744 211.074679 
L 109.185124 211.113606 
L 112.259504 211.143208 
L 115.333884 211.164209 
L 118.408264 211.177299 
L 121.482645 211.183142 
L 124.557025 211.18237 
L 127.631405 211.175589 
L 130.705785 211.163381 
L 133.780165 211.146299 
L 136.854545 211.124874 
L 139.928926 211.099613 
L 143.003306 211.071003 
L 146.077686 211.039506 
L 149.152066 211.005567 
L 152.226446 210.969609 
L 155.300826 210.932039 
L 158.375207 210.893243 
L 161.449587 210.853593 
L 164.523967 210.81344 
L 167.598347 210.773125 
L 170.672727 210.732968 
L 173.747107 210.693279 
L 176.821488 210.654352 
L 179.895868 210.616467 
L 182.970248 210.579892 
L 186.044628 210.544884 
L 189.119008 210.511685 
L 192.193388 210.480529 
L 195.267769 210.451637 
L 198.342149 210.425221 
L 201.416529 210.401483 
L 204.490909 210.380612 
L 207.565289 210.362794 
L 210.639669 210.348201 
L 213.71405 210.336998 
L 216.78843 210.329343 
L 219.86281 210.325386 
L 222.93719 210.325269 
L 226.01157 210.329126 
L 229.08595 210.337087 
L 232.160331 210.349271 
L 235.234711 210.365796 
L 238.309091 210.38677 
L 241.383471 210.412296 
L 244.457851 210.442474 
L 247.532231 210.477394 
L 250.606612 210.517146 
L 253.680992 210.561812 
L 256.755372 210.611469 
L 259.829752 210.666192 
L 262.904132 210.72605 
L 265.978512 210.791107 
L 269.052893 210.861426 
L 272.127273 210.931128 
L 275.201653 211.005548 
L 278.276033 211.085273 
L 281.350413 211.170352 
L 284.424793 211.26083 
L 287.499174 211.342106 
L 290.573554 211.400104 
L 293.647934 211.460188 
L 296.722314 211.513886 
L 299.796694 211.556195 
L 302.871074 211.584096 
L 305.945455 211.611686 
L 309.019835 211.61547 
L 312.094215 211.598309 
L 315.168595 211.535964 
L 318.242975 211.416745 
L 321.317355 211.250625 
L 324.391736 211.033943 
L 327.466116 210.770239 
L 330.540496 210.461093 
L 333.614876 210.140762 
L 336.689256 209.831161 
L 339.763636 209.554484 
L 342.838017 209.354735 
L 345.912397 209.236563 
L 348.986777 209.241613 
L 352.061157 209.382917 
L 355.135537 209.695399 
L 358.209917 210.127093 
L 361.284298 210.682265 
L 364.358678 211.305128 
L 367.433058 211.944537 
L 370.507438 212.545395 
L 373.581818 213.077077 
" style="fill:none;stroke:#00aaff;stroke-linecap:square;"/>
   </g>
   <g id="line2d_33">
    <path clip-path="url(#pca4c90ecb6)" d="M 69.218182 210.256207 
L 72.292562 210.369927 
L 75.366942 210.470878 
L 78.441322 210.559933 
L 81.515702 210.637917 
L 84.590083 210.70562 
L 87.664463 210.763787 
L 90.738843 210.81313 
L 93.813223 210.854324 
L 96.887603 210.888009 
L 99.961983 210.914794 
L 103.036364 210.935256 
L 106.110744 210.949944 
L 109.185124 210.959376 
L 112.259504 210.964047 
L 115.333884 210.964425 
L 118.408264 210.960951 
L 121.482645 210.954046 
L 124.557025 210.944108 
L 127.631405 210.931514 
L 130.705785 210.916619 
L 133.780165 210.899762 
L 136.854545 210.881261 
L 139.928926 210.861418 
L 143.003306 210.840517 
L 146.077686 210.818829 
L 149.152066 210.796607 
L 152.226446 210.77409 
L 155.300826 210.751504 
L 158.375207 210.729064 
L 161.449587 210.706968 
L 164.523967 210.685405 
L 167.598347 210.664553 
L 170.672727 210.644579 
L 173.747107 210.625639 
L 176.821488 210.607879 
L 179.895868 210.591436 
L 182.970248 210.576441 
L 186.044628 210.563011 
L 189.119008 210.551261 
L 192.193388 210.541294 
L 195.267769 210.533207 
L 198.342149 210.527092 
L 201.416529 210.523032 
L 204.490909 210.521105 
L 207.565289 210.521383 
L 210.639669 210.523931 
L 213.71405 210.528812 
L 216.78843 210.536081 
L 219.86281 210.545788 
L 222.93719 210.557981 
L 226.01157 210.572701 
L 229.08595 210.589987 
L 232.160331 210.609872 
L 235.234711 210.632388 
L 238.309091 210.657561 
L 241.383471 210.685414 
L 244.457851 210.715969 
L 247.532231 210.749242 
L 250.606612 210.785248 
L 253.680992 210.824 
L 256.755372 210.865507 
L 259.829752 210.909776 
L 262.904132 210.956811 
L 265.978512 211.006616 
L 269.052893 211.05919 
L 272.127273 211.095924 
L 275.201653 211.133368 
L 278.276033 211.173207 
L 281.350413 211.215438 
L 284.424793 211.260054 
L 287.499174 211.278683 
L 290.573554 211.248898 
L 293.647934 211.215176 
L 296.722314 211.166275 
L 299.796694 211.096042 
L 302.871074 211.003746 
L 305.945455 210.907483 
L 309.019835 210.788853 
L 312.094215 210.655346 
L 315.168595 210.502639 
L 318.242975 210.335172 
L 321.317355 210.173698 
L 324.391736 210.034716 
L 327.466116 209.945672 
L 330.540496 209.945273 
L 333.614876 210.008357 
L 336.689256 210.168945 
L 339.763636 210.396062 
L 342.838017 210.689089 
L 345.912397 211.005634 
L 348.986777 211.295085 
L 352.061157 211.510145 
L 355.135537 211.582965 
L 358.209917 211.516299 
L 361.284298 211.26733 
L 364.358678 210.891643 
L 367.433058 210.439575 
L 370.507438 209.961702 
L 373.581818 209.514088 
" style="fill:none;stroke:#0000ff;stroke-linecap:square;"/>
   </g>
   <g id="line2d_34">
    <path clip-path="url(#pca4c90ecb6)" d="M 69.218182 210.510878 
L 72.292562 210.569991 
L 75.366942 210.62194 
L 78.441322 210.667259 
L 81.515702 210.706452 
L 84.590083 210.739996 
L 87.664463 210.768343 
L 90.738843 210.791919 
L 93.813223 210.811127 
L 96.887603 210.826347 
L 99.961983 210.83794 
L 103.036364 210.846243 
L 106.110744 210.851578 
L 109.185124 210.854244 
L 112.259504 210.854527 
L 115.333884 210.852693 
L 118.408264 210.848996 
L 121.482645 210.843671 
L 124.557025 210.836942 
L 127.631405 210.829017 
L 130.705785 210.820094 
L 133.780165 210.810356 
L 136.854545 210.799977 
L 139.928926 210.789118 
L 143.003306 210.77793 
L 146.077686 210.766556 
L 149.152066 210.755127 
L 152.226446 210.743767 
L 155.300826 210.73259 
L 158.375207 210.721704 
L 161.449587 210.711207 
L 164.523967 210.701192 
L 167.598347 210.691743 
L 170.672727 210.68294 
L 173.747107 210.674856 
L 176.821488 210.667557 
L 179.895868 210.661104 
L 182.970248 210.655554 
L 186.044628 210.650958 
L 189.119008 210.647363 
L 192.193388 210.64481 
L 195.267769 210.643338 
L 198.342149 210.642981 
L 201.416529 210.643769 
L 204.490909 210.645729 
L 207.565289 210.648886 
L 210.639669 210.653258 
L 213.71405 210.658864 
L 216.78843 210.665718 
L 219.86281 210.673833 
L 222.93719 210.683218 
L 226.01157 210.693881 
L 229.08595 210.705826 
L 232.160331 210.719057 
L 235.234711 210.733575 
L 238.309091 210.749379 
L 241.383471 210.766467 
L 244.457851 210.784835 
L 247.532231 210.804478 
L 250.606612 210.825389 
L 253.680992 210.847559 
L 256.755372 210.87098 
L 259.829752 210.895641 
L 262.904132 210.92153 
L 265.978512 210.948636 
L 269.052893 210.976944 
L 272.127273 210.983339 
L 275.201653 210.988358 
L 278.276033 210.99408 
L 281.350413 211.000492 
L 284.424793 211.00758 
L 287.499174 210.990286 
L 290.573554 210.930974 
L 293.647934 210.867134 
L 296.722314 210.793324 
L 299.796694 210.70805 
L 302.871074 210.613065 
L 305.945455 210.517488 
L 309.019835 210.425682 
L 312.094215 210.344321 
L 315.168595 210.294872 
L 318.242975 210.292846 
L 321.317355 210.341767 
L 324.391736 210.448038 
L 327.466116 210.608822 
L 330.540496 210.818642 
L 333.614876 211.029553 
L 336.689256 211.195592 
L 339.763636 211.294691 
L 342.838017 211.27284 
L 345.912397 211.143292 
L 348.986777 210.907311 
L 352.061157 210.622063 
L 355.135537 210.358344 
L 358.209917 210.187012 
L 361.284298 210.208172 
L 364.358678 210.407278 
L 367.433058 210.750907 
L 370.507438 211.178986 
L 373.581818 211.605573 
" style="fill:none;stroke:#aa00ff;stroke-linecap:square;"/>
   </g>
   <g id="patch_3">
    <path d="M 54 252 
L 54 34.56 
" style="fill:none;stroke:#000000;stroke-linecap:square;stroke-linejoin:miter;stroke-width:0.8;"/>
   </g>
   <g id="patch_4">
    <path d="M 388.8 252 
L 388.8 34.56 
" style="fill:none;stroke:#000000;stroke-linecap:square;stroke-linejoin:miter;stroke-width:0.8;"/>
   </g>
   <g id="patch_5">
    <path d="M 54 252 
L 388.8 252 
" style="fill:none;stroke:#000000;stroke-linecap:square;stroke-linejoin:miter;stroke-width:0.8;"/>
   </g>
   <g id="patch_6">
    <path d="M 54 34.56 
L 388.8 34.56 
" style="fill:none;stroke:#000000;stroke-linecap:square;stroke-linejoin:miter;stroke-width:0.8;"/>
   </g>
   <g id="text_16">
    <!-- KL modes -->
    <defs>
     <path d="M 9.8125 72.90625 
L 19.671875 72.90625 
L 19.671875 42.09375 
L 52.390625 72.90625 
L 65.09375 72.90625 
L 28.90625 38.921875 
L 67.671875 0 
L 54.6875 0 
L 19.671875 35.109375 
L 19.671875 0 
L 9.8125 0 
z
" id="DejaVuSans-4b"/>
     <path d="M 9.8125 72.90625 
L 19.671875 72.90625 
L 19.671875 8.296875 
L 55.171875 8.296875 
L 55.171875 0 
L 9.8125 0 
z
" id="DejaVuSans-4c"/>
     <path id="DejaVuSans-20"/>
     <path d="M 52 44.1875 
Q 55.375 50.25 60.0625 53.125 
Q 64.75 56 71.09375 56 
Q 79.640625 56 84.28125 50.015625 
Q 88.921875 44.046875 88.921875 33.015625 
L 88.921875 0 
L 79.890625 0 
L 79.890625 32.71875 
Q 79.890625 40.578125 77.09375 44.375 
Q 74.3125 48.1875 68.609375 48.1875 
Q 61.625 48.1875 57.5625 43.546875 
Q 53.515625 38.921875 53.515625 30.90625 
L 53.515625 0 
L 44.484375 0 
L 44.484375 32.71875 
Q 44.484375 40.625 41.703125 44.40625 
Q 38.921875 48.1875 33.109375 48.1875 
Q 26.21875 48.1875 22.15625 43.53125 
Q 18.109375 38.875 18.109375 30.90625 
L 18.109375 0 
L 9.078125 0 
L 9.078125 54.6875 
L 18.109375 54.6875 
L 18.109375 46.1875 
Q 21.1875 51.21875 25.484375 53.609375 
Q 29.78125 56 35.6875 56 
Q 41.65625 56 45.828125 52.96875 
Q 50 49.953125 52 44.1875 
z
" id="DejaVuSans-6d"/>
     <path d="M 30.609375 48.390625 
Q 23.390625 48.390625 19.1875 42.75 
Q 14.984375 37.109375 14.984375 27.296875 
Q 14.984375 17.484375 19.15625 11.84375 
Q 23.34375 6.203125 30.609375 6.203125 
Q 37.796875 6.203125 41.984375 11.859375 
Q 46.1875 17.53125 46.1875 27.296875 
Q 46.1875 37.015625 41.984375 42.703125 
Q 37.796875 48.390625 30.609375 48.390625 
z
M 30.609375 56 
Q 42.328125 56 49.015625 48.375 
Q 55.71875 40.765625 55.71875 27.296875 
Q 55.71875 13.875 49.015625 6.21875 
Q 42.328125 -1.421875 30.609375 -1.421875 
Q 18.84375 -1.421875 12.171875 6.21875 
Q 5.515625 13.875 5.515625 27.296875 
Q 5.515625 40.765625 12.171875 48.375 
Q 18.84375 56 30.609375 56 
z
" id="DejaVuSans-6f"/>
     <path d="M 45.40625 46.390625 
L 45.40625 75.984375 
L 54.390625 75.984375 
L 54.390625 0 
L 45.40625 0 
L 45.40625 8.203125 
Q 42.578125 3.328125 38.25 0.953125 
Q 33.9375 -1.421875 27.875 -1.421875 
Q 17.96875 -1.421875 11.734375 6.484375 
Q 5.515625 14.40625 5.515625 27.296875 
Q 5.515625 40.1875 11.734375 48.09375 
Q 17.96875 56 27.875 56 
Q 33.9375 56 38.25 53.625 
Q 42.578125 51.265625 45.40625 46.390625 
z
M 14.796875 27.296875 
Q 14.796875 17.390625 18.875 11.75 
Q 22.953125 6.109375 30.078125 6.109375 
Q 37.203125 6.109375 41.296875 11.75 
Q 45.40625 17.390625 45.40625 27.296875 
Q 45.40625 37.203125 41.296875 42.84375 
Q 37.203125 48.484375 30.078125 48.484375 
Q 22.953125 48.484375 18.875 42.84375 
Q 14.796875 37.203125 14.796875 27.296875 
z
" id="DejaVuSans-64"/>
     <path d="M 56.203125 29.59375 
L 56.203125 25.203125 
L 14.890625 25.203125 
Q 15.484375 15.921875 20.484375 11.0625 
Q 25.484375 6.203125 34.421875 6.203125 
Q 39.59375 6.203125 44.453125 7.46875 
Q 49.3125 8.734375 54.109375 11.28125 
L 54.109375 2.78125 
Q 49.265625 0.734375 44.1875 -0.34375 
Q 39.109375 -1.421875 33.890625 -1.421875 
Q 20.796875 -1.421875 13.15625 6.1875 
Q 5.515625 13.8125 5.515625 26.8125 
Q 5.515625 40.234375 12.765625 48.109375 
Q 20.015625 56 32.328125 56 
Q 43.359375 56 49.78125 48.890625 
Q 56.203125 41.796875 56.203125 29.59375 
z
M 47.21875 32.234375 
Q 47.125 39.59375 43.09375 43.984375 
Q 39.0625 48.390625 32.421875 48.390625 
Q 24.90625 48.390625 20.390625 44.140625 
Q 15.875 39.890625 15.1875 32.171875 
z
" id="DejaVuSans-65"/>
     <path d="M 44.28125 53.078125 
L 44.28125 44.578125 
Q 40.484375 46.53125 36.375 47.5 
Q 32.28125 48.484375 27.875 48.484375 
Q 21.1875 48.484375 17.84375 46.4375 
Q 14.5 44.390625 14.5 40.28125 
Q 14.5 37.15625 16.890625 35.375 
Q 19.28125 33.59375 26.515625 31.984375 
L 29.59375 31.296875 
Q 39.15625 29.25 43.1875 25.515625 
Q 47.21875 21.78125 47.21875 15.09375 
Q 47.21875 7.46875 41.1875 3.015625 
Q 35.15625 -1.421875 24.609375 -1.421875 
Q 20.21875 -1.421875 15.453125 -0.5625 
Q 10.6875 0.296875 5.421875 2 
L 5.421875 11.28125 
Q 10.40625 8.6875 15.234375 7.390625 
Q 20.0625 6.109375 24.8125 6.109375 
Q 31.15625 6.109375 34.5625 8.28125 
Q 37.984375 10.453125 37.984375 14.40625 
Q 37.984375 18.0625 35.515625 20.015625 
Q 33.0625 21.96875 24.703125 23.78125 
L 21.578125 24.515625 
Q 13.234375 26.265625 9.515625 29.90625 
Q 5.8125 33.546875 5.8125 39.890625 
Q 5.8125 47.609375 11.28125 51.796875 
Q 16.75 56 26.8125 56 
Q 31.78125 56 36.171875 55.265625 
Q 40.578125 54.546875 44.28125 53.078125 
z
" id="DejaVuSans-73"/>
    </defs>
    <g transform="translate(192.073125 28.56)scale(0.12 -0.12)">
     <use xlink:href="#DejaVuSans-4b"/>
     <use x="65.576172" xlink:href="#DejaVuSans-4c"/>
     <use x="121.289062" xlink:href="#DejaVuSans-20"/>
     <use x="153.076172" xlink:href="#DejaVuSans-6d"/>
     <use x="250.488281" xlink:href="#DejaVuSans-6f"/>
     <use x="311.669922" xlink:href="#DejaVuSans-64"/>
     <use x="375.146484" xlink:href="#DejaVuSans-65"/>
     <use x="436.669922" xlink:href="#DejaVuSans-73"/>
    </g>
   </g>
  </g>
 </g>
 <defs>
  <clipPath id="pca4c90ecb6">
   <rect height="217.44" width="334.8" x="54" y="34.56"/>
  </clipPath>
 </defs>
</svg>
