<?xml version="1.0" encoding="utf-8" standalone="no"?>
<!DOCTYPE svg PUBLIC "-//W3C//DTD SVG 1.1//EN"
  "http://www.w3.org/Graphics/SVG/1.1/DTD/svg11.dtd">
<!-- Created with matplotlib (http://matplotlib.org/) -->
<svg height="288pt" version="1.1" viewBox="0 0 432 288" width="432pt" xmlns="http://www.w3.org/2000/svg" xmlns:xlink="http://www.w3.org/1999/xlink">
 <defs>
  <style type="text/css">
*{stroke-linecap:butt;stroke-linejoin:round;}
  </style>
 </defs>
 <g id="figure_1">
  <g id="patch_1">
   <path d="M 0 288 
L 432 288 
L 432 0 
L 0 0 
z
" style="fill:#ffffff;"/>
  </g>
  <g id="axes_1">
   <g id="patch_2">
    <path d="M 54 252 
L 388.8 252 
L 388.8 34.56 
L 54 34.56 
z
" style="fill:#ffffff;"/>
   </g>
   <g id="matplotlib.axis_1">
    <g id="xtick_1">
     <g id="line2d_1">
      <path clip-path="url(#p080c260de7)" d="M 69.218182 252 
L 69.218182 34.56 
" style="fill:none;stroke:#b0b0b0;stroke-linecap:square;stroke-width:0.8;"/>
     </g>
     <g id="line2d_2">
      <defs>
       <path d="M 0 0 
L 0 3.5 
" id="m427f3cabdc" style="stroke:#000000;stroke-width:0.8;"/>
      </defs>
      <g>
       <use style="stroke:#000000;stroke-width:0.8;" x="69.218182" xlink:href="#m427f3cabdc" y="252"/>
      </g>
     </g>
     <g id="text_1">
      <!-- 0 -->
      <defs>
       <path d="M 31.78125 66.40625 
Q 24.171875 66.40625 20.328125 58.90625 
Q 16.5 51.421875 16.5 36.375 
Q 16.5 21.390625 20.328125 13.890625 
Q 24.171875 6.390625 31.78125 6.390625 
Q 39.453125 6.390625 43.28125 13.890625 
Q 47.125 21.390625 47.125 36.375 
Q 47.125 51.421875 43.28125 58.90625 
Q 39.453125 66.40625 31.78125 66.40625 
z
M 31.78125 74.21875 
Q 44.046875 74.21875 50.515625 64.515625 
Q 56.984375 54.828125 56.984375 36.375 
Q 56.984375 17.96875 50.515625 8.265625 
Q 44.046875 -1.421875 31.78125 -1.421875 
Q 19.53125 -1.421875 13.0625 8.265625 
Q 6.59375 17.96875 6.59375 36.375 
Q 6.59375 54.828125 13.0625 64.515625 
Q 19.53125 74.21875 31.78125 74.21875 
z
" id="DejaVuSans-30"/>
      </defs>
      <g transform="translate(66.036932 266.598437)scale(0.1 -0.1)">
       <use xlink:href="#DejaVuSans-30"/>
      </g>
     </g>
    </g>
    <g id="xtick_2">
     <g id="line2d_3">
      <path clip-path="url(#p080c260de7)" d="M 119.945455 252 
L 119.945455 34.56 
" style="fill:none;stroke:#b0b0b0;stroke-linecap:square;stroke-width:0.8;"/>
     </g>
     <g id="line2d_4">
      <g>
       <use style="stroke:#000000;stroke-width:0.8;" x="119.945455" xlink:href="#m427f3cabdc" y="252"/>
      </g>
     </g>
     <g id="text_2">
      <!-- 2 -->
      <defs>
       <path d="M 19.1875 8.296875 
L 53.609375 8.296875 
L 53.609375 0 
L 7.328125 0 
L 7.328125 8.296875 
Q 12.9375 14.109375 22.625 23.890625 
Q 32.328125 33.6875 34.8125 36.53125 
Q 39.546875 41.84375 41.421875 45.53125 
Q 43.3125 49.21875 43.3125 52.78125 
Q 43.3125 58.59375 39.234375 62.25 
Q 35.15625 65.921875 28.609375 65.921875 
Q 23.96875 65.921875 18.8125 64.3125 
Q 13.671875 62.703125 7.8125 59.421875 
L 7.8125 69.390625 
Q 13.765625 71.78125 18.9375 73 
Q 24.125 74.21875 28.421875 74.21875 
Q 39.75 74.21875 46.484375 68.546875 
Q 53.21875 62.890625 53.21875 53.421875 
Q 53.21875 48.921875 51.53125 44.890625 
Q 49.859375 40.875 45.40625 35.40625 
Q 44.1875 33.984375 37.640625 27.21875 
Q 31.109375 20.453125 19.1875 8.296875 
z
" id="DejaVuSans-32"/>
      </defs>
      <g transform="translate(116.764205 266.598437)scale(0.1 -0.1)">
       <use xlink:href="#DejaVuSans-32"/>
      </g>
     </g>
    </g>
    <g id="xtick_3">
     <g id="line2d_5">
      <path clip-path="url(#p080c260de7)" d="M 170.672727 252 
L 170.672727 34.56 
" style="fill:none;stroke:#b0b0b0;stroke-linecap:square;stroke-width:0.8;"/>
     </g>
     <g id="line2d_6">
      <g>
       <use style="stroke:#000000;stroke-width:0.8;" x="170.672727" xlink:href="#m427f3cabdc" y="252"/>
      </g>
     </g>
     <g id="text_3">
      <!-- 4 -->
      <defs>
       <path d="M 37.796875 64.3125 
L 12.890625 25.390625 
L 37.796875 25.390625 
z
M 35.203125 72.90625 
L 47.609375 72.90625 
L 47.609375 25.390625 
L 58.015625 25.390625 
L 58.015625 17.1875 
L 47.609375 17.1875 
L 47.609375 0 
L 37.796875 0 
L 37.796875 17.1875 
L 4.890625 17.1875 
L 4.890625 26.703125 
z
" id="DejaVuSans-34"/>
      </defs>
      <g transform="translate(167.491477 266.598437)scale(0.1 -0.1)">
       <use xlink:href="#DejaVuSans-34"/>
      </g>
     </g>
    </g>
    <g id="xtick_4">
     <g id="line2d_7">
      <path clip-path="url(#p080c260de7)" d="M 221.4 252 
L 221.4 34.56 
" style="fill:none;stroke:#b0b0b0;stroke-linecap:square;stroke-width:0.8;"/>
     </g>
     <g id="line2d_8">
      <g>
       <use style="stroke:#000000;stroke-width:0.8;" x="221.4" xlink:href="#m427f3cabdc" y="252"/>
      </g>
     </g>
     <g id="text_4">
      <!-- 6 -->
      <defs>
       <path d="M 33.015625 40.375 
Q 26.375 40.375 22.484375 35.828125 
Q 18.609375 31.296875 18.609375 23.390625 
Q 18.609375 15.53125 22.484375 10.953125 
Q 26.375 6.390625 33.015625 6.390625 
Q 39.65625 6.390625 43.53125 10.953125 
Q 47.40625 15.53125 47.40625 23.390625 
Q 47.40625 31.296875 43.53125 35.828125 
Q 39.65625 40.375 33.015625 40.375 
z
M 52.59375 71.296875 
L 52.59375 62.3125 
Q 48.875 64.0625 45.09375 64.984375 
Q 41.3125 65.921875 37.59375 65.921875 
Q 27.828125 65.921875 22.671875 59.328125 
Q 17.53125 52.734375 16.796875 39.40625 
Q 19.671875 43.65625 24.015625 45.921875 
Q 28.375 48.1875 33.59375 48.1875 
Q 44.578125 48.1875 50.953125 41.515625 
Q 57.328125 34.859375 57.328125 23.390625 
Q 57.328125 12.15625 50.6875 5.359375 
Q 44.046875 -1.421875 33.015625 -1.421875 
Q 20.359375 -1.421875 13.671875 8.265625 
Q 6.984375 17.96875 6.984375 36.375 
Q 6.984375 53.65625 15.1875 63.9375 
Q 23.390625 74.21875 37.203125 74.21875 
Q 40.921875 74.21875 44.703125 73.484375 
Q 48.484375 72.75 52.59375 71.296875 
z
" id="DejaVuSans-36"/>
      </defs>
      <g transform="translate(218.21875 266.598437)scale(0.1 -0.1)">
       <use xlink:href="#DejaVuSans-36"/>
      </g>
     </g>
    </g>
    <g id="xtick_5">
     <g id="line2d_9">
      <path clip-path="url(#p080c260de7)" d="M 272.127273 252 
L 272.127273 34.56 
" style="fill:none;stroke:#b0b0b0;stroke-linecap:square;stroke-width:0.8;"/>
     </g>
     <g id="line2d_10">
      <g>
       <use style="stroke:#000000;stroke-width:0.8;" x="272.127273" xlink:href="#m427f3cabdc" y="252"/>
      </g>
     </g>
     <g id="text_5">
      <!-- 8 -->
      <defs>
       <path d="M 31.78125 34.625 
Q 24.75 34.625 20.71875 30.859375 
Q 16.703125 27.09375 16.703125 20.515625 
Q 16.703125 13.921875 20.71875 10.15625 
Q 24.75 6.390625 31.78125 6.390625 
Q 38.8125 6.390625 42.859375 10.171875 
Q 46.921875 13.96875 46.921875 20.515625 
Q 46.921875 27.09375 42.890625 30.859375 
Q 38.875 34.625 31.78125 34.625 
z
M 21.921875 38.8125 
Q 15.578125 40.375 12.03125 44.71875 
Q 8.5 49.078125 8.5 55.328125 
Q 8.5 64.0625 14.71875 69.140625 
Q 20.953125 74.21875 31.78125 74.21875 
Q 42.671875 74.21875 48.875 69.140625 
Q 55.078125 64.0625 55.078125 55.328125 
Q 55.078125 49.078125 51.53125 44.71875 
Q 48 40.375 41.703125 38.8125 
Q 48.828125 37.15625 52.796875 32.3125 
Q 56.78125 27.484375 56.78125 20.515625 
Q 56.78125 9.90625 50.3125 4.234375 
Q 43.84375 -1.421875 31.78125 -1.421875 
Q 19.734375 -1.421875 13.25 4.234375 
Q 6.78125 9.90625 6.78125 20.515625 
Q 6.78125 27.484375 10.78125 32.3125 
Q 14.796875 37.15625 21.921875 38.8125 
z
M 18.3125 54.390625 
Q 18.3125 48.734375 21.84375 45.5625 
Q 25.390625 42.390625 31.78125 42.390625 
Q 38.140625 42.390625 41.71875 45.5625 
Q 45.3125 48.734375 45.3125 54.390625 
Q 45.3125 60.0625 41.71875 63.234375 
Q 38.140625 66.40625 31.78125 66.40625 
Q 25.390625 66.40625 21.84375 63.234375 
Q 18.3125 60.0625 18.3125 54.390625 
z
" id="DejaVuSans-38"/>
      </defs>
      <g transform="translate(268.946023 266.598437)scale(0.1 -0.1)">
       <use xlink:href="#DejaVuSans-38"/>
      </g>
     </g>
    </g>
    <g id="xtick_6">
     <g id="line2d_11">
      <path clip-path="url(#p080c260de7)" d="M 322.854545 252 
L 322.854545 34.56 
" style="fill:none;stroke:#b0b0b0;stroke-linecap:square;stroke-width:0.8;"/>
     </g>
     <g id="line2d_12">
      <g>
       <use style="stroke:#000000;stroke-width:0.8;" x="322.854545" xlink:href="#m427f3cabdc" y="252"/>
      </g>
     </g>
     <g id="text_6">
      <!-- 10 -->
      <defs>
       <path d="M 12.40625 8.296875 
L 28.515625 8.296875 
L 28.515625 63.921875 
L 10.984375 60.40625 
L 10.984375 69.390625 
L 28.421875 72.90625 
L 38.28125 72.90625 
L 38.28125 8.296875 
L 54.390625 8.296875 
L 54.390625 0 
L 12.40625 0 
z
" id="DejaVuSans-31"/>
      </defs>
      <g transform="translate(316.492045 266.598437)scale(0.1 -0.1)">
       <use xlink:href="#DejaVuSans-31"/>
       <use x="63.623047" xlink:href="#DejaVuSans-30"/>
      </g>
     </g>
    </g>
    <g id="xtick_7">
     <g id="line2d_13">
      <path clip-path="url(#p080c260de7)" d="M 373.581818 252 
L 373.581818 34.56 
" style="fill:none;stroke:#b0b0b0;stroke-linecap:square;stroke-width:0.8;"/>
     </g>
     <g id="line2d_14">
      <g>
       <use style="stroke:#000000;stroke-width:0.8;" x="373.581818" xlink:href="#m427f3cabdc" y="252"/>
      </g>
     </g>
     <g id="text_7">
      <!-- 12 -->
      <g transform="translate(367.219318 266.598437)scale(0.1 -0.1)">
       <use xlink:href="#DejaVuSans-31"/>
       <use x="63.623047" xlink:href="#DejaVuSans-32"/>
      </g>
     </g>
    </g>
    <g id="text_8">
     <!-- $t$ -->
     <defs>
      <path d="M 42.28125 54.6875 
L 40.921875 47.703125 
L 23 47.703125 
L 17.1875 18.015625 
Q 16.890625 16.359375 16.75 15.234375 
Q 16.609375 14.109375 16.609375 13.484375 
Q 16.609375 10.359375 18.484375 8.9375 
Q 20.359375 7.515625 24.515625 7.515625 
L 33.59375 7.515625 
L 32.078125 0 
L 23.484375 0 
Q 15.484375 0 11.546875 3.125 
Q 7.625 6.25 7.625 12.59375 
Q 7.625 13.71875 7.765625 15.0625 
Q 7.90625 16.40625 8.203125 18.015625 
L 14.015625 47.703125 
L 6.390625 47.703125 
L 7.8125 54.6875 
L 15.28125 54.6875 
L 18.3125 70.21875 
L 27.296875 70.21875 
L 24.3125 54.6875 
z
" id="DejaVuSans-Oblique-74"/>
     </defs>
     <g transform="translate(219.4 280.276563)scale(0.1 -0.1)">
      <use transform="translate(0 0.78125)" xlink:href="#DejaVuSans-Oblique-74"/>
     </g>
    </g>
   </g>
   <g id="matplotlib.axis_2">
    <g id="ytick_1">
     <g id="line2d_15">
      <path clip-path="url(#p080c260de7)" d="M 54 242.116364 
L 388.8 242.116364 
" style="fill:none;stroke:#b0b0b0;stroke-linecap:square;stroke-width:0.8;"/>
     </g>
     <g id="line2d_16">
      <defs>
       <path d="M 0 0 
L -3.5 0 
" id="m9fc3a7bade" style="stroke:#000000;stroke-width:0.8;"/>
      </defs>
      <g>
       <use style="stroke:#000000;stroke-width:0.8;" x="54" xlink:href="#m9fc3a7bade" y="242.116364"/>
      </g>
     </g>
     <g id="text_9">
      <!-- 0 -->
      <g transform="translate(40.6375 245.915582)scale(0.1 -0.1)">
       <use xlink:href="#DejaVuSans-30"/>
      </g>
     </g>
    </g>
    <g id="ytick_2">
     <g id="line2d_17">
      <path clip-path="url(#p080c260de7)" d="M 54 211.668321 
L 388.8 211.668321 
" style="fill:none;stroke:#b0b0b0;stroke-linecap:square;stroke-width:0.8;"/>
     </g>
     <g id="line2d_18">
      <g>
       <use style="stroke:#000000;stroke-width:0.8;" x="54" xlink:href="#m9fc3a7bade" y="211.668321"/>
      </g>
     </g>
     <g id="text_10">
      <!-- 50 -->
      <defs>
       <path d="M 10.796875 72.90625 
L 49.515625 72.90625 
L 49.515625 64.59375 
L 19.828125 64.59375 
L 19.828125 46.734375 
Q 21.96875 47.46875 24.109375 47.828125 
Q 26.265625 48.1875 28.421875 48.1875 
Q 40.625 48.1875 47.75 41.5 
Q 54.890625 34.8125 54.890625 23.390625 
Q 54.890625 11.625 47.5625 5.09375 
Q 40.234375 -1.421875 26.90625 -1.421875 
Q 22.3125 -1.421875 17.546875 -0.640625 
Q 12.796875 0.140625 7.71875 1.703125 
L 7.71875 11.625 
Q 12.109375 9.234375 16.796875 8.0625 
Q 21.484375 6.890625 26.703125 6.890625 
Q 35.15625 6.890625 40.078125 11.328125 
Q 45.015625 15.765625 45.015625 23.390625 
Q 45.015625 31 40.078125 35.4375 
Q 35.15625 39.890625 26.703125 39.890625 
Q 22.75 39.890625 18.8125 39.015625 
Q 14.890625 38.140625 10.796875 36.28125 
z
" id="DejaVuSans-35"/>
      </defs>
      <g transform="translate(34.275 215.467539)scale(0.1 -0.1)">
       <use xlink:href="#DejaVuSans-35"/>
       <use x="63.623047" xlink:href="#DejaVuSans-30"/>
      </g>
     </g>
    </g>
    <g id="ytick_3">
     <g id="line2d_19">
      <path clip-path="url(#p080c260de7)" d="M 54 181.220278 
L 388.8 181.220278 
" style="fill:none;stroke:#b0b0b0;stroke-linecap:square;stroke-width:0.8;"/>
     </g>
     <g id="line2d_20">
      <g>
       <use style="stroke:#000000;stroke-width:0.8;" x="54" xlink:href="#m9fc3a7bade" y="181.220278"/>
      </g>
     </g>
     <g id="text_11">
      <!-- 100 -->
      <g transform="translate(27.9125 185.019496)scale(0.1 -0.1)">
       <use xlink:href="#DejaVuSans-31"/>
       <use x="63.623047" xlink:href="#DejaVuSans-30"/>
       <use x="127.246094" xlink:href="#DejaVuSans-30"/>
      </g>
     </g>
    </g>
    <g id="ytick_4">
     <g id="line2d_21">
      <path clip-path="url(#p080c260de7)" d="M 54 150.772235 
L 388.8 150.772235 
" style="fill:none;stroke:#b0b0b0;stroke-linecap:square;stroke-width:0.8;"/>
     </g>
     <g id="line2d_22">
      <g>
       <use style="stroke:#000000;stroke-width:0.8;" x="54" xlink:href="#m9fc3a7bade" y="150.772235"/>
      </g>
     </g>
     <g id="text_12">
      <!-- 150 -->
      <g transform="translate(27.9125 154.571453)scale(0.1 -0.1)">
       <use xlink:href="#DejaVuSans-31"/>
       <use x="63.623047" xlink:href="#DejaVuSans-35"/>
       <use x="127.246094" xlink:href="#DejaVuSans-30"/>
      </g>
     </g>
    </g>
    <g id="ytick_5">
     <g id="line2d_23">
      <path clip-path="url(#p080c260de7)" d="M 54 120.324192 
L 388.8 120.324192 
" style="fill:none;stroke:#b0b0b0;stroke-linecap:square;stroke-width:0.8;"/>
     </g>
     <g id="line2d_24">
      <g>
       <use style="stroke:#000000;stroke-width:0.8;" x="54" xlink:href="#m9fc3a7bade" y="120.324192"/>
      </g>
     </g>
     <g id="text_13">
      <!-- 200 -->
      <g transform="translate(27.9125 124.12341)scale(0.1 -0.1)">
       <use xlink:href="#DejaVuSans-32"/>
       <use x="63.623047" xlink:href="#DejaVuSans-30"/>
       <use x="127.246094" xlink:href="#DejaVuSans-30"/>
      </g>
     </g>
    </g>
    <g id="ytick_6">
     <g id="line2d_25">
      <path clip-path="url(#p080c260de7)" d="M 54 89.876149 
L 388.8 89.876149 
" style="fill:none;stroke:#b0b0b0;stroke-linecap:square;stroke-width:0.8;"/>
     </g>
     <g id="line2d_26">
      <g>
       <use style="stroke:#000000;stroke-width:0.8;" x="54" xlink:href="#m9fc3a7bade" y="89.876149"/>
      </g>
     </g>
     <g id="text_14">
      <!-- 250 -->
      <g transform="translate(27.9125 93.675367)scale(0.1 -0.1)">
       <use xlink:href="#DejaVuSans-32"/>
       <use x="63.623047" xlink:href="#DejaVuSans-35"/>
       <use x="127.246094" xlink:href="#DejaVuSans-30"/>
      </g>
     </g>
    </g>
    <g id="ytick_7">
     <g id="line2d_27">
      <path clip-path="url(#p080c260de7)" d="M 54 59.428106 
L 388.8 59.428106 
" style="fill:none;stroke:#b0b0b0;stroke-linecap:square;stroke-width:0.8;"/>
     </g>
     <g id="line2d_28">
      <g>
       <use style="stroke:#000000;stroke-width:0.8;" x="54" xlink:href="#m9fc3a7bade" y="59.428106"/>
      </g>
     </g>
     <g id="text_15">
      <!-- 300 -->
      <defs>
       <path d="M 40.578125 39.3125 
Q 47.65625 37.796875 51.625 33 
Q 55.609375 28.21875 55.609375 21.1875 
Q 55.609375 10.40625 48.1875 4.484375 
Q 40.765625 -1.421875 27.09375 -1.421875 
Q 22.515625 -1.421875 17.65625 -0.515625 
Q 12.796875 0.390625 7.625 2.203125 
L 7.625 11.71875 
Q 11.71875 9.328125 16.59375 8.109375 
Q 21.484375 6.890625 26.8125 6.890625 
Q 36.078125 6.890625 40.9375 10.546875 
Q 45.796875 14.203125 45.796875 21.1875 
Q 45.796875 27.640625 41.28125 31.265625 
Q 36.765625 34.90625 28.71875 34.90625 
L 20.21875 34.90625 
L 20.21875 43.015625 
L 29.109375 43.015625 
Q 36.375 43.015625 40.234375 45.921875 
Q 44.09375 48.828125 44.09375 54.296875 
Q 44.09375 59.90625 40.109375 62.90625 
Q 36.140625 65.921875 28.71875 65.921875 
Q 24.65625 65.921875 20.015625 65.03125 
Q 15.375 64.15625 9.8125 62.3125 
L 9.8125 71.09375 
Q 15.4375 72.65625 20.34375 73.4375 
Q 25.25 74.21875 29.59375 74.21875 
Q 40.828125 74.21875 47.359375 69.109375 
Q 53.90625 64.015625 53.90625 55.328125 
Q 53.90625 49.265625 50.4375 45.09375 
Q 46.96875 40.921875 40.578125 39.3125 
z
" id="DejaVuSans-33"/>
      </defs>
      <g transform="translate(27.9125 63.227324)scale(0.1 -0.1)">
       <use xlink:href="#DejaVuSans-33"/>
       <use x="63.623047" xlink:href="#DejaVuSans-30"/>
       <use x="127.246094" xlink:href="#DejaVuSans-30"/>
      </g>
     </g>
    </g>
    <g id="text_16">
     <!-- $z$ -->
     <defs>
      <path d="M 11.625 54.6875 
L 54.296875 54.6875 
L 52.6875 46.484375 
L 11.53125 7.171875 
L 45.515625 7.171875 
L 44.09375 0 
L -0.296875 0 
L 1.3125 8.203125 
L 42.484375 47.515625 
L 10.203125 47.515625 
z
" id="DejaVuSans-Oblique-7a"/>
     </defs>
     <g transform="translate(21.832812 145.93)rotate(-90)scale(0.1 -0.1)">
      <use transform="translate(0 0.3125)" xlink:href="#DejaVuSans-Oblique-7a"/>
     </g>
    </g>
   </g>
   <g id="line2d_29">
    <path clip-path="url(#p080c260de7)" d="M 69.218182 180.686395 
L 72.292562 176.071534 
L 75.366942 171.617532 
L 78.441322 167.321816 
L 81.515702 163.181856 
L 84.590083 159.195161 
L 87.664463 155.35928 
L 90.738843 151.671802 
L 93.813223 148.130353 
L 96.887603 144.732599 
L 99.961983 141.476242 
L 103.036364 138.359022 
L 106.110744 135.378713 
L 109.185124 132.533126 
L 112.259504 129.820107 
L 115.333884 127.237536 
L 118.408264 124.783327 
L 121.482645 122.455429 
L 124.557025 120.25182 
L 127.631405 118.170515 
L 130.705785 116.209556 
L 133.780165 114.367021 
L 136.854545 112.641014 
L 139.928926 111.029674 
L 143.003306 109.531166 
L 146.077686 108.143687 
L 149.152066 106.86546 
L 152.226446 105.69474 
L 155.300826 104.629806 
L 158.375207 103.668968 
L 161.449587 102.810561 
L 164.523967 102.052947 
L 167.598347 101.394514 
L 170.672727 100.833678 
L 173.747107 100.368876 
L 176.821488 99.998573 
L 179.895868 99.721259 
L 182.970248 99.535446 
L 186.044628 99.439672 
L 189.119008 99.432497 
L 192.193388 99.512503 
L 195.267769 99.678298 
L 198.342149 99.928509 
L 201.416529 100.261786 
L 204.490909 100.676801 
L 207.565289 101.172248 
L 210.639669 101.746839 
L 213.71405 102.399311 
L 216.78843 103.128416 
L 219.86281 103.932931 
L 222.93719 104.811649 
L 226.01157 105.763383 
L 229.08595 106.786967 
L 232.160331 107.88125 
L 235.234711 109.045104 
L 238.309091 110.277415 
L 241.383471 111.577088 
L 244.457851 112.943048 
L 247.532231 114.374233 
L 250.606612 115.8696 
L 253.680992 117.428124 
L 256.755372 119.048795 
L 259.829752 120.730619 
L 262.904132 122.472617 
L 265.978512 124.273829 
L 269.052893 126.133307 
L 272.127273 128.050119 
L 275.201653 130.023348 
L 278.276033 132.052093 
L 281.350413 134.135466 
L 284.424793 136.272593 
L 287.499174 138.462615 
L 290.573554 140.704686 
L 293.647934 142.997974 
L 296.722314 145.34166 
L 299.796694 147.734937 
L 302.871074 150.177013 
L 305.945455 152.667109 
L 309.019835 155.204455 
L 312.094215 157.788296 
L 315.168595 160.417889 
L 318.242975 163.092503 
L 321.317355 165.811416 
L 324.391736 168.573922 
L 327.466116 171.379323 
L 330.540496 174.226933 
L 333.614876 177.116078 
L 336.689256 180.046092 
L 339.763636 183.016323 
L 342.838017 186.026128 
L 345.912397 189.074873 
L 348.986777 192.161937 
L 352.061157 195.286705 
L 355.135537 198.448577 
L 358.209917 201.646957 
L 361.284298 204.881263 
L 364.358678 208.15092 
L 367.433058 211.455363 
L 370.507438 214.794035 
L 373.581818 218.166389 
" style="fill:none;stroke:#ff0000;stroke-linecap:square;"/>
   </g>
   <g id="line2d_30">
    <path clip-path="url(#p080c260de7)" d="M 69.218182 156.419073 
L 72.292562 151.984113 
L 75.366942 147.639659 
L 78.441322 143.385654 
L 81.515702 139.222041 
L 84.590083 135.148765 
L 87.664463 131.16577 
L 90.738843 127.272998 
L 93.813223 123.470395 
L 96.887603 119.757903 
L 99.961983 116.135466 
L 103.036364 112.603029 
L 106.110744 109.160536 
L 109.185124 105.80793 
L 112.259504 102.545155 
L 115.333884 99.372156 
L 118.408264 96.288877 
L 121.482645 93.295261 
L 124.557025 90.391254 
L 127.631405 87.576798 
L 130.705785 84.851838 
L 133.780165 82.21632 
L 136.854545 79.670186 
L 139.928926 77.213381 
L 143.003306 74.84585 
L 146.077686 72.567536 
L 149.152066 70.378386 
L 152.226446 68.278342 
L 155.300826 66.267349 
L 158.375207 64.345353 
L 161.449587 62.512297 
L 164.523967 60.768126 
L 167.598347 59.112785 
L 170.672727 57.546218 
L 173.747107 56.06837 
L 176.821488 54.679187 
L 179.895868 53.378612 
L 182.970248 52.166591 
L 186.044628 51.043068 
L 189.119008 50.007988 
L 192.193388 49.061296 
L 195.267769 48.202938 
L 198.342149 47.432857 
L 201.416529 46.751 
L 204.490909 46.157311 
L 207.565289 45.651735 
L 210.639669 45.234218 
L 213.71405 44.904704 
L 216.78843 44.663139 
L 219.86281 44.509468 
L 222.93719 44.443636 
L 226.01157 44.465589 
L 229.08595 44.575272 
L 232.160331 44.77263 
L 235.234711 45.057608 
L 238.309091 45.430153 
L 241.383471 45.890209 
L 244.457851 46.437722 
L 247.532231 47.072638 
L 250.606612 47.794902 
L 253.680992 48.60446 
L 256.755372 49.501257 
L 259.829752 50.485239 
L 262.904132 51.556352 
L 265.978512 52.714542 
L 269.052893 53.959753 
L 272.127273 55.291933 
L 275.201653 56.711027 
L 278.276033 58.21698 
L 281.350413 59.809739 
L 284.424793 61.48925 
L 287.499174 63.255458 
L 290.573554 65.10831 
L 293.647934 67.047752 
L 296.722314 69.073729 
L 299.796694 71.186189 
L 302.871074 73.385076 
L 305.945455 75.670337 
L 309.019835 78.041919 
L 312.094215 80.499767 
L 315.168595 83.043828 
L 318.242975 85.674049 
L 321.317355 88.390375 
L 324.391736 91.192753 
L 327.466116 94.081129 
L 330.540496 97.05545 
L 333.614876 100.115662 
L 336.689256 103.261712 
L 339.763636 106.493546 
L 342.838017 109.811111 
L 345.912397 113.214353 
L 348.986777 116.70322 
L 352.061157 120.277658 
L 355.135537 123.937612 
L 358.209917 127.683032 
L 361.284298 131.513862 
L 364.358678 135.43005 
L 367.433058 139.431543 
L 370.507438 143.518287 
L 373.581818 147.690229 
" style="fill:none;stroke:#ff9900;stroke-linecap:square;"/>
   </g>
   <g id="line2d_31">
    <path clip-path="url(#p080c260de7)" d="M 69.218182 162.106577 
L 72.292562 158.496752 
L 75.366942 155.02906 
L 78.441322 151.701332 
L 81.515702 148.511436 
L 84.590083 145.45727 
L 87.664463 142.536765 
L 90.738843 139.747884 
L 93.813223 137.088619 
L 96.887603 134.556994 
L 99.961983 132.151065 
L 103.036364 129.868914 
L 106.110744 127.708655 
L 109.185124 125.668429 
L 112.259504 123.746406 
L 115.333884 121.940785 
L 118.408264 120.24979 
L 121.482645 118.671675 
L 124.557025 117.204719 
L 127.631405 115.847227 
L 130.705785 114.597529 
L 133.780165 113.453984 
L 136.854545 112.414972 
L 139.928926 111.478899 
L 143.003306 110.644198 
L 146.077686 109.909321 
L 149.152066 109.272748 
L 152.226446 108.73298 
L 155.300826 108.288541 
L 158.375207 107.937977 
L 161.449587 107.679857 
L 164.523967 107.512773 
L 167.598347 107.435337 
L 170.672727 107.44618 
L 173.747107 107.543959 
L 176.821488 107.727347 
L 179.895868 107.99504 
L 182.970248 108.345752 
L 186.044628 108.778217 
L 189.119008 109.291189 
L 192.193388 109.883442 
L 195.267769 110.553765 
L 198.342149 111.30097 
L 201.416529 112.123884 
L 204.490909 113.021352 
L 207.565289 113.992239 
L 210.639669 115.035424 
L 213.71405 116.149807 
L 216.78843 117.3343 
L 219.86281 118.587837 
L 222.93719 119.909363 
L 226.01157 121.297842 
L 229.08595 122.752255 
L 232.160331 124.271595 
L 235.234711 125.854873 
L 238.309091 127.501113 
L 241.383471 129.209357 
L 244.457851 130.978659 
L 247.532231 132.808088 
L 250.606612 134.696728 
L 253.680992 136.643675 
L 256.755372 138.648041 
L 259.829752 140.708951 
L 262.904132 142.825542 
L 265.978512 144.996966 
L 269.052893 147.222387 
L 272.127273 149.500981 
L 275.201653 151.831938 
L 278.276033 154.21446 
L 281.350413 156.64776 
L 284.424793 159.131065 
L 287.499174 161.663612 
L 290.573554 164.24465 
L 293.647934 166.873441 
L 296.722314 169.549255 
L 299.796694 172.271377 
L 302.871074 175.039101 
L 305.945455 177.85173 
L 309.019835 180.708581 
L 312.094215 183.60898 
L 315.168595 186.552262 
L 318.242975 189.537773 
L 321.317355 192.564871 
L 324.391736 195.632921 
L 327.466116 198.741298 
L 330.540496 201.889388 
L 333.614876 205.076586 
L 336.689256 208.302295 
L 339.763636 211.565928 
L 342.838017 214.866907 
L 345.912397 218.204662 
L 348.986777 221.578634 
L 352.061157 224.98827 
L 355.135537 228.433025 
L 358.209917 231.912366 
L 361.284298 235.425764 
L 364.358678 238.9727 
L 367.433058 242.116364 
L 370.507438 242.116364 
L 373.581818 242.116364 
" style="fill:none;stroke:#ccff00;stroke-linecap:square;"/>
   </g>
   <g id="line2d_32">
    <path clip-path="url(#p080c260de7)" d="M 69.218182 152.416133 
L 72.292562 148.986433 
L 75.366942 145.68949 
L 78.441322 142.52354 
L 81.515702 139.486843 
L 84.590083 136.577681 
L 87.664463 133.794361 
L 90.738843 131.135209 
L 93.813223 128.598576 
L 96.887603 126.182834 
L 99.961983 123.886377 
L 103.036364 121.70762 
L 106.110744 119.644999 
L 109.185124 117.696971 
L 112.259504 115.862013 
L 115.333884 114.138622 
L 118.408264 112.525317 
L 121.482645 111.020635 
L 124.557025 109.623132 
L 127.631405 108.331384 
L 130.705785 107.143987 
L 133.780165 106.059553 
L 136.854545 105.076714 
L 139.928926 104.194122 
L 143.003306 103.410442 
L 146.077686 102.724362 
L 149.152066 102.134585 
L 152.226446 101.639831 
L 155.300826 101.238836 
L 158.375207 100.930357 
L 161.449587 100.713162 
L 164.523967 100.586041 
L 167.598347 100.547794 
L 170.672727 100.597242 
L 173.747107 100.73322 
L 176.821488 100.954578 
L 179.895868 101.26018 
L 182.970248 101.648909 
L 186.044628 102.119659 
L 189.119008 102.671341 
L 192.193388 103.302878 
L 195.267769 104.013211 
L 198.342149 104.801292 
L 201.416529 105.666089 
L 204.490909 106.606581 
L 207.565289 107.621763 
L 210.639669 108.710642 
L 213.71405 109.87224 
L 216.78843 111.105591 
L 219.86281 112.40974 
L 222.93719 113.783747 
L 226.01157 115.226684 
L 229.08595 116.737635 
L 232.160331 118.315696 
L 235.234711 119.959976 
L 238.309091 121.669594 
L 241.383471 123.443683 
L 244.457851 125.281386 
L 247.532231 127.181857 
L 250.606612 129.144264 
L 253.680992 131.167782 
L 256.755372 133.251599 
L 259.829752 135.394915 
L 262.904132 137.596939 
L 265.978512 139.856891 
L 269.052893 142.174002 
L 272.127273 144.547511 
L 275.201653 146.976669 
L 278.276033 149.460737 
L 281.350413 151.998985 
L 284.424793 154.590694 
L 287.499174 157.235153 
L 290.573554 159.931661 
L 293.647934 162.679527 
L 296.722314 165.478068 
L 299.796694 168.326611 
L 302.871074 171.224491 
L 305.945455 174.171054 
L 309.019835 177.165651 
L 312.094215 180.207645 
L 315.168595 183.296407 
L 318.242975 186.431314 
L 321.317355 189.611753 
L 324.391736 192.83712 
L 327.466116 196.106818 
L 330.540496 199.420257 
L 333.614876 202.776857 
L 336.689256 206.176043 
L 339.763636 209.617251 
L 342.838017 213.099921 
L 345.912397 216.623503 
L 348.986777 220.187453 
L 352.061157 223.791235 
L 355.135537 227.434319 
L 358.209917 231.116184 
L 361.284298 234.836314 
L 364.358678 238.5942 
L 367.433058 242.116364 
L 370.507438 242.116364 
L 373.581818 242.116364 
" style="fill:none;stroke:#33ff00;stroke-linecap:square;"/>
   </g>
   <g id="line2d_33">
    <path clip-path="url(#p080c260de7)" d="M 69.218182 174.771187 
L 72.292562 169.823007 
L 75.366942 165.124377 
L 78.441322 160.667064 
L 81.515702 156.443108 
L 84.590083 152.44481 
L 87.664463 148.664727 
L 90.738843 145.095659 
L 93.813223 141.730646 
L 96.887603 138.562956 
L 99.961983 135.58608 
L 103.036364 132.793722 
L 106.110744 130.179796 
L 109.185124 127.738416 
L 112.259504 125.463889 
L 115.333884 123.350711 
L 118.408264 121.39356 
L 121.482645 119.587288 
L 124.557025 117.926917 
L 127.631405 116.407636 
L 130.705785 115.024789 
L 133.780165 113.773876 
L 136.854545 112.650543 
L 139.928926 111.650584 
L 143.003306 110.769927 
L 146.077686 110.004637 
L 149.152066 109.350908 
L 152.226446 108.80506 
L 155.300826 108.363533 
L 158.375207 108.022888 
L 161.449587 107.779795 
L 164.523967 107.631036 
L 167.598347 107.5735 
L 170.672727 107.604177 
L 173.747107 107.720157 
L 176.821488 107.918626 
L 179.895868 108.196862 
L 182.970248 108.552236 
L 186.044628 108.9822 
L 189.119008 109.484296 
L 192.193388 110.056144 
L 195.267769 110.695441 
L 198.342149 111.399965 
L 201.416529 112.167561 
L 204.490909 112.996151 
L 207.565289 113.883722 
L 210.639669 114.828327 
L 213.71405 115.828087 
L 216.78843 116.88118 
L 219.86281 117.985848 
L 222.93719 119.14039 
L 226.01157 120.343159 
L 229.08595 121.592566 
L 232.160331 122.887071 
L 235.234711 124.225187 
L 238.309091 125.605475 
L 241.383471 127.026544 
L 244.457851 128.487049 
L 247.532231 129.985688 
L 250.606612 131.521204 
L 253.680992 133.09238 
L 256.755372 134.69804 
L 259.829752 136.337046 
L 262.904132 138.008298 
L 265.978512 139.710732 
L 269.052893 141.443321 
L 272.127273 143.205068 
L 275.201653 144.995012 
L 278.276033 146.812223 
L 281.350413 148.655801 
L 284.424793 150.524877 
L 287.499174 152.418609 
L 290.573554 154.336185 
L 293.647934 156.276816 
L 296.722314 158.239744 
L 299.796694 160.224232 
L 302.871074 162.229568 
L 305.945455 164.255067 
L 309.019835 166.300061 
L 312.094215 168.363908 
L 315.168595 170.445987 
L 318.242975 172.545695 
L 321.317355 174.662451 
L 324.391736 176.795693 
L 327.466116 178.944877 
L 330.540496 181.109477 
L 333.614876 183.288984 
L 336.689256 185.482906 
L 339.763636 187.690769 
L 342.838017 189.912112 
L 345.912397 192.14649 
L 348.986777 194.393474 
L 352.061157 196.652648 
L 355.135537 198.923609 
L 358.209917 201.205968 
L 361.284298 203.49935 
L 364.358678 205.803392 
L 367.433058 208.11774 
L 370.507438 210.442056 
L 373.581818 212.776011 
" style="fill:none;stroke:#00ff66;stroke-linecap:square;"/>
   </g>
   <g id="line2d_34">
    <path clip-path="url(#p080c260de7)" d="M 69.218182 174.126313 
L 72.292562 170.626618 
L 75.366942 167.365037 
L 78.441322 164.331211 
L 81.515702 161.51523 
L 84.590083 158.907616 
L 87.664463 156.499303 
L 90.738843 154.281621 
L 93.813223 152.246274 
L 96.887603 150.38533 
L 99.961983 148.691201 
L 103.036364 147.156628 
L 106.110744 145.77467 
L 109.185124 144.538686 
L 112.259504 143.442326 
L 115.333884 142.479515 
L 118.408264 141.644441 
L 121.482645 140.931548 
L 124.557025 140.33552 
L 127.631405 139.851271 
L 130.705785 139.473938 
L 133.780165 139.19887 
L 136.854545 139.021617 
L 139.928926 138.937924 
L 143.003306 138.943719 
L 146.077686 139.03511 
L 149.152066 139.208371 
L 152.226446 139.459942 
L 155.300826 139.786414 
L 158.375207 140.18453 
L 161.449587 140.651171 
L 164.523967 141.183356 
L 167.598347 141.778234 
L 170.672727 142.433077 
L 173.747107 143.145276 
L 176.821488 143.912336 
L 179.895868 144.731869 
L 182.970248 145.601592 
L 186.044628 146.519322 
L 189.119008 147.482971 
L 192.193388 148.490539 
L 195.267769 149.540117 
L 198.342149 150.629876 
L 201.416529 151.758069 
L 204.490909 152.923023 
L 207.565289 154.123138 
L 210.639669 155.356885 
L 213.71405 156.622801 
L 216.78843 157.919486 
L 219.86281 159.245601 
L 222.93719 160.599866 
L 226.01157 161.981055 
L 229.08595 163.387999 
L 232.160331 164.819575 
L 235.234711 166.274712 
L 238.309091 167.752386 
L 241.383471 169.251615 
L 244.457851 170.771462 
L 247.532231 172.31103 
L 250.606612 173.869461 
L 253.680992 175.445933 
L 256.755372 177.039663 
L 259.829752 178.649898 
L 262.904132 180.275922 
L 265.978512 181.917047 
L 269.052893 183.572616 
L 272.127273 185.242 
L 275.201653 186.924599 
L 278.276033 188.619838 
L 281.350413 190.327166 
L 284.424793 192.046058 
L 287.499174 193.776011 
L 290.573554 195.516542 
L 293.647934 197.267193 
L 296.722314 199.027523 
L 299.796694 200.79711 
L 302.871074 202.575552 
L 305.945455 204.362463 
L 309.019835 206.157476 
L 312.094215 207.960237 
L 315.168595 209.77041 
L 318.242975 211.587672 
L 321.317355 213.411714 
L 324.391736 215.242242 
L 327.466116 217.078973 
L 330.540496 218.921638 
L 333.614876 220.769978 
L 336.689256 222.623747 
L 339.763636 224.482707 
L 342.838017 226.346634 
L 345.912397 228.215312 
L 348.986777 230.088532 
L 352.061157 231.966099 
L 355.135537 233.847823 
L 358.209917 235.733522 
L 361.284298 237.623024 
L 364.358678 239.516164 
L 367.433058 241.412783 
L 370.507438 242.116364 
L 373.581818 242.116364 
" style="fill:none;stroke:#00ffff;stroke-linecap:square;"/>
   </g>
   <g id="line2d_35">
    <path clip-path="url(#p080c260de7)" d="M 69.218182 162.105032 
L 72.292562 157.568502 
L 75.366942 153.277203 
L 78.441322 149.222541 
L 81.515702 145.396221 
L 84.590083 141.79024 
L 87.664463 138.396874 
L 90.738843 135.208671 
L 93.813223 132.218441 
L 96.887603 129.419243 
L 99.961983 126.804383 
L 103.036364 124.3674 
L 106.110744 122.102057 
L 109.185124 120.00234 
L 112.259504 118.062443 
L 115.333884 116.276764 
L 118.408264 114.639898 
L 121.482645 113.146628 
L 124.557025 111.791922 
L 127.631405 110.570924 
L 130.705785 109.478945 
L 133.780165 108.511465 
L 136.854545 107.664119 
L 139.928926 106.932696 
L 143.003306 106.313134 
L 146.077686 105.801511 
L 149.152066 105.394045 
L 152.226446 105.087084 
L 155.300826 104.877106 
L 158.375207 104.760712 
L 161.449587 104.73462 
L 164.523967 104.795667 
L 167.598347 104.940797 
L 170.672727 105.167064 
L 173.747107 105.471624 
L 176.821488 105.851732 
L 179.895868 106.304741 
L 182.970248 106.828095 
L 186.044628 107.419328 
L 189.119008 108.076062 
L 192.193388 108.796001 
L 195.267769 109.576929 
L 198.342149 110.416708 
L 201.416529 111.313276 
L 204.490909 112.264642 
L 207.565289 113.268886 
L 210.639669 114.324153 
L 213.71405 115.428657 
L 216.78843 116.58067 
L 219.86281 117.778528 
L 222.93719 119.020624 
L 226.01157 120.305407 
L 229.08595 121.631381 
L 232.160331 122.997103 
L 235.234711 124.401178 
L 238.309091 125.842263 
L 241.383471 127.319061 
L 244.457851 128.83032 
L 247.532231 130.374831 
L 250.606612 131.95143 
L 253.680992 133.558991 
L 256.755372 135.19643 
L 259.829752 136.862699 
L 262.904132 138.556788 
L 265.978512 140.277721 
L 269.052893 142.024558 
L 272.127273 143.796391 
L 275.201653 145.592344 
L 278.276033 147.41157 
L 281.350413 149.253255 
L 284.424793 151.116611 
L 287.499174 153.000879 
L 290.573554 154.905325 
L 293.647934 156.829243 
L 296.722314 158.77195 
L 299.796694 160.732787 
L 302.871074 162.711119 
L 305.945455 164.706333 
L 309.019835 166.717837 
L 312.094215 168.745059 
L 315.168595 170.78745 
L 318.242975 172.844477 
L 321.317355 174.915627 
L 324.391736 177.000406 
L 327.466116 179.098335 
L 330.540496 181.208954 
L 333.614876 183.331818 
L 336.689256 185.466498 
L 339.763636 187.612579 
L 342.838017 189.769663 
L 345.912397 191.937362 
L 348.986777 194.115306 
L 352.061157 196.303135 
L 355.135537 198.500502 
L 358.209917 200.707074 
L 361.284298 202.922527 
L 364.358678 205.146551 
L 367.433058 207.378845 
L 370.507438 209.619119 
L 373.581818 211.867094 
" style="fill:none;stroke:#0066ff;stroke-linecap:square;"/>
   </g>
   <g id="line2d_36">
    <path clip-path="url(#p080c260de7)" d="M 69.218182 171.894584 
L 72.292562 167.798406 
L 75.366942 163.894531 
L 78.441322 160.177997 
L 81.515702 156.643971 
L 84.590083 153.287746 
L 87.664463 150.104734 
L 90.738843 147.090467 
L 93.813223 144.240593 
L 96.887603 141.550869 
L 99.961983 139.017166 
L 103.036364 136.635458 
L 106.110744 134.401824 
L 109.185124 132.312444 
L 112.259504 130.363597 
L 115.333884 128.551658 
L 118.408264 126.873095 
L 121.482645 125.324468 
L 124.557025 123.902423 
L 127.631405 122.603697 
L 130.705785 121.425108 
L 133.780165 120.363556 
L 136.854545 119.416022 
L 139.928926 118.579566 
L 143.003306 117.851321 
L 146.077686 117.228497 
L 149.152066 116.708373 
L 152.226446 116.288301 
L 155.300826 115.965699 
L 158.375207 115.738053 
L 161.449587 115.602913 
L 164.523967 115.557893 
L 167.598347 115.600669 
L 170.672727 115.728975 
L 173.747107 115.940605 
L 176.821488 116.233409 
L 179.895868 116.605294 
L 182.970248 117.054219 
L 186.044628 117.578198 
L 189.119008 118.175293 
L 192.193388 118.843619 
L 195.267769 119.581338 
L 198.342149 120.38666 
L 201.416529 121.257842 
L 204.490909 122.193184 
L 207.565289 123.19103 
L 210.639669 124.24977 
L 213.71405 125.367831 
L 216.78843 126.543684 
L 219.86281 127.775837 
L 222.93719 129.062839 
L 226.01157 130.403274 
L 229.08595 131.795764 
L 232.160331 133.238967 
L 235.234711 134.731573 
L 238.309091 136.272309 
L 241.383471 137.859932 
L 244.457851 139.493234 
L 247.532231 141.171036 
L 250.606612 142.89219 
L 253.680992 144.655578 
L 256.755372 146.46011 
L 259.829752 148.304724 
L 262.904132 150.188388 
L 265.978512 152.110093 
L 269.052893 154.068858 
L 272.127273 156.063727 
L 275.201653 158.093769 
L 278.276033 160.158076 
L 281.350413 162.255765 
L 284.424793 164.385974 
L 287.499174 166.547864 
L 290.573554 168.740619 
L 293.647934 170.963442 
L 296.722314 173.215556 
L 299.796694 175.496208 
L 302.871074 177.80466 
L 305.945455 180.140195 
L 309.019835 182.502115 
L 312.094215 184.889739 
L 315.168595 187.302403 
L 318.242975 189.739463 
L 321.317355 192.200289 
L 324.391736 194.684267 
L 327.466116 197.1908 
L 330.540496 199.719307 
L 333.614876 202.26922 
L 336.689256 204.839988 
L 339.763636 207.431072 
L 342.838017 210.041948 
L 345.912397 212.672107 
L 348.986777 215.321049 
L 352.061157 217.988292 
L 355.135537 220.673362 
L 358.209917 223.3758 
L 361.284298 226.095157 
L 364.358678 228.830998 
L 367.433058 231.582897 
L 370.507438 234.35044 
L 373.581818 237.133223 
" style="fill:none;stroke:#3300ff;stroke-linecap:square;"/>
   </g>
   <g id="line2d_37">
    <path clip-path="url(#p080c260de7)" d="M 69.218182 179.257975 
L 72.292562 176.342663 
L 75.366942 173.522027 
L 78.441322 170.79584 
L 81.515702 168.163875 
L 84.590083 165.625905 
L 87.664463 163.181704 
L 90.738843 160.831047 
L 93.813223 158.573709 
L 96.887603 156.409465 
L 99.961983 154.338091 
L 103.036364 152.359364 
L 106.110744 150.473062 
L 109.185124 148.678961 
L 112.259504 146.97684 
L 115.333884 145.366479 
L 118.408264 143.847655 
L 121.482645 142.42015 
L 124.557025 141.083743 
L 127.631405 139.838216 
L 130.705785 138.683349 
L 133.780165 137.618925 
L 136.854545 136.644727 
L 139.928926 135.760536 
L 143.003306 134.966138 
L 146.077686 134.261315 
L 149.152066 133.645853 
L 152.226446 133.119536 
L 155.300826 132.68215 
L 158.375207 132.333482 
L 161.449587 132.073317 
L 164.523967 131.901444 
L 167.598347 131.817649 
L 170.672727 131.821721 
L 173.747107 131.913448 
L 176.821488 132.09262 
L 179.895868 132.359027 
L 182.970248 132.712458 
L 186.044628 133.152704 
L 189.119008 133.679557 
L 192.193388 134.292808 
L 195.267769 134.99225 
L 198.342149 135.777674 
L 201.416529 136.648875 
L 204.490909 137.605646 
L 207.565289 138.647782 
L 210.639669 139.775076 
L 213.71405 140.987324 
L 216.78843 142.284322 
L 219.86281 143.665866 
L 222.93719 145.131753 
L 226.01157 146.68178 
L 229.08595 148.315744 
L 232.160331 150.033444 
L 235.234711 151.834677 
L 238.309091 153.719245 
L 241.383471 155.686945 
L 244.457851 157.737578 
L 247.532231 159.870944 
L 250.606612 162.086845 
L 253.680992 164.385082 
L 256.755372 166.765457 
L 259.829752 169.227772 
L 262.904132 171.771831 
L 265.978512 174.397437 
L 269.052893 177.104393 
L 272.127273 179.892505 
L 275.201653 182.761576 
L 278.276033 185.711412 
L 281.350413 188.741819 
L 284.424793 191.852603 
L 287.499174 195.043571 
L 290.573554 198.31453 
L 293.647934 201.665288 
L 296.722314 205.095652 
L 299.796694 208.605432 
L 302.871074 212.194436 
L 305.945455 215.862473 
L 309.019835 219.609354 
L 312.094215 223.434889 
L 315.168595 227.338889 
L 318.242975 231.321164 
L 321.317355 235.381528 
L 324.391736 239.519792 
L 327.466116 242.116364 
L 330.540496 242.116364 
L 333.614876 242.116364 
L 336.689256 242.116364 
L 339.763636 242.116364 
L 342.838017 242.116364 
L 345.912397 242.116364 
L 348.986777 242.116364 
L 352.061157 242.116364 
L 355.135537 242.116364 
L 358.209917 242.116364 
L 361.284298 242.116364 
L 364.358678 242.116364 
L 367.433058 242.116364 
L 370.507438 242.116364 
L 373.581818 242.116364 
" style="fill:none;stroke:#cc00ff;stroke-linecap:square;"/>
   </g>
   <g id="line2d_38">
    <path clip-path="url(#p080c260de7)" d="M 69.218182 158.08862 
L 72.292562 154.354307 
L 75.366942 150.919789 
L 78.441322 147.76784 
L 81.515702 144.882224 
L 84.590083 142.247637 
L 87.664463 139.849656 
L 90.738843 137.674685 
L 93.813223 135.709911 
L 96.887603 133.943256 
L 99.961983 132.363335 
L 103.036364 130.95942 
L 106.110744 129.721397 
L 109.185124 128.639735 
L 112.259504 127.705448 
L 115.333884 126.910069 
L 118.408264 126.245616 
L 121.482645 125.704567 
L 124.557025 125.27983 
L 127.631405 124.964722 
L 130.705785 124.752945 
L 133.780165 124.638561 
L 136.854545 124.615973 
L 139.928926 124.679908 
L 143.003306 124.825394 
L 146.077686 125.047744 
L 149.152066 125.342543 
L 152.226446 125.705627 
L 155.300826 126.133074 
L 158.375207 126.621183 
L 161.449587 127.166471 
L 164.523967 127.765652 
L 167.598347 128.415628 
L 170.672727 129.113482 
L 173.747107 129.856462 
L 176.821488 130.641975 
L 179.895868 131.467578 
L 182.970248 132.330967 
L 186.044628 133.22997 
L 189.119008 134.162542 
L 192.193388 135.126754 
L 195.267769 136.120787 
L 198.342149 137.142928 
L 201.416529 138.191562 
L 204.490909 139.265167 
L 207.565289 140.362308 
L 210.639669 141.481632 
L 213.71405 142.621865 
L 216.78843 143.781806 
L 219.86281 144.960322 
L 222.93719 146.156346 
L 226.01157 147.368871 
L 229.08595 148.59695 
L 232.160331 149.83969 
L 235.234711 151.096247 
L 238.309091 152.365827 
L 241.383471 153.647683 
L 244.457851 154.941109 
L 247.532231 156.24544 
L 250.606612 157.560049 
L 253.680992 158.884347 
L 256.755372 160.217776 
L 259.829752 161.559811 
L 262.904132 162.909959 
L 265.978512 164.267753 
L 269.052893 165.632753 
L 272.127273 167.004546 
L 275.201653 168.382741 
L 278.276033 169.766971 
L 281.350413 171.156888 
L 284.424793 172.552166 
L 287.499174 173.952497 
L 290.573554 175.357591 
L 293.647934 176.767173 
L 296.722314 178.180987 
L 299.796694 179.598788 
L 302.871074 181.020348 
L 305.945455 182.44545 
L 309.019835 183.873892 
L 312.094215 185.305481 
L 315.168595 186.740037 
L 318.242975 188.177388 
L 321.317355 189.617375 
L 324.391736 191.059846 
L 327.466116 192.504658 
L 330.540496 193.951676 
L 333.614876 195.400775 
L 336.689256 196.851834 
L 339.763636 198.30474 
L 342.838017 199.759388 
L 345.912397 201.215678 
L 348.986777 202.673515 
L 352.061157 204.13281 
L 355.135537 205.593479 
L 358.209917 207.055444 
L 361.284298 208.518631 
L 364.358678 209.982968 
L 367.433058 211.44839 
L 370.507438 212.914834 
L 373.581818 214.382242 
" style="fill:none;stroke:#ff0099;stroke-linecap:square;"/>
   </g>
   <g id="patch_3">
    <path d="M 54 252 
L 54 34.56 
" style="fill:none;stroke:#000000;stroke-linecap:square;stroke-linejoin:miter;stroke-width:0.8;"/>
   </g>
   <g id="patch_4">
    <path d="M 388.8 252 
L 388.8 34.56 
" style="fill:none;stroke:#000000;stroke-linecap:square;stroke-linejoin:miter;stroke-width:0.8;"/>
   </g>
   <g id="patch_5">
    <path d="M 54 252 
L 388.8 252 
" style="fill:none;stroke:#000000;stroke-linecap:square;stroke-linejoin:miter;stroke-width:0.8;"/>
   </g>
   <g id="patch_6">
    <path d="M 54 34.56 
L 388.8 34.56 
" style="fill:none;stroke:#000000;stroke-linecap:square;stroke-linejoin:miter;stroke-width:0.8;"/>
   </g>
   <g id="text_17">
    <!-- Viscous free-fall -->
    <defs>
     <path d="M 28.609375 0 
L 0.78125 72.90625 
L 11.078125 72.90625 
L 34.1875 11.53125 
L 57.328125 72.90625 
L 67.578125 72.90625 
L 39.796875 0 
z
" id="DejaVuSans-56"/>
     <path d="M 9.421875 54.6875 
L 18.40625 54.6875 
L 18.40625 0 
L 9.421875 0 
z
M 9.421875 75.984375 
L 18.40625 75.984375 
L 18.40625 64.59375 
L 9.421875 64.59375 
z
" id="DejaVuSans-69"/>
     <path d="M 44.28125 53.078125 
L 44.28125 44.578125 
Q 40.484375 46.53125 36.375 47.5 
Q 32.28125 48.484375 27.875 48.484375 
Q 21.1875 48.484375 17.84375 46.4375 
Q 14.5 44.390625 14.5 40.28125 
Q 14.5 37.15625 16.890625 35.375 
Q 19.28125 33.59375 26.515625 31.984375 
L 29.59375 31.296875 
Q 39.15625 29.25 43.1875 25.515625 
Q 47.21875 21.78125 47.21875 15.09375 
Q 47.21875 7.46875 41.1875 3.015625 
Q 35.15625 -1.421875 24.609375 -1.421875 
Q 20.21875 -1.421875 15.453125 -0.5625 
Q 10.6875 0.296875 5.421875 2 
L 5.421875 11.28125 
Q 10.40625 8.6875 15.234375 7.390625 
Q 20.0625 6.109375 24.8125 6.109375 
Q 31.15625 6.109375 34.5625 8.28125 
Q 37.984375 10.453125 37.984375 14.40625 
Q 37.984375 18.0625 35.515625 20.015625 
Q 33.0625 21.96875 24.703125 23.78125 
L 21.578125 24.515625 
Q 13.234375 26.265625 9.515625 29.90625 
Q 5.8125 33.546875 5.8125 39.890625 
Q 5.8125 47.609375 11.28125 51.796875 
Q 16.75 56 26.8125 56 
Q 31.78125 56 36.171875 55.265625 
Q 40.578125 54.546875 44.28125 53.078125 
z
" id="DejaVuSans-73"/>
     <path d="M 48.78125 52.59375 
L 48.78125 44.1875 
Q 44.96875 46.296875 41.140625 47.34375 
Q 37.3125 48.390625 33.40625 48.390625 
Q 24.65625 48.390625 19.8125 42.84375 
Q 14.984375 37.3125 14.984375 27.296875 
Q 14.984375 17.28125 19.8125 11.734375 
Q 24.65625 6.203125 33.40625 6.203125 
Q 37.3125 6.203125 41.140625 7.25 
Q 44.96875 8.296875 48.78125 10.40625 
L 48.78125 2.09375 
Q 45.015625 0.34375 40.984375 -0.53125 
Q 36.96875 -1.421875 32.421875 -1.421875 
Q 20.0625 -1.421875 12.78125 6.34375 
Q 5.515625 14.109375 5.515625 27.296875 
Q 5.515625 40.671875 12.859375 48.328125 
Q 20.21875 56 33.015625 56 
Q 37.15625 56 41.109375 55.140625 
Q 45.0625 54.296875 48.78125 52.59375 
z
" id="DejaVuSans-63"/>
     <path d="M 30.609375 48.390625 
Q 23.390625 48.390625 19.1875 42.75 
Q 14.984375 37.109375 14.984375 27.296875 
Q 14.984375 17.484375 19.15625 11.84375 
Q 23.34375 6.203125 30.609375 6.203125 
Q 37.796875 6.203125 41.984375 11.859375 
Q 46.1875 17.53125 46.1875 27.296875 
Q 46.1875 37.015625 41.984375 42.703125 
Q 37.796875 48.390625 30.609375 48.390625 
z
M 30.609375 56 
Q 42.328125 56 49.015625 48.375 
Q 55.71875 40.765625 55.71875 27.296875 
Q 55.71875 13.875 49.015625 6.21875 
Q 42.328125 -1.421875 30.609375 -1.421875 
Q 18.84375 -1.421875 12.171875 6.21875 
Q 5.515625 13.875 5.515625 27.296875 
Q 5.515625 40.765625 12.171875 48.375 
Q 18.84375 56 30.609375 56 
z
" id="DejaVuSans-6f"/>
     <path d="M 8.5 21.578125 
L 8.5 54.6875 
L 17.484375 54.6875 
L 17.484375 21.921875 
Q 17.484375 14.15625 20.5 10.265625 
Q 23.53125 6.390625 29.59375 6.390625 
Q 36.859375 6.390625 41.078125 11.03125 
Q 45.3125 15.671875 45.3125 23.6875 
L 45.3125 54.6875 
L 54.296875 54.6875 
L 54.296875 0 
L 45.3125 0 
L 45.3125 8.40625 
Q 42.046875 3.421875 37.71875 1 
Q 33.40625 -1.421875 27.6875 -1.421875 
Q 18.265625 -1.421875 13.375 4.4375 
Q 8.5 10.296875 8.5 21.578125 
z
M 31.109375 56 
z
" id="DejaVuSans-75"/>
     <path id="DejaVuSans-20"/>
     <path d="M 37.109375 75.984375 
L 37.109375 68.5 
L 28.515625 68.5 
Q 23.6875 68.5 21.796875 66.546875 
Q 19.921875 64.59375 19.921875 59.515625 
L 19.921875 54.6875 
L 34.71875 54.6875 
L 34.71875 47.703125 
L 19.921875 47.703125 
L 19.921875 0 
L 10.890625 0 
L 10.890625 47.703125 
L 2.296875 47.703125 
L 2.296875 54.6875 
L 10.890625 54.6875 
L 10.890625 58.5 
Q 10.890625 67.625 15.140625 71.796875 
Q 19.390625 75.984375 28.609375 75.984375 
z
" id="DejaVuSans-66"/>
     <path d="M 41.109375 46.296875 
Q 39.59375 47.171875 37.8125 47.578125 
Q 36.03125 48 33.890625 48 
Q 26.265625 48 22.1875 43.046875 
Q 18.109375 38.09375 18.109375 28.8125 
L 18.109375 0 
L 9.078125 0 
L 9.078125 54.6875 
L 18.109375 54.6875 
L 18.109375 46.1875 
Q 20.953125 51.171875 25.484375 53.578125 
Q 30.03125 56 36.53125 56 
Q 37.453125 56 38.578125 55.875 
Q 39.703125 55.765625 41.0625 55.515625 
z
" id="DejaVuSans-72"/>
     <path d="M 56.203125 29.59375 
L 56.203125 25.203125 
L 14.890625 25.203125 
Q 15.484375 15.921875 20.484375 11.0625 
Q 25.484375 6.203125 34.421875 6.203125 
Q 39.59375 6.203125 44.453125 7.46875 
Q 49.3125 8.734375 54.109375 11.28125 
L 54.109375 2.78125 
Q 49.265625 0.734375 44.1875 -0.34375 
Q 39.109375 -1.421875 33.890625 -1.421875 
Q 20.796875 -1.421875 13.15625 6.1875 
Q 5.515625 13.8125 5.515625 26.8125 
Q 5.515625 40.234375 12.765625 48.109375 
Q 20.015625 56 32.328125 56 
Q 43.359375 56 49.78125 48.890625 
Q 56.203125 41.796875 56.203125 29.59375 
z
M 47.21875 32.234375 
Q 47.125 39.59375 43.09375 43.984375 
Q 39.0625 48.390625 32.421875 48.390625 
Q 24.90625 48.390625 20.390625 44.140625 
Q 15.875 39.890625 15.1875 32.171875 
z
" id="DejaVuSans-65"/>
     <path d="M 4.890625 31.390625 
L 31.203125 31.390625 
L 31.203125 23.390625 
L 4.890625 23.390625 
z
" id="DejaVuSans-2d"/>
     <path d="M 34.28125 27.484375 
Q 23.390625 27.484375 19.1875 25 
Q 14.984375 22.515625 14.984375 16.5 
Q 14.984375 11.71875 18.140625 8.90625 
Q 21.296875 6.109375 26.703125 6.109375 
Q 34.1875 6.109375 38.703125 11.40625 
Q 43.21875 16.703125 43.21875 25.484375 
L 43.21875 27.484375 
z
M 52.203125 31.203125 
L 52.203125 0 
L 43.21875 0 
L 43.21875 8.296875 
Q 40.140625 3.328125 35.546875 0.953125 
Q 30.953125 -1.421875 24.3125 -1.421875 
Q 15.921875 -1.421875 10.953125 3.296875 
Q 6 8.015625 6 15.921875 
Q 6 25.140625 12.171875 29.828125 
Q 18.359375 34.515625 30.609375 34.515625 
L 43.21875 34.515625 
L 43.21875 35.40625 
Q 43.21875 41.609375 39.140625 45 
Q 35.0625 48.390625 27.6875 48.390625 
Q 23 48.390625 18.546875 47.265625 
Q 14.109375 46.140625 10.015625 43.890625 
L 10.015625 52.203125 
Q 14.9375 54.109375 19.578125 55.046875 
Q 24.21875 56 28.609375 56 
Q 40.484375 56 46.34375 49.84375 
Q 52.203125 43.703125 52.203125 31.203125 
z
" id="DejaVuSans-61"/>
     <path d="M 9.421875 75.984375 
L 18.40625 75.984375 
L 18.40625 0 
L 9.421875 0 
z
" id="DejaVuSans-6c"/>
    </defs>
    <g transform="translate(173.451563 28.56)scale(0.12 -0.12)">
     <use xlink:href="#DejaVuSans-56"/>
     <use x="68.376953" xlink:href="#DejaVuSans-69"/>
     <use x="96.160156" xlink:href="#DejaVuSans-73"/>
     <use x="148.259766" xlink:href="#DejaVuSans-63"/>
     <use x="203.240234" xlink:href="#DejaVuSans-6f"/>
     <use x="264.421875" xlink:href="#DejaVuSans-75"/>
     <use x="327.800781" xlink:href="#DejaVuSans-73"/>
     <use x="379.900391" xlink:href="#DejaVuSans-20"/>
     <use x="411.6875" xlink:href="#DejaVuSans-66"/>
     <use x="446.892578" xlink:href="#DejaVuSans-72"/>
     <use x="487.974609" xlink:href="#DejaVuSans-65"/>
     <use x="549.498047" xlink:href="#DejaVuSans-65"/>
     <use x="611.021484" xlink:href="#DejaVuSans-2d"/>
     <use x="647.105469" xlink:href="#DejaVuSans-66"/>
     <use x="682.310547" xlink:href="#DejaVuSans-61"/>
     <use x="743.589844" xlink:href="#DejaVuSans-6c"/>
     <use x="771.373047" xlink:href="#DejaVuSans-6c"/>
    </g>
   </g>
  </g>
 </g>
 <defs>
  <clipPath id="p080c260de7">
   <rect height="217.44" width="334.8" x="54" y="34.56"/>
  </clipPath>
 </defs>
</svg>
