<?xml version="1.0" encoding="utf-8" standalone="no"?>
<!DOCTYPE svg PUBLIC "-//W3C//DTD SVG 1.1//EN"
  "http://www.w3.org/Graphics/SVG/1.1/DTD/svg11.dtd">
<!-- Created with matplotlib (http://matplotlib.org/) -->
<svg height="288pt" version="1.1" viewBox="0 0 432 288" width="432pt" xmlns="http://www.w3.org/2000/svg" xmlns:xlink="http://www.w3.org/1999/xlink">
 <defs>
  <style type="text/css">
*{stroke-linecap:butt;stroke-linejoin:round;}
  </style>
 </defs>
 <g id="figure_1">
  <g id="patch_1">
   <path d="M 0 288 
L 432 288 
L 432 0 
L 0 0 
z
" style="fill:#ffffff;"/>
  </g>
  <g id="axes_1">
   <g id="patch_2">
    <path d="M 54 252 
L 388.8 252 
L 388.8 34.56 
L 54 34.56 
z
" style="fill:#ffffff;"/>
   </g>
   <g id="matplotlib.axis_1">
    <g id="xtick_1">
     <g id="line2d_1">
      <path clip-path="url(#p81dd64d0dc)" d="M 69.218182 252 
L 69.218182 34.56 
" style="fill:none;stroke:#b0b0b0;stroke-linecap:square;stroke-width:0.8;"/>
     </g>
     <g id="line2d_2">
      <defs>
       <path d="M 0 0 
L 0 3.5 
" id="m359f13ff0d" style="stroke:#000000;stroke-width:0.8;"/>
      </defs>
      <g>
       <use style="stroke:#000000;stroke-width:0.8;" x="69.218182" xlink:href="#m359f13ff0d" y="252"/>
      </g>
     </g>
     <g id="text_1">
      <!-- −1.00 -->
      <defs>
       <path d="M 10.59375 35.5 
L 73.1875 35.5 
L 73.1875 27.203125 
L 10.59375 27.203125 
z
" id="DejaVuSans-2212"/>
       <path d="M 12.40625 8.296875 
L 28.515625 8.296875 
L 28.515625 63.921875 
L 10.984375 60.40625 
L 10.984375 69.390625 
L 28.421875 72.90625 
L 38.28125 72.90625 
L 38.28125 8.296875 
L 54.390625 8.296875 
L 54.390625 0 
L 12.40625 0 
z
" id="DejaVuSans-31"/>
       <path d="M 10.6875 12.40625 
L 21 12.40625 
L 21 0 
L 10.6875 0 
z
" id="DejaVuSans-2e"/>
       <path d="M 31.78125 66.40625 
Q 24.171875 66.40625 20.328125 58.90625 
Q 16.5 51.421875 16.5 36.375 
Q 16.5 21.390625 20.328125 13.890625 
Q 24.171875 6.390625 31.78125 6.390625 
Q 39.453125 6.390625 43.28125 13.890625 
Q 47.125 21.390625 47.125 36.375 
Q 47.125 51.421875 43.28125 58.90625 
Q 39.453125 66.40625 31.78125 66.40625 
z
M 31.78125 74.21875 
Q 44.046875 74.21875 50.515625 64.515625 
Q 56.984375 54.828125 56.984375 36.375 
Q 56.984375 17.96875 50.515625 8.265625 
Q 44.046875 -1.421875 31.78125 -1.421875 
Q 19.53125 -1.421875 13.0625 8.265625 
Q 6.59375 17.96875 6.59375 36.375 
Q 6.59375 54.828125 13.0625 64.515625 
Q 19.53125 74.21875 31.78125 74.21875 
z
" id="DejaVuSans-30"/>
      </defs>
      <g transform="translate(53.895526 266.598437)scale(0.1 -0.1)">
       <use xlink:href="#DejaVuSans-2212"/>
       <use x="83.789062" xlink:href="#DejaVuSans-31"/>
       <use x="147.412109" xlink:href="#DejaVuSans-2e"/>
       <use x="179.199219" xlink:href="#DejaVuSans-30"/>
       <use x="242.822266" xlink:href="#DejaVuSans-30"/>
      </g>
     </g>
    </g>
    <g id="xtick_2">
     <g id="line2d_3">
      <path clip-path="url(#p81dd64d0dc)" d="M 107.263636 252 
L 107.263636 34.56 
" style="fill:none;stroke:#b0b0b0;stroke-linecap:square;stroke-width:0.8;"/>
     </g>
     <g id="line2d_4">
      <g>
       <use style="stroke:#000000;stroke-width:0.8;" x="107.263636" xlink:href="#m359f13ff0d" y="252"/>
      </g>
     </g>
     <g id="text_2">
      <!-- −0.75 -->
      <defs>
       <path d="M 8.203125 72.90625 
L 55.078125 72.90625 
L 55.078125 68.703125 
L 28.609375 0 
L 18.3125 0 
L 43.21875 64.59375 
L 8.203125 64.59375 
z
" id="DejaVuSans-37"/>
       <path d="M 10.796875 72.90625 
L 49.515625 72.90625 
L 49.515625 64.59375 
L 19.828125 64.59375 
L 19.828125 46.734375 
Q 21.96875 47.46875 24.109375 47.828125 
Q 26.265625 48.1875 28.421875 48.1875 
Q 40.625 48.1875 47.75 41.5 
Q 54.890625 34.8125 54.890625 23.390625 
Q 54.890625 11.625 47.5625 5.09375 
Q 40.234375 -1.421875 26.90625 -1.421875 
Q 22.3125 -1.421875 17.546875 -0.640625 
Q 12.796875 0.140625 7.71875 1.703125 
L 7.71875 11.625 
Q 12.109375 9.234375 16.796875 8.0625 
Q 21.484375 6.890625 26.703125 6.890625 
Q 35.15625 6.890625 40.078125 11.328125 
Q 45.015625 15.765625 45.015625 23.390625 
Q 45.015625 31 40.078125 35.4375 
Q 35.15625 39.890625 26.703125 39.890625 
Q 22.75 39.890625 18.8125 39.015625 
Q 14.890625 38.140625 10.796875 36.28125 
z
" id="DejaVuSans-35"/>
      </defs>
      <g transform="translate(91.94098 266.598437)scale(0.1 -0.1)">
       <use xlink:href="#DejaVuSans-2212"/>
       <use x="83.789062" xlink:href="#DejaVuSans-30"/>
       <use x="147.412109" xlink:href="#DejaVuSans-2e"/>
       <use x="179.199219" xlink:href="#DejaVuSans-37"/>
       <use x="242.822266" xlink:href="#DejaVuSans-35"/>
      </g>
     </g>
    </g>
    <g id="xtick_3">
     <g id="line2d_5">
      <path clip-path="url(#p81dd64d0dc)" d="M 145.309091 252 
L 145.309091 34.56 
" style="fill:none;stroke:#b0b0b0;stroke-linecap:square;stroke-width:0.8;"/>
     </g>
     <g id="line2d_6">
      <g>
       <use style="stroke:#000000;stroke-width:0.8;" x="145.309091" xlink:href="#m359f13ff0d" y="252"/>
      </g>
     </g>
     <g id="text_3">
      <!-- −0.50 -->
      <g transform="translate(129.986435 266.598437)scale(0.1 -0.1)">
       <use xlink:href="#DejaVuSans-2212"/>
       <use x="83.789062" xlink:href="#DejaVuSans-30"/>
       <use x="147.412109" xlink:href="#DejaVuSans-2e"/>
       <use x="179.199219" xlink:href="#DejaVuSans-35"/>
       <use x="242.822266" xlink:href="#DejaVuSans-30"/>
      </g>
     </g>
    </g>
    <g id="xtick_4">
     <g id="line2d_7">
      <path clip-path="url(#p81dd64d0dc)" d="M 183.354545 252 
L 183.354545 34.56 
" style="fill:none;stroke:#b0b0b0;stroke-linecap:square;stroke-width:0.8;"/>
     </g>
     <g id="line2d_8">
      <g>
       <use style="stroke:#000000;stroke-width:0.8;" x="183.354545" xlink:href="#m359f13ff0d" y="252"/>
      </g>
     </g>
     <g id="text_4">
      <!-- −0.25 -->
      <defs>
       <path d="M 19.1875 8.296875 
L 53.609375 8.296875 
L 53.609375 0 
L 7.328125 0 
L 7.328125 8.296875 
Q 12.9375 14.109375 22.625 23.890625 
Q 32.328125 33.6875 34.8125 36.53125 
Q 39.546875 41.84375 41.421875 45.53125 
Q 43.3125 49.21875 43.3125 52.78125 
Q 43.3125 58.59375 39.234375 62.25 
Q 35.15625 65.921875 28.609375 65.921875 
Q 23.96875 65.921875 18.8125 64.3125 
Q 13.671875 62.703125 7.8125 59.421875 
L 7.8125 69.390625 
Q 13.765625 71.78125 18.9375 73 
Q 24.125 74.21875 28.421875 74.21875 
Q 39.75 74.21875 46.484375 68.546875 
Q 53.21875 62.890625 53.21875 53.421875 
Q 53.21875 48.921875 51.53125 44.890625 
Q 49.859375 40.875 45.40625 35.40625 
Q 44.1875 33.984375 37.640625 27.21875 
Q 31.109375 20.453125 19.1875 8.296875 
z
" id="DejaVuSans-32"/>
      </defs>
      <g transform="translate(168.031889 266.598437)scale(0.1 -0.1)">
       <use xlink:href="#DejaVuSans-2212"/>
       <use x="83.789062" xlink:href="#DejaVuSans-30"/>
       <use x="147.412109" xlink:href="#DejaVuSans-2e"/>
       <use x="179.199219" xlink:href="#DejaVuSans-32"/>
       <use x="242.822266" xlink:href="#DejaVuSans-35"/>
      </g>
     </g>
    </g>
    <g id="xtick_5">
     <g id="line2d_9">
      <path clip-path="url(#p81dd64d0dc)" d="M 221.4 252 
L 221.4 34.56 
" style="fill:none;stroke:#b0b0b0;stroke-linecap:square;stroke-width:0.8;"/>
     </g>
     <g id="line2d_10">
      <g>
       <use style="stroke:#000000;stroke-width:0.8;" x="221.4" xlink:href="#m359f13ff0d" y="252"/>
      </g>
     </g>
     <g id="text_5">
      <!-- 0.00 -->
      <g transform="translate(210.267188 266.598437)scale(0.1 -0.1)">
       <use xlink:href="#DejaVuSans-30"/>
       <use x="63.623047" xlink:href="#DejaVuSans-2e"/>
       <use x="95.410156" xlink:href="#DejaVuSans-30"/>
       <use x="159.033203" xlink:href="#DejaVuSans-30"/>
      </g>
     </g>
    </g>
    <g id="xtick_6">
     <g id="line2d_11">
      <path clip-path="url(#p81dd64d0dc)" d="M 259.445455 252 
L 259.445455 34.56 
" style="fill:none;stroke:#b0b0b0;stroke-linecap:square;stroke-width:0.8;"/>
     </g>
     <g id="line2d_12">
      <g>
       <use style="stroke:#000000;stroke-width:0.8;" x="259.445455" xlink:href="#m359f13ff0d" y="252"/>
      </g>
     </g>
     <g id="text_6">
      <!-- 0.25 -->
      <g transform="translate(248.312642 266.598437)scale(0.1 -0.1)">
       <use xlink:href="#DejaVuSans-30"/>
       <use x="63.623047" xlink:href="#DejaVuSans-2e"/>
       <use x="95.410156" xlink:href="#DejaVuSans-32"/>
       <use x="159.033203" xlink:href="#DejaVuSans-35"/>
      </g>
     </g>
    </g>
    <g id="xtick_7">
     <g id="line2d_13">
      <path clip-path="url(#p81dd64d0dc)" d="M 297.490909 252 
L 297.490909 34.56 
" style="fill:none;stroke:#b0b0b0;stroke-linecap:square;stroke-width:0.8;"/>
     </g>
     <g id="line2d_14">
      <g>
       <use style="stroke:#000000;stroke-width:0.8;" x="297.490909" xlink:href="#m359f13ff0d" y="252"/>
      </g>
     </g>
     <g id="text_7">
      <!-- 0.50 -->
      <g transform="translate(286.358097 266.598437)scale(0.1 -0.1)">
       <use xlink:href="#DejaVuSans-30"/>
       <use x="63.623047" xlink:href="#DejaVuSans-2e"/>
       <use x="95.410156" xlink:href="#DejaVuSans-35"/>
       <use x="159.033203" xlink:href="#DejaVuSans-30"/>
      </g>
     </g>
    </g>
    <g id="xtick_8">
     <g id="line2d_15">
      <path clip-path="url(#p81dd64d0dc)" d="M 335.536364 252 
L 335.536364 34.56 
" style="fill:none;stroke:#b0b0b0;stroke-linecap:square;stroke-width:0.8;"/>
     </g>
     <g id="line2d_16">
      <g>
       <use style="stroke:#000000;stroke-width:0.8;" x="335.536364" xlink:href="#m359f13ff0d" y="252"/>
      </g>
     </g>
     <g id="text_8">
      <!-- 0.75 -->
      <g transform="translate(324.403551 266.598437)scale(0.1 -0.1)">
       <use xlink:href="#DejaVuSans-30"/>
       <use x="63.623047" xlink:href="#DejaVuSans-2e"/>
       <use x="95.410156" xlink:href="#DejaVuSans-37"/>
       <use x="159.033203" xlink:href="#DejaVuSans-35"/>
      </g>
     </g>
    </g>
    <g id="xtick_9">
     <g id="line2d_17">
      <path clip-path="url(#p81dd64d0dc)" d="M 373.581818 252 
L 373.581818 34.56 
" style="fill:none;stroke:#b0b0b0;stroke-linecap:square;stroke-width:0.8;"/>
     </g>
     <g id="line2d_18">
      <g>
       <use style="stroke:#000000;stroke-width:0.8;" x="373.581818" xlink:href="#m359f13ff0d" y="252"/>
      </g>
     </g>
     <g id="text_9">
      <!-- 1.00 -->
      <g transform="translate(362.449006 266.598437)scale(0.1 -0.1)">
       <use xlink:href="#DejaVuSans-31"/>
       <use x="63.623047" xlink:href="#DejaVuSans-2e"/>
       <use x="95.410156" xlink:href="#DejaVuSans-30"/>
       <use x="159.033203" xlink:href="#DejaVuSans-30"/>
      </g>
     </g>
    </g>
    <g id="text_10">
     <!-- $x$ -->
     <defs>
      <path d="M 60.015625 54.6875 
L 34.90625 27.875 
L 50.296875 0 
L 39.984375 0 
L 28.421875 21.6875 
L 8.296875 0 
L -2.59375 0 
L 24.3125 28.8125 
L 10.015625 54.6875 
L 20.3125 54.6875 
L 30.8125 34.90625 
L 49.125 54.6875 
z
" id="DejaVuSans-Oblique-78"/>
     </defs>
     <g transform="translate(218.4 280.276563)scale(0.1 -0.1)">
      <use transform="translate(0 0.3125)" xlink:href="#DejaVuSans-Oblique-78"/>
     </g>
    </g>
   </g>
   <g id="matplotlib.axis_2">
    <g id="ytick_1">
     <g id="line2d_19">
      <path clip-path="url(#p81dd64d0dc)" d="M 54 246.81081 
L 388.8 246.81081 
" style="fill:none;stroke:#b0b0b0;stroke-linecap:square;stroke-width:0.8;"/>
     </g>
     <g id="line2d_20">
      <defs>
       <path d="M 0 0 
L -3.5 0 
" id="m02d03f6ace" style="stroke:#000000;stroke-width:0.8;"/>
      </defs>
      <g>
       <use style="stroke:#000000;stroke-width:0.8;" x="54" xlink:href="#m02d03f6ace" y="246.81081"/>
      </g>
     </g>
     <g id="text_11">
      <!-- −0.06 -->
      <defs>
       <path d="M 33.015625 40.375 
Q 26.375 40.375 22.484375 35.828125 
Q 18.609375 31.296875 18.609375 23.390625 
Q 18.609375 15.53125 22.484375 10.953125 
Q 26.375 6.390625 33.015625 6.390625 
Q 39.65625 6.390625 43.53125 10.953125 
Q 47.40625 15.53125 47.40625 23.390625 
Q 47.40625 31.296875 43.53125 35.828125 
Q 39.65625 40.375 33.015625 40.375 
z
M 52.59375 71.296875 
L 52.59375 62.3125 
Q 48.875 64.0625 45.09375 64.984375 
Q 41.3125 65.921875 37.59375 65.921875 
Q 27.828125 65.921875 22.671875 59.328125 
Q 17.53125 52.734375 16.796875 39.40625 
Q 19.671875 43.65625 24.015625 45.921875 
Q 28.375 48.1875 33.59375 48.1875 
Q 44.578125 48.1875 50.953125 41.515625 
Q 57.328125 34.859375 57.328125 23.390625 
Q 57.328125 12.15625 50.6875 5.359375 
Q 44.046875 -1.421875 33.015625 -1.421875 
Q 20.359375 -1.421875 13.671875 8.265625 
Q 6.984375 17.96875 6.984375 36.375 
Q 6.984375 53.65625 15.1875 63.9375 
Q 23.390625 74.21875 37.203125 74.21875 
Q 40.921875 74.21875 44.703125 73.484375 
Q 48.484375 72.75 52.59375 71.296875 
z
" id="DejaVuSans-36"/>
      </defs>
      <g transform="translate(16.354687 250.610029)scale(0.1 -0.1)">
       <use xlink:href="#DejaVuSans-2212"/>
       <use x="83.789062" xlink:href="#DejaVuSans-30"/>
       <use x="147.412109" xlink:href="#DejaVuSans-2e"/>
       <use x="179.199219" xlink:href="#DejaVuSans-30"/>
       <use x="242.822266" xlink:href="#DejaVuSans-36"/>
      </g>
     </g>
    </g>
    <g id="ytick_2">
     <g id="line2d_21">
      <path clip-path="url(#p81dd64d0dc)" d="M 54 214.689509 
L 388.8 214.689509 
" style="fill:none;stroke:#b0b0b0;stroke-linecap:square;stroke-width:0.8;"/>
     </g>
     <g id="line2d_22">
      <g>
       <use style="stroke:#000000;stroke-width:0.8;" x="54" xlink:href="#m02d03f6ace" y="214.689509"/>
      </g>
     </g>
     <g id="text_12">
      <!-- −0.04 -->
      <defs>
       <path d="M 37.796875 64.3125 
L 12.890625 25.390625 
L 37.796875 25.390625 
z
M 35.203125 72.90625 
L 47.609375 72.90625 
L 47.609375 25.390625 
L 58.015625 25.390625 
L 58.015625 17.1875 
L 47.609375 17.1875 
L 47.609375 0 
L 37.796875 0 
L 37.796875 17.1875 
L 4.890625 17.1875 
L 4.890625 26.703125 
z
" id="DejaVuSans-34"/>
      </defs>
      <g transform="translate(16.354687 218.488728)scale(0.1 -0.1)">
       <use xlink:href="#DejaVuSans-2212"/>
       <use x="83.789062" xlink:href="#DejaVuSans-30"/>
       <use x="147.412109" xlink:href="#DejaVuSans-2e"/>
       <use x="179.199219" xlink:href="#DejaVuSans-30"/>
       <use x="242.822266" xlink:href="#DejaVuSans-34"/>
      </g>
     </g>
    </g>
    <g id="ytick_3">
     <g id="line2d_23">
      <path clip-path="url(#p81dd64d0dc)" d="M 54 182.568209 
L 388.8 182.568209 
" style="fill:none;stroke:#b0b0b0;stroke-linecap:square;stroke-width:0.8;"/>
     </g>
     <g id="line2d_24">
      <g>
       <use style="stroke:#000000;stroke-width:0.8;" x="54" xlink:href="#m02d03f6ace" y="182.568209"/>
      </g>
     </g>
     <g id="text_13">
      <!-- −0.02 -->
      <g transform="translate(16.354687 186.367428)scale(0.1 -0.1)">
       <use xlink:href="#DejaVuSans-2212"/>
       <use x="83.789062" xlink:href="#DejaVuSans-30"/>
       <use x="147.412109" xlink:href="#DejaVuSans-2e"/>
       <use x="179.199219" xlink:href="#DejaVuSans-30"/>
       <use x="242.822266" xlink:href="#DejaVuSans-32"/>
      </g>
     </g>
    </g>
    <g id="ytick_4">
     <g id="line2d_25">
      <path clip-path="url(#p81dd64d0dc)" d="M 54 150.446908 
L 388.8 150.446908 
" style="fill:none;stroke:#b0b0b0;stroke-linecap:square;stroke-width:0.8;"/>
     </g>
     <g id="line2d_26">
      <g>
       <use style="stroke:#000000;stroke-width:0.8;" x="54" xlink:href="#m02d03f6ace" y="150.446908"/>
      </g>
     </g>
     <g id="text_14">
      <!-- 0.00 -->
      <g transform="translate(24.734375 154.246127)scale(0.1 -0.1)">
       <use xlink:href="#DejaVuSans-30"/>
       <use x="63.623047" xlink:href="#DejaVuSans-2e"/>
       <use x="95.410156" xlink:href="#DejaVuSans-30"/>
       <use x="159.033203" xlink:href="#DejaVuSans-30"/>
      </g>
     </g>
    </g>
    <g id="ytick_5">
     <g id="line2d_27">
      <path clip-path="url(#p81dd64d0dc)" d="M 54 118.325608 
L 388.8 118.325608 
" style="fill:none;stroke:#b0b0b0;stroke-linecap:square;stroke-width:0.8;"/>
     </g>
     <g id="line2d_28">
      <g>
       <use style="stroke:#000000;stroke-width:0.8;" x="54" xlink:href="#m02d03f6ace" y="118.325608"/>
      </g>
     </g>
     <g id="text_15">
      <!-- 0.02 -->
      <g transform="translate(24.734375 122.124827)scale(0.1 -0.1)">
       <use xlink:href="#DejaVuSans-30"/>
       <use x="63.623047" xlink:href="#DejaVuSans-2e"/>
       <use x="95.410156" xlink:href="#DejaVuSans-30"/>
       <use x="159.033203" xlink:href="#DejaVuSans-32"/>
      </g>
     </g>
    </g>
    <g id="ytick_6">
     <g id="line2d_29">
      <path clip-path="url(#p81dd64d0dc)" d="M 54 86.204308 
L 388.8 86.204308 
" style="fill:none;stroke:#b0b0b0;stroke-linecap:square;stroke-width:0.8;"/>
     </g>
     <g id="line2d_30">
      <g>
       <use style="stroke:#000000;stroke-width:0.8;" x="54" xlink:href="#m02d03f6ace" y="86.204308"/>
      </g>
     </g>
     <g id="text_16">
      <!-- 0.04 -->
      <g transform="translate(24.734375 90.003526)scale(0.1 -0.1)">
       <use xlink:href="#DejaVuSans-30"/>
       <use x="63.623047" xlink:href="#DejaVuSans-2e"/>
       <use x="95.410156" xlink:href="#DejaVuSans-30"/>
       <use x="159.033203" xlink:href="#DejaVuSans-34"/>
      </g>
     </g>
    </g>
    <g id="ytick_7">
     <g id="line2d_31">
      <path clip-path="url(#p81dd64d0dc)" d="M 54 54.083007 
L 388.8 54.083007 
" style="fill:none;stroke:#b0b0b0;stroke-linecap:square;stroke-width:0.8;"/>
     </g>
     <g id="line2d_32">
      <g>
       <use style="stroke:#000000;stroke-width:0.8;" x="54" xlink:href="#m02d03f6ace" y="54.083007"/>
      </g>
     </g>
     <g id="text_17">
      <!-- 0.06 -->
      <g transform="translate(24.734375 57.882226)scale(0.1 -0.1)">
       <use xlink:href="#DejaVuSans-30"/>
       <use x="63.623047" xlink:href="#DejaVuSans-2e"/>
       <use x="95.410156" xlink:href="#DejaVuSans-30"/>
       <use x="159.033203" xlink:href="#DejaVuSans-36"/>
      </g>
     </g>
    </g>
    <g id="text_18">
     <!-- $\sqrt{\lambda_i}\phi_i$ -->
     <defs>
      <path d="M 108.90625 155.203125 
L 52.703125 -29.5 
L 48.5 -29.5 
L 25.40625 45.59375 
Q 24.296875 49.203125 22.890625 50.796875 
Q 21.5 52.40625 19.203125 52.40625 
Q 15.796875 52.40625 12.40625 49.703125 
L 11.203125 51.703125 
L 27.59375 64.296875 
L 30.09375 64.296875 
L 52.796875 -9.40625 
L 53.203125 -9.40625 
L 103.203125 155.203125 
z
" id="STIXSizeOneSym-Regular-221a"/>
      <path d="M 36.71875 67.4375 
L 48.828125 0 
L 39.3125 0 
L 31.84375 40.4375 
L 5.125 0 
L -4.390625 0 
L 29.734375 52.4375 
L 28.03125 62.109375 
Q 26.953125 68.265625 21.734375 68.265625 
L 17.046875 68.265625 
L 18.5 75.984375 
L 24.21875 75.875 
Q 35.203125 75.734375 36.71875 67.4375 
z
" id="DejaVuSans-Oblique-3bb"/>
      <path d="M 18.3125 75.984375 
L 27.296875 75.984375 
L 25.09375 64.59375 
L 16.109375 64.59375 
z
M 14.203125 54.6875 
L 23.1875 54.6875 
L 12.5 0 
L 3.515625 0 
z
" id="DejaVuSans-Oblique-69"/>
      <path d="M 46.734375 75.984375 
L 42.78125 55.8125 
Q 52.546875 55.8125 57.5625 48.34375 
Q 62.75 40.71875 60.15625 27.296875 
Q 57.515625 13.875 49.359375 6.25 
Q 41.453125 -1.21875 31.6875 -1.21875 
L 27.875 -20.796875 
L 18.953125 -20.796875 
L 22.75 -1.21875 
Q 13.03125 -1.21875 7.953125 6.25 
Q 2.78125 13.875 5.421875 27.296875 
Q 8.015625 40.71875 16.15625 48.34375 
Q 24.125 55.8125 33.84375 55.8125 
L 37.796875 75.984375 
z
M 33.25 6.78125 
Q 38.765625 6.78125 43.5 11.8125 
Q 48.6875 17.4375 50.6875 27.296875 
Q 52.640625 37.0625 49.515625 42.78125 
Q 46.734375 47.796875 41.21875 47.796875 
z
M 24.3125 6.78125 
L 32.28125 47.796875 
Q 26.8125 47.796875 22.078125 42.78125 
Q 16.75 37.0625 14.890625 27.296875 
Q 13.03125 17.4375 16.0625 11.8125 
Q 18.796875 6.78125 24.3125 6.78125 
z
" id="DejaVuSans-Oblique-3d5"/>
     </defs>
     <g transform="translate(10.254687 156.58)rotate(-90)scale(0.1 -0.1)">
      <use transform="translate(0 4.015625)scale(0.669402)" xlink:href="#STIXSizeOneSym-Regular-221a"/>
      <use transform="translate(83.319 0.765625)" xlink:href="#DejaVuSans-Oblique-3bb"/>
      <use transform="translate(142.498688 -15.640625)scale(0.7)" xlink:href="#DejaVuSans-Oblique-69"/>
      <use transform="translate(177.181305 0.65625)" xlink:href="#DejaVuSans-Oblique-3d5"/>
      <use transform="translate(243.148102 -15.75)scale(0.7)" xlink:href="#DejaVuSans-Oblique-69"/>
      <path d="M 70.819 101.5 
L 70.819 107.75 
L 177.181305 107.75 
L 177.181305 101.5 
L 70.819 101.5 
z
"/>
     </g>
    </g>
   </g>
   <g id="line2d_33">
    <path clip-path="url(#p81dd64d0dc)" d="M 69.218182 122.124737 
L 72.292562 109.550172 
L 75.366942 99.440632 
L 78.441322 92.700639 
L 81.515702 88.380849 
L 84.590083 85.209125 
L 87.664463 82.495019 
L 90.738843 80.046318 
L 93.813223 77.814553 
L 96.887603 75.733355 
L 99.961983 73.754488 
L 103.036364 71.906713 
L 106.110744 70.253093 
L 109.185124 68.794957 
L 112.259504 67.456957 
L 115.333884 66.159873 
L 118.408264 64.854427 
L 121.482645 63.474048 
L 124.557025 61.912378 
L 127.631405 60.094945 
L 130.705785 58.062655 
L 133.780165 55.963604 
L 136.854545 53.980665 
L 139.928926 52.282691 
L 143.003306 51.010314 
L 146.077686 50.244109 
L 149.152066 49.942988 
L 152.226446 49.933134 
L 155.300826 50.005561 
L 158.375207 50.021622 
L 161.449587 49.909523 
L 164.523967 49.618278 
L 167.598347 49.151588 
L 170.672727 48.628478 
L 173.747107 48.220749 
L 176.821488 47.99775 
L 179.895868 47.868674 
L 182.970248 47.675791 
L 186.044628 47.311824 
L 189.119008 46.762979 
L 192.193388 46.087289 
L 195.267769 45.383256 
L 198.342149 44.783816 
L 201.416529 44.443636 
L 204.490909 44.45694 
L 207.565289 44.753066 
L 210.639669 45.127682 
L 213.71405 45.420762 
L 216.78843 45.623504 
L 219.86281 45.798384 
L 222.93719 45.971612 
L 226.01157 46.136343 
L 229.08595 46.298864 
L 232.160331 46.485302 
L 235.234711 46.720558 
L 238.309091 47.002347 
L 241.383471 47.291873 
L 244.457851 47.544165 
L 247.532231 47.758034 
L 250.606612 48.002409 
L 253.680992 48.397187 
L 256.755372 49.057596 
L 259.829752 50.036486 
L 262.904132 51.303909 
L 265.978512 52.784687 
L 269.052893 54.411259 
L 272.127273 56.104134 
L 275.201653 57.70867 
L 278.276033 59.046325 
L 281.350413 60.090741 
L 284.424793 61.031588 
L 287.499174 62.087255 
L 290.573554 63.290017 
L 293.647934 64.521775 
L 296.722314 65.714648 
L 299.796694 66.930156 
L 302.871074 68.262097 
L 305.945455 69.72937 
L 309.019835 71.260889 
L 312.094215 72.761375 
L 315.168595 74.200933 
L 318.242975 75.633516 
L 321.317355 77.115737 
L 324.391736 78.634114 
L 327.466116 80.132368 
L 330.540496 81.597064 
L 333.614876 83.102412 
L 336.689256 84.762088 
L 339.763636 86.643241 
L 342.838017 88.742837 
L 345.912397 91.027297 
L 348.986777 93.468146 
L 352.061157 96.0554 
L 355.135537 98.791318 
L 358.209917 101.678415 
L 361.284298 104.808898 
L 364.358678 108.615448 
L 367.433058 113.953412 
L 370.507438 121.46763 
L 373.581818 130.522017 
" style="fill:none;stroke:#ff0000;stroke-linecap:square;"/>
   </g>
   <g id="line2d_34">
    <path clip-path="url(#p81dd64d0dc)" d="M 69.218182 123.196021 
L 72.292562 111.176339 
L 75.366942 101.587618 
L 78.441322 95.314101 
L 81.515702 91.491949 
L 84.590083 88.929561 
L 87.664463 86.886044 
L 90.738843 85.00167 
L 93.813223 83.089048 
L 96.887603 81.10592 
L 99.961983 79.205545 
L 103.036364 77.680048 
L 106.110744 76.766494 
L 109.185124 76.488442 
L 112.259504 76.660466 
L 115.333884 76.988118 
L 118.408264 77.192698 
L 121.482645 77.152104 
L 124.557025 76.966285 
L 127.631405 76.852663 
L 130.705785 76.968005 
L 133.780165 77.345177 
L 136.854545 77.96894 
L 139.928926 78.846609 
L 143.003306 79.982703 
L 146.077686 81.314137 
L 149.152066 82.689325 
L 152.226446 83.910282 
L 155.300826 84.837721 
L 158.375207 85.530184 
L 161.449587 86.290715 
L 164.523967 87.519098 
L 167.598347 89.465782 
L 170.672727 92.087324 
L 173.747107 95.107942 
L 176.821488 98.22736 
L 179.895868 101.294857 
L 182.970248 104.320109 
L 186.044628 107.37936 
L 189.119008 110.546013 
L 192.193388 113.875494 
L 195.267769 117.394628 
L 198.342149 121.065757 
L 201.416529 124.766038 
L 204.490909 128.34974 
L 207.565289 131.767359 
L 210.639669 135.12068 
L 213.71405 138.591359 
L 216.78843 142.310225 
L 219.86281 146.292245 
L 222.93719 150.485949 
L 226.01157 154.839958 
L 229.08595 159.29264 
L 232.160331 163.755577 
L 235.234711 168.177059 
L 238.309091 172.598534 
L 241.383471 177.092424 
L 244.457851 181.648802 
L 247.532231 186.151719 
L 250.606612 190.459408 
L 253.680992 194.483391 
L 256.755372 198.191033 
L 259.829752 201.568583 
L 262.904132 204.622056 
L 265.978512 207.406693 
L 269.052893 210.010943 
L 272.127273 212.50036 
L 275.201653 214.899192 
L 278.276033 217.224975 
L 281.350413 219.516344 
L 284.424793 221.809784 
L 287.499174 224.093829 
L 290.573554 226.304109 
L 293.647934 228.359168 
L 296.722314 230.185046 
L 299.796694 231.731347 
L 302.871074 233.011164 
L 305.945455 234.128506 
L 309.019835 235.226362 
L 312.094215 236.379803 
L 315.168595 237.561851 
L 318.242975 238.728029 
L 321.317355 239.872134 
L 324.391736 240.94616 
L 327.466116 241.772966 
L 330.540496 242.116364 
L 333.614876 241.868878 
L 336.689256 241.162152 
L 339.763636 240.268849 
L 342.838017 239.388664 
L 345.912397 238.541827 
L 348.986777 237.645352 
L 352.061157 236.628168 
L 355.135537 235.440513 
L 358.209917 233.930874 
L 361.284298 231.584025 
L 364.358678 227.180729 
L 367.433058 218.88145 
L 370.507438 205.528921 
L 373.581818 188.602997 
" style="fill:none;stroke:#ff8000;stroke-linecap:square;"/>
   </g>
   <g id="line2d_35">
    <path clip-path="url(#p81dd64d0dc)" d="M 69.218182 117.101296 
L 72.292562 102.554661 
L 75.366942 91.318292 
L 78.441322 84.667245 
L 81.515702 81.599084 
L 84.590083 80.55619 
L 87.664463 80.519343 
L 90.738843 81.055161 
L 93.813223 82.015916 
L 96.887603 83.308303 
L 99.961983 84.814946 
L 103.036364 86.434833 
L 106.110744 88.151745 
L 109.185124 90.052356 
L 112.259504 92.261091 
L 115.333884 94.830442 
L 118.408264 97.691868 
L 121.482645 100.735387 
L 124.557025 103.936229 
L 127.631405 107.37669 
L 130.705785 111.144223 
L 133.780165 115.215909 
L 136.854545 119.417803 
L 139.928926 123.497972 
L 143.003306 127.300501 
L 146.077686 130.921127 
L 149.152066 134.686692 
L 152.226446 138.93329 
L 155.300826 143.750563 
L 158.375207 148.920777 
L 161.449587 154.110535 
L 164.523967 159.111306 
L 167.598347 163.895674 
L 170.672727 168.503164 
L 173.747107 172.931821 
L 176.821488 177.125132 
L 179.895868 181.029556 
L 182.970248 184.67118 
L 186.044628 188.187637 
L 189.119008 191.756431 
L 192.193388 195.446615 
L 195.267769 199.123229 
L 198.342149 202.502764 
L 201.416529 205.317308 
L 204.490909 207.461037 
L 207.565289 209.029483 
L 210.639669 210.245005 
L 213.71405 211.313402 
L 216.78843 212.290686 
L 219.86281 213.05191 
L 222.93719 213.382116 
L 226.01157 213.107408 
L 229.08595 212.175712 
L 232.160331 210.672282 
L 235.234711 208.800826 
L 238.309091 206.822143 
L 241.383471 204.920944 
L 244.457851 203.076796 
L 247.532231 201.09101 
L 250.606612 198.770695 
L 253.680992 196.075106 
L 256.755372 193.082878 
L 259.829752 189.869782 
L 262.904132 186.474125 
L 265.978512 182.959057 
L 269.052893 179.430674 
L 272.127273 175.967734 
L 275.201653 172.55612 
L 278.276033 169.079681 
L 281.350413 165.355748 
L 284.424793 161.217625 
L 287.499174 156.612248 
L 290.573554 151.642511 
L 293.647934 146.527201 
L 296.722314 141.502764 
L 299.796694 136.732377 
L 302.871074 132.282784 
L 305.945455 128.142288 
L 309.019835 124.237666 
L 312.094215 120.462597 
L 315.168595 116.710079 
L 318.242975 112.902585 
L 321.317355 109.054617 
L 324.391736 105.31966 
L 327.466116 101.911345 
L 330.540496 98.947608 
L 333.614876 96.395735 
L 336.689256 94.149027 
L 339.763636 92.10934 
L 342.838017 90.229148 
L 345.912397 88.543407 
L 348.986777 87.16294 
L 352.061157 86.221238 
L 355.135537 85.849966 
L 358.209917 86.228909 
L 361.284298 87.721933 
L 364.358678 91.109359 
L 367.433058 97.600593 
L 370.507438 107.95444 
L 373.581818 121.012802 
" style="fill:none;stroke:#ffff00;stroke-linecap:square;"/>
   </g>
   <g id="line2d_36">
    <path clip-path="url(#p81dd64d0dc)" d="M 69.218182 128.763911 
L 72.292562 119.281545 
L 75.366942 111.948692 
L 78.441322 107.608813 
L 81.515702 105.613272 
L 84.590083 104.938275 
L 87.664463 104.913725 
L 90.738843 105.282976 
L 93.813223 106.042022 
L 96.887603 107.295954 
L 99.961983 109.129419 
L 103.036364 111.511259 
L 106.110744 114.316102 
L 109.185124 117.45362 
L 112.259504 120.96525 
L 115.333884 124.982809 
L 118.408264 129.58762 
L 121.482645 134.707485 
L 124.557025 140.155458 
L 127.631405 145.756193 
L 130.705785 151.396203 
L 133.780165 156.95093 
L 136.854545 162.242554 
L 139.928926 167.139511 
L 143.003306 171.669724 
L 146.077686 175.967793 
L 149.152066 180.102365 
L 152.226446 183.997596 
L 155.300826 187.522608 
L 158.375207 190.60238 
L 161.449587 193.226497 
L 164.523967 195.390166 
L 167.598347 197.040425 
L 170.672727 198.067157 
L 173.747107 198.377396 
L 176.821488 198.014593 
L 179.895868 197.160463 
L 182.970248 195.96249 
L 186.044628 194.401897 
L 189.119008 192.395578 
L 192.193388 189.982383 
L 195.267769 187.316828 
L 198.342149 184.490553 
L 201.416529 181.450862 
L 204.490909 178.10543 
L 207.565289 174.42572 
L 210.639669 170.434277 
L 213.71405 166.168926 
L 216.78843 161.692875 
L 219.86281 157.106842 
L 222.93719 152.518794 
L 226.01157 147.9747 
L 229.08595 143.416384 
L 232.160331 138.744887 
L 235.234711 133.946331 
L 238.309091 129.141164 
L 241.383471 124.501834 
L 244.457851 120.137022 
L 247.532231 116.071611 
L 250.606612 112.330498 
L 253.680992 109.014341 
L 256.755372 106.266045 
L 259.829752 104.167108 
L 262.904132 102.711719 
L 265.978512 101.882161 
L 269.052893 101.68259 
L 272.127273 102.086952 
L 275.201653 103.009446 
L 278.276033 104.350487 
L 281.350413 106.068168 
L 284.424793 108.213719 
L 287.499174 110.884041 
L 290.573554 114.110123 
L 293.647934 117.810386 
L 296.722314 121.884213 
L 299.796694 126.321181 
L 302.871074 131.169798 
L 305.945455 136.400252 
L 309.019835 141.830382 
L 312.094215 147.197165 
L 315.168595 152.295983 
L 318.242975 157.076474 
L 321.317355 161.647541 
L 324.391736 166.191681 
L 327.466116 170.829354 
L 330.540496 175.522579 
L 333.614876 180.098892 
L 336.689256 184.385231 
L 339.763636 188.331421 
L 342.838017 191.989034 
L 345.912397 195.366814 
L 348.986777 198.347118 
L 352.061157 200.75254 
L 355.135537 202.429576 
L 358.209917 203.219929 
L 361.284298 202.824866 
L 364.358678 200.601261 
L 367.433058 195.541272 
L 370.507438 186.996422 
L 373.581818 175.943091 
" style="fill:none;stroke:#80ff00;stroke-linecap:square;"/>
   </g>
   <g id="line2d_37">
    <path clip-path="url(#p81dd64d0dc)" d="M 69.218182 130.282032 
L 72.292562 121.513355 
L 75.366942 114.982086 
L 78.441322 111.62062 
L 81.515702 110.84522 
L 84.590083 111.630142 
L 87.664463 113.299657 
L 90.738843 115.62245 
L 93.813223 118.599664 
L 96.887603 122.255603 
L 99.961983 126.526997 
L 103.036364 131.279277 
L 106.110744 136.385864 
L 109.185124 141.754087 
L 112.259504 147.285971 
L 115.333884 152.866431 
L 118.408264 158.402737 
L 121.482645 163.815353 
L 124.557025 168.961835 
L 127.631405 173.650858 
L 130.705785 177.787237 
L 133.780165 181.43023 
L 136.854545 184.649024 
L 139.928926 187.381868 
L 143.003306 189.479023 
L 146.077686 190.801822 
L 149.152066 191.226742 
L 152.226446 190.647533 
L 155.300826 189.065888 
L 158.375207 186.641328 
L 161.449587 183.593176 
L 164.523967 180.070162 
L 167.598347 176.129855 
L 170.672727 171.798694 
L 173.747107 167.116593 
L 176.821488 162.146527 
L 179.895868 156.969254 
L 182.970248 151.68369 
L 186.044628 146.431816 
L 189.119008 141.41011 
L 192.193388 136.813086 
L 195.267769 132.748156 
L 198.342149 129.20381 
L 201.416529 126.079163 
L 204.490909 123.242027 
L 207.565289 120.6131 
L 210.639669 118.238907 
L 213.71405 116.25694 
L 216.78843 114.757623 
L 219.86281 113.708826 
L 222.93719 113.06352 
L 226.01157 112.924031 
L 229.08595 113.524807 
L 232.160331 115.039687 
L 235.234711 117.454249 
L 238.309091 120.614786 
L 241.383471 124.355224 
L 244.457851 128.577842 
L 247.532231 133.22934 
L 250.606612 138.221535 
L 253.680992 143.413758 
L 256.755372 148.675329 
L 259.829752 153.933564 
L 262.904132 159.150794 
L 265.978512 164.25291 
L 269.052893 169.075593 
L 272.127273 173.406074 
L 275.201653 177.099313 
L 278.276033 180.125737 
L 281.350413 182.488843 
L 284.424793 184.129056 
L 287.499174 184.94031 
L 290.573554 184.896516 
L 293.647934 184.148084 
L 296.722314 182.933162 
L 299.796694 181.375989 
L 302.871074 179.442134 
L 305.945455 177.112867 
L 309.019835 174.511828 
L 312.094215 171.794944 
L 315.168595 168.962233 
L 318.242975 165.842036 
L 321.317355 162.262374 
L 324.391736 158.223139 
L 327.466116 153.914301 
L 330.540496 149.585088 
L 333.614876 145.399838 
L 336.689256 141.397944 
L 339.763636 137.542271 
L 342.838017 133.791438 
L 345.912397 130.16801 
L 348.986777 126.786012 
L 352.061157 123.80888 
L 355.135537 121.373047 
L 358.209917 119.558197 
L 361.284298 118.490068 
L 364.358678 118.59189 
L 367.433058 120.711349 
L 370.507438 125.571302 
L 373.581818 132.672561 
" style="fill:none;stroke:#00ff00;stroke-linecap:square;"/>
   </g>
   <g id="line2d_38">
    <path clip-path="url(#p81dd64d0dc)" d="M 69.218182 136.257059 
L 72.292562 130.275489 
L 75.366942 125.933919 
L 78.441322 123.863995 
L 81.515702 123.735199 
L 84.590083 124.958037 
L 87.664463 127.094686 
L 90.738843 129.867692 
L 93.813223 133.131357 
L 96.887603 136.882111 
L 99.961983 141.166239 
L 103.036364 145.931435 
L 106.110744 150.993208 
L 109.185124 156.116176 
L 112.259504 161.091181 
L 115.333884 165.752938 
L 118.408264 169.953122 
L 121.482645 173.542284 
L 124.557025 176.408787 
L 127.631405 178.536806 
L 130.705785 179.988184 
L 133.780165 180.797928 
L 136.854545 180.897358 
L 139.928926 180.154358 
L 143.003306 178.474687 
L 146.077686 175.848002 
L 149.152066 172.322233 
L 152.226446 167.984594 
L 155.300826 162.967297 
L 158.375207 157.431519 
L 161.449587 151.559748 
L 164.523967 145.603633 
L 167.598347 139.901852 
L 170.672727 134.776653 
L 173.747107 130.402167 
L 176.821488 126.797435 
L 179.895868 123.937657 
L 182.970248 121.843058 
L 186.044628 120.554193 
L 189.119008 120.057091 
L 192.193388 120.274561 
L 195.267769 121.134369 
L 198.342149 122.637332 
L 201.416529 124.864678 
L 204.490909 127.917703 
L 207.565289 131.818704 
L 210.639669 136.419158 
L 213.71405 141.39212 
L 216.78843 146.365503 
L 219.86281 151.11742 
L 222.93719 155.664475 
L 226.01157 160.165755 
L 229.08595 164.72551 
L 232.160331 169.243882 
L 235.234711 173.41373 
L 238.309091 176.861524 
L 241.383471 179.339001 
L 244.457851 180.837651 
L 247.532231 181.549847 
L 250.606612 181.69951 
L 253.680992 181.350497 
L 256.755372 180.337242 
L 259.829752 178.393596 
L 262.904132 175.372042 
L 265.978512 171.348459 
L 269.052893 166.556409 
L 272.127273 161.267719 
L 275.201653 155.711811 
L 278.276033 150.049229 
L 281.350413 144.415948 
L 284.424793 139.003843 
L 287.499174 134.049331 
L 290.573554 129.697876 
L 293.647934 125.918395 
L 296.722314 122.616479 
L 299.796694 119.840267 
L 302.871074 117.832936 
L 305.945455 116.862218 
L 309.019835 117.027763 
L 312.094215 118.243218 
L 315.168595 120.354271 
L 318.242975 123.233627 
L 321.317355 126.783268 
L 324.391736 130.895393 
L 327.466116 135.436996 
L 330.540496 140.253189 
L 333.614876 145.162538 
L 336.689256 149.971366 
L 339.763636 154.543056 
L 342.838017 158.885304 
L 345.912397 163.152794 
L 348.986777 167.507907 
L 352.061157 171.921837 
L 355.135537 176.064559 
L 358.209917 179.362821 
L 361.284298 181.170652 
L 364.358678 180.895236 
L 367.433058 178.078849 
L 370.507438 172.72434 
L 373.581818 165.811828 
" style="fill:none;stroke:#00ff80;stroke-linecap:square;"/>
   </g>
   <g id="line2d_39">
    <path clip-path="url(#p81dd64d0dc)" d="M 69.218182 138.9471 
L 72.292562 134.178107 
L 75.366942 130.884564 
L 78.441322 129.577121 
L 81.515702 129.887168 
L 84.590083 131.229573 
L 87.664463 133.282634 
L 90.738843 136.028371 
L 93.813223 139.550217 
L 96.887603 143.815708 
L 99.961983 148.590831 
L 103.036364 153.514135 
L 106.110744 158.241204 
L 109.185124 162.550277 
L 112.259504 166.382107 
L 115.333884 169.810639 
L 118.408264 172.89228 
L 121.482645 175.458949 
L 124.557025 177.094139 
L 127.631405 177.374944 
L 130.705785 176.13128 
L 133.780165 173.478828 
L 136.854545 169.685227 
L 139.928926 165.044168 
L 143.003306 159.806652 
L 146.077686 154.171933 
L 149.152066 148.361518 
L 152.226446 142.705211 
L 155.300826 137.592852 
L 158.375207 133.297322 
L 161.449587 129.882448 
L 164.523967 127.320804 
L 167.598347 125.653321 
L 170.672727 124.981296 
L 173.747107 125.333882 
L 176.821488 126.596246 
L 179.895868 128.571451 
L 182.970248 131.104929 
L 186.044628 134.161074 
L 189.119008 137.779741 
L 192.193388 141.949031 
L 195.267769 146.52803 
L 198.342149 151.285727 
L 201.416529 155.978796 
L 204.490909 160.38715 
L 207.565289 164.325325 
L 210.639669 167.675821 
L 213.71405 170.419106 
L 216.78843 172.591188 
L 219.86281 174.183367 
L 222.93719 175.088646 
L 226.01157 175.137091 
L 229.08595 174.174517 
L 232.160331 172.145851 
L 235.234711 169.133026 
L 238.309091 165.292286 
L 241.383471 160.743501 
L 244.457851 155.5468 
L 247.532231 149.810906 
L 250.606612 143.806956 
L 253.680992 137.938577 
L 256.755372 132.5953 
L 259.829752 128.044606 
L 262.904132 124.441519 
L 265.978512 121.903731 
L 269.052893 120.554441 
L 272.127273 120.488446 
L 275.201653 121.733778 
L 278.276033 124.280732 
L 281.350413 128.080816 
L 284.424793 132.922596 
L 287.499174 138.361212 
L 290.573554 143.902774 
L 293.647934 149.277715 
L 296.722314 154.495135 
L 299.796694 159.667966 
L 302.871074 164.800246 
L 305.945455 169.659671 
L 309.019835 173.82116 
L 312.094215 176.889168 
L 315.168595 178.689304 
L 318.242975 179.240921 
L 321.317355 178.62209 
L 324.391736 176.92624 
L 327.466116 174.29571 
L 330.540496 170.899518 
L 333.614876 166.858849 
L 336.689256 162.241058 
L 339.763636 157.141981 
L 342.838017 151.744241 
L 345.912397 146.286902 
L 348.986777 141.003321 
L 352.061157 136.09575 
L 355.135537 131.748247 
L 358.209917 128.164921 
L 361.284298 125.65092 
L 364.358678 124.723153 
L 367.433058 126.071137 
L 370.507438 130.063267 
L 373.581818 135.992373 
" style="fill:none;stroke:#00ffff;stroke-linecap:square;"/>
   </g>
   <g id="line2d_40">
    <path clip-path="url(#p81dd64d0dc)" d="M 69.218182 138.035194 
L 72.292562 132.898552 
L 75.366942 129.45167 
L 78.441322 128.369817 
L 81.515702 129.360038 
L 84.590083 131.802656 
L 87.664463 135.263871 
L 90.738843 139.612571 
L 93.813223 144.861199 
L 96.887603 150.898129 
L 99.961983 157.319531 
L 103.036364 163.497883 
L 106.110744 168.811935 
L 109.185124 172.838685 
L 112.259504 175.395007 
L 115.333884 176.458193 
L 118.408264 176.055746 
L 121.482645 174.226469 
L 124.557025 171.085997 
L 127.631405 166.891256 
L 130.705785 161.988567 
L 133.780165 156.699071 
L 136.854545 151.281136 
L 139.928926 145.979968 
L 143.003306 141.049885 
L 146.077686 136.691773 
L 149.152066 132.994905 
L 152.226446 130.002897 
L 155.300826 127.865078 
L 158.375207 126.893122 
L 161.449587 127.418752 
L 164.523967 129.550782 
L 167.598347 133.047869 
L 170.672727 137.425084 
L 173.747107 142.185024 
L 176.821488 146.978859 
L 179.895868 151.624264 
L 182.970248 156.031776 
L 186.044628 160.117234 
L 189.119008 163.765935 
L 192.193388 166.865863 
L 195.267769 169.337609 
L 198.342149 171.091864 
L 201.416529 171.972698 
L 204.490909 171.784863 
L 207.565289 170.387927 
L 210.639669 167.761779 
L 213.71405 164.019311 
L 216.78843 159.419921 
L 219.86281 154.366464 
L 222.93719 149.302656 
L 226.01157 144.544891 
L 229.08595 140.204688 
L 232.160331 136.291115 
L 235.234711 132.905388 
L 238.309091 130.329769 
L 241.383471 128.90267 
L 244.457851 128.804819 
L 247.532231 129.96573 
L 250.606612 132.137435 
L 253.680992 135.039731 
L 256.755372 138.486496 
L 259.829752 142.4319 
L 262.904132 146.893814 
L 265.978512 151.790477 
L 269.052893 156.831085 
L 272.127273 161.572815 
L 275.201653 165.595944 
L 278.276033 168.645562 
L 281.350413 170.631682 
L 284.424793 171.53048 
L 287.499174 171.327758 
L 290.573554 170.040438 
L 293.647934 167.729667 
L 296.722314 164.485253 
L 299.796694 160.442554 
L 302.871074 155.826128 
L 305.945455 150.932884 
L 309.019835 146.032551 
L 312.094215 141.303337 
L 315.168595 136.906099 
L 318.242975 133.098169 
L 321.317355 130.204935 
L 324.391736 128.48346 
L 327.466116 128.079572 
L 330.540496 129.087551 
L 333.614876 131.532513 
L 336.689256 135.26715 
L 339.763636 139.953035 
L 342.838017 145.163445 
L 345.912397 150.488986 
L 348.986777 155.583706 
L 352.061157 160.190586 
L 355.135537 164.163474 
L 358.209917 167.420263 
L 361.284298 169.787161 
L 364.358678 170.832912 
L 367.433058 169.931812 
L 370.507438 166.768434 
L 373.581818 161.983295 
" style="fill:none;stroke:#0080ff;stroke-linecap:square;"/>
   </g>
   <g id="line2d_41">
    <path clip-path="url(#p81dd64d0dc)" d="M 69.218182 138.185414 
L 72.292562 133.408556 
L 75.366942 130.743996 
L 78.441322 130.959575 
L 81.515702 133.668633 
L 84.590083 137.991076 
L 87.664463 143.129663 
L 90.738843 148.523986 
L 93.813223 153.778903 
L 96.887603 158.586068 
L 99.961983 162.704 
L 103.036364 165.945691 
L 106.110744 168.135598 
L 109.185124 169.093215 
L 112.259504 168.694165 
L 115.333884 166.95414 
L 118.408264 164.053184 
L 121.482645 160.295271 
L 124.557025 156.051787 
L 127.631405 151.704708 
L 130.705785 147.572578 
L 133.780165 143.844278 
L 136.854545 140.591231 
L 139.928926 137.867954 
L 143.003306 135.79323 
L 146.077686 134.52178 
L 149.152066 134.157465 
L 152.226446 134.71382 
L 155.300826 136.16323 
L 158.375207 138.518296 
L 161.449587 141.825606 
L 164.523967 146.030154 
L 167.598347 150.85148 
L 170.672727 155.843166 
L 173.747107 160.580848 
L 176.821488 164.748341 
L 179.895868 168.047125 
L 182.970248 170.108143 
L 186.044628 170.568211 
L 189.119008 169.256044 
L 192.193388 166.327012 
L 195.267769 162.239915 
L 198.342149 157.569457 
L 201.416529 152.776379 
L 204.490909 148.11351 
L 207.565289 143.716503 
L 210.639669 139.744877 
L 213.71405 136.413769 
L 216.78843 133.917895 
L 219.86281 132.390086 
L 222.93719 131.954243 
L 226.01157 132.755575 
L 229.08595 134.863767 
L 232.160331 138.13569 
L 235.234711 142.21766 
L 238.309091 146.714754 
L 241.383471 151.342169 
L 244.457851 155.913969 
L 247.532231 160.24823 
L 250.606612 164.103253 
L 253.680992 167.151313 
L 256.755372 169.017324 
L 259.829752 169.423217 
L 262.904132 168.336399 
L 265.978512 165.963976 
L 269.052893 162.594171 
L 272.127273 158.444097 
L 275.201653 153.658449 
L 278.276033 148.448749 
L 281.350413 143.208635 
L 284.424793 138.453583 
L 287.499174 134.618949 
L 290.573554 131.919785 
L 293.647934 130.415688 
L 296.722314 130.163959 
L 299.796694 131.240481 
L 302.871074 133.622163 
L 305.945455 137.121392 
L 309.019835 141.458616 
L 312.094215 146.354374 
L 315.168595 151.537328 
L 318.242975 156.719386 
L 321.317355 161.605466 
L 324.391736 165.908649 
L 327.466116 169.332857 
L 330.540496 171.565934 
L 333.614876 172.334077 
L 336.689256 171.483522 
L 339.763636 169.021111 
L 342.838017 165.101551 
L 345.912397 160.002898 
L 348.986777 154.117468 
L 352.061157 147.938694 
L 355.135537 142.028118 
L 358.209917 136.967602 
L 361.284298 133.302887 
L 364.358678 131.52125 
L 367.433058 132.028929 
L 370.507438 134.892222 
L 373.581818 139.38367 
" style="fill:none;stroke:#0000ff;stroke-linecap:square;"/>
   </g>
   <g id="line2d_42">
    <path clip-path="url(#p81dd64d0dc)" d="M 69.218182 140.275458 
L 72.292562 136.453715 
L 75.366942 134.433023 
L 78.441322 134.793184 
L 81.515702 137.195013 
L 84.590083 140.944029 
L 87.664463 145.442284 
L 90.738843 150.267964 
L 93.813223 155.063428 
L 96.887603 159.467896 
L 99.961983 163.160943 
L 103.036364 165.889403 
L 106.110744 167.408174 
L 109.185124 167.469927 
L 112.259504 165.954109 
L 115.333884 162.989145 
L 118.408264 158.901501 
L 121.482645 154.061883 
L 124.557025 148.823002 
L 127.631405 143.58406 
L 130.705785 138.844184 
L 133.780165 135.147968 
L 136.854545 132.965379 
L 139.928926 132.588329 
L 143.003306 134.059659 
L 146.077686 137.142942 
L 149.152066 141.398752 
L 152.226446 146.345738 
L 155.300826 151.549047 
L 158.375207 156.593386 
L 161.449587 161.071061 
L 164.523967 164.632087 
L 167.598347 167.027503 
L 170.672727 168.120877 
L 173.747107 167.86537 
L 176.821488 166.248676 
L 179.895868 163.282473 
L 182.970248 159.092236 
L 186.044628 154.019554 
L 189.119008 148.597374 
L 192.193388 143.385663 
L 195.267769 138.817262 
L 198.342149 135.197992 
L 201.416529 132.80999 
L 204.490909 131.926371 
L 207.565289 132.675294 
L 210.639669 134.922943 
L 213.71405 138.334469 
L 216.78843 142.548419 
L 219.86281 147.282546 
L 222.93719 152.282433 
L 226.01157 157.193982 
L 229.08595 161.530705 
L 232.160331 164.803885 
L 235.234711 166.679398 
L 238.309091 167.021129 
L 241.383471 165.871626 
L 244.457851 163.443344 
L 247.532231 160.067755 
L 250.606612 156.094994 
L 253.680992 151.844462 
L 256.755372 147.631581 
L 259.829752 143.793207 
L 262.904132 140.661507 
L 265.978512 138.496503 
L 269.052893 137.421706 
L 272.127273 137.412678 
L 275.201653 138.349475 
L 278.276033 140.096357 
L 281.350413 142.550965 
L 284.424793 145.627461 
L 287.499174 149.194184 
L 290.573554 153.017781 
L 293.647934 156.765844 
L 296.722314 160.090898 
L 299.796694 162.726992 
L 302.871074 164.48887 
L 305.945455 165.198019 
L 309.019835 164.684338 
L 312.094215 162.893752 
L 315.168595 159.957502 
L 318.242975 156.139231 
L 321.317355 151.743461 
L 324.391736 147.085224 
L 327.466116 142.518511 
L 330.540496 138.462622 
L 333.614876 135.383941 
L 336.689256 133.72169 
L 339.763636 133.771841 
L 342.838017 135.582458 
L 345.912397 138.924986 
L 348.986777 143.362513 
L 352.061157 148.373851 
L 355.135537 153.457813 
L 358.209917 158.172303 
L 361.284298 162.103314 
L 364.358678 164.763592 
L 367.433058 165.542709 
L 370.507438 164.01581 
L 373.581818 160.568714 
" style="fill:none;stroke:#8000ff;stroke-linecap:square;"/>
   </g>
   <g id="line2d_43">
    <path clip-path="url(#p81dd64d0dc)" d="M 69.218182 143.994172 
L 72.292562 141.441997 
L 75.366942 140.029016 
L 78.441322 140.313904 
L 81.515702 142.253397 
L 84.590083 145.402562 
L 87.664463 149.194021 
L 90.738843 153.114725 
L 93.813223 156.741282 
L 96.887603 159.707439 
L 99.961983 161.712225 
L 103.036364 162.584452 
L 106.110744 162.305634 
L 109.185124 160.935552 
L 112.259504 158.547003 
L 115.333884 155.265332 
L 118.408264 151.331047 
L 121.482645 147.104532 
L 124.557025 143.058132 
L 127.631405 139.748624 
L 130.705785 137.688895 
L 133.780165 137.16151 
L 136.854545 138.121656 
L 139.928926 140.273543 
L 143.003306 143.2793 
L 146.077686 146.93572 
L 149.152066 151.137686 
L 152.226446 155.652302 
L 155.300826 159.96012 
L 158.375207 163.355563 
L 161.449587 165.210798 
L 164.523967 165.185383 
L 167.598347 163.29972 
L 170.672727 159.899211 
L 173.747107 155.508276 
L 176.821488 150.618705 
L 179.895868 145.583951 
L 182.970248 140.728604 
L 186.044628 136.53004 
L 189.119008 133.621037 
L 192.193388 132.569043 
L 195.267769 133.641041 
L 198.342149 136.727897 
L 201.416529 141.412309 
L 204.490909 147.104916 
L 207.565289 153.171624 
L 210.639669 158.971003 
L 213.71405 163.835947 
L 216.78843 167.140549 
L 219.86281 168.476807 
L 222.93719 167.784871 
L 226.01157 165.314015 
L 229.08595 161.480077 
L 232.160331 156.75746 
L 235.234711 151.642437 
L 238.309091 146.635893 
L 241.383471 142.207916 
L 244.457851 138.741355 
L 247.532231 136.4747 
L 250.606612 135.498546 
L 253.680992 135.833874 
L 256.755372 137.510766 
L 259.829752 140.528894 
L 262.904132 144.710086 
L 265.978512 149.611373 
L 269.052893 154.623899 
L 272.127273 159.152134 
L 275.201653 162.692953 
L 278.276033 164.830189 
L 281.350413 165.282458 
L 284.424793 164.000571 
L 287.499174 161.179762 
L 290.573554 157.169713 
L 293.647934 152.407787 
L 296.722314 147.412825 
L 299.796694 142.760189 
L 302.871074 139.007433 
L 305.945455 136.603783 
L 309.019835 135.812379 
L 312.094215 136.6721 
L 315.168595 139.01975 
L 318.242975 142.552165 
L 321.317355 146.874151 
L 324.391736 151.508478 
L 327.466116 155.921547 
L 330.540496 159.626725 
L 333.614876 162.306777 
L 336.689256 163.831504 
L 339.763636 164.175734 
L 342.838017 163.359184 
L 345.912397 161.452138 
L 348.986777 158.57924 
L 352.061157 154.898433 
L 355.135537 150.620082 
L 358.209917 146.077587 
L 361.284298 141.788922 
L 364.358678 138.490322 
L 367.433058 137.053864 
L 370.507438 138.04937 
L 373.581818 141.094571 
" style="fill:none;stroke:#ff00ff;stroke-linecap:square;"/>
   </g>
   <g id="line2d_44">
    <path clip-path="url(#p81dd64d0dc)" d="M 69.218182 142.914293 
L 72.292562 140.450574 
L 75.366942 139.615069 
L 78.441322 140.758285 
L 81.515702 143.529916 
L 84.590083 147.347357 
L 87.664463 151.641922 
L 90.738843 155.839053 
L 93.813223 159.353392 
L 96.887603 161.673141 
L 99.961983 162.4564 
L 103.036364 161.62621 
L 106.110744 159.413128 
L 109.185124 156.229402 
L 112.259504 152.468086 
L 115.333884 148.477536 
L 118.408264 144.692866 
L 121.482645 141.646438 
L 124.557025 139.782878 
L 127.631405 139.302858 
L 130.705785 140.186173 
L 133.780165 142.298464 
L 136.854545 145.433749 
L 139.928926 149.280606 
L 143.003306 153.403929 
L 146.077686 157.284745 
L 149.152066 160.383464 
L 152.226446 162.216117 
L 155.300826 162.459634 
L 158.375207 161.045403 
L 161.449587 158.174507 
L 164.523967 154.249243 
L 167.598347 149.770633 
L 170.672727 145.264098 
L 173.747107 141.256922 
L 176.821488 138.264369 
L 179.895868 136.741472 
L 182.970248 136.993845 
L 186.044628 139.052752 
L 189.119008 142.596973 
L 192.193388 147.052834 
L 195.267769 151.82293 
L 198.342149 156.412086 
L 201.416529 160.362954 
L 204.490909 163.188787 
L 207.565289 164.477968 
L 210.639669 164.068301 
L 213.71405 162.075276 
L 216.78843 158.766296 
L 219.86281 154.468861 
L 222.93719 149.613744 
L 226.01157 144.806085 
L 229.08595 140.754408 
L 232.160331 138.054272 
L 235.234711 137.033457 
L 238.309091 137.779981 
L 241.383471 140.196212 
L 244.457851 143.937288 
L 247.532231 148.371474 
L 250.606612 152.741891 
L 253.680992 156.441213 
L 256.755372 159.161577 
L 259.829752 160.82775 
L 262.904132 161.419633 
L 265.978512 160.85809 
L 269.052893 159.057146 
L 272.127273 156.081775 
L 275.201653 152.240195 
L 278.276033 148.016944 
L 281.350413 143.940004 
L 284.424793 140.517713 
L 287.499174 138.217754 
L 290.573554 137.40277 
L 293.647934 138.265119 
L 296.722314 140.799196 
L 299.796694 144.760633 
L 302.871074 149.647415 
L 305.945455 154.796659 
L 309.019835 159.52701 
L 312.094215 163.17724 
L 315.168595 165.106799 
L 318.242975 164.858212 
L 321.317355 162.430259 
L 324.391736 158.360128 
L 327.466116 153.483349 
L 330.540496 148.590284 
L 333.614876 144.257144 
L 336.689256 140.874141 
L 339.763636 138.710733 
L 342.838017 137.943644 
L 345.912397 138.663258 
L 348.986777 140.82993 
L 352.061157 144.19971 
L 355.135537 148.340999 
L 358.209917 152.742898 
L 361.284298 156.846164 
L 364.358678 159.965275 
L 367.433058 161.343725 
L 370.507438 160.561089 
L 373.581818 158.041206 
" style="fill:none;stroke:#ff0080;stroke-linecap:square;"/>
   </g>
   <g id="line2d_45">
    <path clip-path="url(#p81dd64d0dc)" d="M 69.218182 141.304579 
L 72.292562 138.345597 
L 75.366942 137.475126 
L 78.441322 139.190814 
L 81.515702 143.051963 
L 84.590083 148.222004 
L 87.664463 153.807476 
L 90.738843 158.910804 
L 93.813223 162.71466 
L 96.887603 164.636123 
L 99.961983 164.411493 
L 103.036364 162.117732 
L 106.110744 158.171748 
L 109.185124 153.237722 
L 112.259504 148.038187 
L 115.333884 143.225274 
L 118.408264 139.383676 
L 121.482645 137.037645 
L 124.557025 136.574968 
L 127.631405 138.152426 
L 130.705785 141.634144 
L 133.780165 146.553364 
L 136.854545 152.134098 
L 139.928926 157.432748 
L 143.003306 161.56286 
L 146.077686 163.874732 
L 149.152066 164.017426 
L 152.226446 161.959688 
L 155.300826 158.049603 
L 158.375207 153.02232 
L 161.449587 147.834666 
L 164.523967 143.386225 
L 167.598347 140.297855 
L 170.672727 138.856954 
L 173.747107 139.104666 
L 176.821488 140.938998 
L 179.895868 144.129405 
L 182.970248 148.258968 
L 186.044628 152.706365 
L 189.119008 156.744119 
L 192.193388 159.701624 
L 195.267769 161.107145 
L 198.342149 160.771585 
L 201.416529 158.77686 
L 204.490909 155.393577 
L 207.565289 151.063582 
L 210.639669 146.479078 
L 213.71405 142.563156 
L 216.78843 140.185116 
L 219.86281 139.768987 
L 222.93719 141.165164 
L 226.01157 143.899206 
L 229.08595 147.485569 
L 232.160331 151.495124 
L 235.234711 155.438853 
L 238.309091 158.711771 
L 241.383471 160.695882 
L 244.457851 160.95612 
L 247.532231 159.412443 
L 250.606612 156.389187 
L 253.680992 152.515287 
L 256.755372 148.519797 
L 259.829752 145.009168 
L 262.904132 142.358579 
L 265.978512 140.788791 
L 269.052893 140.477922 
L 272.127273 141.501142 
L 275.201653 143.687603 
L 278.276033 146.662105 
L 281.350413 150.051013 
L 284.424793 153.560253 
L 287.499174 156.842931 
L 290.573554 159.40755 
L 293.647934 160.752949 
L 296.722314 160.594158 
L 299.796694 158.952438 
L 302.871074 156.090312 
L 305.945455 152.427042 
L 309.019835 148.495571 
L 312.094215 144.882992 
L 315.168595 142.115581 
L 318.242975 140.550276 
L 321.317355 140.35358 
L 324.391736 141.547288 
L 327.466116 144.022853 
L 330.540496 147.485149 
L 333.614876 151.402497 
L 336.689256 155.074745 
L 339.763636 157.838956 
L 342.838017 159.289475 
L 345.912397 159.355834 
L 348.986777 158.212259 
L 352.061157 156.126575 
L 355.135537 153.359205 
L 358.209917 150.167352 
L 361.284298 146.911792 
L 364.358678 144.164366 
L 367.433058 142.63387 
L 370.507438 142.802762 
L 373.581818 144.47652 
" style="fill:none;stroke:#aa0000;stroke-linecap:square;"/>
   </g>
   <g id="line2d_46">
    <path clip-path="url(#p81dd64d0dc)" d="M 69.218182 144.759364 
L 72.292562 143.101541 
L 75.366942 142.959602 
L 78.441322 144.671759 
L 81.515702 147.877155 
L 84.590083 151.813802 
L 87.664463 155.598523 
L 90.738843 158.395154 
L 93.813223 159.564362 
L 96.887603 158.841731 
L 99.961983 156.453859 
L 103.036364 153.03105 
L 106.110744 149.338641 
L 109.185124 146.030198 
L 112.259504 143.574347 
L 115.333884 142.297179 
L 118.408264 142.390386 
L 121.482645 143.858495 
L 124.557025 146.485128 
L 127.631405 149.846057 
L 130.705785 153.356277 
L 133.780165 156.376416 
L 136.854545 158.371638 
L 139.928926 159.025151 
L 143.003306 158.250288 
L 146.077686 156.171805 
L 149.152066 153.125007 
L 152.226446 149.620138 
L 155.300826 146.24514 
L 158.375207 143.553347 
L 161.449587 141.980364 
L 164.523967 141.793026 
L 167.598347 143.036658 
L 170.672727 145.491947 
L 173.747107 148.732631 
L 176.821488 152.272986 
L 179.895868 155.629838 
L 182.970248 158.254529 
L 186.044628 159.561281 
L 189.119008 159.17373 
L 192.193388 157.142847 
L 195.267769 153.900698 
L 198.342149 150.066735 
L 201.416529 146.305114 
L 204.490909 143.24155 
L 207.565289 141.388733 
L 210.639669 141.085306 
L 213.71405 142.454139 
L 216.78843 145.362456 
L 219.86281 149.383257 
L 222.93719 153.810596 
L 226.01157 157.789624 
L 229.08595 160.528693 
L 232.160331 161.472606 
L 235.234711 160.372388 
L 238.309091 157.324876 
L 241.383471 152.832751 
L 244.457851 147.760368 
L 247.532231 143.101535 
L 250.606612 139.719224 
L 253.680992 138.203255 
L 256.755372 138.795044 
L 259.829752 141.355217 
L 262.904132 145.423278 
L 265.978512 150.32032 
L 269.052893 155.235294 
L 272.127273 159.340238 
L 275.201653 161.952517 
L 278.276033 162.670853 
L 281.350413 161.42728 
L 284.424793 158.455091 
L 287.499174 154.208013 
L 290.573554 149.302806 
L 293.647934 144.5156 
L 296.722314 140.725259 
L 299.796694 138.703348 
L 302.871074 138.857943 
L 305.945455 141.124573 
L 309.019835 145.03498 
L 312.094215 149.853352 
L 315.168595 154.707695 
L 318.242975 158.725054 
L 321.317355 161.190693 
L 324.391736 161.704046 
L 327.466116 160.248343 
L 330.540496 157.132197 
L 333.614876 152.88716 
L 336.689256 148.206575 
L 339.763636 143.883504 
L 342.838017 140.686943 
L 345.912397 139.209034 
L 348.986777 139.737083 
L 352.061157 142.177369 
L 355.135537 146.065256 
L 358.209917 150.666013 
L 361.284298 155.105702 
L 364.358678 158.48539 
L 367.433058 160.041861 
L 370.507438 159.468493 
L 373.581818 157.249228 
" style="fill:none;stroke:#aa5500;stroke-linecap:square;"/>
   </g>
   <g id="line2d_47">
    <path clip-path="url(#p81dd64d0dc)" d="M 69.218182 142.281323 
L 72.292562 140.286747 
L 75.366942 140.673174 
L 78.441322 143.620347 
L 81.515702 148.219052 
L 84.590083 153.202333 
L 87.664463 157.501648 
L 90.738843 160.343791 
L 93.813223 161.189162 
L 96.887603 159.826709 
L 99.961983 156.554048 
L 103.036364 152.144227 
L 106.110744 147.549447 
L 109.185124 143.617889 
L 112.259504 141.01989 
L 115.333884 140.259984 
L 118.408264 141.568383 
L 121.482645 144.711823 
L 124.557025 148.975973 
L 127.631405 153.418964 
L 130.705785 157.172997 
L 133.780165 159.565849 
L 136.854545 160.138952 
L 139.928926 158.733291 
L 143.003306 155.598826 
L 146.077686 151.396128 
L 149.152066 147.060799 
L 152.226446 143.546144 
L 155.300826 141.539778 
L 158.375207 141.345176 
L 161.449587 142.956166 
L 164.523967 146.121423 
L 167.598347 150.284201 
L 170.672727 154.547894 
L 173.747107 157.874085 
L 176.821488 159.472409 
L 179.895868 159.077695 
L 182.970248 156.910049 
L 186.044628 153.465583 
L 189.119008 149.389419 
L 192.193388 145.459223 
L 195.267769 142.52072 
L 198.342149 141.269162 
L 201.416529 141.96791 
L 204.490909 144.327765 
L 207.565289 147.676991 
L 210.639669 151.293794 
L 213.71405 154.617592 
L 216.78843 157.205731 
L 219.86281 158.620365 
L 222.93719 158.497028 
L 226.01157 156.756651 
L 229.08595 153.721164 
L 232.160331 150.035496 
L 235.234711 146.485511 
L 238.309091 143.803807 
L 241.383471 142.506089 
L 244.457851 142.79785 
L 247.532231 144.57505 
L 250.606612 147.486285 
L 253.680992 150.988921 
L 256.755372 154.408609 
L 259.829752 157.077581 
L 262.904132 158.490357 
L 265.978512 158.345067 
L 269.052893 156.549935 
L 272.127273 153.339107 
L 275.201653 149.373036 
L 278.276033 145.59545 
L 281.350413 142.896067 
L 284.424793 141.837188 
L 287.499174 142.570015 
L 290.573554 144.877699 
L 293.647934 148.271088 
L 296.722314 152.11389 
L 299.796694 155.734524 
L 302.871074 158.477667 
L 305.945455 159.750171 
L 309.019835 159.156295 
L 312.094215 156.680029 
L 315.168595 152.773546 
L 318.242975 148.287734 
L 321.317355 144.272619 
L 324.391736 141.680467 
L 327.466116 141.050399 
L 330.540496 142.358439 
L 333.614876 145.138613 
L 336.689256 148.735155 
L 339.763636 152.476108 
L 342.838017 155.718294 
L 345.912397 157.870925 
L 348.986777 158.507029 
L 352.061157 157.522419 
L 355.135537 155.187055 
L 358.209917 152.026664 
L 361.284298 148.667079 
L 364.358678 145.787327 
L 367.433058 144.084176 
L 370.507438 144.007808 
L 373.581818 145.364063 
" style="fill:none;stroke:#aaaa00;stroke-linecap:square;"/>
   </g>
   <g id="line2d_48">
    <path clip-path="url(#p81dd64d0dc)" d="M 69.218182 145.531876 
L 72.292562 144.182947 
L 75.366942 144.237223 
L 78.441322 145.975157 
L 81.515702 149.008482 
L 84.590083 152.553049 
L 87.664463 155.70459 
L 90.738843 157.635876 
L 93.813223 157.809597 
L 96.887603 156.188597 
L 99.961983 153.271767 
L 103.036364 149.862026 
L 106.110744 146.743882 
L 109.185124 144.518996 
L 112.259504 143.608203 
L 115.333884 144.23974 
L 118.408264 146.337562 
L 121.482645 149.4372 
L 124.557025 152.789442 
L 127.631405 155.609514 
L 130.705785 157.282659 
L 133.780165 157.438828 
L 136.854545 155.981957 
L 139.928926 153.156776 
L 143.003306 149.581972 
L 146.077686 146.128026 
L 149.152066 143.659728 
L 152.226446 142.78756 
L 155.300826 143.734646 
L 158.375207 146.308778 
L 161.449587 149.925124 
L 164.523967 153.702315 
L 167.598347 156.68805 
L 170.672727 158.141747 
L 173.747107 157.721861 
L 176.821488 155.541909 
L 179.895868 152.139848 
L 182.970248 148.354177 
L 186.044628 145.112016 
L 189.119008 143.196489 
L 192.193388 143.057265 
L 195.267769 144.707421 
L 198.342149 147.730548 
L 201.416529 151.391847 
L 204.490909 154.830108 
L 207.565289 157.278256 
L 210.639669 158.221981 
L 213.71405 157.441426 
L 216.78843 154.997784 
L 219.86281 151.26888 
L 222.93719 147.007171 
L 226.01157 143.273482 
L 229.08595 141.163685 
L 232.160331 141.403706 
L 235.234711 144.017512 
L 238.309091 148.284421 
L 241.383471 153.015456 
L 244.457851 156.962273 
L 247.532231 159.184145 
L 250.606612 159.299051 
L 253.680992 157.51197 
L 256.755372 154.382115 
L 259.829752 150.556169 
L 262.904132 146.697214 
L 265.978512 143.523633 
L 269.052893 141.75584 
L 272.127273 141.917479 
L 275.201653 144.087202 
L 278.276033 147.785559 
L 281.350413 152.106902 
L 284.424793 155.996405 
L 287.499174 158.521417 
L 290.573554 159.101995 
L 293.647934 157.674317 
L 296.722314 154.689035 
L 299.796694 150.917745 
L 302.871074 147.197999 
L 305.945455 144.267322 
L 309.019835 142.689299 
L 312.094215 142.781993 
L 315.168595 144.547234 
L 318.242975 147.656123 
L 321.317355 151.479297 
L 324.391736 155.153142 
L 327.466116 157.736065 
L 330.540496 158.479225 
L 333.614876 157.130284 
L 336.689256 154.086107 
L 339.763636 150.238785 
L 342.838017 146.60301 
L 345.912397 143.997174 
L 348.986777 142.913711 
L 352.061157 143.506695 
L 355.135537 145.609547 
L 358.209917 148.758263 
L 361.284298 152.244736 
L 364.358678 155.239781 
L 367.433058 156.982386 
L 370.507438 157.052409 
L 373.581818 155.673203 
" style="fill:none;stroke:#55aa00;stroke-linecap:square;"/>
   </g>
   <g id="line2d_49">
    <path clip-path="url(#p81dd64d0dc)" d="M 69.218182 146.087697 
L 72.292562 145.011085 
L 75.366942 145.332778 
L 78.441322 147.285754 
L 81.515702 150.385759 
L 84.590083 153.709643 
L 87.664463 156.257141 
L 90.738843 157.247272 
L 93.813223 156.334341 
L 96.887603 153.701248 
L 99.961983 150.019288 
L 103.036364 146.307403 
L 106.110744 143.66965 
L 109.185124 142.929561 
L 112.259504 144.336434 
L 115.333884 147.495249 
L 118.408264 151.509839 
L 121.482645 155.265828 
L 124.557025 157.761352 
L 127.631405 158.370825 
L 130.705785 156.973142 
L 133.780165 153.947741 
L 136.854545 150.061369 
L 139.928926 146.265838 
L 143.003306 143.466596 
L 146.077686 142.344585 
L 149.152066 143.231537 
L 152.226446 145.985047 
L 155.300826 149.924538 
L 158.375207 153.979177 
L 161.449587 157.053694 
L 164.523967 158.384069 
L 167.598347 157.667201 
L 170.672727 155.036869 
L 173.747107 151.073631 
L 176.821488 146.801738 
L 179.895868 143.483613 
L 182.970248 142.187326 
L 186.044628 143.327374 
L 189.119008 146.466957 
L 192.193388 150.537944 
L 195.267769 154.335774 
L 198.342149 156.954452 
L 201.416529 157.930314 
L 204.490909 157.14483 
L 207.565289 154.733798 
L 210.639669 151.152304 
L 213.71405 147.246684 
L 216.78843 144.097806 
L 219.86281 142.640294 
L 222.93719 143.288055 
L 226.01157 145.791463 
L 229.08595 149.377922 
L 232.160331 153.047763 
L 235.234711 155.872425 
L 238.309091 157.216713 
L 241.383471 156.84361 
L 244.457851 154.915111 
L 247.532231 151.954928 
L 250.606612 148.753308 
L 253.680992 146.14387 
L 256.755372 144.743007 
L 259.829752 144.824892 
L 262.904132 146.329576 
L 265.978512 148.891789 
L 269.052893 151.89405 
L 272.127273 154.601659 
L 275.201653 156.332601 
L 278.276033 156.601226 
L 281.350413 155.258801 
L 284.424793 152.605696 
L 287.499174 149.34726 
L 290.573554 146.362366 
L 293.647934 144.437419 
L 296.722314 144.093781 
L 299.796694 145.469443 
L 302.871074 148.21627 
L 305.945455 151.53303 
L 309.019835 154.440168 
L 312.094215 156.153575 
L 315.168595 156.299722 
L 318.242975 154.91523 
L 321.317355 152.365456 
L 324.391736 149.267513 
L 327.466116 146.398968 
L 330.540496 144.5453 
L 333.614876 144.265951 
L 336.689256 145.665107 
L 339.763636 148.334659 
L 342.838017 151.530414 
L 345.912397 154.455714 
L 348.986777 156.474185 
L 352.061157 157.17102 
L 355.135537 156.331709 
L 358.209917 153.985196 
L 361.284298 150.549562 
L 364.358678 146.922119 
L 367.433058 144.286241 
L 370.507438 143.54627 
L 373.581818 144.695989 
" style="fill:none;stroke:#00aa00;stroke-linecap:square;"/>
   </g>
   <g id="line2d_50">
    <path clip-path="url(#p81dd64d0dc)" d="M 69.218182 146.242218 
L 72.292562 145.379354 
L 75.366942 145.877754 
L 78.441322 147.775388 
L 81.515702 150.486777 
L 84.590083 153.174803 
L 87.664463 155.061946 
L 90.738843 155.614741 
L 93.813223 154.664956 
L 96.887603 152.458388 
L 99.961983 149.607855 
L 103.036364 146.959947 
L 106.110744 145.374964 
L 109.185124 145.418733 
L 112.259504 147.092809 
L 115.333884 149.825247 
L 118.408264 152.74909 
L 121.482645 155.028552 
L 124.557025 156.04224 
L 127.631405 155.474881 
L 130.705785 153.418131 
L 133.780165 150.419106 
L 136.854545 147.350004 
L 139.928926 145.123026 
L 143.003306 144.410386 
L 146.077686 145.467087 
L 149.152066 148.046311 
L 152.226446 151.419209 
L 155.300826 154.562878 
L 158.375207 156.501124 
L 161.449587 156.645309 
L 164.523967 154.97122 
L 167.598347 151.987068 
L 170.672727 148.563021 
L 173.747107 145.702118 
L 176.821488 144.267409 
L 179.895868 144.697746 
L 182.970248 146.838896 
L 186.044628 149.998924 
L 189.119008 153.20151 
L 192.193388 155.508418 
L 195.267769 156.275283 
L 198.342149 155.289444 
L 201.416529 152.830915 
L 204.490909 149.650433 
L 207.565289 146.766419 
L 210.639669 145.098639 
L 213.71405 145.153864 
L 216.78843 146.91549 
L 219.86281 149.874573 
L 222.93719 153.136216 
L 226.01157 155.657569 
L 229.08595 156.59863 
L 232.160331 155.608153 
L 235.234711 152.9312 
L 238.309091 149.364862 
L 241.383471 146.049562 
L 244.457851 144.070461 
L 247.532231 144.033429 
L 250.606612 145.875925 
L 253.680992 148.970376 
L 256.755372 152.370016 
L 259.829752 155.083705 
L 262.904132 156.351474 
L 265.978512 155.861252 
L 269.052893 153.822027 
L 272.127273 150.865295 
L 275.201653 147.83483 
L 278.276033 145.561879 
L 281.350413 144.673885 
L 284.424793 145.439897 
L 287.499174 147.677136 
L 290.573554 150.774516 
L 293.647934 153.860597 
L 296.722314 156.063678 
L 299.796694 156.754447 
L 302.871074 155.698165 
L 305.945455 153.127479 
L 309.019835 149.727321 
L 312.094215 146.463116 
L 315.168595 144.275631 
L 318.242975 143.797392 
L 321.317355 145.200627 
L 324.391736 148.147146 
L 327.466116 151.817948 
L 330.540496 155.113148 
L 333.614876 157.038168 
L 336.689256 157.070505 
L 339.763636 155.277745 
L 342.838017 152.182439 
L 345.912397 148.560435 
L 348.986777 145.312335 
L 352.061157 143.354321 
L 355.135537 143.392633 
L 358.209917 145.595812 
L 361.284298 149.379186 
L 364.358678 153.503233 
L 367.433058 156.512832 
L 370.507438 157.4157 
L 373.581818 156.276694 
" style="fill:none;stroke:#00aa55;stroke-linecap:square;"/>
   </g>
   <g id="line2d_51">
    <path clip-path="url(#p81dd64d0dc)" d="M 69.218182 147.044782 
L 72.292562 146.469065 
L 75.366942 147.114442 
L 78.441322 148.948327 
L 81.515702 151.348528 
L 84.590083 153.494522 
L 87.664463 154.69657 
L 90.738843 154.564205 
L 93.813223 153.116829 
L 96.887603 150.811185 
L 99.961983 148.39881 
L 103.036364 146.656809 
L 106.110744 146.124691 
L 109.185124 146.946741 
L 112.259504 148.852361 
L 115.333884 151.251965 
L 118.408264 153.40502 
L 121.482645 154.630983 
L 124.557025 154.528395 
L 127.631405 153.1221 
L 130.705785 150.85427 
L 133.780165 148.432223 
L 136.854545 146.623009 
L 139.928926 146.038006 
L 143.003306 146.925626 
L 146.077686 149.048418 
L 149.152066 151.725233 
L 152.226446 154.049618 
L 155.300826 155.209739 
L 158.375207 154.774795 
L 161.449587 152.834742 
L 164.523967 149.963401 
L 167.598347 147.055395 
L 170.672727 145.094856 
L 173.747107 144.85196 
L 176.821488 146.55237 
L 179.895868 149.711331 
L 182.970248 153.271872 
L 186.044628 155.977877 
L 189.119008 156.836242 
L 192.193388 155.513474 
L 195.267769 152.476665 
L 198.342149 148.800157 
L 201.416529 145.759405 
L 204.490909 144.38461 
L 207.565289 145.110545 
L 210.639669 147.642001 
L 213.71405 151.081236 
L 216.78843 154.25546 
L 219.86281 156.119994 
L 222.93719 156.087992 
L 226.01157 154.18488 
L 229.08595 151.029256 
L 232.160331 147.658249 
L 235.234711 145.195846 
L 238.309091 144.460227 
L 241.383471 145.686332 
L 244.457851 148.46688 
L 247.532231 151.904296 
L 250.606612 154.899051 
L 253.680992 156.48115 
L 256.755372 156.109732 
L 259.829752 153.862363 
L 262.904132 150.438325 
L 265.978512 146.962671 
L 269.052893 144.633314 
L 272.127273 144.288508 
L 275.201653 146.051767 
L 278.276033 149.25475 
L 281.350413 152.713513 
L 284.424793 155.219127 
L 287.499174 155.999695 
L 290.573554 154.95157 
L 293.647934 152.567318 
L 296.722314 149.673934 
L 299.796694 147.160066 
L 302.871074 145.750788 
L 305.945455 145.8272 
L 309.019835 147.34159 
L 312.094215 149.849652 
L 315.168595 152.611179 
L 318.242975 154.753597 
L 321.317355 155.521644 
L 324.391736 154.552715 
L 327.466116 152.073765 
L 330.540496 148.915778 
L 333.614876 146.237181 
L 336.689256 145.015035 
L 339.763636 145.625836 
L 342.838017 147.792807 
L 345.912397 150.809795 
L 348.986777 153.767293 
L 352.061157 155.727581 
L 355.135537 155.984289 
L 358.209917 154.383218 
L 361.284298 151.473891 
L 364.358678 148.325271 
L 367.433058 146.07541 
L 370.507438 145.415029 
L 373.581818 146.241149 
" style="fill:none;stroke:#00aaaa;stroke-linecap:square;"/>
   </g>
   <g id="line2d_52">
    <path clip-path="url(#p81dd64d0dc)" d="M 69.218182 146.479361 
L 72.292562 145.989927 
L 75.366942 147.087541 
L 78.441322 149.613667 
L 81.515702 152.570022 
L 84.590083 154.743411 
L 87.664463 155.324165 
L 90.738843 154.169324 
L 93.813223 151.7339 
L 96.887603 148.844004 
L 99.961983 146.460833 
L 103.036364 145.431346 
L 106.110744 146.17353 
L 109.185124 148.437967 
L 112.259504 151.370449 
L 115.333884 153.873585 
L 118.408264 155.053336 
L 121.482645 154.549727 
L 124.557025 152.636649 
L 127.631405 150.058292 
L 130.705785 147.717233 
L 133.780165 146.399561 
L 136.854545 146.566802 
L 139.928926 148.157444 
L 143.003306 150.53881 
L 146.077686 152.785226 
L 149.152066 154.109526 
L 152.226446 154.12701 
L 155.300826 152.90432 
L 158.375207 150.904374 
L 161.449587 148.836166 
L 164.523967 147.404671 
L 167.598347 147.057819 
L 170.672727 147.85359 
L 173.747107 149.489008 
L 176.821488 151.419448 
L 179.895868 153.001128 
L 182.970248 153.685802 
L 186.044628 153.239645 
L 189.119008 151.830992 
L 192.193388 149.930796 
L 195.267769 148.150361 
L 198.342149 147.089636 
L 201.416529 147.150465 
L 204.490909 148.363094 
L 207.565289 150.367019 
L 210.639669 152.533637 
L 213.71405 154.109348 
L 216.78843 154.415148 
L 219.86281 153.177327 
L 222.93719 150.787259 
L 226.01157 148.193227 
L 229.08595 146.456709 
L 232.160331 146.28564 
L 235.234711 147.769075 
L 238.309091 150.349858 
L 241.383471 153.035622 
L 244.457851 154.805714 
L 247.532231 155.009988 
L 250.606612 153.561024 
L 253.680992 150.937165 
L 256.755372 148.047008 
L 259.829752 145.926731 
L 262.904132 145.355693 
L 265.978512 146.564466 
L 269.052893 149.138245 
L 272.127273 152.171776 
L 275.201653 154.62591 
L 278.276033 155.670293 
L 281.350413 154.894145 
L 284.424793 152.470486 
L 287.499174 149.223797 
L 290.573554 146.383456 
L 293.647934 145.062917 
L 296.722314 145.78954 
L 299.796694 148.308383 
L 302.871074 151.680372 
L 305.945455 154.626392 
L 309.019835 156.011006 
L 312.094215 155.276586 
L 315.168595 152.650417 
L 318.242975 149.07651 
L 321.317355 145.913425 
L 324.391736 144.440063 
L 327.466116 145.304202 
L 330.540496 148.200609 
L 333.614876 151.991322 
L 336.689256 155.197976 
L 339.763636 156.600477 
L 342.838017 155.685643 
L 345.912397 152.807878 
L 348.986777 149.040714 
L 352.061157 145.780904 
L 355.135537 144.245222 
L 358.209917 145.038054 
L 361.284298 147.902318 
L 364.358678 151.726633 
L 367.433058 154.937896 
L 370.507438 156.289714 
L 373.581818 155.614575 
" style="fill:none;stroke:#0055aa;stroke-linecap:square;"/>
   </g>
   <g id="line2d_53">
    <path clip-path="url(#p81dd64d0dc)" d="M 69.218182 145.683691 
L 72.292562 145.247333 
L 75.366942 146.714038 
L 78.441322 149.741887 
L 81.515702 153.07088 
L 84.590083 155.337901 
L 87.664463 155.726823 
L 90.738843 154.191382 
L 93.813223 151.360921 
L 96.887603 148.246417 
L 99.961983 145.903388 
L 103.036364 145.152708 
L 106.110744 146.321608 
L 109.185124 149.041646 
L 112.259504 152.297703 
L 115.333884 154.822064 
L 118.408264 155.64082 
L 121.482645 154.466657 
L 124.557025 151.789427 
L 127.631405 148.676399 
L 130.705785 146.338905 
L 133.780165 145.627515 
L 136.854545 146.72231 
L 139.928926 149.137937 
L 143.003306 151.941652 
L 146.077686 154.086065 
L 149.152066 154.803108 
L 152.226446 153.893212 
L 155.300826 151.740279 
L 158.375207 149.121328 
L 161.449587 146.981653 
L 164.523967 146.173745 
L 167.598347 147.107432 
L 170.672727 149.46977 
L 173.747107 152.278404 
L 176.821488 154.309604 
L 179.895868 154.658013 
L 182.970248 153.150082 
L 186.044628 150.451693 
L 189.119008 147.789898 
L 192.193388 146.360123 
L 195.267769 146.739662 
L 198.342149 148.663318 
L 201.416529 151.243754 
L 204.490909 153.432788 
L 207.565289 154.442037 
L 210.639669 153.96551 
L 213.71405 152.221961 
L 216.78843 149.871813 
L 219.86281 147.80208 
L 222.93719 146.805184 
L 226.01157 147.272315 
L 229.08595 149.026275 
L 232.160331 151.362035 
L 235.234711 153.315526 
L 238.309091 154.075129 
L 241.383471 153.324487 
L 244.457851 151.353864 
L 247.532231 148.941053 
L 250.606612 147.063446 
L 253.680992 146.51499 
L 256.755372 147.566514 
L 259.829752 149.831369 
L 262.904132 152.417349 
L 265.978512 154.294612 
L 269.052893 154.692107 
L 272.127273 153.376049 
L 275.201653 150.774334 
L 278.276033 147.900765 
L 281.350413 145.992264 
L 284.424793 145.927201 
L 287.499174 147.754247 
L 290.573554 150.670199 
L 293.647934 153.440537 
L 296.722314 154.940037 
L 299.796694 154.553557 
L 302.871074 152.404081 
L 305.945455 149.374237 
L 309.019835 146.791353 
L 312.094215 145.816319 
L 315.168595 146.874282 
L 318.242975 149.4745 
L 321.317355 152.475449 
L 324.391736 154.602031 
L 327.466116 154.981304 
L 330.540496 153.499706 
L 333.614876 150.821928 
L 336.689256 148.064234 
L 339.763636 146.318346 
L 342.838017 146.237207 
L 345.912397 147.799135 
L 348.986777 150.336336 
L 352.061157 152.827466 
L 355.135537 154.301059 
L 358.209917 154.179322 
L 361.284298 152.498665 
L 364.358678 149.962474 
L 367.433058 147.694968 
L 370.507438 146.650305 
L 373.581818 147.016226 
" style="fill:none;stroke:#0000aa;stroke-linecap:square;"/>
   </g>
   <g id="line2d_54">
    <path clip-path="url(#p81dd64d0dc)" d="M 69.218182 146.383457 
L 72.292562 146.048941 
L 75.366942 147.496456 
L 78.441322 150.419809 
L 81.515702 153.476566 
L 84.590083 155.135088 
L 87.664463 154.605083 
L 90.738843 152.218247 
L 93.813223 149.137142 
L 96.887603 146.712937 
L 99.961983 145.92014 
L 103.036364 147.054102 
L 106.110744 149.649836 
L 109.185124 152.625369 
L 112.259504 154.700486 
L 115.333884 154.955601 
L 118.408264 153.24605 
L 121.482645 150.284346 
L 124.557025 147.358568 
L 127.631405 145.773922 
L 130.705785 146.255149 
L 133.780165 148.601127 
L 136.854545 151.749494 
L 139.928926 154.24974 
L 143.003306 154.97428 
L 146.077686 153.679617 
L 149.152066 151.055104 
L 152.226446 148.296011 
L 155.300826 146.551237 
L 158.375207 146.496419 
L 161.449587 148.101938 
L 164.523967 150.667982 
L 167.598347 153.13841 
L 170.672727 154.521595 
L 173.747107 154.242513 
L 176.821488 152.3719 
L 179.895868 149.64955 
L 182.970248 147.20716 
L 186.044628 146.089774 
L 189.119008 146.811793 
L 192.193388 149.112403 
L 195.267769 152.003865 
L 198.342149 154.17307 
L 201.416529 154.61594 
L 204.490909 153.151233 
L 207.565289 150.491366 
L 210.639669 147.857424 
L 213.71405 146.399795 
L 216.78843 146.710545 
L 219.86281 148.605005 
L 222.93719 151.241994 
L 226.01157 153.501563 
L 229.08595 154.434799 
L 232.160331 153.644702 
L 235.234711 151.482938 
L 238.309091 148.917424 
L 241.383471 147.067116 
L 244.457851 146.674887 
L 247.532231 147.842234 
L 250.606612 150.081456 
L 253.680992 152.513529 
L 256.755372 154.131541 
L 259.829752 154.189257 
L 262.904132 152.606036 
L 265.978512 150.065034 
L 269.052893 147.682174 
L 272.127273 146.48828 
L 275.201653 146.994575 
L 278.276033 148.969894 
L 281.350413 151.534872 
L 284.424793 153.575806 
L 287.499174 154.249583 
L 290.573554 153.31266 
L 293.647934 151.190725 
L 296.722314 148.805873 
L 299.796694 147.179065 
L 302.871074 146.963421 
L 305.945455 148.188087 
L 309.019835 150.307596 
L 312.094215 152.427501 
L 315.168595 153.636945 
L 318.242975 153.414362 
L 321.317355 151.890304 
L 324.391736 149.765771 
L 327.466116 147.980923 
L 330.540496 147.340014 
L 333.614876 148.172086 
L 336.689256 150.111772 
L 339.763636 152.196941 
L 342.838017 153.364011 
L 345.912397 153.067075 
L 348.986777 151.556854 
L 352.061157 149.642414 
L 355.135537 148.220563 
L 358.209917 147.905736 
L 361.284298 148.805344 
L 364.358678 150.441575 
L 367.433058 151.971209 
L 370.507438 152.696901 
L 373.581818 152.498593 
" style="fill:none;stroke:#5500aa;stroke-linecap:square;"/>
   </g>
   <g id="line2d_55">
    <path clip-path="url(#p81dd64d0dc)" d="M 69.218182 147.80206 
L 72.292562 147.847423 
L 75.366942 148.983854 
L 78.441322 150.763789 
L 81.515702 152.315308 
L 84.590083 152.947886 
L 87.664463 152.459656 
L 90.738843 151.082167 
L 93.813223 149.344212 
L 96.887603 147.963373 
L 99.961983 147.631172 
L 103.036364 148.6518 
L 106.110744 150.664353 
L 109.185124 152.721378 
L 112.259504 153.754578 
L 115.333884 153.172379 
L 118.408264 151.219317 
L 121.482645 148.864131 
L 124.557025 147.27944 
L 127.631405 147.232963 
L 130.705785 148.739863 
L 133.780165 151.099599 
L 136.854545 153.212563 
L 139.928926 154.045792 
L 143.003306 153.130304 
L 146.077686 150.86307 
L 149.152066 148.356536 
L 152.226446 146.855371 
L 155.300826 147.08767 
L 158.375207 148.928149 
L 161.449587 151.485907 
L 164.523967 153.528102 
L 167.598347 154.064381 
L 170.672727 152.832506 
L 173.747107 150.425396 
L 176.821488 147.997498 
L 179.895868 146.724962 
L 182.970248 147.256734 
L 186.044628 149.367989 
L 189.119008 152.023381 
L 192.193388 153.906202 
L 195.267769 154.123698 
L 198.342149 152.630327 
L 201.416529 150.170383 
L 204.490909 147.887525 
L 207.565289 146.819083 
L 210.639669 147.444682 
L 213.71405 149.465836 
L 216.78843 151.933453 
L 219.86281 153.676317 
L 222.93719 153.847971 
L 226.01157 152.354108 
L 229.08595 149.930314 
L 232.160331 147.786321 
L 235.234711 146.993127 
L 238.309091 147.938563 
L 241.383471 150.126803 
L 244.457851 152.432285 
L 247.532231 153.692587 
L 250.606612 153.311409 
L 253.680992 151.524279 
L 256.755372 149.226541 
L 259.829752 147.525982 
L 262.904132 147.240941 
L 265.978512 148.519821 
L 269.052893 150.745077 
L 272.127273 152.829172 
L 275.201653 153.779394 
L 278.276033 153.176617 
L 281.350413 151.310138 
L 284.424793 149.00549 
L 287.499174 147.291481 
L 290.573554 146.987866 
L 293.647934 148.307849 
L 296.722314 150.681729 
L 299.796694 152.984742 
L 302.871074 154.097688 
L 305.945455 153.483957 
L 309.019835 151.452606 
L 312.094215 148.981517 
L 315.168595 147.239078 
L 318.242975 147.053917 
L 321.317355 148.53147 
L 324.391736 150.974995 
L 327.466116 153.193763 
L 330.540496 154.077715 
L 333.614876 153.159623 
L 336.689256 150.884293 
L 339.763636 148.40657 
L 342.838017 146.975985 
L 345.912397 147.258043 
L 348.986777 149.02055 
L 352.061157 151.348172 
L 355.135537 153.161706 
L 358.209917 153.692053 
L 361.284298 152.740503 
L 364.358678 150.735773 
L 367.433058 148.592474 
L 370.507438 147.294529 
L 373.581818 147.29066 
" style="fill:none;stroke:#aa00aa;stroke-linecap:square;"/>
   </g>
   <g id="line2d_56">
    <path clip-path="url(#p81dd64d0dc)" d="M 69.218182 147.724396 
L 72.292562 147.763123 
L 75.366942 148.981866 
L 78.441322 150.941276 
L 81.515702 152.644848 
L 84.590083 153.193136 
L 87.664463 152.30204 
L 90.738843 150.426662 
L 93.813223 148.531686 
L 96.887603 147.631456 
L 99.961983 148.255113 
L 103.036364 150.096119 
L 106.110744 152.13898 
L 109.185124 153.260847 
L 112.259504 152.87963 
L 115.333884 151.213283 
L 118.408264 149.107403 
L 121.482645 147.627864 
L 124.557025 147.570144 
L 127.631405 149.031564 
L 130.705785 151.29023 
L 133.780165 153.155357 
L 136.854545 153.622075 
L 139.928926 152.42465 
L 143.003306 150.180376 
L 146.077686 148.065759 
L 149.152066 147.190133 
L 152.226446 148.00471 
L 155.300826 150.074403 
L 158.375207 152.316228 
L 161.449587 153.570275 
L 164.523967 153.215102 
L 167.598347 151.485461 
L 170.672727 149.301636 
L 173.747107 147.741734 
L 176.821488 147.512042 
L 179.895868 148.682825 
L 182.970248 150.700359 
L 186.044628 152.605565 
L 189.119008 153.445443 
L 192.193388 152.758882 
L 195.267769 150.862667 
L 198.342149 148.728693 
L 201.416529 147.486234 
L 204.490909 147.812959 
L 207.565289 149.556813 
L 210.639669 151.807194 
L 213.71405 153.375389 
L 216.78843 153.414109 
L 219.86281 151.86002 
L 222.93719 149.498147 
L 226.01157 147.58821 
L 229.08595 147.186836 
L 232.160331 148.535099 
L 235.234711 150.903159 
L 238.309091 153.007518 
L 241.383471 153.749465 
L 244.457851 152.807257 
L 247.532231 150.730436 
L 250.606612 148.570854 
L 253.680992 147.359509 
L 256.755372 147.665298 
L 259.829752 149.333205 
L 262.904132 151.534691 
L 265.978512 153.180111 
L 269.052893 153.457062 
L 272.127273 152.205207 
L 275.201653 150.020177 
L 278.276033 148.023126 
L 281.350413 147.293082 
L 284.424793 148.249061 
L 287.499174 150.405344 
L 290.573554 152.638134 
L 293.647934 153.759579 
L 296.722314 153.127102 
L 299.796694 151.036151 
L 302.871074 148.625555 
L 305.945455 147.238812 
L 309.019835 147.625815 
L 312.094215 149.536069 
L 315.168595 151.918 
L 318.242975 153.503914 
L 321.317355 153.444538 
L 324.391736 151.746035 
L 327.466116 149.306313 
L 330.540496 147.45767 
L 333.614876 147.221429 
L 336.689256 148.719326 
L 339.763636 151.110407 
L 342.838017 153.091527 
L 345.912397 153.637598 
L 348.986777 152.525055 
L 352.061157 150.388017 
L 355.135537 148.355987 
L 358.209917 147.471183 
L 361.284298 148.153776 
L 364.358678 149.995011 
L 367.433058 151.998325 
L 370.507438 153.16895 
L 373.581818 153.136564 
" style="fill:none;stroke:#aa0055;stroke-linecap:square;"/>
   </g>
   <g id="line2d_57">
    <path clip-path="url(#p81dd64d0dc)" d="M 69.218182 147.321426 
L 72.292562 147.38918 
L 75.366942 148.87153 
L 78.441322 151.238461 
L 81.515702 153.221697 
L 84.590083 153.659231 
L 87.664463 152.279722 
L 90.738843 149.879171 
L 93.813223 147.817995 
L 96.887603 147.237267 
L 99.961983 148.464421 
L 103.036364 150.837982 
L 106.110744 153.021261 
L 109.185124 153.737195 
L 112.259504 152.554392 
L 115.333884 150.178665 
L 118.408264 148.000838 
L 121.482645 147.229365 
L 124.557025 148.22761 
L 127.631405 150.40648 
L 130.705785 152.579104 
L 133.780165 153.549189 
L 136.854545 152.743423 
L 139.928926 150.591692 
L 143.003306 148.337471 
L 146.077686 147.313171 
L 149.152066 148.132015 
L 152.226446 150.309258 
L 155.300826 152.552263 
L 158.375207 153.551309 
L 161.449587 152.764207 
L 164.523967 150.695223 
L 167.598347 148.546814 
L 170.672727 147.520854 
L 173.747107 148.167491 
L 176.821488 150.083903 
L 179.895868 152.136392 
L 182.970248 153.142357 
L 186.044628 152.583026 
L 189.119008 150.850834 
L 192.193388 148.94325 
L 195.267769 147.896709 
L 198.342149 148.271324 
L 201.416529 149.870258 
L 204.490909 151.819414 
L 207.565289 153.028809 
L 210.639669 152.815434 
L 213.71405 151.301954 
L 216.78843 149.33306 
L 219.86281 147.984044 
L 222.93719 147.983219 
L 226.01157 149.339708 
L 229.08595 151.306452 
L 232.160331 152.743531 
L 235.234711 152.799178 
L 238.309091 151.474447 
L 241.383471 149.603992 
L 244.457851 148.295708 
L 247.532231 148.278887 
L 250.606612 149.526586 
L 253.680992 151.288948 
L 256.755372 152.526754 
L 259.829752 152.534196 
L 262.904132 151.353421 
L 265.978512 149.70027 
L 269.052893 148.499471 
L 272.127273 148.375785 
L 275.201653 149.374359 
L 278.276033 150.973851 
L 281.350413 152.33342 
L 284.424793 152.690568 
L 287.499174 151.784789 
L 290.573554 150.079528 
L 293.647934 148.553673 
L 296.722314 148.11523 
L 299.796694 149.031295 
L 302.871074 150.767569 
L 305.945455 152.321239 
L 309.019835 152.820214 
L 312.094215 152.012035 
L 315.168595 150.359594 
L 318.242975 148.747943 
L 321.317355 148.024118 
L 324.391736 148.593195 
L 327.466116 150.203758 
L 330.540496 152.016453 
L 333.614876 153.006035 
L 336.689256 152.556704 
L 339.763636 150.879998 
L 342.838017 148.927859 
L 345.912397 147.827892 
L 348.986777 148.207554 
L 352.061157 149.831357 
L 355.135537 151.761796 
L 358.209917 152.917313 
L 361.284298 152.67096 
L 364.358678 151.181012 
L 367.433058 149.304004 
L 370.507438 148.064809 
L 373.581818 147.955004 
" style="fill:none;stroke:#550000;stroke-linecap:square;"/>
   </g>
   <g id="line2d_58">
    <path clip-path="url(#p81dd64d0dc)" d="M 69.218182 148.27092 
L 72.292562 148.420222 
L 75.366942 149.592745 
L 78.441322 151.262227 
L 81.515702 152.408348 
L 84.590083 152.309848 
L 87.664463 151.067546 
L 90.738843 149.482911 
L 93.813223 148.521158 
L 96.887603 148.752125 
L 99.961983 150.041463 
L 103.036364 151.626558 
L 106.110744 152.542239 
L 109.185124 152.180124 
L 112.259504 150.687458 
L 115.333884 148.945991 
L 118.408264 148.049715 
L 121.482645 148.583959 
L 124.557025 150.249746 
L 127.631405 152.078461 
L 130.705785 153.008048 
L 133.780165 152.471081 
L 136.854545 150.732534 
L 139.928926 148.789196 
L 143.003306 147.823686 
L 146.077686 148.475331 
L 149.152066 150.374992 
L 152.226446 152.328917 
L 155.300826 153.091254 
L 158.375207 152.172332 
L 161.449587 150.144667 
L 164.523967 148.300779 
L 167.598347 147.849827 
L 170.672727 149.109468 
L 173.747107 151.264526 
L 176.821488 152.901325 
L 179.895868 152.942522 
L 182.970248 151.357141 
L 186.044628 149.179658 
L 189.119008 147.810499 
L 192.193388 148.09341 
L 195.267769 149.818732 
L 198.342149 151.912923 
L 201.416529 153.102177 
L 204.490909 152.657971 
L 207.565289 150.83547 
L 210.639669 148.738435 
L 213.71405 147.658887 
L 216.78843 148.278466 
L 219.86281 150.228429 
L 222.93719 152.307871 
L 226.01157 153.238962 
L 229.08595 152.46338 
L 232.160331 150.467564 
L 235.234711 148.467094 
L 238.309091 147.672853 
L 241.383471 148.568795 
L 244.457851 150.619084 
L 247.532231 152.593908 
L 250.606612 153.322401 
L 253.680992 152.389565 
L 256.755372 150.350799 
L 259.829752 148.382819 
L 262.904132 147.604766 
L 265.978512 148.44542 
L 269.052893 150.409041 
L 272.127273 152.366859 
L 275.201653 153.196264 
L 278.276033 152.421741 
L 281.350413 150.51469 
L 284.424793 148.641537 
L 287.499174 147.943006 
L 290.573554 148.799148 
L 293.647934 150.611751 
L 296.722314 152.22923 
L 299.796694 152.669502 
L 302.871074 151.690246 
L 305.945455 149.914556 
L 309.019835 148.448056 
L 312.094215 148.201038 
L 315.168595 149.325239 
L 318.242975 151.118391 
L 321.317355 152.469583 
L 324.391736 152.56392 
L 327.466116 151.378537 
L 330.540496 149.666761 
L 333.614876 148.476859 
L 336.689256 148.507755 
L 339.763636 149.697544 
L 342.838017 151.308361 
L 345.912397 152.40634 
L 348.986777 152.383725 
L 352.061157 151.257449 
L 355.135537 149.654907 
L 358.209917 148.491514 
L 361.284298 148.464171 
L 364.358678 149.62335 
L 367.433058 151.30134 
L 370.507438 152.531335 
L 373.581818 152.746271 
" style="fill:none;stroke:#552b00;stroke-linecap:square;"/>
   </g>
   <g id="patch_3">
    <path d="M 54 252 
L 54 34.56 
" style="fill:none;stroke:#000000;stroke-linecap:square;stroke-linejoin:miter;stroke-width:0.8;"/>
   </g>
   <g id="patch_4">
    <path d="M 388.8 252 
L 388.8 34.56 
" style="fill:none;stroke:#000000;stroke-linecap:square;stroke-linejoin:miter;stroke-width:0.8;"/>
   </g>
   <g id="patch_5">
    <path d="M 54 252 
L 388.8 252 
" style="fill:none;stroke:#000000;stroke-linecap:square;stroke-linejoin:miter;stroke-width:0.8;"/>
   </g>
   <g id="patch_6">
    <path d="M 54 34.56 
L 388.8 34.56 
" style="fill:none;stroke:#000000;stroke-linecap:square;stroke-linejoin:miter;stroke-width:0.8;"/>
   </g>
   <g id="text_19">
    <!-- Y scaled KL modes -->
    <defs>
     <path d="M -0.203125 72.90625 
L 10.40625 72.90625 
L 30.609375 42.921875 
L 50.6875 72.90625 
L 61.28125 72.90625 
L 35.5 34.71875 
L 35.5 0 
L 25.59375 0 
L 25.59375 34.71875 
z
" id="DejaVuSans-59"/>
     <path id="DejaVuSans-20"/>
     <path d="M 44.28125 53.078125 
L 44.28125 44.578125 
Q 40.484375 46.53125 36.375 47.5 
Q 32.28125 48.484375 27.875 48.484375 
Q 21.1875 48.484375 17.84375 46.4375 
Q 14.5 44.390625 14.5 40.28125 
Q 14.5 37.15625 16.890625 35.375 
Q 19.28125 33.59375 26.515625 31.984375 
L 29.59375 31.296875 
Q 39.15625 29.25 43.1875 25.515625 
Q 47.21875 21.78125 47.21875 15.09375 
Q 47.21875 7.46875 41.1875 3.015625 
Q 35.15625 -1.421875 24.609375 -1.421875 
Q 20.21875 -1.421875 15.453125 -0.5625 
Q 10.6875 0.296875 5.421875 2 
L 5.421875 11.28125 
Q 10.40625 8.6875 15.234375 7.390625 
Q 20.0625 6.109375 24.8125 6.109375 
Q 31.15625 6.109375 34.5625 8.28125 
Q 37.984375 10.453125 37.984375 14.40625 
Q 37.984375 18.0625 35.515625 20.015625 
Q 33.0625 21.96875 24.703125 23.78125 
L 21.578125 24.515625 
Q 13.234375 26.265625 9.515625 29.90625 
Q 5.8125 33.546875 5.8125 39.890625 
Q 5.8125 47.609375 11.28125 51.796875 
Q 16.75 56 26.8125 56 
Q 31.78125 56 36.171875 55.265625 
Q 40.578125 54.546875 44.28125 53.078125 
z
" id="DejaVuSans-73"/>
     <path d="M 48.78125 52.59375 
L 48.78125 44.1875 
Q 44.96875 46.296875 41.140625 47.34375 
Q 37.3125 48.390625 33.40625 48.390625 
Q 24.65625 48.390625 19.8125 42.84375 
Q 14.984375 37.3125 14.984375 27.296875 
Q 14.984375 17.28125 19.8125 11.734375 
Q 24.65625 6.203125 33.40625 6.203125 
Q 37.3125 6.203125 41.140625 7.25 
Q 44.96875 8.296875 48.78125 10.40625 
L 48.78125 2.09375 
Q 45.015625 0.34375 40.984375 -0.53125 
Q 36.96875 -1.421875 32.421875 -1.421875 
Q 20.0625 -1.421875 12.78125 6.34375 
Q 5.515625 14.109375 5.515625 27.296875 
Q 5.515625 40.671875 12.859375 48.328125 
Q 20.21875 56 33.015625 56 
Q 37.15625 56 41.109375 55.140625 
Q 45.0625 54.296875 48.78125 52.59375 
z
" id="DejaVuSans-63"/>
     <path d="M 34.28125 27.484375 
Q 23.390625 27.484375 19.1875 25 
Q 14.984375 22.515625 14.984375 16.5 
Q 14.984375 11.71875 18.140625 8.90625 
Q 21.296875 6.109375 26.703125 6.109375 
Q 34.1875 6.109375 38.703125 11.40625 
Q 43.21875 16.703125 43.21875 25.484375 
L 43.21875 27.484375 
z
M 52.203125 31.203125 
L 52.203125 0 
L 43.21875 0 
L 43.21875 8.296875 
Q 40.140625 3.328125 35.546875 0.953125 
Q 30.953125 -1.421875 24.3125 -1.421875 
Q 15.921875 -1.421875 10.953125 3.296875 
Q 6 8.015625 6 15.921875 
Q 6 25.140625 12.171875 29.828125 
Q 18.359375 34.515625 30.609375 34.515625 
L 43.21875 34.515625 
L 43.21875 35.40625 
Q 43.21875 41.609375 39.140625 45 
Q 35.0625 48.390625 27.6875 48.390625 
Q 23 48.390625 18.546875 47.265625 
Q 14.109375 46.140625 10.015625 43.890625 
L 10.015625 52.203125 
Q 14.9375 54.109375 19.578125 55.046875 
Q 24.21875 56 28.609375 56 
Q 40.484375 56 46.34375 49.84375 
Q 52.203125 43.703125 52.203125 31.203125 
z
" id="DejaVuSans-61"/>
     <path d="M 9.421875 75.984375 
L 18.40625 75.984375 
L 18.40625 0 
L 9.421875 0 
z
" id="DejaVuSans-6c"/>
     <path d="M 56.203125 29.59375 
L 56.203125 25.203125 
L 14.890625 25.203125 
Q 15.484375 15.921875 20.484375 11.0625 
Q 25.484375 6.203125 34.421875 6.203125 
Q 39.59375 6.203125 44.453125 7.46875 
Q 49.3125 8.734375 54.109375 11.28125 
L 54.109375 2.78125 
Q 49.265625 0.734375 44.1875 -0.34375 
Q 39.109375 -1.421875 33.890625 -1.421875 
Q 20.796875 -1.421875 13.15625 6.1875 
Q 5.515625 13.8125 5.515625 26.8125 
Q 5.515625 40.234375 12.765625 48.109375 
Q 20.015625 56 32.328125 56 
Q 43.359375 56 49.78125 48.890625 
Q 56.203125 41.796875 56.203125 29.59375 
z
M 47.21875 32.234375 
Q 47.125 39.59375 43.09375 43.984375 
Q 39.0625 48.390625 32.421875 48.390625 
Q 24.90625 48.390625 20.390625 44.140625 
Q 15.875 39.890625 15.1875 32.171875 
z
" id="DejaVuSans-65"/>
     <path d="M 45.40625 46.390625 
L 45.40625 75.984375 
L 54.390625 75.984375 
L 54.390625 0 
L 45.40625 0 
L 45.40625 8.203125 
Q 42.578125 3.328125 38.25 0.953125 
Q 33.9375 -1.421875 27.875 -1.421875 
Q 17.96875 -1.421875 11.734375 6.484375 
Q 5.515625 14.40625 5.515625 27.296875 
Q 5.515625 40.1875 11.734375 48.09375 
Q 17.96875 56 27.875 56 
Q 33.9375 56 38.25 53.625 
Q 42.578125 51.265625 45.40625 46.390625 
z
M 14.796875 27.296875 
Q 14.796875 17.390625 18.875 11.75 
Q 22.953125 6.109375 30.078125 6.109375 
Q 37.203125 6.109375 41.296875 11.75 
Q 45.40625 17.390625 45.40625 27.296875 
Q 45.40625 37.203125 41.296875 42.84375 
Q 37.203125 48.484375 30.078125 48.484375 
Q 22.953125 48.484375 18.875 42.84375 
Q 14.796875 37.203125 14.796875 27.296875 
z
" id="DejaVuSans-64"/>
     <path d="M 9.8125 72.90625 
L 19.671875 72.90625 
L 19.671875 42.09375 
L 52.390625 72.90625 
L 65.09375 72.90625 
L 28.90625 38.921875 
L 67.671875 0 
L 54.6875 0 
L 19.671875 35.109375 
L 19.671875 0 
L 9.8125 0 
z
" id="DejaVuSans-4b"/>
     <path d="M 9.8125 72.90625 
L 19.671875 72.90625 
L 19.671875 8.296875 
L 55.171875 8.296875 
L 55.171875 0 
L 9.8125 0 
z
" id="DejaVuSans-4c"/>
     <path d="M 52 44.1875 
Q 55.375 50.25 60.0625 53.125 
Q 64.75 56 71.09375 56 
Q 79.640625 56 84.28125 50.015625 
Q 88.921875 44.046875 88.921875 33.015625 
L 88.921875 0 
L 79.890625 0 
L 79.890625 32.71875 
Q 79.890625 40.578125 77.09375 44.375 
Q 74.3125 48.1875 68.609375 48.1875 
Q 61.625 48.1875 57.5625 43.546875 
Q 53.515625 38.921875 53.515625 30.90625 
L 53.515625 0 
L 44.484375 0 
L 44.484375 32.71875 
Q 44.484375 40.625 41.703125 44.40625 
Q 38.921875 48.1875 33.109375 48.1875 
Q 26.21875 48.1875 22.15625 43.53125 
Q 18.109375 38.875 18.109375 30.90625 
L 18.109375 0 
L 9.078125 0 
L 9.078125 54.6875 
L 18.109375 54.6875 
L 18.109375 46.1875 
Q 21.1875 51.21875 25.484375 53.609375 
Q 29.78125 56 35.6875 56 
Q 41.65625 56 45.828125 52.96875 
Q 50 49.953125 52 44.1875 
z
" id="DejaVuSans-6d"/>
     <path d="M 30.609375 48.390625 
Q 23.390625 48.390625 19.1875 42.75 
Q 14.984375 37.109375 14.984375 27.296875 
Q 14.984375 17.484375 19.15625 11.84375 
Q 23.34375 6.203125 30.609375 6.203125 
Q 37.796875 6.203125 41.984375 11.859375 
Q 46.1875 17.53125 46.1875 27.296875 
Q 46.1875 37.015625 41.984375 42.703125 
Q 37.796875 48.390625 30.609375 48.390625 
z
M 30.609375 56 
Q 42.328125 56 49.015625 48.375 
Q 55.71875 40.765625 55.71875 27.296875 
Q 55.71875 13.875 49.015625 6.21875 
Q 42.328125 -1.421875 30.609375 -1.421875 
Q 18.84375 -1.421875 12.171875 6.21875 
Q 5.515625 13.875 5.515625 27.296875 
Q 5.515625 40.765625 12.171875 48.375 
Q 18.84375 56 30.609375 56 
z
" id="DejaVuSans-6f"/>
    </defs>
    <g transform="translate(165.325312 28.56)scale(0.12 -0.12)">
     <use xlink:href="#DejaVuSans-59"/>
     <use x="61.083984" xlink:href="#DejaVuSans-20"/>
     <use x="92.871094" xlink:href="#DejaVuSans-73"/>
     <use x="144.970703" xlink:href="#DejaVuSans-63"/>
     <use x="199.951172" xlink:href="#DejaVuSans-61"/>
     <use x="261.230469" xlink:href="#DejaVuSans-6c"/>
     <use x="289.013672" xlink:href="#DejaVuSans-65"/>
     <use x="350.537109" xlink:href="#DejaVuSans-64"/>
     <use x="414.013672" xlink:href="#DejaVuSans-20"/>
     <use x="445.800781" xlink:href="#DejaVuSans-4b"/>
     <use x="511.376953" xlink:href="#DejaVuSans-4c"/>
     <use x="567.089844" xlink:href="#DejaVuSans-20"/>
     <use x="598.876953" xlink:href="#DejaVuSans-6d"/>
     <use x="696.289062" xlink:href="#DejaVuSans-6f"/>
     <use x="757.470703" xlink:href="#DejaVuSans-64"/>
     <use x="820.947266" xlink:href="#DejaVuSans-65"/>
     <use x="882.470703" xlink:href="#DejaVuSans-73"/>
    </g>
   </g>
  </g>
 </g>
 <defs>
  <clipPath id="p81dd64d0dc">
   <rect height="217.44" width="334.8" x="54" y="34.56"/>
  </clipPath>
 </defs>
</svg>
