<?xml version="1.0" encoding="utf-8" standalone="no"?>
<!DOCTYPE svg PUBLIC "-//W3C//DTD SVG 1.1//EN"
  "http://www.w3.org/Graphics/SVG/1.1/DTD/svg11.dtd">
<!-- Created with matplotlib (http://matplotlib.org/) -->
<svg height="288pt" version="1.1" viewBox="0 0 432 288" width="432pt" xmlns="http://www.w3.org/2000/svg" xmlns:xlink="http://www.w3.org/1999/xlink">
 <defs>
  <style type="text/css">
*{stroke-linecap:butt;stroke-linejoin:round;}
  </style>
 </defs>
 <g id="figure_1">
  <g id="patch_1">
   <path d="M 0 288 
L 432 288 
L 432 0 
L 0 0 
z
" style="fill:#ffffff;"/>
  </g>
  <g id="axes_1">
   <g id="patch_2">
    <path d="M 54 252 
L 388.8 252 
L 388.8 34.56 
L 54 34.56 
z
" style="fill:#ffffff;"/>
   </g>
   <g id="matplotlib.axis_1">
    <g id="xtick_1">
     <g id="line2d_1">
      <path clip-path="url(#p6200441a0b)" d="M 69.218182 252 
L 69.218182 34.56 
" style="fill:none;stroke:#b0b0b0;stroke-linecap:square;stroke-width:0.8;"/>
     </g>
     <g id="line2d_2">
      <defs>
       <path d="M 0 0 
L 0 3.5 
" id="m9328f109cd" style="stroke:#000000;stroke-width:0.8;"/>
      </defs>
      <g>
       <use style="stroke:#000000;stroke-width:0.8;" x="69.218182" xlink:href="#m9328f109cd" y="252"/>
      </g>
     </g>
     <g id="text_1">
      <!-- 0 -->
      <defs>
       <path d="M 31.78125 66.40625 
Q 24.171875 66.40625 20.328125 58.90625 
Q 16.5 51.421875 16.5 36.375 
Q 16.5 21.390625 20.328125 13.890625 
Q 24.171875 6.390625 31.78125 6.390625 
Q 39.453125 6.390625 43.28125 13.890625 
Q 47.125 21.390625 47.125 36.375 
Q 47.125 51.421875 43.28125 58.90625 
Q 39.453125 66.40625 31.78125 66.40625 
z
M 31.78125 74.21875 
Q 44.046875 74.21875 50.515625 64.515625 
Q 56.984375 54.828125 56.984375 36.375 
Q 56.984375 17.96875 50.515625 8.265625 
Q 44.046875 -1.421875 31.78125 -1.421875 
Q 19.53125 -1.421875 13.0625 8.265625 
Q 6.59375 17.96875 6.59375 36.375 
Q 6.59375 54.828125 13.0625 64.515625 
Q 19.53125 74.21875 31.78125 74.21875 
z
" id="DejaVuSans-30"/>
      </defs>
      <g transform="translate(66.036932 266.598437)scale(0.1 -0.1)">
       <use xlink:href="#DejaVuSans-30"/>
      </g>
     </g>
    </g>
    <g id="xtick_2">
     <g id="line2d_3">
      <path clip-path="url(#p6200441a0b)" d="M 116.043357 252 
L 116.043357 34.56 
" style="fill:none;stroke:#b0b0b0;stroke-linecap:square;stroke-width:0.8;"/>
     </g>
     <g id="line2d_4">
      <g>
       <use style="stroke:#000000;stroke-width:0.8;" x="116.043357" xlink:href="#m9328f109cd" y="252"/>
      </g>
     </g>
     <g id="text_2">
      <!-- 10 -->
      <defs>
       <path d="M 12.40625 8.296875 
L 28.515625 8.296875 
L 28.515625 63.921875 
L 10.984375 60.40625 
L 10.984375 69.390625 
L 28.421875 72.90625 
L 38.28125 72.90625 
L 38.28125 8.296875 
L 54.390625 8.296875 
L 54.390625 0 
L 12.40625 0 
z
" id="DejaVuSans-31"/>
      </defs>
      <g transform="translate(109.680857 266.598437)scale(0.1 -0.1)">
       <use xlink:href="#DejaVuSans-31"/>
       <use x="63.623047" xlink:href="#DejaVuSans-30"/>
      </g>
     </g>
    </g>
    <g id="xtick_3">
     <g id="line2d_5">
      <path clip-path="url(#p6200441a0b)" d="M 162.868531 252 
L 162.868531 34.56 
" style="fill:none;stroke:#b0b0b0;stroke-linecap:square;stroke-width:0.8;"/>
     </g>
     <g id="line2d_6">
      <g>
       <use style="stroke:#000000;stroke-width:0.8;" x="162.868531" xlink:href="#m9328f109cd" y="252"/>
      </g>
     </g>
     <g id="text_3">
      <!-- 20 -->
      <defs>
       <path d="M 19.1875 8.296875 
L 53.609375 8.296875 
L 53.609375 0 
L 7.328125 0 
L 7.328125 8.296875 
Q 12.9375 14.109375 22.625 23.890625 
Q 32.328125 33.6875 34.8125 36.53125 
Q 39.546875 41.84375 41.421875 45.53125 
Q 43.3125 49.21875 43.3125 52.78125 
Q 43.3125 58.59375 39.234375 62.25 
Q 35.15625 65.921875 28.609375 65.921875 
Q 23.96875 65.921875 18.8125 64.3125 
Q 13.671875 62.703125 7.8125 59.421875 
L 7.8125 69.390625 
Q 13.765625 71.78125 18.9375 73 
Q 24.125 74.21875 28.421875 74.21875 
Q 39.75 74.21875 46.484375 68.546875 
Q 53.21875 62.890625 53.21875 53.421875 
Q 53.21875 48.921875 51.53125 44.890625 
Q 49.859375 40.875 45.40625 35.40625 
Q 44.1875 33.984375 37.640625 27.21875 
Q 31.109375 20.453125 19.1875 8.296875 
z
" id="DejaVuSans-32"/>
      </defs>
      <g transform="translate(156.506031 266.598437)scale(0.1 -0.1)">
       <use xlink:href="#DejaVuSans-32"/>
       <use x="63.623047" xlink:href="#DejaVuSans-30"/>
      </g>
     </g>
    </g>
    <g id="xtick_4">
     <g id="line2d_7">
      <path clip-path="url(#p6200441a0b)" d="M 209.693706 252 
L 209.693706 34.56 
" style="fill:none;stroke:#b0b0b0;stroke-linecap:square;stroke-width:0.8;"/>
     </g>
     <g id="line2d_8">
      <g>
       <use style="stroke:#000000;stroke-width:0.8;" x="209.693706" xlink:href="#m9328f109cd" y="252"/>
      </g>
     </g>
     <g id="text_4">
      <!-- 30 -->
      <defs>
       <path d="M 40.578125 39.3125 
Q 47.65625 37.796875 51.625 33 
Q 55.609375 28.21875 55.609375 21.1875 
Q 55.609375 10.40625 48.1875 4.484375 
Q 40.765625 -1.421875 27.09375 -1.421875 
Q 22.515625 -1.421875 17.65625 -0.515625 
Q 12.796875 0.390625 7.625 2.203125 
L 7.625 11.71875 
Q 11.71875 9.328125 16.59375 8.109375 
Q 21.484375 6.890625 26.8125 6.890625 
Q 36.078125 6.890625 40.9375 10.546875 
Q 45.796875 14.203125 45.796875 21.1875 
Q 45.796875 27.640625 41.28125 31.265625 
Q 36.765625 34.90625 28.71875 34.90625 
L 20.21875 34.90625 
L 20.21875 43.015625 
L 29.109375 43.015625 
Q 36.375 43.015625 40.234375 45.921875 
Q 44.09375 48.828125 44.09375 54.296875 
Q 44.09375 59.90625 40.109375 62.90625 
Q 36.140625 65.921875 28.71875 65.921875 
Q 24.65625 65.921875 20.015625 65.03125 
Q 15.375 64.15625 9.8125 62.3125 
L 9.8125 71.09375 
Q 15.4375 72.65625 20.34375 73.4375 
Q 25.25 74.21875 29.59375 74.21875 
Q 40.828125 74.21875 47.359375 69.109375 
Q 53.90625 64.015625 53.90625 55.328125 
Q 53.90625 49.265625 50.4375 45.09375 
Q 46.96875 40.921875 40.578125 39.3125 
z
" id="DejaVuSans-33"/>
      </defs>
      <g transform="translate(203.331206 266.598437)scale(0.1 -0.1)">
       <use xlink:href="#DejaVuSans-33"/>
       <use x="63.623047" xlink:href="#DejaVuSans-30"/>
      </g>
     </g>
    </g>
    <g id="xtick_5">
     <g id="line2d_9">
      <path clip-path="url(#p6200441a0b)" d="M 256.518881 252 
L 256.518881 34.56 
" style="fill:none;stroke:#b0b0b0;stroke-linecap:square;stroke-width:0.8;"/>
     </g>
     <g id="line2d_10">
      <g>
       <use style="stroke:#000000;stroke-width:0.8;" x="256.518881" xlink:href="#m9328f109cd" y="252"/>
      </g>
     </g>
     <g id="text_5">
      <!-- 40 -->
      <defs>
       <path d="M 37.796875 64.3125 
L 12.890625 25.390625 
L 37.796875 25.390625 
z
M 35.203125 72.90625 
L 47.609375 72.90625 
L 47.609375 25.390625 
L 58.015625 25.390625 
L 58.015625 17.1875 
L 47.609375 17.1875 
L 47.609375 0 
L 37.796875 0 
L 37.796875 17.1875 
L 4.890625 17.1875 
L 4.890625 26.703125 
z
" id="DejaVuSans-34"/>
      </defs>
      <g transform="translate(250.156381 266.598437)scale(0.1 -0.1)">
       <use xlink:href="#DejaVuSans-34"/>
       <use x="63.623047" xlink:href="#DejaVuSans-30"/>
      </g>
     </g>
    </g>
    <g id="xtick_6">
     <g id="line2d_11">
      <path clip-path="url(#p6200441a0b)" d="M 303.344056 252 
L 303.344056 34.56 
" style="fill:none;stroke:#b0b0b0;stroke-linecap:square;stroke-width:0.8;"/>
     </g>
     <g id="line2d_12">
      <g>
       <use style="stroke:#000000;stroke-width:0.8;" x="303.344056" xlink:href="#m9328f109cd" y="252"/>
      </g>
     </g>
     <g id="text_6">
      <!-- 50 -->
      <defs>
       <path d="M 10.796875 72.90625 
L 49.515625 72.90625 
L 49.515625 64.59375 
L 19.828125 64.59375 
L 19.828125 46.734375 
Q 21.96875 47.46875 24.109375 47.828125 
Q 26.265625 48.1875 28.421875 48.1875 
Q 40.625 48.1875 47.75 41.5 
Q 54.890625 34.8125 54.890625 23.390625 
Q 54.890625 11.625 47.5625 5.09375 
Q 40.234375 -1.421875 26.90625 -1.421875 
Q 22.3125 -1.421875 17.546875 -0.640625 
Q 12.796875 0.140625 7.71875 1.703125 
L 7.71875 11.625 
Q 12.109375 9.234375 16.796875 8.0625 
Q 21.484375 6.890625 26.703125 6.890625 
Q 35.15625 6.890625 40.078125 11.328125 
Q 45.015625 15.765625 45.015625 23.390625 
Q 45.015625 31 40.078125 35.4375 
Q 35.15625 39.890625 26.703125 39.890625 
Q 22.75 39.890625 18.8125 39.015625 
Q 14.890625 38.140625 10.796875 36.28125 
z
" id="DejaVuSans-35"/>
      </defs>
      <g transform="translate(296.981556 266.598437)scale(0.1 -0.1)">
       <use xlink:href="#DejaVuSans-35"/>
       <use x="63.623047" xlink:href="#DejaVuSans-30"/>
      </g>
     </g>
    </g>
    <g id="xtick_7">
     <g id="line2d_13">
      <path clip-path="url(#p6200441a0b)" d="M 350.169231 252 
L 350.169231 34.56 
" style="fill:none;stroke:#b0b0b0;stroke-linecap:square;stroke-width:0.8;"/>
     </g>
     <g id="line2d_14">
      <g>
       <use style="stroke:#000000;stroke-width:0.8;" x="350.169231" xlink:href="#m9328f109cd" y="252"/>
      </g>
     </g>
     <g id="text_7">
      <!-- 60 -->
      <defs>
       <path d="M 33.015625 40.375 
Q 26.375 40.375 22.484375 35.828125 
Q 18.609375 31.296875 18.609375 23.390625 
Q 18.609375 15.53125 22.484375 10.953125 
Q 26.375 6.390625 33.015625 6.390625 
Q 39.65625 6.390625 43.53125 10.953125 
Q 47.40625 15.53125 47.40625 23.390625 
Q 47.40625 31.296875 43.53125 35.828125 
Q 39.65625 40.375 33.015625 40.375 
z
M 52.59375 71.296875 
L 52.59375 62.3125 
Q 48.875 64.0625 45.09375 64.984375 
Q 41.3125 65.921875 37.59375 65.921875 
Q 27.828125 65.921875 22.671875 59.328125 
Q 17.53125 52.734375 16.796875 39.40625 
Q 19.671875 43.65625 24.015625 45.921875 
Q 28.375 48.1875 33.59375 48.1875 
Q 44.578125 48.1875 50.953125 41.515625 
Q 57.328125 34.859375 57.328125 23.390625 
Q 57.328125 12.15625 50.6875 5.359375 
Q 44.046875 -1.421875 33.015625 -1.421875 
Q 20.359375 -1.421875 13.671875 8.265625 
Q 6.984375 17.96875 6.984375 36.375 
Q 6.984375 53.65625 15.1875 63.9375 
Q 23.390625 74.21875 37.203125 74.21875 
Q 40.921875 74.21875 44.703125 73.484375 
Q 48.484375 72.75 52.59375 71.296875 
z
" id="DejaVuSans-36"/>
      </defs>
      <g transform="translate(343.806731 266.598437)scale(0.1 -0.1)">
       <use xlink:href="#DejaVuSans-36"/>
       <use x="63.623047" xlink:href="#DejaVuSans-30"/>
      </g>
     </g>
    </g>
    <g id="text_8">
     <!-- $k$ -->
     <defs>
      <path d="M 18.3125 75.984375 
L 27.296875 75.984375 
L 18.703125 31.6875 
L 49.515625 54.6875 
L 61.1875 54.6875 
L 26.8125 28.515625 
L 51.90625 0 
L 41.015625 0 
L 17.671875 26.703125 
L 12.5 0 
L 3.515625 0 
z
" id="DejaVuSans-Oblique-6b"/>
     </defs>
     <g transform="translate(218.5 280.276563)scale(0.1 -0.1)">
      <use transform="translate(0 0.015625)" xlink:href="#DejaVuSans-Oblique-6b"/>
     </g>
    </g>
   </g>
   <g id="matplotlib.axis_2">
    <g id="ytick_1">
     <g id="line2d_15">
      <path clip-path="url(#p6200441a0b)" d="M 54 252 
L 388.8 252 
" style="fill:none;stroke:#b0b0b0;stroke-linecap:square;stroke-width:0.8;"/>
     </g>
     <g id="line2d_16">
      <defs>
       <path d="M 0 0 
L -3.5 0 
" id="m0164665f85" style="stroke:#000000;stroke-width:0.8;"/>
      </defs>
      <g>
       <use style="stroke:#000000;stroke-width:0.8;" x="54" xlink:href="#m0164665f85" y="252"/>
      </g>
     </g>
     <g id="text_9">
      <!-- $\mathdefault{10^{-7}}$ -->
      <defs>
       <path d="M 10.59375 35.5 
L 73.1875 35.5 
L 73.1875 27.203125 
L 10.59375 27.203125 
z
" id="DejaVuSans-2212"/>
       <path d="M 8.203125 72.90625 
L 55.078125 72.90625 
L 55.078125 68.703125 
L 28.609375 0 
L 18.3125 0 
L 43.21875 64.59375 
L 8.203125 64.59375 
z
" id="DejaVuSans-37"/>
      </defs>
      <g transform="translate(23.5 255.799219)scale(0.1 -0.1)">
       <use transform="translate(0 0.684375)" xlink:href="#DejaVuSans-31"/>
       <use transform="translate(63.623047 0.684375)" xlink:href="#DejaVuSans-30"/>
       <use transform="translate(128.203125 38.965625)scale(0.7)" xlink:href="#DejaVuSans-2212"/>
       <use transform="translate(186.855469 38.965625)scale(0.7)" xlink:href="#DejaVuSans-37"/>
      </g>
     </g>
    </g>
    <g id="ytick_2">
     <g id="line2d_17">
      <path clip-path="url(#p6200441a0b)" d="M 54 220.53558 
L 388.8 220.53558 
" style="fill:none;stroke:#b0b0b0;stroke-linecap:square;stroke-width:0.8;"/>
     </g>
     <g id="line2d_18">
      <g>
       <use style="stroke:#000000;stroke-width:0.8;" x="54" xlink:href="#m0164665f85" y="220.53558"/>
      </g>
     </g>
     <g id="text_10">
      <!-- $\mathdefault{10^{-6}}$ -->
      <g transform="translate(23.5 224.334798)scale(0.1 -0.1)">
       <use transform="translate(0 0.765625)" xlink:href="#DejaVuSans-31"/>
       <use transform="translate(63.623047 0.765625)" xlink:href="#DejaVuSans-30"/>
       <use transform="translate(128.203125 39.046875)scale(0.7)" xlink:href="#DejaVuSans-2212"/>
       <use transform="translate(186.855469 39.046875)scale(0.7)" xlink:href="#DejaVuSans-36"/>
      </g>
     </g>
    </g>
    <g id="ytick_3">
     <g id="line2d_19">
      <path clip-path="url(#p6200441a0b)" d="M 54 189.071159 
L 388.8 189.071159 
" style="fill:none;stroke:#b0b0b0;stroke-linecap:square;stroke-width:0.8;"/>
     </g>
     <g id="line2d_20">
      <g>
       <use style="stroke:#000000;stroke-width:0.8;" x="54" xlink:href="#m0164665f85" y="189.071159"/>
      </g>
     </g>
     <g id="text_11">
      <!-- $\mathdefault{10^{-5}}$ -->
      <g transform="translate(23.5 192.870378)scale(0.1 -0.1)">
       <use transform="translate(0 0.684375)" xlink:href="#DejaVuSans-31"/>
       <use transform="translate(63.623047 0.684375)" xlink:href="#DejaVuSans-30"/>
       <use transform="translate(128.203125 38.965625)scale(0.7)" xlink:href="#DejaVuSans-2212"/>
       <use transform="translate(186.855469 38.965625)scale(0.7)" xlink:href="#DejaVuSans-35"/>
      </g>
     </g>
    </g>
    <g id="ytick_4">
     <g id="line2d_21">
      <path clip-path="url(#p6200441a0b)" d="M 54 157.606739 
L 388.8 157.606739 
" style="fill:none;stroke:#b0b0b0;stroke-linecap:square;stroke-width:0.8;"/>
     </g>
     <g id="line2d_22">
      <g>
       <use style="stroke:#000000;stroke-width:0.8;" x="54" xlink:href="#m0164665f85" y="157.606739"/>
      </g>
     </g>
     <g id="text_12">
      <!-- $\mathdefault{10^{-4}}$ -->
      <g transform="translate(23.5 161.405958)scale(0.1 -0.1)">
       <use transform="translate(0 0.684375)" xlink:href="#DejaVuSans-31"/>
       <use transform="translate(63.623047 0.684375)" xlink:href="#DejaVuSans-30"/>
       <use transform="translate(128.203125 38.965625)scale(0.7)" xlink:href="#DejaVuSans-2212"/>
       <use transform="translate(186.855469 38.965625)scale(0.7)" xlink:href="#DejaVuSans-34"/>
      </g>
     </g>
    </g>
    <g id="ytick_5">
     <g id="line2d_23">
      <path clip-path="url(#p6200441a0b)" d="M 54 126.142319 
L 388.8 126.142319 
" style="fill:none;stroke:#b0b0b0;stroke-linecap:square;stroke-width:0.8;"/>
     </g>
     <g id="line2d_24">
      <g>
       <use style="stroke:#000000;stroke-width:0.8;" x="54" xlink:href="#m0164665f85" y="126.142319"/>
      </g>
     </g>
     <g id="text_13">
      <!-- $\mathdefault{10^{-3}}$ -->
      <g transform="translate(23.5 129.941537)scale(0.1 -0.1)">
       <use transform="translate(0 0.765625)" xlink:href="#DejaVuSans-31"/>
       <use transform="translate(63.623047 0.765625)" xlink:href="#DejaVuSans-30"/>
       <use transform="translate(128.203125 39.046875)scale(0.7)" xlink:href="#DejaVuSans-2212"/>
       <use transform="translate(186.855469 39.046875)scale(0.7)" xlink:href="#DejaVuSans-33"/>
      </g>
     </g>
    </g>
    <g id="ytick_6">
     <g id="line2d_25">
      <path clip-path="url(#p6200441a0b)" d="M 54 94.677898 
L 388.8 94.677898 
" style="fill:none;stroke:#b0b0b0;stroke-linecap:square;stroke-width:0.8;"/>
     </g>
     <g id="line2d_26">
      <g>
       <use style="stroke:#000000;stroke-width:0.8;" x="54" xlink:href="#m0164665f85" y="94.677898"/>
      </g>
     </g>
     <g id="text_14">
      <!-- $\mathdefault{10^{-2}}$ -->
      <g transform="translate(23.5 98.477117)scale(0.1 -0.1)">
       <use transform="translate(0 0.765625)" xlink:href="#DejaVuSans-31"/>
       <use transform="translate(63.623047 0.765625)" xlink:href="#DejaVuSans-30"/>
       <use transform="translate(128.203125 39.046875)scale(0.7)" xlink:href="#DejaVuSans-2212"/>
       <use transform="translate(186.855469 39.046875)scale(0.7)" xlink:href="#DejaVuSans-32"/>
      </g>
     </g>
    </g>
    <g id="ytick_7">
     <g id="line2d_27">
      <path clip-path="url(#p6200441a0b)" d="M 54 63.213478 
L 388.8 63.213478 
" style="fill:none;stroke:#b0b0b0;stroke-linecap:square;stroke-width:0.8;"/>
     </g>
     <g id="line2d_28">
      <g>
       <use style="stroke:#000000;stroke-width:0.8;" x="54" xlink:href="#m0164665f85" y="63.213478"/>
      </g>
     </g>
     <g id="text_15">
      <!-- $\mathdefault{10^{-1}}$ -->
      <g transform="translate(23.5 67.012697)scale(0.1 -0.1)">
       <use transform="translate(0 0.684375)" xlink:href="#DejaVuSans-31"/>
       <use transform="translate(63.623047 0.684375)" xlink:href="#DejaVuSans-30"/>
       <use transform="translate(128.203125 38.965625)scale(0.7)" xlink:href="#DejaVuSans-2212"/>
       <use transform="translate(186.855469 38.965625)scale(0.7)" xlink:href="#DejaVuSans-31"/>
      </g>
     </g>
    </g>
    <g id="ytick_8">
     <g id="line2d_29">
      <defs>
       <path d="M 0 0 
L -2 0 
" id="md9a339a576" style="stroke:#000000;stroke-width:0.6;"/>
      </defs>
      <g>
       <use style="stroke:#000000;stroke-width:0.6;" x="54" xlink:href="#md9a339a576" y="242.528266"/>
      </g>
     </g>
    </g>
    <g id="ytick_9">
     <g id="line2d_30">
      <g>
       <use style="stroke:#000000;stroke-width:0.6;" x="54" xlink:href="#md9a339a576" y="236.987656"/>
      </g>
     </g>
    </g>
    <g id="ytick_10">
     <g id="line2d_31">
      <g>
       <use style="stroke:#000000;stroke-width:0.6;" x="54" xlink:href="#md9a339a576" y="233.056531"/>
      </g>
     </g>
    </g>
    <g id="ytick_11">
     <g id="line2d_32">
      <g>
       <use style="stroke:#000000;stroke-width:0.6;" x="54" xlink:href="#md9a339a576" y="230.007314"/>
      </g>
     </g>
    </g>
    <g id="ytick_12">
     <g id="line2d_33">
      <g>
       <use style="stroke:#000000;stroke-width:0.6;" x="54" xlink:href="#md9a339a576" y="227.515922"/>
      </g>
     </g>
    </g>
    <g id="ytick_13">
     <g id="line2d_34">
      <g>
       <use style="stroke:#000000;stroke-width:0.6;" x="54" xlink:href="#md9a339a576" y="225.40948"/>
      </g>
     </g>
    </g>
    <g id="ytick_14">
     <g id="line2d_35">
      <g>
       <use style="stroke:#000000;stroke-width:0.6;" x="54" xlink:href="#md9a339a576" y="223.584797"/>
      </g>
     </g>
    </g>
    <g id="ytick_15">
     <g id="line2d_36">
      <g>
       <use style="stroke:#000000;stroke-width:0.6;" x="54" xlink:href="#md9a339a576" y="221.975313"/>
      </g>
     </g>
    </g>
    <g id="ytick_16">
     <g id="line2d_37">
      <g>
       <use style="stroke:#000000;stroke-width:0.6;" x="54" xlink:href="#md9a339a576" y="211.063845"/>
      </g>
     </g>
    </g>
    <g id="ytick_17">
     <g id="line2d_38">
      <g>
       <use style="stroke:#000000;stroke-width:0.6;" x="54" xlink:href="#md9a339a576" y="205.523236"/>
      </g>
     </g>
    </g>
    <g id="ytick_18">
     <g id="line2d_39">
      <g>
       <use style="stroke:#000000;stroke-width:0.6;" x="54" xlink:href="#md9a339a576" y="201.592111"/>
      </g>
     </g>
    </g>
    <g id="ytick_19">
     <g id="line2d_40">
      <g>
       <use style="stroke:#000000;stroke-width:0.6;" x="54" xlink:href="#md9a339a576" y="198.542894"/>
      </g>
     </g>
    </g>
    <g id="ytick_20">
     <g id="line2d_41">
      <g>
       <use style="stroke:#000000;stroke-width:0.6;" x="54" xlink:href="#md9a339a576" y="196.051502"/>
      </g>
     </g>
    </g>
    <g id="ytick_21">
     <g id="line2d_42">
      <g>
       <use style="stroke:#000000;stroke-width:0.6;" x="54" xlink:href="#md9a339a576" y="193.94506"/>
      </g>
     </g>
    </g>
    <g id="ytick_22">
     <g id="line2d_43">
      <g>
       <use style="stroke:#000000;stroke-width:0.6;" x="54" xlink:href="#md9a339a576" y="192.120377"/>
      </g>
     </g>
    </g>
    <g id="ytick_23">
     <g id="line2d_44">
      <g>
       <use style="stroke:#000000;stroke-width:0.6;" x="54" xlink:href="#md9a339a576" y="190.510892"/>
      </g>
     </g>
    </g>
    <g id="ytick_24">
     <g id="line2d_45">
      <g>
       <use style="stroke:#000000;stroke-width:0.6;" x="54" xlink:href="#md9a339a576" y="179.599425"/>
      </g>
     </g>
    </g>
    <g id="ytick_25">
     <g id="line2d_46">
      <g>
       <use style="stroke:#000000;stroke-width:0.6;" x="54" xlink:href="#md9a339a576" y="174.058816"/>
      </g>
     </g>
    </g>
    <g id="ytick_26">
     <g id="line2d_47">
      <g>
       <use style="stroke:#000000;stroke-width:0.6;" x="54" xlink:href="#md9a339a576" y="170.127691"/>
      </g>
     </g>
    </g>
    <g id="ytick_27">
     <g id="line2d_48">
      <g>
       <use style="stroke:#000000;stroke-width:0.6;" x="54" xlink:href="#md9a339a576" y="167.078473"/>
      </g>
     </g>
    </g>
    <g id="ytick_28">
     <g id="line2d_49">
      <g>
       <use style="stroke:#000000;stroke-width:0.6;" x="54" xlink:href="#md9a339a576" y="164.587081"/>
      </g>
     </g>
    </g>
    <g id="ytick_29">
     <g id="line2d_50">
      <g>
       <use style="stroke:#000000;stroke-width:0.6;" x="54" xlink:href="#md9a339a576" y="162.480639"/>
      </g>
     </g>
    </g>
    <g id="ytick_30">
     <g id="line2d_51">
      <g>
       <use style="stroke:#000000;stroke-width:0.6;" x="54" xlink:href="#md9a339a576" y="160.655956"/>
      </g>
     </g>
    </g>
    <g id="ytick_31">
     <g id="line2d_52">
      <g>
       <use style="stroke:#000000;stroke-width:0.6;" x="54" xlink:href="#md9a339a576" y="159.046472"/>
      </g>
     </g>
    </g>
    <g id="ytick_32">
     <g id="line2d_53">
      <g>
       <use style="stroke:#000000;stroke-width:0.6;" x="54" xlink:href="#md9a339a576" y="148.135005"/>
      </g>
     </g>
    </g>
    <g id="ytick_33">
     <g id="line2d_54">
      <g>
       <use style="stroke:#000000;stroke-width:0.6;" x="54" xlink:href="#md9a339a576" y="142.594395"/>
      </g>
     </g>
    </g>
    <g id="ytick_34">
     <g id="line2d_55">
      <g>
       <use style="stroke:#000000;stroke-width:0.6;" x="54" xlink:href="#md9a339a576" y="138.66327"/>
      </g>
     </g>
    </g>
    <g id="ytick_35">
     <g id="line2d_56">
      <g>
       <use style="stroke:#000000;stroke-width:0.6;" x="54" xlink:href="#md9a339a576" y="135.614053"/>
      </g>
     </g>
    </g>
    <g id="ytick_36">
     <g id="line2d_57">
      <g>
       <use style="stroke:#000000;stroke-width:0.6;" x="54" xlink:href="#md9a339a576" y="133.122661"/>
      </g>
     </g>
    </g>
    <g id="ytick_37">
     <g id="line2d_58">
      <g>
       <use style="stroke:#000000;stroke-width:0.6;" x="54" xlink:href="#md9a339a576" y="131.016219"/>
      </g>
     </g>
    </g>
    <g id="ytick_38">
     <g id="line2d_59">
      <g>
       <use style="stroke:#000000;stroke-width:0.6;" x="54" xlink:href="#md9a339a576" y="129.191536"/>
      </g>
     </g>
    </g>
    <g id="ytick_39">
     <g id="line2d_60">
      <g>
       <use style="stroke:#000000;stroke-width:0.6;" x="54" xlink:href="#md9a339a576" y="127.582052"/>
      </g>
     </g>
    </g>
    <g id="ytick_40">
     <g id="line2d_61">
      <g>
       <use style="stroke:#000000;stroke-width:0.6;" x="54" xlink:href="#md9a339a576" y="116.670584"/>
      </g>
     </g>
    </g>
    <g id="ytick_41">
     <g id="line2d_62">
      <g>
       <use style="stroke:#000000;stroke-width:0.6;" x="54" xlink:href="#md9a339a576" y="111.129975"/>
      </g>
     </g>
    </g>
    <g id="ytick_42">
     <g id="line2d_63">
      <g>
       <use style="stroke:#000000;stroke-width:0.6;" x="54" xlink:href="#md9a339a576" y="107.19885"/>
      </g>
     </g>
    </g>
    <g id="ytick_43">
     <g id="line2d_64">
      <g>
       <use style="stroke:#000000;stroke-width:0.6;" x="54" xlink:href="#md9a339a576" y="104.149633"/>
      </g>
     </g>
    </g>
    <g id="ytick_44">
     <g id="line2d_65">
      <g>
       <use style="stroke:#000000;stroke-width:0.6;" x="54" xlink:href="#md9a339a576" y="101.658241"/>
      </g>
     </g>
    </g>
    <g id="ytick_45">
     <g id="line2d_66">
      <g>
       <use style="stroke:#000000;stroke-width:0.6;" x="54" xlink:href="#md9a339a576" y="99.551799"/>
      </g>
     </g>
    </g>
    <g id="ytick_46">
     <g id="line2d_67">
      <g>
       <use style="stroke:#000000;stroke-width:0.6;" x="54" xlink:href="#md9a339a576" y="97.727116"/>
      </g>
     </g>
    </g>
    <g id="ytick_47">
     <g id="line2d_68">
      <g>
       <use style="stroke:#000000;stroke-width:0.6;" x="54" xlink:href="#md9a339a576" y="96.117631"/>
      </g>
     </g>
    </g>
    <g id="ytick_48">
     <g id="line2d_69">
      <g>
       <use style="stroke:#000000;stroke-width:0.6;" x="54" xlink:href="#md9a339a576" y="85.206164"/>
      </g>
     </g>
    </g>
    <g id="ytick_49">
     <g id="line2d_70">
      <g>
       <use style="stroke:#000000;stroke-width:0.6;" x="54" xlink:href="#md9a339a576" y="79.665555"/>
      </g>
     </g>
    </g>
    <g id="ytick_50">
     <g id="line2d_71">
      <g>
       <use style="stroke:#000000;stroke-width:0.6;" x="54" xlink:href="#md9a339a576" y="75.73443"/>
      </g>
     </g>
    </g>
    <g id="ytick_51">
     <g id="line2d_72">
      <g>
       <use style="stroke:#000000;stroke-width:0.6;" x="54" xlink:href="#md9a339a576" y="72.685212"/>
      </g>
     </g>
    </g>
    <g id="ytick_52">
     <g id="line2d_73">
      <g>
       <use style="stroke:#000000;stroke-width:0.6;" x="54" xlink:href="#md9a339a576" y="70.19382"/>
      </g>
     </g>
    </g>
    <g id="ytick_53">
     <g id="line2d_74">
      <g>
       <use style="stroke:#000000;stroke-width:0.6;" x="54" xlink:href="#md9a339a576" y="68.087378"/>
      </g>
     </g>
    </g>
    <g id="ytick_54">
     <g id="line2d_75">
      <g>
       <use style="stroke:#000000;stroke-width:0.6;" x="54" xlink:href="#md9a339a576" y="66.262695"/>
      </g>
     </g>
    </g>
    <g id="ytick_55">
     <g id="line2d_76">
      <g>
       <use style="stroke:#000000;stroke-width:0.6;" x="54" xlink:href="#md9a339a576" y="64.653211"/>
      </g>
     </g>
    </g>
    <g id="ytick_56">
     <g id="line2d_77">
      <g>
       <use style="stroke:#000000;stroke-width:0.6;" x="54" xlink:href="#md9a339a576" y="53.741744"/>
      </g>
     </g>
    </g>
    <g id="ytick_57">
     <g id="line2d_78">
      <g>
       <use style="stroke:#000000;stroke-width:0.6;" x="54" xlink:href="#md9a339a576" y="48.201134"/>
      </g>
     </g>
    </g>
    <g id="ytick_58">
     <g id="line2d_79">
      <g>
       <use style="stroke:#000000;stroke-width:0.6;" x="54" xlink:href="#md9a339a576" y="44.270009"/>
      </g>
     </g>
    </g>
    <g id="ytick_59">
     <g id="line2d_80">
      <g>
       <use style="stroke:#000000;stroke-width:0.6;" x="54" xlink:href="#md9a339a576" y="41.220792"/>
      </g>
     </g>
    </g>
    <g id="ytick_60">
     <g id="line2d_81">
      <g>
       <use style="stroke:#000000;stroke-width:0.6;" x="54" xlink:href="#md9a339a576" y="38.7294"/>
      </g>
     </g>
    </g>
    <g id="ytick_61">
     <g id="line2d_82">
      <g>
       <use style="stroke:#000000;stroke-width:0.6;" x="54" xlink:href="#md9a339a576" y="36.622958"/>
      </g>
     </g>
    </g>
    <g id="ytick_62">
     <g id="line2d_83">
      <g>
       <use style="stroke:#000000;stroke-width:0.6;" x="54" xlink:href="#md9a339a576" y="34.798275"/>
      </g>
     </g>
    </g>
    <g id="text_16">
     <!-- $\lambda_X, \lambda_Y$ -->
     <defs>
      <path d="M 36.71875 67.4375 
L 48.828125 0 
L 39.3125 0 
L 31.84375 40.4375 
L 5.125 0 
L -4.390625 0 
L 29.734375 52.4375 
L 28.03125 62.109375 
Q 26.953125 68.265625 21.734375 68.265625 
L 17.046875 68.265625 
L 18.5 75.984375 
L 24.21875 75.875 
Q 35.203125 75.734375 36.71875 67.4375 
z
" id="DejaVuSans-Oblique-3bb"/>
      <path d="M 13.71875 72.90625 
L 23.6875 72.90625 
L 36.1875 46.578125 
L 58.796875 72.90625 
L 70.3125 72.90625 
L 40.28125 38.09375 
L 58.40625 0 
L 48.484375 0 
L 33.796875 30.71875 
L 7.171875 0 
L -4.296875 0 
L 29.78125 39.203125 
z
" id="DejaVuSans-Oblique-58"/>
      <path d="M 11.71875 12.40625 
L 22.015625 12.40625 
L 22.015625 4 
L 14.015625 -11.625 
L 7.71875 -11.625 
L 11.71875 4 
z
" id="DejaVuSans-2c"/>
      <path d="M 6.296875 72.90625 
L 16.890625 72.90625 
L 30.515625 42.921875 
L 56.5 72.90625 
L 67.578125 72.90625 
L 34.515625 34.71875 
L 27.78125 0 
L 17.921875 0 
L 24.609375 34.71875 
z
" id="DejaVuSans-Oblique-59"/>
     </defs>
     <g transform="translate(17.420313 156.58)rotate(-90)scale(0.1 -0.1)">
      <use transform="translate(0 0.015625)" xlink:href="#DejaVuSans-Oblique-3bb"/>
      <use transform="translate(59.179688 -16.390625)scale(0.7)" xlink:href="#DejaVuSans-Oblique-58"/>
      <use transform="translate(109.868164 0.015625)" xlink:href="#DejaVuSans-2c"/>
      <use transform="translate(161.137695 0.015625)" xlink:href="#DejaVuSans-Oblique-3bb"/>
      <use transform="translate(220.317383 -16.390625)scale(0.7)" xlink:href="#DejaVuSans-Oblique-59"/>
     </g>
    </g>
   </g>
   <g id="line2d_84">
    <path clip-path="url(#p6200441a0b)" d="M 69.218182 35.226472 
L 73.900699 43.18929 
L 78.583217 51.745176 
L 83.265734 59.236571 
L 87.948252 65.515001 
L 92.630769 70.800584 
L 97.313287 75.321129 
L 101.995804 79.252123 
L 106.678322 82.721551 
L 111.360839 85.822712 
L 116.043357 88.624641 
L 120.725874 91.179406 
L 125.408392 93.52703 
L 130.090909 95.698837 
L 134.773427 97.719741 
L 139.455944 99.609853 
L 144.138462 101.385619 
L 148.820979 103.060648 
L 153.503497 104.64632 
L 158.186014 106.152244 
L 162.868531 107.586601 
L 167.551049 108.956413 
L 172.233566 110.267747 
L 176.916084 111.525884 
L 181.598601 112.73544 
L 186.281119 113.900481 
L 190.963636 115.024598 
L 195.646154 116.11098 
L 200.328671 117.162474 
L 205.011189 118.181626 
L 209.693706 119.170723 
L 214.376224 120.131828 
L 219.058741 121.066804 
L 223.741259 121.977339 
L 228.423776 122.864969 
L 233.106294 123.73109 
L 237.788811 124.576976 
L 242.471329 125.403791 
L 247.153846 126.2126 
L 251.836364 127.004377 
L 256.518881 127.780019 
L 261.201399 128.540344 
L 265.883916 129.286105 
L 270.566434 130.017993 
L 275.248951 130.73664 
L 279.931469 131.442625 
L 284.613986 132.13648 
L 289.296503 132.818688 
L 293.979021 133.489691 
L 298.661538 134.149887 
L 303.344056 134.799638 
L 308.026573 135.439268 
L 312.709091 136.069066 
L 317.391608 136.689287 
L 322.074126 137.300152 
L 326.756643 137.901854 
L 331.439161 138.494551 
L 336.121678 139.078372 
L 340.804196 139.653419 
L 345.486713 140.21976 
L 350.169231 140.777439 
L 354.851748 141.326468 
L 359.534266 141.866832 
L 364.216783 142.398489 
L 368.899301 142.921366 
L 373.581818 143.435364 
" style="fill:none;stroke:#0000ff;stroke-linecap:square;"/>
   </g>
   <g id="line2d_85">
    <defs>
     <path d="M -3 0 
L 3 0 
M 0 3 
L 0 -3 
" id="m3a32635b54" style="stroke:#0000ff;"/>
    </defs>
    <g clip-path="url(#p6200441a0b)">
     <use style="fill:#0000ff;stroke:#0000ff;" x="69.218182" xlink:href="#m3a32635b54" y="35.226472"/>
     <use style="fill:#0000ff;stroke:#0000ff;" x="73.900699" xlink:href="#m3a32635b54" y="43.18929"/>
     <use style="fill:#0000ff;stroke:#0000ff;" x="78.583217" xlink:href="#m3a32635b54" y="51.745176"/>
     <use style="fill:#0000ff;stroke:#0000ff;" x="83.265734" xlink:href="#m3a32635b54" y="59.236571"/>
     <use style="fill:#0000ff;stroke:#0000ff;" x="87.948252" xlink:href="#m3a32635b54" y="65.515001"/>
     <use style="fill:#0000ff;stroke:#0000ff;" x="92.630769" xlink:href="#m3a32635b54" y="70.800584"/>
     <use style="fill:#0000ff;stroke:#0000ff;" x="97.313287" xlink:href="#m3a32635b54" y="75.321129"/>
     <use style="fill:#0000ff;stroke:#0000ff;" x="101.995804" xlink:href="#m3a32635b54" y="79.252123"/>
     <use style="fill:#0000ff;stroke:#0000ff;" x="106.678322" xlink:href="#m3a32635b54" y="82.721551"/>
     <use style="fill:#0000ff;stroke:#0000ff;" x="111.360839" xlink:href="#m3a32635b54" y="85.822712"/>
     <use style="fill:#0000ff;stroke:#0000ff;" x="116.043357" xlink:href="#m3a32635b54" y="88.624641"/>
     <use style="fill:#0000ff;stroke:#0000ff;" x="120.725874" xlink:href="#m3a32635b54" y="91.179406"/>
     <use style="fill:#0000ff;stroke:#0000ff;" x="125.408392" xlink:href="#m3a32635b54" y="93.52703"/>
     <use style="fill:#0000ff;stroke:#0000ff;" x="130.090909" xlink:href="#m3a32635b54" y="95.698837"/>
     <use style="fill:#0000ff;stroke:#0000ff;" x="134.773427" xlink:href="#m3a32635b54" y="97.719741"/>
     <use style="fill:#0000ff;stroke:#0000ff;" x="139.455944" xlink:href="#m3a32635b54" y="99.609853"/>
     <use style="fill:#0000ff;stroke:#0000ff;" x="144.138462" xlink:href="#m3a32635b54" y="101.385619"/>
     <use style="fill:#0000ff;stroke:#0000ff;" x="148.820979" xlink:href="#m3a32635b54" y="103.060648"/>
     <use style="fill:#0000ff;stroke:#0000ff;" x="153.503497" xlink:href="#m3a32635b54" y="104.64632"/>
     <use style="fill:#0000ff;stroke:#0000ff;" x="158.186014" xlink:href="#m3a32635b54" y="106.152244"/>
     <use style="fill:#0000ff;stroke:#0000ff;" x="162.868531" xlink:href="#m3a32635b54" y="107.586601"/>
     <use style="fill:#0000ff;stroke:#0000ff;" x="167.551049" xlink:href="#m3a32635b54" y="108.956413"/>
     <use style="fill:#0000ff;stroke:#0000ff;" x="172.233566" xlink:href="#m3a32635b54" y="110.267747"/>
     <use style="fill:#0000ff;stroke:#0000ff;" x="176.916084" xlink:href="#m3a32635b54" y="111.525884"/>
     <use style="fill:#0000ff;stroke:#0000ff;" x="181.598601" xlink:href="#m3a32635b54" y="112.73544"/>
     <use style="fill:#0000ff;stroke:#0000ff;" x="186.281119" xlink:href="#m3a32635b54" y="113.900481"/>
     <use style="fill:#0000ff;stroke:#0000ff;" x="190.963636" xlink:href="#m3a32635b54" y="115.024598"/>
     <use style="fill:#0000ff;stroke:#0000ff;" x="195.646154" xlink:href="#m3a32635b54" y="116.11098"/>
     <use style="fill:#0000ff;stroke:#0000ff;" x="200.328671" xlink:href="#m3a32635b54" y="117.162474"/>
     <use style="fill:#0000ff;stroke:#0000ff;" x="205.011189" xlink:href="#m3a32635b54" y="118.181626"/>
     <use style="fill:#0000ff;stroke:#0000ff;" x="209.693706" xlink:href="#m3a32635b54" y="119.170723"/>
     <use style="fill:#0000ff;stroke:#0000ff;" x="214.376224" xlink:href="#m3a32635b54" y="120.131828"/>
     <use style="fill:#0000ff;stroke:#0000ff;" x="219.058741" xlink:href="#m3a32635b54" y="121.066804"/>
     <use style="fill:#0000ff;stroke:#0000ff;" x="223.741259" xlink:href="#m3a32635b54" y="121.977339"/>
     <use style="fill:#0000ff;stroke:#0000ff;" x="228.423776" xlink:href="#m3a32635b54" y="122.864969"/>
     <use style="fill:#0000ff;stroke:#0000ff;" x="233.106294" xlink:href="#m3a32635b54" y="123.73109"/>
     <use style="fill:#0000ff;stroke:#0000ff;" x="237.788811" xlink:href="#m3a32635b54" y="124.576976"/>
     <use style="fill:#0000ff;stroke:#0000ff;" x="242.471329" xlink:href="#m3a32635b54" y="125.403791"/>
     <use style="fill:#0000ff;stroke:#0000ff;" x="247.153846" xlink:href="#m3a32635b54" y="126.2126"/>
     <use style="fill:#0000ff;stroke:#0000ff;" x="251.836364" xlink:href="#m3a32635b54" y="127.004377"/>
     <use style="fill:#0000ff;stroke:#0000ff;" x="256.518881" xlink:href="#m3a32635b54" y="127.780019"/>
     <use style="fill:#0000ff;stroke:#0000ff;" x="261.201399" xlink:href="#m3a32635b54" y="128.540344"/>
     <use style="fill:#0000ff;stroke:#0000ff;" x="265.883916" xlink:href="#m3a32635b54" y="129.286105"/>
     <use style="fill:#0000ff;stroke:#0000ff;" x="270.566434" xlink:href="#m3a32635b54" y="130.017993"/>
     <use style="fill:#0000ff;stroke:#0000ff;" x="275.248951" xlink:href="#m3a32635b54" y="130.73664"/>
     <use style="fill:#0000ff;stroke:#0000ff;" x="279.931469" xlink:href="#m3a32635b54" y="131.442625"/>
     <use style="fill:#0000ff;stroke:#0000ff;" x="284.613986" xlink:href="#m3a32635b54" y="132.13648"/>
     <use style="fill:#0000ff;stroke:#0000ff;" x="289.296503" xlink:href="#m3a32635b54" y="132.818688"/>
     <use style="fill:#0000ff;stroke:#0000ff;" x="293.979021" xlink:href="#m3a32635b54" y="133.489691"/>
     <use style="fill:#0000ff;stroke:#0000ff;" x="298.661538" xlink:href="#m3a32635b54" y="134.149887"/>
     <use style="fill:#0000ff;stroke:#0000ff;" x="303.344056" xlink:href="#m3a32635b54" y="134.799638"/>
     <use style="fill:#0000ff;stroke:#0000ff;" x="308.026573" xlink:href="#m3a32635b54" y="135.439268"/>
     <use style="fill:#0000ff;stroke:#0000ff;" x="312.709091" xlink:href="#m3a32635b54" y="136.069066"/>
     <use style="fill:#0000ff;stroke:#0000ff;" x="317.391608" xlink:href="#m3a32635b54" y="136.689287"/>
     <use style="fill:#0000ff;stroke:#0000ff;" x="322.074126" xlink:href="#m3a32635b54" y="137.300152"/>
     <use style="fill:#0000ff;stroke:#0000ff;" x="326.756643" xlink:href="#m3a32635b54" y="137.901854"/>
     <use style="fill:#0000ff;stroke:#0000ff;" x="331.439161" xlink:href="#m3a32635b54" y="138.494551"/>
     <use style="fill:#0000ff;stroke:#0000ff;" x="336.121678" xlink:href="#m3a32635b54" y="139.078372"/>
     <use style="fill:#0000ff;stroke:#0000ff;" x="340.804196" xlink:href="#m3a32635b54" y="139.653419"/>
     <use style="fill:#0000ff;stroke:#0000ff;" x="345.486713" xlink:href="#m3a32635b54" y="140.21976"/>
     <use style="fill:#0000ff;stroke:#0000ff;" x="350.169231" xlink:href="#m3a32635b54" y="140.777439"/>
     <use style="fill:#0000ff;stroke:#0000ff;" x="354.851748" xlink:href="#m3a32635b54" y="141.326468"/>
     <use style="fill:#0000ff;stroke:#0000ff;" x="359.534266" xlink:href="#m3a32635b54" y="141.866832"/>
     <use style="fill:#0000ff;stroke:#0000ff;" x="364.216783" xlink:href="#m3a32635b54" y="142.398489"/>
     <use style="fill:#0000ff;stroke:#0000ff;" x="368.899301" xlink:href="#m3a32635b54" y="142.921366"/>
     <use style="fill:#0000ff;stroke:#0000ff;" x="373.581818" xlink:href="#m3a32635b54" y="143.435364"/>
    </g>
   </g>
   <g id="line2d_86">
    <path clip-path="url(#p6200441a0b)" d="M 69.218182 101.788471 
L 73.900699 110.1849 
L 78.583217 118.801194 
L 83.265734 126.828328 
L 87.948252 134.481866 
L 92.630769 139.380497 
L 97.313287 143.798255 
L 101.995804 148.277589 
L 106.678322 152.395606 
L 111.360839 156.666646 
L 116.043357 159.895299 
L 120.725874 164.006349 
L 125.408392 166.593362 
L 130.090909 169.704064 
L 134.773427 172.975634 
L 139.455944 176.796129 
L 144.138462 179.841715 
L 148.820979 183.644415 
L 153.503497 187.454171 
L 158.186014 190.091099 
L 162.868531 192.290333 
L 167.551049 195.496029 
L 172.233566 199.630329 
L 176.916084 202.281309 
L 181.598601 205.677966 
L 186.281119 208.378237 
" style="fill:none;stroke:#ff0000;stroke-linecap:square;"/>
   </g>
   <g id="line2d_87">
    <defs>
     <path d="M -3 0 
L 3 0 
M 0 3 
L 0 -3 
" id="mf0b328f371" style="stroke:#ff0000;"/>
    </defs>
    <g clip-path="url(#p6200441a0b)">
     <use style="fill:#ff0000;stroke:#ff0000;" x="69.218182" xlink:href="#mf0b328f371" y="101.788471"/>
     <use style="fill:#ff0000;stroke:#ff0000;" x="73.900699" xlink:href="#mf0b328f371" y="110.1849"/>
     <use style="fill:#ff0000;stroke:#ff0000;" x="78.583217" xlink:href="#mf0b328f371" y="118.801194"/>
     <use style="fill:#ff0000;stroke:#ff0000;" x="83.265734" xlink:href="#mf0b328f371" y="126.828328"/>
     <use style="fill:#ff0000;stroke:#ff0000;" x="87.948252" xlink:href="#mf0b328f371" y="134.481866"/>
     <use style="fill:#ff0000;stroke:#ff0000;" x="92.630769" xlink:href="#mf0b328f371" y="139.380497"/>
     <use style="fill:#ff0000;stroke:#ff0000;" x="97.313287" xlink:href="#mf0b328f371" y="143.798255"/>
     <use style="fill:#ff0000;stroke:#ff0000;" x="101.995804" xlink:href="#mf0b328f371" y="148.277589"/>
     <use style="fill:#ff0000;stroke:#ff0000;" x="106.678322" xlink:href="#mf0b328f371" y="152.395606"/>
     <use style="fill:#ff0000;stroke:#ff0000;" x="111.360839" xlink:href="#mf0b328f371" y="156.666646"/>
     <use style="fill:#ff0000;stroke:#ff0000;" x="116.043357" xlink:href="#mf0b328f371" y="159.895299"/>
     <use style="fill:#ff0000;stroke:#ff0000;" x="120.725874" xlink:href="#mf0b328f371" y="164.006349"/>
     <use style="fill:#ff0000;stroke:#ff0000;" x="125.408392" xlink:href="#mf0b328f371" y="166.593362"/>
     <use style="fill:#ff0000;stroke:#ff0000;" x="130.090909" xlink:href="#mf0b328f371" y="169.704064"/>
     <use style="fill:#ff0000;stroke:#ff0000;" x="134.773427" xlink:href="#mf0b328f371" y="172.975634"/>
     <use style="fill:#ff0000;stroke:#ff0000;" x="139.455944" xlink:href="#mf0b328f371" y="176.796129"/>
     <use style="fill:#ff0000;stroke:#ff0000;" x="144.138462" xlink:href="#mf0b328f371" y="179.841715"/>
     <use style="fill:#ff0000;stroke:#ff0000;" x="148.820979" xlink:href="#mf0b328f371" y="183.644415"/>
     <use style="fill:#ff0000;stroke:#ff0000;" x="153.503497" xlink:href="#mf0b328f371" y="187.454171"/>
     <use style="fill:#ff0000;stroke:#ff0000;" x="158.186014" xlink:href="#mf0b328f371" y="190.091099"/>
     <use style="fill:#ff0000;stroke:#ff0000;" x="162.868531" xlink:href="#mf0b328f371" y="192.290333"/>
     <use style="fill:#ff0000;stroke:#ff0000;" x="167.551049" xlink:href="#mf0b328f371" y="195.496029"/>
     <use style="fill:#ff0000;stroke:#ff0000;" x="172.233566" xlink:href="#mf0b328f371" y="199.630329"/>
     <use style="fill:#ff0000;stroke:#ff0000;" x="176.916084" xlink:href="#mf0b328f371" y="202.281309"/>
     <use style="fill:#ff0000;stroke:#ff0000;" x="181.598601" xlink:href="#mf0b328f371" y="205.677966"/>
     <use style="fill:#ff0000;stroke:#ff0000;" x="186.281119" xlink:href="#mf0b328f371" y="208.378237"/>
    </g>
   </g>
   <g id="patch_3">
    <path d="M 54 252 
L 54 34.56 
" style="fill:none;stroke:#000000;stroke-linecap:square;stroke-linejoin:miter;stroke-width:0.8;"/>
   </g>
   <g id="patch_4">
    <path d="M 388.8 252 
L 388.8 34.56 
" style="fill:none;stroke:#000000;stroke-linecap:square;stroke-linejoin:miter;stroke-width:0.8;"/>
   </g>
   <g id="patch_5">
    <path d="M 54 252 
L 388.8 252 
" style="fill:none;stroke:#000000;stroke-linecap:square;stroke-linejoin:miter;stroke-width:0.8;"/>
   </g>
   <g id="patch_6">
    <path d="M 54 34.56 
L 388.8 34.56 
" style="fill:none;stroke:#000000;stroke-linecap:square;stroke-linejoin:miter;stroke-width:0.8;"/>
   </g>
   <g id="text_17">
    <!-- Input/ouput eigenvalues comparison -->
    <defs>
     <path d="M 9.8125 72.90625 
L 19.671875 72.90625 
L 19.671875 0 
L 9.8125 0 
z
" id="DejaVuSans-49"/>
     <path d="M 54.890625 33.015625 
L 54.890625 0 
L 45.90625 0 
L 45.90625 32.71875 
Q 45.90625 40.484375 42.875 44.328125 
Q 39.84375 48.1875 33.796875 48.1875 
Q 26.515625 48.1875 22.3125 43.546875 
Q 18.109375 38.921875 18.109375 30.90625 
L 18.109375 0 
L 9.078125 0 
L 9.078125 54.6875 
L 18.109375 54.6875 
L 18.109375 46.1875 
Q 21.34375 51.125 25.703125 53.5625 
Q 30.078125 56 35.796875 56 
Q 45.21875 56 50.046875 50.171875 
Q 54.890625 44.34375 54.890625 33.015625 
z
" id="DejaVuSans-6e"/>
     <path d="M 18.109375 8.203125 
L 18.109375 -20.796875 
L 9.078125 -20.796875 
L 9.078125 54.6875 
L 18.109375 54.6875 
L 18.109375 46.390625 
Q 20.953125 51.265625 25.265625 53.625 
Q 29.59375 56 35.59375 56 
Q 45.5625 56 51.78125 48.09375 
Q 58.015625 40.1875 58.015625 27.296875 
Q 58.015625 14.40625 51.78125 6.484375 
Q 45.5625 -1.421875 35.59375 -1.421875 
Q 29.59375 -1.421875 25.265625 0.953125 
Q 20.953125 3.328125 18.109375 8.203125 
z
M 48.6875 27.296875 
Q 48.6875 37.203125 44.609375 42.84375 
Q 40.53125 48.484375 33.40625 48.484375 
Q 26.265625 48.484375 22.1875 42.84375 
Q 18.109375 37.203125 18.109375 27.296875 
Q 18.109375 17.390625 22.1875 11.75 
Q 26.265625 6.109375 33.40625 6.109375 
Q 40.53125 6.109375 44.609375 11.75 
Q 48.6875 17.390625 48.6875 27.296875 
z
" id="DejaVuSans-70"/>
     <path d="M 8.5 21.578125 
L 8.5 54.6875 
L 17.484375 54.6875 
L 17.484375 21.921875 
Q 17.484375 14.15625 20.5 10.265625 
Q 23.53125 6.390625 29.59375 6.390625 
Q 36.859375 6.390625 41.078125 11.03125 
Q 45.3125 15.671875 45.3125 23.6875 
L 45.3125 54.6875 
L 54.296875 54.6875 
L 54.296875 0 
L 45.3125 0 
L 45.3125 8.40625 
Q 42.046875 3.421875 37.71875 1 
Q 33.40625 -1.421875 27.6875 -1.421875 
Q 18.265625 -1.421875 13.375 4.4375 
Q 8.5 10.296875 8.5 21.578125 
z
M 31.109375 56 
z
" id="DejaVuSans-75"/>
     <path d="M 18.3125 70.21875 
L 18.3125 54.6875 
L 36.8125 54.6875 
L 36.8125 47.703125 
L 18.3125 47.703125 
L 18.3125 18.015625 
Q 18.3125 11.328125 20.140625 9.421875 
Q 21.96875 7.515625 27.59375 7.515625 
L 36.8125 7.515625 
L 36.8125 0 
L 27.59375 0 
Q 17.1875 0 13.234375 3.875 
Q 9.28125 7.765625 9.28125 18.015625 
L 9.28125 47.703125 
L 2.6875 47.703125 
L 2.6875 54.6875 
L 9.28125 54.6875 
L 9.28125 70.21875 
z
" id="DejaVuSans-74"/>
     <path d="M 25.390625 72.90625 
L 33.6875 72.90625 
L 8.296875 -9.28125 
L 0 -9.28125 
z
" id="DejaVuSans-2f"/>
     <path d="M 30.609375 48.390625 
Q 23.390625 48.390625 19.1875 42.75 
Q 14.984375 37.109375 14.984375 27.296875 
Q 14.984375 17.484375 19.15625 11.84375 
Q 23.34375 6.203125 30.609375 6.203125 
Q 37.796875 6.203125 41.984375 11.859375 
Q 46.1875 17.53125 46.1875 27.296875 
Q 46.1875 37.015625 41.984375 42.703125 
Q 37.796875 48.390625 30.609375 48.390625 
z
M 30.609375 56 
Q 42.328125 56 49.015625 48.375 
Q 55.71875 40.765625 55.71875 27.296875 
Q 55.71875 13.875 49.015625 6.21875 
Q 42.328125 -1.421875 30.609375 -1.421875 
Q 18.84375 -1.421875 12.171875 6.21875 
Q 5.515625 13.875 5.515625 27.296875 
Q 5.515625 40.765625 12.171875 48.375 
Q 18.84375 56 30.609375 56 
z
" id="DejaVuSans-6f"/>
     <path id="DejaVuSans-20"/>
     <path d="M 56.203125 29.59375 
L 56.203125 25.203125 
L 14.890625 25.203125 
Q 15.484375 15.921875 20.484375 11.0625 
Q 25.484375 6.203125 34.421875 6.203125 
Q 39.59375 6.203125 44.453125 7.46875 
Q 49.3125 8.734375 54.109375 11.28125 
L 54.109375 2.78125 
Q 49.265625 0.734375 44.1875 -0.34375 
Q 39.109375 -1.421875 33.890625 -1.421875 
Q 20.796875 -1.421875 13.15625 6.1875 
Q 5.515625 13.8125 5.515625 26.8125 
Q 5.515625 40.234375 12.765625 48.109375 
Q 20.015625 56 32.328125 56 
Q 43.359375 56 49.78125 48.890625 
Q 56.203125 41.796875 56.203125 29.59375 
z
M 47.21875 32.234375 
Q 47.125 39.59375 43.09375 43.984375 
Q 39.0625 48.390625 32.421875 48.390625 
Q 24.90625 48.390625 20.390625 44.140625 
Q 15.875 39.890625 15.1875 32.171875 
z
" id="DejaVuSans-65"/>
     <path d="M 9.421875 54.6875 
L 18.40625 54.6875 
L 18.40625 0 
L 9.421875 0 
z
M 9.421875 75.984375 
L 18.40625 75.984375 
L 18.40625 64.59375 
L 9.421875 64.59375 
z
" id="DejaVuSans-69"/>
     <path d="M 45.40625 27.984375 
Q 45.40625 37.75 41.375 43.109375 
Q 37.359375 48.484375 30.078125 48.484375 
Q 22.859375 48.484375 18.828125 43.109375 
Q 14.796875 37.75 14.796875 27.984375 
Q 14.796875 18.265625 18.828125 12.890625 
Q 22.859375 7.515625 30.078125 7.515625 
Q 37.359375 7.515625 41.375 12.890625 
Q 45.40625 18.265625 45.40625 27.984375 
z
M 54.390625 6.78125 
Q 54.390625 -7.171875 48.1875 -13.984375 
Q 42 -20.796875 29.203125 -20.796875 
Q 24.46875 -20.796875 20.265625 -20.09375 
Q 16.0625 -19.390625 12.109375 -17.921875 
L 12.109375 -9.1875 
Q 16.0625 -11.328125 19.921875 -12.34375 
Q 23.78125 -13.375 27.78125 -13.375 
Q 36.625 -13.375 41.015625 -8.765625 
Q 45.40625 -4.15625 45.40625 5.171875 
L 45.40625 9.625 
Q 42.625 4.78125 38.28125 2.390625 
Q 33.9375 0 27.875 0 
Q 17.828125 0 11.671875 7.65625 
Q 5.515625 15.328125 5.515625 27.984375 
Q 5.515625 40.671875 11.671875 48.328125 
Q 17.828125 56 27.875 56 
Q 33.9375 56 38.28125 53.609375 
Q 42.625 51.21875 45.40625 46.390625 
L 45.40625 54.6875 
L 54.390625 54.6875 
z
" id="DejaVuSans-67"/>
     <path d="M 2.984375 54.6875 
L 12.5 54.6875 
L 29.59375 8.796875 
L 46.6875 54.6875 
L 56.203125 54.6875 
L 35.6875 0 
L 23.484375 0 
z
" id="DejaVuSans-76"/>
     <path d="M 34.28125 27.484375 
Q 23.390625 27.484375 19.1875 25 
Q 14.984375 22.515625 14.984375 16.5 
Q 14.984375 11.71875 18.140625 8.90625 
Q 21.296875 6.109375 26.703125 6.109375 
Q 34.1875 6.109375 38.703125 11.40625 
Q 43.21875 16.703125 43.21875 25.484375 
L 43.21875 27.484375 
z
M 52.203125 31.203125 
L 52.203125 0 
L 43.21875 0 
L 43.21875 8.296875 
Q 40.140625 3.328125 35.546875 0.953125 
Q 30.953125 -1.421875 24.3125 -1.421875 
Q 15.921875 -1.421875 10.953125 3.296875 
Q 6 8.015625 6 15.921875 
Q 6 25.140625 12.171875 29.828125 
Q 18.359375 34.515625 30.609375 34.515625 
L 43.21875 34.515625 
L 43.21875 35.40625 
Q 43.21875 41.609375 39.140625 45 
Q 35.0625 48.390625 27.6875 48.390625 
Q 23 48.390625 18.546875 47.265625 
Q 14.109375 46.140625 10.015625 43.890625 
L 10.015625 52.203125 
Q 14.9375 54.109375 19.578125 55.046875 
Q 24.21875 56 28.609375 56 
Q 40.484375 56 46.34375 49.84375 
Q 52.203125 43.703125 52.203125 31.203125 
z
" id="DejaVuSans-61"/>
     <path d="M 9.421875 75.984375 
L 18.40625 75.984375 
L 18.40625 0 
L 9.421875 0 
z
" id="DejaVuSans-6c"/>
     <path d="M 44.28125 53.078125 
L 44.28125 44.578125 
Q 40.484375 46.53125 36.375 47.5 
Q 32.28125 48.484375 27.875 48.484375 
Q 21.1875 48.484375 17.84375 46.4375 
Q 14.5 44.390625 14.5 40.28125 
Q 14.5 37.15625 16.890625 35.375 
Q 19.28125 33.59375 26.515625 31.984375 
L 29.59375 31.296875 
Q 39.15625 29.25 43.1875 25.515625 
Q 47.21875 21.78125 47.21875 15.09375 
Q 47.21875 7.46875 41.1875 3.015625 
Q 35.15625 -1.421875 24.609375 -1.421875 
Q 20.21875 -1.421875 15.453125 -0.5625 
Q 10.6875 0.296875 5.421875 2 
L 5.421875 11.28125 
Q 10.40625 8.6875 15.234375 7.390625 
Q 20.0625 6.109375 24.8125 6.109375 
Q 31.15625 6.109375 34.5625 8.28125 
Q 37.984375 10.453125 37.984375 14.40625 
Q 37.984375 18.0625 35.515625 20.015625 
Q 33.0625 21.96875 24.703125 23.78125 
L 21.578125 24.515625 
Q 13.234375 26.265625 9.515625 29.90625 
Q 5.8125 33.546875 5.8125 39.890625 
Q 5.8125 47.609375 11.28125 51.796875 
Q 16.75 56 26.8125 56 
Q 31.78125 56 36.171875 55.265625 
Q 40.578125 54.546875 44.28125 53.078125 
z
" id="DejaVuSans-73"/>
     <path d="M 48.78125 52.59375 
L 48.78125 44.1875 
Q 44.96875 46.296875 41.140625 47.34375 
Q 37.3125 48.390625 33.40625 48.390625 
Q 24.65625 48.390625 19.8125 42.84375 
Q 14.984375 37.3125 14.984375 27.296875 
Q 14.984375 17.28125 19.8125 11.734375 
Q 24.65625 6.203125 33.40625 6.203125 
Q 37.3125 6.203125 41.140625 7.25 
Q 44.96875 8.296875 48.78125 10.40625 
L 48.78125 2.09375 
Q 45.015625 0.34375 40.984375 -0.53125 
Q 36.96875 -1.421875 32.421875 -1.421875 
Q 20.0625 -1.421875 12.78125 6.34375 
Q 5.515625 14.109375 5.515625 27.296875 
Q 5.515625 40.671875 12.859375 48.328125 
Q 20.21875 56 33.015625 56 
Q 37.15625 56 41.109375 55.140625 
Q 45.0625 54.296875 48.78125 52.59375 
z
" id="DejaVuSans-63"/>
     <path d="M 52 44.1875 
Q 55.375 50.25 60.0625 53.125 
Q 64.75 56 71.09375 56 
Q 79.640625 56 84.28125 50.015625 
Q 88.921875 44.046875 88.921875 33.015625 
L 88.921875 0 
L 79.890625 0 
L 79.890625 32.71875 
Q 79.890625 40.578125 77.09375 44.375 
Q 74.3125 48.1875 68.609375 48.1875 
Q 61.625 48.1875 57.5625 43.546875 
Q 53.515625 38.921875 53.515625 30.90625 
L 53.515625 0 
L 44.484375 0 
L 44.484375 32.71875 
Q 44.484375 40.625 41.703125 44.40625 
Q 38.921875 48.1875 33.109375 48.1875 
Q 26.21875 48.1875 22.15625 43.53125 
Q 18.109375 38.875 18.109375 30.90625 
L 18.109375 0 
L 9.078125 0 
L 9.078125 54.6875 
L 18.109375 54.6875 
L 18.109375 46.1875 
Q 21.1875 51.21875 25.484375 53.609375 
Q 29.78125 56 35.6875 56 
Q 41.65625 56 45.828125 52.96875 
Q 50 49.953125 52 44.1875 
z
" id="DejaVuSans-6d"/>
     <path d="M 41.109375 46.296875 
Q 39.59375 47.171875 37.8125 47.578125 
Q 36.03125 48 33.890625 48 
Q 26.265625 48 22.1875 43.046875 
Q 18.109375 38.09375 18.109375 28.8125 
L 18.109375 0 
L 9.078125 0 
L 9.078125 54.6875 
L 18.109375 54.6875 
L 18.109375 46.1875 
Q 20.953125 51.171875 25.484375 53.578125 
Q 30.03125 56 36.53125 56 
Q 37.453125 56 38.578125 55.875 
Q 39.703125 55.765625 41.0625 55.515625 
z
" id="DejaVuSans-72"/>
    </defs>
    <g transform="translate(111.380625 28.56)scale(0.12 -0.12)">
     <use xlink:href="#DejaVuSans-49"/>
     <use x="29.492188" xlink:href="#DejaVuSans-6e"/>
     <use x="92.871094" xlink:href="#DejaVuSans-70"/>
     <use x="156.347656" xlink:href="#DejaVuSans-75"/>
     <use x="219.726562" xlink:href="#DejaVuSans-74"/>
     <use x="258.935547" xlink:href="#DejaVuSans-2f"/>
     <use x="292.626953" xlink:href="#DejaVuSans-6f"/>
     <use x="353.808594" xlink:href="#DejaVuSans-75"/>
     <use x="417.1875" xlink:href="#DejaVuSans-70"/>
     <use x="480.664062" xlink:href="#DejaVuSans-75"/>
     <use x="544.042969" xlink:href="#DejaVuSans-74"/>
     <use x="583.251953" xlink:href="#DejaVuSans-20"/>
     <use x="615.039062" xlink:href="#DejaVuSans-65"/>
     <use x="676.5625" xlink:href="#DejaVuSans-69"/>
     <use x="704.345703" xlink:href="#DejaVuSans-67"/>
     <use x="767.822266" xlink:href="#DejaVuSans-65"/>
     <use x="829.345703" xlink:href="#DejaVuSans-6e"/>
     <use x="892.724609" xlink:href="#DejaVuSans-76"/>
     <use x="951.904297" xlink:href="#DejaVuSans-61"/>
     <use x="1013.183594" xlink:href="#DejaVuSans-6c"/>
     <use x="1040.966797" xlink:href="#DejaVuSans-75"/>
     <use x="1104.345703" xlink:href="#DejaVuSans-65"/>
     <use x="1165.869141" xlink:href="#DejaVuSans-73"/>
     <use x="1217.96875" xlink:href="#DejaVuSans-20"/>
     <use x="1249.755859" xlink:href="#DejaVuSans-63"/>
     <use x="1304.736328" xlink:href="#DejaVuSans-6f"/>
     <use x="1365.917969" xlink:href="#DejaVuSans-6d"/>
     <use x="1463.330078" xlink:href="#DejaVuSans-70"/>
     <use x="1526.806641" xlink:href="#DejaVuSans-61"/>
     <use x="1588.085938" xlink:href="#DejaVuSans-72"/>
     <use x="1629.199219" xlink:href="#DejaVuSans-69"/>
     <use x="1656.982422" xlink:href="#DejaVuSans-73"/>
     <use x="1709.082031" xlink:href="#DejaVuSans-6f"/>
     <use x="1770.263672" xlink:href="#DejaVuSans-6e"/>
    </g>
   </g>
   <g id="legend_1">
    <g id="patch_7">
     <path d="M 340.8 73.91625 
L 383.8 73.91625 
Q 385.8 73.91625 385.8 71.91625 
L 385.8 43.56 
Q 385.8 41.56 383.8 41.56 
L 340.8 41.56 
Q 338.8 41.56 338.8 43.56 
L 338.8 71.91625 
Q 338.8 73.91625 340.8 73.91625 
z
" style="fill:#4c4c4c;opacity:0.5;stroke:#4c4c4c;stroke-linejoin:miter;"/>
    </g>
    <g id="patch_8">
     <path d="M 338.8 71.91625 
L 381.8 71.91625 
Q 383.8 71.91625 383.8 69.91625 
L 383.8 41.56 
Q 383.8 39.56 381.8 39.56 
L 338.8 39.56 
Q 336.8 39.56 336.8 41.56 
L 336.8 69.91625 
Q 336.8 71.91625 338.8 71.91625 
z
" style="fill:#ffffff;opacity:0.8;stroke:#cccccc;stroke-linejoin:miter;"/>
    </g>
    <g id="line2d_88">
     <path d="M 340.8 47.658437 
L 360.8 47.658437 
" style="fill:none;stroke:#0000ff;stroke-linecap:square;"/>
    </g>
    <g id="line2d_89"/>
    <g id="text_18">
     <!-- $\lambda_X$ -->
     <g transform="translate(368.8 51.158437)scale(0.1 -0.1)">
      <use transform="translate(0 0.015625)" xlink:href="#DejaVuSans-Oblique-3bb"/>
      <use transform="translate(59.179688 -16.390625)scale(0.7)" xlink:href="#DejaVuSans-Oblique-58"/>
     </g>
    </g>
    <g id="line2d_90">
     <path d="M 340.8 62.336562 
L 360.8 62.336562 
" style="fill:none;stroke:#ff0000;stroke-linecap:square;"/>
    </g>
    <g id="line2d_91"/>
    <g id="text_19">
     <!-- $\lambda_Y$ -->
     <g transform="translate(368.8 65.836562)scale(0.1 -0.1)">
      <use transform="translate(0 0.015625)" xlink:href="#DejaVuSans-Oblique-3bb"/>
      <use transform="translate(59.179688 -16.390625)scale(0.7)" xlink:href="#DejaVuSans-Oblique-59"/>
     </g>
    </g>
   </g>
  </g>
 </g>
 <defs>
  <clipPath id="p6200441a0b">
   <rect height="217.44" width="334.8" x="54" y="34.56"/>
  </clipPath>
 </defs>
</svg>
