<?xml version="1.0" encoding="utf-8" standalone="no"?>
<!DOCTYPE svg PUBLIC "-//W3C//DTD SVG 1.1//EN"
  "http://www.w3.org/Graphics/SVG/1.1/DTD/svg11.dtd">
<!-- Created with matplotlib (http://matplotlib.org/) -->
<svg height="288pt" version="1.1" viewBox="0 0 432 288" width="432pt" xmlns="http://www.w3.org/2000/svg" xmlns:xlink="http://www.w3.org/1999/xlink">
 <defs>
  <style type="text/css">
*{stroke-linecap:butt;stroke-linejoin:round;}
  </style>
 </defs>
 <g id="figure_1">
  <g id="patch_1">
   <path d="M 0 288 
L 432 288 
L 432 0 
L 0 0 
z
" style="fill:#ffffff;"/>
  </g>
  <g id="axes_1">
   <g id="patch_2">
    <path d="M 54 252 
L 388.8 252 
L 388.8 34.56 
L 54 34.56 
z
" style="fill:#ffffff;"/>
   </g>
   <g id="matplotlib.axis_1">
    <g id="xtick_1">
     <g id="line2d_1">
      <path clip-path="url(#p0c67f9b959)" d="M 54 252 
L 54 34.56 
" style="fill:none;stroke:#b0b0b0;stroke-linecap:square;stroke-width:0.8;"/>
     </g>
     <g id="line2d_2">
      <defs>
       <path d="M 0 0 
L 0 3.5 
" id="m7b67dbcb4d" style="stroke:#000000;stroke-width:0.8;"/>
      </defs>
      <g>
       <use style="stroke:#000000;stroke-width:0.8;" x="54" xlink:href="#m7b67dbcb4d" y="252"/>
      </g>
     </g>
     <g id="text_1">
      <!-- −1.5 -->
      <defs>
       <path d="M 10.59375 35.5 
L 73.1875 35.5 
L 73.1875 27.203125 
L 10.59375 27.203125 
z
" id="DejaVuSans-2212"/>
       <path d="M 12.40625 8.296875 
L 28.515625 8.296875 
L 28.515625 63.921875 
L 10.984375 60.40625 
L 10.984375 69.390625 
L 28.421875 72.90625 
L 38.28125 72.90625 
L 38.28125 8.296875 
L 54.390625 8.296875 
L 54.390625 0 
L 12.40625 0 
z
" id="DejaVuSans-31"/>
       <path d="M 10.6875 12.40625 
L 21 12.40625 
L 21 0 
L 10.6875 0 
z
" id="DejaVuSans-2e"/>
       <path d="M 10.796875 72.90625 
L 49.515625 72.90625 
L 49.515625 64.59375 
L 19.828125 64.59375 
L 19.828125 46.734375 
Q 21.96875 47.46875 24.109375 47.828125 
Q 26.265625 48.1875 28.421875 48.1875 
Q 40.625 48.1875 47.75 41.5 
Q 54.890625 34.8125 54.890625 23.390625 
Q 54.890625 11.625 47.5625 5.09375 
Q 40.234375 -1.421875 26.90625 -1.421875 
Q 22.3125 -1.421875 17.546875 -0.640625 
Q 12.796875 0.140625 7.71875 1.703125 
L 7.71875 11.625 
Q 12.109375 9.234375 16.796875 8.0625 
Q 21.484375 6.890625 26.703125 6.890625 
Q 35.15625 6.890625 40.078125 11.328125 
Q 45.015625 15.765625 45.015625 23.390625 
Q 45.015625 31 40.078125 35.4375 
Q 35.15625 39.890625 26.703125 39.890625 
Q 22.75 39.890625 18.8125 39.015625 
Q 14.890625 38.140625 10.796875 36.28125 
z
" id="DejaVuSans-35"/>
      </defs>
      <g transform="translate(41.858594 266.598437)scale(0.1 -0.1)">
       <use xlink:href="#DejaVuSans-2212"/>
       <use x="83.789062" xlink:href="#DejaVuSans-31"/>
       <use x="147.412109" xlink:href="#DejaVuSans-2e"/>
       <use x="179.199219" xlink:href="#DejaVuSans-35"/>
      </g>
     </g>
    </g>
    <g id="xtick_2">
     <g id="line2d_3">
      <path clip-path="url(#p0c67f9b959)" d="M 109.8 252 
L 109.8 34.56 
" style="fill:none;stroke:#b0b0b0;stroke-linecap:square;stroke-width:0.8;"/>
     </g>
     <g id="line2d_4">
      <g>
       <use style="stroke:#000000;stroke-width:0.8;" x="109.8" xlink:href="#m7b67dbcb4d" y="252"/>
      </g>
     </g>
     <g id="text_2">
      <!-- −1.0 -->
      <defs>
       <path d="M 31.78125 66.40625 
Q 24.171875 66.40625 20.328125 58.90625 
Q 16.5 51.421875 16.5 36.375 
Q 16.5 21.390625 20.328125 13.890625 
Q 24.171875 6.390625 31.78125 6.390625 
Q 39.453125 6.390625 43.28125 13.890625 
Q 47.125 21.390625 47.125 36.375 
Q 47.125 51.421875 43.28125 58.90625 
Q 39.453125 66.40625 31.78125 66.40625 
z
M 31.78125 74.21875 
Q 44.046875 74.21875 50.515625 64.515625 
Q 56.984375 54.828125 56.984375 36.375 
Q 56.984375 17.96875 50.515625 8.265625 
Q 44.046875 -1.421875 31.78125 -1.421875 
Q 19.53125 -1.421875 13.0625 8.265625 
Q 6.59375 17.96875 6.59375 36.375 
Q 6.59375 54.828125 13.0625 64.515625 
Q 19.53125 74.21875 31.78125 74.21875 
z
" id="DejaVuSans-30"/>
      </defs>
      <g transform="translate(97.658594 266.598437)scale(0.1 -0.1)">
       <use xlink:href="#DejaVuSans-2212"/>
       <use x="83.789062" xlink:href="#DejaVuSans-31"/>
       <use x="147.412109" xlink:href="#DejaVuSans-2e"/>
       <use x="179.199219" xlink:href="#DejaVuSans-30"/>
      </g>
     </g>
    </g>
    <g id="xtick_3">
     <g id="line2d_5">
      <path clip-path="url(#p0c67f9b959)" d="M 165.6 252 
L 165.6 34.56 
" style="fill:none;stroke:#b0b0b0;stroke-linecap:square;stroke-width:0.8;"/>
     </g>
     <g id="line2d_6">
      <g>
       <use style="stroke:#000000;stroke-width:0.8;" x="165.6" xlink:href="#m7b67dbcb4d" y="252"/>
      </g>
     </g>
     <g id="text_3">
      <!-- −0.5 -->
      <g transform="translate(153.458594 266.598437)scale(0.1 -0.1)">
       <use xlink:href="#DejaVuSans-2212"/>
       <use x="83.789062" xlink:href="#DejaVuSans-30"/>
       <use x="147.412109" xlink:href="#DejaVuSans-2e"/>
       <use x="179.199219" xlink:href="#DejaVuSans-35"/>
      </g>
     </g>
    </g>
    <g id="xtick_4">
     <g id="line2d_7">
      <path clip-path="url(#p0c67f9b959)" d="M 221.4 252 
L 221.4 34.56 
" style="fill:none;stroke:#b0b0b0;stroke-linecap:square;stroke-width:0.8;"/>
     </g>
     <g id="line2d_8">
      <g>
       <use style="stroke:#000000;stroke-width:0.8;" x="221.4" xlink:href="#m7b67dbcb4d" y="252"/>
      </g>
     </g>
     <g id="text_4">
      <!-- 0.0 -->
      <g transform="translate(213.448438 266.598437)scale(0.1 -0.1)">
       <use xlink:href="#DejaVuSans-30"/>
       <use x="63.623047" xlink:href="#DejaVuSans-2e"/>
       <use x="95.410156" xlink:href="#DejaVuSans-30"/>
      </g>
     </g>
    </g>
    <g id="xtick_5">
     <g id="line2d_9">
      <path clip-path="url(#p0c67f9b959)" d="M 277.2 252 
L 277.2 34.56 
" style="fill:none;stroke:#b0b0b0;stroke-linecap:square;stroke-width:0.8;"/>
     </g>
     <g id="line2d_10">
      <g>
       <use style="stroke:#000000;stroke-width:0.8;" x="277.2" xlink:href="#m7b67dbcb4d" y="252"/>
      </g>
     </g>
     <g id="text_5">
      <!-- 0.5 -->
      <g transform="translate(269.248437 266.598437)scale(0.1 -0.1)">
       <use xlink:href="#DejaVuSans-30"/>
       <use x="63.623047" xlink:href="#DejaVuSans-2e"/>
       <use x="95.410156" xlink:href="#DejaVuSans-35"/>
      </g>
     </g>
    </g>
    <g id="xtick_6">
     <g id="line2d_11">
      <path clip-path="url(#p0c67f9b959)" d="M 333 252 
L 333 34.56 
" style="fill:none;stroke:#b0b0b0;stroke-linecap:square;stroke-width:0.8;"/>
     </g>
     <g id="line2d_12">
      <g>
       <use style="stroke:#000000;stroke-width:0.8;" x="333" xlink:href="#m7b67dbcb4d" y="252"/>
      </g>
     </g>
     <g id="text_6">
      <!-- 1.0 -->
      <g transform="translate(325.048437 266.598437)scale(0.1 -0.1)">
       <use xlink:href="#DejaVuSans-31"/>
       <use x="63.623047" xlink:href="#DejaVuSans-2e"/>
       <use x="95.410156" xlink:href="#DejaVuSans-30"/>
      </g>
     </g>
    </g>
    <g id="xtick_7">
     <g id="line2d_13">
      <path clip-path="url(#p0c67f9b959)" d="M 388.8 252 
L 388.8 34.56 
" style="fill:none;stroke:#b0b0b0;stroke-linecap:square;stroke-width:0.8;"/>
     </g>
     <g id="line2d_14">
      <g>
       <use style="stroke:#000000;stroke-width:0.8;" x="388.8" xlink:href="#m7b67dbcb4d" y="252"/>
      </g>
     </g>
     <g id="text_7">
      <!-- 1.5 -->
      <g transform="translate(380.848437 266.598437)scale(0.1 -0.1)">
       <use xlink:href="#DejaVuSans-31"/>
       <use x="63.623047" xlink:href="#DejaVuSans-2e"/>
       <use x="95.410156" xlink:href="#DejaVuSans-35"/>
      </g>
     </g>
    </g>
    <g id="text_8">
     <!-- x1 -->
     <defs>
      <path d="M 54.890625 54.6875 
L 35.109375 28.078125 
L 55.90625 0 
L 45.3125 0 
L 29.390625 21.484375 
L 13.484375 0 
L 2.875 0 
L 24.125 28.609375 
L 4.6875 54.6875 
L 15.28125 54.6875 
L 29.78125 35.203125 
L 44.28125 54.6875 
z
" id="DejaVuSans-78"/>
     </defs>
     <g transform="translate(215.259375 280.276563)scale(0.1 -0.1)">
      <use xlink:href="#DejaVuSans-78"/>
      <use x="59.179688" xlink:href="#DejaVuSans-31"/>
     </g>
    </g>
   </g>
   <g id="matplotlib.axis_2">
    <g id="ytick_1">
     <g id="line2d_15">
      <path clip-path="url(#p0c67f9b959)" d="M 54 230.256 
L 388.8 230.256 
" style="fill:none;stroke:#b0b0b0;stroke-linecap:square;stroke-width:0.8;"/>
     </g>
     <g id="line2d_16">
      <defs>
       <path d="M 0 0 
L -3.5 0 
" id="m5e201621ac" style="stroke:#000000;stroke-width:0.8;"/>
      </defs>
      <g>
       <use style="stroke:#000000;stroke-width:0.8;" x="54" xlink:href="#m5e201621ac" y="230.256"/>
      </g>
     </g>
     <g id="text_9">
      <!-- −2 -->
      <defs>
       <path d="M 19.1875 8.296875 
L 53.609375 8.296875 
L 53.609375 0 
L 7.328125 0 
L 7.328125 8.296875 
Q 12.9375 14.109375 22.625 23.890625 
Q 32.328125 33.6875 34.8125 36.53125 
Q 39.546875 41.84375 41.421875 45.53125 
Q 43.3125 49.21875 43.3125 52.78125 
Q 43.3125 58.59375 39.234375 62.25 
Q 35.15625 65.921875 28.609375 65.921875 
Q 23.96875 65.921875 18.8125 64.3125 
Q 13.671875 62.703125 7.8125 59.421875 
L 7.8125 69.390625 
Q 13.765625 71.78125 18.9375 73 
Q 24.125 74.21875 28.421875 74.21875 
Q 39.75 74.21875 46.484375 68.546875 
Q 53.21875 62.890625 53.21875 53.421875 
Q 53.21875 48.921875 51.53125 44.890625 
Q 49.859375 40.875 45.40625 35.40625 
Q 44.1875 33.984375 37.640625 27.21875 
Q 31.109375 20.453125 19.1875 8.296875 
z
" id="DejaVuSans-32"/>
      </defs>
      <g transform="translate(32.257812 234.055219)scale(0.1 -0.1)">
       <use xlink:href="#DejaVuSans-2212"/>
       <use x="83.789062" xlink:href="#DejaVuSans-32"/>
      </g>
     </g>
    </g>
    <g id="ytick_2">
     <g id="line2d_17">
      <path clip-path="url(#p0c67f9b959)" d="M 54 186.768 
L 388.8 186.768 
" style="fill:none;stroke:#b0b0b0;stroke-linecap:square;stroke-width:0.8;"/>
     </g>
     <g id="line2d_18">
      <g>
       <use style="stroke:#000000;stroke-width:0.8;" x="54" xlink:href="#m5e201621ac" y="186.768"/>
      </g>
     </g>
     <g id="text_10">
      <!-- −1 -->
      <g transform="translate(32.257812 190.567219)scale(0.1 -0.1)">
       <use xlink:href="#DejaVuSans-2212"/>
       <use x="83.789062" xlink:href="#DejaVuSans-31"/>
      </g>
     </g>
    </g>
    <g id="ytick_3">
     <g id="line2d_19">
      <path clip-path="url(#p0c67f9b959)" d="M 54 143.28 
L 388.8 143.28 
" style="fill:none;stroke:#b0b0b0;stroke-linecap:square;stroke-width:0.8;"/>
     </g>
     <g id="line2d_20">
      <g>
       <use style="stroke:#000000;stroke-width:0.8;" x="54" xlink:href="#m5e201621ac" y="143.28"/>
      </g>
     </g>
     <g id="text_11">
      <!-- 0 -->
      <g transform="translate(40.6375 147.079219)scale(0.1 -0.1)">
       <use xlink:href="#DejaVuSans-30"/>
      </g>
     </g>
    </g>
    <g id="ytick_4">
     <g id="line2d_21">
      <path clip-path="url(#p0c67f9b959)" d="M 54 99.792 
L 388.8 99.792 
" style="fill:none;stroke:#b0b0b0;stroke-linecap:square;stroke-width:0.8;"/>
     </g>
     <g id="line2d_22">
      <g>
       <use style="stroke:#000000;stroke-width:0.8;" x="54" xlink:href="#m5e201621ac" y="99.792"/>
      </g>
     </g>
     <g id="text_12">
      <!-- 1 -->
      <g transform="translate(40.6375 103.591219)scale(0.1 -0.1)">
       <use xlink:href="#DejaVuSans-31"/>
      </g>
     </g>
    </g>
    <g id="ytick_5">
     <g id="line2d_23">
      <path clip-path="url(#p0c67f9b959)" d="M 54 56.304 
L 388.8 56.304 
" style="fill:none;stroke:#b0b0b0;stroke-linecap:square;stroke-width:0.8;"/>
     </g>
     <g id="line2d_24">
      <g>
       <use style="stroke:#000000;stroke-width:0.8;" x="54" xlink:href="#m5e201621ac" y="56.304"/>
      </g>
     </g>
     <g id="text_13">
      <!-- 2 -->
      <g transform="translate(40.6375 60.103219)scale(0.1 -0.1)">
       <use xlink:href="#DejaVuSans-32"/>
      </g>
     </g>
    </g>
    <g id="text_14">
     <!-- x3 -->
     <defs>
      <path d="M 40.578125 39.3125 
Q 47.65625 37.796875 51.625 33 
Q 55.609375 28.21875 55.609375 21.1875 
Q 55.609375 10.40625 48.1875 4.484375 
Q 40.765625 -1.421875 27.09375 -1.421875 
Q 22.515625 -1.421875 17.65625 -0.515625 
Q 12.796875 0.390625 7.625 2.203125 
L 7.625 11.71875 
Q 11.71875 9.328125 16.59375 8.109375 
Q 21.484375 6.890625 26.8125 6.890625 
Q 36.078125 6.890625 40.9375 10.546875 
Q 45.796875 14.203125 45.796875 21.1875 
Q 45.796875 27.640625 41.28125 31.265625 
Q 36.765625 34.90625 28.71875 34.90625 
L 20.21875 34.90625 
L 20.21875 43.015625 
L 29.109375 43.015625 
Q 36.375 43.015625 40.234375 45.921875 
Q 44.09375 48.828125 44.09375 54.296875 
Q 44.09375 59.90625 40.109375 62.90625 
Q 36.140625 65.921875 28.71875 65.921875 
Q 24.65625 65.921875 20.015625 65.03125 
Q 15.375 64.15625 9.8125 62.3125 
L 9.8125 71.09375 
Q 15.4375 72.65625 20.34375 73.4375 
Q 25.25 74.21875 29.59375 74.21875 
Q 40.828125 74.21875 47.359375 69.109375 
Q 53.90625 64.015625 53.90625 55.328125 
Q 53.90625 49.265625 50.4375 45.09375 
Q 46.96875 40.921875 40.578125 39.3125 
z
" id="DejaVuSans-33"/>
     </defs>
     <g transform="translate(26.178125 149.420625)rotate(-90)scale(0.1 -0.1)">
      <use xlink:href="#DejaVuSans-78"/>
      <use x="59.179688" xlink:href="#DejaVuSans-33"/>
     </g>
    </g>
   </g>
   <g id="LineCollection_1">
    <path clip-path="url(#p0c67f9b959)" d="M 388.8 44.937803 
L 385.452 44.986934 
L 382.104 45.034531 
L 378.756 45.080551 
L 375.408 45.124952 
L 372.06 45.167696 
L 368.712 45.208743 
L 365.364 45.248056 
L 362.016 45.2856 
L 358.668 45.321342 
L 355.32 45.355249 
L 351.972 45.38729 
L 348.624 45.417437 
L 346.896544 45.432 
L 345.276 45.44464 
L 341.928 45.468953 
L 338.58 45.491443 
L 335.232 45.512089 
L 331.884 45.530874 
L 328.536 45.54778 
L 325.188 45.562792 
L 321.84 45.575896 
L 318.492 45.587081 
L 315.144 45.596337 
L 311.796 45.603655 
L 308.448 45.609028 
L 305.1 45.612453 
L 301.752 45.613925 
L 298.404 45.613444 
L 295.056 45.61101 
L 291.708 45.606625 
L 288.36 45.600293 
L 285.012 45.592019 
L 281.664 45.581812 
L 278.316 45.56968 
L 274.968 45.555635 
L 271.62 45.539688 
L 268.272 45.521855 
L 264.924 45.50215 
L 261.576 45.480594 
L 258.228 45.457203 
L 254.88 45.432 
L 251.532 45.402825 
L 248.184 45.371741 
L 244.836 45.338777 
L 241.488 45.303963 
L 238.14 45.267329 
L 234.792 45.228909 
L 231.444 45.188738 
L 228.096 45.14685 
L 224.748 45.103285 
L 221.4 45.058081 
L 218.052 45.011279 
L 214.704 44.962921 
L 211.356 44.913051 
L 208.008 44.861713 
L 204.66 44.808954 
L 201.312 44.754821 
L 197.964 44.699363 
L 194.616 44.64263 
L 191.268 44.584672 
L 187.92 44.525543 
L 184.572 44.465295 
L 181.224 44.403982 
L 177.876 44.34166 
L 174.528 44.278385 
L 171.18 44.214213 
L 167.832 44.149203 
L 164.484 44.083413 
L 161.136 44.016902 
L 157.788 43.94973 
L 154.44 43.881957 
L 151.092 43.813644 
L 147.744 43.744854 
L 144.396 43.675647 
L 141.048 43.606087 
L 137.7 43.536235 
L 134.352 43.466154 
L 131.004 43.395908 
L 127.656 43.32556 
L 124.423413 43.2576 
L 124.308 43.254893 
L 120.96 43.17639 
L 117.612 43.097986 
L 114.264 43.01975 
L 110.916 42.941753 
L 107.568 42.864065 
L 104.22 42.786756 
L 100.872 42.709895 
L 97.524 42.633553 
L 94.176 42.557797 
L 90.828 42.482695 
L 87.48 42.408316 
L 84.132 42.334726 
L 80.784 42.261991 
L 77.436 42.190178 
L 74.088 42.119349 
L 70.74 42.04957 
L 67.392 41.980903 
L 64.044 41.91341 
L 60.696 41.847151 
L 57.348 41.782187 
L 54 41.718575 
" style="fill:none;stroke:#ff0000;stroke-width:1.5;"/>
   </g>
   <g id="LineCollection_2">
    <path clip-path="url(#p0c67f9b959)" d="M 388.8 66.802296 
L 385.452 66.848086 
L 382.104 66.892445 
L 378.756 66.935335 
L 375.408 66.976717 
L 372.06 67.016554 
L 368.712 67.054809 
L 365.364 67.091449 
L 362.016 67.12644 
L 358.668 67.15975 
L 356.946384 67.176 
L 355.32 67.192132 
L 351.972 67.223512 
L 348.624 67.253038 
L 345.276 67.280681 
L 341.928 67.306418 
L 338.58 67.330226 
L 335.232 67.352081 
L 331.884 67.371966 
L 328.536 67.389862 
L 325.188 67.405754 
L 321.84 67.419625 
L 318.492 67.431466 
L 315.144 67.441263 
L 311.796 67.44901 
L 308.448 67.454698 
L 305.1 67.458324 
L 301.752 67.459882 
L 298.404 67.459373 
L 295.056 67.456796 
L 291.708 67.452154 
L 288.36 67.445451 
L 285.012 67.436693 
L 281.664 67.425888 
L 278.316 67.413045 
L 274.968 67.398177 
L 271.62 67.381296 
L 268.272 67.362419 
L 264.924 67.34156 
L 261.576 67.318741 
L 258.228 67.29398 
L 254.88 67.267301 
L 251.532 67.238727 
L 248.184 67.208284 
L 244.836 67.176 
L 241.488 67.143553 
L 238.14 67.109411 
L 234.792 67.073604 
L 231.444 67.036164 
L 228.096 66.997126 
L 224.748 66.956523 
L 221.4 66.914394 
L 218.052 66.870775 
L 214.704 66.825706 
L 211.356 66.779227 
L 208.008 66.731381 
L 204.66 66.68221 
L 201.312 66.631759 
L 197.964 66.580073 
L 194.616 66.527198 
L 191.268 66.473182 
L 187.92 66.418074 
L 184.572 66.361924 
L 181.224 66.304781 
L 177.876 66.246698 
L 174.528 66.187726 
L 171.18 66.127919 
L 167.832 66.06733 
L 164.484 66.006014 
L 161.136 65.944026 
L 157.788 65.881422 
L 154.44 65.818259 
L 151.092 65.754593 
L 147.744 65.690481 
L 144.396 65.625981 
L 141.048 65.561151 
L 137.7 65.49605 
L 134.352 65.430736 
L 131.004 65.365267 
L 127.656 65.299704 
L 124.308 65.234104 
L 120.96 65.168527 
L 117.612 65.103032 
L 114.264 65.037678 
L 112.410142 65.0016 
L 110.916 64.973714 
L 107.568 64.911477 
L 104.22 64.849544 
L 100.872 64.78797 
L 97.524 64.72681 
L 94.176 64.666121 
L 90.828 64.605956 
L 87.48 64.54637 
L 84.132 64.487415 
L 80.784 64.429146 
L 77.436 64.371615 
L 74.088 64.314874 
L 70.74 64.258972 
L 67.392 64.203962 
L 64.044 64.149892 
L 60.696 64.096811 
L 57.348 64.044767 
L 54 63.993807 
" style="fill:none;stroke:#ff9900;stroke-width:1.5;"/>
   </g>
   <g id="LineCollection_3">
    <path clip-path="url(#p0c67f9b959)" d="M 388.8 89.463514 
L 385.452 89.582028 
L 382.104 89.696842 
L 378.756 89.807851 
L 375.408 89.914958 
L 372.06 90.018064 
L 368.712 90.117078 
L 365.364 90.21191 
L 362.016 90.302474 
L 358.668 90.388691 
L 355.32 90.47048 
L 351.972 90.54777 
L 348.624 90.620491 
L 345.276 90.688577 
L 341.928 90.751966 
L 338.58 90.810603 
L 335.232 90.864433 
L 331.884 90.913409 
L 328.536 90.957487 
L 325.188 90.996626 
L 321.84 91.030793 
L 318.492 91.059955 
L 315.144 91.084086 
L 313.334223 91.0944 
L 311.796 91.104416 
L 308.448 91.120424 
L 305.1 91.130625 
L 301.752 91.135011 
L 298.404 91.133578 
L 295.056 91.126326 
L 291.708 91.113263 
L 288.36 91.0944 
L 285.012 91.072829 
L 281.664 91.046217 
L 278.316 91.014586 
L 274.968 90.977966 
L 271.62 90.936389 
L 268.272 90.889893 
L 264.924 90.83852 
L 261.576 90.782316 
L 258.228 90.721331 
L 254.88 90.655621 
L 251.532 90.585244 
L 248.184 90.510264 
L 244.836 90.430749 
L 241.488 90.346769 
L 238.14 90.258401 
L 234.792 90.165724 
L 231.444 90.068821 
L 228.096 89.96778 
L 224.748 89.862691 
L 221.4 89.75365 
L 218.052 89.640754 
L 214.704 89.524104 
L 211.356 89.403807 
L 208.008 89.279969 
L 204.66 89.152703 
L 201.312 89.022124 
L 198.756169 88.92 
L 197.964 88.892055 
L 194.616 88.771236 
L 191.268 88.647809 
L 187.92 88.521887 
L 184.572 88.393582 
L 181.224 88.26301 
L 177.876 88.130289 
L 174.528 87.995537 
L 171.18 87.858876 
L 167.832 87.72043 
L 164.484 87.580322 
L 161.136 87.438679 
L 157.788 87.295629 
L 154.44 87.151299 
L 151.092 87.005821 
L 147.744 86.859324 
L 145.160621 86.7456 
L 144.396 86.715637 
L 141.048 86.58377 
L 137.7 86.451351 
L 134.352 86.318499 
L 131.004 86.185333 
L 127.656 86.051974 
L 124.308 85.91854 
L 120.96 85.785154 
L 117.612 85.651933 
L 114.264 85.518999 
L 110.916 85.386471 
L 107.568 85.254468 
L 104.22 85.123109 
L 100.872 84.992513 
L 97.524 84.862796 
L 94.176 84.734076 
L 90.828 84.606468 
L 89.893705 84.5712 
L 87.48 84.489449 
L 84.132 84.377256 
L 80.784 84.266368 
L 77.436 84.156883 
L 74.088 84.048901 
L 70.74 83.942519 
L 67.392 83.837832 
L 64.044 83.734935 
L 60.696 83.633919 
L 57.348 83.534877 
L 54 83.437897 
" style="fill:none;stroke:#ccff00;stroke-width:1.5;"/>
   </g>
   <g id="LineCollection_4">
    <path clip-path="url(#p0c67f9b959)" d="M 388.8 108.51907 
L 364.137059 112.8384 
L 355.32 114.694617 
L 351.972 115.438918 
L 341.928 117.878254 
L 335.232 119.675453 
L 328.536 121.743019 
L 321.84 124.257311 
L 317.9141 125.8848 
L 315.144 127.475075 
L 313.857094 128.0592 
L 311.796 129.698987 
L 310.880899 130.2336 
L 308.950489 132.408 
L 308.448 133.653621 
L 307.860076 134.5824 
L 307.34602 136.7568 
L 307.20665 138.9312 
L 307.024905 149.8032 
L 306.510849 151.9776 
L 305.1 154.176721 
L 301.752 155.209993 
L 298.404 154.872308 
L 296.992342 154.152 
L 295.056 151.9776 
L 294.654555 149.8032 
L 294.529687 145.4544 
L 294.512623 138.9312 
L 294.403784 136.7568 
L 294.002338 134.5824 
L 292.927448 132.408 
L 291.708 131.287093 
L 290.914289 130.2336 
L 287.897512 128.0592 
L 285.012 126.578469 
L 283.916341 125.8848 
L 281.664 125.010515 
L 278.316 123.551787 
L 271.62 121.222836 
L 261.576 118.338231 
L 257.465716 117.1872 
L 251.532 115.852 
L 248.13557 115.0128 
L 238.14 112.947953 
L 237.659463 112.8384 
L 228.096 111.091777 
L 224.748 110.481292 
L 197.964 106.27557 
L 163.819861 101.9664 
L 131.004 98.684301 
L 114.264 97.223714 
L 87.48 95.230828 
L 57.348 93.447364 
L 54 93.266521 
L 54 93.266521 
" style="fill:none;stroke:#33ff00;stroke-width:1.5;"/>
   </g>
   <g id="LineCollection_5">
    <path clip-path="url(#p0c67f9b959)" d="M 388.8 114.905646 
L 388.432453 115.0128 
L 382.104 117.536706 
L 378.462233 119.3616 
L 375.297439 121.536 
L 373.068565 123.7104 
L 371.604639 125.8848 
L 370.681523 128.0592 
L 370.154868 130.2336 
L 369.881714 132.408 
L 369.71124 136.7568 
L 369.511809 154.152 
L 369.238655 156.3264 
L 368.712 158.5008 
L 367.748177 160.6752 
L 366.176169 162.8496 
L 363.676901 165.024 
L 359.834177 167.1984 
L 355.32 168.893148 
L 353.9491 169.3728 
L 348.624 170.677541 
L 344.705186 171.5472 
L 338.58 172.463184 
L 331.884 173.309888 
L 325.188 173.930873 
L 315.144 174.481717 
L 305.1 174.746362 
L 295.056 174.722665 
L 285.012 174.410817 
L 274.968 173.813344 
L 271.62 173.499148 
L 264.924 172.693109 
L 257.109781 171.5472 
L 251.532 170.289007 
L 247.841431 169.3728 
L 241.962043 167.1984 
L 238.109132 165.024 
L 235.629437 162.8496 
L 234.054505 160.6752 
L 233.11128 158.5008 
L 232.573152 156.3264 
L 232.294048 154.152 
L 232.11986 149.8032 
L 231.916084 132.408 
L 231.444 129.453829 
L 231.112989 128.0592 
L 230.208395 125.8848 
L 228.732991 123.7104 
L 226.521625 121.536 
L 223.352755 119.3616 
L 218.052 116.823132 
L 213.379819 115.0128 
L 204.66 112.461724 
L 194.616 110.094884 
L 184.572 108.094248 
L 171.18 105.841144 
L 154.44 103.462003 
L 137.7 101.417857 
L 117.612 99.322886 
L 94.176 97.275575 
L 67.392 95.373754 
L 54 94.626539 
L 54 94.626539 
" style="fill:none;stroke:#00ff66;stroke-width:1.5;"/>
   </g>
   <g id="LineCollection_6">
    <path clip-path="url(#p0c67f9b959)" d="M 388.8 178.414926 
L 374.856817 180.2448 
L 362.016 181.413872 
L 348.593183 182.4192 
L 335.232 183.048289 
L 321.84 183.478409 
L 308.448 183.701754 
L 295.056 183.715111 
L 281.664 183.518288 
L 268.272 183.114116 
L 253.238593 182.4192 
L 241.488 181.553622 
L 226.953935 180.2448 
L 214.704 178.651621 
L 208.008 177.601681 
L 197.964 175.614888 
L 190.705864 173.7216 
L 184.572 171.5472 
L 180.124795 169.3728 
L 176.943944 167.1984 
L 174.528 164.73801 
L 173.238653 162.8496 
L 172.275598 160.6752 
L 171.685134 158.5008 
L 171.348263 156.3264 
L 171.095258 151.9776 
L 171.05681 141.1056 
L 171.018438 134.5824 
L 170.767604 130.2336 
L 170.435078 128.0592 
L 169.852231 125.8848 
L 168.901598 123.7104 
L 167.440831 121.536 
L 165.307704 119.3616 
L 162.304912 117.1872 
L 157.788 114.841554 
L 152.819876 112.8384 
L 144.396 110.306717 
L 137.039191 108.4896 
L 124.308 106.037554 
L 110.916 103.944692 
L 94.176 101.826864 
L 74.088 99.791666 
L 54 98.227951 
L 54 98.227951 
" style="fill:none;stroke:#00ffff;stroke-width:1.5;"/>
   </g>
   <g id="LineCollection_7">
    <path clip-path="url(#p0c67f9b959)" d="M 388.8 187.922327 
L 371.697964 188.9424 
L 351.972 189.738499 
L 331.884 190.299356 
L 315.144 190.56116 
L 298.404 190.629577 
L 281.664 190.503071 
L 264.924 190.184483 
L 244.836 189.558998 
L 228.096 188.832334 
L 208.008 187.591098 
L 194.616 186.612625 
L 173.192165 184.5936 
L 154.44 182.250395 
L 141.048 180.128485 
L 130.612513 178.0704 
L 120.96 175.599811 
L 114.264 173.388396 
L 109.821282 171.5472 
L 105.881266 169.3728 
L 103.000497 167.1984 
L 100.872 164.880346 
L 99.571685 162.8496 
L 98.668513 160.6752 
L 98.114764 158.5008 
L 97.79884 156.3264 
L 97.560528 151.9776 
L 97.524 141.1056 
L 97.41223 132.408 
L 97.247105 130.2336 
L 96.928735 128.0592 
L 96.370699 125.8848 
L 95.460535 123.7104 
L 94.056424 121.536 
L 91.971581 119.3616 
L 88.995801 117.1872 
L 84.132 114.727345 
L 79.229384 112.8384 
L 70.74 110.457859 
L 60.696 108.344117 
L 54 107.25814 
L 54 107.25814 
" style="fill:none;stroke:#0066ff;stroke-width:1.5;"/>
   </g>
   <g id="LineCollection_8">
    <path clip-path="url(#p0c67f9b959)" d="M 388.8 199.280007 
L 385.452 199.384637 
L 382.104 199.485999 
L 378.756 199.584004 
L 375.408 199.678562 
L 372.06 199.76959 
L 370.343733 199.8144 
L 368.712 199.852324 
L 365.364 199.926851 
L 362.016 199.998024 
L 358.668 200.06578 
L 355.32 200.130057 
L 351.972 200.190798 
L 348.624 200.247948 
L 345.276 200.301455 
L 341.928 200.351272 
L 338.58 200.397353 
L 335.232 200.439658 
L 331.884 200.478147 
L 328.536 200.512787 
L 325.188 200.543546 
L 321.84 200.570397 
L 318.492 200.593314 
L 315.144 200.612279 
L 311.796 200.627274 
L 308.448 200.638284 
L 305.1 200.645301 
L 301.752 200.648318 
L 298.404 200.647332 
L 295.056 200.642344 
L 291.708 200.633359 
L 288.36 200.620384 
L 285.012 200.603432 
L 281.664 200.582518 
L 278.316 200.55766 
L 274.968 200.528881 
L 271.62 200.496206 
L 268.272 200.459666 
L 264.924 200.419293 
L 261.576 200.375123 
L 258.228 200.327196 
L 254.88 200.275556 
L 251.532 200.220248 
L 248.184 200.161322 
L 244.836 200.098833 
L 241.488 200.032834 
L 238.14 199.963387 
L 234.792 199.890554 
L 231.444 199.8144 
L 228.096 199.725196 
L 224.748 199.632419 
L 221.4 199.536152 
L 218.052 199.436482 
L 214.704 199.333499 
L 211.356 199.227295 
L 208.008 199.117965 
L 204.66 199.005609 
L 201.312 198.890327 
L 197.964 198.772223 
L 194.616 198.651404 
L 191.268 198.527977 
L 187.92 198.402055 
L 184.572 198.27375 
L 181.224 198.143178 
L 177.876 198.010456 
L 174.528 197.875705 
L 171.18 197.739044 
L 168.784849 197.64 
L 167.832 197.595369 
L 164.484 197.436669 
L 161.136 197.27623 
L 157.788 197.114197 
L 154.44 196.950715 
L 151.092 196.785931 
L 147.744 196.619994 
L 144.396 196.453053 
L 141.048 196.285258 
L 137.7 196.116761 
L 134.352 195.947712 
L 131.004 195.778264 
L 127.656 195.608571 
L 124.836802 195.4656 
L 124.308 195.43496 
L 120.96 195.241035 
L 117.612 195.047352 
L 114.264 194.854086 
L 110.916 194.66141 
L 107.568 194.469497 
L 104.22 194.278521 
L 100.872 194.088653 
L 97.524 193.900063 
L 94.176 193.712923 
L 90.828 193.5274 
L 87.48 193.343661 
L 86.513832 193.2912 
L 84.132 193.142077 
L 80.784 192.9349 
L 77.436 192.730346 
L 74.088 192.528599 
L 70.74 192.32984 
L 67.392 192.134249 
L 64.044 191.942002 
L 60.696 191.753271 
L 57.348 191.568226 
L 54 191.387034 
" style="fill:none;stroke:#3300ff;stroke-width:1.5;"/>
   </g>
   <g id="LineCollection_9">
    <path clip-path="url(#p0c67f9b959)" d="M 388.8 220.924899 
L 385.452 220.970688 
L 382.104 221.015048 
L 378.756 221.057938 
L 375.408 221.09932 
L 372.06 221.139156 
L 368.712 221.177412 
L 365.364 221.214051 
L 362.016 221.249042 
L 358.668 221.282353 
L 355.32 221.313953 
L 351.972 221.343815 
L 348.624 221.371912 
L 345.276 221.398218 
L 341.928 221.422709 
L 338.58 221.445364 
L 335.232 221.466162 
L 331.884 221.485085 
L 328.536 221.502115 
L 325.188 221.517237 
L 321.84 221.530438 
L 318.492 221.541705 
L 315.144 221.551028 
L 311.796 221.5584 
L 308.448 221.563591 
L 305.1 221.5669 
L 301.752 221.568322 
L 298.404 221.567857 
L 295.056 221.565506 
L 291.708 221.561269 
L 290.137702 221.5584 
L 288.36 221.555013 
L 285.012 221.546679 
L 281.664 221.536397 
L 278.316 221.524176 
L 274.968 221.510027 
L 271.62 221.493963 
L 268.272 221.475999 
L 264.924 221.45615 
L 261.576 221.434435 
L 258.228 221.410873 
L 254.88 221.385485 
L 251.532 221.358294 
L 248.184 221.329324 
L 244.836 221.298603 
L 241.488 221.266156 
L 238.14 221.232014 
L 234.792 221.196207 
L 231.444 221.158767 
L 228.096 221.119728 
L 224.748 221.079126 
L 221.4 221.036996 
L 218.052 220.993377 
L 214.704 220.948308 
L 211.356 220.90183 
L 208.008 220.853984 
L 204.66 220.804813 
L 201.312 220.754361 
L 197.964 220.702675 
L 194.616 220.649801 
L 191.268 220.595785 
L 187.92 220.540677 
L 184.572 220.484526 
L 181.224 220.427384 
L 177.876 220.3693 
L 174.528 220.310328 
L 171.18 220.250521 
L 167.832 220.189932 
L 164.484 220.128617 
L 161.136 220.066629 
L 157.788 220.004025 
L 154.44 219.940862 
L 151.092 219.877195 
L 147.744 219.813083 
L 144.396 219.748583 
L 141.048 219.683754 
L 137.7 219.618652 
L 134.352 219.553338 
L 131.004 219.48787 
L 127.656 219.422306 
L 125.700971 219.384 
L 124.308 219.355318 
L 120.96 219.286406 
L 117.612 219.21758 
L 114.264 219.148902 
L 110.916 219.080434 
L 107.568 219.012237 
L 104.22 218.944373 
L 100.872 218.876902 
L 97.524 218.809886 
L 94.176 218.743385 
L 90.828 218.677459 
L 87.48 218.612166 
L 84.132 218.547566 
L 80.784 218.483718 
L 77.436 218.420677 
L 74.088 218.358502 
L 70.74 218.297247 
L 67.392 218.236969 
L 64.044 218.177722 
L 60.696 218.119558 
L 57.348 218.06253 
L 54 218.006689 
" style="fill:none;stroke:#cc00ff;stroke-width:1.5;"/>
   </g>
   <g id="LineCollection_10">
    <path clip-path="url(#p0c67f9b959)" d="M 388.8 242.691808 
L 385.452 242.740939 
L 382.104 242.788536 
L 378.756 242.834556 
L 375.408 242.878958 
L 372.06 242.921701 
L 368.712 242.962748 
L 365.364 243.002061 
L 362.016 243.039606 
L 358.668 243.075347 
L 355.32 243.109254 
L 351.972 243.141295 
L 348.624 243.171442 
L 345.276 243.199667 
L 341.928 243.225946 
L 338.58 243.250254 
L 335.232 243.27257 
L 331.884 243.292874 
L 330.138525 243.3024 
L 328.536 243.312158 
L 325.188 243.330261 
L 321.84 243.346063 
L 318.492 243.359551 
L 315.144 243.370713 
L 311.796 243.379537 
L 308.448 243.386017 
L 305.1 243.390147 
L 301.752 243.391923 
L 298.404 243.391342 
L 295.056 243.388407 
L 291.708 243.383119 
L 288.36 243.375483 
L 285.012 243.365506 
L 281.664 243.353197 
L 278.316 243.338567 
L 274.968 243.32163 
L 271.62 243.3024 
L 268.272 243.283125 
L 264.924 243.261828 
L 261.576 243.238528 
L 258.228 243.213246 
L 254.88 243.186005 
L 251.532 243.15683 
L 248.184 243.125747 
L 244.836 243.092783 
L 241.488 243.057968 
L 238.14 243.021335 
L 234.792 242.982915 
L 231.444 242.942743 
L 228.096 242.900856 
L 224.748 242.85729 
L 221.4 242.812086 
L 218.052 242.765284 
L 214.704 242.716926 
L 211.356 242.667056 
L 208.008 242.615718 
L 204.66 242.562959 
L 201.312 242.508826 
L 197.964 242.453368 
L 194.616 242.396635 
L 191.268 242.338678 
L 187.92 242.279549 
L 184.572 242.2193 
L 181.224 242.157988 
L 177.876 242.095666 
L 174.528 242.03239 
L 171.18 241.968219 
L 167.832 241.903209 
L 164.484 241.837418 
L 161.136 241.770907 
L 157.788 241.703735 
L 154.44 241.635962 
L 151.092 241.56765 
L 147.744 241.498859 
L 144.396 241.429652 
L 141.048 241.360092 
L 137.7 241.29024 
L 134.352 241.22016 
L 131.004 241.149914 
L 129.961081 241.128 
L 127.656 241.083189 
L 124.308 241.018067 
L 120.96 240.952968 
L 117.612 240.887951 
L 114.264 240.823073 
L 110.916 240.758393 
L 107.568 240.693969 
L 104.22 240.62986 
L 100.872 240.566123 
L 97.524 240.502815 
L 94.176 240.439993 
L 90.828 240.377715 
L 87.48 240.316035 
L 84.132 240.25501 
L 80.784 240.194694 
L 77.436 240.135142 
L 74.088 240.076406 
L 70.74 240.018541 
L 67.392 239.961599 
L 64.044 239.905629 
L 60.696 239.850683 
L 57.348 239.796811 
L 54 239.74406 
" style="fill:none;stroke:#ff0099;stroke-width:1.5;"/>
   </g>
   <g id="patch_3">
    <path d="M 54 252 
L 54 34.56 
" style="fill:none;stroke:#000000;stroke-linecap:square;stroke-linejoin:miter;stroke-width:0.8;"/>
   </g>
   <g id="patch_4">
    <path d="M 388.8 252 
L 388.8 34.56 
" style="fill:none;stroke:#000000;stroke-linecap:square;stroke-linejoin:miter;stroke-width:0.8;"/>
   </g>
   <g id="patch_5">
    <path d="M 54 252 
L 388.8 252 
" style="fill:none;stroke:#000000;stroke-linecap:square;stroke-linejoin:miter;stroke-width:0.8;"/>
   </g>
   <g id="patch_6">
    <path d="M 54 34.56 
L 388.8 34.56 
" style="fill:none;stroke:#000000;stroke-linecap:square;stroke-linejoin:miter;stroke-width:0.8;"/>
   </g>
   <g id="text_15">
    <!-- y1 as a function of (x1,x3) around [0,2,2.5] -->
    <defs>
     <path d="M 32.171875 -5.078125 
Q 28.375 -14.84375 24.75 -17.8125 
Q 21.140625 -20.796875 15.09375 -20.796875 
L 7.90625 -20.796875 
L 7.90625 -13.28125 
L 13.1875 -13.28125 
Q 16.890625 -13.28125 18.9375 -11.515625 
Q 21 -9.765625 23.484375 -3.21875 
L 25.09375 0.875 
L 2.984375 54.6875 
L 12.5 54.6875 
L 29.59375 11.921875 
L 46.6875 54.6875 
L 56.203125 54.6875 
z
" id="DejaVuSans-79"/>
     <path id="DejaVuSans-20"/>
     <path d="M 34.28125 27.484375 
Q 23.390625 27.484375 19.1875 25 
Q 14.984375 22.515625 14.984375 16.5 
Q 14.984375 11.71875 18.140625 8.90625 
Q 21.296875 6.109375 26.703125 6.109375 
Q 34.1875 6.109375 38.703125 11.40625 
Q 43.21875 16.703125 43.21875 25.484375 
L 43.21875 27.484375 
z
M 52.203125 31.203125 
L 52.203125 0 
L 43.21875 0 
L 43.21875 8.296875 
Q 40.140625 3.328125 35.546875 0.953125 
Q 30.953125 -1.421875 24.3125 -1.421875 
Q 15.921875 -1.421875 10.953125 3.296875 
Q 6 8.015625 6 15.921875 
Q 6 25.140625 12.171875 29.828125 
Q 18.359375 34.515625 30.609375 34.515625 
L 43.21875 34.515625 
L 43.21875 35.40625 
Q 43.21875 41.609375 39.140625 45 
Q 35.0625 48.390625 27.6875 48.390625 
Q 23 48.390625 18.546875 47.265625 
Q 14.109375 46.140625 10.015625 43.890625 
L 10.015625 52.203125 
Q 14.9375 54.109375 19.578125 55.046875 
Q 24.21875 56 28.609375 56 
Q 40.484375 56 46.34375 49.84375 
Q 52.203125 43.703125 52.203125 31.203125 
z
" id="DejaVuSans-61"/>
     <path d="M 44.28125 53.078125 
L 44.28125 44.578125 
Q 40.484375 46.53125 36.375 47.5 
Q 32.28125 48.484375 27.875 48.484375 
Q 21.1875 48.484375 17.84375 46.4375 
Q 14.5 44.390625 14.5 40.28125 
Q 14.5 37.15625 16.890625 35.375 
Q 19.28125 33.59375 26.515625 31.984375 
L 29.59375 31.296875 
Q 39.15625 29.25 43.1875 25.515625 
Q 47.21875 21.78125 47.21875 15.09375 
Q 47.21875 7.46875 41.1875 3.015625 
Q 35.15625 -1.421875 24.609375 -1.421875 
Q 20.21875 -1.421875 15.453125 -0.5625 
Q 10.6875 0.296875 5.421875 2 
L 5.421875 11.28125 
Q 10.40625 8.6875 15.234375 7.390625 
Q 20.0625 6.109375 24.8125 6.109375 
Q 31.15625 6.109375 34.5625 8.28125 
Q 37.984375 10.453125 37.984375 14.40625 
Q 37.984375 18.0625 35.515625 20.015625 
Q 33.0625 21.96875 24.703125 23.78125 
L 21.578125 24.515625 
Q 13.234375 26.265625 9.515625 29.90625 
Q 5.8125 33.546875 5.8125 39.890625 
Q 5.8125 47.609375 11.28125 51.796875 
Q 16.75 56 26.8125 56 
Q 31.78125 56 36.171875 55.265625 
Q 40.578125 54.546875 44.28125 53.078125 
z
" id="DejaVuSans-73"/>
     <path d="M 37.109375 75.984375 
L 37.109375 68.5 
L 28.515625 68.5 
Q 23.6875 68.5 21.796875 66.546875 
Q 19.921875 64.59375 19.921875 59.515625 
L 19.921875 54.6875 
L 34.71875 54.6875 
L 34.71875 47.703125 
L 19.921875 47.703125 
L 19.921875 0 
L 10.890625 0 
L 10.890625 47.703125 
L 2.296875 47.703125 
L 2.296875 54.6875 
L 10.890625 54.6875 
L 10.890625 58.5 
Q 10.890625 67.625 15.140625 71.796875 
Q 19.390625 75.984375 28.609375 75.984375 
z
" id="DejaVuSans-66"/>
     <path d="M 8.5 21.578125 
L 8.5 54.6875 
L 17.484375 54.6875 
L 17.484375 21.921875 
Q 17.484375 14.15625 20.5 10.265625 
Q 23.53125 6.390625 29.59375 6.390625 
Q 36.859375 6.390625 41.078125 11.03125 
Q 45.3125 15.671875 45.3125 23.6875 
L 45.3125 54.6875 
L 54.296875 54.6875 
L 54.296875 0 
L 45.3125 0 
L 45.3125 8.40625 
Q 42.046875 3.421875 37.71875 1 
Q 33.40625 -1.421875 27.6875 -1.421875 
Q 18.265625 -1.421875 13.375 4.4375 
Q 8.5 10.296875 8.5 21.578125 
z
M 31.109375 56 
z
" id="DejaVuSans-75"/>
     <path d="M 54.890625 33.015625 
L 54.890625 0 
L 45.90625 0 
L 45.90625 32.71875 
Q 45.90625 40.484375 42.875 44.328125 
Q 39.84375 48.1875 33.796875 48.1875 
Q 26.515625 48.1875 22.3125 43.546875 
Q 18.109375 38.921875 18.109375 30.90625 
L 18.109375 0 
L 9.078125 0 
L 9.078125 54.6875 
L 18.109375 54.6875 
L 18.109375 46.1875 
Q 21.34375 51.125 25.703125 53.5625 
Q 30.078125 56 35.796875 56 
Q 45.21875 56 50.046875 50.171875 
Q 54.890625 44.34375 54.890625 33.015625 
z
" id="DejaVuSans-6e"/>
     <path d="M 48.78125 52.59375 
L 48.78125 44.1875 
Q 44.96875 46.296875 41.140625 47.34375 
Q 37.3125 48.390625 33.40625 48.390625 
Q 24.65625 48.390625 19.8125 42.84375 
Q 14.984375 37.3125 14.984375 27.296875 
Q 14.984375 17.28125 19.8125 11.734375 
Q 24.65625 6.203125 33.40625 6.203125 
Q 37.3125 6.203125 41.140625 7.25 
Q 44.96875 8.296875 48.78125 10.40625 
L 48.78125 2.09375 
Q 45.015625 0.34375 40.984375 -0.53125 
Q 36.96875 -1.421875 32.421875 -1.421875 
Q 20.0625 -1.421875 12.78125 6.34375 
Q 5.515625 14.109375 5.515625 27.296875 
Q 5.515625 40.671875 12.859375 48.328125 
Q 20.21875 56 33.015625 56 
Q 37.15625 56 41.109375 55.140625 
Q 45.0625 54.296875 48.78125 52.59375 
z
" id="DejaVuSans-63"/>
     <path d="M 18.3125 70.21875 
L 18.3125 54.6875 
L 36.8125 54.6875 
L 36.8125 47.703125 
L 18.3125 47.703125 
L 18.3125 18.015625 
Q 18.3125 11.328125 20.140625 9.421875 
Q 21.96875 7.515625 27.59375 7.515625 
L 36.8125 7.515625 
L 36.8125 0 
L 27.59375 0 
Q 17.1875 0 13.234375 3.875 
Q 9.28125 7.765625 9.28125 18.015625 
L 9.28125 47.703125 
L 2.6875 47.703125 
L 2.6875 54.6875 
L 9.28125 54.6875 
L 9.28125 70.21875 
z
" id="DejaVuSans-74"/>
     <path d="M 9.421875 54.6875 
L 18.40625 54.6875 
L 18.40625 0 
L 9.421875 0 
z
M 9.421875 75.984375 
L 18.40625 75.984375 
L 18.40625 64.59375 
L 9.421875 64.59375 
z
" id="DejaVuSans-69"/>
     <path d="M 30.609375 48.390625 
Q 23.390625 48.390625 19.1875 42.75 
Q 14.984375 37.109375 14.984375 27.296875 
Q 14.984375 17.484375 19.15625 11.84375 
Q 23.34375 6.203125 30.609375 6.203125 
Q 37.796875 6.203125 41.984375 11.859375 
Q 46.1875 17.53125 46.1875 27.296875 
Q 46.1875 37.015625 41.984375 42.703125 
Q 37.796875 48.390625 30.609375 48.390625 
z
M 30.609375 56 
Q 42.328125 56 49.015625 48.375 
Q 55.71875 40.765625 55.71875 27.296875 
Q 55.71875 13.875 49.015625 6.21875 
Q 42.328125 -1.421875 30.609375 -1.421875 
Q 18.84375 -1.421875 12.171875 6.21875 
Q 5.515625 13.875 5.515625 27.296875 
Q 5.515625 40.765625 12.171875 48.375 
Q 18.84375 56 30.609375 56 
z
" id="DejaVuSans-6f"/>
     <path d="M 31 75.875 
Q 24.46875 64.65625 21.28125 53.65625 
Q 18.109375 42.671875 18.109375 31.390625 
Q 18.109375 20.125 21.3125 9.0625 
Q 24.515625 -2 31 -13.1875 
L 23.1875 -13.1875 
Q 15.875 -1.703125 12.234375 9.375 
Q 8.59375 20.453125 8.59375 31.390625 
Q 8.59375 42.28125 12.203125 53.3125 
Q 15.828125 64.359375 23.1875 75.875 
z
" id="DejaVuSans-28"/>
     <path d="M 11.71875 12.40625 
L 22.015625 12.40625 
L 22.015625 4 
L 14.015625 -11.625 
L 7.71875 -11.625 
L 11.71875 4 
z
" id="DejaVuSans-2c"/>
     <path d="M 8.015625 75.875 
L 15.828125 75.875 
Q 23.140625 64.359375 26.78125 53.3125 
Q 30.421875 42.28125 30.421875 31.390625 
Q 30.421875 20.453125 26.78125 9.375 
Q 23.140625 -1.703125 15.828125 -13.1875 
L 8.015625 -13.1875 
Q 14.5 -2 17.703125 9.0625 
Q 20.90625 20.125 20.90625 31.390625 
Q 20.90625 42.671875 17.703125 53.65625 
Q 14.5 64.65625 8.015625 75.875 
z
" id="DejaVuSans-29"/>
     <path d="M 41.109375 46.296875 
Q 39.59375 47.171875 37.8125 47.578125 
Q 36.03125 48 33.890625 48 
Q 26.265625 48 22.1875 43.046875 
Q 18.109375 38.09375 18.109375 28.8125 
L 18.109375 0 
L 9.078125 0 
L 9.078125 54.6875 
L 18.109375 54.6875 
L 18.109375 46.1875 
Q 20.953125 51.171875 25.484375 53.578125 
Q 30.03125 56 36.53125 56 
Q 37.453125 56 38.578125 55.875 
Q 39.703125 55.765625 41.0625 55.515625 
z
" id="DejaVuSans-72"/>
     <path d="M 45.40625 46.390625 
L 45.40625 75.984375 
L 54.390625 75.984375 
L 54.390625 0 
L 45.40625 0 
L 45.40625 8.203125 
Q 42.578125 3.328125 38.25 0.953125 
Q 33.9375 -1.421875 27.875 -1.421875 
Q 17.96875 -1.421875 11.734375 6.484375 
Q 5.515625 14.40625 5.515625 27.296875 
Q 5.515625 40.1875 11.734375 48.09375 
Q 17.96875 56 27.875 56 
Q 33.9375 56 38.25 53.625 
Q 42.578125 51.265625 45.40625 46.390625 
z
M 14.796875 27.296875 
Q 14.796875 17.390625 18.875 11.75 
Q 22.953125 6.109375 30.078125 6.109375 
Q 37.203125 6.109375 41.296875 11.75 
Q 45.40625 17.390625 45.40625 27.296875 
Q 45.40625 37.203125 41.296875 42.84375 
Q 37.203125 48.484375 30.078125 48.484375 
Q 22.953125 48.484375 18.875 42.84375 
Q 14.796875 37.203125 14.796875 27.296875 
z
" id="DejaVuSans-64"/>
     <path d="M 8.59375 75.984375 
L 29.296875 75.984375 
L 29.296875 69 
L 17.578125 69 
L 17.578125 -6.203125 
L 29.296875 -6.203125 
L 29.296875 -13.1875 
L 8.59375 -13.1875 
z
" id="DejaVuSans-5b"/>
     <path d="M 30.421875 75.984375 
L 30.421875 -13.1875 
L 9.71875 -13.1875 
L 9.71875 -6.203125 
L 21.390625 -6.203125 
L 21.390625 69 
L 9.71875 69 
L 9.71875 75.984375 
z
" id="DejaVuSans-5d"/>
    </defs>
    <g transform="translate(91.685625 28.56)scale(0.12 -0.12)">
     <use xlink:href="#DejaVuSans-79"/>
     <use x="59.179688" xlink:href="#DejaVuSans-31"/>
     <use x="122.802734" xlink:href="#DejaVuSans-20"/>
     <use x="154.589844" xlink:href="#DejaVuSans-61"/>
     <use x="215.869141" xlink:href="#DejaVuSans-73"/>
     <use x="267.96875" xlink:href="#DejaVuSans-20"/>
     <use x="299.755859" xlink:href="#DejaVuSans-61"/>
     <use x="361.035156" xlink:href="#DejaVuSans-20"/>
     <use x="392.822266" xlink:href="#DejaVuSans-66"/>
     <use x="428.027344" xlink:href="#DejaVuSans-75"/>
     <use x="491.40625" xlink:href="#DejaVuSans-6e"/>
     <use x="554.785156" xlink:href="#DejaVuSans-63"/>
     <use x="609.765625" xlink:href="#DejaVuSans-74"/>
     <use x="648.974609" xlink:href="#DejaVuSans-69"/>
     <use x="676.757812" xlink:href="#DejaVuSans-6f"/>
     <use x="737.939453" xlink:href="#DejaVuSans-6e"/>
     <use x="801.318359" xlink:href="#DejaVuSans-20"/>
     <use x="833.105469" xlink:href="#DejaVuSans-6f"/>
     <use x="894.287109" xlink:href="#DejaVuSans-66"/>
     <use x="929.492188" xlink:href="#DejaVuSans-20"/>
     <use x="961.279297" xlink:href="#DejaVuSans-28"/>
     <use x="1000.292969" xlink:href="#DejaVuSans-78"/>
     <use x="1059.472656" xlink:href="#DejaVuSans-31"/>
     <use x="1123.095703" xlink:href="#DejaVuSans-2c"/>
     <use x="1154.882812" xlink:href="#DejaVuSans-78"/>
     <use x="1214.0625" xlink:href="#DejaVuSans-33"/>
     <use x="1277.685547" xlink:href="#DejaVuSans-29"/>
     <use x="1316.699219" xlink:href="#DejaVuSans-20"/>
     <use x="1348.486328" xlink:href="#DejaVuSans-61"/>
     <use x="1409.765625" xlink:href="#DejaVuSans-72"/>
     <use x="1450.847656" xlink:href="#DejaVuSans-6f"/>
     <use x="1512.029297" xlink:href="#DejaVuSans-75"/>
     <use x="1575.408203" xlink:href="#DejaVuSans-6e"/>
     <use x="1638.787109" xlink:href="#DejaVuSans-64"/>
     <use x="1702.263672" xlink:href="#DejaVuSans-20"/>
     <use x="1734.050781" xlink:href="#DejaVuSans-5b"/>
     <use x="1773.064453" xlink:href="#DejaVuSans-30"/>
     <use x="1836.6875" xlink:href="#DejaVuSans-2c"/>
     <use x="1868.474609" xlink:href="#DejaVuSans-32"/>
     <use x="1932.097656" xlink:href="#DejaVuSans-2c"/>
     <use x="1963.884766" xlink:href="#DejaVuSans-32"/>
     <use x="2027.507812" xlink:href="#DejaVuSans-2e"/>
     <use x="2059.294922" xlink:href="#DejaVuSans-35"/>
     <use x="2122.917969" xlink:href="#DejaVuSans-5d"/>
    </g>
   </g>
   <g id="legend_1">
    <g id="patch_7">
     <path d="M 300.476562 191.34125 
L 383.8 191.34125 
Q 385.8 191.34125 385.8 189.34125 
L 385.8 43.56 
Q 385.8 41.56 383.8 41.56 
L 300.476562 41.56 
Q 298.476562 41.56 298.476562 43.56 
L 298.476562 189.34125 
Q 298.476562 191.34125 300.476562 191.34125 
z
" style="fill:#4c4c4c;opacity:0.5;stroke:#4c4c4c;stroke-linejoin:miter;"/>
    </g>
    <g id="patch_8">
     <path d="M 298.476562 189.34125 
L 381.8 189.34125 
Q 383.8 189.34125 383.8 187.34125 
L 383.8 41.56 
Q 383.8 39.56 381.8 39.56 
L 298.476562 39.56 
Q 296.476562 39.56 296.476562 41.56 
L 296.476562 187.34125 
Q 296.476562 189.34125 298.476562 189.34125 
z
" style="fill:#ffffff;opacity:0.8;stroke:#cccccc;stroke-linejoin:miter;"/>
    </g>
    <g id="line2d_25">
     <path d="M 300.476562 47.658437 
L 320.476562 47.658437 
" style="fill:none;stroke:#ff0000;stroke-width:1.5;"/>
    </g>
    <g id="text_16">
     <!-- -18.8573 -->
     <defs>
      <path d="M 4.890625 31.390625 
L 31.203125 31.390625 
L 31.203125 23.390625 
L 4.890625 23.390625 
z
" id="DejaVuSans-2d"/>
      <path d="M 31.78125 34.625 
Q 24.75 34.625 20.71875 30.859375 
Q 16.703125 27.09375 16.703125 20.515625 
Q 16.703125 13.921875 20.71875 10.15625 
Q 24.75 6.390625 31.78125 6.390625 
Q 38.8125 6.390625 42.859375 10.171875 
Q 46.921875 13.96875 46.921875 20.515625 
Q 46.921875 27.09375 42.890625 30.859375 
Q 38.875 34.625 31.78125 34.625 
z
M 21.921875 38.8125 
Q 15.578125 40.375 12.03125 44.71875 
Q 8.5 49.078125 8.5 55.328125 
Q 8.5 64.0625 14.71875 69.140625 
Q 20.953125 74.21875 31.78125 74.21875 
Q 42.671875 74.21875 48.875 69.140625 
Q 55.078125 64.0625 55.078125 55.328125 
Q 55.078125 49.078125 51.53125 44.71875 
Q 48 40.375 41.703125 38.8125 
Q 48.828125 37.15625 52.796875 32.3125 
Q 56.78125 27.484375 56.78125 20.515625 
Q 56.78125 9.90625 50.3125 4.234375 
Q 43.84375 -1.421875 31.78125 -1.421875 
Q 19.734375 -1.421875 13.25 4.234375 
Q 6.78125 9.90625 6.78125 20.515625 
Q 6.78125 27.484375 10.78125 32.3125 
Q 14.796875 37.15625 21.921875 38.8125 
z
M 18.3125 54.390625 
Q 18.3125 48.734375 21.84375 45.5625 
Q 25.390625 42.390625 31.78125 42.390625 
Q 38.140625 42.390625 41.71875 45.5625 
Q 45.3125 48.734375 45.3125 54.390625 
Q 45.3125 60.0625 41.71875 63.234375 
Q 38.140625 66.40625 31.78125 66.40625 
Q 25.390625 66.40625 21.84375 63.234375 
Q 18.3125 60.0625 18.3125 54.390625 
z
" id="DejaVuSans-38"/>
      <path d="M 8.203125 72.90625 
L 55.078125 72.90625 
L 55.078125 68.703125 
L 28.609375 0 
L 18.3125 0 
L 43.21875 64.59375 
L 8.203125 64.59375 
z
" id="DejaVuSans-37"/>
     </defs>
     <g transform="translate(328.476562 51.158437)scale(0.1 -0.1)">
      <use xlink:href="#DejaVuSans-2d"/>
      <use x="36.083984" xlink:href="#DejaVuSans-31"/>
      <use x="99.707031" xlink:href="#DejaVuSans-38"/>
      <use x="163.330078" xlink:href="#DejaVuSans-2e"/>
      <use x="195.117188" xlink:href="#DejaVuSans-38"/>
      <use x="258.740234" xlink:href="#DejaVuSans-35"/>
      <use x="322.363281" xlink:href="#DejaVuSans-37"/>
      <use x="385.986328" xlink:href="#DejaVuSans-33"/>
     </g>
    </g>
    <g id="line2d_26">
     <path d="M 300.476562 62.336563 
L 320.476562 62.336563 
" style="fill:none;stroke:#ff9900;stroke-width:1.5;"/>
    </g>
    <g id="text_17">
     <!-- -8.10515 -->
     <g transform="translate(328.476562 65.836563)scale(0.1 -0.1)">
      <use xlink:href="#DejaVuSans-2d"/>
      <use x="36.083984" xlink:href="#DejaVuSans-38"/>
      <use x="99.707031" xlink:href="#DejaVuSans-2e"/>
      <use x="131.494141" xlink:href="#DejaVuSans-31"/>
      <use x="195.117188" xlink:href="#DejaVuSans-30"/>
      <use x="258.740234" xlink:href="#DejaVuSans-35"/>
      <use x="322.363281" xlink:href="#DejaVuSans-31"/>
      <use x="385.986328" xlink:href="#DejaVuSans-35"/>
     </g>
    </g>
    <g id="line2d_27">
     <path d="M 300.476562 77.014688 
L 320.476562 77.014688 
" style="fill:none;stroke:#ccff00;stroke-width:1.5;"/>
    </g>
    <g id="text_18">
     <!-- -0.926367 -->
     <defs>
      <path d="M 10.984375 1.515625 
L 10.984375 10.5 
Q 14.703125 8.734375 18.5 7.8125 
Q 22.3125 6.890625 25.984375 6.890625 
Q 35.75 6.890625 40.890625 13.453125 
Q 46.046875 20.015625 46.78125 33.40625 
Q 43.953125 29.203125 39.59375 26.953125 
Q 35.25 24.703125 29.984375 24.703125 
Q 19.046875 24.703125 12.671875 31.3125 
Q 6.296875 37.9375 6.296875 49.421875 
Q 6.296875 60.640625 12.9375 67.421875 
Q 19.578125 74.21875 30.609375 74.21875 
Q 43.265625 74.21875 49.921875 64.515625 
Q 56.59375 54.828125 56.59375 36.375 
Q 56.59375 19.140625 48.40625 8.859375 
Q 40.234375 -1.421875 26.421875 -1.421875 
Q 22.703125 -1.421875 18.890625 -0.6875 
Q 15.09375 0.046875 10.984375 1.515625 
z
M 30.609375 32.421875 
Q 37.25 32.421875 41.125 36.953125 
Q 45.015625 41.5 45.015625 49.421875 
Q 45.015625 57.28125 41.125 61.84375 
Q 37.25 66.40625 30.609375 66.40625 
Q 23.96875 66.40625 20.09375 61.84375 
Q 16.21875 57.28125 16.21875 49.421875 
Q 16.21875 41.5 20.09375 36.953125 
Q 23.96875 32.421875 30.609375 32.421875 
z
" id="DejaVuSans-39"/>
      <path d="M 33.015625 40.375 
Q 26.375 40.375 22.484375 35.828125 
Q 18.609375 31.296875 18.609375 23.390625 
Q 18.609375 15.53125 22.484375 10.953125 
Q 26.375 6.390625 33.015625 6.390625 
Q 39.65625 6.390625 43.53125 10.953125 
Q 47.40625 15.53125 47.40625 23.390625 
Q 47.40625 31.296875 43.53125 35.828125 
Q 39.65625 40.375 33.015625 40.375 
z
M 52.59375 71.296875 
L 52.59375 62.3125 
Q 48.875 64.0625 45.09375 64.984375 
Q 41.3125 65.921875 37.59375 65.921875 
Q 27.828125 65.921875 22.671875 59.328125 
Q 17.53125 52.734375 16.796875 39.40625 
Q 19.671875 43.65625 24.015625 45.921875 
Q 28.375 48.1875 33.59375 48.1875 
Q 44.578125 48.1875 50.953125 41.515625 
Q 57.328125 34.859375 57.328125 23.390625 
Q 57.328125 12.15625 50.6875 5.359375 
Q 44.046875 -1.421875 33.015625 -1.421875 
Q 20.359375 -1.421875 13.671875 8.265625 
Q 6.984375 17.96875 6.984375 36.375 
Q 6.984375 53.65625 15.1875 63.9375 
Q 23.390625 74.21875 37.203125 74.21875 
Q 40.921875 74.21875 44.703125 73.484375 
Q 48.484375 72.75 52.59375 71.296875 
z
" id="DejaVuSans-36"/>
     </defs>
     <g transform="translate(328.476562 80.514688)scale(0.1 -0.1)">
      <use xlink:href="#DejaVuSans-2d"/>
      <use x="36.083984" xlink:href="#DejaVuSans-30"/>
      <use x="99.707031" xlink:href="#DejaVuSans-2e"/>
      <use x="131.494141" xlink:href="#DejaVuSans-39"/>
      <use x="195.117188" xlink:href="#DejaVuSans-32"/>
      <use x="258.740234" xlink:href="#DejaVuSans-36"/>
      <use x="322.363281" xlink:href="#DejaVuSans-33"/>
      <use x="385.986328" xlink:href="#DejaVuSans-36"/>
      <use x="449.609375" xlink:href="#DejaVuSans-37"/>
     </g>
    </g>
    <g id="line2d_28">
     <path d="M 300.476562 91.692813 
L 320.476562 91.692813 
" style="fill:none;stroke:#33ff00;stroke-width:1.5;"/>
    </g>
    <g id="text_19">
     <!-- 1.00169 -->
     <g transform="translate(328.476562 95.192813)scale(0.1 -0.1)">
      <use xlink:href="#DejaVuSans-31"/>
      <use x="63.623047" xlink:href="#DejaVuSans-2e"/>
      <use x="95.410156" xlink:href="#DejaVuSans-30"/>
      <use x="159.033203" xlink:href="#DejaVuSans-30"/>
      <use x="222.65625" xlink:href="#DejaVuSans-31"/>
      <use x="286.279297" xlink:href="#DejaVuSans-36"/>
      <use x="349.902344" xlink:href="#DejaVuSans-39"/>
     </g>
    </g>
    <g id="line2d_29">
     <path d="M 300.476562 106.370938 
L 320.476562 106.370938 
" style="fill:none;stroke:#00ff66;stroke-width:1.5;"/>
    </g>
    <g id="text_20">
     <!-- 1.18413 -->
     <defs>
      <path d="M 37.796875 64.3125 
L 12.890625 25.390625 
L 37.796875 25.390625 
z
M 35.203125 72.90625 
L 47.609375 72.90625 
L 47.609375 25.390625 
L 58.015625 25.390625 
L 58.015625 17.1875 
L 47.609375 17.1875 
L 47.609375 0 
L 37.796875 0 
L 37.796875 17.1875 
L 4.890625 17.1875 
L 4.890625 26.703125 
z
" id="DejaVuSans-34"/>
     </defs>
     <g transform="translate(328.476562 109.870938)scale(0.1 -0.1)">
      <use xlink:href="#DejaVuSans-31"/>
      <use x="63.623047" xlink:href="#DejaVuSans-2e"/>
      <use x="95.410156" xlink:href="#DejaVuSans-31"/>
      <use x="159.033203" xlink:href="#DejaVuSans-38"/>
      <use x="222.65625" xlink:href="#DejaVuSans-34"/>
      <use x="286.279297" xlink:href="#DejaVuSans-31"/>
      <use x="349.902344" xlink:href="#DejaVuSans-33"/>
     </g>
    </g>
    <g id="line2d_30">
     <path d="M 300.476562 121.049062 
L 320.476562 121.049062 
" style="fill:none;stroke:#00ffff;stroke-width:1.5;"/>
    </g>
    <g id="text_21">
     <!-- 1.60387 -->
     <g transform="translate(328.476562 124.549062)scale(0.1 -0.1)">
      <use xlink:href="#DejaVuSans-31"/>
      <use x="63.623047" xlink:href="#DejaVuSans-2e"/>
      <use x="95.410156" xlink:href="#DejaVuSans-36"/>
      <use x="159.033203" xlink:href="#DejaVuSans-30"/>
      <use x="222.65625" xlink:href="#DejaVuSans-33"/>
      <use x="286.279297" xlink:href="#DejaVuSans-38"/>
      <use x="349.902344" xlink:href="#DejaVuSans-37"/>
     </g>
    </g>
    <g id="line2d_31">
     <path d="M 300.476562 135.727188 
L 320.476562 135.727188 
" style="fill:none;stroke:#0066ff;stroke-width:1.5;"/>
    </g>
    <g id="text_22">
     <!-- 2.24895 -->
     <g transform="translate(328.476562 139.227188)scale(0.1 -0.1)">
      <use xlink:href="#DejaVuSans-32"/>
      <use x="63.623047" xlink:href="#DejaVuSans-2e"/>
      <use x="95.410156" xlink:href="#DejaVuSans-32"/>
      <use x="159.033203" xlink:href="#DejaVuSans-34"/>
      <use x="222.65625" xlink:href="#DejaVuSans-38"/>
      <use x="286.279297" xlink:href="#DejaVuSans-39"/>
      <use x="349.902344" xlink:href="#DejaVuSans-35"/>
     </g>
    </g>
    <g id="line2d_32">
     <path d="M 300.476562 150.405312 
L 320.476562 150.405312 
" style="fill:none;stroke:#3300ff;stroke-width:1.5;"/>
    </g>
    <g id="text_23">
     <!-- 3.93953 -->
     <g transform="translate(328.476562 153.905312)scale(0.1 -0.1)">
      <use xlink:href="#DejaVuSans-33"/>
      <use x="63.623047" xlink:href="#DejaVuSans-2e"/>
      <use x="95.410156" xlink:href="#DejaVuSans-39"/>
      <use x="159.033203" xlink:href="#DejaVuSans-33"/>
      <use x="222.65625" xlink:href="#DejaVuSans-39"/>
      <use x="286.279297" xlink:href="#DejaVuSans-35"/>
      <use x="349.902344" xlink:href="#DejaVuSans-33"/>
     </g>
    </g>
    <g id="line2d_33">
     <path d="M 300.476562 165.083438 
L 320.476562 165.083438 
" style="fill:none;stroke:#cc00ff;stroke-width:1.5;"/>
    </g>
    <g id="text_24">
     <!-- 11.2278 -->
     <g transform="translate(328.476562 168.583438)scale(0.1 -0.1)">
      <use xlink:href="#DejaVuSans-31"/>
      <use x="63.623047" xlink:href="#DejaVuSans-31"/>
      <use x="127.246094" xlink:href="#DejaVuSans-2e"/>
      <use x="159.033203" xlink:href="#DejaVuSans-32"/>
      <use x="222.65625" xlink:href="#DejaVuSans-32"/>
      <use x="286.279297" xlink:href="#DejaVuSans-37"/>
      <use x="349.902344" xlink:href="#DejaVuSans-38"/>
     </g>
    </g>
    <g id="line2d_34">
     <path d="M 300.476562 179.761562 
L 320.476562 179.761562 
" style="fill:none;stroke:#ff0099;stroke-width:1.5;"/>
    </g>
    <g id="text_25">
     <!-- 21.9021 -->
     <g transform="translate(328.476562 183.261562)scale(0.1 -0.1)">
      <use xlink:href="#DejaVuSans-32"/>
      <use x="63.623047" xlink:href="#DejaVuSans-31"/>
      <use x="127.246094" xlink:href="#DejaVuSans-2e"/>
      <use x="159.033203" xlink:href="#DejaVuSans-39"/>
      <use x="222.65625" xlink:href="#DejaVuSans-30"/>
      <use x="286.279297" xlink:href="#DejaVuSans-32"/>
      <use x="349.902344" xlink:href="#DejaVuSans-31"/>
     </g>
    </g>
   </g>
  </g>
 </g>
 <defs>
  <clipPath id="p0c67f9b959">
   <rect height="217.44" width="334.8" x="54" y="34.56"/>
  </clipPath>
 </defs>
</svg>
