<?xml version="1.0" encoding="utf-8" standalone="no"?>
<!DOCTYPE svg PUBLIC "-//W3C//DTD SVG 1.1//EN"
  "http://www.w3.org/Graphics/SVG/1.1/DTD/svg11.dtd">
<!-- Created with matplotlib (http://matplotlib.org/) -->
<svg height="288pt" version="1.1" viewBox="0 0 432 288" width="432pt" xmlns="http://www.w3.org/2000/svg" xmlns:xlink="http://www.w3.org/1999/xlink">
 <defs>
  <style type="text/css">
*{stroke-linecap:butt;stroke-linejoin:round;}
  </style>
 </defs>
 <g id="figure_1">
  <g id="patch_1">
   <path d="M 0 288 
L 432 288 
L 432 0 
L 0 0 
z
" style="fill:#ffffff;"/>
  </g>
  <g id="axes_1">
   <g id="patch_2">
    <path d="M 54 252 
L 388.8 252 
L 388.8 34.56 
L 54 34.56 
z
" style="fill:#ffffff;"/>
   </g>
   <g id="matplotlib.axis_1">
    <g id="xtick_1">
     <g id="line2d_1">
      <path clip-path="url(#p4bcb1a0394)" d="M 69.218182 252 
L 69.218182 34.56 
" style="fill:none;stroke:#b0b0b0;stroke-linecap:square;stroke-width:0.8;"/>
     </g>
     <g id="line2d_2">
      <defs>
       <path d="M 0 0 
L 0 3.5 
" id="mdfc72a2aa8" style="stroke:#000000;stroke-width:0.8;"/>
      </defs>
      <g>
       <use style="stroke:#000000;stroke-width:0.8;" x="69.218182" xlink:href="#mdfc72a2aa8" y="252"/>
      </g>
     </g>
     <g id="text_1">
      <!-- −1.00 -->
      <defs>
       <path d="M 10.59375 35.5 
L 73.1875 35.5 
L 73.1875 27.203125 
L 10.59375 27.203125 
z
" id="DejaVuSans-2212"/>
       <path d="M 12.40625 8.296875 
L 28.515625 8.296875 
L 28.515625 63.921875 
L 10.984375 60.40625 
L 10.984375 69.390625 
L 28.421875 72.90625 
L 38.28125 72.90625 
L 38.28125 8.296875 
L 54.390625 8.296875 
L 54.390625 0 
L 12.40625 0 
z
" id="DejaVuSans-31"/>
       <path d="M 10.6875 12.40625 
L 21 12.40625 
L 21 0 
L 10.6875 0 
z
" id="DejaVuSans-2e"/>
       <path d="M 31.78125 66.40625 
Q 24.171875 66.40625 20.328125 58.90625 
Q 16.5 51.421875 16.5 36.375 
Q 16.5 21.390625 20.328125 13.890625 
Q 24.171875 6.390625 31.78125 6.390625 
Q 39.453125 6.390625 43.28125 13.890625 
Q 47.125 21.390625 47.125 36.375 
Q 47.125 51.421875 43.28125 58.90625 
Q 39.453125 66.40625 31.78125 66.40625 
z
M 31.78125 74.21875 
Q 44.046875 74.21875 50.515625 64.515625 
Q 56.984375 54.828125 56.984375 36.375 
Q 56.984375 17.96875 50.515625 8.265625 
Q 44.046875 -1.421875 31.78125 -1.421875 
Q 19.53125 -1.421875 13.0625 8.265625 
Q 6.59375 17.96875 6.59375 36.375 
Q 6.59375 54.828125 13.0625 64.515625 
Q 19.53125 74.21875 31.78125 74.21875 
z
" id="DejaVuSans-30"/>
      </defs>
      <g transform="translate(53.895526 266.598437)scale(0.1 -0.1)">
       <use xlink:href="#DejaVuSans-2212"/>
       <use x="83.789062" xlink:href="#DejaVuSans-31"/>
       <use x="147.412109" xlink:href="#DejaVuSans-2e"/>
       <use x="179.199219" xlink:href="#DejaVuSans-30"/>
       <use x="242.822266" xlink:href="#DejaVuSans-30"/>
      </g>
     </g>
    </g>
    <g id="xtick_2">
     <g id="line2d_3">
      <path clip-path="url(#p4bcb1a0394)" d="M 107.263636 252 
L 107.263636 34.56 
" style="fill:none;stroke:#b0b0b0;stroke-linecap:square;stroke-width:0.8;"/>
     </g>
     <g id="line2d_4">
      <g>
       <use style="stroke:#000000;stroke-width:0.8;" x="107.263636" xlink:href="#mdfc72a2aa8" y="252"/>
      </g>
     </g>
     <g id="text_2">
      <!-- −0.75 -->
      <defs>
       <path d="M 8.203125 72.90625 
L 55.078125 72.90625 
L 55.078125 68.703125 
L 28.609375 0 
L 18.3125 0 
L 43.21875 64.59375 
L 8.203125 64.59375 
z
" id="DejaVuSans-37"/>
       <path d="M 10.796875 72.90625 
L 49.515625 72.90625 
L 49.515625 64.59375 
L 19.828125 64.59375 
L 19.828125 46.734375 
Q 21.96875 47.46875 24.109375 47.828125 
Q 26.265625 48.1875 28.421875 48.1875 
Q 40.625 48.1875 47.75 41.5 
Q 54.890625 34.8125 54.890625 23.390625 
Q 54.890625 11.625 47.5625 5.09375 
Q 40.234375 -1.421875 26.90625 -1.421875 
Q 22.3125 -1.421875 17.546875 -0.640625 
Q 12.796875 0.140625 7.71875 1.703125 
L 7.71875 11.625 
Q 12.109375 9.234375 16.796875 8.0625 
Q 21.484375 6.890625 26.703125 6.890625 
Q 35.15625 6.890625 40.078125 11.328125 
Q 45.015625 15.765625 45.015625 23.390625 
Q 45.015625 31 40.078125 35.4375 
Q 35.15625 39.890625 26.703125 39.890625 
Q 22.75 39.890625 18.8125 39.015625 
Q 14.890625 38.140625 10.796875 36.28125 
z
" id="DejaVuSans-35"/>
      </defs>
      <g transform="translate(91.94098 266.598437)scale(0.1 -0.1)">
       <use xlink:href="#DejaVuSans-2212"/>
       <use x="83.789062" xlink:href="#DejaVuSans-30"/>
       <use x="147.412109" xlink:href="#DejaVuSans-2e"/>
       <use x="179.199219" xlink:href="#DejaVuSans-37"/>
       <use x="242.822266" xlink:href="#DejaVuSans-35"/>
      </g>
     </g>
    </g>
    <g id="xtick_3">
     <g id="line2d_5">
      <path clip-path="url(#p4bcb1a0394)" d="M 145.309091 252 
L 145.309091 34.56 
" style="fill:none;stroke:#b0b0b0;stroke-linecap:square;stroke-width:0.8;"/>
     </g>
     <g id="line2d_6">
      <g>
       <use style="stroke:#000000;stroke-width:0.8;" x="145.309091" xlink:href="#mdfc72a2aa8" y="252"/>
      </g>
     </g>
     <g id="text_3">
      <!-- −0.50 -->
      <g transform="translate(129.986435 266.598437)scale(0.1 -0.1)">
       <use xlink:href="#DejaVuSans-2212"/>
       <use x="83.789062" xlink:href="#DejaVuSans-30"/>
       <use x="147.412109" xlink:href="#DejaVuSans-2e"/>
       <use x="179.199219" xlink:href="#DejaVuSans-35"/>
       <use x="242.822266" xlink:href="#DejaVuSans-30"/>
      </g>
     </g>
    </g>
    <g id="xtick_4">
     <g id="line2d_7">
      <path clip-path="url(#p4bcb1a0394)" d="M 183.354545 252 
L 183.354545 34.56 
" style="fill:none;stroke:#b0b0b0;stroke-linecap:square;stroke-width:0.8;"/>
     </g>
     <g id="line2d_8">
      <g>
       <use style="stroke:#000000;stroke-width:0.8;" x="183.354545" xlink:href="#mdfc72a2aa8" y="252"/>
      </g>
     </g>
     <g id="text_4">
      <!-- −0.25 -->
      <defs>
       <path d="M 19.1875 8.296875 
L 53.609375 8.296875 
L 53.609375 0 
L 7.328125 0 
L 7.328125 8.296875 
Q 12.9375 14.109375 22.625 23.890625 
Q 32.328125 33.6875 34.8125 36.53125 
Q 39.546875 41.84375 41.421875 45.53125 
Q 43.3125 49.21875 43.3125 52.78125 
Q 43.3125 58.59375 39.234375 62.25 
Q 35.15625 65.921875 28.609375 65.921875 
Q 23.96875 65.921875 18.8125 64.3125 
Q 13.671875 62.703125 7.8125 59.421875 
L 7.8125 69.390625 
Q 13.765625 71.78125 18.9375 73 
Q 24.125 74.21875 28.421875 74.21875 
Q 39.75 74.21875 46.484375 68.546875 
Q 53.21875 62.890625 53.21875 53.421875 
Q 53.21875 48.921875 51.53125 44.890625 
Q 49.859375 40.875 45.40625 35.40625 
Q 44.1875 33.984375 37.640625 27.21875 
Q 31.109375 20.453125 19.1875 8.296875 
z
" id="DejaVuSans-32"/>
      </defs>
      <g transform="translate(168.031889 266.598437)scale(0.1 -0.1)">
       <use xlink:href="#DejaVuSans-2212"/>
       <use x="83.789062" xlink:href="#DejaVuSans-30"/>
       <use x="147.412109" xlink:href="#DejaVuSans-2e"/>
       <use x="179.199219" xlink:href="#DejaVuSans-32"/>
       <use x="242.822266" xlink:href="#DejaVuSans-35"/>
      </g>
     </g>
    </g>
    <g id="xtick_5">
     <g id="line2d_9">
      <path clip-path="url(#p4bcb1a0394)" d="M 221.4 252 
L 221.4 34.56 
" style="fill:none;stroke:#b0b0b0;stroke-linecap:square;stroke-width:0.8;"/>
     </g>
     <g id="line2d_10">
      <g>
       <use style="stroke:#000000;stroke-width:0.8;" x="221.4" xlink:href="#mdfc72a2aa8" y="252"/>
      </g>
     </g>
     <g id="text_5">
      <!-- 0.00 -->
      <g transform="translate(210.267188 266.598437)scale(0.1 -0.1)">
       <use xlink:href="#DejaVuSans-30"/>
       <use x="63.623047" xlink:href="#DejaVuSans-2e"/>
       <use x="95.410156" xlink:href="#DejaVuSans-30"/>
       <use x="159.033203" xlink:href="#DejaVuSans-30"/>
      </g>
     </g>
    </g>
    <g id="xtick_6">
     <g id="line2d_11">
      <path clip-path="url(#p4bcb1a0394)" d="M 259.445455 252 
L 259.445455 34.56 
" style="fill:none;stroke:#b0b0b0;stroke-linecap:square;stroke-width:0.8;"/>
     </g>
     <g id="line2d_12">
      <g>
       <use style="stroke:#000000;stroke-width:0.8;" x="259.445455" xlink:href="#mdfc72a2aa8" y="252"/>
      </g>
     </g>
     <g id="text_6">
      <!-- 0.25 -->
      <g transform="translate(248.312642 266.598437)scale(0.1 -0.1)">
       <use xlink:href="#DejaVuSans-30"/>
       <use x="63.623047" xlink:href="#DejaVuSans-2e"/>
       <use x="95.410156" xlink:href="#DejaVuSans-32"/>
       <use x="159.033203" xlink:href="#DejaVuSans-35"/>
      </g>
     </g>
    </g>
    <g id="xtick_7">
     <g id="line2d_13">
      <path clip-path="url(#p4bcb1a0394)" d="M 297.490909 252 
L 297.490909 34.56 
" style="fill:none;stroke:#b0b0b0;stroke-linecap:square;stroke-width:0.8;"/>
     </g>
     <g id="line2d_14">
      <g>
       <use style="stroke:#000000;stroke-width:0.8;" x="297.490909" xlink:href="#mdfc72a2aa8" y="252"/>
      </g>
     </g>
     <g id="text_7">
      <!-- 0.50 -->
      <g transform="translate(286.358097 266.598437)scale(0.1 -0.1)">
       <use xlink:href="#DejaVuSans-30"/>
       <use x="63.623047" xlink:href="#DejaVuSans-2e"/>
       <use x="95.410156" xlink:href="#DejaVuSans-35"/>
       <use x="159.033203" xlink:href="#DejaVuSans-30"/>
      </g>
     </g>
    </g>
    <g id="xtick_8">
     <g id="line2d_15">
      <path clip-path="url(#p4bcb1a0394)" d="M 335.536364 252 
L 335.536364 34.56 
" style="fill:none;stroke:#b0b0b0;stroke-linecap:square;stroke-width:0.8;"/>
     </g>
     <g id="line2d_16">
      <g>
       <use style="stroke:#000000;stroke-width:0.8;" x="335.536364" xlink:href="#mdfc72a2aa8" y="252"/>
      </g>
     </g>
     <g id="text_8">
      <!-- 0.75 -->
      <g transform="translate(324.403551 266.598437)scale(0.1 -0.1)">
       <use xlink:href="#DejaVuSans-30"/>
       <use x="63.623047" xlink:href="#DejaVuSans-2e"/>
       <use x="95.410156" xlink:href="#DejaVuSans-37"/>
       <use x="159.033203" xlink:href="#DejaVuSans-35"/>
      </g>
     </g>
    </g>
    <g id="xtick_9">
     <g id="line2d_17">
      <path clip-path="url(#p4bcb1a0394)" d="M 373.581818 252 
L 373.581818 34.56 
" style="fill:none;stroke:#b0b0b0;stroke-linecap:square;stroke-width:0.8;"/>
     </g>
     <g id="line2d_18">
      <g>
       <use style="stroke:#000000;stroke-width:0.8;" x="373.581818" xlink:href="#mdfc72a2aa8" y="252"/>
      </g>
     </g>
     <g id="text_9">
      <!-- 1.00 -->
      <g transform="translate(362.449006 266.598437)scale(0.1 -0.1)">
       <use xlink:href="#DejaVuSans-31"/>
       <use x="63.623047" xlink:href="#DejaVuSans-2e"/>
       <use x="95.410156" xlink:href="#DejaVuSans-30"/>
       <use x="159.033203" xlink:href="#DejaVuSans-30"/>
      </g>
     </g>
    </g>
    <g id="text_10">
     <!-- $t$ -->
     <defs>
      <path d="M 42.28125 54.6875 
L 40.921875 47.703125 
L 23 47.703125 
L 17.1875 18.015625 
Q 16.890625 16.359375 16.75 15.234375 
Q 16.609375 14.109375 16.609375 13.484375 
Q 16.609375 10.359375 18.484375 8.9375 
Q 20.359375 7.515625 24.515625 7.515625 
L 33.59375 7.515625 
L 32.078125 0 
L 23.484375 0 
Q 15.484375 0 11.546875 3.125 
Q 7.625 6.25 7.625 12.59375 
Q 7.625 13.71875 7.765625 15.0625 
Q 7.90625 16.40625 8.203125 18.015625 
L 14.015625 47.703125 
L 6.390625 47.703125 
L 7.8125 54.6875 
L 15.28125 54.6875 
L 18.3125 70.21875 
L 27.296875 70.21875 
L 24.3125 54.6875 
z
" id="DejaVuSans-Oblique-74"/>
     </defs>
     <g transform="translate(219.4 280.276563)scale(0.1 -0.1)">
      <use transform="translate(0 0.78125)" xlink:href="#DejaVuSans-Oblique-74"/>
     </g>
    </g>
   </g>
   <g id="matplotlib.axis_2">
    <g id="ytick_1">
     <g id="line2d_19">
      <path clip-path="url(#p4bcb1a0394)" d="M 54 227.277797 
L 388.8 227.277797 
" style="fill:none;stroke:#b0b0b0;stroke-linecap:square;stroke-width:0.8;"/>
     </g>
     <g id="line2d_20">
      <defs>
       <path d="M 0 0 
L -3.5 0 
" id="mabf8bc99cd" style="stroke:#000000;stroke-width:0.8;"/>
      </defs>
      <g>
       <use style="stroke:#000000;stroke-width:0.8;" x="54" xlink:href="#mabf8bc99cd" y="227.277797"/>
      </g>
     </g>
     <g id="text_11">
      <!-- −0.2 -->
      <g transform="translate(22.717187 231.077016)scale(0.1 -0.1)">
       <use xlink:href="#DejaVuSans-2212"/>
       <use x="83.789062" xlink:href="#DejaVuSans-30"/>
       <use x="147.412109" xlink:href="#DejaVuSans-2e"/>
       <use x="179.199219" xlink:href="#DejaVuSans-32"/>
      </g>
     </g>
    </g>
    <g id="ytick_2">
     <g id="line2d_21">
      <path clip-path="url(#p4bcb1a0394)" d="M 54 181.539599 
L 388.8 181.539599 
" style="fill:none;stroke:#b0b0b0;stroke-linecap:square;stroke-width:0.8;"/>
     </g>
     <g id="line2d_22">
      <g>
       <use style="stroke:#000000;stroke-width:0.8;" x="54" xlink:href="#mabf8bc99cd" y="181.539599"/>
      </g>
     </g>
     <g id="text_12">
      <!-- −0.1 -->
      <g transform="translate(22.717187 185.338818)scale(0.1 -0.1)">
       <use xlink:href="#DejaVuSans-2212"/>
       <use x="83.789062" xlink:href="#DejaVuSans-30"/>
       <use x="147.412109" xlink:href="#DejaVuSans-2e"/>
       <use x="179.199219" xlink:href="#DejaVuSans-31"/>
      </g>
     </g>
    </g>
    <g id="ytick_3">
     <g id="line2d_23">
      <path clip-path="url(#p4bcb1a0394)" d="M 54 135.801401 
L 388.8 135.801401 
" style="fill:none;stroke:#b0b0b0;stroke-linecap:square;stroke-width:0.8;"/>
     </g>
     <g id="line2d_24">
      <g>
       <use style="stroke:#000000;stroke-width:0.8;" x="54" xlink:href="#mabf8bc99cd" y="135.801401"/>
      </g>
     </g>
     <g id="text_13">
      <!-- 0.0 -->
      <g transform="translate(31.096875 139.60062)scale(0.1 -0.1)">
       <use xlink:href="#DejaVuSans-30"/>
       <use x="63.623047" xlink:href="#DejaVuSans-2e"/>
       <use x="95.410156" xlink:href="#DejaVuSans-30"/>
      </g>
     </g>
    </g>
    <g id="ytick_4">
     <g id="line2d_25">
      <path clip-path="url(#p4bcb1a0394)" d="M 54 90.063203 
L 388.8 90.063203 
" style="fill:none;stroke:#b0b0b0;stroke-linecap:square;stroke-width:0.8;"/>
     </g>
     <g id="line2d_26">
      <g>
       <use style="stroke:#000000;stroke-width:0.8;" x="54" xlink:href="#mabf8bc99cd" y="90.063203"/>
      </g>
     </g>
     <g id="text_14">
      <!-- 0.1 -->
      <g transform="translate(31.096875 93.862422)scale(0.1 -0.1)">
       <use xlink:href="#DejaVuSans-30"/>
       <use x="63.623047" xlink:href="#DejaVuSans-2e"/>
       <use x="95.410156" xlink:href="#DejaVuSans-31"/>
      </g>
     </g>
    </g>
    <g id="ytick_5">
     <g id="line2d_27">
      <path clip-path="url(#p4bcb1a0394)" d="M 54 44.325005 
L 388.8 44.325005 
" style="fill:none;stroke:#b0b0b0;stroke-linecap:square;stroke-width:0.8;"/>
     </g>
     <g id="line2d_28">
      <g>
       <use style="stroke:#000000;stroke-width:0.8;" x="54" xlink:href="#mabf8bc99cd" y="44.325005"/>
      </g>
     </g>
     <g id="text_15">
      <!-- 0.2 -->
      <g transform="translate(31.096875 48.124224)scale(0.1 -0.1)">
       <use xlink:href="#DejaVuSans-30"/>
       <use x="63.623047" xlink:href="#DejaVuSans-2e"/>
       <use x="95.410156" xlink:href="#DejaVuSans-32"/>
      </g>
     </g>
    </g>
    <g id="text_16">
     <!-- $Y$ -->
     <defs>
      <path d="M 6.296875 72.90625 
L 16.890625 72.90625 
L 30.515625 42.921875 
L 56.5 72.90625 
L 67.578125 72.90625 
L 34.515625 34.71875 
L 27.78125 0 
L 17.921875 0 
L 24.609375 34.71875 
z
" id="DejaVuSans-Oblique-59"/>
     </defs>
     <g transform="translate(16.6375 146.38)rotate(-90)scale(0.1 -0.1)">
      <use transform="translate(0 0.09375)" xlink:href="#DejaVuSans-Oblique-59"/>
     </g>
    </g>
   </g>
   <g id="line2d_29">
    <path clip-path="url(#p4bcb1a0394)" d="M 69.218182 137.075079 
L 72.292562 135.914671 
L 75.366942 134.86174 
L 78.441322 135.214596 
L 81.515702 136.593002 
L 84.590083 136.669181 
L 87.664463 133.2945 
L 90.738843 126.500923 
L 93.813223 118.144588 
L 96.887603 110.095792 
L 99.961983 103.320398 
L 103.036364 98.238048 
L 106.110744 94.998378 
L 109.185124 93.282225 
L 112.259504 92.270876 
L 115.333884 90.971342 
L 118.408264 88.823735 
L 121.482645 86.261716 
L 124.557025 84.283661 
L 127.631405 83.173759 
L 130.705785 82.16848 
L 133.780165 80.723416 
L 136.854545 79.624207 
L 139.928926 80.346935 
L 143.003306 83.506376 
L 146.077686 88.345492 
L 149.152066 93.668877 
L 152.226446 98.8875 
L 155.300826 104.044839 
L 158.375207 109.131353 
L 161.449587 113.681167 
L 164.523967 116.929145 
L 167.598347 118.262826 
L 170.672727 117.85346 
L 173.747107 116.836262 
L 176.821488 116.299763 
L 179.895868 116.060427 
L 182.970248 115.041682 
L 186.044628 113.042389 
L 189.119008 111.642226 
L 192.193388 112.978445 
L 195.267769 117.665958 
L 198.342149 123.8675 
L 201.416529 128.239921 
L 204.490909 128.098516 
L 207.565289 123.122994 
L 210.639669 114.966907 
L 213.71405 105.329775 
L 216.78843 94.886476 
L 219.86281 83.953558 
L 222.93719 73.319394 
L 226.01157 63.966372 
L 229.08595 56.396494 
L 232.160331 50.629488 
L 235.234711 46.622275 
L 238.309091 44.467746 
L 241.383471 44.443636 
L 244.457851 46.850991 
L 247.532231 51.419613 
L 250.606612 57.064813 
L 253.680992 62.512779 
L 256.755372 66.802126 
L 259.829752 69.3064 
L 262.904132 70.0336 
L 265.978512 69.872096 
L 269.052893 69.968555 
L 272.127273 70.757317 
L 275.201653 71.709301 
L 278.276033 72.053646 
L 281.350413 71.782102 
L 284.424793 71.871475 
L 287.499174 73.438922 
L 290.573554 76.846844 
L 293.647934 81.685162 
L 296.722314 87.340628 
L 299.796694 93.459311 
L 302.871074 99.922178 
L 305.945455 106.205222 
L 309.019835 110.684085 
L 312.094215 111.032216 
L 315.168595 105.945323 
L 318.242975 96.68678 
L 321.317355 86.633696 
L 324.391736 78.990749 
L 327.466116 74.955171 
L 330.540496 73.886853 
L 333.614876 74.520734 
L 336.689256 75.751532 
L 339.763636 77.065833 
L 342.838017 79.0595 
L 345.912397 83.459176 
L 348.986777 92.097839 
L 352.061157 105.391829 
L 355.135537 121.507856 
L 358.209917 137.091729 
L 361.284298 149.077737 
L 364.358678 155.899969 
L 367.433058 157.372974 
L 370.507438 154.344708 
L 373.581818 148.741536 
" style="fill:none;stroke:#ff0000;stroke-linecap:square;"/>
   </g>
   <g id="line2d_30">
    <path clip-path="url(#p4bcb1a0394)" d="M 69.218182 156.742553 
L 72.292562 168.668064 
L 75.366942 179.954523 
L 78.441322 187.910607 
L 81.515702 191.337208 
L 84.590083 191.004596 
L 87.664463 188.941631 
L 90.738843 187.234993 
L 93.813223 187.290364 
L 96.887603 189.720058 
L 99.961983 194.206586 
L 103.036364 199.210525 
L 106.110744 202.476781 
L 109.185124 202.46883 
L 112.259504 199.154675 
L 115.333884 193.426767 
L 118.408264 186.367796 
L 121.482645 179.139558 
L 124.557025 172.860597 
L 127.631405 168.022161 
L 130.705785 164.069572 
L 133.780165 159.940892 
L 136.854545 155.220974 
L 139.928926 150.5105 
L 143.003306 146.496125 
L 146.077686 143.111008 
L 149.152066 139.914393 
L 152.226446 136.805978 
L 155.300826 134.008486 
L 158.375207 131.705132 
L 161.449587 129.836599 
L 164.523967 127.984967 
L 167.598347 125.652261 
L 170.672727 123.034001 
L 173.747107 121.271752 
L 176.821488 121.508461 
L 179.895868 123.753892 
L 182.970248 126.946516 
L 186.044628 130.081781 
L 189.119008 132.968947 
L 192.193388 135.814894 
L 195.267769 138.426792 
L 198.342149 140.047276 
L 201.416529 139.786409 
L 204.490909 137.18433 
L 207.565289 132.58675 
L 210.639669 127.100876 
L 213.71405 122.263434 
L 216.78843 119.521144 
L 219.86281 119.403212 
L 222.93719 121.152417 
L 226.01157 123.644958 
L 229.08595 126.428707 
L 232.160331 129.500429 
L 235.234711 132.788193 
L 238.309091 136.3952 
L 241.383471 140.598454 
L 244.457851 145.073751 
L 247.532231 148.719925 
L 250.606612 150.64544 
L 253.680992 150.999936 
L 256.755372 150.665671 
L 259.829752 150.307899 
L 262.904132 149.931031 
L 265.978512 149.390521 
L 269.052893 148.901945 
L 272.127273 148.719158 
L 275.201653 148.847245 
L 278.276033 149.482886 
L 281.350413 151.112191 
L 284.424793 153.642602 
L 287.499174 155.861789 
L 290.573554 156.291568 
L 293.647934 154.481812 
L 296.722314 151.188395 
L 299.796694 147.489421 
L 302.871074 144.067963 
L 305.945455 141.122859 
L 309.019835 138.533071 
L 312.094215 136.065337 
L 315.168595 133.519074 
L 318.242975 130.81611 
L 321.317355 128.29461 
L 324.391736 126.89875 
L 327.466116 127.509757 
L 330.540496 129.761985 
L 333.614876 131.76833 
L 336.689256 131.382142 
L 339.763636 127.948983 
L 342.838017 122.880866 
L 345.912397 118.470666 
L 348.986777 116.124415 
L 352.061157 115.672729 
L 355.135537 116.10006 
L 358.209917 116.543992 
L 361.284298 116.616903 
L 364.358678 116.475261 
L 367.433058 117.036135 
L 370.507438 119.475578 
L 373.581818 123.875727 
" style="fill:none;stroke:#ff8b00;stroke-linecap:square;"/>
   </g>
   <g id="line2d_31">
    <path clip-path="url(#p4bcb1a0394)" d="M 69.218182 124.046145 
L 72.292562 118.778051 
L 75.366942 114.93179 
L 78.441322 113.271701 
L 81.515702 113.431811 
L 84.590083 114.334792 
L 87.664463 114.844544 
L 90.738843 114.269483 
L 93.813223 112.363659 
L 96.887603 108.931827 
L 99.961983 103.750293 
L 103.036364 97.023728 
L 106.110744 89.615091 
L 109.185124 82.600352 
L 112.259504 76.77636 
L 115.333884 72.648557 
L 118.408264 70.536982 
L 121.482645 70.460383 
L 124.557025 72.186379 
L 127.631405 75.660745 
L 130.705785 81.121192 
L 133.780165 88.557185 
L 136.854545 97.225722 
L 139.928926 105.737019 
L 143.003306 112.600766 
L 146.077686 116.882155 
L 149.152066 118.517715 
L 152.226446 118.224038 
L 155.300826 117.244731 
L 158.375207 116.985945 
L 161.449587 118.555858 
L 164.523967 122.313621 
L 167.598347 127.614877 
L 170.672727 133.032483 
L 173.747107 136.871949 
L 176.821488 137.535415 
L 179.895868 134.045852 
L 182.970248 126.969865 
L 186.044628 118.597024 
L 189.119008 111.515149 
L 192.193388 107.002595 
L 195.267769 105.074286 
L 198.342149 105.60439 
L 201.416529 108.658935 
L 204.490909 113.760983 
L 207.565289 119.548172 
L 210.639669 124.678512 
L 213.71405 128.745579 
L 216.78843 131.828877 
L 219.86281 133.558843 
L 222.93719 133.163596 
L 226.01157 130.220594 
L 229.08595 125.15302 
L 232.160331 119.192675 
L 235.234711 113.884286 
L 238.309091 110.359485 
L 241.383471 108.694542 
L 244.457851 107.610144 
L 247.532231 105.082133 
L 250.606612 99.942993 
L 253.680992 93.016401 
L 256.755372 86.613632 
L 259.829752 83.064154 
L 262.904132 83.355586 
L 265.978512 86.546844 
L 269.052893 90.490245 
L 272.127273 93.40256 
L 275.201653 94.870721 
L 278.276033 95.687131 
L 281.350413 97.150305 
L 284.424793 100.487197 
L 287.499174 106.326687 
L 290.573554 114.037929 
L 293.647934 121.664436 
L 296.722314 127.220405 
L 299.796694 130.266328 
L 302.871074 131.901648 
L 305.945455 133.343541 
L 309.019835 135.00941 
L 312.094215 136.93835 
L 315.168595 139.476622 
L 318.242975 143.18111 
L 321.317355 148.248584 
L 324.391736 154.207633 
L 327.466116 159.997133 
L 330.540496 164.292854 
L 333.614876 166.015688 
L 336.689256 164.839639 
L 339.763636 161.470345 
L 342.838017 157.436507 
L 345.912397 154.262298 
L 348.986777 152.532354 
L 352.061157 151.786989 
L 355.135537 151.386137 
L 358.209917 151.134284 
L 361.284298 150.807543 
L 364.358678 149.691528 
L 367.433058 147.252942 
L 370.507438 143.90303 
L 373.581818 140.641426 
" style="fill:none;stroke:#e8ff00;stroke-linecap:square;"/>
   </g>
   <g id="line2d_32">
    <path clip-path="url(#p4bcb1a0394)" d="M 69.218182 131.705015 
L 72.292562 131.86234 
L 75.366942 133.260902 
L 78.441322 134.422073 
L 81.515702 133.310207 
L 84.590083 128.857922 
L 87.664463 121.661647 
L 90.738843 113.550518 
L 93.813223 106.580851 
L 96.887603 101.885842 
L 99.961983 99.036531 
L 103.036364 96.799833 
L 106.110744 94.782658 
L 109.185124 93.990437 
L 112.259504 95.505593 
L 115.333884 98.915422 
L 118.408264 102.548354 
L 121.482645 105.379727 
L 124.557025 108.156943 
L 127.631405 112.157694 
L 130.705785 117.251304 
L 133.780165 121.792803 
L 136.854545 124.247081 
L 139.928926 124.486227 
L 143.003306 123.579496 
L 146.077686 122.702469 
L 149.152066 122.423849 
L 152.226446 122.751641 
L 155.300826 123.399882 
L 158.375207 123.913076 
L 161.449587 123.72847 
L 164.523967 122.261869 
L 167.598347 119.044233 
L 170.672727 113.925098 
L 173.747107 107.304086 
L 176.821488 100.249076 
L 179.895868 94.225088 
L 182.970248 90.307042 
L 186.044628 88.343168 
L 189.119008 86.932418 
L 192.193388 84.415592 
L 195.267769 79.97033 
L 198.342149 73.955497 
L 201.416529 67.565798 
L 204.490909 62.259533 
L 207.565289 59.228409 
L 210.639669 58.85933 
L 213.71405 60.34266 
L 216.78843 62.119014 
L 219.86281 63.28192 
L 222.93719 64.604787 
L 226.01157 67.813274 
L 229.08595 73.691364 
L 232.160331 81.146688 
L 235.234711 88.320127 
L 238.309091 94.415965 
L 241.383471 100.190362 
L 244.457851 106.819738 
L 247.532231 114.683152 
L 250.606612 123.1927 
L 253.680992 131.405836 
L 256.755372 138.81067 
L 259.829752 145.806228 
L 262.904132 153.293285 
L 265.978512 161.652465 
L 269.052893 170.390289 
L 272.127273 178.605581 
L 275.201653 185.329763 
L 278.276033 189.831257 
L 281.350413 192.153964 
L 284.424793 193.05403 
L 287.499174 193.194009 
L 290.573554 192.797209 
L 293.647934 192.177336 
L 296.722314 192.203848 
L 299.796694 193.986155 
L 302.871074 197.958632 
L 305.945455 203.242491 
L 309.019835 208.218425 
L 312.094215 211.933177 
L 315.168595 214.850838 
L 318.242975 218.240032 
L 321.317355 222.8324 
L 324.391736 227.933787 
L 327.466116 231.800073 
L 330.540496 232.935465 
L 333.614876 231.054574 
L 336.689256 226.813724 
L 339.763636 220.801261 
L 342.838017 213.228521 
L 345.912397 204.719371 
L 348.986777 196.720967 
L 352.061157 190.53315 
L 355.135537 186.091832 
L 358.209917 181.840881 
L 361.284298 175.704549 
L 364.358678 166.591905 
L 367.433058 155.524962 
L 370.507438 145.265252 
L 373.581818 138.374844 
" style="fill:none;stroke:#5dff00;stroke-linecap:square;"/>
   </g>
   <g id="line2d_33">
    <path clip-path="url(#p4bcb1a0394)" d="M 69.218182 170.510386 
L 72.292562 184.504154 
L 75.366942 193.8398 
L 78.441322 197.22368 
L 81.515702 196.410545 
L 84.590083 194.090759 
L 87.664463 191.866574 
L 90.738843 189.836418 
L 93.813223 187.631194 
L 96.887603 185.428786 
L 99.961983 183.852986 
L 103.036364 183.290827 
L 106.110744 183.66523 
L 109.185124 184.717152 
L 112.259504 186.153872 
L 115.333884 187.383653 
L 118.408264 187.381242 
L 121.482645 185.340149 
L 124.557025 181.572563 
L 127.631405 177.437299 
L 130.705785 174.266627 
L 133.780165 172.360356 
L 136.854545 170.858554 
L 139.928926 168.619619 
L 143.003306 165.404164 
L 146.077686 162.086463 
L 149.152066 159.51261 
L 152.226446 157.393848 
L 155.300826 154.754094 
L 158.375207 151.387169 
L 161.449587 148.37919 
L 164.523967 147.142301 
L 167.598347 148.373771 
L 170.672727 152.03985 
L 173.747107 157.921704 
L 176.821488 165.74571 
L 179.895868 174.648131 
L 182.970248 182.827207 
L 186.044628 188.346115 
L 189.119008 190.530239 
L 192.193388 190.333611 
L 195.267769 189.227509 
L 198.342149 187.928017 
L 201.416529 186.203268 
L 204.490909 183.480868 
L 207.565289 179.358327 
L 210.639669 173.903718 
L 213.71405 167.848395 
L 216.78843 162.143758 
L 219.86281 156.978244 
L 222.93719 151.637665 
L 226.01157 145.757969 
L 229.08595 140.443775 
L 232.160331 137.673128 
L 235.234711 138.519963 
L 238.309091 142.132974 
L 241.383471 146.380698 
L 244.457851 149.281873 
L 247.532231 150.129961 
L 250.606612 149.920718 
L 253.680992 150.701256 
L 256.755372 153.824305 
L 259.829752 158.546977 
L 262.904132 162.468766 
L 265.978512 163.225708 
L 269.052893 159.789956 
L 272.127273 152.74991 
L 275.201653 143.867915 
L 278.276033 135.356128 
L 281.350413 129.294102 
L 284.424793 127.039304 
L 287.499174 128.342104 
L 290.573554 131.173112 
L 293.647934 133.10385 
L 296.722314 132.71322 
L 299.796694 129.581362 
L 302.871074 123.912059 
L 305.945455 116.704423 
L 309.019835 109.638043 
L 312.094215 104.26019 
L 315.168595 101.20126 
L 318.242975 99.932629 
L 321.317355 99.2634 
L 324.391736 98.478347 
L 327.466116 97.995795 
L 330.540496 98.560035 
L 333.614876 100.161744 
L 336.689256 102.43503 
L 339.763636 105.675996 
L 342.838017 110.56521 
L 345.912397 117.050948 
L 348.986777 124.046667 
L 352.061157 130.037029 
L 355.135537 133.825071 
L 358.209917 135.078722 
L 361.284298 134.382758 
L 364.358678 132.778669 
L 367.433058 131.324686 
L 370.507438 130.840346 
L 373.581818 131.570571 
" style="fill:none;stroke:#00ff2e;stroke-linecap:square;"/>
   </g>
   <g id="line2d_34">
    <path clip-path="url(#p4bcb1a0394)" d="M 69.218182 135.50801 
L 72.292562 135.982045 
L 75.366942 138.308227 
L 78.441322 142.930114 
L 81.515702 149.116093 
L 84.590083 155.849748 
L 87.664463 162.683453 
L 90.738843 169.482314 
L 93.813223 175.984575 
L 96.887603 181.99277 
L 99.961983 187.492869 
L 103.036364 192.065464 
L 106.110744 194.448049 
L 109.185124 193.436407 
L 112.259504 189.372615 
L 115.333884 184.199734 
L 118.408264 179.984875 
L 121.482645 177.764913 
L 124.557025 177.520483 
L 127.631405 178.596215 
L 130.705785 180.098259 
L 133.780165 181.130628 
L 136.854545 180.786671 
L 139.928926 178.242187 
L 143.003306 173.16991 
L 146.077686 166.097653 
L 149.152066 158.412637 
L 152.226446 152.034237 
L 155.300826 148.631533 
L 158.375207 148.582382 
L 161.449587 150.787823 
L 164.523967 153.756672 
L 167.598347 156.508796 
L 170.672727 158.371881 
L 173.747107 158.787081 
L 176.821488 157.862837 
L 179.895868 156.611973 
L 182.970248 156.173574 
L 186.044628 157.042781 
L 189.119008 159.197005 
L 192.193388 162.510874 
L 195.267769 166.756459 
L 198.342149 171.531002 
L 201.416529 176.461662 
L 204.490909 181.297135 
L 207.565289 185.644694 
L 210.639669 188.818956 
L 213.71405 190.227852 
L 216.78843 189.910868 
L 219.86281 188.498401 
L 222.93719 186.63908 
L 226.01157 184.68668 
L 229.08595 182.98786 
L 232.160331 182.252132 
L 235.234711 183.413567 
L 238.309091 186.935289 
L 241.383471 191.987594 
L 244.457851 196.247716 
L 247.532231 196.929659 
L 250.606612 192.535824 
L 253.680992 183.775489 
L 256.755372 172.835653 
L 259.829752 161.92947 
L 262.904132 152.381619 
L 265.978512 144.469429 
L 269.052893 137.782948 
L 272.127273 131.922587 
L 275.201653 126.943027 
L 278.276033 123.031882 
L 281.350413 119.978101 
L 284.424793 117.278855 
L 287.499174 114.616195 
L 290.573554 111.961193 
L 293.647934 109.34983 
L 296.722314 106.625359 
L 299.796694 103.224481 
L 302.871074 98.463872 
L 305.945455 92.523159 
L 309.019835 87.068711 
L 312.094215 84.423585 
L 315.168595 85.817451 
L 318.242975 90.421538 
L 321.317355 96.118817 
L 324.391736 101.158911 
L 327.466116 105.032815 
L 330.540496 107.916237 
L 333.614876 109.727709 
L 336.689256 110.105031 
L 339.763636 109.034247 
L 342.838017 106.963874 
L 345.912397 104.451557 
L 348.986777 102.297877 
L 352.061157 101.877509 
L 355.135537 104.548409 
L 358.209917 110.557069 
L 361.284298 118.843864 
L 364.358678 127.691017 
L 367.433058 135.212157 
L 370.507438 139.78701 
L 373.581818 140.924028 
" style="fill:none;stroke:#00ffb9;stroke-linecap:square;"/>
   </g>
   <g id="line2d_35">
    <path clip-path="url(#p4bcb1a0394)" d="M 69.218182 120.251194 
L 72.292562 115.491921 
L 75.366942 113.225635 
L 78.441322 112.870051 
L 81.515702 113.049747 
L 84.590083 113.126919 
L 87.664463 113.232662 
L 90.738843 113.2695 
L 93.813223 112.540144 
L 96.887603 110.564377 
L 99.961983 107.817295 
L 103.036364 105.176316 
L 106.110744 102.934005 
L 109.185124 100.85157 
L 112.259504 98.912959 
L 115.333884 97.495361 
L 118.408264 96.852482 
L 121.482645 96.737155 
L 124.557025 96.567415 
L 127.631405 95.980917 
L 130.705785 95.336878 
L 133.780165 95.609974 
L 136.854545 97.731886 
L 139.928926 102.010122 
L 143.003306 107.923125 
L 146.077686 114.347718 
L 149.152066 120.243561 
L 152.226446 125.276502 
L 155.300826 129.712029 
L 158.375207 133.726844 
L 161.449587 136.973576 
L 164.523967 139.013532 
L 167.598347 140.178702 
L 170.672727 141.65544 
L 173.747107 144.57193 
L 176.821488 149.273678 
L 179.895868 155.422683 
L 182.970248 162.303432 
L 186.044628 168.847196 
L 189.119008 173.684952 
L 192.193388 175.731587 
L 195.267769 175.065444 
L 198.342149 172.92733 
L 201.416529 170.435314 
L 204.490909 167.587022 
L 207.565289 163.917647 
L 210.639669 159.84992 
L 213.71405 156.827337 
L 216.78843 155.871646 
L 219.86281 156.224386 
L 222.93719 155.865791 
L 226.01157 153.641686 
L 229.08595 150.782522 
L 232.160331 150.043383 
L 235.234711 153.181931 
L 238.309091 159.393512 
L 241.383471 166.151854 
L 244.457851 170.995052 
L 247.532231 172.330157 
L 250.606612 169.445696 
L 253.680992 162.765133 
L 256.755372 154.143736 
L 259.829752 146.321288 
L 262.904132 141.636625 
L 265.978512 141.033942 
L 269.052893 143.726126 
L 272.127273 147.228206 
L 275.201653 148.22532 
L 278.276033 144.58929 
L 281.350413 136.959105 
L 284.424793 128.098398 
L 287.499174 120.689508 
L 290.573554 115.679231 
L 293.647934 112.149308 
L 296.722314 108.36256 
L 299.796694 103.190709 
L 302.871074 96.738911 
L 305.945455 89.673669 
L 309.019835 82.360754 
L 312.094215 74.830479 
L 315.168595 67.262775 
L 318.242975 60.257325 
L 321.317355 54.574291 
L 324.391736 50.773227 
L 327.466116 49.265243 
L 330.540496 50.230125 
L 333.614876 52.981323 
L 336.689256 56.014989 
L 339.763636 58.347858 
L 342.838017 60.352077 
L 345.912397 62.862952 
L 348.986777 65.905817 
L 352.061157 68.640225 
L 355.135537 70.352117 
L 358.209917 71.23096 
L 361.284298 72.23793 
L 364.358678 74.682413 
L 367.433058 80.119023 
L 370.507438 89.770864 
L 373.581818 102.955736 
" style="fill:none;stroke:#00b9ff;stroke-linecap:square;"/>
   </g>
   <g id="line2d_36">
    <path clip-path="url(#p4bcb1a0394)" d="M 69.218182 162.024368 
L 72.292562 174.262415 
L 75.366942 184.419017 
L 78.441322 191.876024 
L 81.515702 197.876954 
L 84.590083 203.287883 
L 87.664463 207.487459 
L 90.738843 209.230428 
L 93.813223 208.002026 
L 96.887603 204.48107 
L 99.961983 199.828226 
L 103.036364 194.771639 
L 106.110744 189.699579 
L 109.185124 185.323232 
L 112.259504 182.598012 
L 115.333884 182.090992 
L 118.408264 183.835251 
L 121.482645 187.572594 
L 124.557025 192.797863 
L 127.631405 198.733171 
L 130.705785 204.361841 
L 133.780165 208.379648 
L 136.854545 209.509499 
L 139.928926 207.508547 
L 143.003306 203.757815 
L 146.077686 200.210496 
L 149.152066 197.622648 
L 152.226446 195.307891 
L 155.300826 192.7998 
L 158.375207 191.126203 
L 161.449587 191.890656 
L 164.523967 195.461074 
L 167.598347 200.623459 
L 170.672727 205.874685 
L 173.747107 210.786434 
L 176.821488 216.199305 
L 179.895868 223.096636 
L 182.970248 231.169228 
L 186.044628 238.418567 
L 189.119008 242.116364 
L 192.193388 240.303041 
L 195.267769 232.816608 
L 198.342149 221.265518 
L 201.416529 207.988981 
L 204.490909 194.932783 
L 207.565289 183.531723 
L 210.639669 175.161682 
L 213.71405 170.729462 
L 216.78843 169.599738 
L 219.86281 169.622316 
L 222.93719 168.662089 
L 226.01157 165.894739 
L 229.08595 161.563796 
L 232.160331 156.059358 
L 235.234711 149.810763 
L 238.309091 143.915816 
L 241.383471 140.091224 
L 244.457851 139.420079 
L 247.532231 141.287392 
L 250.606612 143.93089 
L 253.680992 146.041394 
L 256.755372 147.678876 
L 259.829752 149.752843 
L 262.904132 152.877475 
L 265.978512 156.792137 
L 269.052893 160.620047 
L 272.127273 163.358692 
L 275.201653 164.267576 
L 278.276033 163.325866 
L 281.350413 161.449428 
L 284.424793 159.896104 
L 287.499174 159.28795 
L 290.573554 159.217459 
L 293.647934 158.734451 
L 296.722314 157.352124 
L 299.796694 155.586962 
L 302.871074 154.170283 
L 305.945455 152.934544 
L 309.019835 151.159308 
L 312.094215 149.007697 
L 315.168595 148.081836 
L 318.242975 150.332776 
L 321.317355 156.343731 
L 324.391736 164.558906 
L 327.466116 172.347397 
L 330.540496 178.094038 
L 333.614876 182.218279 
L 336.689256 186.080477 
L 339.763636 190.226887 
L 342.838017 194.042699 
L 345.912397 196.818195 
L 348.986777 198.57092 
L 352.061157 199.884001 
L 355.135537 201.476765 
L 358.209917 203.852421 
L 361.284298 206.544889 
L 364.358678 207.303661 
L 367.433058 202.747872 
L 370.507438 191.024763 
L 373.581818 174.248612 
" style="fill:none;stroke:#002eff;stroke-linecap:square;"/>
   </g>
   <g id="line2d_37">
    <path clip-path="url(#p4bcb1a0394)" d="M 69.218182 128.062724 
L 72.292562 123.097257 
L 75.366942 117.979037 
L 78.441322 113.774694 
L 81.515702 111.457971 
L 84.590083 111.776802 
L 87.664463 114.776658 
L 90.738843 119.717815 
L 93.813223 125.777919 
L 96.887603 132.405796 
L 99.961983 138.898823 
L 103.036364 144.419784 
L 106.110744 148.727051 
L 109.185124 152.201319 
L 112.259504 154.84107 
L 115.333884 155.872108 
L 118.408264 154.799649 
L 121.482645 152.462408 
L 124.557025 150.600049 
L 127.631405 150.355804 
L 130.705785 151.245045 
L 133.780165 151.57947 
L 136.854545 149.820618 
L 139.928926 145.372371 
L 143.003306 138.326159 
L 146.077686 129.168714 
L 149.152066 119.12889 
L 152.226446 110.500568 
L 155.300826 105.938132 
L 158.375207 106.73677 
L 161.449587 111.581553 
L 164.523967 117.298833 
L 167.598347 121.170732 
L 170.672727 122.78728 
L 173.747107 123.963766 
L 176.821488 126.954841 
L 179.895868 132.552511 
L 182.970248 139.664448 
L 186.044628 146.422914 
L 189.119008 151.45269 
L 192.193388 154.380443 
L 195.267769 155.720662 
L 198.342149 156.305425 
L 201.416529 156.59728 
L 204.490909 156.687632 
L 207.565289 156.888271 
L 210.639669 157.873909 
L 213.71405 160.193993 
L 216.78843 163.868066 
L 219.86281 168.453613 
L 222.93719 173.500061 
L 226.01157 178.921955 
L 229.08595 184.777219 
L 232.160331 190.7146 
L 235.234711 195.817056 
L 238.309091 198.998659 
L 241.383471 199.562863 
L 244.457851 197.535258 
L 247.532231 193.547731 
L 250.606612 188.383478 
L 253.680992 182.679705 
L 256.755372 176.995573 
L 259.829752 171.816769 
L 262.904132 167.403857 
L 265.978512 163.903761 
L 269.052893 161.464834 
L 272.127273 159.980542 
L 275.201653 159.056589 
L 278.276033 158.477293 
L 281.350413 158.419316 
L 284.424793 159.075207 
L 287.499174 160.271127 
L 290.573554 161.481684 
L 293.647934 162.092061 
L 296.722314 161.781258 
L 299.796694 160.825764 
L 302.871074 159.947633 
L 305.945455 159.811865 
L 309.019835 160.645412 
L 312.094215 162.160316 
L 315.168595 163.724469 
L 318.242975 164.702653 
L 321.317355 164.918638 
L 324.391736 164.960307 
L 327.466116 165.745568 
L 330.540496 167.544976 
L 333.614876 169.679954 
L 336.689256 171.302595 
L 339.763636 172.267492 
L 342.838017 173.277704 
L 345.912397 175.354266 
L 348.986777 179.046957 
L 352.061157 183.952228 
L 355.135537 188.977657 
L 358.209917 193.031592 
L 361.284298 195.283816 
L 364.358678 194.795225 
L 367.433058 190.282366 
L 370.507438 180.904004 
L 373.581818 167.821303 
" style="fill:none;stroke:#5d00ff;stroke-linecap:square;"/>
   </g>
   <g id="line2d_38">
    <path clip-path="url(#p4bcb1a0394)" d="M 69.218182 108.065686 
L 72.292562 96.602743 
L 75.366942 89.355213 
L 78.441322 88.162499 
L 81.515702 91.917141 
L 84.590083 97.664214 
L 87.664463 102.612505 
L 90.738843 105.931646 
L 93.813223 109.04065 
L 96.887603 114.031698 
L 99.961983 121.652211 
L 103.036364 130.588326 
L 106.110744 138.465867 
L 109.185124 143.473399 
L 112.259504 145.10321 
L 115.333884 143.786245 
L 118.408264 140.476791 
L 121.482645 136.643388 
L 124.557025 134.113429 
L 127.631405 134.417675 
L 130.705785 137.762306 
L 133.780165 142.354956 
L 136.854545 145.331218 
L 139.928926 145.05015 
L 143.003306 142.363291 
L 146.077686 139.394389 
L 149.152066 137.447962 
L 152.226446 136.403643 
L 155.300826 135.58991 
L 158.375207 134.531575 
L 161.449587 133.022773 
L 164.523967 131.145131 
L 167.598347 129.447521 
L 170.672727 128.801075 
L 173.747107 129.670702 
L 176.821488 131.490873 
L 179.895868 133.022641 
L 182.970248 133.290578 
L 186.044628 131.921963 
L 189.119008 128.726557 
L 192.193388 123.479806 
L 195.267769 116.445723 
L 198.342149 108.878831 
L 201.416529 102.701373 
L 204.490909 99.698116 
L 207.565289 100.721329 
L 210.639669 105.066925 
L 213.71405 110.730229 
L 216.78843 115.869383 
L 219.86281 120.126801 
L 222.93719 124.391229 
L 226.01157 129.41504 
L 229.08595 134.743664 
L 232.160331 138.760043 
L 235.234711 139.657809 
L 238.309091 136.674136 
L 241.383471 130.605411 
L 244.457851 123.037103 
L 247.532231 115.253543 
L 250.606612 108.171685 
L 253.680992 102.864212 
L 256.755372 100.357568 
L 259.829752 100.858043 
L 262.904132 103.664719 
L 265.978512 107.928256 
L 269.052893 113.159254 
L 272.127273 119.102407 
L 275.201653 125.671108 
L 278.276033 133.136435 
L 281.350413 141.907551 
L 284.424793 151.691019 
L 287.499174 160.974705 
L 290.573554 167.803553 
L 293.647934 171.309691 
L 296.722314 172.301615 
L 299.796694 172.096013 
L 302.871074 170.950778 
L 305.945455 168.030425 
L 309.019835 162.756847 
L 312.094215 155.767157 
L 315.168595 148.607215 
L 318.242975 142.804113 
L 321.317355 139.21745 
L 324.391736 137.960748 
L 327.466116 138.715602 
L 330.540496 141.193047 
L 333.614876 145.370991 
L 336.689256 151.120236 
L 339.763636 157.610435 
L 342.838017 163.466018 
L 345.912397 167.642342 
L 348.986777 169.925717 
L 352.061157 170.601401 
L 355.135537 169.912197 
L 358.209917 167.924934 
L 361.284298 164.756527 
L 364.358678 160.712669 
L 367.433058 156.120733 
L 370.507438 151.17281 
L 373.581818 146.151563 
" style="fill:none;stroke:#e800ff;stroke-linecap:square;"/>
   </g>
   <g id="patch_3">
    <path d="M 54 252 
L 54 34.56 
" style="fill:none;stroke:#000000;stroke-linecap:square;stroke-linejoin:miter;stroke-width:0.8;"/>
   </g>
   <g id="patch_4">
    <path d="M 388.8 252 
L 388.8 34.56 
" style="fill:none;stroke:#000000;stroke-linecap:square;stroke-linejoin:miter;stroke-width:0.8;"/>
   </g>
   <g id="patch_5">
    <path d="M 54 252 
L 388.8 252 
" style="fill:none;stroke:#000000;stroke-linecap:square;stroke-linejoin:miter;stroke-width:0.8;"/>
   </g>
   <g id="patch_6">
    <path d="M 54 34.56 
L 388.8 34.56 
" style="fill:none;stroke:#000000;stroke-linecap:square;stroke-linejoin:miter;stroke-width:0.8;"/>
   </g>
   <g id="text_17">
    <!-- Trajectory $Y$ -->
    <defs>
     <path d="M -0.296875 72.90625 
L 61.375 72.90625 
L 61.375 64.59375 
L 35.5 64.59375 
L 35.5 0 
L 25.59375 0 
L 25.59375 64.59375 
L -0.296875 64.59375 
z
" id="DejaVuSans-54"/>
     <path d="M 41.109375 46.296875 
Q 39.59375 47.171875 37.8125 47.578125 
Q 36.03125 48 33.890625 48 
Q 26.265625 48 22.1875 43.046875 
Q 18.109375 38.09375 18.109375 28.8125 
L 18.109375 0 
L 9.078125 0 
L 9.078125 54.6875 
L 18.109375 54.6875 
L 18.109375 46.1875 
Q 20.953125 51.171875 25.484375 53.578125 
Q 30.03125 56 36.53125 56 
Q 37.453125 56 38.578125 55.875 
Q 39.703125 55.765625 41.0625 55.515625 
z
" id="DejaVuSans-72"/>
     <path d="M 34.28125 27.484375 
Q 23.390625 27.484375 19.1875 25 
Q 14.984375 22.515625 14.984375 16.5 
Q 14.984375 11.71875 18.140625 8.90625 
Q 21.296875 6.109375 26.703125 6.109375 
Q 34.1875 6.109375 38.703125 11.40625 
Q 43.21875 16.703125 43.21875 25.484375 
L 43.21875 27.484375 
z
M 52.203125 31.203125 
L 52.203125 0 
L 43.21875 0 
L 43.21875 8.296875 
Q 40.140625 3.328125 35.546875 0.953125 
Q 30.953125 -1.421875 24.3125 -1.421875 
Q 15.921875 -1.421875 10.953125 3.296875 
Q 6 8.015625 6 15.921875 
Q 6 25.140625 12.171875 29.828125 
Q 18.359375 34.515625 30.609375 34.515625 
L 43.21875 34.515625 
L 43.21875 35.40625 
Q 43.21875 41.609375 39.140625 45 
Q 35.0625 48.390625 27.6875 48.390625 
Q 23 48.390625 18.546875 47.265625 
Q 14.109375 46.140625 10.015625 43.890625 
L 10.015625 52.203125 
Q 14.9375 54.109375 19.578125 55.046875 
Q 24.21875 56 28.609375 56 
Q 40.484375 56 46.34375 49.84375 
Q 52.203125 43.703125 52.203125 31.203125 
z
" id="DejaVuSans-61"/>
     <path d="M 9.421875 54.6875 
L 18.40625 54.6875 
L 18.40625 -0.984375 
Q 18.40625 -11.421875 14.421875 -16.109375 
Q 10.453125 -20.796875 1.609375 -20.796875 
L -1.8125 -20.796875 
L -1.8125 -13.1875 
L 0.59375 -13.1875 
Q 5.71875 -13.1875 7.5625 -10.8125 
Q 9.421875 -8.453125 9.421875 -0.984375 
z
M 9.421875 75.984375 
L 18.40625 75.984375 
L 18.40625 64.59375 
L 9.421875 64.59375 
z
" id="DejaVuSans-6a"/>
     <path d="M 56.203125 29.59375 
L 56.203125 25.203125 
L 14.890625 25.203125 
Q 15.484375 15.921875 20.484375 11.0625 
Q 25.484375 6.203125 34.421875 6.203125 
Q 39.59375 6.203125 44.453125 7.46875 
Q 49.3125 8.734375 54.109375 11.28125 
L 54.109375 2.78125 
Q 49.265625 0.734375 44.1875 -0.34375 
Q 39.109375 -1.421875 33.890625 -1.421875 
Q 20.796875 -1.421875 13.15625 6.1875 
Q 5.515625 13.8125 5.515625 26.8125 
Q 5.515625 40.234375 12.765625 48.109375 
Q 20.015625 56 32.328125 56 
Q 43.359375 56 49.78125 48.890625 
Q 56.203125 41.796875 56.203125 29.59375 
z
M 47.21875 32.234375 
Q 47.125 39.59375 43.09375 43.984375 
Q 39.0625 48.390625 32.421875 48.390625 
Q 24.90625 48.390625 20.390625 44.140625 
Q 15.875 39.890625 15.1875 32.171875 
z
" id="DejaVuSans-65"/>
     <path d="M 48.78125 52.59375 
L 48.78125 44.1875 
Q 44.96875 46.296875 41.140625 47.34375 
Q 37.3125 48.390625 33.40625 48.390625 
Q 24.65625 48.390625 19.8125 42.84375 
Q 14.984375 37.3125 14.984375 27.296875 
Q 14.984375 17.28125 19.8125 11.734375 
Q 24.65625 6.203125 33.40625 6.203125 
Q 37.3125 6.203125 41.140625 7.25 
Q 44.96875 8.296875 48.78125 10.40625 
L 48.78125 2.09375 
Q 45.015625 0.34375 40.984375 -0.53125 
Q 36.96875 -1.421875 32.421875 -1.421875 
Q 20.0625 -1.421875 12.78125 6.34375 
Q 5.515625 14.109375 5.515625 27.296875 
Q 5.515625 40.671875 12.859375 48.328125 
Q 20.21875 56 33.015625 56 
Q 37.15625 56 41.109375 55.140625 
Q 45.0625 54.296875 48.78125 52.59375 
z
" id="DejaVuSans-63"/>
     <path d="M 18.3125 70.21875 
L 18.3125 54.6875 
L 36.8125 54.6875 
L 36.8125 47.703125 
L 18.3125 47.703125 
L 18.3125 18.015625 
Q 18.3125 11.328125 20.140625 9.421875 
Q 21.96875 7.515625 27.59375 7.515625 
L 36.8125 7.515625 
L 36.8125 0 
L 27.59375 0 
Q 17.1875 0 13.234375 3.875 
Q 9.28125 7.765625 9.28125 18.015625 
L 9.28125 47.703125 
L 2.6875 47.703125 
L 2.6875 54.6875 
L 9.28125 54.6875 
L 9.28125 70.21875 
z
" id="DejaVuSans-74"/>
     <path d="M 30.609375 48.390625 
Q 23.390625 48.390625 19.1875 42.75 
Q 14.984375 37.109375 14.984375 27.296875 
Q 14.984375 17.484375 19.15625 11.84375 
Q 23.34375 6.203125 30.609375 6.203125 
Q 37.796875 6.203125 41.984375 11.859375 
Q 46.1875 17.53125 46.1875 27.296875 
Q 46.1875 37.015625 41.984375 42.703125 
Q 37.796875 48.390625 30.609375 48.390625 
z
M 30.609375 56 
Q 42.328125 56 49.015625 48.375 
Q 55.71875 40.765625 55.71875 27.296875 
Q 55.71875 13.875 49.015625 6.21875 
Q 42.328125 -1.421875 30.609375 -1.421875 
Q 18.84375 -1.421875 12.171875 6.21875 
Q 5.515625 13.875 5.515625 27.296875 
Q 5.515625 40.765625 12.171875 48.375 
Q 18.84375 56 30.609375 56 
z
" id="DejaVuSans-6f"/>
     <path d="M 32.171875 -5.078125 
Q 28.375 -14.84375 24.75 -17.8125 
Q 21.140625 -20.796875 15.09375 -20.796875 
L 7.90625 -20.796875 
L 7.90625 -13.28125 
L 13.1875 -13.28125 
Q 16.890625 -13.28125 18.9375 -11.515625 
Q 21 -9.765625 23.484375 -3.21875 
L 25.09375 0.875 
L 2.984375 54.6875 
L 12.5 54.6875 
L 29.59375 11.921875 
L 46.6875 54.6875 
L 56.203125 54.6875 
z
" id="DejaVuSans-79"/>
     <path id="DejaVuSans-20"/>
    </defs>
    <g transform="translate(185.28 28.56)scale(0.12 -0.12)">
     <use transform="translate(0 0.015625)" xlink:href="#DejaVuSans-54"/>
     <use transform="translate(61.083984 0.015625)" xlink:href="#DejaVuSans-72"/>
     <use transform="translate(102.197266 0.015625)" xlink:href="#DejaVuSans-61"/>
     <use transform="translate(163.476562 0.015625)" xlink:href="#DejaVuSans-6a"/>
     <use transform="translate(191.259766 0.015625)" xlink:href="#DejaVuSans-65"/>
     <use transform="translate(252.783203 0.015625)" xlink:href="#DejaVuSans-63"/>
     <use transform="translate(307.763672 0.015625)" xlink:href="#DejaVuSans-74"/>
     <use transform="translate(346.972656 0.015625)" xlink:href="#DejaVuSans-6f"/>
     <use transform="translate(408.154297 0.015625)" xlink:href="#DejaVuSans-72"/>
     <use transform="translate(449.267578 0.015625)" xlink:href="#DejaVuSans-79"/>
     <use transform="translate(508.447266 0.015625)" xlink:href="#DejaVuSans-20"/>
     <use transform="translate(540.234375 0.015625)" xlink:href="#DejaVuSans-Oblique-59"/>
    </g>
   </g>
  </g>
 </g>
 <defs>
  <clipPath id="p4bcb1a0394">
   <rect height="217.44" width="334.8" x="54" y="34.56"/>
  </clipPath>
 </defs>
</svg>
