<?xml version="1.0" encoding="utf-8" standalone="no"?>
<!DOCTYPE svg PUBLIC "-//W3C//DTD SVG 1.1//EN"
  "http://www.w3.org/Graphics/SVG/1.1/DTD/svg11.dtd">
<!-- Created with matplotlib (http://matplotlib.org/) -->
<svg height="288pt" version="1.1" viewBox="0 0 432 288" width="432pt" xmlns="http://www.w3.org/2000/svg" xmlns:xlink="http://www.w3.org/1999/xlink">
 <defs>
  <style type="text/css">
*{stroke-linecap:butt;stroke-linejoin:round;}
  </style>
 </defs>
 <g id="figure_1">
  <g id="patch_1">
   <path d="M 0 288 
L 432 288 
L 432 0 
L 0 0 
z
" style="fill:#ffffff;"/>
  </g>
  <g id="axes_1">
   <g id="patch_2">
    <path d="M 54 252 
L 388.8 252 
L 388.8 34.56 
L 54 34.56 
z
" style="fill:#ffffff;"/>
   </g>
   <g id="matplotlib.axis_1">
    <g id="xtick_1">
     <g id="line2d_1">
      <path clip-path="url(#p0ebbf203b2)" d="M 120.169134 252 
L 120.169134 34.56 
" style="fill:none;stroke:#b0b0b0;stroke-linecap:square;stroke-width:0.8;"/>
     </g>
     <g id="line2d_2">
      <defs>
       <path d="M 0 0 
L 0 3.5 
" id="m9e67b754f3" style="stroke:#000000;stroke-width:0.8;"/>
      </defs>
      <g>
       <use style="stroke:#000000;stroke-width:0.8;" x="120.169134" xlink:href="#m9e67b754f3" y="252"/>
      </g>
     </g>
     <g id="text_1">
      <!-- 0.2 -->
      <defs>
       <path d="M 31.78125 66.40625 
Q 24.171875 66.40625 20.328125 58.90625 
Q 16.5 51.421875 16.5 36.375 
Q 16.5 21.390625 20.328125 13.890625 
Q 24.171875 6.390625 31.78125 6.390625 
Q 39.453125 6.390625 43.28125 13.890625 
Q 47.125 21.390625 47.125 36.375 
Q 47.125 51.421875 43.28125 58.90625 
Q 39.453125 66.40625 31.78125 66.40625 
z
M 31.78125 74.21875 
Q 44.046875 74.21875 50.515625 64.515625 
Q 56.984375 54.828125 56.984375 36.375 
Q 56.984375 17.96875 50.515625 8.265625 
Q 44.046875 -1.421875 31.78125 -1.421875 
Q 19.53125 -1.421875 13.0625 8.265625 
Q 6.59375 17.96875 6.59375 36.375 
Q 6.59375 54.828125 13.0625 64.515625 
Q 19.53125 74.21875 31.78125 74.21875 
z
" id="DejaVuSans-30"/>
       <path d="M 10.6875 12.40625 
L 21 12.40625 
L 21 0 
L 10.6875 0 
z
" id="DejaVuSans-2e"/>
       <path d="M 19.1875 8.296875 
L 53.609375 8.296875 
L 53.609375 0 
L 7.328125 0 
L 7.328125 8.296875 
Q 12.9375 14.109375 22.625 23.890625 
Q 32.328125 33.6875 34.8125 36.53125 
Q 39.546875 41.84375 41.421875 45.53125 
Q 43.3125 49.21875 43.3125 52.78125 
Q 43.3125 58.59375 39.234375 62.25 
Q 35.15625 65.921875 28.609375 65.921875 
Q 23.96875 65.921875 18.8125 64.3125 
Q 13.671875 62.703125 7.8125 59.421875 
L 7.8125 69.390625 
Q 13.765625 71.78125 18.9375 73 
Q 24.125 74.21875 28.421875 74.21875 
Q 39.75 74.21875 46.484375 68.546875 
Q 53.21875 62.890625 53.21875 53.421875 
Q 53.21875 48.921875 51.53125 44.890625 
Q 49.859375 40.875 45.40625 35.40625 
Q 44.1875 33.984375 37.640625 27.21875 
Q 31.109375 20.453125 19.1875 8.296875 
z
" id="DejaVuSans-32"/>
      </defs>
      <g transform="translate(112.217571 266.598437)scale(0.1 -0.1)">
       <use xlink:href="#DejaVuSans-30"/>
       <use x="63.623047" xlink:href="#DejaVuSans-2e"/>
       <use x="95.410156" xlink:href="#DejaVuSans-32"/>
      </g>
     </g>
    </g>
    <g id="xtick_2">
     <g id="line2d_3">
      <path clip-path="url(#p0ebbf203b2)" d="M 187.656378 252 
L 187.656378 34.56 
" style="fill:none;stroke:#b0b0b0;stroke-linecap:square;stroke-width:0.8;"/>
     </g>
     <g id="line2d_4">
      <g>
       <use style="stroke:#000000;stroke-width:0.8;" x="187.656378" xlink:href="#m9e67b754f3" y="252"/>
      </g>
     </g>
     <g id="text_2">
      <!-- 0.4 -->
      <defs>
       <path d="M 37.796875 64.3125 
L 12.890625 25.390625 
L 37.796875 25.390625 
z
M 35.203125 72.90625 
L 47.609375 72.90625 
L 47.609375 25.390625 
L 58.015625 25.390625 
L 58.015625 17.1875 
L 47.609375 17.1875 
L 47.609375 0 
L 37.796875 0 
L 37.796875 17.1875 
L 4.890625 17.1875 
L 4.890625 26.703125 
z
" id="DejaVuSans-34"/>
      </defs>
      <g transform="translate(179.704815 266.598437)scale(0.1 -0.1)">
       <use xlink:href="#DejaVuSans-30"/>
       <use x="63.623047" xlink:href="#DejaVuSans-2e"/>
       <use x="95.410156" xlink:href="#DejaVuSans-34"/>
      </g>
     </g>
    </g>
    <g id="xtick_3">
     <g id="line2d_5">
      <path clip-path="url(#p0ebbf203b2)" d="M 255.143622 252 
L 255.143622 34.56 
" style="fill:none;stroke:#b0b0b0;stroke-linecap:square;stroke-width:0.8;"/>
     </g>
     <g id="line2d_6">
      <g>
       <use style="stroke:#000000;stroke-width:0.8;" x="255.143622" xlink:href="#m9e67b754f3" y="252"/>
      </g>
     </g>
     <g id="text_3">
      <!-- 0.6 -->
      <defs>
       <path d="M 33.015625 40.375 
Q 26.375 40.375 22.484375 35.828125 
Q 18.609375 31.296875 18.609375 23.390625 
Q 18.609375 15.53125 22.484375 10.953125 
Q 26.375 6.390625 33.015625 6.390625 
Q 39.65625 6.390625 43.53125 10.953125 
Q 47.40625 15.53125 47.40625 23.390625 
Q 47.40625 31.296875 43.53125 35.828125 
Q 39.65625 40.375 33.015625 40.375 
z
M 52.59375 71.296875 
L 52.59375 62.3125 
Q 48.875 64.0625 45.09375 64.984375 
Q 41.3125 65.921875 37.59375 65.921875 
Q 27.828125 65.921875 22.671875 59.328125 
Q 17.53125 52.734375 16.796875 39.40625 
Q 19.671875 43.65625 24.015625 45.921875 
Q 28.375 48.1875 33.59375 48.1875 
Q 44.578125 48.1875 50.953125 41.515625 
Q 57.328125 34.859375 57.328125 23.390625 
Q 57.328125 12.15625 50.6875 5.359375 
Q 44.046875 -1.421875 33.015625 -1.421875 
Q 20.359375 -1.421875 13.671875 8.265625 
Q 6.984375 17.96875 6.984375 36.375 
Q 6.984375 53.65625 15.1875 63.9375 
Q 23.390625 74.21875 37.203125 74.21875 
Q 40.921875 74.21875 44.703125 73.484375 
Q 48.484375 72.75 52.59375 71.296875 
z
" id="DejaVuSans-36"/>
      </defs>
      <g transform="translate(247.19206 266.598437)scale(0.1 -0.1)">
       <use xlink:href="#DejaVuSans-30"/>
       <use x="63.623047" xlink:href="#DejaVuSans-2e"/>
       <use x="95.410156" xlink:href="#DejaVuSans-36"/>
      </g>
     </g>
    </g>
    <g id="xtick_4">
     <g id="line2d_7">
      <path clip-path="url(#p0ebbf203b2)" d="M 322.630866 252 
L 322.630866 34.56 
" style="fill:none;stroke:#b0b0b0;stroke-linecap:square;stroke-width:0.8;"/>
     </g>
     <g id="line2d_8">
      <g>
       <use style="stroke:#000000;stroke-width:0.8;" x="322.630866" xlink:href="#m9e67b754f3" y="252"/>
      </g>
     </g>
     <g id="text_4">
      <!-- 0.8 -->
      <defs>
       <path d="M 31.78125 34.625 
Q 24.75 34.625 20.71875 30.859375 
Q 16.703125 27.09375 16.703125 20.515625 
Q 16.703125 13.921875 20.71875 10.15625 
Q 24.75 6.390625 31.78125 6.390625 
Q 38.8125 6.390625 42.859375 10.171875 
Q 46.921875 13.96875 46.921875 20.515625 
Q 46.921875 27.09375 42.890625 30.859375 
Q 38.875 34.625 31.78125 34.625 
z
M 21.921875 38.8125 
Q 15.578125 40.375 12.03125 44.71875 
Q 8.5 49.078125 8.5 55.328125 
Q 8.5 64.0625 14.71875 69.140625 
Q 20.953125 74.21875 31.78125 74.21875 
Q 42.671875 74.21875 48.875 69.140625 
Q 55.078125 64.0625 55.078125 55.328125 
Q 55.078125 49.078125 51.53125 44.71875 
Q 48 40.375 41.703125 38.8125 
Q 48.828125 37.15625 52.796875 32.3125 
Q 56.78125 27.484375 56.78125 20.515625 
Q 56.78125 9.90625 50.3125 4.234375 
Q 43.84375 -1.421875 31.78125 -1.421875 
Q 19.734375 -1.421875 13.25 4.234375 
Q 6.78125 9.90625 6.78125 20.515625 
Q 6.78125 27.484375 10.78125 32.3125 
Q 14.796875 37.15625 21.921875 38.8125 
z
M 18.3125 54.390625 
Q 18.3125 48.734375 21.84375 45.5625 
Q 25.390625 42.390625 31.78125 42.390625 
Q 38.140625 42.390625 41.71875 45.5625 
Q 45.3125 48.734375 45.3125 54.390625 
Q 45.3125 60.0625 41.71875 63.234375 
Q 38.140625 66.40625 31.78125 66.40625 
Q 25.390625 66.40625 21.84375 63.234375 
Q 18.3125 60.0625 18.3125 54.390625 
z
" id="DejaVuSans-38"/>
      </defs>
      <g transform="translate(314.679304 266.598437)scale(0.1 -0.1)">
       <use xlink:href="#DejaVuSans-30"/>
       <use x="63.623047" xlink:href="#DejaVuSans-2e"/>
       <use x="95.410156" xlink:href="#DejaVuSans-38"/>
      </g>
     </g>
    </g>
   </g>
   <g id="matplotlib.axis_2">
    <g id="ytick_1">
     <g id="line2d_9">
      <path clip-path="url(#p0ebbf203b2)" d="M 54 209.110067 
L 388.8 209.110067 
" style="fill:none;stroke:#b0b0b0;stroke-linecap:square;stroke-width:0.8;"/>
     </g>
     <g id="line2d_10">
      <defs>
       <path d="M 0 0 
L -3.5 0 
" id="me05ec128c0" style="stroke:#000000;stroke-width:0.8;"/>
      </defs>
      <g>
       <use style="stroke:#000000;stroke-width:0.8;" x="54" xlink:href="#me05ec128c0" y="209.110067"/>
      </g>
     </g>
     <g id="text_5">
      <!-- 0.2 -->
      <g transform="translate(31.096875 212.909286)scale(0.1 -0.1)">
       <use xlink:href="#DejaVuSans-30"/>
       <use x="63.623047" xlink:href="#DejaVuSans-2e"/>
       <use x="95.410156" xlink:href="#DejaVuSans-32"/>
      </g>
     </g>
    </g>
    <g id="ytick_2">
     <g id="line2d_11">
      <path clip-path="url(#p0ebbf203b2)" d="M 54 165.365752 
L 388.8 165.365752 
" style="fill:none;stroke:#b0b0b0;stroke-linecap:square;stroke-width:0.8;"/>
     </g>
     <g id="line2d_12">
      <g>
       <use style="stroke:#000000;stroke-width:0.8;" x="54" xlink:href="#me05ec128c0" y="165.365752"/>
      </g>
     </g>
     <g id="text_6">
      <!-- 0.4 -->
      <g transform="translate(31.096875 169.164971)scale(0.1 -0.1)">
       <use xlink:href="#DejaVuSans-30"/>
       <use x="63.623047" xlink:href="#DejaVuSans-2e"/>
       <use x="95.410156" xlink:href="#DejaVuSans-34"/>
      </g>
     </g>
    </g>
    <g id="ytick_3">
     <g id="line2d_13">
      <path clip-path="url(#p0ebbf203b2)" d="M 54 121.621438 
L 388.8 121.621438 
" style="fill:none;stroke:#b0b0b0;stroke-linecap:square;stroke-width:0.8;"/>
     </g>
     <g id="line2d_14">
      <g>
       <use style="stroke:#000000;stroke-width:0.8;" x="54" xlink:href="#me05ec128c0" y="121.621438"/>
      </g>
     </g>
     <g id="text_7">
      <!-- 0.6 -->
      <g transform="translate(31.096875 125.420657)scale(0.1 -0.1)">
       <use xlink:href="#DejaVuSans-30"/>
       <use x="63.623047" xlink:href="#DejaVuSans-2e"/>
       <use x="95.410156" xlink:href="#DejaVuSans-36"/>
      </g>
     </g>
    </g>
    <g id="ytick_4">
     <g id="line2d_15">
      <path clip-path="url(#p0ebbf203b2)" d="M 54 77.877124 
L 388.8 77.877124 
" style="fill:none;stroke:#b0b0b0;stroke-linecap:square;stroke-width:0.8;"/>
     </g>
     <g id="line2d_16">
      <g>
       <use style="stroke:#000000;stroke-width:0.8;" x="54" xlink:href="#me05ec128c0" y="77.877124"/>
      </g>
     </g>
     <g id="text_8">
      <!-- 0.8 -->
      <g transform="translate(31.096875 81.676343)scale(0.1 -0.1)">
       <use xlink:href="#DejaVuSans-30"/>
       <use x="63.623047" xlink:href="#DejaVuSans-2e"/>
       <use x="95.410156" xlink:href="#DejaVuSans-38"/>
      </g>
     </g>
    </g>
    <g id="ytick_5">
     <g id="line2d_17">
      <path clip-path="url(#p0ebbf203b2)" d="M 54 34.132809 
L 388.8 34.132809 
" style="fill:none;stroke:#b0b0b0;stroke-linecap:square;stroke-width:0.8;"/>
     </g>
     <g id="line2d_18">
      <g>
       <use style="stroke:#000000;stroke-width:0.8;" x="54" xlink:href="#me05ec128c0" y="34.132809"/>
      </g>
     </g>
     <g id="text_9">
      <!-- 1.0 -->
      <defs>
       <path d="M 12.40625 8.296875 
L 28.515625 8.296875 
L 28.515625 63.921875 
L 10.984375 60.40625 
L 10.984375 69.390625 
L 28.421875 72.90625 
L 38.28125 72.90625 
L 38.28125 8.296875 
L 54.390625 8.296875 
L 54.390625 0 
L 12.40625 0 
z
" id="DejaVuSans-31"/>
      </defs>
      <g transform="translate(31.096875 37.932028)scale(0.1 -0.1)">
       <use xlink:href="#DejaVuSans-31"/>
       <use x="63.623047" xlink:href="#DejaVuSans-2e"/>
       <use x="95.410156" xlink:href="#DejaVuSans-30"/>
      </g>
     </g>
    </g>
   </g>
   <g id="line2d_19">
    <defs>
     <path d="M -3 0 
L 3 0 
M 0 3 
L 0 -3 
" id="mc5314eb02b" style="stroke:#0000ff;"/>
    </defs>
    <g clip-path="url(#p0ebbf203b2)">
     <use style="fill:#0000ff;stroke:#0000ff;" x="221.4" xlink:href="#mc5314eb02b" y="143.493595"/>
     <use style="fill:#0000ff;stroke:#0000ff;" x="305.759055" xlink:href="#mc5314eb02b" y="198.173988"/>
     <use style="fill:#0000ff;stroke:#0000ff;" x="137.040945" xlink:href="#mc5314eb02b" y="88.813202"/>
     <use style="fill:#0000ff;stroke:#0000ff;" x="179.220472" xlink:href="#mc5314eb02b" y="170.833792"/>
     <use style="fill:#0000ff;stroke:#0000ff;" x="347.938583" xlink:href="#mc5314eb02b" y="61.473006"/>
     <use style="fill:#0000ff;stroke:#0000ff;" x="263.579528" xlink:href="#mc5314eb02b" y="225.514185"/>
     <use style="fill:#0000ff;stroke:#0000ff;" x="94.861417" xlink:href="#mc5314eb02b" y="116.153399"/>
     <use style="fill:#0000ff;stroke:#0000ff;" x="115.951181" xlink:href="#mc5314eb02b" y="184.50389"/>
     <use style="fill:#0000ff;stroke:#0000ff;" x="284.669291" xlink:href="#mc5314eb02b" y="75.143104"/>
     <use style="fill:#0000ff;stroke:#0000ff;" x="369.028346" xlink:href="#mc5314eb02b" y="239.184283"/>
     <use style="fill:#0000ff;stroke:#0000ff;" x="200.310236" xlink:href="#mc5314eb02b" y="129.823497"/>
     <use style="fill:#0000ff;stroke:#0000ff;" x="158.130709" xlink:href="#mc5314eb02b" y="211.844086"/>
     <use style="fill:#0000ff;stroke:#0000ff;" x="326.848819" xlink:href="#mc5314eb02b" y="102.483301"/>
     <use style="fill:#0000ff;stroke:#0000ff;" x="242.489764" xlink:href="#mc5314eb02b" y="157.163694"/>
     <use style="fill:#0000ff;stroke:#0000ff;" x="73.771654" xlink:href="#mc5314eb02b" y="47.802908"/>
     <use style="fill:#0000ff;stroke:#0000ff;" x="84.316535" xlink:href="#mc5314eb02b" y="150.328644"/>
     <use style="fill:#0000ff;stroke:#0000ff;" x="253.034646" xlink:href="#mc5314eb02b" y="40.967859"/>
     <use style="fill:#0000ff;stroke:#0000ff;" x="337.393701" xlink:href="#mc5314eb02b" y="205.009037"/>
     <use style="fill:#0000ff;stroke:#0000ff;" x="168.675591" xlink:href="#mc5314eb02b" y="95.648251"/>
     <use style="fill:#0000ff;stroke:#0000ff;" x="210.855118" xlink:href="#mc5314eb02b" y="232.349234"/>
     <use style="fill:#0000ff;stroke:#0000ff;" x="379.573228" xlink:href="#mc5314eb02b" y="122.988448"/>
     <use style="fill:#0000ff;stroke:#0000ff;" x="295.214173" xlink:href="#mc5314eb02b" y="177.668841"/>
     <use style="fill:#0000ff;stroke:#0000ff;" x="126.496063" xlink:href="#mc5314eb02b" y="68.308055"/>
     <use style="fill:#0000ff;stroke:#0000ff;" x="105.406299" xlink:href="#mc5314eb02b" y="218.679136"/>
     <use style="fill:#0000ff;stroke:#0000ff;" x="274.124409" xlink:href="#mc5314eb02b" y="109.31835"/>
     <use style="fill:#0000ff;stroke:#0000ff;" x="358.483465" xlink:href="#mc5314eb02b" y="163.998743"/>
     <use style="fill:#0000ff;stroke:#0000ff;" x="189.765354" xlink:href="#mc5314eb02b" y="54.637957"/>
     <use style="fill:#0000ff;stroke:#0000ff;" x="147.585827" xlink:href="#mc5314eb02b" y="191.338939"/>
     <use style="fill:#0000ff;stroke:#0000ff;" x="316.303937" xlink:href="#mc5314eb02b" y="81.978153"/>
     <use style="fill:#0000ff;stroke:#0000ff;" x="231.944882" xlink:href="#mc5314eb02b" y="246.019332"/>
     <use style="fill:#0000ff;stroke:#0000ff;" x="63.226772" xlink:href="#mc5314eb02b" y="136.658546"/>
     <use style="fill:#0000ff;stroke:#0000ff;" x="68.499213" xlink:href="#mc5314eb02b" y="194.756464"/>
     <use style="fill:#0000ff;stroke:#0000ff;" x="237.217323" xlink:href="#mc5314eb02b" y="85.395678"/>
     <use style="fill:#0000ff;stroke:#0000ff;" x="321.576378" xlink:href="#mc5314eb02b" y="249.436857"/>
     <use style="fill:#0000ff;stroke:#0000ff;" x="152.858268" xlink:href="#mc5314eb02b" y="140.076071"/>
     <use style="fill:#0000ff;stroke:#0000ff;" x="195.037795" xlink:href="#mc5314eb02b" y="222.09666"/>
     <use style="fill:#0000ff;stroke:#0000ff;" x="363.755906" xlink:href="#mc5314eb02b" y="112.735874"/>
     <use style="fill:#0000ff;stroke:#0000ff;" x="279.39685" xlink:href="#mc5314eb02b" y="167.416267"/>
     <use style="fill:#0000ff;stroke:#0000ff;" x="110.67874" xlink:href="#mc5314eb02b" y="58.055481"/>
     <use style="fill:#0000ff;stroke:#0000ff;" x="131.768504" xlink:href="#mc5314eb02b" y="235.766758"/>
     <use style="fill:#0000ff;stroke:#0000ff;" x="300.486614" xlink:href="#mc5314eb02b" y="126.405972"/>
     <use style="fill:#0000ff;stroke:#0000ff;" x="384.845669" xlink:href="#mc5314eb02b" y="181.086365"/>
     <use style="fill:#0000ff;stroke:#0000ff;" x="216.127559" xlink:href="#mc5314eb02b" y="71.72558"/>
     <use style="fill:#0000ff;stroke:#0000ff;" x="173.948031" xlink:href="#mc5314eb02b" y="153.746169"/>
     <use style="fill:#0000ff;stroke:#0000ff;" x="342.666142" xlink:href="#mc5314eb02b" y="44.385383"/>
     <use style="fill:#0000ff;stroke:#0000ff;" x="258.307087" xlink:href="#mc5314eb02b" y="208.426562"/>
     <use style="fill:#0000ff;stroke:#0000ff;" x="89.588976" xlink:href="#mc5314eb02b" y="99.065776"/>
     <use style="fill:#0000ff;stroke:#0000ff;" x="79.044094" xlink:href="#mc5314eb02b" y="201.591513"/>
     <use style="fill:#0000ff;stroke:#0000ff;" x="247.762205" xlink:href="#mc5314eb02b" y="92.230727"/>
     <use style="fill:#0000ff;stroke:#0000ff;" x="332.12126" xlink:href="#mc5314eb02b" y="146.91112"/>
     <use style="fill:#0000ff;stroke:#0000ff;" x="163.40315" xlink:href="#mc5314eb02b" y="37.550334"/>
     <use style="fill:#0000ff;stroke:#0000ff;" x="205.582677" xlink:href="#mc5314eb02b" y="174.251316"/>
     <use style="fill:#0000ff;stroke:#0000ff;" x="374.300787" xlink:href="#mc5314eb02b" y="64.89053"/>
     <use style="fill:#0000ff;stroke:#0000ff;" x="289.941732" xlink:href="#mc5314eb02b" y="228.931709"/>
     <use style="fill:#0000ff;stroke:#0000ff;" x="121.223622" xlink:href="#mc5314eb02b" y="119.570923"/>
     <use style="fill:#0000ff;stroke:#0000ff;" x="100.133858" xlink:href="#mc5314eb02b" y="160.581218"/>
     <use style="fill:#0000ff;stroke:#0000ff;" x="268.851969" xlink:href="#mc5314eb02b" y="51.220432"/>
     <use style="fill:#0000ff;stroke:#0000ff;" x="353.211024" xlink:href="#mc5314eb02b" y="215.261611"/>
     <use style="fill:#0000ff;stroke:#0000ff;" x="184.492913" xlink:href="#mc5314eb02b" y="105.900825"/>
     <use style="fill:#0000ff;stroke:#0000ff;" x="142.313386" xlink:href="#mc5314eb02b" y="242.601807"/>
     <use style="fill:#0000ff;stroke:#0000ff;" x="311.031496" xlink:href="#mc5314eb02b" y="133.241022"/>
     <use style="fill:#0000ff;stroke:#0000ff;" x="226.672441" xlink:href="#mc5314eb02b" y="187.921415"/>
     <use style="fill:#0000ff;stroke:#0000ff;" x="57.954331" xlink:href="#mc5314eb02b" y="78.560629"/>
     <use style="fill:#0000ff;stroke:#0000ff;" x="60.590551" xlink:href="#mc5314eb02b" y="165.707505"/>
     <use style="fill:#0000ff;stroke:#0000ff;" x="229.308661" xlink:href="#mc5314eb02b" y="56.346719"/>
     <use style="fill:#0000ff;stroke:#0000ff;" x="313.667717" xlink:href="#mc5314eb02b" y="220.387898"/>
     <use style="fill:#0000ff;stroke:#0000ff;" x="144.949606" xlink:href="#mc5314eb02b" y="111.027112"/>
     <use style="fill:#0000ff;stroke:#0000ff;" x="187.129134" xlink:href="#mc5314eb02b" y="247.728094"/>
     <use style="fill:#0000ff;stroke:#0000ff;" x="355.847244" xlink:href="#mc5314eb02b" y="138.367308"/>
     <use style="fill:#0000ff;stroke:#0000ff;" x="271.488189" xlink:href="#mc5314eb02b" y="193.047701"/>
     <use style="fill:#0000ff;stroke:#0000ff;" x="102.770079" xlink:href="#mc5314eb02b" y="83.686916"/>
     <use style="fill:#0000ff;stroke:#0000ff;" x="123.859843" xlink:href="#mc5314eb02b" y="206.7178"/>
     <use style="fill:#0000ff;stroke:#0000ff;" x="292.577953" xlink:href="#mc5314eb02b" y="97.357014"/>
     <use style="fill:#0000ff;stroke:#0000ff;" x="376.937008" xlink:href="#mc5314eb02b" y="152.037407"/>
     <use style="fill:#0000ff;stroke:#0000ff;" x="208.218898" xlink:href="#mc5314eb02b" y="42.676621"/>
     <use style="fill:#0000ff;stroke:#0000ff;" x="166.03937" xlink:href="#mc5314eb02b" y="179.377603"/>
     <use style="fill:#0000ff;stroke:#0000ff;" x="334.75748" xlink:href="#mc5314eb02b" y="70.016817"/>
     <use style="fill:#0000ff;stroke:#0000ff;" x="250.398425" xlink:href="#mc5314eb02b" y="234.057996"/>
     <use style="fill:#0000ff;stroke:#0000ff;" x="81.680315" xlink:href="#mc5314eb02b" y="124.69721"/>
     <use style="fill:#0000ff;stroke:#0000ff;" x="92.225197" xlink:href="#mc5314eb02b" y="227.222947"/>
     <use style="fill:#0000ff;stroke:#0000ff;" x="260.943307" xlink:href="#mc5314eb02b" y="117.862161"/>
     <use style="fill:#0000ff;stroke:#0000ff;" x="345.302362" xlink:href="#mc5314eb02b" y="172.542554"/>
     <use style="fill:#0000ff;stroke:#0000ff;" x="176.584252" xlink:href="#mc5314eb02b" y="63.181768"/>
     <use style="fill:#0000ff;stroke:#0000ff;" x="218.76378" xlink:href="#mc5314eb02b" y="145.202358"/>
     <use style="fill:#0000ff;stroke:#0000ff;" x="387.48189" xlink:href="#mc5314eb02b" y="35.841572"/>
     <use style="fill:#0000ff;stroke:#0000ff;" x="303.122835" xlink:href="#mc5314eb02b" y="199.88275"/>
     <use style="fill:#0000ff;stroke:#0000ff;" x="134.404724" xlink:href="#mc5314eb02b" y="90.521965"/>
     <use style="fill:#0000ff;stroke:#0000ff;" x="113.314961" xlink:href="#mc5314eb02b" y="186.212652"/>
     <use style="fill:#0000ff;stroke:#0000ff;" x="282.033071" xlink:href="#mc5314eb02b" y="76.851866"/>
     <use style="fill:#0000ff;stroke:#0000ff;" x="366.392126" xlink:href="#mc5314eb02b" y="240.893045"/>
     <use style="fill:#0000ff;stroke:#0000ff;" x="197.674016" xlink:href="#mc5314eb02b" y="131.532259"/>
     <use style="fill:#0000ff;stroke:#0000ff;" x="155.494488" xlink:href="#mc5314eb02b" y="213.552849"/>
     <use style="fill:#0000ff;stroke:#0000ff;" x="324.212598" xlink:href="#mc5314eb02b" y="104.192063"/>
     <use style="fill:#0000ff;stroke:#0000ff;" x="239.853543" xlink:href="#mc5314eb02b" y="158.872456"/>
     <use style="fill:#0000ff;stroke:#0000ff;" x="71.135433" xlink:href="#mc5314eb02b" y="49.51167"/>
     <use style="fill:#0000ff;stroke:#0000ff;" x="65.862992" xlink:href="#mc5314eb02b" y="223.805422"/>
     <use style="fill:#0000ff;stroke:#0000ff;" x="234.581102" xlink:href="#mc5314eb02b" y="114.444637"/>
     <use style="fill:#0000ff;stroke:#0000ff;" x="318.940157" xlink:href="#mc5314eb02b" y="169.125029"/>
     <use style="fill:#0000ff;stroke:#0000ff;" x="150.222047" xlink:href="#mc5314eb02b" y="59.764244"/>
     <use style="fill:#0000ff;stroke:#0000ff;" x="192.401575" xlink:href="#mc5314eb02b" y="196.465226"/>
     <use style="fill:#0000ff;stroke:#0000ff;" x="361.119685" xlink:href="#mc5314eb02b" y="87.10444"/>
     <use style="fill:#0000ff;stroke:#0000ff;" x="276.76063" xlink:href="#mc5314eb02b" y="251.145619"/>
     <use style="fill:#0000ff;stroke:#0000ff;" x="108.04252" xlink:href="#mc5314eb02b" y="141.784833"/>
     <use style="fill:#0000ff;stroke:#0000ff;" x="129.132283" xlink:href="#mc5314eb02b" y="155.454931"/>
     <use style="fill:#0000ff;stroke:#0000ff;" x="297.850394" xlink:href="#mc5314eb02b" y="46.094145"/>
     <use style="fill:#0000ff;stroke:#0000ff;" x="382.209449" xlink:href="#mc5314eb02b" y="210.135324"/>
     <use style="fill:#0000ff;stroke:#0000ff;" x="213.491339" xlink:href="#mc5314eb02b" y="100.774538"/>
     <use style="fill:#0000ff;stroke:#0000ff;" x="171.311811" xlink:href="#mc5314eb02b" y="237.475521"/>
     <use style="fill:#0000ff;stroke:#0000ff;" x="340.029921" xlink:href="#mc5314eb02b" y="128.114735"/>
     <use style="fill:#0000ff;stroke:#0000ff;" x="255.670866" xlink:href="#mc5314eb02b" y="182.795128"/>
     <use style="fill:#0000ff;stroke:#0000ff;" x="86.952756" xlink:href="#mc5314eb02b" y="73.434342"/>
     <use style="fill:#0000ff;stroke:#0000ff;" x="76.407874" xlink:href="#mc5314eb02b" y="175.960079"/>
     <use style="fill:#0000ff;stroke:#0000ff;" x="245.125984" xlink:href="#mc5314eb02b" y="66.599293"/>
     <use style="fill:#0000ff;stroke:#0000ff;" x="329.485039" xlink:href="#mc5314eb02b" y="230.640472"/>
     <use style="fill:#0000ff;stroke:#0000ff;" x="160.766929" xlink:href="#mc5314eb02b" y="121.279686"/>
     <use style="fill:#0000ff;stroke:#0000ff;" x="202.946457" xlink:href="#mc5314eb02b" y="203.300275"/>
     <use style="fill:#0000ff;stroke:#0000ff;" x="371.664567" xlink:href="#mc5314eb02b" y="93.939489"/>
     <use style="fill:#0000ff;stroke:#0000ff;" x="287.305512" xlink:href="#mc5314eb02b" y="148.619882"/>
     <use style="fill:#0000ff;stroke:#0000ff;" x="118.587402" xlink:href="#mc5314eb02b" y="39.259096"/>
     <use style="fill:#0000ff;stroke:#0000ff;" x="97.497638" xlink:href="#mc5314eb02b" y="244.31057"/>
     <use style="fill:#0000ff;stroke:#0000ff;" x="266.215748" xlink:href="#mc5314eb02b" y="134.949784"/>
     <use style="fill:#0000ff;stroke:#0000ff;" x="350.574803" xlink:href="#mc5314eb02b" y="189.630177"/>
     <use style="fill:#0000ff;stroke:#0000ff;" x="181.856693" xlink:href="#mc5314eb02b" y="80.269391"/>
     <use style="fill:#0000ff;stroke:#0000ff;" x="139.677165" xlink:href="#mc5314eb02b" y="162.28998"/>
     <use style="fill:#0000ff;stroke:#0000ff;" x="308.395276" xlink:href="#mc5314eb02b" y="52.929194"/>
     <use style="fill:#0000ff;stroke:#0000ff;" x="224.03622" xlink:href="#mc5314eb02b" y="216.970373"/>
     <use style="fill:#0000ff;stroke:#0000ff;" x="55.31811" xlink:href="#mc5314eb02b" y="107.609587"/>
     <use style="fill:#0000ff;stroke:#0000ff;" x="56.63622" xlink:href="#mc5314eb02b" y="180.231984"/>
     <use style="fill:#0000ff;stroke:#0000ff;" x="225.354331" xlink:href="#mc5314eb02b" y="70.871198"/>
     <use style="fill:#0000ff;stroke:#0000ff;" x="309.713386" xlink:href="#mc5314eb02b" y="234.912377"/>
     <use style="fill:#0000ff;stroke:#0000ff;" x="140.995276" xlink:href="#mc5314eb02b" y="125.551591"/>
     <use style="fill:#0000ff;stroke:#0000ff;" x="183.174803" xlink:href="#mc5314eb02b" y="207.572181"/>
     <use style="fill:#0000ff;stroke:#0000ff;" x="351.892913" xlink:href="#mc5314eb02b" y="98.211395"/>
     <use style="fill:#0000ff;stroke:#0000ff;" x="267.533858" xlink:href="#mc5314eb02b" y="152.891788"/>
     <use style="fill:#0000ff;stroke:#0000ff;" x="98.815748" xlink:href="#mc5314eb02b" y="43.531002"/>
     <use style="fill:#0000ff;stroke:#0000ff;" x="119.905512" xlink:href="#mc5314eb02b" y="248.582475"/>
     <use style="fill:#0000ff;stroke:#0000ff;" x="288.623622" xlink:href="#mc5314eb02b" y="139.22169"/>
     <use style="fill:#0000ff;stroke:#0000ff;" x="372.982677" xlink:href="#mc5314eb02b" y="193.902083"/>
     <use style="fill:#0000ff;stroke:#0000ff;" x="204.264567" xlink:href="#mc5314eb02b" y="84.541297"/>
     <use style="fill:#0000ff;stroke:#0000ff;" x="162.085039" xlink:href="#mc5314eb02b" y="166.561886"/>
     <use style="fill:#0000ff;stroke:#0000ff;" x="330.80315" xlink:href="#mc5314eb02b" y="57.2011"/>
     <use style="fill:#0000ff;stroke:#0000ff;" x="246.444094" xlink:href="#mc5314eb02b" y="221.242279"/>
     <use style="fill:#0000ff;stroke:#0000ff;" x="77.725984" xlink:href="#mc5314eb02b" y="111.881493"/>
     <use style="fill:#0000ff;stroke:#0000ff;" x="88.270866" xlink:href="#mc5314eb02b" y="214.40723"/>
     <use style="fill:#0000ff;stroke:#0000ff;" x="256.988976" xlink:href="#mc5314eb02b" y="105.046444"/>
     <use style="fill:#0000ff;stroke:#0000ff;" x="341.348031" xlink:href="#mc5314eb02b" y="159.726837"/>
     <use style="fill:#0000ff;stroke:#0000ff;" x="172.629921" xlink:href="#mc5314eb02b" y="50.366051"/>
     <use style="fill:#0000ff;stroke:#0000ff;" x="214.809449" xlink:href="#mc5314eb02b" y="187.067033"/>
     <use style="fill:#0000ff;stroke:#0000ff;" x="383.527559" xlink:href="#mc5314eb02b" y="77.706248"/>
     <use style="fill:#0000ff;stroke:#0000ff;" x="299.168504" xlink:href="#mc5314eb02b" y="241.747426"/>
     <use style="fill:#0000ff;stroke:#0000ff;" x="130.450394" xlink:href="#mc5314eb02b" y="132.38664"/>
     <use style="fill:#0000ff;stroke:#0000ff;" x="109.36063" xlink:href="#mc5314eb02b" y="146.056739"/>
     <use style="fill:#0000ff;stroke:#0000ff;" x="278.07874" xlink:href="#mc5314eb02b" y="36.695953"/>
     <use style="fill:#0000ff;stroke:#0000ff;" x="362.437795" xlink:href="#mc5314eb02b" y="200.737132"/>
     <use style="fill:#0000ff;stroke:#0000ff;" x="193.719685" xlink:href="#mc5314eb02b" y="91.376346"/>
     <use style="fill:#0000ff;stroke:#0000ff;" x="151.540157" xlink:href="#mc5314eb02b" y="228.077328"/>
     <use style="fill:#0000ff;stroke:#0000ff;" x="320.258268" xlink:href="#mc5314eb02b" y="118.716542"/>
     <use style="fill:#0000ff;stroke:#0000ff;" x="235.899213" xlink:href="#mc5314eb02b" y="173.396935"/>
     <use style="fill:#0000ff;stroke:#0000ff;" x="67.181102" xlink:href="#mc5314eb02b" y="64.036149"/>
     <use style="fill:#0000ff;stroke:#0000ff;" x="72.453543" xlink:href="#mc5314eb02b" y="238.329902"/>
     <use style="fill:#0000ff;stroke:#0000ff;" x="241.171654" xlink:href="#mc5314eb02b" y="128.969116"/>
     <use style="fill:#0000ff;stroke:#0000ff;" x="325.530709" xlink:href="#mc5314eb02b" y="183.649509"/>
     <use style="fill:#0000ff;stroke:#0000ff;" x="156.812598" xlink:href="#mc5314eb02b" y="74.288723"/>
     <use style="fill:#0000ff;stroke:#0000ff;" x="198.992126" xlink:href="#mc5314eb02b" y="156.309312"/>
     <use style="fill:#0000ff;stroke:#0000ff;" x="367.710236" xlink:href="#mc5314eb02b" y="46.948527"/>
     <use style="fill:#0000ff;stroke:#0000ff;" x="283.351181" xlink:href="#mc5314eb02b" y="210.989705"/>
     <use style="fill:#0000ff;stroke:#0000ff;" x="114.633071" xlink:href="#mc5314eb02b" y="101.628919"/>
     <use style="fill:#0000ff;stroke:#0000ff;" x="135.722835" xlink:href="#mc5314eb02b" y="197.319607"/>
     <use style="fill:#0000ff;stroke:#0000ff;" x="304.440945" xlink:href="#mc5314eb02b" y="87.958821"/>
     <use style="fill:#0000ff;stroke:#0000ff;" x="388.8" xlink:href="#mc5314eb02b" y="252"/>
     <use style="fill:#0000ff;stroke:#0000ff;" x="220.08189" xlink:href="#mc5314eb02b" y="142.639214"/>
     <use style="fill:#0000ff;stroke:#0000ff;" x="177.902362" xlink:href="#mc5314eb02b" y="224.659804"/>
     <use style="fill:#0000ff;stroke:#0000ff;" x="346.620472" xlink:href="#mc5314eb02b" y="115.299018"/>
     <use style="fill:#0000ff;stroke:#0000ff;" x="262.261417" xlink:href="#mc5314eb02b" y="169.979411"/>
     <use style="fill:#0000ff;stroke:#0000ff;" x="93.543307" xlink:href="#mc5314eb02b" y="60.618625"/>
     <use style="fill:#0000ff;stroke:#0000ff;" x="82.998425" xlink:href="#mc5314eb02b" y="163.144361"/>
     <use style="fill:#0000ff;stroke:#0000ff;" x="251.716535" xlink:href="#mc5314eb02b" y="53.783576"/>
     <use style="fill:#0000ff;stroke:#0000ff;" x="336.075591" xlink:href="#mc5314eb02b" y="217.824754"/>
     <use style="fill:#0000ff;stroke:#0000ff;" x="167.35748" xlink:href="#mc5314eb02b" y="108.463969"/>
     <use style="fill:#0000ff;stroke:#0000ff;" x="209.537008" xlink:href="#mc5314eb02b" y="245.164951"/>
     <use style="fill:#0000ff;stroke:#0000ff;" x="378.255118" xlink:href="#mc5314eb02b" y="135.804165"/>
     <use style="fill:#0000ff;stroke:#0000ff;" x="293.896063" xlink:href="#mc5314eb02b" y="190.484558"/>
     <use style="fill:#0000ff;stroke:#0000ff;" x="125.177953" xlink:href="#mc5314eb02b" y="81.123772"/>
     <use style="fill:#0000ff;stroke:#0000ff;" x="104.088189" xlink:href="#mc5314eb02b" y="204.154656"/>
     <use style="fill:#0000ff;stroke:#0000ff;" x="272.806299" xlink:href="#mc5314eb02b" y="94.79387"/>
     <use style="fill:#0000ff;stroke:#0000ff;" x="357.165354" xlink:href="#mc5314eb02b" y="149.474263"/>
     <use style="fill:#0000ff;stroke:#0000ff;" x="188.447244" xlink:href="#mc5314eb02b" y="40.113477"/>
     <use style="fill:#0000ff;stroke:#0000ff;" x="146.267717" xlink:href="#mc5314eb02b" y="176.81446"/>
     <use style="fill:#0000ff;stroke:#0000ff;" x="314.985827" xlink:href="#mc5314eb02b" y="67.453674"/>
     <use style="fill:#0000ff;stroke:#0000ff;" x="230.626772" xlink:href="#mc5314eb02b" y="231.494853"/>
     <use style="fill:#0000ff;stroke:#0000ff;" x="61.908661" xlink:href="#mc5314eb02b" y="122.134067"/>
     <use style="fill:#0000ff;stroke:#0000ff;" x="59.272441" xlink:href="#mc5314eb02b" y="209.280943"/>
     <use style="fill:#0000ff;stroke:#0000ff;" x="227.990551" xlink:href="#mc5314eb02b" y="99.920157"/>
     <use style="fill:#0000ff;stroke:#0000ff;" x="312.349606" xlink:href="#mc5314eb02b" y="154.60055"/>
     <use style="fill:#0000ff;stroke:#0000ff;" x="143.631496" xlink:href="#mc5314eb02b" y="45.239764"/>
     <use style="fill:#0000ff;stroke:#0000ff;" x="185.811024" xlink:href="#mc5314eb02b" y="181.940747"/>
     <use style="fill:#0000ff;stroke:#0000ff;" x="354.529134" xlink:href="#mc5314eb02b" y="72.579961"/>
     <use style="fill:#0000ff;stroke:#0000ff;" x="270.170079" xlink:href="#mc5314eb02b" y="236.621139"/>
     <use style="fill:#0000ff;stroke:#0000ff;" x="101.451969" xlink:href="#mc5314eb02b" y="127.260354"/>
     <use style="fill:#0000ff;stroke:#0000ff;" x="122.541732" xlink:href="#mc5314eb02b" y="168.270648"/>
     <use style="fill:#0000ff;stroke:#0000ff;" x="291.259843" xlink:href="#mc5314eb02b" y="58.909862"/>
     <use style="fill:#0000ff;stroke:#0000ff;" x="375.618898" xlink:href="#mc5314eb02b" y="222.951041"/>
     <use style="fill:#0000ff;stroke:#0000ff;" x="206.900787" xlink:href="#mc5314eb02b" y="113.590255"/>
     <use style="fill:#0000ff;stroke:#0000ff;" x="164.72126" xlink:href="#mc5314eb02b" y="250.291238"/>
     <use style="fill:#0000ff;stroke:#0000ff;" x="333.43937" xlink:href="#mc5314eb02b" y="140.930452"/>
     <use style="fill:#0000ff;stroke:#0000ff;" x="249.080315" xlink:href="#mc5314eb02b" y="195.610845"/>
     <use style="fill:#0000ff;stroke:#0000ff;" x="80.362205" xlink:href="#mc5314eb02b" y="86.250059"/>
     <use style="fill:#0000ff;stroke:#0000ff;" x="90.907087" xlink:href="#mc5314eb02b" y="188.775796"/>
     <use style="fill:#0000ff;stroke:#0000ff;" x="259.625197" xlink:href="#mc5314eb02b" y="79.41501"/>
     <use style="fill:#0000ff;stroke:#0000ff;" x="343.984252" xlink:href="#mc5314eb02b" y="243.456189"/>
     <use style="fill:#0000ff;stroke:#0000ff;" x="175.266142" xlink:href="#mc5314eb02b" y="134.095403"/>
     <use style="fill:#0000ff;stroke:#0000ff;" x="217.445669" xlink:href="#mc5314eb02b" y="216.115992"/>
     <use style="fill:#0000ff;stroke:#0000ff;" x="386.16378" xlink:href="#mc5314eb02b" y="106.755206"/>
     <use style="fill:#0000ff;stroke:#0000ff;" x="301.804724" xlink:href="#mc5314eb02b" y="161.435599"/>
     <use style="fill:#0000ff;stroke:#0000ff;" x="133.086614" xlink:href="#mc5314eb02b" y="52.074813"/>
     <use style="fill:#0000ff;stroke:#0000ff;" x="111.99685" xlink:href="#mc5314eb02b" y="229.78609"/>
     <use style="fill:#0000ff;stroke:#0000ff;" x="280.714961" xlink:href="#mc5314eb02b" y="120.425305"/>
     <use style="fill:#0000ff;stroke:#0000ff;" x="365.074016" xlink:href="#mc5314eb02b" y="175.105697"/>
     <use style="fill:#0000ff;stroke:#0000ff;" x="196.355906" xlink:href="#mc5314eb02b" y="65.744912"/>
     <use style="fill:#0000ff;stroke:#0000ff;" x="154.176378" xlink:href="#mc5314eb02b" y="147.765501"/>
     <use style="fill:#0000ff;stroke:#0000ff;" x="322.894488" xlink:href="#mc5314eb02b" y="38.404715"/>
     <use style="fill:#0000ff;stroke:#0000ff;" x="238.535433" xlink:href="#mc5314eb02b" y="202.445894"/>
     <use style="fill:#0000ff;stroke:#0000ff;" x="69.817323" xlink:href="#mc5314eb02b" y="93.085108"/>
     <use style="fill:#0000ff;stroke:#0000ff;" x="64.544882" xlink:href="#mc5314eb02b" y="151.183026"/>
     <use style="fill:#0000ff;stroke:#0000ff;" x="233.262992" xlink:href="#mc5314eb02b" y="41.82224"/>
     <use style="fill:#0000ff;stroke:#0000ff;" x="317.622047" xlink:href="#mc5314eb02b" y="205.863418"/>
     <use style="fill:#0000ff;stroke:#0000ff;" x="148.903937" xlink:href="#mc5314eb02b" y="96.502633"/>
     <use style="fill:#0000ff;stroke:#0000ff;" x="191.083465" xlink:href="#mc5314eb02b" y="233.203615"/>
     <use style="fill:#0000ff;stroke:#0000ff;" x="359.801575" xlink:href="#mc5314eb02b" y="123.842829"/>
     <use style="fill:#0000ff;stroke:#0000ff;" x="275.44252" xlink:href="#mc5314eb02b" y="178.523222"/>
     <use style="fill:#0000ff;stroke:#0000ff;" x="106.724409" xlink:href="#mc5314eb02b" y="69.162436"/>
     <use style="fill:#0000ff;stroke:#0000ff;" x="127.814173" xlink:href="#mc5314eb02b" y="219.533517"/>
     <use style="fill:#0000ff;stroke:#0000ff;" x="296.532283" xlink:href="#mc5314eb02b" y="110.172731"/>
     <use style="fill:#0000ff;stroke:#0000ff;" x="380.891339" xlink:href="#mc5314eb02b" y="164.853124"/>
     <use style="fill:#0000ff;stroke:#0000ff;" x="212.173228" xlink:href="#mc5314eb02b" y="55.492338"/>
     <use style="fill:#0000ff;stroke:#0000ff;" x="169.993701" xlink:href="#mc5314eb02b" y="192.19332"/>
     <use style="fill:#0000ff;stroke:#0000ff;" x="338.711811" xlink:href="#mc5314eb02b" y="82.832534"/>
     <use style="fill:#0000ff;stroke:#0000ff;" x="254.352756" xlink:href="#mc5314eb02b" y="246.873713"/>
     <use style="fill:#0000ff;stroke:#0000ff;" x="85.634646" xlink:href="#mc5314eb02b" y="137.512927"/>
     <use style="fill:#0000ff;stroke:#0000ff;" x="75.089764" xlink:href="#mc5314eb02b" y="240.038664"/>
     <use style="fill:#0000ff;stroke:#0000ff;" x="243.807874" xlink:href="#mc5314eb02b" y="130.677878"/>
     <use style="fill:#0000ff;stroke:#0000ff;" x="328.166929" xlink:href="#mc5314eb02b" y="185.358271"/>
     <use style="fill:#0000ff;stroke:#0000ff;" x="159.448819" xlink:href="#mc5314eb02b" y="75.997485"/>
     <use style="fill:#0000ff;stroke:#0000ff;" x="201.628346" xlink:href="#mc5314eb02b" y="158.018075"/>
     <use style="fill:#0000ff;stroke:#0000ff;" x="370.346457" xlink:href="#mc5314eb02b" y="48.657289"/>
     <use style="fill:#0000ff;stroke:#0000ff;" x="285.987402" xlink:href="#mc5314eb02b" y="212.698468"/>
     <use style="fill:#0000ff;stroke:#0000ff;" x="117.269291" xlink:href="#mc5314eb02b" y="103.337682"/>
     <use style="fill:#0000ff;stroke:#0000ff;" x="96.179528" xlink:href="#mc5314eb02b" y="171.688173"/>
     <use style="fill:#0000ff;stroke:#0000ff;" x="264.897638" xlink:href="#mc5314eb02b" y="62.327387"/>
     <use style="fill:#0000ff;stroke:#0000ff;" x="349.256693" xlink:href="#mc5314eb02b" y="226.368566"/>
     <use style="fill:#0000ff;stroke:#0000ff;" x="180.538583" xlink:href="#mc5314eb02b" y="117.00778"/>
     <use style="fill:#0000ff;stroke:#0000ff;" x="138.359055" xlink:href="#mc5314eb02b" y="199.028369"/>
     <use style="fill:#0000ff;stroke:#0000ff;" x="307.077165" xlink:href="#mc5314eb02b" y="89.667583"/>
     <use style="fill:#0000ff;stroke:#0000ff;" x="222.71811" xlink:href="#mc5314eb02b" y="144.347976"/>
     <use style="fill:#0000ff;stroke:#0000ff;" x="54" xlink:href="#mc5314eb02b" y="34.987191"/>
     <use style="fill:#0000ff;stroke:#0000ff;" x="54.659055" xlink:href="#mc5314eb02b" y="143.920786"/>
     <use style="fill:#0000ff;stroke:#0000ff;" x="223.377165" xlink:href="#mc5314eb02b" y="34.56"/>
     <use style="fill:#0000ff;stroke:#0000ff;" x="307.73622" xlink:href="#mc5314eb02b" y="198.601179"/>
     <use style="fill:#0000ff;stroke:#0000ff;" x="139.01811" xlink:href="#mc5314eb02b" y="89.240393"/>
     <use style="fill:#0000ff;stroke:#0000ff;" x="181.197638" xlink:href="#mc5314eb02b" y="225.941375"/>
     <use style="fill:#0000ff;stroke:#0000ff;" x="349.915748" xlink:href="#mc5314eb02b" y="116.580589"/>
     <use style="fill:#0000ff;stroke:#0000ff;" x="265.556693" xlink:href="#mc5314eb02b" y="171.260982"/>
     <use style="fill:#0000ff;stroke:#0000ff;" x="96.838583" xlink:href="#mc5314eb02b" y="61.900196"/>
     <use style="fill:#0000ff;stroke:#0000ff;" x="117.928346" xlink:href="#mc5314eb02b" y="212.271277"/>
     <use style="fill:#0000ff;stroke:#0000ff;" x="286.646457" xlink:href="#mc5314eb02b" y="102.910491"/>
     <use style="fill:#0000ff;stroke:#0000ff;" x="371.005512" xlink:href="#mc5314eb02b" y="157.590884"/>
     <use style="fill:#0000ff;stroke:#0000ff;" x="202.287402" xlink:href="#mc5314eb02b" y="48.230098"/>
     <use style="fill:#0000ff;stroke:#0000ff;" x="160.107874" xlink:href="#mc5314eb02b" y="184.931081"/>
     <use style="fill:#0000ff;stroke:#0000ff;" x="328.825984" xlink:href="#mc5314eb02b" y="75.570295"/>
     <use style="fill:#0000ff;stroke:#0000ff;" x="244.466929" xlink:href="#mc5314eb02b" y="239.611473"/>
     <use style="fill:#0000ff;stroke:#0000ff;" x="75.748819" xlink:href="#mc5314eb02b" y="130.250688"/>
     <use style="fill:#0000ff;stroke:#0000ff;" x="86.293701" xlink:href="#mc5314eb02b" y="246.446523"/>
     <use style="fill:#0000ff;stroke:#0000ff;" x="255.011811" xlink:href="#mc5314eb02b" y="137.085737"/>
     <use style="fill:#0000ff;stroke:#0000ff;" x="339.370866" xlink:href="#mc5314eb02b" y="191.76613"/>
     <use style="fill:#0000ff;stroke:#0000ff;" x="170.652756" xlink:href="#mc5314eb02b" y="82.405344"/>
     <use style="fill:#0000ff;stroke:#0000ff;" x="212.832283" xlink:href="#mc5314eb02b" y="164.425933"/>
     <use style="fill:#0000ff;stroke:#0000ff;" x="381.550394" xlink:href="#mc5314eb02b" y="55.065147"/>
     <use style="fill:#0000ff;stroke:#0000ff;" x="297.191339" xlink:href="#mc5314eb02b" y="219.106326"/>
     <use style="fill:#0000ff;stroke:#0000ff;" x="128.473228" xlink:href="#mc5314eb02b" y="109.74554"/>
     <use style="fill:#0000ff;stroke:#0000ff;" x="107.383465" xlink:href="#mc5314eb02b" y="178.096031"/>
     <use style="fill:#0000ff;stroke:#0000ff;" x="276.101575" xlink:href="#mc5314eb02b" y="68.735246"/>
     <use style="fill:#0000ff;stroke:#0000ff;" x="360.46063" xlink:href="#mc5314eb02b" y="232.776424"/>
     <use style="fill:#0000ff;stroke:#0000ff;" x="191.74252" xlink:href="#mc5314eb02b" y="123.415639"/>
     <use style="fill:#0000ff;stroke:#0000ff;" x="149.562992" xlink:href="#mc5314eb02b" y="205.436228"/>
     <use style="fill:#0000ff;stroke:#0000ff;" x="318.281102" xlink:href="#mc5314eb02b" y="96.075442"/>
     <use style="fill:#0000ff;stroke:#0000ff;" x="233.922047" xlink:href="#mc5314eb02b" y="150.755835"/>
     <use style="fill:#0000ff;stroke:#0000ff;" x="65.203937" xlink:href="#mc5314eb02b" y="41.395049"/>
     <use style="fill:#0000ff;stroke:#0000ff;" x="70.476378" xlink:href="#mc5314eb02b" y="202.018703"/>
     <use style="fill:#0000ff;stroke:#0000ff;" x="239.194488" xlink:href="#mc5314eb02b" y="92.657917"/>
     <use style="fill:#0000ff;stroke:#0000ff;" x="323.553543" xlink:href="#mc5314eb02b" y="147.33831"/>
     <use style="fill:#0000ff;stroke:#0000ff;" x="154.835433" xlink:href="#mc5314eb02b" y="37.977525"/>
     <use style="fill:#0000ff;stroke:#0000ff;" x="197.014961" xlink:href="#mc5314eb02b" y="174.678507"/>
     <use style="fill:#0000ff;stroke:#0000ff;" x="365.733071" xlink:href="#mc5314eb02b" y="65.317721"/>
     <use style="fill:#0000ff;stroke:#0000ff;" x="281.374016" xlink:href="#mc5314eb02b" y="229.3589"/>
     <use style="fill:#0000ff;stroke:#0000ff;" x="112.655906" xlink:href="#mc5314eb02b" y="119.998114"/>
     <use style="fill:#0000ff;stroke:#0000ff;" x="133.745669" xlink:href="#mc5314eb02b" y="161.008409"/>
     <use style="fill:#0000ff;stroke:#0000ff;" x="302.46378" xlink:href="#mc5314eb02b" y="51.647623"/>
     <use style="fill:#0000ff;stroke:#0000ff;" x="386.822835" xlink:href="#mc5314eb02b" y="215.688802"/>
     <use style="fill:#0000ff;stroke:#0000ff;" x="218.104724" xlink:href="#mc5314eb02b" y="106.328016"/>
     <use style="fill:#0000ff;stroke:#0000ff;" x="175.925197" xlink:href="#mc5314eb02b" y="243.028998"/>
    </g>
   </g>
   <g id="patch_3">
    <path d="M 54 252 
L 54 34.56 
" style="fill:none;stroke:#000000;stroke-linecap:square;stroke-linejoin:miter;stroke-width:0.8;"/>
   </g>
   <g id="patch_4">
    <path d="M 388.8 252 
L 388.8 34.56 
" style="fill:none;stroke:#000000;stroke-linecap:square;stroke-linejoin:miter;stroke-width:0.8;"/>
   </g>
   <g id="patch_5">
    <path d="M 54 252 
L 388.8 252 
" style="fill:none;stroke:#000000;stroke-linecap:square;stroke-linejoin:miter;stroke-width:0.8;"/>
   </g>
   <g id="patch_6">
    <path d="M 54 34.56 
L 388.8 34.56 
" style="fill:none;stroke:#000000;stroke-linecap:square;stroke-linejoin:miter;stroke-width:0.8;"/>
   </g>
   <g id="text_10">
    <!-- Sobol -->
    <defs>
     <path d="M 53.515625 70.515625 
L 53.515625 60.890625 
Q 47.90625 63.578125 42.921875 64.890625 
Q 37.9375 66.21875 33.296875 66.21875 
Q 25.25 66.21875 20.875 63.09375 
Q 16.5 59.96875 16.5 54.203125 
Q 16.5 49.359375 19.40625 46.890625 
Q 22.3125 44.4375 30.421875 42.921875 
L 36.375 41.703125 
Q 47.40625 39.59375 52.65625 34.296875 
Q 57.90625 29 57.90625 20.125 
Q 57.90625 9.515625 50.796875 4.046875 
Q 43.703125 -1.421875 29.984375 -1.421875 
Q 24.8125 -1.421875 18.96875 -0.25 
Q 13.140625 0.921875 6.890625 3.21875 
L 6.890625 13.375 
Q 12.890625 10.015625 18.65625 8.296875 
Q 24.421875 6.59375 29.984375 6.59375 
Q 38.421875 6.59375 43.015625 9.90625 
Q 47.609375 13.234375 47.609375 19.390625 
Q 47.609375 24.75 44.3125 27.78125 
Q 41.015625 30.8125 33.5 32.328125 
L 27.484375 33.5 
Q 16.453125 35.6875 11.515625 40.375 
Q 6.59375 45.0625 6.59375 53.421875 
Q 6.59375 63.09375 13.40625 68.65625 
Q 20.21875 74.21875 32.171875 74.21875 
Q 37.3125 74.21875 42.625 73.28125 
Q 47.953125 72.359375 53.515625 70.515625 
z
" id="DejaVuSans-53"/>
     <path d="M 30.609375 48.390625 
Q 23.390625 48.390625 19.1875 42.75 
Q 14.984375 37.109375 14.984375 27.296875 
Q 14.984375 17.484375 19.15625 11.84375 
Q 23.34375 6.203125 30.609375 6.203125 
Q 37.796875 6.203125 41.984375 11.859375 
Q 46.1875 17.53125 46.1875 27.296875 
Q 46.1875 37.015625 41.984375 42.703125 
Q 37.796875 48.390625 30.609375 48.390625 
z
M 30.609375 56 
Q 42.328125 56 49.015625 48.375 
Q 55.71875 40.765625 55.71875 27.296875 
Q 55.71875 13.875 49.015625 6.21875 
Q 42.328125 -1.421875 30.609375 -1.421875 
Q 18.84375 -1.421875 12.171875 6.21875 
Q 5.515625 13.875 5.515625 27.296875 
Q 5.515625 40.765625 12.171875 48.375 
Q 18.84375 56 30.609375 56 
z
" id="DejaVuSans-6f"/>
     <path d="M 48.6875 27.296875 
Q 48.6875 37.203125 44.609375 42.84375 
Q 40.53125 48.484375 33.40625 48.484375 
Q 26.265625 48.484375 22.1875 42.84375 
Q 18.109375 37.203125 18.109375 27.296875 
Q 18.109375 17.390625 22.1875 11.75 
Q 26.265625 6.109375 33.40625 6.109375 
Q 40.53125 6.109375 44.609375 11.75 
Q 48.6875 17.390625 48.6875 27.296875 
z
M 18.109375 46.390625 
Q 20.953125 51.265625 25.265625 53.625 
Q 29.59375 56 35.59375 56 
Q 45.5625 56 51.78125 48.09375 
Q 58.015625 40.1875 58.015625 27.296875 
Q 58.015625 14.40625 51.78125 6.484375 
Q 45.5625 -1.421875 35.59375 -1.421875 
Q 29.59375 -1.421875 25.265625 0.953125 
Q 20.953125 3.328125 18.109375 8.203125 
L 18.109375 0 
L 9.078125 0 
L 9.078125 75.984375 
L 18.109375 75.984375 
z
" id="DejaVuSans-62"/>
     <path d="M 9.421875 75.984375 
L 18.40625 75.984375 
L 18.40625 0 
L 9.421875 0 
z
" id="DejaVuSans-6c"/>
    </defs>
    <g transform="translate(204.7725 28.56)scale(0.12 -0.12)">
     <use xlink:href="#DejaVuSans-53"/>
     <use x="63.476562" xlink:href="#DejaVuSans-6f"/>
     <use x="124.658203" xlink:href="#DejaVuSans-62"/>
     <use x="188.134766" xlink:href="#DejaVuSans-6f"/>
     <use x="249.316406" xlink:href="#DejaVuSans-6c"/>
    </g>
   </g>
  </g>
 </g>
 <defs>
  <clipPath id="p0ebbf203b2">
   <rect height="217.44" width="334.8" x="54" y="34.56"/>
  </clipPath>
 </defs>
</svg>
