<?xml version="1.0" encoding="utf-8" standalone="no"?>
<!DOCTYPE svg PUBLIC "-//W3C//DTD SVG 1.1//EN"
  "http://www.w3.org/Graphics/SVG/1.1/DTD/svg11.dtd">
<!-- Created with matplotlib (http://matplotlib.org/) -->
<svg height="288pt" version="1.1" viewBox="0 0 432 288" width="432pt" xmlns="http://www.w3.org/2000/svg" xmlns:xlink="http://www.w3.org/1999/xlink">
 <defs>
  <style type="text/css">
*{stroke-linecap:butt;stroke-linejoin:round;}
  </style>
 </defs>
 <g id="figure_1">
  <g id="patch_1">
   <path d="M 0 288 
L 432 288 
L 432 0 
L 0 0 
z
" style="fill:#ffffff;"/>
  </g>
  <g id="axes_1">
   <g id="patch_2">
    <path d="M 54 252 
L 388.8 252 
L 388.8 34.56 
L 54 34.56 
z
" style="fill:#ffffff;"/>
   </g>
   <g id="matplotlib.axis_1">
    <g id="xtick_1">
     <g id="line2d_1">
      <path clip-path="url(#p6dfbb91941)" d="M 120.636213 252 
L 120.636213 34.56 
" style="fill:none;stroke:#b0b0b0;stroke-linecap:square;stroke-width:0.8;"/>
     </g>
     <g id="line2d_2">
      <defs>
       <path d="M 0 0 
L 0 3.5 
" id="mb8fe0581ff" style="stroke:#000000;stroke-width:0.8;"/>
      </defs>
      <g>
       <use style="stroke:#000000;stroke-width:0.8;" x="120.636213" xlink:href="#mb8fe0581ff" y="252"/>
      </g>
     </g>
     <g id="text_1">
      <!-- 0.2 -->
      <defs>
       <path d="M 31.78125 66.40625 
Q 24.171875 66.40625 20.328125 58.90625 
Q 16.5 51.421875 16.5 36.375 
Q 16.5 21.390625 20.328125 13.890625 
Q 24.171875 6.390625 31.78125 6.390625 
Q 39.453125 6.390625 43.28125 13.890625 
Q 47.125 21.390625 47.125 36.375 
Q 47.125 51.421875 43.28125 58.90625 
Q 39.453125 66.40625 31.78125 66.40625 
z
M 31.78125 74.21875 
Q 44.046875 74.21875 50.515625 64.515625 
Q 56.984375 54.828125 56.984375 36.375 
Q 56.984375 17.96875 50.515625 8.265625 
Q 44.046875 -1.421875 31.78125 -1.421875 
Q 19.53125 -1.421875 13.0625 8.265625 
Q 6.59375 17.96875 6.59375 36.375 
Q 6.59375 54.828125 13.0625 64.515625 
Q 19.53125 74.21875 31.78125 74.21875 
z
" id="DejaVuSans-30"/>
       <path d="M 10.6875 12.40625 
L 21 12.40625 
L 21 0 
L 10.6875 0 
z
" id="DejaVuSans-2e"/>
       <path d="M 19.1875 8.296875 
L 53.609375 8.296875 
L 53.609375 0 
L 7.328125 0 
L 7.328125 8.296875 
Q 12.9375 14.109375 22.625 23.890625 
Q 32.328125 33.6875 34.8125 36.53125 
Q 39.546875 41.84375 41.421875 45.53125 
Q 43.3125 49.21875 43.3125 52.78125 
Q 43.3125 58.59375 39.234375 62.25 
Q 35.15625 65.921875 28.609375 65.921875 
Q 23.96875 65.921875 18.8125 64.3125 
Q 13.671875 62.703125 7.8125 59.421875 
L 7.8125 69.390625 
Q 13.765625 71.78125 18.9375 73 
Q 24.125 74.21875 28.421875 74.21875 
Q 39.75 74.21875 46.484375 68.546875 
Q 53.21875 62.890625 53.21875 53.421875 
Q 53.21875 48.921875 51.53125 44.890625 
Q 49.859375 40.875 45.40625 35.40625 
Q 44.1875 33.984375 37.640625 27.21875 
Q 31.109375 20.453125 19.1875 8.296875 
z
" id="DejaVuSans-32"/>
      </defs>
      <g transform="translate(112.684651 266.598437)scale(0.1 -0.1)">
       <use xlink:href="#DejaVuSans-30"/>
       <use x="63.623047" xlink:href="#DejaVuSans-2e"/>
       <use x="95.410156" xlink:href="#DejaVuSans-32"/>
      </g>
     </g>
    </g>
    <g id="xtick_2">
     <g id="line2d_3">
      <path clip-path="url(#p6dfbb91941)" d="M 187.982123 252 
L 187.982123 34.56 
" style="fill:none;stroke:#b0b0b0;stroke-linecap:square;stroke-width:0.8;"/>
     </g>
     <g id="line2d_4">
      <g>
       <use style="stroke:#000000;stroke-width:0.8;" x="187.982123" xlink:href="#mb8fe0581ff" y="252"/>
      </g>
     </g>
     <g id="text_2">
      <!-- 0.4 -->
      <defs>
       <path d="M 37.796875 64.3125 
L 12.890625 25.390625 
L 37.796875 25.390625 
z
M 35.203125 72.90625 
L 47.609375 72.90625 
L 47.609375 25.390625 
L 58.015625 25.390625 
L 58.015625 17.1875 
L 47.609375 17.1875 
L 47.609375 0 
L 37.796875 0 
L 37.796875 17.1875 
L 4.890625 17.1875 
L 4.890625 26.703125 
z
" id="DejaVuSans-34"/>
      </defs>
      <g transform="translate(180.030561 266.598437)scale(0.1 -0.1)">
       <use xlink:href="#DejaVuSans-30"/>
       <use x="63.623047" xlink:href="#DejaVuSans-2e"/>
       <use x="95.410156" xlink:href="#DejaVuSans-34"/>
      </g>
     </g>
    </g>
    <g id="xtick_3">
     <g id="line2d_5">
      <path clip-path="url(#p6dfbb91941)" d="M 255.328033 252 
L 255.328033 34.56 
" style="fill:none;stroke:#b0b0b0;stroke-linecap:square;stroke-width:0.8;"/>
     </g>
     <g id="line2d_6">
      <g>
       <use style="stroke:#000000;stroke-width:0.8;" x="255.328033" xlink:href="#mb8fe0581ff" y="252"/>
      </g>
     </g>
     <g id="text_3">
      <!-- 0.6 -->
      <defs>
       <path d="M 33.015625 40.375 
Q 26.375 40.375 22.484375 35.828125 
Q 18.609375 31.296875 18.609375 23.390625 
Q 18.609375 15.53125 22.484375 10.953125 
Q 26.375 6.390625 33.015625 6.390625 
Q 39.65625 6.390625 43.53125 10.953125 
Q 47.40625 15.53125 47.40625 23.390625 
Q 47.40625 31.296875 43.53125 35.828125 
Q 39.65625 40.375 33.015625 40.375 
z
M 52.59375 71.296875 
L 52.59375 62.3125 
Q 48.875 64.0625 45.09375 64.984375 
Q 41.3125 65.921875 37.59375 65.921875 
Q 27.828125 65.921875 22.671875 59.328125 
Q 17.53125 52.734375 16.796875 39.40625 
Q 19.671875 43.65625 24.015625 45.921875 
Q 28.375 48.1875 33.59375 48.1875 
Q 44.578125 48.1875 50.953125 41.515625 
Q 57.328125 34.859375 57.328125 23.390625 
Q 57.328125 12.15625 50.6875 5.359375 
Q 44.046875 -1.421875 33.015625 -1.421875 
Q 20.359375 -1.421875 13.671875 8.265625 
Q 6.984375 17.96875 6.984375 36.375 
Q 6.984375 53.65625 15.1875 63.9375 
Q 23.390625 74.21875 37.203125 74.21875 
Q 40.921875 74.21875 44.703125 73.484375 
Q 48.484375 72.75 52.59375 71.296875 
z
" id="DejaVuSans-36"/>
      </defs>
      <g transform="translate(247.37647 266.598437)scale(0.1 -0.1)">
       <use xlink:href="#DejaVuSans-30"/>
       <use x="63.623047" xlink:href="#DejaVuSans-2e"/>
       <use x="95.410156" xlink:href="#DejaVuSans-36"/>
      </g>
     </g>
    </g>
    <g id="xtick_4">
     <g id="line2d_7">
      <path clip-path="url(#p6dfbb91941)" d="M 322.673943 252 
L 322.673943 34.56 
" style="fill:none;stroke:#b0b0b0;stroke-linecap:square;stroke-width:0.8;"/>
     </g>
     <g id="line2d_8">
      <g>
       <use style="stroke:#000000;stroke-width:0.8;" x="322.673943" xlink:href="#mb8fe0581ff" y="252"/>
      </g>
     </g>
     <g id="text_4">
      <!-- 0.8 -->
      <defs>
       <path d="M 31.78125 34.625 
Q 24.75 34.625 20.71875 30.859375 
Q 16.703125 27.09375 16.703125 20.515625 
Q 16.703125 13.921875 20.71875 10.15625 
Q 24.75 6.390625 31.78125 6.390625 
Q 38.8125 6.390625 42.859375 10.171875 
Q 46.921875 13.96875 46.921875 20.515625 
Q 46.921875 27.09375 42.890625 30.859375 
Q 38.875 34.625 31.78125 34.625 
z
M 21.921875 38.8125 
Q 15.578125 40.375 12.03125 44.71875 
Q 8.5 49.078125 8.5 55.328125 
Q 8.5 64.0625 14.71875 69.140625 
Q 20.953125 74.21875 31.78125 74.21875 
Q 42.671875 74.21875 48.875 69.140625 
Q 55.078125 64.0625 55.078125 55.328125 
Q 55.078125 49.078125 51.53125 44.71875 
Q 48 40.375 41.703125 38.8125 
Q 48.828125 37.15625 52.796875 32.3125 
Q 56.78125 27.484375 56.78125 20.515625 
Q 56.78125 9.90625 50.3125 4.234375 
Q 43.84375 -1.421875 31.78125 -1.421875 
Q 19.734375 -1.421875 13.25 4.234375 
Q 6.78125 9.90625 6.78125 20.515625 
Q 6.78125 27.484375 10.78125 32.3125 
Q 14.796875 37.15625 21.921875 38.8125 
z
M 18.3125 54.390625 
Q 18.3125 48.734375 21.84375 45.5625 
Q 25.390625 42.390625 31.78125 42.390625 
Q 38.140625 42.390625 41.71875 45.5625 
Q 45.3125 48.734375 45.3125 54.390625 
Q 45.3125 60.0625 41.71875 63.234375 
Q 38.140625 66.40625 31.78125 66.40625 
Q 25.390625 66.40625 21.84375 63.234375 
Q 18.3125 60.0625 18.3125 54.390625 
z
" id="DejaVuSans-38"/>
      </defs>
      <g transform="translate(314.72238 266.598437)scale(0.1 -0.1)">
       <use xlink:href="#DejaVuSans-30"/>
       <use x="63.623047" xlink:href="#DejaVuSans-2e"/>
       <use x="95.410156" xlink:href="#DejaVuSans-38"/>
      </g>
     </g>
    </g>
   </g>
   <g id="matplotlib.axis_2">
    <g id="ytick_1">
     <g id="line2d_9">
      <path clip-path="url(#p6dfbb91941)" d="M 54 252.240861 
L 388.8 252.240861 
" style="fill:none;stroke:#b0b0b0;stroke-linecap:square;stroke-width:0.8;"/>
     </g>
     <g id="line2d_10">
      <defs>
       <path d="M 0 0 
L -3.5 0 
" id="md2056de5ff" style="stroke:#000000;stroke-width:0.8;"/>
      </defs>
      <g>
       <use style="stroke:#000000;stroke-width:0.8;" x="54" xlink:href="#md2056de5ff" y="252.240861"/>
      </g>
     </g>
     <g id="text_5">
      <!-- 0.0 -->
      <g transform="translate(31.096875 256.040079)scale(0.1 -0.1)">
       <use xlink:href="#DejaVuSans-30"/>
       <use x="63.623047" xlink:href="#DejaVuSans-2e"/>
       <use x="95.410156" xlink:href="#DejaVuSans-30"/>
      </g>
     </g>
    </g>
    <g id="ytick_2">
     <g id="line2d_11">
      <path clip-path="url(#p6dfbb91941)" d="M 54 208.637775 
L 388.8 208.637775 
" style="fill:none;stroke:#b0b0b0;stroke-linecap:square;stroke-width:0.8;"/>
     </g>
     <g id="line2d_12">
      <g>
       <use style="stroke:#000000;stroke-width:0.8;" x="54" xlink:href="#md2056de5ff" y="208.637775"/>
      </g>
     </g>
     <g id="text_6">
      <!-- 0.2 -->
      <g transform="translate(31.096875 212.436993)scale(0.1 -0.1)">
       <use xlink:href="#DejaVuSans-30"/>
       <use x="63.623047" xlink:href="#DejaVuSans-2e"/>
       <use x="95.410156" xlink:href="#DejaVuSans-32"/>
      </g>
     </g>
    </g>
    <g id="ytick_3">
     <g id="line2d_13">
      <path clip-path="url(#p6dfbb91941)" d="M 54 165.034689 
L 388.8 165.034689 
" style="fill:none;stroke:#b0b0b0;stroke-linecap:square;stroke-width:0.8;"/>
     </g>
     <g id="line2d_14">
      <g>
       <use style="stroke:#000000;stroke-width:0.8;" x="54" xlink:href="#md2056de5ff" y="165.034689"/>
      </g>
     </g>
     <g id="text_7">
      <!-- 0.4 -->
      <g transform="translate(31.096875 168.833907)scale(0.1 -0.1)">
       <use xlink:href="#DejaVuSans-30"/>
       <use x="63.623047" xlink:href="#DejaVuSans-2e"/>
       <use x="95.410156" xlink:href="#DejaVuSans-34"/>
      </g>
     </g>
    </g>
    <g id="ytick_4">
     <g id="line2d_15">
      <path clip-path="url(#p6dfbb91941)" d="M 54 121.431603 
L 388.8 121.431603 
" style="fill:none;stroke:#b0b0b0;stroke-linecap:square;stroke-width:0.8;"/>
     </g>
     <g id="line2d_16">
      <g>
       <use style="stroke:#000000;stroke-width:0.8;" x="54" xlink:href="#md2056de5ff" y="121.431603"/>
      </g>
     </g>
     <g id="text_8">
      <!-- 0.6 -->
      <g transform="translate(31.096875 125.230821)scale(0.1 -0.1)">
       <use xlink:href="#DejaVuSans-30"/>
       <use x="63.623047" xlink:href="#DejaVuSans-2e"/>
       <use x="95.410156" xlink:href="#DejaVuSans-36"/>
      </g>
     </g>
    </g>
    <g id="ytick_5">
     <g id="line2d_17">
      <path clip-path="url(#p6dfbb91941)" d="M 54 77.828517 
L 388.8 77.828517 
" style="fill:none;stroke:#b0b0b0;stroke-linecap:square;stroke-width:0.8;"/>
     </g>
     <g id="line2d_18">
      <g>
       <use style="stroke:#000000;stroke-width:0.8;" x="54" xlink:href="#md2056de5ff" y="77.828517"/>
      </g>
     </g>
     <g id="text_9">
      <!-- 0.8 -->
      <g transform="translate(31.096875 81.627736)scale(0.1 -0.1)">
       <use xlink:href="#DejaVuSans-30"/>
       <use x="63.623047" xlink:href="#DejaVuSans-2e"/>
       <use x="95.410156" xlink:href="#DejaVuSans-38"/>
      </g>
     </g>
    </g>
    <g id="ytick_6">
     <g id="line2d_19">
      <path clip-path="url(#p6dfbb91941)" d="M 54 34.225431 
L 388.8 34.225431 
" style="fill:none;stroke:#b0b0b0;stroke-linecap:square;stroke-width:0.8;"/>
     </g>
     <g id="line2d_20">
      <g>
       <use style="stroke:#000000;stroke-width:0.8;" x="54" xlink:href="#md2056de5ff" y="34.225431"/>
      </g>
     </g>
     <g id="text_10">
      <!-- 1.0 -->
      <defs>
       <path d="M 12.40625 8.296875 
L 28.515625 8.296875 
L 28.515625 63.921875 
L 10.984375 60.40625 
L 10.984375 69.390625 
L 28.421875 72.90625 
L 38.28125 72.90625 
L 38.28125 8.296875 
L 54.390625 8.296875 
L 54.390625 0 
L 12.40625 0 
z
" id="DejaVuSans-31"/>
      </defs>
      <g transform="translate(31.096875 38.02465)scale(0.1 -0.1)">
       <use xlink:href="#DejaVuSans-31"/>
       <use x="63.623047" xlink:href="#DejaVuSans-2e"/>
       <use x="95.410156" xlink:href="#DejaVuSans-30"/>
      </g>
     </g>
    </g>
   </g>
   <g id="line2d_21">
    <defs>
     <path d="M -3 0 
L 3 0 
M 0 3 
L 0 -3 
" id="md504e487d1" style="stroke:#0000ff;"/>
    </defs>
    <g clip-path="url(#p6dfbb91941)">
     <use style="fill:#0000ff;stroke:#0000ff;" x="265.388352" xlink:href="#md504e487d1" y="183.494533"/>
     <use style="fill:#0000ff;stroke:#0000ff;" x="350.556908" xlink:href="#md504e487d1" y="142.912467"/>
     <use style="fill:#0000ff;stroke:#0000ff;" x="98.841848" xlink:href="#md504e487d1" y="48.804707"/>
     <use style="fill:#0000ff;stroke:#0000ff;" x="64.23494" xlink:href="#md504e487d1" y="40.504411"/>
     <use style="fill:#0000ff;stroke:#0000ff;" x="170.154665" xlink:href="#md504e487d1" y="205.324193"/>
     <use style="fill:#0000ff;stroke:#0000ff;" x="379.72368" xlink:href="#md504e487d1" y="172.812339"/>
     <use style="fill:#0000ff;stroke:#0000ff;" x="363.310328" xlink:href="#md504e487d1" y="96.589097"/>
     <use style="fill:#0000ff;stroke:#0000ff;" x="222.678787" xlink:href="#md504e487d1" y="113.140057"/>
     <use style="fill:#0000ff;stroke:#0000ff;" x="74.573657" xlink:href="#md504e487d1" y="63.430415"/>
     <use style="fill:#0000ff;stroke:#0000ff;" x="151.8702" xlink:href="#md504e487d1" y="147.106363"/>
     <use style="fill:#0000ff;stroke:#0000ff;" x="293.843831" xlink:href="#md504e487d1" y="237.129534"/>
     <use style="fill:#0000ff;stroke:#0000ff;" x="182.379609" xlink:href="#md504e487d1" y="144.789432"/>
     <use style="fill:#0000ff;stroke:#0000ff;" x="179.148862" xlink:href="#md504e487d1" y="233.030395"/>
     <use style="fill:#0000ff;stroke:#0000ff;" x="301.550245" xlink:href="#md504e487d1" y="136.59602"/>
     <use style="fill:#0000ff;stroke:#0000ff;" x="350.792022" xlink:href="#md504e487d1" y="54.126845"/>
     <use style="fill:#0000ff;stroke:#0000ff;" x="152.623528" xlink:href="#md504e487d1" y="162.54255"/>
     <use style="fill:#0000ff;stroke:#0000ff;" x="365.947182" xlink:href="#md504e487d1" y="218.634998"/>
     <use style="fill:#0000ff;stroke:#0000ff;" x="329.681545" xlink:href="#md504e487d1" y="154.453083"/>
     <use style="fill:#0000ff;stroke:#0000ff;" x="283.806897" xlink:href="#md504e487d1" y="208.740397"/>
     <use style="fill:#0000ff;stroke:#0000ff;" x="332.111538" xlink:href="#md504e487d1" y="137.210071"/>
     <use style="fill:#0000ff;stroke:#0000ff;" x="174.446327" xlink:href="#md504e487d1" y="144.692353"/>
     <use style="fill:#0000ff;stroke:#0000ff;" x="374.78153" xlink:href="#md504e487d1" y="188.736804"/>
     <use style="fill:#0000ff;stroke:#0000ff;" x="251.494517" xlink:href="#md504e487d1" y="173.690079"/>
     <use style="fill:#0000ff;stroke:#0000ff;" x="114.588243" xlink:href="#md504e487d1" y="119.927318"/>
     <use style="fill:#0000ff;stroke:#0000ff;" x="82.176639" xlink:href="#md504e487d1" y="131.092525"/>
     <use style="fill:#0000ff;stroke:#0000ff;" x="275.776706" xlink:href="#md504e487d1" y="131.890545"/>
     <use style="fill:#0000ff;stroke:#0000ff;" x="124.152356" xlink:href="#md504e487d1" y="121.361665"/>
     <use style="fill:#0000ff;stroke:#0000ff;" x="183.344914" xlink:href="#md504e487d1" y="55.207917"/>
     <use style="fill:#0000ff;stroke:#0000ff;" x="61.560202" xlink:href="#md504e487d1" y="204.662418"/>
     <use style="fill:#0000ff;stroke:#0000ff;" x="194.352625" xlink:href="#md504e487d1" y="135.667421"/>
     <use style="fill:#0000ff;stroke:#0000ff;" x="383.905139" xlink:href="#md504e487d1" y="199.37725"/>
     <use style="fill:#0000ff;stroke:#0000ff;" x="361.779016" xlink:href="#md504e487d1" y="159.975431"/>
     <use style="fill:#0000ff;stroke:#0000ff;" x="375.07009" xlink:href="#md504e487d1" y="221.720034"/>
     <use style="fill:#0000ff;stroke:#0000ff;" x="212.54656" xlink:href="#md504e487d1" y="69.836384"/>
     <use style="fill:#0000ff;stroke:#0000ff;" x="140.793184" xlink:href="#md504e487d1" y="44.031139"/>
     <use style="fill:#0000ff;stroke:#0000ff;" x="275.982948" xlink:href="#md504e487d1" y="78.14106"/>
     <use style="fill:#0000ff;stroke:#0000ff;" x="218.211862" xlink:href="#md504e487d1" y="87.134646"/>
     <use style="fill:#0000ff;stroke:#0000ff;" x="211.05629" xlink:href="#md504e487d1" y="117.866109"/>
     <use style="fill:#0000ff;stroke:#0000ff;" x="90.693474" xlink:href="#md504e487d1" y="42.79708"/>
     <use style="fill:#0000ff;stroke:#0000ff;" x="169.569369" xlink:href="#md504e487d1" y="241.492652"/>
     <use style="fill:#0000ff;stroke:#0000ff;" x="274.17715" xlink:href="#md504e487d1" y="75.19276"/>
     <use style="fill:#0000ff;stroke:#0000ff;" x="280.612494" xlink:href="#md504e487d1" y="155.863368"/>
     <use style="fill:#0000ff;stroke:#0000ff;" x="382.941831" xlink:href="#md504e487d1" y="135.957721"/>
     <use style="fill:#0000ff;stroke:#0000ff;" x="270.930153" xlink:href="#md504e487d1" y="225.613795"/>
     <use style="fill:#0000ff;stroke:#0000ff;" x="74.912474" xlink:href="#md504e487d1" y="93.935774"/>
     <use style="fill:#0000ff;stroke:#0000ff;" x="313.588837" xlink:href="#md504e487d1" y="47.682735"/>
     <use style="fill:#0000ff;stroke:#0000ff;" x="388.066608" xlink:href="#md504e487d1" y="230.132466"/>
     <use style="fill:#0000ff;stroke:#0000ff;" x="81.263572" xlink:href="#md504e487d1" y="58.063293"/>
     <use style="fill:#0000ff;stroke:#0000ff;" x="129.009723" xlink:href="#md504e487d1" y="135.253301"/>
     <use style="fill:#0000ff;stroke:#0000ff;" x="155.191193" xlink:href="#md504e487d1" y="188.245463"/>
     <use style="fill:#0000ff;stroke:#0000ff;" x="126.431608" xlink:href="#md504e487d1" y="63.858516"/>
     <use style="fill:#0000ff;stroke:#0000ff;" x="265.317001" xlink:href="#md504e487d1" y="115.359397"/>
     <use style="fill:#0000ff;stroke:#0000ff;" x="248.64505" xlink:href="#md504e487d1" y="209.293262"/>
     <use style="fill:#0000ff;stroke:#0000ff;" x="210.572588" xlink:href="#md504e487d1" y="207.002956"/>
     <use style="fill:#0000ff;stroke:#0000ff;" x="287.652084" xlink:href="#md504e487d1" y="34.935729"/>
     <use style="fill:#0000ff;stroke:#0000ff;" x="302.840405" xlink:href="#md504e487d1" y="251.928167"/>
     <use style="fill:#0000ff;stroke:#0000ff;" x="368.744903" xlink:href="#md504e487d1" y="183.951161"/>
     <use style="fill:#0000ff;stroke:#0000ff;" x="346.732607" xlink:href="#md504e487d1" y="247.884879"/>
     <use style="fill:#0000ff;stroke:#0000ff;" x="185.685668" xlink:href="#md504e487d1" y="241.012355"/>
     <use style="fill:#0000ff;stroke:#0000ff;" x="265.176756" xlink:href="#md504e487d1" y="208.635556"/>
     <use style="fill:#0000ff;stroke:#0000ff;" x="360.90262" xlink:href="#md504e487d1" y="245.98544"/>
     <use style="fill:#0000ff;stroke:#0000ff;" x="360.859415" xlink:href="#md504e487d1" y="129.710607"/>
     <use style="fill:#0000ff;stroke:#0000ff;" x="106.960215" xlink:href="#md504e487d1" y="106.134893"/>
     <use style="fill:#0000ff;stroke:#0000ff;" x="236.618711" xlink:href="#md504e487d1" y="130.203655"/>
     <use style="fill:#0000ff;stroke:#0000ff;" x="121.866176" xlink:href="#md504e487d1" y="122.979914"/>
     <use style="fill:#0000ff;stroke:#0000ff;" x="341.461821" xlink:href="#md504e487d1" y="119.023708"/>
     <use style="fill:#0000ff;stroke:#0000ff;" x="199.794039" xlink:href="#md504e487d1" y="151.147429"/>
     <use style="fill:#0000ff;stroke:#0000ff;" x="175.07341" xlink:href="#md504e487d1" y="172.076817"/>
     <use style="fill:#0000ff;stroke:#0000ff;" x="54" xlink:href="#md504e487d1" y="57.338815"/>
     <use style="fill:#0000ff;stroke:#0000ff;" x="133.914669" xlink:href="#md504e487d1" y="53.16527"/>
     <use style="fill:#0000ff;stroke:#0000ff;" x="139.208978" xlink:href="#md504e487d1" y="225.709238"/>
     <use style="fill:#0000ff;stroke:#0000ff;" x="252.477363" xlink:href="#md504e487d1" y="230.367539"/>
     <use style="fill:#0000ff;stroke:#0000ff;" x="110.270508" xlink:href="#md504e487d1" y="217.323214"/>
     <use style="fill:#0000ff;stroke:#0000ff;" x="382.387695" xlink:href="#md504e487d1" y="90.251603"/>
     <use style="fill:#0000ff;stroke:#0000ff;" x="215.927819" xlink:href="#md504e487d1" y="220.031492"/>
     <use style="fill:#0000ff;stroke:#0000ff;" x="292.135145" xlink:href="#md504e487d1" y="105.255774"/>
     <use style="fill:#0000ff;stroke:#0000ff;" x="375.858401" xlink:href="#md504e487d1" y="199.869872"/>
     <use style="fill:#0000ff;stroke:#0000ff;" x="290.017138" xlink:href="#md504e487d1" y="129.825597"/>
     <use style="fill:#0000ff;stroke:#0000ff;" x="329.468635" xlink:href="#md504e487d1" y="144.763877"/>
     <use style="fill:#0000ff;stroke:#0000ff;" x="215.55385" xlink:href="#md504e487d1" y="117.299523"/>
     <use style="fill:#0000ff;stroke:#0000ff;" x="122.847815" xlink:href="#md504e487d1" y="123.986354"/>
     <use style="fill:#0000ff;stroke:#0000ff;" x="306.239553" xlink:href="#md504e487d1" y="87.293855"/>
     <use style="fill:#0000ff;stroke:#0000ff;" x="364.943925" xlink:href="#md504e487d1" y="157.164069"/>
     <use style="fill:#0000ff;stroke:#0000ff;" x="267.42446" xlink:href="#md504e487d1" y="212.903499"/>
     <use style="fill:#0000ff;stroke:#0000ff;" x="256.056063" xlink:href="#md504e487d1" y="150.827896"/>
     <use style="fill:#0000ff;stroke:#0000ff;" x="289.507762" xlink:href="#md504e487d1" y="211.019635"/>
     <use style="fill:#0000ff;stroke:#0000ff;" x="80.031655" xlink:href="#md504e487d1" y="106.785132"/>
     <use style="fill:#0000ff;stroke:#0000ff;" x="138.258247" xlink:href="#md504e487d1" y="103.719922"/>
     <use style="fill:#0000ff;stroke:#0000ff;" x="281.248038" xlink:href="#md504e487d1" y="250.602069"/>
     <use style="fill:#0000ff;stroke:#0000ff;" x="173.99187" xlink:href="#md504e487d1" y="208.682893"/>
     <use style="fill:#0000ff;stroke:#0000ff;" x="194.760217" xlink:href="#md504e487d1" y="65.65767"/>
     <use style="fill:#0000ff;stroke:#0000ff;" x="161.49994" xlink:href="#md504e487d1" y="144.421387"/>
     <use style="fill:#0000ff;stroke:#0000ff;" x="322.202647" xlink:href="#md504e487d1" y="218.735336"/>
     <use style="fill:#0000ff;stroke:#0000ff;" x="247.099121" xlink:href="#md504e487d1" y="191.303646"/>
     <use style="fill:#0000ff;stroke:#0000ff;" x="163.979687" xlink:href="#md504e487d1" y="252"/>
     <use style="fill:#0000ff;stroke:#0000ff;" x="380.484566" xlink:href="#md504e487d1" y="187.825361"/>
     <use style="fill:#0000ff;stroke:#0000ff;" x="227.590801" xlink:href="#md504e487d1" y="154.335538"/>
     <use style="fill:#0000ff;stroke:#0000ff;" x="89.596615" xlink:href="#md504e487d1" y="51.124956"/>
     <use style="fill:#0000ff;stroke:#0000ff;" x="358.969625" xlink:href="#md504e487d1" y="120.676555"/>
     <use style="fill:#0000ff;stroke:#0000ff;" x="305.751474" xlink:href="#md504e487d1" y="39.479391"/>
     <use style="fill:#0000ff;stroke:#0000ff;" x="222.095166" xlink:href="#md504e487d1" y="251.127547"/>
     <use style="fill:#0000ff;stroke:#0000ff;" x="226.504647" xlink:href="#md504e487d1" y="226.547087"/>
     <use style="fill:#0000ff;stroke:#0000ff;" x="360.293528" xlink:href="#md504e487d1" y="110.753252"/>
     <use style="fill:#0000ff;stroke:#0000ff;" x="295.774155" xlink:href="#md504e487d1" y="201.464391"/>
     <use style="fill:#0000ff;stroke:#0000ff;" x="250.950989" xlink:href="#md504e487d1" y="203.034536"/>
     <use style="fill:#0000ff;stroke:#0000ff;" x="330.963191" xlink:href="#md504e487d1" y="171.746176"/>
     <use style="fill:#0000ff;stroke:#0000ff;" x="293.092527" xlink:href="#md504e487d1" y="233.250214"/>
     <use style="fill:#0000ff;stroke:#0000ff;" x="103.362754" xlink:href="#md504e487d1" y="122.386703"/>
     <use style="fill:#0000ff;stroke:#0000ff;" x="330.774709" xlink:href="#md504e487d1" y="202.850771"/>
     <use style="fill:#0000ff;stroke:#0000ff;" x="241.811974" xlink:href="#md504e487d1" y="187.731045"/>
     <use style="fill:#0000ff;stroke:#0000ff;" x="273.311507" xlink:href="#md504e487d1" y="181.287702"/>
     <use style="fill:#0000ff;stroke:#0000ff;" x="60.006881" xlink:href="#md504e487d1" y="75.4151"/>
     <use style="fill:#0000ff;stroke:#0000ff;" x="296.596565" xlink:href="#md504e487d1" y="167.75786"/>
     <use style="fill:#0000ff;stroke:#0000ff;" x="303.986268" xlink:href="#md504e487d1" y="178.982256"/>
     <use style="fill:#0000ff;stroke:#0000ff;" x="149.573918" xlink:href="#md504e487d1" y="86.880899"/>
     <use style="fill:#0000ff;stroke:#0000ff;" x="342.120914" xlink:href="#md504e487d1" y="183.256246"/>
     <use style="fill:#0000ff;stroke:#0000ff;" x="229.967546" xlink:href="#md504e487d1" y="138.660783"/>
     <use style="fill:#0000ff;stroke:#0000ff;" x="375.153644" xlink:href="#md504e487d1" y="36.635443"/>
     <use style="fill:#0000ff;stroke:#0000ff;" x="136.242533" xlink:href="#md504e487d1" y="84.254506"/>
     <use style="fill:#0000ff;stroke:#0000ff;" x="129.445517" xlink:href="#md504e487d1" y="111.679577"/>
     <use style="fill:#0000ff;stroke:#0000ff;" x="375.358858" xlink:href="#md504e487d1" y="153.84112"/>
     <use style="fill:#0000ff;stroke:#0000ff;" x="256.495064" xlink:href="#md504e487d1" y="92.732153"/>
     <use style="fill:#0000ff;stroke:#0000ff;" x="218.374813" xlink:href="#md504e487d1" y="189.440465"/>
     <use style="fill:#0000ff;stroke:#0000ff;" x="201.148831" xlink:href="#md504e487d1" y="55.587221"/>
     <use style="fill:#0000ff;stroke:#0000ff;" x="97.200564" xlink:href="#md504e487d1" y="139.00129"/>
     <use style="fill:#0000ff;stroke:#0000ff;" x="365.551766" xlink:href="#md504e487d1" y="171.09267"/>
     <use style="fill:#0000ff;stroke:#0000ff;" x="87.469619" xlink:href="#md504e487d1" y="88.785498"/>
     <use style="fill:#0000ff;stroke:#0000ff;" x="162.987133" xlink:href="#md504e487d1" y="240.272418"/>
     <use style="fill:#0000ff;stroke:#0000ff;" x="188.131162" xlink:href="#md504e487d1" y="53.966494"/>
     <use style="fill:#0000ff;stroke:#0000ff;" x="189.888368" xlink:href="#md504e487d1" y="150.914224"/>
     <use style="fill:#0000ff;stroke:#0000ff;" x="187.636428" xlink:href="#md504e487d1" y="112.63255"/>
     <use style="fill:#0000ff;stroke:#0000ff;" x="354.369575" xlink:href="#md504e487d1" y="220.000898"/>
     <use style="fill:#0000ff;stroke:#0000ff;" x="92.420731" xlink:href="#md504e487d1" y="220.62181"/>
     <use style="fill:#0000ff;stroke:#0000ff;" x="125.897975" xlink:href="#md504e487d1" y="233.605679"/>
     <use style="fill:#0000ff;stroke:#0000ff;" x="94.548155" xlink:href="#md504e487d1" y="42.152264"/>
     <use style="fill:#0000ff;stroke:#0000ff;" x="102.89896" xlink:href="#md504e487d1" y="75.963818"/>
     <use style="fill:#0000ff;stroke:#0000ff;" x="170.610227" xlink:href="#md504e487d1" y="186.703718"/>
     <use style="fill:#0000ff;stroke:#0000ff;" x="229.923385" xlink:href="#md504e487d1" y="192.670255"/>
     <use style="fill:#0000ff;stroke:#0000ff;" x="101.238932" xlink:href="#md504e487d1" y="55.974363"/>
     <use style="fill:#0000ff;stroke:#0000ff;" x="151.771971" xlink:href="#md504e487d1" y="246.621985"/>
     <use style="fill:#0000ff;stroke:#0000ff;" x="231.862005" xlink:href="#md504e487d1" y="158.847448"/>
     <use style="fill:#0000ff;stroke:#0000ff;" x="294.714405" xlink:href="#md504e487d1" y="106.715563"/>
     <use style="fill:#0000ff;stroke:#0000ff;" x="135.983241" xlink:href="#md504e487d1" y="187.617714"/>
     <use style="fill:#0000ff;stroke:#0000ff;" x="247.889619" xlink:href="#md504e487d1" y="40.907735"/>
     <use style="fill:#0000ff;stroke:#0000ff;" x="351.23828" xlink:href="#md504e487d1" y="91.503721"/>
     <use style="fill:#0000ff;stroke:#0000ff;" x="152.381074" xlink:href="#md504e487d1" y="64.331119"/>
     <use style="fill:#0000ff;stroke:#0000ff;" x="332.873912" xlink:href="#md504e487d1" y="56.173591"/>
     <use style="fill:#0000ff;stroke:#0000ff;" x="285.226343" xlink:href="#md504e487d1" y="241.613701"/>
     <use style="fill:#0000ff;stroke:#0000ff;" x="73.677919" xlink:href="#md504e487d1" y="229.842587"/>
     <use style="fill:#0000ff;stroke:#0000ff;" x="323.487181" xlink:href="#md504e487d1" y="231.459525"/>
     <use style="fill:#0000ff;stroke:#0000ff;" x="171.548038" xlink:href="#md504e487d1" y="46.834535"/>
     <use style="fill:#0000ff;stroke:#0000ff;" x="319.515055" xlink:href="#md504e487d1" y="42.474708"/>
     <use style="fill:#0000ff;stroke:#0000ff;" x="219.407492" xlink:href="#md504e487d1" y="181.752394"/>
     <use style="fill:#0000ff;stroke:#0000ff;" x="159.184583" xlink:href="#md504e487d1" y="183.503624"/>
     <use style="fill:#0000ff;stroke:#0000ff;" x="297.678004" xlink:href="#md504e487d1" y="60.488656"/>
     <use style="fill:#0000ff;stroke:#0000ff;" x="56.422102" xlink:href="#md504e487d1" y="146.217258"/>
     <use style="fill:#0000ff;stroke:#0000ff;" x="241.031344" xlink:href="#md504e487d1" y="130.405297"/>
     <use style="fill:#0000ff;stroke:#0000ff;" x="363.844754" xlink:href="#md504e487d1" y="173.307546"/>
     <use style="fill:#0000ff;stroke:#0000ff;" x="169.714237" xlink:href="#md504e487d1" y="159.874056"/>
     <use style="fill:#0000ff;stroke:#0000ff;" x="310.915545" xlink:href="#md504e487d1" y="162.781883"/>
     <use style="fill:#0000ff;stroke:#0000ff;" x="260.763737" xlink:href="#md504e487d1" y="123.968842"/>
     <use style="fill:#0000ff;stroke:#0000ff;" x="113.582968" xlink:href="#md504e487d1" y="197.287934"/>
     <use style="fill:#0000ff;stroke:#0000ff;" x="180.808751" xlink:href="#md504e487d1" y="187.838188"/>
     <use style="fill:#0000ff;stroke:#0000ff;" x="79.921407" xlink:href="#md504e487d1" y="238.791304"/>
     <use style="fill:#0000ff;stroke:#0000ff;" x="243.432844" xlink:href="#md504e487d1" y="222.510066"/>
     <use style="fill:#0000ff;stroke:#0000ff;" x="133.424255" xlink:href="#md504e487d1" y="152.333962"/>
     <use style="fill:#0000ff;stroke:#0000ff;" x="279.299138" xlink:href="#md504e487d1" y="199.887094"/>
     <use style="fill:#0000ff;stroke:#0000ff;" x="274.872851" xlink:href="#md504e487d1" y="145.075288"/>
     <use style="fill:#0000ff;stroke:#0000ff;" x="202.420547" xlink:href="#md504e487d1" y="52.935642"/>
     <use style="fill:#0000ff;stroke:#0000ff;" x="304.077429" xlink:href="#md504e487d1" y="119.124308"/>
     <use style="fill:#0000ff;stroke:#0000ff;" x="340.595664" xlink:href="#md504e487d1" y="39.949018"/>
     <use style="fill:#0000ff;stroke:#0000ff;" x="134.51044" xlink:href="#md504e487d1" y="117.518532"/>
     <use style="fill:#0000ff;stroke:#0000ff;" x="65.528552" xlink:href="#md504e487d1" y="250.656088"/>
     <use style="fill:#0000ff;stroke:#0000ff;" x="206.412771" xlink:href="#md504e487d1" y="177.933722"/>
     <use style="fill:#0000ff;stroke:#0000ff;" x="327.724099" xlink:href="#md504e487d1" y="36.378018"/>
     <use style="fill:#0000ff;stroke:#0000ff;" x="369.489166" xlink:href="#md504e487d1" y="218.840522"/>
     <use style="fill:#0000ff;stroke:#0000ff;" x="339.135287" xlink:href="#md504e487d1" y="243.159739"/>
     <use style="fill:#0000ff;stroke:#0000ff;" x="202.239119" xlink:href="#md504e487d1" y="124.500716"/>
     <use style="fill:#0000ff;stroke:#0000ff;" x="161.355957" xlink:href="#md504e487d1" y="179.051108"/>
     <use style="fill:#0000ff;stroke:#0000ff;" x="138.031518" xlink:href="#md504e487d1" y="241.915677"/>
     <use style="fill:#0000ff;stroke:#0000ff;" x="236.812598" xlink:href="#md504e487d1" y="35.723236"/>
     <use style="fill:#0000ff;stroke:#0000ff;" x="55.321753" xlink:href="#md504e487d1" y="246.707114"/>
     <use style="fill:#0000ff;stroke:#0000ff;" x="342.923068" xlink:href="#md504e487d1" y="93.830715"/>
     <use style="fill:#0000ff;stroke:#0000ff;" x="171.675451" xlink:href="#md504e487d1" y="181.971012"/>
     <use style="fill:#0000ff;stroke:#0000ff;" x="313.648054" xlink:href="#md504e487d1" y="75.328731"/>
     <use style="fill:#0000ff;stroke:#0000ff;" x="258.051931" xlink:href="#md504e487d1" y="122.076256"/>
     <use style="fill:#0000ff;stroke:#0000ff;" x="215.353517" xlink:href="#md504e487d1" y="67.053162"/>
     <use style="fill:#0000ff;stroke:#0000ff;" x="323.547963" xlink:href="#md504e487d1" y="171.230372"/>
     <use style="fill:#0000ff;stroke:#0000ff;" x="263.842455" xlink:href="#md504e487d1" y="77.575664"/>
     <use style="fill:#0000ff;stroke:#0000ff;" x="300.950296" xlink:href="#md504e487d1" y="86.721952"/>
     <use style="fill:#0000ff;stroke:#0000ff;" x="256.183987" xlink:href="#md504e487d1" y="233.685357"/>
     <use style="fill:#0000ff;stroke:#0000ff;" x="216.578199" xlink:href="#md504e487d1" y="146.206375"/>
     <use style="fill:#0000ff;stroke:#0000ff;" x="102.365262" xlink:href="#md504e487d1" y="133.782029"/>
     <use style="fill:#0000ff;stroke:#0000ff;" x="148.037753" xlink:href="#md504e487d1" y="104.547813"/>
     <use style="fill:#0000ff;stroke:#0000ff;" x="130.959766" xlink:href="#md504e487d1" y="158.091384"/>
     <use style="fill:#0000ff;stroke:#0000ff;" x="331.972329" xlink:href="#md504e487d1" y="184.357932"/>
     <use style="fill:#0000ff;stroke:#0000ff;" x="184.657776" xlink:href="#md504e487d1" y="250.518644"/>
     <use style="fill:#0000ff;stroke:#0000ff;" x="137.406663" xlink:href="#md504e487d1" y="244.427757"/>
     <use style="fill:#0000ff;stroke:#0000ff;" x="133.103974" xlink:href="#md504e487d1" y="207.652483"/>
     <use style="fill:#0000ff;stroke:#0000ff;" x="308.458842" xlink:href="#md504e487d1" y="175.64925"/>
     <use style="fill:#0000ff;stroke:#0000ff;" x="96.733294" xlink:href="#md504e487d1" y="196.909609"/>
     <use style="fill:#0000ff;stroke:#0000ff;" x="364.575683" xlink:href="#md504e487d1" y="158.643847"/>
     <use style="fill:#0000ff;stroke:#0000ff;" x="229.810345" xlink:href="#md504e487d1" y="247.785995"/>
     <use style="fill:#0000ff;stroke:#0000ff;" x="385.067317" xlink:href="#md504e487d1" y="140.684557"/>
     <use style="fill:#0000ff;stroke:#0000ff;" x="386.23336" xlink:href="#md504e487d1" y="147.262503"/>
     <use style="fill:#0000ff;stroke:#0000ff;" x="157.789437" xlink:href="#md504e487d1" y="38.869739"/>
     <use style="fill:#0000ff;stroke:#0000ff;" x="131.197659" xlink:href="#md504e487d1" y="94.156854"/>
     <use style="fill:#0000ff;stroke:#0000ff;" x="203.044494" xlink:href="#md504e487d1" y="132.219777"/>
     <use style="fill:#0000ff;stroke:#0000ff;" x="115.201637" xlink:href="#md504e487d1" y="84.868154"/>
     <use style="fill:#0000ff;stroke:#0000ff;" x="56.024947" xlink:href="#md504e487d1" y="128.046522"/>
     <use style="fill:#0000ff;stroke:#0000ff;" x="126.050336" xlink:href="#md504e487d1" y="115.1102"/>
     <use style="fill:#0000ff;stroke:#0000ff;" x="254.751531" xlink:href="#md504e487d1" y="97.087563"/>
     <use style="fill:#0000ff;stroke:#0000ff;" x="271.748349" xlink:href="#md504e487d1" y="40.256059"/>
     <use style="fill:#0000ff;stroke:#0000ff;" x="341.590794" xlink:href="#md504e487d1" y="168.658031"/>
     <use style="fill:#0000ff;stroke:#0000ff;" x="81.295612" xlink:href="#md504e487d1" y="96.027135"/>
     <use style="fill:#0000ff;stroke:#0000ff;" x="206.116844" xlink:href="#md504e487d1" y="59.648966"/>
     <use style="fill:#0000ff;stroke:#0000ff;" x="223.405975" xlink:href="#md504e487d1" y="54.000687"/>
     <use style="fill:#0000ff;stroke:#0000ff;" x="60.170115" xlink:href="#md504e487d1" y="241.095158"/>
     <use style="fill:#0000ff;stroke:#0000ff;" x="111.578084" xlink:href="#md504e487d1" y="94.895573"/>
     <use style="fill:#0000ff;stroke:#0000ff;" x="115.636287" xlink:href="#md504e487d1" y="60.856992"/>
     <use style="fill:#0000ff;stroke:#0000ff;" x="338.091665" xlink:href="#md504e487d1" y="70.209456"/>
     <use style="fill:#0000ff;stroke:#0000ff;" x="222.592403" xlink:href="#md504e487d1" y="132.482535"/>
     <use style="fill:#0000ff;stroke:#0000ff;" x="144.757594" xlink:href="#md504e487d1" y="78.510114"/>
     <use style="fill:#0000ff;stroke:#0000ff;" x="269.22678" xlink:href="#md504e487d1" y="211.907436"/>
     <use style="fill:#0000ff;stroke:#0000ff;" x="243.112312" xlink:href="#md504e487d1" y="230.561957"/>
     <use style="fill:#0000ff;stroke:#0000ff;" x="71.907509" xlink:href="#md504e487d1" y="54.404525"/>
     <use style="fill:#0000ff;stroke:#0000ff;" x="323.047802" xlink:href="#md504e487d1" y="197.810301"/>
     <use style="fill:#0000ff;stroke:#0000ff;" x="102.451941" xlink:href="#md504e487d1" y="205.388004"/>
     <use style="fill:#0000ff;stroke:#0000ff;" x="316.065026" xlink:href="#md504e487d1" y="174.976496"/>
     <use style="fill:#0000ff;stroke:#0000ff;" x="257.129228" xlink:href="#md504e487d1" y="229.296374"/>
     <use style="fill:#0000ff;stroke:#0000ff;" x="182.644216" xlink:href="#md504e487d1" y="65.456951"/>
     <use style="fill:#0000ff;stroke:#0000ff;" x="208.908675" xlink:href="#md504e487d1" y="139.111596"/>
     <use style="fill:#0000ff;stroke:#0000ff;" x="95.776973" xlink:href="#md504e487d1" y="243.539264"/>
     <use style="fill:#0000ff;stroke:#0000ff;" x="100.838893" xlink:href="#md504e487d1" y="206.232002"/>
     <use style="fill:#0000ff;stroke:#0000ff;" x="311.458939" xlink:href="#md504e487d1" y="95.314589"/>
     <use style="fill:#0000ff;stroke:#0000ff;" x="120.465485" xlink:href="#md504e487d1" y="216.278162"/>
     <use style="fill:#0000ff;stroke:#0000ff;" x="173.897309" xlink:href="#md504e487d1" y="34.56"/>
     <use style="fill:#0000ff;stroke:#0000ff;" x="292.602596" xlink:href="#md504e487d1" y="125.190286"/>
     <use style="fill:#0000ff;stroke:#0000ff;" x="386.016101" xlink:href="#md504e487d1" y="152.148841"/>
     <use style="fill:#0000ff;stroke:#0000ff;" x="330.98122" xlink:href="#md504e487d1" y="190.686872"/>
     <use style="fill:#0000ff;stroke:#0000ff;" x="146.287654" xlink:href="#md504e487d1" y="216.240179"/>
     <use style="fill:#0000ff;stroke:#0000ff;" x="309.98899" xlink:href="#md504e487d1" y="213.877435"/>
     <use style="fill:#0000ff;stroke:#0000ff;" x="169.335415" xlink:href="#md504e487d1" y="164.750342"/>
     <use style="fill:#0000ff;stroke:#0000ff;" x="300.135221" xlink:href="#md504e487d1" y="44.010027"/>
     <use style="fill:#0000ff;stroke:#0000ff;" x="275.341645" xlink:href="#md504e487d1" y="150.968686"/>
     <use style="fill:#0000ff;stroke:#0000ff;" x="298.542293" xlink:href="#md504e487d1" y="53.088215"/>
     <use style="fill:#0000ff;stroke:#0000ff;" x="292.27852" xlink:href="#md504e487d1" y="127.131667"/>
     <use style="fill:#0000ff;stroke:#0000ff;" x="89.41038" xlink:href="#md504e487d1" y="86.653359"/>
     <use style="fill:#0000ff;stroke:#0000ff;" x="60.472219" xlink:href="#md504e487d1" y="102.785292"/>
     <use style="fill:#0000ff;stroke:#0000ff;" x="72.09814" xlink:href="#md504e487d1" y="121.544815"/>
     <use style="fill:#0000ff;stroke:#0000ff;" x="199.367019" xlink:href="#md504e487d1" y="226.597784"/>
     <use style="fill:#0000ff;stroke:#0000ff;" x="370.076128" xlink:href="#md504e487d1" y="145.23568"/>
     <use style="fill:#0000ff;stroke:#0000ff;" x="260.420015" xlink:href="#md504e487d1" y="143.560004"/>
     <use style="fill:#0000ff;stroke:#0000ff;" x="152.95652" xlink:href="#md504e487d1" y="100.956975"/>
     <use style="fill:#0000ff;stroke:#0000ff;" x="347.251827" xlink:href="#md504e487d1" y="94.485238"/>
     <use style="fill:#0000ff;stroke:#0000ff;" x="116.507021" xlink:href="#md504e487d1" y="219.333728"/>
     <use style="fill:#0000ff;stroke:#0000ff;" x="354.773182" xlink:href="#md504e487d1" y="145.573319"/>
     <use style="fill:#0000ff;stroke:#0000ff;" x="282.25546" xlink:href="#md504e487d1" y="167.642261"/>
     <use style="fill:#0000ff;stroke:#0000ff;" x="367.806028" xlink:href="#md504e487d1" y="139.926375"/>
     <use style="fill:#0000ff;stroke:#0000ff;" x="173.982528" xlink:href="#md504e487d1" y="171.801481"/>
     <use style="fill:#0000ff;stroke:#0000ff;" x="119.715864" xlink:href="#md504e487d1" y="179.639939"/>
     <use style="fill:#0000ff;stroke:#0000ff;" x="385.941838" xlink:href="#md504e487d1" y="99.661843"/>
     <use style="fill:#0000ff;stroke:#0000ff;" x="291.557966" xlink:href="#md504e487d1" y="215.726892"/>
     <use style="fill:#0000ff;stroke:#0000ff;" x="235.805106" xlink:href="#md504e487d1" y="240.921539"/>
     <use style="fill:#0000ff;stroke:#0000ff;" x="174.697516" xlink:href="#md504e487d1" y="192.831057"/>
     <use style="fill:#0000ff;stroke:#0000ff;" x="356.862606" xlink:href="#md504e487d1" y="52.520596"/>
     <use style="fill:#0000ff;stroke:#0000ff;" x="347.186971" xlink:href="#md504e487d1" y="245.376517"/>
     <use style="fill:#0000ff;stroke:#0000ff;" x="161.182642" xlink:href="#md504e487d1" y="149.958135"/>
     <use style="fill:#0000ff;stroke:#0000ff;" x="388.8" xlink:href="#md504e487d1" y="81.433023"/>
     <use style="fill:#0000ff;stroke:#0000ff;" x="158.28513" xlink:href="#md504e487d1" y="251.271361"/>
     <use style="fill:#0000ff;stroke:#0000ff;" x="127.590229" xlink:href="#md504e487d1" y="213.911906"/>
     <use style="fill:#0000ff;stroke:#0000ff;" x="171.095572" xlink:href="#md504e487d1" y="42.934991"/>
     <use style="fill:#0000ff;stroke:#0000ff;" x="372.942765" xlink:href="#md504e487d1" y="182.631648"/>
     <use style="fill:#0000ff;stroke:#0000ff;" x="69.36254" xlink:href="#md504e487d1" y="141.252898"/>
     <use style="fill:#0000ff;stroke:#0000ff;" x="79.93664" xlink:href="#md504e487d1" y="248.144343"/>
     <use style="fill:#0000ff;stroke:#0000ff;" x="73.726709" xlink:href="#md504e487d1" y="125.390829"/>
     <use style="fill:#0000ff;stroke:#0000ff;" x="69.307558" xlink:href="#md504e487d1" y="49.496954"/>
     <use style="fill:#0000ff;stroke:#0000ff;" x="186.322795" xlink:href="#md504e487d1" y="175.885598"/>
     <use style="fill:#0000ff;stroke:#0000ff;" x="346.716198" xlink:href="#md504e487d1" y="88.04719"/>
     <use style="fill:#0000ff;stroke:#0000ff;" x="55.903104" xlink:href="#md504e487d1" y="79.40066"/>
     <use style="fill:#0000ff;stroke:#0000ff;" x="377.669034" xlink:href="#md504e487d1" y="86.627388"/>
     <use style="fill:#0000ff;stroke:#0000ff;" x="103.940751" xlink:href="#md504e487d1" y="114.080383"/>
     <use style="fill:#0000ff;stroke:#0000ff;" x="311.9936" xlink:href="#md504e487d1" y="78.063484"/>
     <use style="fill:#0000ff;stroke:#0000ff;" x="228.396344" xlink:href="#md504e487d1" y="59.777831"/>
     <use style="fill:#0000ff;stroke:#0000ff;" x="166.916488" xlink:href="#md504e487d1" y="195.481599"/>
     <use style="fill:#0000ff;stroke:#0000ff;" x="329.327285" xlink:href="#md504e487d1" y="109.708322"/>
     <use style="fill:#0000ff;stroke:#0000ff;" x="190.933984" xlink:href="#md504e487d1" y="64.478793"/>
     <use style="fill:#0000ff;stroke:#0000ff;" x="57.394624" xlink:href="#md504e487d1" y="156.384348"/>
     <use style="fill:#0000ff;stroke:#0000ff;" x="222.883736" xlink:href="#md504e487d1" y="58.482304"/>
     <use style="fill:#0000ff;stroke:#0000ff;" x="152.336826" xlink:href="#md504e487d1" y="187.334124"/>
     <use style="fill:#0000ff;stroke:#0000ff;" x="130.649456" xlink:href="#md504e487d1" y="116.678048"/>
     <use style="fill:#0000ff;stroke:#0000ff;" x="337.112486" xlink:href="#md504e487d1" y="245.524609"/>
     <use style="fill:#0000ff;stroke:#0000ff;" x="264.19709" xlink:href="#md504e487d1" y="45.415571"/>
     <use style="fill:#0000ff;stroke:#0000ff;" x="92.700177" xlink:href="#md504e487d1" y="197.580448"/>
     <use style="fill:#0000ff;stroke:#0000ff;" x="54.71835" xlink:href="#md504e487d1" y="196.371258"/>
     <use style="fill:#0000ff;stroke:#0000ff;" x="85.584495" xlink:href="#md504e487d1" y="168.671072"/>
     <use style="fill:#0000ff;stroke:#0000ff;" x="192.804399" xlink:href="#md504e487d1" y="37.156336"/>
     <use style="fill:#0000ff;stroke:#0000ff;" x="134.671598" xlink:href="#md504e487d1" y="64.818321"/>
     <use style="fill:#0000ff;stroke:#0000ff;" x="288.434323" xlink:href="#md504e487d1" y="182.844764"/>
     <use style="fill:#0000ff;stroke:#0000ff;" x="320.415698" xlink:href="#md504e487d1" y="203.922124"/>
    </g>
   </g>
   <g id="patch_3">
    <path d="M 54 252 
L 54 34.56 
" style="fill:none;stroke:#000000;stroke-linecap:square;stroke-linejoin:miter;stroke-width:0.8;"/>
   </g>
   <g id="patch_4">
    <path d="M 388.8 252 
L 388.8 34.56 
" style="fill:none;stroke:#000000;stroke-linecap:square;stroke-linejoin:miter;stroke-width:0.8;"/>
   </g>
   <g id="patch_5">
    <path d="M 54 252 
L 388.8 252 
" style="fill:none;stroke:#000000;stroke-linecap:square;stroke-linejoin:miter;stroke-width:0.8;"/>
   </g>
   <g id="patch_6">
    <path d="M 54 34.56 
L 388.8 34.56 
" style="fill:none;stroke:#000000;stroke-linecap:square;stroke-linejoin:miter;stroke-width:0.8;"/>
   </g>
   <g id="text_11">
    <!-- Mersenne Twister -->
    <defs>
     <path d="M 9.8125 72.90625 
L 24.515625 72.90625 
L 43.109375 23.296875 
L 61.8125 72.90625 
L 76.515625 72.90625 
L 76.515625 0 
L 66.890625 0 
L 66.890625 64.015625 
L 48.09375 14.015625 
L 38.1875 14.015625 
L 19.390625 64.015625 
L 19.390625 0 
L 9.8125 0 
z
" id="DejaVuSans-4d"/>
     <path d="M 56.203125 29.59375 
L 56.203125 25.203125 
L 14.890625 25.203125 
Q 15.484375 15.921875 20.484375 11.0625 
Q 25.484375 6.203125 34.421875 6.203125 
Q 39.59375 6.203125 44.453125 7.46875 
Q 49.3125 8.734375 54.109375 11.28125 
L 54.109375 2.78125 
Q 49.265625 0.734375 44.1875 -0.34375 
Q 39.109375 -1.421875 33.890625 -1.421875 
Q 20.796875 -1.421875 13.15625 6.1875 
Q 5.515625 13.8125 5.515625 26.8125 
Q 5.515625 40.234375 12.765625 48.109375 
Q 20.015625 56 32.328125 56 
Q 43.359375 56 49.78125 48.890625 
Q 56.203125 41.796875 56.203125 29.59375 
z
M 47.21875 32.234375 
Q 47.125 39.59375 43.09375 43.984375 
Q 39.0625 48.390625 32.421875 48.390625 
Q 24.90625 48.390625 20.390625 44.140625 
Q 15.875 39.890625 15.1875 32.171875 
z
" id="DejaVuSans-65"/>
     <path d="M 41.109375 46.296875 
Q 39.59375 47.171875 37.8125 47.578125 
Q 36.03125 48 33.890625 48 
Q 26.265625 48 22.1875 43.046875 
Q 18.109375 38.09375 18.109375 28.8125 
L 18.109375 0 
L 9.078125 0 
L 9.078125 54.6875 
L 18.109375 54.6875 
L 18.109375 46.1875 
Q 20.953125 51.171875 25.484375 53.578125 
Q 30.03125 56 36.53125 56 
Q 37.453125 56 38.578125 55.875 
Q 39.703125 55.765625 41.0625 55.515625 
z
" id="DejaVuSans-72"/>
     <path d="M 44.28125 53.078125 
L 44.28125 44.578125 
Q 40.484375 46.53125 36.375 47.5 
Q 32.28125 48.484375 27.875 48.484375 
Q 21.1875 48.484375 17.84375 46.4375 
Q 14.5 44.390625 14.5 40.28125 
Q 14.5 37.15625 16.890625 35.375 
Q 19.28125 33.59375 26.515625 31.984375 
L 29.59375 31.296875 
Q 39.15625 29.25 43.1875 25.515625 
Q 47.21875 21.78125 47.21875 15.09375 
Q 47.21875 7.46875 41.1875 3.015625 
Q 35.15625 -1.421875 24.609375 -1.421875 
Q 20.21875 -1.421875 15.453125 -0.5625 
Q 10.6875 0.296875 5.421875 2 
L 5.421875 11.28125 
Q 10.40625 8.6875 15.234375 7.390625 
Q 20.0625 6.109375 24.8125 6.109375 
Q 31.15625 6.109375 34.5625 8.28125 
Q 37.984375 10.453125 37.984375 14.40625 
Q 37.984375 18.0625 35.515625 20.015625 
Q 33.0625 21.96875 24.703125 23.78125 
L 21.578125 24.515625 
Q 13.234375 26.265625 9.515625 29.90625 
Q 5.8125 33.546875 5.8125 39.890625 
Q 5.8125 47.609375 11.28125 51.796875 
Q 16.75 56 26.8125 56 
Q 31.78125 56 36.171875 55.265625 
Q 40.578125 54.546875 44.28125 53.078125 
z
" id="DejaVuSans-73"/>
     <path d="M 54.890625 33.015625 
L 54.890625 0 
L 45.90625 0 
L 45.90625 32.71875 
Q 45.90625 40.484375 42.875 44.328125 
Q 39.84375 48.1875 33.796875 48.1875 
Q 26.515625 48.1875 22.3125 43.546875 
Q 18.109375 38.921875 18.109375 30.90625 
L 18.109375 0 
L 9.078125 0 
L 9.078125 54.6875 
L 18.109375 54.6875 
L 18.109375 46.1875 
Q 21.34375 51.125 25.703125 53.5625 
Q 30.078125 56 35.796875 56 
Q 45.21875 56 50.046875 50.171875 
Q 54.890625 44.34375 54.890625 33.015625 
z
" id="DejaVuSans-6e"/>
     <path id="DejaVuSans-20"/>
     <path d="M -0.296875 72.90625 
L 61.375 72.90625 
L 61.375 64.59375 
L 35.5 64.59375 
L 35.5 0 
L 25.59375 0 
L 25.59375 64.59375 
L -0.296875 64.59375 
z
" id="DejaVuSans-54"/>
     <path d="M 4.203125 54.6875 
L 13.1875 54.6875 
L 24.421875 12.015625 
L 35.59375 54.6875 
L 46.1875 54.6875 
L 57.421875 12.015625 
L 68.609375 54.6875 
L 77.59375 54.6875 
L 63.28125 0 
L 52.6875 0 
L 40.921875 44.828125 
L 29.109375 0 
L 18.5 0 
z
" id="DejaVuSans-77"/>
     <path d="M 9.421875 54.6875 
L 18.40625 54.6875 
L 18.40625 0 
L 9.421875 0 
z
M 9.421875 75.984375 
L 18.40625 75.984375 
L 18.40625 64.59375 
L 9.421875 64.59375 
z
" id="DejaVuSans-69"/>
     <path d="M 18.3125 70.21875 
L 18.3125 54.6875 
L 36.8125 54.6875 
L 36.8125 47.703125 
L 18.3125 47.703125 
L 18.3125 18.015625 
Q 18.3125 11.328125 20.140625 9.421875 
Q 21.96875 7.515625 27.59375 7.515625 
L 36.8125 7.515625 
L 36.8125 0 
L 27.59375 0 
Q 17.1875 0 13.234375 3.875 
Q 9.28125 7.765625 9.28125 18.015625 
L 9.28125 47.703125 
L 2.6875 47.703125 
L 2.6875 54.6875 
L 9.28125 54.6875 
L 9.28125 70.21875 
z
" id="DejaVuSans-74"/>
    </defs>
    <g transform="translate(168.18375 28.56)scale(0.12 -0.12)">
     <use xlink:href="#DejaVuSans-4d"/>
     <use x="86.279297" xlink:href="#DejaVuSans-65"/>
     <use x="147.802734" xlink:href="#DejaVuSans-72"/>
     <use x="188.916016" xlink:href="#DejaVuSans-73"/>
     <use x="241.015625" xlink:href="#DejaVuSans-65"/>
     <use x="302.539062" xlink:href="#DejaVuSans-6e"/>
     <use x="365.917969" xlink:href="#DejaVuSans-6e"/>
     <use x="429.296875" xlink:href="#DejaVuSans-65"/>
     <use x="490.820312" xlink:href="#DejaVuSans-20"/>
     <use x="522.607422" xlink:href="#DejaVuSans-54"/>
     <use x="583.441406" xlink:href="#DejaVuSans-77"/>
     <use x="665.228516" xlink:href="#DejaVuSans-69"/>
     <use x="693.011719" xlink:href="#DejaVuSans-73"/>
     <use x="745.111328" xlink:href="#DejaVuSans-74"/>
     <use x="784.320312" xlink:href="#DejaVuSans-65"/>
     <use x="845.84375" xlink:href="#DejaVuSans-72"/>
    </g>
   </g>
  </g>
 </g>
 <defs>
  <clipPath id="p6dfbb91941">
   <rect height="217.44" width="334.8" x="54" y="34.56"/>
  </clipPath>
 </defs>
</svg>
